<?xml version="1.0" standalone="no"?>
<!DOCTYPE svg PUBLIC "-//W3C//DTD SVG 1.1//EN" "http://www.w3.org/Graphics/SVG/1.1/DTD/svg11.dtd" >
<svg xmlns="http://www.w3.org/2000/svg" xmlns:xlink="http://www.w3.org/1999/xlink" version="1.1">
<metadata>
Created by FontForge 20170731 at Mon Nov 11 17:42:27 2019
 By Aleksey,,,
Copyright (c) 2019 by Mathieu Desjardins. All rights reserved.
</metadata>
<defs>
<font id="Hatton-Light" horiz-adv-x="0" >
  <font-face 
    font-family="Hatton Light"
    font-weight="300"
    font-stretch="normal"
    units-per-em="1000"
    panose-1="0 0 4 0 0 0 0 0 0 0"
    ascent="800"
    descent="-200"
    x-height="465"
    cap-height="800"
    bbox="-373 -538.375 1944 1038.38"
    underline-thickness="13"
    underline-position="-84"
    unicode-range="U+0020-2265"
  />
<missing-glyph horiz-adv-x="550" 
d="M451 800v-1100h-349v1100h349zM366 726h-181v-36h71v-41h-72v-36h182v36h-72v41h72v36zM294 584h-110v-114h182v37h-72v77zM256 547v-40h-36v40h36zM366 440h-182v-36h72v-41h-72v-36h110v77h72v36zM366 374h-36v-72h-146v-38h182v110zM366 240h-110v-61h38v25h36v-52
h-110v88h-36v-124h182v124zM366 50h-182v-124h182v124zM330 14v-52h-110v52h110zM366 -100h-182v-36h77l-77 -52v-36h182v36h-112l77 52h35v36z" />
    <glyph glyph-name="f_f" unicode="ff" horiz-adv-x="577" 
d="M507 820q27 0 59 -8.5t49 -15t62 -25.5q0 -20 -15.5 -27.5t-41.5 4.5q-11 6 -32 23t-41.5 27t-44.5 10q-63 0 -87 -62t-11 -205v-76h150v-12h-150v-265q0 -94 6 -188h-65q7 94 7 188v265h-178v-265q0 -94 6 -188h-65q7 94 7 188v265h-102v12h102v50q0 148 40.5 206.5
t111.5 58.5q54 0 103 -47q33 87 130 87zM352 465v76q0 113 20 178q-47 49 -95 49q-124 0 -103 -253v-50h178z" />
    <glyph glyph-name="f_f_i" unicode="ffi" horiz-adv-x="765" 
d="M677 465q-7 -68 -7 -177v-110q0 -110 7 -178h-65q6 68 6 178v110q0 103 -5 165h-209v-265q0 -94 6 -188h-65q7 94 7 188v265h-178v-265q0 -94 6 -188h-65q7 94 7 188v265h-102v12h102v50q0 148 40.5 206.5t111.5 58.5q56 0 109 -53q40 93 131 93q56 0 100.5 -36.5
t82.5 -138.5l-52 -47l-53 47q12 163 -82 163q-59 0 -87 -67t-19 -200v-76h273zM352 465v76q0 107 25 173q-50 54 -100 54q-124 0 -103 -253v-50h178z" />
    <glyph glyph-name="f_i" unicode="fi" horiz-adv-x="535" 
d="M447 465q-7 -68 -7 -177v-110q0 -110 7 -178h-65q6 68 6 178v110q0 103 -5 165h-209v-265q0 -94 6 -188h-65q7 94 7 188v265h-102v12h102v76q0 147 44.5 213t117.5 66q56 0 100.5 -36.5t82.5 -138.5l-52 -47l-53 47q12 163 -82 163q-59 0 -87 -67t-19 -200v-76h273z" />
    <glyph glyph-name=".notdef" horiz-adv-x="550" 
d="M451 800v-1100h-349v1100h349zM366 726h-181v-36h71v-41h-72v-36h182v36h-72v41h72v36zM294 584h-110v-114h182v37h-72v77zM256 547v-40h-36v40h36zM366 440h-182v-36h72v-41h-72v-36h110v77h72v36zM366 374h-36v-72h-146v-38h182v110zM366 240h-110v-61h38v25h36v-52
h-110v88h-36v-124h182v124zM366 50h-182v-124h182v124zM330 14v-52h-110v52h110zM366 -100h-182v-36h77l-77 -52v-36h182v36h-112l77 52h35v36z" />
    <glyph glyph-name=".null" 
 />
    <glyph glyph-name="nonmarkingreturn" horiz-adv-x="333" 
 />
    <glyph glyph-name="space" unicode=" " horiz-adv-x="283" 
 />
    <glyph glyph-name="exclam" unicode="!" horiz-adv-x="235" 
d="M89 769l29 31l28 -31q-17 -158 -22 -580h-12q-5 411 -23 580zM118 -20l-48 48l48 47l47 -47z" />
    <glyph glyph-name="quotedbl" unicode="&#x22;" horiz-adv-x="286" 
d="M70 800h42q-12 -168 -15 -287h-12q-2 104 -15 287zM174 800h42q-14 -187 -16 -287h-12q-2 121 -14 287z" />
    <glyph glyph-name="numbersign" unicode="#" horiz-adv-x="983" 
d="M913 438h-212l-82 -315h236v-25h-242l-65 -250h-26l65 250h-285l-65 -250h-26l65 250h-206v25h212l82 315h-236v25h242l65 249h26l-65 -249h285l65 249h26l-65 -249h206v-25zM593 123l82 315h-285l-82 -315h285z" />
    <glyph glyph-name="dollar" unicode="$" horiz-adv-x="703" 
d="M400 444q141 -78 187 -124.5t46 -117.5q0 -72 -61.5 -119.5t-159.5 -47.5q-20 0 -29 1q0 -58 1 -85h-27q1 27 1 87q-90 10 -160 67t-128 182l48 38q25 -120 88 -188t153 -84q2 216 2 355q-70 40 -105 62t-65.5 49t-40.5 51.5t-10 58.5q0 70 53.5 107.5t132.5 37.5
q22 0 32 -1q0 13 -0.5 38.5t-0.5 37.5h27q-1 -25 -1 -80q100 -16 202 -114l-48 -36q-58 113 -155 135q-2 -182 -2 -299zM172 648q0 -28 10 -50t39 -45t55.5 -39t84.5 -48q0 50 -0.5 148.5t-1.5 144.5q-22 2 -34 2q-64 0 -108.5 -29.5t-44.5 -83.5zM416 48q83 0 134 39.5
t51 99.5q0 55 -46 96.5t-175 113.5q0 -137 2 -347q22 -2 34 -2z" />
    <glyph glyph-name="percent" unicode="%" horiz-adv-x="1137" 
d="M249 817q130 17 257 9t247 -33q-209 -464 -331 -793l-39 7q196 433 328 784q-59 1 -179 15t-199 10q76 -15 123.5 -75t47.5 -132q0 -84 -61.5 -147.5t-155.5 -63.5t-155.5 63.5t-61.5 147.5q0 72 46.5 131t121.5 75q2 1 5 1t5 1h1zM448 609q0 79 -40.5 139t-120.5 60
t-120.5 -60t-40.5 -139t40.5 -139t120.5 -60t120.5 60t40.5 139zM850 403q94 0 155.5 -64t61.5 -148t-61.5 -147.5t-155.5 -63.5q-95 0 -156 63.5t-61 147.5t61 148t156 64zM850 -8q54 0 92 31t53 74.5t15 93.5q0 80 -40 139.5t-120 59.5t-120.5 -59.5t-40.5 -139.5
q0 -79 40.5 -139t120.5 -60z" />
    <glyph glyph-name="ampersand" unicode="&#x26;" horiz-adv-x="827" 
d="M717 163l58 -28q-6 -81 -45.5 -118t-98.5 -37q-58 0 -120 46q-73 -46 -171 -46q-123 0 -206.5 57t-83.5 166q0 73 40 124.5t110 95.5q-74 135 -74 225q0 75 48 123.5t138 48.5q81 0 124.5 -43t43.5 -104q0 -66 -39.5 -111.5t-132.5 -100.5q-55 -33 -58 -35
q47 -84 137 -208q89 -123 129 -163q70 64 75.5 166t-61.5 200l51 40q68 -121 52.5 -237t-102.5 -184q54 -48 101 -48t70.5 43.5t14.5 127.5zM172 654q0 -84 67 -208q18 11 54 31q83 49 112 94t29 105q0 56 -29.5 94t-92.5 38q-67 0 -103.5 -43t-36.5 -111zM341 -8
q91 0 154 46q-63 53 -148 164q-86 115 -134 199q-109 -82 -109 -197q0 -98 65 -155t172 -57z" />
    <glyph glyph-name="quotesingle" unicode="'" horiz-adv-x="182" 
d="M70 800h42q-12 -168 -15 -287h-12q-2 104 -15 287z" />
    <glyph glyph-name="parenleft" unicode="(" horiz-adv-x="379" 
d="M70 380q0 148 77 272t205 188v-12q-107 -66 -166.5 -187.5t-59.5 -260.5q0 -146 56.5 -275t165.5 -193v-12q-129 62 -203.5 194t-74.5 286z" />
    <glyph glyph-name="parenright" unicode=")" horiz-adv-x="379" 
d="M309 380q0 -154 -74 -286t-203 -194v12q109 64 165 193t56 275q0 139 -59 260.5t-166 187.5v12q127 -64 204 -188t77 -272z" />
    <glyph glyph-name="asterisk" unicode="*" horiz-adv-x="582" 
d="M512 559q-89 10 -206 14q56 -52 156 -134l-30 -30q-75 92 -135 156q4 -102 15 -206h-42q11 104 15 206q-60 -64 -135 -156l-30 30q99 81 156 135q-91 -3 -206 -16v42q104 -11 207 -15q-69 64 -157 135l30 30q75 -92 135 -155q-4 103 -15 205h42q-11 -102 -15 -205
q60 63 135 155l30 -30q-100 -82 -157 -135q104 4 206 15z" />
    <glyph glyph-name="plus" unicode="+" horiz-adv-x="561" 
d="M511 276v-33q-111 6 -220 6q0 -109 6 -220h-33q5 123 5 220q-108 0 -219 -6v33q123 -5 219 -5q0 96 -5 219h33q-6 -111 -6 -219q97 0 220 5z" />
    <glyph glyph-name="comma" unicode="," horiz-adv-x="235" 
d="M118 -20l-48 48l48 47l47 -47l-89 -173l-6 5z" />
    <glyph glyph-name="hyphen" unicode="-" horiz-adv-x="663" 
d="M70 276q261 -12 523 0v-33q-261 13 -523 0v33z" />
    <glyph glyph-name="period" unicode="." horiz-adv-x="235" 
d="M118 -20l-48 48l48 47l47 -47z" />
    <glyph glyph-name="slash" unicode="/" horiz-adv-x="563" 
d="M461 803l32 -14q-89 -197 -203.5 -477t-187.5 -481l-32 14q89 197 203.5 477t187.5 481z" />
    <glyph glyph-name="zero" unicode="0" horiz-adv-x="824" 
d="M412 -20q-145 0 -240.5 117t-95.5 303t96 303t240 117t240 -117t96 -303t-96 -303t-240 -117zM412 -8q125 0 199.5 115.5t74.5 292.5t-74.5 292.5t-199.5 115.5t-199.5 -115.5t-74.5 -292.5q0 -178 74.5 -293t199.5 -115z" />
    <glyph glyph-name="one" unicode="1" horiz-adv-x="331" 
d="M73 456l-43 21q115 158 152 323h62q-7 -102 -7 -187v-425q0 -94 6 -188h-64q6 94 6 188v583q-21 -134 -112 -315z" />
    <glyph glyph-name="two" unicode="2" horiz-adv-x="651" 
d="M59 0q12 31 25 59.5t31 55t30 45.5t35 43t33.5 36t37.5 35.5t33.5 29t36 29.5t32.5 26q59 48 90 78t57 78t26 101q0 86 -53.5 139t-142.5 53q-88 0 -143.5 -48t-55.5 -115q0 -91 111 -133l-39 -51q-116 65 -116 176q0 77 70 130t177 53q111 0 182 -57.5t71 -152.5
q0 -35 -12.5 -67.5t-28 -55.5t-48 -52t-51.5 -43.5t-59 -43.5q-110 -74 -150 -109q-93 -81 -152 -198h249q169 2 277 31l-35 -72h-518z" />
    <glyph glyph-name="three" unicode="3" horiz-adv-x="642" 
d="M338 429q116 16 190.5 -37t74.5 -164q0 -105 -72.5 -176.5t-199.5 -71.5q-123 0 -198 67.5t-84 187.5h12q10 -112 80.5 -174t177.5 -62q111 0 168 66t57 163q0 46 -13 82.5t-43 65.5t-78 36.5t-118 -5.5l-3 13q105 50 150.5 109t45.5 140q0 57 -32 98t-102 41
q-136 0 -201 -189l-58 27q23 44 53 79.5t85.5 65t121.5 29.5q89 0 139.5 -46.5t50.5 -114.5q0 -43 -16.5 -79t-48.5 -64t-63.5 -47.5t-75.5 -39.5z" />
    <glyph glyph-name="four" unicode="4" horiz-adv-x="692" 
d="M636 239h-145v-51q0 -94 6 -188h-64q6 94 6 188v51h-399v12q92 87 167.5 177t121 162.5t71.5 123t38 86.5h60q-7 -102 -7 -187v-331q93 7 171 28zM394 280h45v487q-108 -244 -346 -479q122 -10 301 -8z" />
    <glyph glyph-name="five" unicode="5" horiz-adv-x="630" 
d="M157 800h367l26 -71q-113 30 -279 30h-108l-47 -336q117 82 224 82q102 0 172 -65t70 -179q0 -130 -81 -205.5t-198 -75.5q-247 0 -264 245h12q8 -114 70 -171.5t168 -57.5q99 0 164 73t65 194q0 105 -56.5 162.5t-142.5 57.5q-92 0 -211 -82l-7 6z" />
    <glyph glyph-name="six" unicode="6" horiz-adv-x="718" 
d="M391 505q101 0 175.5 -69t74.5 -192q0 -122 -80.5 -193t-190.5 -71q-149 0 -221.5 104t-72.5 286q0 202 84 326t222 124q129 0 225 -119l-58 -27q-58 134 -167 134q-113 0 -176.5 -116.5t-65.5 -307.5q118 121 251 121zM370 -8q89 0 148.5 66.5t59.5 184.5
q0 122 -54.5 185t-141.5 63q-117 0 -242 -119q0 -182 54 -281t176 -99z" />
    <glyph glyph-name="seven" unicode="7" horiz-adv-x="584" 
d="M534 800v-12l-257 -633q-29 -70 -54 -155h-62q50 88 77 150l265 609h-205q-137 0 -242 -28l-46 69h524z" />
    <glyph glyph-name="eight" unicode="8" horiz-adv-x="703" 
d="M419 435q96 -16 156 -75t60 -150q0 -106 -81.5 -168t-201.5 -62q-121 0 -202.5 61.5t-81.5 168.5q0 91 60 150t156 75q-78 19 -121.5 73t-43.5 117q0 78 61.5 136.5t171.5 58.5q109 0 170.5 -59t61.5 -136q0 -63 -43.5 -117t-121.5 -73zM175 625q0 -72 45 -128t132 -56
q85 0 130.5 56t45.5 128q0 71 -45.5 127t-130.5 56q-87 0 -132 -55.5t-45 -127.5zM352 -8q96 0 159 60t63 158t-63 158t-159 60t-159.5 -60t-63.5 -158t63.5 -158t159.5 -60z" />
    <glyph glyph-name="nine" unicode="9" horiz-adv-x="700" 
d="M330 820q149 0 221.5 -104t72.5 -286q0 -202 -84 -326t-222 -124q-129 0 -225 119l58 28q58 -135 167 -135q113 0 176.5 116.5t65.5 307.5q-118 -121 -251 -121q-101 0 -175.5 69t-74.5 192q0 122 80.5 193t190.5 71zM318 309q116 0 242 120q-1 182 -54.5 280.5
t-175.5 98.5q-89 0 -148 -66.5t-59 -183.5q0 -122 54 -185.5t141 -63.5z" />
    <glyph glyph-name="colon" unicode=":" horiz-adv-x="235" 
d="M118 390l-48 48l48 47l47 -47zM118 -20l-48 48l48 47l47 -47z" />
    <glyph glyph-name="semicolon" unicode=";" horiz-adv-x="235" 
d="M118 390l-48 48l48 47l47 -47zM118 -20l-48 48l48 47l47 -47l-89 -173l-6 5z" />
    <glyph glyph-name="less" unicode="&#x3c;" horiz-adv-x="400" 
d="M350 98l-19 -30q-32 24 -59 44t-58.5 41t-47.5 31.5t-58 37.5t-58 38q16 11 58 38t58 37.5t47.5 31.5t58.5 41t59 44l19 -30q-82 -47 -268 -162q186 -115 268 -162z" />
    <glyph glyph-name="equal" unicode="=" horiz-adv-x="559" 
d="M50 356q230 -10 461 0v-33q-231 12 -461 0v33zM50 196q231 -10 461 0v-33q-231 12 -461 0v33z" />
    <glyph glyph-name="greater" unicode="&#x3e;" horiz-adv-x="400" 
d="M50 98q51 29 268 162q-217 133 -268 162l19 30q32 -24 59 -44t58.5 -41t47.5 -31.5t58 -37.5t58 -38q-16 -11 -58 -38t-58 -37.5t-47.5 -31.5t-58.5 -41t-59 -44z" />
    <glyph glyph-name="question" unicode="?" horiz-adv-x="512" 
d="M70 649q64 171 213 171q63 0 111 -39.5t48 -112.5q0 -47 -21 -88.5t-50.5 -76.5t-59 -74t-50.5 -98.5t-21 -132.5h-12q0 74 16 135t39 102t46 77t39 77t16 86q0 60 -28 96.5t-78 36.5q-115 0 -149 -186zM234 -20l-48 48l48 47l47 -47z" />
    <glyph glyph-name="at" unicode="@" horiz-adv-x="927" 
d="M494 720q192 0 298 -118.5t80 -299.5q-16 -106 -67.5 -171t-128.5 -65q-29 0 -49 9t-29.5 22t-13 33.5t-2.5 38t5 40.5q-31 -68 -84 -110t-120 -42q-95 0 -140 74t-25 177q20 108 91.5 178.5t164.5 70.5q97 0 157 -101v-2l18 103h42l-55 -310q-1 -4 -3.5 -19.5t-4 -23.5
t-3.5 -24t-1.5 -25.5t1.5 -23t5 -21.5t10 -16.5t16.5 -12t23.5 -3.5q65 0 114 59t64 165q27 175 -74 290.5t-292 115.5q-175 0 -288.5 -103.5t-135.5 -267.5q-26 -186 81.5 -305t312.5 -119q87 0 151.5 20t137.5 67l7 -11q-73 -47 -140.5 -67.5t-157.5 -20.5
q-208 0 -320 122.5t-85 313.5q23 171 140 277t299 106zM387 70q83 0 139.5 63t75.5 158l27 153q-62 101 -150 101q-82 0 -136.5 -66.5t-75.5 -171.5q-10 -63 -5.5 -115.5t37.5 -87t88 -34.5z" />
    <glyph glyph-name="A" unicode="A" horiz-adv-x="629" 
d="M541 100q12 -48 38 -100h-78q-2 35 -20 100l-56 195h-271l-57 -198q-3 -9 -7.5 -24.5t-7 -23.5t-5 -21t-3.5 -28h-24q14 29 34 96l190 660q5 21 -3 44h70zM157 307h265l-132 460z" />
    <glyph glyph-name="B" unicode="B" horiz-adv-x="609" 
d="M335 457q45 -8 82.5 -24.5t70.5 -43.5t52 -69.5t19 -96.5q0 -62 -25 -107t-69.5 -69.5t-97 -35.5t-115.5 -11h-182q6 89 6 188v425q0 98 -6 187h170q41 0 74.5 -3t71 -14t63 -29.5t42 -51.5t16.5 -78q0 -71 -41 -113t-131 -54zM133 788v-324h107q109 0 157.5 41t48.5 119
q0 49 -21.5 83.5t-57.5 51t-70 23t-71 6.5h-93zM236 13q112 0 185.5 52t73.5 160q0 53 -18 94t-44.5 65t-61 40t-64 21.5t-57.5 5.5h-5h-112v-438h103z" />
    <glyph glyph-name="C" unicode="C" horiz-adv-x="836" 
d="M784 329h12q-34 -163 -122.5 -256t-233.5 -93q-119 0 -206.5 58.5t-130.5 155t-43 216.5q0 176 109 293t272 117q208 0 311 -208l-66 -18q-29 95 -90 154.5t-155 59.5q-140 0 -228.5 -114.5t-88.5 -280.5q0 -114 34 -205.5t109.5 -150t183.5 -58.5q133 0 216.5 88.5
t116.5 241.5z" />
    <glyph glyph-name="D" unicode="D" horiz-adv-x="697" 
d="M70 0q6 89 6 188v425q0 98 -6 187h177q183 0 286.5 -103t103.5 -297q0 -188 -103 -294t-287 -106h-177zM246 13q146 0 236.5 102t90.5 285q0 189 -89.5 288.5t-237.5 99.5h-113v-775h113z" />
    <glyph glyph-name="E" unicode="E" horiz-adv-x="559" 
d="M70 800h429l-36 -41q-105 29 -234 29h-94v-356h71q107 0 200 10v-32q-93 10 -200 10h-71v-407h126q154 0 268 28l-23 -41h-436q8 102 8 188v425q0 85 -8 187z" />
    <glyph glyph-name="F" unicode="F" horiz-adv-x="549" 
d="M70 800h449l-36 -41q-105 29 -234 29h-114v-402h56q107 0 200 10v-33q-93 10 -200 10h-56v-185q0 -86 8 -188h-73q8 102 8 188v425q0 85 -8 187z" />
    <glyph glyph-name="G" unicode="G" horiz-adv-x="869" 
d="M849 393h-85v-173q0 -122 10 -220h-36q11 108 11 220v65q-27 -146 -107.5 -225.5t-210.5 -79.5q-167 0 -269 123.5t-102 306.5q0 176 109 293t272 117q208 0 312 -206l-66 -17q-29 94 -90 152.5t-156 58.5q-140 0 -228.5 -114.5t-88.5 -280.5q0 -112 35.5 -204
t109.5 -149t174 -57q139 0 218.5 103t87.5 287h-31q-133 0 -234 -29l-36 41h401v-12z" />
    <glyph glyph-name="H" unicode="H" horiz-adv-x="656" 
d="M580 613v-425q0 -99 6 -188h-70q7 104 7 188v206h-390v-206q0 -81 6 -188h-69q6 89 6 188v425q0 98 -6 187h69q-6 -107 -6 -187v-207h390v207q0 83 -7 187h70q-6 -89 -6 -187z" />
    <glyph glyph-name="I" unicode="I" horiz-adv-x="209" 
d="M70 800h69q-6 -107 -6 -187v-425q0 -81 6 -188h-69q6 89 6 188v425q0 98 -6 187z" />
    <glyph glyph-name="J" unicode="J" horiz-adv-x="232" 
d="M94 800h69q-6 -107 -6 -187v-643q0 -86 -32.5 -126t-99.5 -64l-5 9q32 17 48 36t24 50.5t8 85.5v652q0 80 -6 187z" />
    <glyph glyph-name="K" unicode="K" horiz-adv-x="682" 
d="M548 105q47 -57 104 -105h-97q-23 37 -80 105l-267 317l-75 -84v-150q0 -81 6 -188h-69q6 89 6 188v425q0 98 -6 187h69q-6 -107 -6 -187v-257l310 348q49 56 76 96h34q-40 -36 -93 -95l-213 -239z" />
    <glyph glyph-name="L" unicode="L" horiz-adv-x="535" 
d="M72 800h69q-6 -107 -6 -187v-600h91q154 0 269 28l-24 -41h-401q8 102 8 188v425q0 98 -6 187z" />
    <glyph glyph-name="M" unicode="M" horiz-adv-x="925" 
d="M70 0q6 89 6 188v425q0 98 -6 187h59l342 -742l329 742h55q-6 -107 -6 -187v-425q0 -81 6 -188h-69q6 89 6 188v564l-339 -772h-11l-353 769v-561q0 -99 6 -188h-25z" />
    <glyph glyph-name="N" unicode="N" horiz-adv-x="716" 
d="M640 613v-425q0 -99 6 -188h-60l-498 762v-574q0 -81 6 -188h-24q6 89 6 188v425q0 98 -6 187h60l498 -762v575q0 80 -6 187h24q-6 -89 -6 -187z" />
    <glyph glyph-name="O" unicode="O" horiz-adv-x="984" 
d="M492 -20q-185 0 -308.5 120.5t-123.5 299.5q0 178 123.5 299t308.5 121t308.5 -121t123.5 -299q0 -179 -123.5 -299.5t-308.5 -120.5zM492 -8q107 0 192.5 58t130.5 151t45 199t-45 198.5t-130.5 151t-192.5 58.5q-108 0 -193.5 -58.5t-130 -151t-44.5 -198.5
t44.5 -198.5t130 -151t193.5 -58.5z" />
    <glyph glyph-name="P" unicode="P" horiz-adv-x="584" 
d="M70 0q6 89 6 188v425q0 98 -6 187h148q316 0 316 -215t-316 -215h-85v-182q0 -81 6 -188h-69zM133 383h85q255 0 255 202q0 203 -255 203h-85v-405z" />
    <glyph glyph-name="Q" unicode="Q" horiz-adv-x="984" 
d="M924 400q0 -152 -91 -264.5t-238 -144.5l3 -5q27 -39 58 -58t81 -19v-12q-125 0 -172 68q-11 16 -12 19q-27 -4 -61 -4q-185 0 -308.5 120.5t-123.5 299.5q0 178 123.5 299t308.5 121t308.5 -121t123.5 -299zM585 4q124 35 199.5 146.5t75.5 249.5q0 106 -45 198.5
t-130.5 151t-192.5 58.5q-108 0 -193.5 -58.5t-130 -151t-44.5 -198.5q0 -132 69 -240.5t184 -148.5q39 63 98 63q36 0 60.5 -18t49.5 -52zM492 -8q30 0 53 4q-14 24 -20.5 34t-21.5 21t-33 11q-25 0 -47 -16t-34 -39q48 -15 103 -15z" />
    <glyph glyph-name="R" unicode="R" horiz-adv-x="704" 
d="M472 193q39 -106 80 -143.5t114 -37.5v-12q-108 0 -160.5 41t-89.5 144q-40 109 -95.5 147t-143.5 38h-44v-182q0 -81 6 -188h-69q6 89 6 188v425q0 98 -6 187h148q316 0 316 -215q0 -193 -253 -213q134 -27 191 -179zM133 383h85q255 0 255 202q0 203 -255 203h-85v-405
z" />
    <glyph glyph-name="S" unicode="S" horiz-adv-x="592" 
d="M40 243l58 22q8 -121 76.5 -197t167.5 -76q77 0 125.5 42.5t48.5 125.5q0 15 -3 29.5t-11 30t-14.5 27t-23.5 28.5t-26 26.5t-33.5 30t-36.5 30t-43 34t-45 35.5q-112 89 -138 117q-50 54 -50 121q0 71 49.5 111t132.5 40q160 0 248 -180l-58 -18q-10 78 -57 132t-135 54
q-67 0 -105.5 -32.5t-38.5 -87.5q0 -18 3 -33.5t13.5 -32t18 -26.5t28 -28t31.5 -27t41.5 -32t44.5 -34q133 -106 165 -138q73 -72 78 -149q1 -7 1 -15q0 -93 -60.5 -143t-151.5 -50q-226 0 -300 263z" />
    <glyph glyph-name="T" unicode="T" horiz-adv-x="605" 
d="M585 800l-37 -41q-104 29 -207 29h-10v-600q0 -99 6 -188h-69q6 107 6 188v600h-11q-102 0 -207 -29l-36 41h565z" />
    <glyph glyph-name="U" unicode="U" horiz-adv-x="671" 
d="M60 800h69q-6 -107 -6 -187v-273q0 -180 55 -260.5t174 -80.5q122 0 181 79t59 262v273q0 98 -6 187h25q-6 -89 -6 -187v-273q0 -192 -64.5 -276t-196.5 -84q-69 0 -118 17t-86 57t-55.5 111t-18.5 175v273q0 98 -6 187z" />
    <glyph glyph-name="V" unicode="V" horiz-adv-x="629" 
d="M50 800h78q3 -35 20 -100l191 -667l193 670q3 9 7.5 24.5t7 23.5t5 21t3.5 28h24q-14 -29 -34 -96l-190 -660q-5 -21 3 -44h-70l-200 700q-14 53 -38 100z" />
    <glyph glyph-name="W" unicode="W" horiz-adv-x="956" 
d="M865 704l-190 -660q-6 -23 3 -44h-71l-132 463l-120 -419q-5 -21 3 -44h-70l-200 700q-14 53 -38 100h78q3 -35 20 -100l191 -667l130 452l-61 215q-15 54 -39 100h78q3 -38 21 -100l31 -110l33 113q3 9 7.5 24.5t7 23.5t5 21t3.5 28h24q-14 -29 -34 -96l-39 -136
l152 -535l193 670q3 9 7.5 24.5t7 23.5t5 21t3.5 28h24q-7 -14 -12 -27.5t-7.5 -21.5t-6.5 -23t-7 -24z" />
    <glyph glyph-name="X" unicode="X" horiz-adv-x="583" 
d="M486 91q28 -54 57 -91h-80q-18 48 -40 91l-149 283l-157 -283q-22 -39 -47 -91h-24q26 37 55 91l165 298l-169 320q-28 54 -57 91h80q14 -41 40 -91l149 -283l156 281q31 55 47 93h24q-23 -32 -55 -93l-164 -295z" />
    <glyph glyph-name="Y" unicode="Y" horiz-adv-x="657" 
d="M552 707l-191 -356v-163q0 -81 6 -188h-69q6 89 6 188v163l-192 355q-22 41 -62 94h83q9 -29 44 -94l181 -333l180 333q32 59 47 94h22q-20 -30 -55 -93z" />
    <glyph glyph-name="Z" unicode="Z" horiz-adv-x="674" 
d="M70 800h533v-24l-493 -763h265q139 0 249 28l-24 -41h-550v24l493 764h-204q-132 0 -233 -29z" />
    <glyph glyph-name="bracketleft" unicode="[" horiz-adv-x="372" 
d="M70 840h275v-12h-226v-916h226v-12h-275v940z" />
    <glyph glyph-name="backslash" unicode="\" horiz-adv-x="563" 
d="M102 803q73 -201 187.5 -481t203.5 -477l-32 -14q-73 201 -187.5 481t-203.5 477z" />
    <glyph glyph-name="bracketright" unicode="]" horiz-adv-x="372" 
d="M302 840v-940h-274v12h225v916h-225v12h274z" />
    <glyph glyph-name="asciicircum" unicode="^" horiz-adv-x="440" 
d="M220 800q58 -74 170 -195q-4 -18 -19 -17.5t-29 15.5q-15 16 -27.5 34.5t-40 63.5t-54.5 87q-27 -42 -54.5 -87t-40 -63.5t-27.5 -34.5q-14 -15 -29 -15.5t-19 17.5q112 121 170 195z" />
    <glyph glyph-name="underscore" unicode="_" horiz-adv-x="849" 
d="M70 -39q354 -13 709 0v-33q-355 13 -709 0v33z" />
    <glyph glyph-name="grave" unicode="`" horiz-adv-x="286" 
d="M230 593q-26 16 -56.5 33.5t-46.5 27t-33.5 21.5t-30.5 25q-13 12 -13 29t20 20l166 -150z" />
    <glyph glyph-name="a" unicode="a" horiz-adv-x="532" 
d="M473 0h-60q-5 58 -7 128q-19 -65 -66.5 -106.5t-124.5 -41.5q-66 0 -111 33.5t-45 95.5q0 71 53 105.5t146 49.5q52 8 78 14.5t48 25t22 48.5q0 58 -26 89.5t-77 31.5q-30 0 -54 -5.5t-42.5 -18.5t-28 -20.5t-23.5 -24.5t-15 -18q-19 -22 -42.5 -19t-26.5 29
q122 89 237 89q149 0 150 -139v-160q0 -118 15 -186zM233 -1q78 0 125.5 59.5t47.5 153.5v96q-11 -16 -34.5 -27t-43.5 -15.5t-63 -12.5q-147 -24 -147 -138q0 -55 31.5 -85.5t83.5 -30.5z" />
    <glyph glyph-name="b" unicode="b" horiz-adv-x="576" 
d="M318 485q87 0 148 -71t61 -181q0 -113 -59.5 -183t-155.5 -70q-71 0 -118.5 42t-67.5 111q2 -72 10 -133h-62v614q0 92 -6 186h64q-6 -94 -6 -186v-233q36 45 86.5 74.5t105.5 29.5zM301 -4q85 0 126 66t41 171t-43 171t-118 66q-50 0 -99 -30t-82 -74v-142
q0 -98 46 -163t129 -65z" />
    <glyph glyph-name="c" unicode="c" horiz-adv-x="532" 
d="M49 233q0 115 63 183.5t166 68.5q73 0 122 -39.5t68 -93.5q-10 -20 -33 -14.5t-27 31.5q-3 15 -8.5 29t-19 33t-39.5 30.5t-61 11.5q-86 0 -129 -63t-43 -174q0 -100 46.5 -169.5t135.5 -69.5q134 0 191 178h12q-57 -195 -215 -195q-103 0 -166 69t-63 184z" />
    <glyph glyph-name="d" unicode="d" horiz-adv-x="585" 
d="M518 0h-61q-7 75 -7 137q-19 -71 -67 -114t-120 -43q-96 0 -155 70t-59 183q0 110 60.5 181t148.5 71q55 0 105.5 -29.5t86.5 -74.5v233q0 92 -10 186h62v-622q0 -92 16 -178zM275 -4q83 0 129 65t46 163v142q-34 44 -82.5 74t-98.5 30q-75 0 -118 -66t-43 -171t41 -171
t126 -66z" />
    <glyph glyph-name="e" unicode="e" horiz-adv-x="547" 
d="M496 174h12q-49 -194 -216 -194q-108 0 -175.5 69.5t-67.5 183.5q0 112 67 182t165 70q92 0 146 -55.5t54 -130.5h-368q-5 -33 -5 -64q0 -99 51.5 -169t143.5 -70q143 0 193 178zM280 473q-65 0 -108 -43t-57 -119h309q0 69 -37 115.5t-107 46.5z" />
    <glyph glyph-name="f" unicode="f" horiz-adv-x="347" 
d="M277 820q27 0 59 -8.5t49 -15t62 -25.5q0 -20 -15.5 -27.5t-41.5 4.5q-11 6 -32 23t-41.5 27t-44.5 10q-63 0 -87 -62t-11 -205v-76h150v-12h-150v-265q0 -94 6 -188h-65q7 94 7 188v265h-102v12h102v76q0 157 37.5 218t117.5 61z" />
    <glyph glyph-name="g" unicode="g" horiz-adv-x="686" 
d="M528 56q54 0 85.5 -25t31.5 -69q0 -65 -60 -117t-149 -78.5t-184 -26.5q-87 0 -145 29t-58 87q0 51 54 82q-54 23 -54 81q0 73 116 132q-72 56 -72 142q0 82 66 137t161 55q76 0 135 -37q48 42 90.5 62.5t95.5 19.5q8 -22 -3 -34t-38 -9q-27 2 -45.5 1t-37.5 -10.5
t-52 -35.5q81 -58 81 -149q0 -82 -66 -137.5t-160 -55.5q-82 0 -143 42q-46 -30 -65 -55.5t-19 -60.5q0 -29 16.5 -49.5t54.5 -20.5q68 0 186 50t178 50zM320 473q-77 0 -123 -51t-46 -129q0 -79 46 -129.5t123 -50.5q76 0 122 50.5t46 129.5q0 78 -46 129t-122 51z
M248 -239q135 0 239.5 59.5t104.5 144.5q0 30 -19 51t-59 21q-47 0 -109 -27t-127 -54.5t-120 -27.5q-24 0 -43 6q-50 -28 -50 -76q0 -47 52 -72t131 -25z" />
    <glyph glyph-name="h" unicode="h" horiz-adv-x="530" 
d="M398 0q6 94 6 186v127q0 156 -104 156q-59 0 -103 -40t-71 -95v-146q0 -111 6 -188h-64q6 77 6 188v425q0 110 -6 187h64q-6 -77 -6 -187v-258q25 52 74.5 91t114.5 39q72 0 106.5 -44t34.5 -139v-116q0 -92 7 -186h-65z" />
    <glyph glyph-name="i" unicode="i" horiz-adv-x="240" 
d="M120 598l-52 50l52 50l53 -50zM88 465h65q-7 -68 -7 -177v-110q0 -110 7 -178h-65q7 68 7 178v110q0 109 -7 177z" />
    <glyph glyph-name="j" unicode="j" horiz-adv-x="214" 
d="M112 598l-53 50l53 50l52 -50zM80 465h64q-6 -77 -6 -186v-364q0 -55 -25 -90t-69 -65l-5 9q25 25 36 53.5t11 83.5v373q0 109 -6 186z" />
    <glyph glyph-name="k" unicode="k" horiz-adv-x="534" 
d="M416 108q13 -17 38.5 -52t41.5 -56h-72q-17 48 -61 108q-46 62 -100 93t-136 38q-1 -13 -1 -40v-11q0 -111 6 -188h-64q6 77 6 188v425q0 110 -6 187h64q-6 -77 -6 -187v-305q20 83 70 130t119 47q53 0 83.5 -26.5t30.5 -74.5q0 -62 -65 -100t-174 -43q145 -22 226 -133z
M300 469q-69 0 -115.5 -59t-56.5 -160q119 0 183 34.5t64 99.5q0 39 -19.5 62t-55.5 23z" />
    <glyph glyph-name="l" unicode="l" horiz-adv-x="199" 
d="M68 800h64q-6 -77 -6 -187v-425q0 -111 6 -188h-64q6 77 6 188v425q0 110 -6 187z" />
    <glyph glyph-name="m" unicode="m" horiz-adv-x="727" 
d="M595 0q7 94 7 186v145q0 71 -14 104t-49 33q-81 0 -149 -130v-10v-142q0 -92 6 -186h-64q6 94 6 186v145q0 72 -13.5 104.5t-48.5 32.5q-83 0 -150 -134v-46v-110q0 -110 6 -178h-64q6 68 6 178v110q0 109 -6 177h64q-4 -39 -6 -109q26 53 68 91t96 38q91 0 99 -128
q27 53 69.5 90.5t95.5 37.5q100 0 100 -157v-142q0 -92 6 -186h-65z" />
    <glyph glyph-name="n" unicode="n" horiz-adv-x="530" 
d="M398 0q6 94 6 186v127q0 156 -104 156q-59 0 -103 -40t-71 -95v-46v-110q0 -110 6 -178h-64q6 68 6 178v110q0 109 -6 177h64q-4 -39 -6 -109q26 53 75 91t114 38q72 0 106.5 -44t34.5 -139v-116q0 -92 7 -186h-65z" />
    <glyph glyph-name="o" unicode="o" horiz-adv-x="611" 
d="M306 -20q-114 0 -185.5 71t-71.5 182q0 110 71.5 181t185.5 71t185.5 -71t71.5 -181t-71.5 -181.5t-185.5 -71.5zM306 -8q96 0 147 66.5t51 174.5q0 107 -51 173.5t-147 66.5t-147 -66.5t-51 -173.5q0 -108 51 -174.5t147 -66.5z" />
    <glyph glyph-name="p" unicode="p" horiz-adv-x="576" 
d="M312 485q96 0 155.5 -70t59.5 -182q0 -110 -61 -181.5t-148 -71.5q-55 0 -105.5 29.5t-86.5 74.5v-138q0 -109 6 -186h-64q6 77 6 186v333q0 109 -6 186h63q-5 -61 -5 -133q20 69 67.5 111t118.5 42zM307 -5q75 0 118 66t43 172q0 105 -41 170.5t-126 65.5
q-83 0 -129 -65t-46 -163v-142q33 -44 82 -74t99 -30z" />
    <glyph glyph-name="q" unicode="q" horiz-adv-x="576" 
d="M502 279v-333q0 -109 6 -186h-64q6 77 6 186v138q-36 -45 -86.5 -74.5t-105.5 -29.5q-88 0 -148.5 71t-60.5 182q0 112 59 182t155 70q72 0 120 -43t67 -113q0 72 -5 136h63q-6 -77 -6 -186zM450 99v142q0 98 -46 163t-129 65q-85 0 -126 -65.5t-41 -170.5
q0 -106 43 -172t118 -66q50 0 98.5 30t82.5 74z" />
    <glyph glyph-name="r" unicode="r" horiz-adv-x="384" 
d="M355 465q7 -25 -8.5 -39.5t-46.5 -3.5q-36 13 -70.5 -2.5t-103.5 -83.5v-48v-110q0 -110 6 -178h-64q6 68 6 178v110q0 109 -6 177h64q-4 -40 -6 -111q68 68 114 94.5t115 16.5z" />
    <glyph glyph-name="s" unicode="s" horiz-adv-x="445" 
d="M39 145q14 22 35.5 15.5t22.5 -39.5q-2 -51 38.5 -89.5t112.5 -38.5q58 0 87.5 29t29.5 75q0 43 -29.5 67.5t-118.5 71.5q-81 42 -115 72.5t-34 77.5q0 49 39 74t99 25q61 0 102.5 -30t74.5 -90q-4 -12 -16 -16.5t-25 3.5t-18 28q-10 42 -36.5 67t-80.5 25
q-46 0 -72.5 -18t-26.5 -54q0 -38 34 -65t114 -68q83 -43 116.5 -75t33.5 -86q0 -56 -42.5 -91t-116.5 -35q-84 0 -138 42.5t-70 122.5z" />
    <glyph glyph-name="t" unicode="t" horiz-adv-x="399" 
d="M348 204h12q-18 -128 -49.5 -178.5t-83.5 -50.5q-49 0 -74.5 35.5t-25.5 122.5v320h-108v12h11q26 0 45.5 6t32.5 13.5t21.5 24.5t13 28.5t7 36.5t2.5 38v42v16h47q0 -80 -18 -132t-75 -73h215v-12h-142v-325q0 -77 15 -107t46 -30q39 0 65 48t43 165z" />
    <glyph glyph-name="u" unicode="u" horiz-adv-x="527" 
d="M397 465h63v-465h-58q5 78 5 107q-26 -51 -75.5 -89t-112.5 -38q-72 0 -106.5 44t-34.5 139v116q0 92 -10 186h62v-313q0 -156 104 -156q58 0 102.5 37t71.5 89v56v101q0 92 -11 186z" />
    <glyph glyph-name="v" unicode="v" horiz-adv-x="483" 
d="M400 431q-8 17 2.5 26.5t30.5 7.5q26 -73 -6 -147l-108 -254q-19 -43 -15 -64h-60l-168 394q-13 30 -37 71h69q6 -28 24 -68l158 -367l121 283q9 20 12 37t0.5 30t-5.5 20.5t-10 17.5t-8 13z" />
    <glyph glyph-name="w" unicode="w" horiz-adv-x="716" 
d="M667 465q26 -74 -5 -147l-109 -254q-18 -41 -14 -64h-60l-94 220l-66 -156q-19 -43 -15 -64h-60l-168 394q-13 30 -37 71h69q6 -28 24 -68l158 -367l88 206l-68 158q-9 24 -37 71h70q5 -25 23 -68l159 -367l121 283q10 25 11.5 46.5t-1 30.5t-12 24.5t-9.5 16.5
q-9 17 2 26.5t30 7.5z" />
    <glyph glyph-name="x" unicode="x" horiz-adv-x="475" 
d="M393 53q17 -26 44 -53h-77q-15 30 -31 53l-109 158l-115 -159q-26 -34 -37 -52h-21q19 20 43 52l122 170l-130 189q-22 31 -44 54h74q9 -18 33 -54l109 -157l118 159q28 39 35 52h21q-11 -13 -41 -52l-125 -171z" />
    <glyph glyph-name="y" unicode="y" horiz-adv-x="493" 
d="M432 465h23q-13 -23 -25 -59l-145 -406q-30 -83 -64 -124t-88 -41q-49 0 -91 29q-5 22 13 29.5t31 -12.5q23 -34 53 -34q77 0 132 152v1h-45l-156 406q-14 35 -30 59h71q3 -26 16 -59l150 -389l139 389q9 27 16 59z" />
    <glyph glyph-name="z" unicode="z" horiz-adv-x="513" 
d="M430 34q34 0 34 -34h-415v18l327 435h-102q-66 0 -115 -11t-59 -11q-34 0 -34 34h369v-17l-327 -435h157q66 0 110.5 10.5t54.5 10.5z" />
    <glyph glyph-name="braceleft" unicode="{" horiz-adv-x="399" 
d="M371 828q-93 0 -116 -54t3 -168q23 -120 -16 -174t-112 -62q33 -4 58.5 -16t48 -39.5t27 -71t-5.5 -109.5q-26 -114 -3 -168t116 -54v-12q-113 0 -149.5 57.5t-14.5 180.5q7 49 8.5 84.5t-9 60.5t-23 41t-32.5 25t-39 12t-42 3v12q23 0 42 3t39.5 12t32.5 25t22.5 41
t9 61t-8.5 85q-22 122 14.5 179.5t149.5 57.5v-12z" />
    <glyph glyph-name="bar" unicode="|" horiz-adv-x="133" 
d="M50 -257q14 560 0 1122h33q-14 -562 0 -1122h-33z" />
    <glyph glyph-name="braceright" unicode="}" horiz-adv-x="399" 
d="M192 603q-7 -49 -8.5 -85t9 -61t22.5 -41t32.5 -25t39.5 -12t42 -3v-12q-23 0 -42 -3t-39 -12t-32.5 -25t-23 -41t-9 -60.5t8.5 -84.5q22 -123 -14.5 -180.5t-149.5 -57.5v12q93 0 116 54t-3 168q-10 66 -5.5 109.5t27 71t48 39.5t58.5 16q-73 8 -112 62t-16 174
q26 114 3 168t-116 54v12q113 0 149.5 -57.5t14.5 -179.5z" />
    <glyph glyph-name="asciitilde" unicode="~" horiz-adv-x="517" 
d="M167 311q37 0 93 -33t88 -33q42 0 84 54l35 -29q-53 -53 -116 -53q-37 0 -93.5 33t-88.5 33q-42 0 -84 -54l-35 29q57 53 117 53z" />
    <glyph glyph-name="exclamdown" unicode="&#xa1;" horiz-adv-x="235" 
d="M118 485l47 -47l-47 -48l-48 48zM89 -304q18 169 23 580h12q5 -422 22 -580l-28 -31z" />
    <glyph glyph-name="cent" unicode="&#xa2;" horiz-adv-x="580" 
d="M501 343h12q-57 -195 -215 -195q-31 0 -63 8q-4 -16 -35 -145l-26 7q14 45 42 143q-68 24 -107.5 87t-39.5 153q0 115 63 183.5t166 68.5q28 0 50 -6l35 143l26 -7q-21 -67 -42 -141q45 -15 76 -48.5t45 -73.5q-10 -20 -33 -14.5t-27 31.5q-13 66 -65 91
q-65 -221 -122 -448q31 -14 69 -14q135 0 191 177zM128 404q0 -71 24 -129t72 -87q71 252 121 447q-19 6 -45 6q-86 0 -129 -63t-43 -174z" />
    <glyph glyph-name="sterling" unicode="&#xa3;" horiz-adv-x="740" 
d="M610 139l60 -30q-33 -66 -80 -97.5t-117 -31.5q-39 0 -82.5 14.5t-65.5 26t-66 36.5q-39 -77 -109 -77q-36 0 -58 17.5t-22 47.5q0 31 22 49t60 18q40 0 98 -29q21 64 21 147q0 52 -6 97q-87 -1 -179 -6l21 27q108 -4 156 -5q-7 44 -29.5 139t-22.5 143q0 100 57 147.5
t135 47.5q72 0 119 -38.5t80 -131.5l-58 -28q-19 98 -48 142t-92 44q-62 0 -101.5 -46.5t-39.5 -132.5q0 -54 12.5 -151.5t15.5 -134.5q120 -1 264 5l-21 -27q-125 6 -242 6q3 -43 3 -94q0 -90 -28 -158q2 -1 21 -11t24 -12.5t22.5 -10.5t25 -11t24 -8.5t27.5 -7.5t26 -4
t29 -2q60 0 94 33t50 98zM154 -8q57 0 89 73q-53 29 -84 29q-53 0 -53 -51q0 -24 12.5 -37.5t35.5 -13.5z" />
    <glyph glyph-name="yen" unicode="&#xa5;" horiz-adv-x="697" 
d="M572 707l-182 -339q120 0 228 5v-28q-102 6 -237 6v-101q124 0 237 5v-27q-102 6 -237 6v-46q0 -81 6 -188h-69q6 89 6 188v46q-138 0 -241 -6v27q115 -5 241 -5v101q-138 0 -241 -6v28q110 -5 232 -5l-183 338q-22 41 -62 94h83q9 -29 44 -94l181 -333l180 333
q32 59 47 94h22q-20 -30 -55 -93z" />
    <glyph glyph-name="brokenbar" unicode="&#xa6;" horiz-adv-x="133" 
d="M50 345q12 230 0 460h33q-12 -230 0 -460h-33zM50 -303q12 231 0 461h33q-12 -230 0 -461h-33z" />
    <glyph glyph-name="section" unicode="&#xa7;" horiz-adv-x="672" 
d="M622 164q0 -99 -98 -146q21 -43 21 -94q0 -78 -60 -127t-153 -49q-97 0 -173 58.5t-109 196.5l48 39q14 -136 81 -209t157 -73q79 0 128 41.5t49 106.5q0 57 -55 117.5t-210 182.5q-104 79 -146.5 130t-42.5 111q0 56 33 91t83 43q-39 51 -39 107q0 65 46.5 100.5
t122.5 35.5q130 0 252 -119l-49 -36q-76 142 -205 142q-61 0 -98.5 -27t-37.5 -76q0 -36 26 -72t55 -60t102 -78q5 -4 8 -6.5t7.5 -5.5t8.5 -6q144 -108 196 -175.5t52 -142.5zM518 29q72 41 72 120q0 57 -55 117t-210 182q-99 75 -141 124q-39 -6 -66 -33t-27 -69
q0 -28 11 -52t40.5 -52.5t55.5 -49t80 -60.5q12 -9 19 -14q175 -132 221 -213z" />
    <glyph glyph-name="dieresis" unicode="&#xa8;" horiz-adv-x="348" 
d="M98 596l-48 48l48 47l47 -47zM250 596l-47 48l47 47l48 -47z" />
    <glyph glyph-name="copyright" unicode="&#xa9;" horiz-adv-x="829" 
d="M415 36q-161 0 -263 106t-102 258q0 153 102 259t263 106q160 0 262 -106t102 -259q0 -152 -102 -258t-262 -106zM415 49q155 0 253.5 102.5t98.5 248.5t-98.5 249.5t-253.5 103.5t-253.5 -103.5t-98.5 -249.5t98.5 -248.5t253.5 -102.5zM200 401q0 94 61.5 162t154.5 68
q64 0 112.5 -36.5t69.5 -82.5l-48 -24q-6 26 -12.5 42.5t-20.5 40.5t-38.5 36t-59.5 12q-82 0 -127.5 -64t-45.5 -154q0 -79 47 -147t128 -68q75 0 118 46t68 122h11q-53 -183 -204 -183q-91 0 -152.5 68t-61.5 162z" />
    <glyph glyph-name="guillemotleft" unicode="&#xab;" horiz-adv-x="515" 
d="M277 93q15 -14 15.5 -29t-17.5 -19q-108 110 -205 188q96 76 205 187q18 -4 17.5 -19t-15.5 -29q-15 -15 -35.5 -29t-64.5 -43.5t-94 -66.5q50 -38 94 -67.5t64.5 -43.5t35.5 -29zM430 93q15 -13 15 -29t-18 -19q-112 114 -204 188q92 73 204 187q18 -3 18 -19t-15 -29
q-15 -15 -35.5 -29t-65 -43.5t-94.5 -66.5q51 -38 94.5 -67.5t64.5 -43.5t36 -29z" />
    <glyph glyph-name="logicalnot" unicode="&#xac;" horiz-adv-x="560" 
d="M510 99h-33q9 100 9 220q-287 0 -436 -9v33q176 -8 452 -8v-16q0 -106 8 -220z" />
    <glyph glyph-name="registered" unicode="&#xae;" horiz-adv-x="830" 
d="M415 765q161 0 263 -106t102 -259q0 -111 -40.5 -181.5t-104.5 -70.5q-44 0 -74 29.5t-54 80.5q-38 78 -71 102.5t-99 24.5h-19v-46q0 -87 5 -163h-46q5 76 5 163v133q0 87 -5 163h78q207 0 207 -125q0 -106 -161 -121q55 -11 84.5 -36.5t55.5 -84.5q17 -36 27.5 -54.5
t29.5 -34.5t41 -16q55 0 92 68.5t37 168.5q0 147 -99 250t-254 103t-253.5 -103t-98.5 -250q0 -146 98.5 -248.5t253.5 -102.5q121 0 199 56l8 -9q-83 -60 -207 -60q-161 0 -263 106t-102 258q0 153 102 259t263 106zM318 397h37q76 0 120.5 29.5t44.5 83.5q0 55 -44.5 83.5
t-120.5 28.5h-37v-225z" />
    <glyph glyph-name="macron" unicode="&#xaf;" horiz-adv-x="421" 
d="M50 687q161 -9 321 0v-33q-107 7 -160 7t-161 -7v33z" />
    <glyph glyph-name="degree" unicode="&#xb0;" horiz-adv-x="521" 
d="M261 440q-87 0 -139 53.5t-52 136.5t52 136.5t139 53.5q86 0 138 -53.5t52 -136.5t-52 -136.5t-138 -53.5zM261 464q74 0 119.5 47t45.5 119t-45.5 119t-119.5 47q-75 0 -120.5 -47t-45.5 -119t45.5 -119t120.5 -47z" />
    <glyph glyph-name="plusminus" unicode="&#xb1;" horiz-adv-x="561" 
d="M291 312q109 0 220 6v-33q-111 6 -220 6q0 -62 6 -137h-33q6 75 6 137q-109 0 -220 -6v33q111 -6 220 -6q0 61 -6 136h33q-6 -75 -6 -136zM50 100q230 -10 461 0v-33q-231 12 -461 0v33z" />
    <glyph glyph-name="acute" unicode="&#xb4;" horiz-adv-x="286" 
d="M56 593l-6 6l165 150q13 -2 18 -11t1.5 -19t-12.5 -19q-16 -16 -35.5 -29.5t-61 -37t-69.5 -40.5z" />
    <glyph glyph-name="paragraph" unicode="&#xb6;" horiz-adv-x="769" 
d="M719 784q-79 8 -133 11q-15 -556 0 -1105h-33q12 550 0 1106q-58 3 -167 3q-15 -557 0 -1109h-33q7 336 5 704h-62q-110 0 -178 50t-68 159q0 108 68 158t178 50h423v-27z" />
    <glyph glyph-name="periodcentered" unicode="&#xb7;" horiz-adv-x="235" 
d="M118 211l-48 48l48 47l47 -47z" />
    <glyph glyph-name="cedilla" unicode="&#xb8;" horiz-adv-x="380" 
d="M179 10h44l-73 -84q86 8 133 -24.5t47 -85.5q0 -46 -35 -76t-90 -30q-105 0 -155 96l35 35q38 -119 119 -119q82 0 82 93q0 52 -36 80t-114 20v13z" />
    <glyph glyph-name="guillemotright" unicode="&#xbb;" horiz-adv-x="515" 
d="M106 420q112 -114 204 -187q-92 -74 -204 -188q-18 3 -18 19t15 29q15 15 36 29t64.5 43.5t94.5 67.5q-50 37 -94.5 66.5t-65 43.5t-35.5 29q-15 13 -15 29t18 19zM258 420q109 -111 205 -187q-97 -78 -205 -188q-18 4 -17.5 19t14.5 29q15 14 36 28.5t64.5 44t94.5 67.5
q-50 37 -94 66.5t-65 44t-36 28.5q-14 14 -14.5 29t17.5 19z" />
    <glyph glyph-name="questiondown" unicode="&#xbf;" horiz-adv-x="512" 
d="M278 485l48 -47l-48 -48l-47 48zM442 -184q-64 -171 -213 -171q-63 0 -111 39.5t-48 112.5q0 47 21 88.5t50.5 76.5t59 74t50.5 99t21 133h12q0 -90 -24.5 -163.5t-53.5 -114t-53.5 -93.5t-24.5 -107q0 -60 28 -96.5t78 -36.5q115 0 149 186z" />
    <glyph glyph-name="Agrave" unicode="&#xc0;" horiz-adv-x="629" 
d="M379 873q-26 16 -56.5 33.5t-46.5 27t-33.5 21.5t-29.5 25q-9 9 -12.5 19t1.5 19t18 11l165 -150zM541 100q12 -48 38 -100h-78q-2 35 -20 100l-56 195h-271l-57 -198q-3 -9 -7.5 -24.5t-7 -23.5t-5 -21t-3.5 -28h-24q14 29 34 96l190 660q5 21 -3 44h70zM157 307h265
l-132 460z" />
    <glyph glyph-name="Aacute" unicode="&#xc1;" horiz-adv-x="629" 
d="M407 980q-16 -16 -35.5 -29.5t-61 -37t-69.5 -40.5l-6 6l165 150q13 -2 18 -11t1.5 -19t-12.5 -19zM541 100q12 -48 38 -100h-78q-2 35 -20 100l-56 195h-271l-57 -198q-3 -9 -7.5 -24.5t-7 -23.5t-5 -21t-3.5 -28h-24q14 29 34 96l190 660q5 21 -3 44h70zM157 307h265
l-132 460z" />
    <glyph glyph-name="Acircumflex" unicode="&#xc2;" horiz-adv-x="629" 
d="M220 896q-14 -14 -29 -14.5t-20 17.5q99 85 140 131q35 -40 140 -131q-5 -18 -20 -18t-29 15q-23 21 -91 122q-10 -14 -24 -35.5t-20 -30.5t-15 -21t-16.5 -20t-15.5 -15zM541 100q12 -48 38 -100h-78q-2 35 -20 100l-56 195h-271l-57 -198q-3 -9 -7.5 -24.5t-7 -23.5
t-5 -21t-3.5 -28h-24q14 29 34 96l190 660q5 21 -3 44h70zM157 307h265l-132 460z" />
    <glyph glyph-name="Atilde" unicode="&#xc3;" horiz-adv-x="629" 
d="M234 990q-45 0 -40 -87h-44q6 100 80 100q27 0 56 -23.5t55 -46.5t48 -23q45 0 40 88h44q-6 -100 -80 -100q-27 0 -56 23t-55 46t-48 23zM541 100q12 -48 38 -100h-78q-2 35 -20 100l-56 195h-271l-57 -198q-3 -9 -7.5 -24.5t-7 -23.5t-5 -21t-3.5 -28h-24q14 29 34 96
l190 660q5 21 -3 44h70zM157 307h265l-132 460z" />
    <glyph glyph-name="Adieresis" unicode="&#xc4;" horiz-adv-x="629" 
d="M282 924l-47 -48l-48 48l48 47zM435 924l-48 -48l-47 48l47 47zM541 100q12 -48 38 -100h-78q-2 35 -20 100l-56 195h-271l-57 -198q-3 -9 -7.5 -24.5t-7 -23.5t-5 -21t-3.5 -28h-24q14 29 34 96l190 660q5 21 -3 44h70zM157 307h265l-132 460z" />
    <glyph glyph-name="Aring" unicode="&#xc5;" horiz-adv-x="629" 
d="M312 863q-38 0 -63 26t-25 61t25 61.5t63 26.5t62.5 -26.5t24.5 -61.5t-24.5 -61t-62.5 -26zM312 1025q-33 0 -54 -22.5t-21 -52.5t21 -52.5t54 -22.5t54 22.5t21 52.5t-21 52.5t-54 22.5zM541 100q12 -48 38 -100h-78q-2 35 -20 100l-56 195h-271l-57 -198
q-3 -9 -7.5 -24.5t-7 -23.5t-5 -21t-3.5 -28h-24q14 29 34 96l190 660q5 21 -3 44h70zM157 307h265l-132 460z" />
    <glyph glyph-name="AE" unicode="&#xc6;" horiz-adv-x="911" 
d="M632 13q154 0 269 28l-24 -41h-436q8 89 8 188v105h-234l-96 -196q-26 -50 -44 -97h-25q29 44 55 96l324 660q9 16 -3 44h444l-36 -41q-105 29 -233 29h-95v-356h71q107 0 200 10v-32q-93 10 -200 10h-71v-407h126zM222 306h227v307q0 85 -5 146z" />
    <glyph glyph-name="Ccedilla" unicode="&#xc7;" horiz-adv-x="836" 
d="M796 329q-32 -156 -114 -247.5t-216 -100.5l-63 -73q86 8 133 -24.5t47 -85.5q0 -46 -35 -76t-90 -30q-105 0 -155 96l35 35q38 -119 119 -119q82 0 82 93q0 52 -36 80t-114 20v13l37 70q-171 6 -268.5 127.5t-97.5 302.5q0 176 109 293t272 117q208 0 311 -208l-66 -18
q-29 95 -90 154.5t-155 59.5q-140 0 -228.5 -114.5t-88.5 -280.5q0 -114 34 -205.5t109.5 -150t183.5 -58.5q133 0 216.5 88.5t116.5 241.5h12z" />
    <glyph glyph-name="Egrave" unicode="&#xc8;" horiz-adv-x="559" 
d="M347 873q-26 16 -56.5 33.5t-46.5 27t-33.5 21.5t-29.5 25q-9 9 -12.5 19t1.5 19t18 11l165 -150zM70 800h429l-36 -41q-105 29 -234 29h-94v-356h71q107 0 200 10v-32q-93 10 -200 10h-71v-407h126q154 0 268 28l-23 -41h-436q8 102 8 188v425q0 85 -8 187z" />
    <glyph glyph-name="Eacute" unicode="&#xc9;" horiz-adv-x="559" 
d="M209 873l-6 6l165 150q13 -2 18 -11t1.5 -19t-12.5 -19q-16 -16 -35.5 -29.5t-61 -37t-69.5 -40.5zM70 800h429l-36 -41q-105 29 -234 29h-94v-356h71q107 0 200 10v-32q-93 10 -200 10h-71v-407h126q154 0 268 28l-23 -41h-436q8 102 8 188v425q0 85 -8 187z" />
    <glyph glyph-name="Ecircumflex" unicode="&#xca;" horiz-adv-x="559" 
d="M188 896q-14 -14 -29 -14.5t-20 17.5q99 85 140 131q35 -40 140 -131q-5 -18 -20 -18t-29 15q-23 21 -91 122q-10 -14 -24 -35.5t-20 -30.5t-15 -21t-16.5 -20t-15.5 -15zM261 13q154 0 268 28l-23 -41h-436q8 102 8 188v425q0 85 -8 187h429l-36 -41q-105 29 -234 29
h-94v-356h71q107 0 200 10v-32q-93 10 -200 10h-71v-407h126z" />
    <glyph glyph-name="Edieresis" unicode="&#xcb;" horiz-adv-x="559" 
d="M203 876l-48 48l48 47l47 -47zM355 876l-47 48l47 47l48 -47zM70 800h429l-36 -41q-105 29 -234 29h-94v-356h71q107 0 200 10v-32q-93 10 -200 10h-71v-407h126q154 0 268 28l-23 -41h-436q8 102 8 188v425q0 85 -8 187z" />
    <glyph glyph-name="Igrave" unicode="&#xcc;" horiz-adv-x="209" 
d="M173 873q-26 16 -56.5 33.5t-46.5 27t-33.5 21.5t-29.5 25q-9 9 -12.5 19t1 19t18.5 11l165 -150zM70 800h69q-6 -107 -6 -187v-425q0 -81 6 -188h-69q6 89 6 188v425q0 98 -6 187z" />
    <glyph glyph-name="Iacute" unicode="&#xcd;" horiz-adv-x="209" 
d="M35 873l-6 6l165 150q13 -2 18 -11t1.5 -19t-12.5 -19q-16 -16 -35.5 -29.5t-61 -37t-69.5 -40.5zM70 800h69q-6 -107 -6 -187v-425q0 -81 6 -188h-69q6 89 6 188v425q0 98 -6 187z" />
    <glyph glyph-name="Icircumflex" unicode="&#xce;" horiz-adv-x="209" 
d="M105 1030q35 -40 140 -131q-5 -18 -20 -18t-29 15q-23 21 -91 122q-10 -14 -24 -35.5t-20 -30.5t-15 -21t-16.5 -20t-15.5 -15q-14 -14 -29 -14.5t-20 17.5q99 85 140 131zM139 800q-6 -107 -6 -187v-425q0 -81 6 -188h-69q6 89 6 188v425q0 98 -6 187h69z" />
    <glyph glyph-name="Idieresis" unicode="&#xcf;" horiz-adv-x="209" 
d="M29 876l-48 48l48 47l47 -47zM181 876l-47 48l47 47l48 -47zM70 800h69q-6 -107 -6 -187v-425q0 -81 6 -188h-69q6 89 6 188v425q0 98 -6 187z" />
    <glyph glyph-name="Eth" unicode="&#xd0;" horiz-adv-x="707" 
d="M287 800q183 0 286.5 -103t103.5 -297q0 -188 -103 -294t-287 -106h-177q6 89 6 188v219h-106v12h106v194q0 98 -6 187h177zM286 13q146 0 236.5 102t90.5 285q0 189 -89.5 288.5t-237.5 99.5h-113v-369h187v-12h-187v-394h113z" />
    <glyph glyph-name="Ntilde" unicode="&#xd1;" horiz-adv-x="716" 
d="M281 990q-45 0 -40 -87h-44q6 100 80 100q27 0 56 -23.5t55 -46.5t48 -23q45 0 40 88h44q-6 -100 -80 -100q-27 0 -56 23t-55 46t-48 23zM640 613v-425q0 -99 6 -188h-60l-498 762v-574q0 -81 6 -188h-24q6 89 6 188v425q0 98 -6 187h60l498 -762v575q0 80 -6 187h24
q-6 -89 -6 -187z" />
    <glyph glyph-name="Ograve" unicode="&#xd2;" horiz-adv-x="984" 
d="M560 873q-26 16 -56.5 33.5t-46.5 27t-33.5 21.5t-29.5 25q-9 9 -12.5 19t1.5 19t18 11l165 -150zM492 -20q-185 0 -308.5 120.5t-123.5 299.5q0 178 123.5 299t308.5 121t308.5 -121t123.5 -299q0 -179 -123.5 -299.5t-308.5 -120.5zM492 -8q107 0 192.5 58t130.5 151
t45 199t-45 198.5t-130.5 151t-192.5 58.5q-108 0 -193.5 -58.5t-130 -151t-44.5 -198.5t44.5 -198.5t130 -151t193.5 -58.5z" />
    <glyph glyph-name="Oacute" unicode="&#xd3;" horiz-adv-x="984" 
d="M422 873l-6 6l165 150q13 -2 18 -11t1.5 -19t-12.5 -19q-16 -16 -35.5 -29.5t-61 -37t-69.5 -40.5zM492 -20q-185 0 -308.5 120.5t-123.5 299.5q0 178 123.5 299t308.5 121t308.5 -121t123.5 -299q0 -179 -123.5 -299.5t-308.5 -120.5zM492 -8q107 0 192.5 58t130.5 151
t45 199t-45 198.5t-130.5 151t-192.5 58.5q-108 0 -193.5 -58.5t-130 -151t-44.5 -198.5t44.5 -198.5t130 -151t193.5 -58.5z" />
    <glyph glyph-name="Ocircumflex" unicode="&#xd4;" horiz-adv-x="984" 
d="M401 896q-14 -14 -29 -14.5t-20 17.5q99 85 140 131q35 -40 140 -131q-5 -18 -20 -18t-29 15q-23 21 -91 122q-10 -14 -24 -35.5t-20 -30.5t-15 -21t-16.5 -20t-15.5 -15zM492 820q185 0 308.5 -121t123.5 -299q0 -179 -123.5 -299.5t-308.5 -120.5t-308.5 120.5
t-123.5 299.5q0 178 123.5 299t308.5 121zM492 -8q107 0 192.5 58t130.5 151t45 199t-45 198.5t-130.5 151t-192.5 58.5q-108 0 -193.5 -58.5t-130 -151t-44.5 -198.5t44.5 -198.5t130 -151t193.5 -58.5z" />
    <glyph glyph-name="Otilde" unicode="&#xd5;" horiz-adv-x="984" 
d="M411 1003q27 0 56 -23.5t55 -46.5t48 -23q45 0 40 88h44q-6 -100 -80 -100q-27 0 -56 23t-55 46t-48 23q-45 0 -40 -87h-44q6 100 80 100zM492 -20q-185 0 -308.5 120.5t-123.5 299.5q0 178 123.5 299t308.5 121t308.5 -121t123.5 -299q0 -179 -123.5 -299.5
t-308.5 -120.5zM492 -8q107 0 192.5 58t130.5 151t45 199t-45 198.5t-130.5 151t-192.5 58.5q-108 0 -193.5 -58.5t-130 -151t-44.5 -198.5t44.5 -198.5t130 -151t193.5 -58.5z" />
    <glyph glyph-name="Odieresis" unicode="&#xd6;" horiz-adv-x="984" 
d="M416 876l-48 48l48 47l47 -47zM568 876l-47 48l47 47l48 -47zM492 -20q-185 0 -308.5 120.5t-123.5 299.5q0 178 123.5 299t308.5 121t308.5 -121t123.5 -299q0 -179 -123.5 -299.5t-308.5 -120.5zM492 -8q107 0 192.5 58t130.5 151t45 199t-45 198.5t-130.5 151
t-192.5 58.5q-108 0 -193.5 -58.5t-130 -151t-44.5 -198.5t44.5 -198.5t130 -151t193.5 -58.5z" />
    <glyph glyph-name="multiply" unicode="&#xd7;" horiz-adv-x="450" 
d="M399 410q-88 -80 -159 -151q71 -71 159 -151l-23 -24q-75 84 -151 160q-72 -72 -152 -160l-23 24q83 75 160 151q-61 61 -160 151l23 23q70 -77 152 -159q88 90 151 159z" />
    <glyph glyph-name="Oslash" unicode="&#xd8;" horiz-adv-x="966" 
d="M703 769q102 -53 161.5 -151t59.5 -218q0 -179 -123.5 -299.5t-308.5 -120.5q-116 0 -215 52l-52 -91l-10 7l52 90q-96 55 -151.5 150.5t-55.5 211.5q0 178 123.5 299t308.5 121q108 0 200 -45l49 84l10 -7zM124 400q0 -101 41.5 -190.5t115.5 -146.5l399 690
q-83 55 -188 55q-108 0 -193.5 -58.5t-130 -151t-44.5 -198.5zM492 -8q107 0 192.5 58t130.5 151t45 199q0 104 -45 197t-125 149l-399 -691q90 -63 201 -63z" />
    <glyph glyph-name="Ugrave" unicode="&#xd9;" horiz-adv-x="671" 
d="M416 873q-26 16 -56.5 33.5t-46.5 27t-33.5 21.5t-29.5 25q-9 9 -12.5 19t1.5 19t18 11l165 -150zM60 800h69q-6 -107 -6 -187v-273q0 -180 55 -260.5t174 -80.5q122 0 181 79t59 262v273q0 98 -6 187h25q-6 -89 -6 -187v-273q0 -192 -64.5 -276t-196.5 -84
q-69 0 -118 17t-86 57t-55.5 111t-18.5 175v273q0 98 -6 187z" />
    <glyph glyph-name="Uacute" unicode="&#xda;" horiz-adv-x="671" 
d="M278 873l-6 6l165 150q13 -2 18 -11t1.5 -19t-12.5 -19q-16 -16 -35.5 -29.5t-61 -37t-69.5 -40.5zM60 800h69q-6 -107 -6 -187v-273q0 -180 55 -260.5t174 -80.5q122 0 181 79t59 262v273q0 98 -6 187h25q-6 -89 -6 -187v-273q0 -192 -64.5 -276t-196.5 -84
q-69 0 -118 17t-86 57t-55.5 111t-18.5 175v273q0 98 -6 187z" />
    <glyph glyph-name="Ucircumflex" unicode="&#xdb;" horiz-adv-x="671" 
d="M257 896q-14 -14 -29 -14.5t-20 17.5q99 85 140 131q35 -40 140 -131q-5 -18 -20 -18t-29 15q-23 21 -91 122q-10 -14 -24 -35.5t-20 -30.5t-15 -21t-16.5 -20t-15.5 -15zM586 800h25q-6 -89 -6 -187v-273q0 -192 -64.5 -276t-196.5 -84q-69 0 -118 17t-86 57t-55.5 111
t-18.5 175v273q0 98 -6 187h69q-6 -107 -6 -187v-273q0 -180 55 -260.5t174 -80.5q122 0 181 79t59 262v273q0 98 -6 187z" />
    <glyph glyph-name="Udieresis" unicode="&#xdc;" horiz-adv-x="671" 
d="M273 876l-48 48l48 47l47 -47zM425 876l-47 48l47 47l48 -47zM60 800h69q-6 -107 -6 -187v-273q0 -180 55 -260.5t174 -80.5q122 0 181 79t59 262v273q0 98 -6 187h25q-6 -89 -6 -187v-273q0 -192 -64.5 -276t-196.5 -84q-69 0 -118 17t-86 57t-55.5 111t-18.5 175v273
q0 98 -6 187z" />
    <glyph glyph-name="Yacute" unicode="&#xdd;" horiz-adv-x="657" 
d="M440 980q-16 -16 -35.5 -29.5t-61 -37t-69.5 -40.5l-6 6l165 150q13 -2 18 -11t1.5 -19t-12.5 -19zM552 707l-191 -356v-163q0 -81 6 -188h-69q6 89 6 188v163l-192 355q-22 41 -62 94h83q9 -29 44 -94l181 -333l180 333q32 59 47 94h22q-20 -30 -55 -93z" />
    <glyph glyph-name="Thorn" unicode="&#xde;" horiz-adv-x="567" 
d="M53 0q6 107 6 188v425q0 80 -6 187h68q-6 -89 -6 -175v-7h86q316 0 316 -215t-316 -215h-85v-8q0 -91 6 -180h-69zM116 201h82q255 0 255 202q0 203 -255 203h-82v-405z" />
    <glyph glyph-name="germandbls" unicode="&#xdf;" horiz-adv-x="619" 
d="M479 800v-10l-235 -310q325 -55 325 -277q0 -90 -55.5 -156.5t-147.5 -66.5q-58 0 -100.5 24.5t-76.5 77.5q11 25 35.5 22t30.5 -29q4 -17 9.5 -28.5t16.5 -25.5t32.5 -21.5t51.5 -7.5q74 0 109.5 60t35.5 146q0 56 -17 100t-42.5 71.5t-66 49t-76.5 32.5t-86 21l223 294
q-62 42 -157 42q-51 0 -84.5 -18t-48.5 -51.5t-20 -65.5t-5 -76v-409q0 -86 8 -188h-68q8 102 8 188v407q0 100 50 162.5t159 62.5q63 0 192 -20z" />
    <glyph glyph-name="agrave" unicode="&#xe0;" horiz-adv-x="532" 
d="M346 593q-26 16 -56.5 33.5t-46.5 27t-33.5 21.5t-29.5 25q-9 9 -12.5 19t1.5 19t18 11l165 -150zM473 0h-60q-5 58 -7 128q-19 -65 -66.5 -106.5t-124.5 -41.5q-66 0 -111 33.5t-45 95.5q0 71 53 105.5t146 49.5q52 8 78 14.5t48 25t22 48.5q0 58 -26 89.5t-77 31.5
q-30 0 -54 -5.5t-42.5 -18.5t-28 -20.5t-23.5 -24.5t-15 -18q-19 -22 -42.5 -19t-26.5 29q122 89 237 89q149 0 150 -139v-160q0 -118 15 -186zM233 -1q78 0 125.5 59.5t47.5 153.5v96q-11 -16 -34.5 -27t-43.5 -15.5t-63 -12.5q-147 -24 -147 -138q0 -55 31.5 -85.5
t83.5 -30.5z" />
    <glyph glyph-name="aacute" unicode="&#xe1;" horiz-adv-x="532" 
d="M374 700q-16 -16 -35.5 -29.5t-61 -37t-69.5 -40.5l-6 6l165 150q13 -2 18 -11t1.5 -19t-12.5 -19zM473 0h-60q-5 58 -7 128q-19 -65 -66.5 -106.5t-124.5 -41.5q-66 0 -111 33.5t-45 95.5q0 71 53 105.5t146 49.5q52 8 78 14.5t48 25t22 48.5q0 58 -26 89.5t-77 31.5
q-30 0 -54 -5.5t-42.5 -18.5t-28 -20.5t-23.5 -24.5t-15 -18q-19 -22 -42.5 -19t-26.5 29q122 89 237 89q149 0 150 -139v-160q0 -118 15 -186zM233 -1q78 0 125.5 59.5t47.5 153.5v96q-11 -16 -34.5 -27t-43.5 -15.5t-63 -12.5q-147 -24 -147 -138q0 -55 31.5 -85.5
t83.5 -30.5z" />
    <glyph glyph-name="acircumflex" unicode="&#xe2;" horiz-adv-x="532" 
d="M187 616q-14 -14 -29 -14.5t-20 17.5q99 85 140 131q35 -40 140 -131q-5 -18 -20 -18t-29 15q-23 21 -91 122q-10 -14 -24 -35.5t-20 -30.5t-15 -21t-16.5 -20t-15.5 -15zM473 0h-60q-5 58 -7 128q-19 -65 -66.5 -106.5t-124.5 -41.5q-66 0 -111 33.5t-45 95.5
q0 71 53 105.5t146 49.5q52 8 78 14.5t48 25t22 48.5q0 58 -26 89.5t-77 31.5q-30 0 -54 -5.5t-42.5 -18.5t-28 -20.5t-23.5 -24.5t-15 -18q-19 -22 -42.5 -19t-26.5 29q122 89 237 89q149 0 150 -139v-160q0 -118 15 -186zM233 -1q78 0 125.5 59.5t47.5 153.5v96
q-11 -16 -34.5 -27t-43.5 -15.5t-63 -12.5q-147 -24 -147 -138q0 -55 31.5 -85.5t83.5 -30.5z" />
    <glyph glyph-name="atilde" unicode="&#xe3;" horiz-adv-x="532" 
d="M200 710q-45 0 -40 -87h-44q6 100 80 100q27 0 56 -23.5t55 -46.5t48 -23q45 0 40 88h44q-6 -100 -80 -100q-27 0 -56 23t-55 46t-48 23zM473 0h-60q-5 58 -7 128q-19 -65 -66.5 -106.5t-124.5 -41.5q-66 0 -111 33.5t-45 95.5q0 71 53 105.5t146 49.5q52 8 78 14.5
t48 25t22 48.5q0 58 -26 89.5t-77 31.5q-30 0 -54 -5.5t-42.5 -18.5t-28 -20.5t-23.5 -24.5t-15 -18q-19 -22 -42.5 -19t-26.5 29q122 89 237 89q149 0 150 -139v-160q0 -118 15 -186zM233 -1q78 0 125.5 59.5t47.5 153.5v96q-11 -16 -34.5 -27t-43.5 -15.5t-63 -12.5
q-147 -24 -147 -138q0 -55 31.5 -85.5t83.5 -30.5z" />
    <glyph glyph-name="adieresis" unicode="&#xe4;" horiz-adv-x="532" 
d="M249 644l-47 -48l-48 48l48 47zM402 644l-48 -48l-47 48l47 47zM473 0h-60q-5 58 -7 128q-19 -65 -66.5 -106.5t-124.5 -41.5q-66 0 -111 33.5t-45 95.5q0 71 53 105.5t146 49.5q52 8 78 14.5t48 25t22 48.5q0 58 -26 89.5t-77 31.5q-30 0 -54 -5.5t-42.5 -18.5
t-28 -20.5t-23.5 -24.5t-15 -18q-19 -22 -42.5 -19t-26.5 29q122 89 237 89q149 0 150 -139v-160q0 -118 15 -186zM233 -1q78 0 125.5 59.5t47.5 153.5v96q-11 -16 -34.5 -27t-43.5 -15.5t-63 -12.5q-147 -24 -147 -138q0 -55 31.5 -85.5t83.5 -30.5z" />
    <glyph glyph-name="aring" unicode="&#xe5;" horiz-adv-x="532" 
d="M278 583q-38 0 -63 26t-25 61t25 61.5t63 26.5t62.5 -26.5t24.5 -61.5t-24.5 -61t-62.5 -26zM278 745q-33 0 -54 -22.5t-21 -52.5t21 -52.5t54 -22.5t54 22.5t21 52.5t-21 52.5t-54 22.5zM473 0h-60q-5 58 -7 128q-19 -65 -66.5 -106.5t-124.5 -41.5q-66 0 -111 33.5
t-45 95.5q0 71 53 105.5t146 49.5q52 8 78 14.5t48 25t22 48.5q0 58 -26 89.5t-77 31.5q-30 0 -54 -5.5t-42.5 -18.5t-28 -20.5t-23.5 -24.5t-15 -18q-19 -22 -42.5 -19t-26.5 29q122 89 237 89q149 0 150 -139v-160q0 -118 15 -186zM233 -1q78 0 125.5 59.5t47.5 153.5v96
q-11 -16 -34.5 -27t-43.5 -15.5t-63 -12.5q-147 -24 -147 -138q0 -55 31.5 -85.5t83.5 -30.5z" />
    <glyph glyph-name="ae" unicode="&#xe6;" horiz-adv-x="905" 
d="M854 174h12q-51 -194 -216 -194q-81 0 -141 40.5t-86 111.5q-49 -152 -207 -152q-66 0 -111.5 35.5t-45.5 98.5q0 68 53 101.5t146 48.5q52 8 78 14.5t48 25t22 48.5q0 58 -26 89.5t-77 31.5q-30 0 -54 -5.5t-42.5 -18.5t-28 -20.5t-23.5 -24.5t-15 -18
q-19 -22 -42.5 -19t-26.5 29q122 89 234 89q123 0 143 -102q32 48 82 75t108 27q93 0 147 -55.5t54 -130.5h-369q-5 -33 -5 -64q0 -99 51.5 -169t143.5 -70q144 0 194 178zM638 473q-65 0 -108.5 -43t-57.5 -119h309q0 69 -36.5 115.5t-106.5 46.5zM233 -1q78 0 125.5 60
t47.5 156v93q-11 -16 -34.5 -27t-43.5 -15.5t-63 -12.5q-147 -24 -147 -134q0 -55 32 -87.5t83 -32.5z" />
    <glyph glyph-name="ccedilla" unicode="&#xe7;" horiz-adv-x="532" 
d="M493 175q-52 -182 -194 -194l-63 -73q86 8 133 -24.5t47 -85.5q0 -46 -35 -76t-90 -30q-105 0 -155 96l35 35q38 -119 119 -119q82 0 82 93q0 52 -36 80t-114 20v13l37 71q-95 6 -152.5 74t-57.5 178q0 115 63 183.5t166 68.5q73 0 122 -39.5t68 -93.5q-10 -20 -33 -14.5
t-27 31.5q-3 15 -8.5 29t-19 33t-39.5 30.5t-61 11.5q-86 0 -129 -63t-43 -174q0 -100 46.5 -169.5t135.5 -69.5q134 0 191 178h12z" />
    <glyph glyph-name="egrave" unicode="&#xe8;" horiz-adv-x="547" 
d="M357 593q-26 16 -56.5 33.5t-46.5 27t-33.5 21.5t-29.5 25q-9 9 -12.5 19t1.5 19t18 11l165 -150zM496 174h12q-49 -194 -216 -194q-108 0 -175.5 69.5t-67.5 183.5q0 112 67 182t165 70q92 0 146 -55.5t54 -130.5h-368q-5 -33 -5 -64q0 -99 51.5 -169t143.5 -70
q143 0 193 178zM280 473q-65 0 -108 -43t-57 -119h309q0 69 -37 115.5t-107 46.5z" />
    <glyph glyph-name="eacute" unicode="&#xe9;" horiz-adv-x="547" 
d="M385 700q-16 -16 -35.5 -29.5t-61 -37t-69.5 -40.5l-6 6l165 150q13 -2 18 -11t1.5 -19t-12.5 -19zM496 174h12q-49 -194 -216 -194q-108 0 -175.5 69.5t-67.5 183.5q0 112 67 182t165 70q92 0 146 -55.5t54 -130.5h-368q-5 -33 -5 -64q0 -99 51.5 -169t143.5 -70
q143 0 193 178zM280 473q-65 0 -108 -43t-57 -119h309q0 69 -37 115.5t-107 46.5z" />
    <glyph glyph-name="ecircumflex" unicode="&#xea;" horiz-adv-x="547" 
d="M198 616q-14 -14 -29 -14.5t-20 17.5q99 85 140 131q35 -40 140 -131q-5 -18 -20 -18t-29 15q-23 21 -91 122q-10 -14 -24 -35.5t-20 -30.5t-15 -21t-16.5 -20t-15.5 -15zM496 174h12q-49 -194 -216 -194q-108 0 -175.5 69.5t-67.5 183.5q0 112 67 182t165 70
q92 0 146 -55.5t54 -130.5h-368q-5 -33 -5 -64q0 -99 51.5 -169t143.5 -70q143 0 193 178zM280 473q-65 0 -108 -43t-57 -119h309q0 69 -37 115.5t-107 46.5z" />
    <glyph glyph-name="edieresis" unicode="&#xeb;" horiz-adv-x="547" 
d="M261 644l-47 -48l-48 48l48 47zM414 644l-48 -48l-47 48l47 47zM496 174h12q-49 -194 -216 -194q-108 0 -175.5 69.5t-67.5 183.5q0 112 67 182t165 70q92 0 146 -55.5t54 -130.5h-368q-5 -33 -5 -64q0 -99 51.5 -169t143.5 -70q143 0 193 178zM280 473q-65 0 -108 -43
t-57 -119h309q0 69 -37 115.5t-107 46.5z" />
    <glyph glyph-name="igrave" unicode="&#xec;" horiz-adv-x="164" 
d="M150 593q-26 16 -56.5 33.5t-46.5 27t-33.5 21.5t-30.5 25q-13 12 -13 29t20 20l166 -150zM50 465h64q-6 -68 -6 -177v-110q0 -110 6 -178h-64q6 68 6 178v110q0 109 -6 177z" />
    <glyph glyph-name="iacute" unicode="&#xed;" horiz-adv-x="164" 
d="M13 593l-6 6l165 150q13 -2 18 -11t1.5 -19t-12.5 -19q-16 -16 -35.5 -29.5t-61 -37t-69.5 -40.5zM50 465h64q-6 -68 -6 -177v-110q0 -110 6 -178h-64q6 68 6 178v110q0 109 -6 177z" />
    <glyph glyph-name="icircumflex" unicode="&#xee;" horiz-adv-x="164" 
d="M83 750q35 -40 140 -131q-5 -18 -20 -18t-29 15q-23 21 -91 122q-10 -14 -24 -35.5t-20 -30.5t-15 -21t-16.5 -20t-15.5 -15q-14 -14 -29 -14.5t-20 17.5q99 85 140 131zM114 465q-6 -68 -6 -177v-110q0 -110 6 -178h-64q6 68 6 178v110q0 109 -6 177h64z" />
    <glyph glyph-name="idieresis" unicode="&#xef;" horiz-adv-x="164" 
d="M7 596l-48 48l48 47l47 -47zM159 596l-47 48l47 47l48 -47zM50 465h64q-6 -68 -6 -177v-110q0 -110 6 -178h-64q6 68 6 178v110q0 109 -6 177z" />
    <glyph glyph-name="ntilde" unicode="&#xf1;" horiz-adv-x="530" 
d="M191 710q-45 0 -40 -87h-44q6 100 80 100q27 0 56 -23.5t55 -46.5t48 -23q45 0 40 88h44q-6 -100 -80 -100q-27 0 -56 23t-55 46t-48 23zM398 0q6 94 6 186v127q0 156 -104 156q-59 0 -103 -40t-71 -95v-46v-110q0 -110 6 -178h-64q6 68 6 178v110q0 109 -6 177h64
q-4 -39 -6 -109q26 53 75 91t114 38q72 0 106.5 -44t34.5 -139v-116q0 -92 7 -186h-65z" />
    <glyph glyph-name="ograve" unicode="&#xf2;" horiz-adv-x="611" 
d="M373 593q-26 16 -56.5 33.5t-46.5 27t-33.5 21.5t-29.5 25q-9 9 -12.5 19t1.5 19t18 11l165 -150zM306 -20q-114 0 -185.5 71t-71.5 182q0 110 71.5 181t185.5 71t185.5 -71t71.5 -181t-71.5 -181.5t-185.5 -71.5zM306 -8q96 0 147 66.5t51 174.5q0 107 -51 173.5
t-147 66.5t-147 -66.5t-51 -173.5q0 -108 51 -174.5t147 -66.5z" />
    <glyph glyph-name="oacute" unicode="&#xf3;" horiz-adv-x="611" 
d="M236 593l-6 6l165 150q13 -2 18 -11t1.5 -19t-12.5 -19q-16 -16 -35.5 -29.5t-61 -37t-69.5 -40.5zM306 -20q-114 0 -185.5 71t-71.5 182q0 110 71.5 181t185.5 71t185.5 -71t71.5 -181t-71.5 -181.5t-185.5 -71.5zM306 -8q96 0 147 66.5t51 174.5q0 107 -51 173.5
t-147 66.5t-147 -66.5t-51 -173.5q0 -108 51 -174.5t147 -66.5z" />
    <glyph glyph-name="ocircumflex" unicode="&#xf4;" horiz-adv-x="611" 
d="M215 616q-14 -14 -29 -14.5t-20 17.5q99 85 140 131q35 -40 140 -131q-5 -18 -20 -18t-29 15q-23 21 -91 122q-10 -14 -24 -35.5t-20 -30.5t-15 -21t-16.5 -20t-15.5 -15zM306 485q114 0 185.5 -71t71.5 -181t-71.5 -181.5t-185.5 -71.5t-185.5 71t-71.5 182
q0 110 71.5 181t185.5 71zM306 -8q96 0 147 66.5t51 174.5q0 107 -51 173.5t-147 66.5t-147 -66.5t-51 -173.5q0 -108 51 -174.5t147 -66.5z" />
    <glyph glyph-name="otilde" unicode="&#xf5;" horiz-adv-x="611" 
d="M224 723q27 0 56 -23.5t55 -46.5t48 -23q45 0 40 88h44q-6 -100 -80 -100q-27 0 -56 23t-55 46t-48 23q-45 0 -40 -87h-44q6 100 80 100zM306 -20q-114 0 -185.5 71t-71.5 182q0 110 71.5 181t185.5 71t185.5 -71t71.5 -181t-71.5 -181.5t-185.5 -71.5zM306 -8
q96 0 147 66.5t51 174.5q0 107 -51 173.5t-147 66.5t-147 -66.5t-51 -173.5q0 -108 51 -174.5t147 -66.5z" />
    <glyph glyph-name="odieresis" unicode="&#xf6;" horiz-adv-x="611" 
d="M230 596l-48 48l48 47l47 -47zM382 596l-47 48l47 47l48 -47zM306 -20q-114 0 -185.5 71t-71.5 182q0 110 71.5 181t185.5 71t185.5 -71t71.5 -181t-71.5 -181.5t-185.5 -71.5zM306 -8q96 0 147 66.5t51 174.5q0 107 -51 173.5t-147 66.5t-147 -66.5t-51 -173.5
q0 -108 51 -174.5t147 -66.5z" />
    <glyph glyph-name="divide" unicode="&#xf7;" horiz-adv-x="561" 
d="M281 366l-48 48l48 47l47 -47zM50 276q230 -10 461 0v-33q-231 12 -461 0v33zM281 59l-48 47l48 48l47 -48z" />
    <glyph glyph-name="oslash" unicode="&#xf8;" horiz-adv-x="611" 
d="M440 452q58 -32 90.5 -89.5t32.5 -129.5q0 -110 -71.5 -181.5t-185.5 -71.5q-66 0 -123 27l-58 -101l-11 6l58 101q-58 32 -90.5 89.5t-32.5 130.5q0 110 71.5 181t185.5 71q66 0 123 -27l58 101l11 -6zM108 233q0 -136 76 -200l234 407q-46 33 -112 33q-96 0 -147 -66.5
t-51 -173.5zM306 -8q96 0 147 66.5t51 174.5q0 136 -76 199l-234 -407q47 -33 112 -33z" />
    <glyph glyph-name="ugrave" unicode="&#xf9;" horiz-adv-x="527" 
d="M335 593q-26 16 -56.5 33.5t-46.5 27t-33.5 21.5t-29.5 25q-9 9 -12.5 19t1.5 19t18 11l165 -150zM397 465h63v-465h-58q5 78 5 107q-26 -51 -75.5 -89t-112.5 -38q-72 0 -106.5 44t-34.5 139v116q0 92 -10 186h62v-313q0 -156 104 -156q58 0 102.5 37t71.5 89v56v101
q0 92 -11 186z" />
    <glyph glyph-name="uacute" unicode="&#xfa;" horiz-adv-x="527" 
d="M363 700q-16 -16 -35.5 -29.5t-61 -37t-69.5 -40.5l-6 6l165 150q13 -2 18 -11t1.5 -19t-12.5 -19zM397 465h63v-465h-58q5 78 5 107q-26 -51 -75.5 -89t-112.5 -38q-72 0 -106.5 44t-34.5 139v116q0 92 -10 186h62v-313q0 -156 104 -156q58 0 102.5 37t71.5 89v56v101
q0 92 -11 186z" />
    <glyph glyph-name="ucircumflex" unicode="&#xfb;" horiz-adv-x="527" 
d="M176 616q-14 -14 -29 -14.5t-20 17.5q99 85 140 131q35 -40 140 -131q-5 -18 -20 -18t-29 15q-23 21 -91 122q-10 -14 -24 -35.5t-20 -30.5t-15 -21t-16.5 -20t-15.5 -15zM397 465h63v-465h-58q5 78 5 107q-26 -51 -75.5 -89t-112.5 -38q-72 0 -106.5 44t-34.5 139v116
q0 92 -10 186h62v-313q0 -156 104 -156q58 0 102.5 37t71.5 89v56v101q0 92 -11 186z" />
    <glyph glyph-name="udieresis" unicode="&#xfc;" horiz-adv-x="527" 
d="M238 644l-47 -48l-48 48l48 47zM391 644l-48 -48l-47 48l47 47zM397 465h63v-465h-58q5 78 5 107q-26 -51 -75.5 -89t-112.5 -38q-72 0 -106.5 44t-34.5 139v116q0 92 -10 186h62v-313q0 -156 104 -156q58 0 102.5 37t71.5 89v56v101q0 92 -11 186z" />
    <glyph glyph-name="yacute" unicode="&#xfd;" horiz-adv-x="493" 
d="M351 700q-16 -16 -35.5 -29.5t-61 -37t-69.5 -40.5l-6 6l165 150q13 -2 18 -11t1.5 -19t-12.5 -19zM432 465h23q-13 -23 -25 -59l-145 -406q-30 -83 -64 -124t-88 -41q-49 0 -91 29q-5 22 13 29.5t31 -12.5q23 -34 53 -34q77 0 132 152v1h-45l-156 406q-14 35 -30 59h71
q3 -26 16 -59l150 -389l139 389q9 27 16 59z" />
    <glyph glyph-name="thorn" unicode="&#xfe;" horiz-adv-x="562" 
d="M297 485q96 0 155.5 -70t59.5 -182q0 -110 -61 -181.5t-148 -71.5q-55 0 -105.5 29.5t-86.5 74.5v-138q0 -109 6 -186h-64q6 77 6 186v668q0 109 -6 186h63q-5 -77 -5 -186v-283q20 70 67.5 112t118.5 42zM292 -5q75 0 118 66t43 172q0 105 -41 170.5t-126 65.5
q-83 0 -129 -65t-46 -163v-142q33 -44 82 -74t99 -30z" />
    <glyph glyph-name="ydieresis" unicode="&#xff;" horiz-adv-x="493" 
d="M226 644l-47 -48l-48 48l48 47zM379 644l-48 -48l-47 48l47 47zM432 465h23q-13 -23 -25 -59l-145 -406q-30 -83 -64 -124t-88 -41q-49 0 -91 29q-5 22 13 29.5t31 -12.5q23 -34 53 -34q77 0 132 152v1h-45l-156 406q-14 35 -30 59h71q3 -26 16 -59l150 -389l139 389
q9 27 16 59z" />
    <glyph glyph-name="Amacron" unicode="&#x100;" horiz-adv-x="629" 
d="M472 934q-107 7 -160 7t-161 -7v33q161 -9 321 0v-33zM541 100q12 -48 38 -100h-78q-2 35 -20 100l-56 195h-271l-57 -198q-3 -9 -7.5 -24.5t-7 -23.5t-5 -21t-3.5 -28h-24q14 29 34 96l190 660q5 21 -3 44h70zM157 307h265l-132 460z" />
    <glyph glyph-name="amacron" unicode="&#x101;" horiz-adv-x="532" 
d="M439 654q-107 7 -160 7t-161 -7v33q161 -9 321 0v-33zM473 0h-60q-5 58 -7 128q-19 -65 -66.5 -106.5t-124.5 -41.5q-66 0 -111 33.5t-45 95.5q0 71 53 105.5t146 49.5q52 8 78 14.5t48 25t22 48.5q0 58 -26 89.5t-77 31.5q-30 0 -54 -5.5t-42.5 -18.5t-28 -20.5
t-23.5 -24.5t-15 -18q-19 -22 -42.5 -19t-26.5 29q122 89 237 89q149 0 150 -139v-160q0 -118 15 -186zM233 -1q78 0 125.5 59.5t47.5 153.5v96q-11 -16 -34.5 -27t-43.5 -15.5t-63 -12.5q-147 -24 -147 -138q0 -55 31.5 -85.5t83.5 -30.5z" />
    <glyph glyph-name="Abreve" unicode="&#x102;" horiz-adv-x="629" 
d="M311 865q-62 0 -98.5 39.5t-39.5 103.5h44q-5 -130 94 -130q100 0 95 130h43q-3 -64 -39 -103.5t-99 -39.5zM541 100q12 -48 38 -100h-78q-2 35 -20 100l-56 195h-271l-57 -198q-3 -9 -7.5 -24.5t-7 -23.5t-5 -21t-3.5 -28h-24q14 29 34 96l190 660q5 21 -3 44h70z
M157 307h265l-132 460z" />
    <glyph glyph-name="abreve" unicode="&#x103;" horiz-adv-x="532" 
d="M278 585q-62 0 -98.5 39.5t-39.5 103.5h44q-5 -130 94 -130q100 0 95 130h43q-3 -64 -39 -103.5t-99 -39.5zM473 0h-60q-5 58 -7 128q-19 -65 -66.5 -106.5t-124.5 -41.5q-66 0 -111 33.5t-45 95.5q0 71 53 105.5t146 49.5q52 8 78 14.5t48 25t22 48.5q0 58 -26 89.5
t-77 31.5q-30 0 -54 -5.5t-42.5 -18.5t-28 -20.5t-23.5 -24.5t-15 -18q-19 -22 -42.5 -19t-26.5 29q122 89 237 89q149 0 150 -139v-160q0 -118 15 -186zM233 -1q78 0 125.5 59.5t47.5 153.5v96q-11 -16 -34.5 -27t-43.5 -15.5t-63 -12.5q-147 -24 -147 -138
q0 -55 31.5 -85.5t83.5 -30.5z" />
    <glyph glyph-name="Aogonek" unicode="&#x104;" horiz-adv-x="629" 
d="M611 -133l35 -35q-18 -29 -30.5 -46t-33.5 -37t-47.5 -29.5t-59.5 -9.5q-57 0 -90 26t-33 75q0 39 22 67.5t71.5 65t70.5 56.5h-15q-2 35 -20 100l-56 195h-271l-57 -198q-3 -9 -7.5 -24.5t-7 -23.5t-5 -21t-3.5 -28h-24q14 29 34 96l190 660q5 21 -3 44h70l200 -700
q12 -48 38 -100h-50q-19 -20 -50.5 -51t-45 -46t-25.5 -40t-12 -53q0 -44 23.5 -66t57.5 -22q28 0 49 10.5t37 34t25 43.5t23 57zM157 307h265l-132 460z" />
    <glyph glyph-name="aogonek" unicode="&#x105;" horiz-adv-x="532" 
d="M520 -133l35 -35q-18 -29 -30.5 -46t-33.5 -37t-47.5 -29.5t-59.5 -9.5q-57 0 -90 26t-33 75q0 39 22 67.5t71.5 65t70.5 56.5h-12q-5 58 -7 128q-19 -65 -66.5 -106.5t-124.5 -41.5q-66 0 -111 33.5t-45 95.5q0 71 53 105.5t146 49.5q52 8 78 14.5t48 25t22 48.5
q0 58 -26 89.5t-77 31.5q-30 0 -54 -5.5t-42.5 -18.5t-28 -20.5t-23.5 -24.5t-15 -18q-19 -22 -42.5 -19t-26.5 29q122 89 237 89q149 0 150 -139v-160q0 -118 15 -186h-35q-19 -20 -50.5 -51t-45 -46t-25.5 -40t-12 -53q0 -44 23.5 -66t57.5 -22q28 0 49 10.5t37 34
t25 43.5t23 57zM233 -1q78 0 125.5 59.5t47.5 153.5v96q-11 -16 -34.5 -27t-43.5 -15.5t-63 -12.5q-147 -24 -147 -138q0 -55 31.5 -85.5t83.5 -30.5z" />
    <glyph glyph-name="Cacute" unicode="&#x106;" horiz-adv-x="836" 
d="M536 980q-16 -16 -35.5 -29.5t-61 -37t-69.5 -40.5l-6 6l165 150q13 -2 18 -11t1.5 -19t-12.5 -19zM784 329h12q-34 -163 -122.5 -256t-233.5 -93q-119 0 -206.5 58.5t-130.5 155t-43 216.5q0 176 109 293t272 117q208 0 311 -208l-66 -18q-29 95 -90 154.5t-155 59.5
q-140 0 -228.5 -114.5t-88.5 -280.5q0 -114 34 -205.5t109.5 -150t183.5 -58.5q133 0 216.5 88.5t116.5 241.5z" />
    <glyph glyph-name="cacute" unicode="&#x107;" horiz-adv-x="532" 
d="M197 593l-6 6l165 150q13 -2 18 -11t1.5 -19t-12.5 -19q-16 -16 -35.5 -29.5t-61 -37t-69.5 -40.5zM49 233q0 115 63 183.5t166 68.5q73 0 122 -39.5t68 -93.5q-10 -20 -33 -14.5t-27 31.5q-3 15 -8.5 29t-19 33t-39.5 30.5t-61 11.5q-86 0 -129 -63t-43 -174
q0 -100 46.5 -169.5t135.5 -69.5q134 0 191 178h12q-57 -195 -215 -195q-103 0 -166 69t-63 184z" />
    <glyph glyph-name="Cdotaccent" unicode="&#x10a;" horiz-adv-x="836" 
d="M487 924l-47 -48l-48 48l48 47zM784 329h12q-34 -163 -122.5 -256t-233.5 -93q-119 0 -206.5 58.5t-130.5 155t-43 216.5q0 176 109 293t272 117q208 0 311 -208l-66 -18q-29 95 -90 154.5t-155 59.5q-140 0 -228.5 -114.5t-88.5 -280.5q0 -114 34 -205.5t109.5 -150
t183.5 -58.5q133 0 216.5 88.5t116.5 241.5z" />
    <glyph glyph-name="cdotaccent" unicode="&#x10b;" horiz-adv-x="532" 
d="M268 596l-48 48l48 47l47 -47zM49 233q0 115 63 183.5t166 68.5q73 0 122 -39.5t68 -93.5q-10 -20 -33 -14.5t-27 31.5q-3 15 -8.5 29t-19 33t-39.5 30.5t-61 11.5q-86 0 -129 -63t-43 -174q0 -100 46.5 -169.5t135.5 -69.5q134 0 191 178h12q-57 -195 -215 -195
q-103 0 -166 69t-63 184z" />
    <glyph glyph-name="Ccaron" unicode="&#x10c;" horiz-adv-x="836" 
d="M440 877q-41 46 -140 131q5 19 20 18t29 -15q10 -9 21 -22t17 -21t24.5 -36t28.5 -42q69 101 91 121q14 15 29 15.5t20 -18.5q-105 -91 -140 -131zM784 329h12q-34 -163 -122.5 -256t-233.5 -93q-119 0 -206.5 58.5t-130.5 155t-43 216.5q0 176 109 293t272 117
q208 0 311 -208l-66 -18q-29 95 -90 154.5t-155 59.5q-140 0 -228.5 -114.5t-88.5 -280.5q0 -114 34 -205.5t109.5 -150t183.5 -58.5q133 0 216.5 88.5t116.5 241.5z" />
    <glyph glyph-name="ccaron" unicode="&#x10d;" horiz-adv-x="532" 
d="M267 597q-41 46 -140 131q5 19 20 18t29 -15q10 -9 21 -22t17 -21t24.5 -36t28.5 -42q69 101 91 121q14 15 29 15.5t20 -18.5q-105 -91 -140 -131zM481 175h12q-57 -195 -215 -195q-103 0 -166 69t-63 184t63 183.5t166 68.5q73 0 122 -39.5t68 -93.5q-10 -20 -33 -14.5
t-27 31.5q-3 15 -8.5 29t-19 33t-39.5 30.5t-61 11.5q-86 0 -129 -63t-43 -174q0 -100 46.5 -169.5t135.5 -69.5q134 0 191 178z" />
    <glyph glyph-name="Dcaron" unicode="&#x10e;" horiz-adv-x="697" 
d="M275 877q-41 46 -140 131q5 19 20 18t29 -15q10 -9 21 -22t17 -21t24.5 -36t28.5 -42q69 101 91 121q14 15 29 15.5t20 -18.5q-105 -91 -140 -131zM247 800q183 0 286.5 -103t103.5 -297q0 -188 -103 -294t-287 -106h-177q6 89 6 188v425q0 98 -6 187h177zM246 13
q146 0 236.5 102t90.5 285q0 189 -89.5 288.5t-237.5 99.5h-113v-775h113z" />
    <glyph glyph-name="dcaron" unicode="&#x10f;" horiz-adv-x="622" 
d="M644 811l48 -47l-90 -173l-5 6l47 119l-47 48zM502 800v-622q0 -92 16 -178h-61q-7 75 -7 137q-19 -71 -67 -114t-120 -43q-96 0 -155 70t-59 183q0 110 60.5 181t148.5 71q55 0 105.5 -29.5t86.5 -74.5v233q0 92 -10 186h62zM275 -4q83 0 129 65t46 163v142
q-34 44 -82.5 74t-98.5 30q-75 0 -118 -66t-43 -171t41 -171t126 -66z" />
    <glyph glyph-name="Dcroat" unicode="&#x110;" horiz-adv-x="707" 
d="M287 800q183 0 286.5 -103t103.5 -297q0 -188 -103 -294t-287 -106h-177q6 89 6 188v219h-106v12h106v194q0 98 -6 187h177zM286 13q146 0 236.5 102t90.5 285q0 189 -89.5 288.5t-237.5 99.5h-113v-369h187v-12h-187v-394h113z" />
    <glyph glyph-name="dcroat" unicode="&#x111;" horiz-adv-x="589" 
d="M579 651h-77v-473q0 -92 16 -178h-61q-7 75 -7 137q-19 -71 -67 -114t-120 -43q-96 0 -155 70t-59 183q0 110 60.5 181t148.5 71q55 0 105.5 -29.5t86.5 -74.5v233v37h-188v12h188q-2 60 -10 137h62v-137h77v-12zM275 -4q83 0 129 65t46 163v142q-34 44 -82.5 74
t-98.5 30q-75 0 -118 -66t-43 -171t41 -171t126 -66z" />
    <glyph glyph-name="Emacron" unicode="&#x112;" horiz-adv-x="559" 
d="M119 967q161 -9 321 0v-33q-107 7 -160 7t-161 -7v33zM70 800h429l-36 -41q-105 29 -234 29h-94v-356h71q107 0 200 10v-32q-93 10 -200 10h-71v-407h126q154 0 268 28l-23 -41h-436q8 102 8 188v425q0 85 -8 187z" />
    <glyph glyph-name="emacron" unicode="&#x113;" horiz-adv-x="547" 
d="M450 654q-107 7 -160 7t-161 -7v33q161 -9 321 0v-33zM496 174h12q-49 -194 -216 -194q-108 0 -175.5 69.5t-67.5 183.5q0 112 67 182t165 70q92 0 146 -55.5t54 -130.5h-368q-5 -33 -5 -64q0 -99 51.5 -169t143.5 -70q143 0 193 178zM280 473q-65 0 -108 -43t-57 -119
h309q0 69 -37 115.5t-107 46.5z" />
    <glyph glyph-name="Edotaccent" unicode="&#x116;" horiz-adv-x="559" 
d="M279 876l-48 48l48 47l47 -47zM70 800h429l-36 -41q-105 29 -234 29h-94v-356h71q107 0 200 10v-32q-93 10 -200 10h-71v-407h126q154 0 268 28l-23 -41h-436q8 102 8 188v425q0 85 -8 187z" />
    <glyph glyph-name="edotaccent" unicode="&#x117;" horiz-adv-x="547" 
d="M337 644l-47 -48l-48 48l48 47zM496 174h12q-49 -194 -216 -194q-108 0 -175.5 69.5t-67.5 183.5q0 112 67 182t165 70q92 0 146 -55.5t54 -130.5h-368q-5 -33 -5 -64q0 -99 51.5 -169t143.5 -70q143 0 193 178zM280 473q-65 0 -108 -43t-57 -119h309q0 69 -37 115.5
t-107 46.5z" />
    <glyph glyph-name="Eogonek" unicode="&#x118;" horiz-adv-x="559" 
d="M354 -278q28 0 49 10.5t37 34t25 43.5t23 57l35 -35q-18 -29 -30.5 -46t-33.5 -37t-47.5 -29.5t-59.5 -9.5q-57 0 -90 26t-33 75q0 39 22 67.5t71.5 65t70.5 56.5h-323q8 102 8 188v425q0 85 -8 187h429l-36 -41q-105 29 -234 29h-94v-356h71q107 0 200 10v-32
q-93 10 -200 10h-71v-407h126q154 0 268 28l-23 -41h-100q-19 -20 -50.5 -51t-45 -46t-25.5 -40t-12 -53q0 -44 23.5 -66t57.5 -22z" />
    <glyph glyph-name="eogonek" unicode="&#x119;" horiz-adv-x="547" 
d="M474 -133l35 -35q-18 -29 -30.5 -46t-33.5 -37t-47.5 -29.5t-59.5 -9.5q-57 0 -90 26t-33 75q0 30 16 56t35.5 42t54 42t53.5 44q-36 -15 -82 -15q-108 0 -175.5 69.5t-67.5 183.5q0 112 67 182t165 70q92 0 146 -55.5t54 -130.5h-368q-5 -33 -5 -64q0 -99 51.5 -169
t143.5 -70q143 0 193 178h12q-31 -122 -110 -167q-21 -23 -52.5 -54.5t-46.5 -47.5t-27.5 -41t-12.5 -54q0 -44 23.5 -66t57.5 -22q28 0 49 10.5t37 34t25 43.5t23 57zM280 473q-65 0 -108 -43t-57 -119h309q0 69 -37 115.5t-107 46.5z" />
    <glyph glyph-name="Ecaron" unicode="&#x11a;" horiz-adv-x="559" 
d="M279 877q-41 46 -140 131q5 19 20 18t29 -15q10 -9 21 -22t17 -21t24.5 -36t28.5 -42q69 101 91 121q14 15 29 15.5t20 -18.5q-105 -91 -140 -131zM261 13q154 0 268 28l-23 -41h-436q8 102 8 188v425q0 85 -8 187h429l-36 -41q-105 29 -234 29h-94v-356h71q107 0 200 10
v-32q-93 10 -200 10h-71v-407h126z" />
    <glyph glyph-name="ecaron" unicode="&#x11b;" horiz-adv-x="547" 
d="M289 597q-41 46 -140 131q5 19 20 18t29 -15q10 -9 21 -22t17 -21t24.5 -36t28.5 -42q69 101 91 121q14 15 29 15.5t20 -18.5q-105 -91 -140 -131zM496 174h12q-49 -194 -216 -194q-108 0 -175.5 69.5t-67.5 183.5q0 112 67 182t165 70q92 0 146 -55.5t54 -130.5h-368
q-5 -33 -5 -64q0 -99 51.5 -169t143.5 -70q143 0 193 178zM280 473q-65 0 -108 -43t-57 -119h309q0 69 -37 115.5t-107 46.5z" />
    <glyph glyph-name="Gbreve" unicode="&#x11e;" horiz-adv-x="869" 
d="M443 865q-62 0 -98.5 39.5t-39.5 103.5h44q-5 -130 94 -130q100 0 95 130h43q-3 -64 -39 -103.5t-99 -39.5zM849 393h-85v-173q0 -122 10 -220h-36q11 108 11 220v65q-27 -146 -107.5 -225.5t-210.5 -79.5q-167 0 -269 123.5t-102 306.5q0 176 109 293t272 117
q208 0 312 -206l-66 -17q-29 94 -90 152.5t-156 58.5q-140 0 -228.5 -114.5t-88.5 -280.5q0 -112 35.5 -204t109.5 -149t174 -57q139 0 218.5 103t87.5 287h-31q-133 0 -234 -29l-36 41h401v-12z" />
    <glyph glyph-name="gbreve" unicode="&#x11f;" horiz-adv-x="686" 
d="M319 585q-62 0 -98.5 39.5t-39.5 103.5h44q-5 -130 94 -130q100 0 95 130h43q-3 -64 -39 -103.5t-99 -39.5zM528 56q54 0 85.5 -25t31.5 -69q0 -65 -60 -117t-149 -78.5t-184 -26.5q-87 0 -145 29t-58 87q0 51 54 82q-54 23 -54 81q0 73 116 132q-72 56 -72 142
q0 82 66 137t161 55q76 0 135 -37q48 42 90.5 62.5t95.5 19.5q8 -22 -3 -34t-38 -9q-27 2 -45.5 1t-37.5 -10.5t-52 -35.5q81 -58 81 -149q0 -82 -66 -137.5t-160 -55.5q-82 0 -143 42q-46 -30 -65 -55.5t-19 -60.5q0 -29 16.5 -49.5t54.5 -20.5q68 0 186 50t178 50z
M320 473q-77 0 -123 -51t-46 -129q0 -79 46 -129.5t123 -50.5q76 0 122 50.5t46 129.5q0 78 -46 129t-122 51zM248 -239q135 0 239.5 59.5t104.5 144.5q0 30 -19 51t-59 21q-47 0 -109 -27t-127 -54.5t-120 -27.5q-24 0 -43 6q-50 -28 -50 -76q0 -47 52 -72t131 -25z" />
    <glyph glyph-name="Gdotaccent" unicode="&#x120;" horiz-adv-x="869" 
d="M491 924l-47 -48l-48 48l48 47zM849 393h-85v-173q0 -122 10 -220h-36q11 108 11 220v65q-27 -146 -107.5 -225.5t-210.5 -79.5q-167 0 -269 123.5t-102 306.5q0 176 109 293t272 117q208 0 312 -206l-66 -17q-29 94 -90 152.5t-156 58.5q-140 0 -228.5 -114.5
t-88.5 -280.5q0 -112 35.5 -204t109.5 -149t174 -57q139 0 218.5 103t87.5 287h-31q-133 0 -234 -29l-36 41h401v-12z" />
    <glyph glyph-name="gdotaccent" unicode="&#x121;" horiz-adv-x="686" 
d="M367 644l-47 -48l-48 48l48 47zM528 56q54 0 85.5 -25t31.5 -69q0 -65 -60 -117t-149 -78.5t-184 -26.5q-87 0 -145 29t-58 87q0 51 54 82q-54 23 -54 81q0 73 116 132q-72 56 -72 142q0 82 66 137t161 55q76 0 135 -37q48 42 90.5 62.5t95.5 19.5q8 -22 -3 -34t-38 -9
q-27 2 -45.5 1t-37.5 -10.5t-52 -35.5q81 -58 81 -149q0 -82 -66 -137.5t-160 -55.5q-82 0 -143 42q-46 -30 -65 -55.5t-19 -60.5q0 -29 16.5 -49.5t54.5 -20.5q68 0 186 50t178 50zM320 473q-77 0 -123 -51t-46 -129q0 -79 46 -129.5t123 -50.5q76 0 122 50.5t46 129.5
q0 78 -46 129t-122 51zM248 -239q135 0 239.5 59.5t104.5 144.5q0 30 -19 51t-59 21q-47 0 -109 -27t-127 -54.5t-120 -27.5q-24 0 -43 6q-50 -28 -50 -76q0 -47 52 -72t131 -25z" />
    <glyph glyph-name="uni0122" unicode="&#x122;" horiz-adv-x="869" 
d="M849 393h-85v-173q0 -122 10 -220h-36q11 108 11 220v65q-27 -146 -107.5 -225.5t-210.5 -79.5q-167 0 -269 123.5t-102 306.5q0 176 109 293t272 117q208 0 312 -206l-66 -17q-29 94 -90 152.5t-156 58.5q-140 0 -228.5 -114.5t-88.5 -280.5q0 -112 35.5 -204
t109.5 -149t174 -57q139 0 218.5 103t87.5 287h-31q-133 0 -234 -29l-36 41h401v-12zM426 -134l46 46l45 -46l-82 -161l-6 6l43 110z" />
    <glyph glyph-name="uni0123" unicode="&#x123;" horiz-adv-x="686" 
d="M365 623l-45 -46l-46 46l82 161l6 -6l-42 -110zM528 56q54 0 85.5 -25t31.5 -69q0 -65 -60 -117t-149 -78.5t-184 -26.5q-87 0 -145 29t-58 87q0 51 54 82q-54 23 -54 81q0 73 116 132q-72 56 -72 142q0 82 66 137t161 55q76 0 135 -37q48 42 90.5 62.5t95.5 19.5
q8 -22 -3 -34t-38 -9q-27 2 -45.5 1t-37.5 -10.5t-52 -35.5q81 -58 81 -149q0 -82 -66 -137.5t-160 -55.5q-82 0 -143 42q-46 -30 -65 -55.5t-19 -60.5q0 -29 16.5 -49.5t54.5 -20.5q68 0 186 50t178 50zM320 473q-77 0 -123 -51t-46 -129q0 -79 46 -129.5t123 -50.5
q76 0 122 50.5t46 129.5q0 78 -46 129t-122 51zM248 -239q135 0 239.5 59.5t104.5 144.5q0 30 -19 51t-59 21q-47 0 -109 -27t-127 -54.5t-120 -27.5q-24 0 -43 6q-50 -28 -50 -76q0 -47 52 -72t131 -25z" />
    <glyph glyph-name="Hbar" unicode="&#x126;" horiz-adv-x="637" 
d="M627 577h-57v-389q0 -81 6 -188h-69q6 89 6 188v206h-389v-206q0 -99 6 -188h-69q6 107 6 188v389h-57v12h57v24q0 80 -6 187h69q-6 -89 -6 -187v-24h389v24q0 98 -6 187h69q-6 -107 -6 -187v-24h57v-12zM513 406v171h-389v-171h389z" />
    <glyph glyph-name="hbar" unicode="&#x127;" horiz-adv-x="518" 
d="M416 0q6 94 6 186v127q0 156 -104 156q-59 0 -103.5 -40.5t-71.5 -94.5v-146q0 -111 6 -188h-64q6 77 6 188v425v38h-81v12h81q-2 85 -6 137h64q-4 -52 -6 -137h185v-12h-185v-38v-258q26 53 75.5 91.5t114.5 38.5q72 0 106.5 -44t34.5 -139v-116q0 -92 6 -186h-64z" />
    <glyph glyph-name="Imacron" unicode="&#x12a;" horiz-adv-x="209" 
d="M-55 967q161 -9 321 0v-33q-107 7 -160 7t-161 -7v33zM70 800h69q-6 -107 -6 -187v-425q0 -81 6 -188h-69q6 89 6 188v425q0 98 -6 187z" />
    <glyph glyph-name="imacron" unicode="&#x12b;" horiz-adv-x="164" 
d="M-78 687q161 -9 321 0v-33q-107 7 -160 7t-161 -7v33zM50 465h64q-6 -68 -6 -177v-110q0 -110 6 -178h-64q6 68 6 178v110q0 109 -6 177z" />
    <glyph glyph-name="Iogonek" unicode="&#x12e;" horiz-adv-x="209" 
d="M185 -133l35 -35q-18 -29 -30.5 -46t-33.5 -37t-47.5 -29.5t-59.5 -9.5q-57 0 -90 26t-33 75q0 39 22 67.5t71.5 65t70.5 56.5h-20q6 89 6 188v425q0 98 -6 187h69q-6 -107 -6 -187v-425q0 -81 6 -188h-36q-19 -20 -50.5 -51t-45 -46t-25.5 -40t-12 -53q0 -44 23.5 -66
t57.5 -22q28 0 49 10.5t37 34t25 43.5t23 57z" />
    <glyph glyph-name="iogonek" unicode="&#x12f;" horiz-adv-x="164" 
d="M135 648l-52 -50l-53 50l53 50zM157 -133l35 -35q-18 -29 -30.5 -46t-33.5 -37t-47.5 -29.5t-59.5 -9.5q-57 0 -90 26t-33 75q0 39 22 67.5t71 65t70 56.5h-11q6 68 6 178v110q0 109 -6 177h64q-6 -68 -6 -177v-110q0 -110 6 -178h-39q-19 -21 -50.5 -51t-45.5 -45.5
t-26 -40.5t-12 -53q0 -44 24 -66t58 -22q28 0 48.5 10.5t36.5 34t25.5 43.5t23.5 57z" />
    <glyph glyph-name="Idotaccent" unicode="&#x130;" horiz-adv-x="209" 
d="M106 876l-48 48l48 47l47 -47zM70 800h69q-6 -107 -6 -187v-425q0 -81 6 -188h-69q6 89 6 188v425q0 98 -6 187z" />
    <glyph glyph-name="dotlessi" unicode="&#x131;" horiz-adv-x="164" 
d="M50 465h64q-6 -68 -6 -177v-110q0 -110 6 -178h-64q6 68 6 178v110q0 109 -6 177z" />
    <glyph glyph-name="uni0136" unicode="&#x136;" horiz-adv-x="682" 
d="M548 105q47 -57 104 -105h-97q-23 37 -80 105l-267 317l-75 -84v-150q0 -81 6 -188h-69q6 89 6 188v425q0 98 -6 187h69q-6 -107 -6 -187v-257l310 348q49 56 76 96h34q-40 -36 -93 -95l-213 -239zM278 -134l46 46l45 -46l-82 -161l-6 6l43 110z" />
    <glyph glyph-name="uni0137" unicode="&#x137;" horiz-adv-x="534" 
d="M416 108q13 -17 38.5 -52t41.5 -56h-72q-17 48 -61 108q-46 62 -100 93t-136 38q-1 -13 -1 -40v-11q0 -111 6 -188h-64q6 77 6 188v425q0 110 -6 187h64q-6 -77 -6 -187v-305q20 83 70 130t119 47q53 0 83.5 -26.5t30.5 -74.5q0 -62 -65 -100t-174 -43q145 -22 226 -133z
M300 469q-69 0 -115.5 -59t-56.5 -160q119 0 183 34.5t64 99.5q0 39 -19.5 62t-55.5 23zM222 -134l46 46l45 -46l-82 -161l-6 6l43 110z" />
    <glyph glyph-name="Lacute" unicode="&#x139;" horiz-adv-x="535" 
d="M37 873l-6 6l165 150q13 -2 18 -11t1.5 -19t-12.5 -19q-16 -16 -35.5 -29.5t-61 -37t-69.5 -40.5zM72 800h69q-6 -107 -6 -187v-600h91q154 0 269 28l-24 -41h-401q8 102 8 188v425q0 98 -6 187z" />
    <glyph glyph-name="lacute" unicode="&#x13a;" horiz-adv-x="199" 
d="M30 876l-6 6l165 150q13 -2 18 -11t1.5 -19t-12.5 -19q-16 -16 -35.5 -29.5t-61 -37t-69.5 -40.5zM68 800h64q-6 -77 -6 -187v-425q0 -111 6 -188h-64q6 77 6 188v425q0 110 -6 187z" />
    <glyph glyph-name="uni013B" unicode="&#x13b;" horiz-adv-x="535" 
d="M72 800h69q-6 -107 -6 -187v-600h91q154 0 269 28l-24 -41h-401q8 102 8 188v425q0 98 -6 187zM283 -179l-46 45l46 46l45 -46l-82 -161l-6 6z" />
    <glyph glyph-name="uni013C" unicode="&#x13c;" horiz-adv-x="199" 
d="M68 800h64q-6 -77 -6 -187v-425q0 -111 6 -188h-64q6 77 6 188v425q0 110 -6 187zM101 -179l-46 45l46 46l45 -46l-82 -161l-6 6z" />
    <glyph glyph-name="Lcaron" unicode="&#x13d;" horiz-adv-x="526" 
d="M356 716l-47 48l47 47l48 -47l-90 -173l-5 6zM72 800h69q-6 -107 -6 -187v-600h91q154 0 269 28l-24 -41h-401q8 102 8 188v425q0 98 -6 187z" />
    <glyph glyph-name="lcaron" unicode="&#x13e;" horiz-adv-x="311" 
d="M274 716l-48 48l48 47l47 -47l-89 -173l-6 6zM68 800h64q-6 -77 -6 -187v-425q0 -111 6 -188h-64q6 77 6 188v425q0 110 -6 187z" />
    <glyph glyph-name="Lslash" unicode="&#x141;" horiz-adv-x="526" 
d="M226 13q154 0 269 28l-24 -41h-401q8 102 8 188v174l-102 -59l-6 11l108 62v237q0 98 -6 187h69q-6 -107 -6 -187v-204l115 66l6 -11l-121 -70v-381h91z" />
    <glyph glyph-name="lslash" unicode="&#x142;" horiz-adv-x="297" 
d="M174 407v-219q0 -111 7 -188h-65q6 77 6 188v190l-106 -61l-6 11l112 64v221q0 110 -6 187h65q-7 -77 -7 -187v-191l106 61l7 -11z" />
    <glyph glyph-name="Nacute" unicode="&#x143;" horiz-adv-x="716" 
d="M454 980q-16 -16 -35.5 -29.5t-61 -37t-69.5 -40.5l-6 6l165 150q13 -2 18 -11t1.5 -19t-12.5 -19zM640 613v-425q0 -99 6 -188h-60l-498 762v-574q0 -81 6 -188h-24q6 89 6 188v425q0 98 -6 187h60l498 -762v575q0 80 -6 187h24q-6 -89 -6 -187z" />
    <glyph glyph-name="nacute" unicode="&#x144;" horiz-adv-x="530" 
d="M364 700q-16 -16 -35.5 -29.5t-61 -37t-69.5 -40.5l-6 6l165 150q13 -2 18 -11t1.5 -19t-12.5 -19zM398 0q6 94 6 186v127q0 156 -104 156q-59 0 -103 -40t-71 -95v-46v-110q0 -110 6 -178h-64q6 68 6 178v110q0 109 -6 177h64q-4 -39 -6 -109q26 53 75 91t114 38
q72 0 106.5 -44t34.5 -139v-116q0 -92 7 -186h-65z" />
    <glyph glyph-name="uni0145" unicode="&#x145;" horiz-adv-x="716" 
d="M640 613v-425q0 -99 6 -188h-60l-498 762v-574q0 -81 6 -188h-24q6 89 6 188v425q0 98 -6 187h60l498 -762v575q0 80 -6 187h24q-6 -89 -6 -187zM312 -134l46 46l45 -46l-82 -161l-6 6l43 110z" />
    <glyph glyph-name="uni0146" unicode="&#x146;" horiz-adv-x="530" 
d="M398 0q6 94 6 186v127q0 156 -104 156q-59 0 -103 -40t-71 -95v-46v-110q0 -110 6 -178h-64q6 68 6 178v110q0 109 -6 177h64q-4 -39 -6 -109q26 53 75 91t114 38q72 0 106.5 -44t34.5 -139v-116q0 -92 7 -186h-65zM220 -134l46 46l45 -46l-82 -161l-6 6l43 110z" />
    <glyph glyph-name="Ncaron" unicode="&#x147;" horiz-adv-x="716" 
d="M358 877q-41 46 -140 131q5 19 20 18t29 -15q10 -9 21 -22t17 -21t24.5 -36t28.5 -42q69 101 91 121q14 15 29 15.5t20 -18.5q-105 -91 -140 -131zM640 613v-425q0 -99 6 -188h-60l-498 762v-574q0 -81 6 -188h-24q6 89 6 188v425q0 98 -6 187h60l498 -762v575
q0 80 -6 187h24q-6 -89 -6 -187z" />
    <glyph glyph-name="ncaron" unicode="&#x148;" horiz-adv-x="530" 
d="M268 597q-41 46 -140 131q5 19 20 18t29 -15q10 -9 21 -22t17 -21t24.5 -36t28.5 -42q69 101 91 121q14 15 29 15.5t20 -18.5q-105 -91 -140 -131zM398 0q6 94 6 186v127q0 156 -104 156q-59 0 -103 -40t-71 -95v-46v-110q0 -110 6 -178h-64q6 68 6 178v110q0 109 -6 177
h64q-4 -39 -6 -109q26 53 75 91t114 38q72 0 106.5 -44t34.5 -139v-116q0 -92 7 -186h-65z" />
    <glyph glyph-name="Eng" unicode="&#x14a;" horiz-adv-x="716" 
d="M622 800h24q-6 -89 -6 -187v-661q0 -68 -37 -112t-106 -44q-116 0 -169 110l57 27q25 -125 112 -125q50 0 76 35.5t26 88.5q0 34 -20 68l-491 762v-574q0 -81 6 -188h-24q6 89 6 188v425q0 98 -6 187h60l498 -768v581q0 80 -6 187z" />
    <glyph glyph-name="eng" unicode="&#x14b;" horiz-adv-x="529" 
d="M318 485q72 0 106.5 -44t34.5 -139v-344q0 -162 -122 -162q-46 0 -86 26.5t-61 72.5q15 18 33 16.5t25 -22.5q9 -36 32.5 -58.5t54.5 -22.5q38 0 55 33.5t17 116.5v355q0 156 -104 156q-59 0 -103.5 -40.5t-71.5 -94.5v-46v-110q0 -110 6 -178h-64q6 68 6 178v110
q0 109 -6 177h64q-4 -39 -6 -109q27 53 76 91t114 38z" />
    <glyph glyph-name="Omacron" unicode="&#x14c;" horiz-adv-x="984" 
d="M332 967q161 -9 321 0v-33q-107 7 -160 7t-161 -7v33zM492 -20q-185 0 -308.5 120.5t-123.5 299.5q0 178 123.5 299t308.5 121t308.5 -121t123.5 -299q0 -179 -123.5 -299.5t-308.5 -120.5zM492 -8q107 0 192.5 58t130.5 151t45 199t-45 198.5t-130.5 151t-192.5 58.5
q-108 0 -193.5 -58.5t-130 -151t-44.5 -198.5t44.5 -198.5t130 -151t193.5 -58.5z" />
    <glyph glyph-name="omacron" unicode="&#x14d;" horiz-adv-x="611" 
d="M145 687q161 -9 321 0v-33q-107 7 -160 7t-161 -7v33zM306 -20q-114 0 -185.5 71t-71.5 182q0 110 71.5 181t185.5 71t185.5 -71t71.5 -181t-71.5 -181.5t-185.5 -71.5zM306 -8q96 0 147 66.5t51 174.5q0 107 -51 173.5t-147 66.5t-147 -66.5t-51 -173.5
q0 -108 51 -174.5t147 -66.5z" />
    <glyph glyph-name="Ohungarumlaut" unicode="&#x150;" horiz-adv-x="984" 
d="M412 873l-6 6l126 150q12 -2 17 -10.5t2.5 -19t-10.5 -20.5q-24 -31 -129 -106zM528 873l-6 6l126 150q12 -2 17 -10.5t2.5 -19t-10.5 -20.5q-24 -31 -129 -106zM492 -20q-185 0 -308.5 120.5t-123.5 299.5q0 178 123.5 299t308.5 121t308.5 -121t123.5 -299
q0 -179 -123.5 -299.5t-308.5 -120.5zM492 -8q107 0 192.5 58t130.5 151t45 199t-45 198.5t-130.5 151t-192.5 58.5q-108 0 -193.5 -58.5t-130 -151t-44.5 -198.5t44.5 -198.5t130 -151t193.5 -58.5z" />
    <glyph glyph-name="ohungarumlaut" unicode="&#x151;" horiz-adv-x="611" 
d="M225 593l-6 6l126 150q12 -2 17 -10.5t2.5 -19t-10.5 -20.5q-24 -31 -129 -106zM341 593l-6 6l126 150q12 -2 17 -10.5t2.5 -19t-10.5 -20.5q-24 -31 -129 -106zM306 -20q-114 0 -185.5 71t-71.5 182q0 110 71.5 181t185.5 71t185.5 -71t71.5 -181t-71.5 -181.5
t-185.5 -71.5zM306 -8q96 0 147 66.5t51 174.5q0 107 -51 173.5t-147 66.5t-147 -66.5t-51 -173.5q0 -108 51 -174.5t147 -66.5z" />
    <glyph glyph-name="OE" unicode="&#x152;" horiz-adv-x="1383" 
d="M1084 13q154 0 269 28l-24 -41h-436q8 89 8 188v72q-43 -126 -153.5 -203t-255.5 -77q-185 0 -308.5 120.5t-123.5 299.5q0 178 123.5 299t308.5 121q145 0 255.5 -77t153.5 -203v73q0 98 -8 187h429l-36 -41q-105 29 -233 29h-95v-356h71q107 0 200 10v-32
q-93 10 -200 10h-71v-407h126zM492 -8q107 0 192.5 58t130.5 151t45 199t-45 198.5t-130.5 151t-192.5 58.5q-108 0 -193.5 -58.5t-130 -151t-44.5 -198.5t44.5 -198.5t130 -151t193.5 -58.5z" />
    <glyph glyph-name="oe" unicode="&#x153;" horiz-adv-x="1015" 
d="M964 174h12q-49 -194 -216 -194q-77 0 -135 36.5t-86 102.5q-30 -64 -91.5 -101.5t-141.5 -37.5q-114 0 -185.5 71t-71.5 182q0 110 71.5 181t185.5 71q80 0 141.5 -37.5t91.5 -101.5q28 65 84 102t126 37q92 0 146 -55.5t54 -130.5h-369q-5 -33 -5 -64q0 -99 52 -169
t144 -70q143 0 193 178zM306 -8q96 0 147 66.5t51 174.5q0 107 -51 173.5t-147 66.5t-147 -66.5t-51 -173.5q0 -108 51 -174.5t147 -66.5zM748 473q-65 0 -108.5 -43t-57.5 -119h310q0 69 -37 115.5t-107 46.5z" />
    <glyph glyph-name="Racute" unicode="&#x154;" horiz-adv-x="704" 
d="M347 980q-16 -16 -35.5 -29.5t-61 -37t-69.5 -40.5l-6 6l165 150q13 -2 18 -11t1.5 -19t-12.5 -19zM472 193q39 -106 80 -143.5t114 -37.5v-12q-108 0 -160.5 41t-89.5 144q-40 109 -95.5 147t-143.5 38h-44v-182q0 -81 6 -188h-69q6 89 6 188v425q0 98 -6 187h148
q316 0 316 -215q0 -193 -253 -213q134 -27 191 -179zM133 383h85q255 0 255 202q0 203 -255 203h-85v-405z" />
    <glyph glyph-name="racute" unicode="&#x155;" horiz-adv-x="384" 
d="M317 700q-16 -16 -35.5 -29.5t-61 -37t-69.5 -40.5l-6 6l165 150q13 -2 18 -11t1.5 -19t-12.5 -19zM355 465q7 -25 -8.5 -39.5t-46.5 -3.5q-36 13 -70.5 -2.5t-103.5 -83.5v-48v-110q0 -110 6 -178h-64q6 68 6 178v110q0 109 -6 177h64q-4 -40 -6 -111q68 68 114 94.5
t115 16.5z" />
    <glyph glyph-name="uni0156" unicode="&#x156;" horiz-adv-x="704" 
d="M472 193q39 -106 80 -143.5t114 -37.5v-12q-108 0 -160.5 41t-89.5 144q-40 109 -95.5 147t-143.5 38h-44v-182q0 -81 6 -188h-69q6 89 6 188v425q0 98 -6 187h148q316 0 316 -215q0 -193 -253 -213q134 -27 191 -179zM133 383h85q255 0 255 202q0 203 -255 203h-85v-405
zM259 -134l46 46l45 -46l-82 -161l-6 6l43 110z" />
    <glyph glyph-name="uni0157" unicode="&#x157;" horiz-adv-x="384" 
d="M355 465q7 -25 -8.5 -39.5t-46.5 -3.5q-36 13 -70.5 -2.5t-103.5 -83.5v-48v-110q0 -110 6 -178h-64q6 68 6 178v110q0 109 -6 177h64q-4 -40 -6 -111q68 68 114 94.5t115 16.5zM55 -134l46 46l45 -46l-82 -161l-6 6l43 110z" />
    <glyph glyph-name="Rcaron" unicode="&#x158;" horiz-adv-x="704" 
d="M251 877q-41 46 -140 131q5 19 20 18t29 -15q10 -9 21 -22t17 -21t24.5 -36t28.5 -42q69 101 91 121q14 15 29 15.5t20 -18.5q-105 -91 -140 -131zM472 193q39 -106 80 -143.5t114 -37.5v-12q-108 0 -160.5 41t-89.5 144q-40 109 -95.5 147t-143.5 38h-44v-182
q0 -81 6 -188h-69q6 89 6 188v425q0 98 -6 187h148q316 0 316 -215q0 -193 -253 -213q134 -27 191 -179zM133 383h85q255 0 255 202q0 203 -255 203h-85v-405z" />
    <glyph glyph-name="rcaron" unicode="&#x159;" horiz-adv-x="384" 
d="M221 597q-41 46 -140 131q5 19 20 18t29 -15q10 -9 21 -22t17 -21t24.5 -36t28.5 -42q69 101 91 121q14 15 29 15.5t20 -18.5q-105 -91 -140 -131zM126 354q68 68 114 94.5t115 16.5q7 -25 -8.5 -39.5t-46.5 -3.5q-36 13 -70.5 -2.5t-103.5 -83.5v-48v-110q0 -110 6 -178
h-64q6 68 6 178v110q0 109 -6 177h64q-4 -40 -6 -111z" />
    <glyph glyph-name="Sacute" unicode="&#x15a;" horiz-adv-x="592" 
d="M216 873l-6 6l165 150q13 -2 18 -11t1.5 -19t-12.5 -19q-16 -16 -35.5 -29.5t-61 -37t-69.5 -40.5zM40 243l58 22q8 -121 76.5 -197t167.5 -76q77 0 125.5 42.5t48.5 125.5q0 15 -3 29.5t-11 30t-14.5 27t-23.5 28.5t-26 26.5t-33.5 30t-36.5 30t-43 34t-45 35.5
q-112 89 -138 117q-50 54 -50 121q0 71 49.5 111t132.5 40q160 0 248 -180l-58 -18q-10 78 -57 132t-135 54q-67 0 -105.5 -32.5t-38.5 -87.5q0 -18 3 -33.5t13.5 -32t18 -26.5t28 -28t31.5 -27t41.5 -32t44.5 -34q133 -106 165 -138q73 -72 78 -149q1 -7 1 -15
q0 -93 -60.5 -143t-151.5 -50q-226 0 -300 263z" />
    <glyph glyph-name="sacute" unicode="&#x15b;" horiz-adv-x="445" 
d="M149 593l-6 6l165 150q13 -2 18 -11t1.5 -19t-12.5 -19q-16 -16 -35.5 -29.5t-61 -37t-69.5 -40.5zM39 145q14 22 35.5 15.5t22.5 -39.5q-2 -51 38.5 -89.5t112.5 -38.5q58 0 87.5 29t29.5 75q0 43 -29.5 67.5t-118.5 71.5q-81 42 -115 72.5t-34 77.5q0 49 39 74t99 25
q61 0 102.5 -30t74.5 -90q-4 -12 -16 -16.5t-25 3.5t-18 28q-10 42 -36.5 67t-80.5 25q-46 0 -72.5 -18t-26.5 -54q0 -38 34 -65t114 -68q83 -43 116.5 -75t33.5 -86q0 -56 -42.5 -91t-116.5 -35q-84 0 -138 42.5t-70 122.5z" />
    <glyph glyph-name="Scedilla" unicode="&#x15e;" horiz-adv-x="592" 
d="M552 173q0 -87 -53 -136.5t-137 -55.5l-63 -73q86 8 133 -24.5t47 -85.5q0 -46 -35 -76t-90 -30q-105 0 -155 96l35 35q38 -119 119 -119q82 0 82 93q0 52 -36 80t-114 20v13l37 70q-211 10 -282 263l58 22q8 -121 76.5 -197t167.5 -76q77 0 125.5 42.5t48.5 125.5
q0 15 -3 29.5t-11 30t-14.5 27t-23.5 28.5t-26 26.5t-33.5 30t-36.5 30t-43 34t-45 35.5q-112 89 -138 117q-50 54 -50 121q0 71 49.5 111t132.5 40q160 0 248 -180l-58 -18q-10 78 -57 132t-135 54q-67 0 -105.5 -32.5t-38.5 -87.5q0 -18 3 -33.5t13.5 -32t18 -26.5t28 -28
t31.5 -27t41.5 -32t44.5 -34q133 -106 165 -138q73 -72 78 -149q1 -7 1 -15z" />
    <glyph glyph-name="scedilla" unicode="&#x15f;" horiz-adv-x="445" 
d="M199 -92q86 8 133 -24.5t47 -85.5q0 -46 -35 -76t-90 -30q-105 0 -155 96l35 35q38 -119 119 -119q82 0 82 93q0 52 -36 80t-114 20v13l37 71q-73 6 -121 48t-62 116q14 22 35.5 15.5t22.5 -39.5q-2 -51 38.5 -89.5t112.5 -38.5q58 0 87.5 29t29.5 75q0 43 -29.5 67.5
t-118.5 71.5q-81 42 -115 72.5t-34 77.5q0 49 39 74t99 25q61 0 102.5 -30t74.5 -90q-4 -12 -16 -16.5t-25 3.5t-18 28q-10 42 -36.5 67t-80.5 25q-46 0 -72.5 -18t-26.5 -54q0 -38 34 -65t114 -68q83 -43 116.5 -75t33.5 -86q0 -53 -38.5 -87.5t-105.5 -38.5z" />
    <glyph glyph-name="Scaron" unicode="&#x160;" horiz-adv-x="592" 
d="M286 877q-41 46 -140 131q5 19 20 18t29 -15q10 -9 21 -22t17 -21t24.5 -36t28.5 -42q69 101 91 121q14 15 29 15.5t20 -18.5q-105 -91 -140 -131zM308 475q133 -106 165 -138q73 -72 78 -149q1 -7 1 -15q0 -93 -60.5 -143t-151.5 -50q-226 0 -300 263l58 22
q8 -121 76.5 -197t167.5 -76q77 0 125.5 42.5t48.5 125.5q0 15 -3 29.5t-11 30t-14.5 27t-23.5 28.5t-26 26.5t-33.5 30t-36.5 30t-43 34t-45 35.5q-112 89 -138 117q-50 54 -50 121q0 71 49.5 111t132.5 40q160 0 248 -180l-58 -18q-10 78 -57 132t-135 54
q-67 0 -105.5 -32.5t-38.5 -87.5q0 -18 3 -33.5t13.5 -32t18 -26.5t28 -28t31.5 -27t41.5 -32t44.5 -34z" />
    <glyph glyph-name="scaron" unicode="&#x161;" horiz-adv-x="445" 
d="M219 597q-41 46 -140 131q5 19 20 18t29 -15q10 -9 21 -22t17 -21t24.5 -36t28.5 -42q69 101 91 121q14 15 29 15.5t20 -18.5q-105 -91 -140 -131zM256 267q83 -43 116.5 -75t33.5 -86q0 -56 -42.5 -91t-116.5 -35q-84 0 -138 42.5t-70 122.5q14 22 35.5 15.5t22.5 -39.5
q-2 -51 38.5 -89.5t112.5 -38.5q58 0 87.5 29t29.5 75q0 43 -29.5 67.5t-118.5 71.5q-81 42 -115 72.5t-34 77.5q0 49 39 74t99 25q61 0 102.5 -30t74.5 -90q-4 -12 -16 -16.5t-25 3.5t-18 28q-10 42 -36.5 67t-80.5 25q-46 0 -72.5 -18t-26.5 -54q0 -38 34 -65t114 -68z
" />
    <glyph glyph-name="uni0162" unicode="&#x162;" horiz-adv-x="605" 
d="M341 788h-10v-600q0 -99 6 -188h-12l-72 -83q86 8 133 -24.5t47 -85.5q0 -46 -35 -76t-90 -30q-105 0 -155 96l35 35q38 -119 119 -119q82 0 82 93q0 52 -36 80t-114 20v13l42 81h-13q6 107 6 188v600h-11q-102 0 -207 -29l-36 41h565l-37 -41q-104 29 -207 29z" />
    <glyph glyph-name="uni0163" unicode="&#x163;" horiz-adv-x="399" 
d="M187 -96q86 8 133 -24.5t47 -85.5q0 -46 -35 -76t-90 -30q-105 0 -155 96l35 35q38 -119 119 -119q82 0 82 93q0 52 -36 80t-114 20v13l37 70q-83 11 -83 157v320h-108v12h11q26 0 45.5 6t32.5 13.5t21.5 24.5t13 28.5t7 36.5t2.5 38v42v16h47q0 -80 -18 -132t-75 -73
h215v-12h-142v-325q0 -77 15 -107t46 -30q39 0 65 48t43 165h12q-16 -113 -42.5 -165t-66.5 -61z" />
    <glyph glyph-name="Tcaron" unicode="&#x164;" horiz-adv-x="605" 
d="M303 877q-41 46 -140 131q5 19 20 18t29 -15q10 -9 21 -22t17 -21t24.5 -36t28.5 -42q69 101 91 121q14 15 29 15.5t20 -18.5q-105 -91 -140 -131zM585 800l-37 -41q-104 29 -207 29h-10v-600q0 -99 6 -188h-69q6 107 6 188v600h-11q-102 0 -207 -29l-36 41h565z" />
    <glyph glyph-name="tcaron" unicode="&#x165;" horiz-adv-x="418" 
d="M308 555l-5 5l47 120l-47 48l47 47l48 -47zM240 -9q39 0 65 48t43 165h12q-18 -128 -49.5 -178.5t-83.5 -50.5q-49 0 -74.5 35.5t-25.5 122.5v320h-108v12h11q26 0 45.5 6t32.5 13.5t21.5 24.5t13 28.5t7 36.5t2.5 38v42v16h47q0 -80 -18 -132t-75 -73h215v-12h-142v-325
q0 -77 15 -107t46 -30z" />
    <glyph glyph-name="Tbar" unicode="&#x166;" horiz-adv-x="605" 
d="M341 788h-10v-292h191v-12h-191v-296q0 -99 6 -188h-69q6 107 6 188v296h-190v12h190v292h-11q-102 0 -207 -29l-36 41h565l-37 -41q-104 29 -207 29z" />
    <glyph glyph-name="tbar" unicode="&#x167;" horiz-adv-x="399" 
d="M348 204h12q-18 -128 -49.5 -178.5t-83.5 -50.5q-49 0 -74.5 35.5t-25.5 122.5v201h-108v13h108v106h-108v12h11q26 0 45.5 6t32.5 13.5t21.5 24.5t13 28.5t7 36.5t2.5 38v42v16h47q0 -80 -18 -132t-75 -73h215v-12h-142v-106h142v-13h-142v-206q0 -77 15 -107t46 -30
q39 0 65 48t43 165z" />
    <glyph glyph-name="Umacron" unicode="&#x16a;" horiz-adv-x="671" 
d="M188 967q161 -9 321 0v-33q-107 7 -160 7t-161 -7v33zM60 800h69q-6 -107 -6 -187v-273q0 -180 55 -260.5t174 -80.5q122 0 181 79t59 262v273q0 98 -6 187h25q-6 -89 -6 -187v-273q0 -192 -64.5 -276t-196.5 -84q-69 0 -118 17t-86 57t-55.5 111t-18.5 175v273
q0 98 -6 187z" />
    <glyph glyph-name="umacron" unicode="&#x16b;" horiz-adv-x="527" 
d="M428 654q-107 7 -160 7t-161 -7v33q161 -9 321 0v-33zM397 465h63v-465h-58q5 78 5 107q-26 -51 -75.5 -89t-112.5 -38q-72 0 -106.5 44t-34.5 139v116q0 92 -10 186h62v-313q0 -156 104 -156q58 0 102.5 37t71.5 89v56v101q0 92 -11 186z" />
    <glyph glyph-name="Uring" unicode="&#x16e;" horiz-adv-x="671" 
d="M349 863q-38 0 -63 26t-25 61t25 61.5t63 26.5t62.5 -26.5t24.5 -61.5t-24.5 -61t-62.5 -26zM349 875q33 0 54 22.5t21 52.5t-21 52.5t-54 22.5t-54 -22.5t-21 -52.5t21 -52.5t54 -22.5zM60 800h69q-6 -107 -6 -187v-273q0 -180 55 -260.5t174 -80.5q122 0 181 79t59 262
v273q0 98 -6 187h25q-6 -89 -6 -187v-273q0 -192 -64.5 -276t-196.5 -84q-69 0 -118 17t-86 57t-55.5 111t-18.5 175v273q0 98 -6 187z" />
    <glyph glyph-name="uring" unicode="&#x16f;" horiz-adv-x="527" 
d="M268 583q-38 0 -63 26t-25 61t25 61.5t63 26.5t62.5 -26.5t24.5 -61.5t-24.5 -61t-62.5 -26zM268 745q-33 0 -54 -22.5t-21 -52.5t21 -52.5t54 -22.5t54 22.5t21 52.5t-21 52.5t-54 22.5zM397 465h63v-465h-58q5 78 5 107q-26 -51 -75.5 -89t-112.5 -38q-72 0 -106.5 44
t-34.5 139v116q0 92 -10 186h62v-313q0 -156 104 -156q58 0 102.5 37t71.5 89v56v101q0 92 -11 186z" />
    <glyph glyph-name="Uhungarumlaut" unicode="&#x170;" horiz-adv-x="671" 
d="M268 873l-6 6l126 150q12 -2 17 -10.5t2.5 -19t-10.5 -20.5q-24 -31 -129 -106zM384 873l-6 6l126 150q12 -2 17 -10.5t2.5 -19t-10.5 -20.5q-24 -31 -129 -106zM60 800h69q-6 -107 -6 -187v-273q0 -180 55 -260.5t174 -80.5q122 0 181 79t59 262v273q0 98 -6 187h25
q-6 -89 -6 -187v-273q0 -192 -64.5 -276t-196.5 -84q-69 0 -118 17t-86 57t-55.5 111t-18.5 175v273q0 98 -6 187z" />
    <glyph glyph-name="uhungarumlaut" unicode="&#x171;" horiz-adv-x="527" 
d="M316 699q-24 -31 -129 -106l-6 6l126 150q12 -2 17 -10.5t2.5 -19t-10.5 -20.5zM303 593l-6 6l126 150q12 -2 17 -10.5t2.5 -19t-10.5 -20.5q-24 -31 -129 -106zM397 465h63v-465h-58q5 78 5 107q-26 -51 -75.5 -89t-112.5 -38q-72 0 -106.5 44t-34.5 139v116
q0 92 -10 186h62v-313q0 -156 104 -156q58 0 102.5 37t71.5 89v56v101q0 92 -11 186z" />
    <glyph glyph-name="Uogonek" unicode="&#x172;" horiz-adv-x="671" 
d="M586 800h25q-6 -89 -6 -187v-273q0 -261 -128 -331q-21 -24 -53 -55t-47.5 -47.5t-28 -42t-12.5 -54.5q0 -44 23.5 -66t57.5 -22q28 0 49 10.5t37 34t25 43.5t23 57l35 -35q-18 -29 -30.5 -46t-33.5 -37t-47.5 -29.5t-59.5 -9.5q-57 0 -90 26t-33 75q0 39 22 67.5
t71 64.5t69 55q-46 -18 -110 -18q-69 0 -118 17t-86 57t-55.5 111t-18.5 175v273q0 98 -6 187h69q-6 -107 -6 -187v-273q0 -180 55 -260.5t174 -80.5q122 0 181 79t59 262v273q0 98 -6 187z" />
    <glyph glyph-name="uogonek" unicode="&#x173;" horiz-adv-x="527" 
d="M508 -133l35 -35q-18 -29 -30.5 -46t-33.5 -37t-47.5 -29.5t-59.5 -9.5q-57 0 -90 26t-33 75q0 39 22 67.5t71.5 65t70.5 56.5h-11q5 78 5 107q-26 -51 -75.5 -89t-112.5 -38q-72 0 -106.5 44t-34.5 139v116q0 92 -10 186h62v-313q0 -156 104 -156q58 0 102.5 37t71.5 89
v56v101q0 92 -11 186h63v-465h-34q-19 -20 -50.5 -51t-45 -46t-25.5 -40t-12 -53q0 -44 23.5 -66t57.5 -22q28 0 49 10.5t37 34t25 43.5t23 57z" />
    <glyph glyph-name="Wcircumflex" unicode="&#x174;" horiz-adv-x="956" 
d="M399 891q-14 -14 -29 -14.5t-20 17.5q99 85 140 131q35 -40 140 -131q-5 -18 -20 -18t-29 15q-23 21 -91 122q-10 -14 -24 -35.5t-20 -30.5t-15 -21t-16.5 -20t-15.5 -15zM865 704l-190 -660q-6 -23 3 -44h-71l-132 463l-120 -419q-5 -21 3 -44h-70l-200 700
q-14 53 -38 100h78q3 -35 20 -100l191 -667l130 452l-61 215q-15 54 -39 100h78q3 -38 21 -100l31 -110l33 113q3 9 7.5 24.5t7 23.5t5 21t3.5 28h24q-14 -29 -34 -96l-39 -136l152 -535l193 670q3 9 7.5 24.5t7 23.5t5 21t3.5 28h24q-7 -14 -12 -27.5t-7.5 -21.5t-6.5 -23
t-7 -24z" />
    <glyph glyph-name="wcircumflex" unicode="&#x175;" horiz-adv-x="716" 
d="M270 616q-14 -14 -29 -14.5t-20 17.5q99 85 140 131q35 -40 140 -131q-5 -18 -20 -18t-29 15q-23 21 -91 122q-10 -14 -24 -35.5t-20 -30.5t-15 -21t-16.5 -20t-15.5 -15zM667 465q26 -74 -5 -147l-109 -254q-18 -41 -14 -64h-60l-94 220l-66 -156q-19 -43 -15 -64h-60
l-168 394q-13 30 -37 71h69q6 -28 24 -68l158 -367l88 206l-68 158q-9 24 -37 71h70q5 -25 23 -68l159 -367l121 283q10 25 11.5 46.5t-1 30.5t-12 24.5t-9.5 16.5q-9 17 2 26.5t30 7.5z" />
    <glyph glyph-name="Ycircumflex" unicode="&#x176;" horiz-adv-x="657" 
d="M253 896q-14 -14 -29 -14.5t-20 17.5q99 85 140 131q35 -40 140 -131q-5 -18 -20 -18t-29 15q-23 21 -91 122q-10 -14 -24 -35.5t-20 -30.5t-15 -21t-16.5 -20t-15.5 -15zM552 707l-191 -356v-163q0 -81 6 -188h-69q6 89 6 188v163l-192 355q-22 41 -62 94h83
q9 -29 44 -94l181 -333l180 333q32 59 47 94h22q-20 -30 -55 -93z" />
    <glyph glyph-name="ycircumflex" unicode="&#x177;" horiz-adv-x="493" 
d="M164 616q-14 -14 -29 -14.5t-20 17.5q99 85 140 131q35 -40 140 -131q-5 -18 -20 -18t-29 15q-23 21 -91 122q-10 -14 -24 -35.5t-20 -30.5t-15 -21t-16.5 -20t-15.5 -15zM432 465h23q-13 -23 -25 -59l-145 -406q-30 -83 -64 -124t-88 -41q-49 0 -91 29q-5 22 13 29.5
t31 -12.5q23 -34 53 -34q77 0 132 152v1h-45l-156 406q-14 35 -30 59h71q3 -26 16 -59l150 -389l139 389q9 27 16 59z" />
    <glyph glyph-name="Ydieresis" unicode="&#x178;" horiz-adv-x="657" 
d="M315 924l-47 -48l-48 48l48 47zM468 924l-48 -48l-47 48l47 47zM552 707l-191 -356v-163q0 -81 6 -188h-69q6 89 6 188v163l-192 355q-22 41 -62 94h83q9 -29 44 -94l181 -333l180 333q32 59 47 94h22q-20 -30 -55 -93z" />
    <glyph glyph-name="Zacute" unicode="&#x179;" horiz-adv-x="674" 
d="M271 873l-6 6l165 150q13 -2 18 -11t1.5 -19t-12.5 -19q-16 -16 -35.5 -29.5t-61 -37t-69.5 -40.5zM70 800h533v-24l-493 -763h265q139 0 249 28l-24 -41h-550v24l493 764h-204q-132 0 -233 -29z" />
    <glyph glyph-name="zacute" unicode="&#x17a;" horiz-adv-x="513" 
d="M197 593l-6 6l165 150q13 -2 18 -11t1.5 -19t-12.5 -19q-16 -16 -35.5 -29.5t-61 -37t-69.5 -40.5zM430 34q34 0 34 -34h-415v18l327 435h-102q-66 0 -115 -11t-59 -11q-34 0 -34 34h369v-17l-327 -435h157q66 0 110.5 10.5t54.5 10.5z" />
    <glyph glyph-name="Zdotaccent" unicode="&#x17b;" horiz-adv-x="674" 
d="M341 876l-48 48l48 47l47 -47zM70 800h533v-24l-493 -763h265q139 0 249 28l-24 -41h-550v24l493 764h-204q-132 0 -233 -29z" />
    <glyph glyph-name="zdotaccent" unicode="&#x17c;" horiz-adv-x="513" 
d="M267 596l-48 48l48 47l47 -47zM430 34q34 0 34 -34h-415v18l327 435h-102q-66 0 -115 -11t-59 -11q-34 0 -34 34h369v-17l-327 -435h157q66 0 110.5 10.5t54.5 10.5z" />
    <glyph glyph-name="Zcaron" unicode="&#x17d;" horiz-adv-x="674" 
d="M341 877q-41 46 -140 131q5 19 20 18t29 -15q10 -9 21 -22t17 -21t24.5 -36t28.5 -42q69 101 91 121q14 15 29 15.5t20 -18.5q-105 -91 -140 -131zM375 13q139 0 249 28l-24 -41h-550v24l493 764h-204q-132 0 -233 -29l-36 41h533v-24l-493 -763h265z" />
    <glyph glyph-name="zcaron" unicode="&#x17e;" horiz-adv-x="513" 
d="M267 597q-41 46 -140 131q5 19 20 18t29 -15q10 -9 21 -22t17 -21t24.5 -36t28.5 -42q69 101 91 121q14 15 29 15.5t20 -18.5q-105 -91 -140 -131zM430 34q34 0 34 -34h-415v18l327 435h-102q-66 0 -115 -11t-59 -11q-34 0 -34 34h369v-17l-327 -435h157q66 0 110.5 10.5
t54.5 10.5z" />
    <glyph glyph-name="uni0218" unicode="&#x218;" horiz-adv-x="592" 
d="M40 243l58 22q8 -121 76.5 -197t167.5 -76q77 0 125.5 42.5t48.5 125.5q0 15 -3 29.5t-11 30t-14.5 27t-23.5 28.5t-26 26.5t-33.5 30t-36.5 30t-43 34t-45 35.5q-112 89 -138 117q-50 54 -50 121q0 71 49.5 111t132.5 40q160 0 248 -180l-58 -18q-10 78 -57 132t-135 54
q-67 0 -105.5 -32.5t-38.5 -87.5q0 -18 3 -33.5t13.5 -32t18 -26.5t28 -28t31.5 -27t41.5 -32t44.5 -34q133 -106 165 -138q73 -72 78 -149q1 -7 1 -15q0 -93 -60.5 -143t-151.5 -50q-226 0 -300 263zM335 -197l-46 46l46 45l46 -45l-83 -162l-5 6z" />
    <glyph glyph-name="uni0219" unicode="&#x219;" horiz-adv-x="445" 
d="M39 145q14 22 35.5 15.5t22.5 -39.5q-2 -51 38.5 -89.5t112.5 -38.5q58 0 87.5 29t29.5 75q0 43 -29.5 67.5t-118.5 71.5q-81 42 -115 72.5t-34 77.5q0 49 39 74t99 25q61 0 102.5 -30t74.5 -90q-4 -12 -16 -16.5t-25 3.5t-18 28q-10 42 -36.5 67t-80.5 25
q-46 0 -72.5 -18t-26.5 -54q0 -38 34 -65t114 -68q83 -43 116.5 -75t33.5 -86q0 -56 -42.5 -91t-116.5 -35q-84 0 -138 42.5t-70 122.5zM239 -197l-46 45l46 46l45 -46l-82 -161l-6 6z" />
    <glyph glyph-name="uni021A" unicode="&#x21a;" horiz-adv-x="605" 
d="M585 800l-37 -41q-104 29 -207 29h-10v-600q0 -99 6 -188h-69q6 107 6 188v600h-11q-102 0 -207 -29l-36 41h565zM259 -142l46 45l45 -45l-82 -162l-6 6l43 110z" />
    <glyph glyph-name="uni021B" unicode="&#x21b;" horiz-adv-x="399" 
d="M348 204h12q-18 -128 -49.5 -178.5t-83.5 -50.5q-49 0 -74.5 35.5t-25.5 122.5v320h-108v12h11q26 0 45.5 6t32.5 13.5t21.5 24.5t13 28.5t7 36.5t2.5 38v42v16h47q0 -80 -18 -132t-75 -73h215v-12h-142v-325q0 -77 15 -107t46 -30q39 0 65 48t43 165zM181 -156l46 46
l45 -46l-82 -161l-6 6l43 110z" />
    <glyph glyph-name="circumflex" unicode="&#x2c6;" horiz-adv-x="380" 
d="M190 750q35 -40 140 -131q-5 -18 -20 -18t-29 15q-23 21 -91 122q-10 -14 -24 -35.5t-20 -30.5t-15 -21t-16.5 -20t-15.5 -15q-14 -14 -29 -14.5t-20 17.5q99 85 140 131z" />
    <glyph glyph-name="caron" unicode="&#x2c7;" horiz-adv-x="370" 
d="M281 731q14 15 29 15.5t20 -18.5q-105 -91 -140 -131q-41 46 -140 131q5 19 20 18t29 -15q10 -9 21 -22t17 -21t24.5 -36t28.5 -42q69 101 91 121z" />
    <glyph glyph-name="breve" unicode="&#x2d8;" horiz-adv-x="376" 
d="M283 728h43q-3 -64 -39 -103.5t-99 -39.5q-62 0 -98.5 39.5t-39.5 103.5h44q-5 -130 94 -130q100 0 95 130z" />
    <glyph glyph-name="dotaccent" unicode="&#x2d9;" horiz-adv-x="195" 
d="M98 596l-48 48l48 47l47 -47z" />
    <glyph glyph-name="ring" unicode="&#x2da;" horiz-adv-x="275" 
d="M138 583q-38 0 -63 26t-25 61t25 61.5t63 26.5t62.5 -26.5t24.5 -61.5t-24.5 -61t-62.5 -26zM138 595q33 0 54 22.5t21 52.5t-21 52.5t-54 22.5t-54 -22.5t-21 -52.5t21 -52.5t54 -22.5z" />
    <glyph glyph-name="ogonek" unicode="&#x2db;" horiz-adv-x="394" 
d="M309 -133l35 -35q-18 -29 -30.5 -46t-33.5 -37t-47.5 -29.5t-59.5 -9.5q-57 0 -90 26t-33 75q0 32 18 59.5t41 45t58 44.5t57 50h12q-21 -24 -53 -55.5t-48 -48t-28.5 -42t-12.5 -54.5q0 -44 23.5 -66t57.5 -22q28 0 49 10.5t37 34t25 43.5t23 57z" />
    <glyph glyph-name="tilde" unicode="&#x2dc;" horiz-adv-x="423" 
d="M130 723q27 0 56 -23.5t55 -46.5t48 -23q45 0 40 88h44q-6 -100 -80 -100q-27 0 -56 23t-55 46t-48 23q-45 0 -40 -87h-44q6 100 80 100z" />
    <glyph glyph-name="hungarumlaut" unicode="&#x2dd;" horiz-adv-x="363" 
d="M56 593l-6 6l126 150q12 -2 17 -10.5t2.5 -19t-10.5 -20.5q-24 -31 -129 -106zM172 593l-6 6l126 150q12 -2 17 -10.5t2.5 -19t-10.5 -20.5q-24 -31 -129 -106z" />
    <glyph glyph-name="gravecomb" unicode="&#x300;" 
d="M-58 593q-26 16 -56.5 33.5t-46.5 27t-33.5 21.5t-29.5 25q-9 9 -12.5 19t1.5 19t18 11l165 -150z" />
    <glyph glyph-name="acutecomb" unicode="&#x301;" 
d="M-230 593l-6 6l165 150q13 -2 18 -11t1.5 -19t-12.5 -19q-16 -16 -35.5 -29.5t-61 -37t-69.5 -40.5z" />
    <glyph glyph-name="uni0302" unicode="&#x302;" 
d="M-190 750q35 -40 140 -131q-5 -18 -20 -18t-29 15q-23 21 -91 122q-10 -14 -24 -35.5t-20 -30.5t-15 -21t-16.5 -20t-15.5 -15q-14 -14 -29 -14.5t-20 17.5q99 85 140 131z" />
    <glyph glyph-name="tildecomb" unicode="&#x303;" 
d="M-293 723q27 0 56 -23.5t55 -46.5t48 -23q45 0 40 88h44q-6 -100 -80 -100q-27 0 -56 23t-55 46t-48 23q-45 0 -40 -87h-44q6 100 80 100z" />
    <glyph glyph-name="uni0304" unicode="&#x304;" 
d="M-371 687q161 -9 321 0v-33q-107 7 -160 7t-161 -7v33z" />
    <glyph glyph-name="uni0306" unicode="&#x306;" 
d="M-93 728h43q-3 -64 -39 -103.5t-99 -39.5q-62 0 -98.5 39.5t-39.5 103.5h44q-5 -130 94 -130q100 0 95 130z" />
    <glyph glyph-name="uni0307" unicode="&#x307;" 
d="M-97 596l-48 48l48 47l47 -47z" />
    <glyph glyph-name="uni0308" unicode="&#x308;" 
d="M-250 596l-48 48l48 47l47 -47zM-98 596l-47 48l47 47l48 -47z" />
    <glyph glyph-name="uni030A" unicode="&#x30a;" 
d="M-137 583q-38 0 -63 26t-25 61t25 61.5t63 26.5t62.5 -26.5t24.5 -61.5t-24.5 -61t-62.5 -26zM-137 595q33 0 54 22.5t21 52.5t-21 52.5t-54 22.5t-54 -22.5t-21 -52.5t21 -52.5t54 -22.5z" />
    <glyph glyph-name="uni030B" unicode="&#x30b;" 
d="M-307 593l-6 6l126 150q12 -2 17 -10.5t2.5 -19t-10.5 -20.5q-24 -31 -129 -106zM-191 593l-6 6l126 150q12 -2 17 -10.5t2.5 -19t-10.5 -20.5q-24 -31 -129 -106z" />
    <glyph glyph-name="uni030C" unicode="&#x30c;" 
d="M-99 731q14 15 29 15.5t20 -18.5q-105 -91 -140 -131q-41 46 -140 131q5 19 20 18t29 -15q10 -9 21 -22t17 -21t24.5 -36t28.5 -42q69 101 91 121z" />
    <glyph glyph-name="uni0312" unicode="&#x312;" 
d="M-95 668l45 -45l-45 -46l-46 46l82 161l6 -6z" />
    <glyph glyph-name="uni0326" unicode="&#x326;" 
d="M-95 -179l-46 45l46 46l45 -46l-82 -161l-6 6z" />
    <glyph glyph-name="uni0327" unicode="&#x327;" 
d="M-201 10h44l-73 -84q86 8 133 -24.5t47 -85.5q0 -46 -35 -76t-90 -30q-105 0 -155 96l35 35q38 -119 119 -119q82 0 82 93q0 52 -36 80t-114 20v13z" />
    <glyph glyph-name="uni0328" unicode="&#x328;" 
d="M-85 -133l35 -35q-18 -29 -30.5 -46t-33.5 -37t-47.5 -29.5t-59.5 -9.5q-57 0 -90 26t-33 75q0 32 18 59.5t41 45t58 44.5t57 50h12q-21 -24 -53 -55.5t-48 -48t-28.5 -42t-12.5 -54.5q0 -44 23.5 -66t57.5 -22q28 0 49 10.5t37 34t25 43.5t23 57z" />
    <glyph glyph-name="Wgrave" unicode="&#x1e80;" horiz-adv-x="956" 
d="M558 868q-26 16 -56.5 33.5t-46.5 27t-33.5 21.5t-29.5 25q-9 9 -12.5 19t1.5 19t18 11l165 -150zM865 704l-190 -660q-6 -23 3 -44h-71l-132 463l-120 -419q-5 -21 3 -44h-70l-200 700q-14 53 -38 100h78q3 -35 20 -100l191 -667l130 452l-61 215q-15 54 -39 100h78
q3 -38 21 -100l31 -110l33 113q3 9 7.5 24.5t7 23.5t5 21t3.5 28h24q-14 -29 -34 -96l-39 -136l152 -535l193 670q3 9 7.5 24.5t7 23.5t5 21t3.5 28h24q-7 -14 -12 -27.5t-7.5 -21.5t-6.5 -23t-7 -24z" />
    <glyph glyph-name="wgrave" unicode="&#x1e81;" horiz-adv-x="716" 
d="M429 593q-26 16 -56.5 33.5t-46.5 27t-33.5 21.5t-29.5 25q-9 9 -12.5 19t1.5 19t18 11l165 -150zM667 465q26 -74 -5 -147l-109 -254q-18 -41 -14 -64h-60l-94 220l-66 -156q-19 -43 -15 -64h-60l-168 394q-13 30 -37 71h69q6 -28 24 -68l158 -367l88 206l-68 158
q-9 24 -37 71h70q5 -25 23 -68l159 -367l121 283q10 25 11.5 46.5t-1 30.5t-12 24.5t-9.5 16.5q-9 17 2 26.5t30 7.5z" />
    <glyph glyph-name="Wacute" unicode="&#x1e82;" horiz-adv-x="956" 
d="M586 975q-16 -16 -35.5 -29.5t-61 -37t-69.5 -40.5l-6 6l165 150q13 -2 18 -11t1.5 -19t-12.5 -19zM865 704l-190 -660q-6 -23 3 -44h-71l-132 463l-120 -419q-5 -21 3 -44h-70l-200 700q-14 53 -38 100h78q3 -35 20 -100l191 -667l130 452l-61 215q-15 54 -39 100h78
q3 -38 21 -100l31 -110l33 113q3 9 7.5 24.5t7 23.5t5 21t3.5 28h24q-14 -29 -34 -96l-39 -136l152 -535l193 670q3 9 7.5 24.5t7 23.5t5 21t3.5 28h24q-7 -14 -12 -27.5t-7.5 -21.5t-6.5 -23t-7 -24z" />
    <glyph glyph-name="wacute" unicode="&#x1e83;" horiz-adv-x="716" 
d="M457 700q-16 -16 -35.5 -29.5t-61 -37t-69.5 -40.5l-6 6l165 150q13 -2 18 -11t1.5 -19t-12.5 -19zM667 465q26 -74 -5 -147l-109 -254q-18 -41 -14 -64h-60l-94 220l-66 -156q-19 -43 -15 -64h-60l-168 394q-13 30 -37 71h69q6 -28 24 -68l158 -367l88 206l-68 158
q-9 24 -37 71h70q5 -25 23 -68l159 -367l121 283q10 25 11.5 46.5t-1 30.5t-12 24.5t-9.5 16.5q-9 17 2 26.5t30 7.5z" />
    <glyph glyph-name="Wdieresis" unicode="&#x1e84;" horiz-adv-x="956" 
d="M461 919l-47 -48l-48 48l48 47zM614 919l-48 -48l-47 48l47 47zM865 704l-190 -660q-6 -23 3 -44h-71l-132 463l-120 -419q-5 -21 3 -44h-70l-200 700q-14 53 -38 100h78q3 -35 20 -100l191 -667l130 452l-61 215q-15 54 -39 100h78q3 -38 21 -100l31 -110l33 113
q3 9 7.5 24.5t7 23.5t5 21t3.5 28h24q-14 -29 -34 -96l-39 -136l152 -535l193 670q3 9 7.5 24.5t7 23.5t5 21t3.5 28h24q-7 -14 -12 -27.5t-7.5 -21.5t-6.5 -23t-7 -24z" />
    <glyph glyph-name="wdieresis" unicode="&#x1e85;" horiz-adv-x="716" 
d="M332 644l-47 -48l-48 48l48 47zM485 644l-48 -48l-47 48l47 47zM667 465q26 -74 -5 -147l-109 -254q-18 -41 -14 -64h-60l-94 220l-66 -156q-19 -43 -15 -64h-60l-168 394q-13 30 -37 71h69q6 -28 24 -68l158 -367l88 206l-68 158q-9 24 -37 71h70q5 -25 23 -68l159 -367
l121 283q10 25 11.5 46.5t-1 30.5t-12 24.5t-9.5 16.5q-9 17 2 26.5t30 7.5z" />
    <glyph glyph-name="Ygrave" unicode="&#x1ef2;" horiz-adv-x="657" 
d="M412 873q-26 16 -56.5 33.5t-46.5 27t-33.5 21.5t-29.5 25q-9 9 -12.5 19t1.5 19t18 11l165 -150zM552 707l-191 -356v-163q0 -81 6 -188h-69q6 89 6 188v163l-192 355q-22 41 -62 94h83q9 -29 44 -94l181 -333l180 333q32 59 47 94h22q-20 -30 -55 -93z" />
    <glyph glyph-name="ygrave" unicode="&#x1ef3;" horiz-adv-x="493" 
d="M323 593q-26 16 -56.5 33.5t-46.5 27t-33.5 21.5t-29.5 25q-9 9 -12.5 19t1.5 19t18 11l165 -150zM432 465h23q-13 -23 -25 -59l-145 -406q-30 -83 -64 -124t-88 -41q-49 0 -91 29q-5 22 13 29.5t31 -12.5q23 -34 53 -34q77 0 132 152v1h-45l-156 406q-14 35 -30 59h71
q3 -26 16 -59l150 -389l139 389q9 27 16 59z" />
    <glyph glyph-name="endash" unicode="&#x2013;" horiz-adv-x="952" 
d="M70 276q406 -11 812 0v-33q-406 13 -812 0v33z" />
    <glyph glyph-name="emdash" unicode="&#x2014;" horiz-adv-x="1262" 
d="M70 276q560 -12 1122 0v-33q-562 14 -1122 0v33z" />
    <glyph glyph-name="quoteleft" unicode="&#x2018;" horiz-adv-x="235" 
d="M118 689l47 -47l-47 -48l-48 48l89 173l6 -6z" />
    <glyph glyph-name="quoteright" unicode="&#x2019;" horiz-adv-x="235" 
d="M118 716l-48 48l48 47l47 -47l-89 -173l-6 6z" />
    <glyph glyph-name="quotesinglbase" unicode="&#x201a;" horiz-adv-x="235" 
d="M118 -20l-48 48l48 47l47 -47l-89 -173l-6 5z" />
    <glyph glyph-name="quotedblleft" unicode="&#x201c;" horiz-adv-x="362" 
d="M118 689l47 -47l-47 -48l-48 48l89 173l6 -6zM245 689l47 -47l-47 -48l-48 48l90 173l5 -6z" />
    <glyph glyph-name="quotedblright" unicode="&#x201d;" horiz-adv-x="362" 
d="M118 716l-48 48l48 47l47 -47l-89 -173l-6 6zM245 716l-48 48l48 47l47 -47l-89 -173l-6 6z" />
    <glyph glyph-name="quotedblbase" unicode="&#x201e;" horiz-adv-x="362" 
d="M118 -20l-48 48l48 47l47 -47l-89 -173l-6 5zM245 -20l-48 48l48 47l47 -47l-89 -173l-6 5z" />
    <glyph glyph-name="dagger" unicode="&#x2020;" horiz-adv-x="573" 
d="M453 601q40 0 40 -23q0 -24 -40 -24q-14 0 -58.5 8.5t-102.5 9.5q0 -106 20 -186q-11 -90 -14.5 -187t-5.5 -369h-12q-1 266 -4 365.5t-14 190.5q19 77 18 186q-58 -1 -102 -9.5t-58 -8.5q-40 0 -40 24q0 23 40 23q13 0 57.5 -8.5t102.5 -8.5q-1 58 -9 121.5t-8 78.5
q0 40 23 40t23 -40q0 -14 -8 -78t-9 -122q57 1 102 9t59 8z" />
    <glyph glyph-name="daggerdbl" unicode="&#x2021;" horiz-adv-x="513" 
d="M426 -14q40 0 40 -24q0 -23 -40 -23q-14 0 -58 8t-102 9q1 -58 9 -122t8 -78q0 -40 -23 -40t-23 40q0 15 8 78.5t9 121.5q-58 0 -103 -8.5t-57 -8.5q-40 0 -40 23q0 24 40 24q13 0 57.5 -8.5t102.5 -9.5q1 93 -19 155q19 58 19 147t-19 147q20 62 19 155
q-58 -1 -102.5 -9.5t-57.5 -8.5q-40 0 -40 24q0 23 40 23q12 0 57 -8.5t103 -8.5q-1 58 -9 121.5t-8 78.5q0 40 23 40t23 -40q0 -14 -8 -78t-9 -122q58 1 102 9t58 8q40 0 40 -23q0 -24 -40 -24q-13 0 -57.5 8.5t-102.5 9.5q0 -94 20 -155q-20 -65 -20 -147t20 -147
q-20 -61 -20 -155q58 1 102.5 9.5t57.5 8.5z" />
    <glyph glyph-name="bullet" unicode="&#x2022;" horiz-adv-x="373" 
d="M187 142l-117 116l117 117l116 -117z" />
    <glyph glyph-name="ellipsis" unicode="&#x2026;" horiz-adv-x="600" 
d="M118 -20l-48 48l48 47l47 -47zM300 -20l-47 48l47 47l48 -47zM483 -20l-48 48l48 47l47 -47z" />
    <glyph glyph-name="perthousand" unicode="&#x2030;" horiz-adv-x="1649" 
d="M249 817q130 17 257 9t247 -33q-209 -464 -331 -793l-39 7q196 433 328 784q-59 1 -179 15t-199 10q76 -15 123.5 -75t47.5 -132q0 -84 -61.5 -147.5t-155.5 -63.5t-155.5 63.5t-61.5 147.5q0 72 46.5 131t121.5 75q2 1 5 1t5 1h1zM448 609q0 79 -40.5 139t-120.5 60
t-120.5 -60t-40.5 -139t40.5 -139t120.5 -60t120.5 60t40.5 139zM850 403q94 0 155.5 -64t61.5 -148t-61.5 -147.5t-155.5 -63.5q-95 0 -156 63.5t-61 147.5t61 148t156 64zM1362 403q95 0 156 -64t61 -148t-61 -147.5t-156 -63.5q-94 0 -155.5 63.5t-61.5 147.5t61.5 148
t155.5 64zM850 -8q54 0 92 31t53 74.5t15 93.5q0 80 -40 139.5t-120 59.5t-120.5 -59.5t-40.5 -139.5q0 -79 40.5 -139t120.5 -60zM1362 -8q80 0 120.5 60t40.5 139q0 80 -40.5 139.5t-120.5 59.5t-120 -59.5t-40 -139.5q0 -50 15 -93.5t53 -74.5t92 -31z" />
    <glyph glyph-name="guilsinglleft" unicode="&#x2039;" horiz-adv-x="363" 
d="M277 94q15 -14 15.5 -29t-17.5 -20q-108 110 -205 188q96 76 205 187q18 -4 17.5 -19t-15.5 -29t-35.5 -28.5t-64 -43.5t-94.5 -67q51 -38 94.5 -67t64 -43.5t35.5 -28.5z" />
    <glyph glyph-name="guilsinglright" unicode="&#x203a;" horiz-adv-x="363" 
d="M88 420q109 -111 205 -187q-97 -78 -205 -188q-18 5 -17.5 20t14.5 29q15 14 36 28.5t64.5 43.5t94.5 67q-51 38 -94.5 67t-64.5 43.5t-36 28.5q-14 14 -14.5 29t17.5 19z" />
    <glyph glyph-name="fraction" unicode="&#x2044;" horiz-adv-x="443" 
d="M401 803l32 -14q-89 -197 -203.5 -477t-187.5 -481l-32 14q89 197 203.5 477t187.5 481z" />
    <glyph glyph-name="Euro" unicode="&#x20ac;" horiz-adv-x="941" 
d="M574 49q79 0 131 39t109 119l57 -27q-77 -75 -144.5 -109.5t-153.5 -34.5q-131 0 -217 81t-108 204q-90 0 -178 -5l21 27q92 -4 154 -4q-4 27 -4 61q0 14 2 40q-85 -2 -123 -4l21 27q14 0 49 -1.5t55 -2.5q17 131 104 218t224 87q86 0 153.5 -34.5t144.5 -109.5l-57 -27
q-57 80 -109 119t-131 39q-81 0 -140.5 -43t-89.5 -106.5t-39 -143.5q221 -2 364 5l-21 -27q-153 8 -344 6q-2 -28 -2 -42q0 -34 4 -62q165 -2 313 5l-21 -27q-128 6 -290 6q17 -118 84.5 -195.5t181.5 -77.5z" />
    <glyph glyph-name="trademark" unicode="&#x2122;" horiz-adv-x="698" 
d="M340 800l-22 -23q-50 11 -97 11h-10v-78q0 -87 5 -180h-43q5 93 5 180v78h-10q-46 0 -97 -11l-21 23h290zM648 800q-2 -28 -3.5 -72.5t-1.5 -47.5q0 -8 1 -36t2 -57.5t2 -56.5h-43q5 93 5 170v52l-104 -234h-13l-109 231v-49q0 -77 5 -170h-22q1 27 2 56.5t2 57.5t1 36
q0 3 -1.5 47.5t-3.5 72.5h29l115 -243l107 243h30z" />
    <glyph glyph-name="arrowleft" unicode="&#x2190;" horiz-adv-x="614" 
d="M564 232l-21 -20q-106 9 -462 15q27 -14 60 -36t80.5 -56t69.5 -49l1 -27l-26 -2q-47 53 -107.5 102t-108.5 74q49 25 109 73.5t107 101.5l26 -2l-1 -26q-23 -16 -70 -50t-80 -55.5t-60 -35.5q364 6 462 13z" />
    <glyph glyph-name="arrowup" unicode="&#x2191;" horiz-adv-x="449" 
d="M225 486q26 -48 74.5 -108t100.5 -107l-2 -27l-27 2q-14 20 -49 69.5t-56.5 82t-35.5 60.5q5 -346 16 -464l-20 -22l-21 22q8 102 14 462q-14 -27 -36.5 -60.5t-55.5 -80t-49 -69.5l-27 -2l-2 27q52 46 100.5 106.5t75.5 108.5z" />
    <glyph glyph-name="arrowright" unicode="&#x2192;" horiz-adv-x="614" 
d="M348 408q47 -53 107 -101.5t109 -73.5q-48 -25 -108.5 -74t-107.5 -102l-26 2l1 27q21 15 69.5 49.5t81 56t60.5 35.5q-357 -6 -462 -15l-22 20l22 20q98 -7 462 -13q-28 14 -60.5 35.5t-80.5 56t-70 49.5l-1 26z" />
    <glyph glyph-name="arrowdown" unicode="&#x2193;" horiz-adv-x="449" 
d="M398 218l2 -27q-53 -47 -101.5 -107t-73.5 -109q-62 114 -176 216l2 27l27 -2q16 -23 49 -69.5t55.5 -80t36.5 -60.5q-6 360 -14 462l21 21l20 -21q-11 -119 -16 -464q14 28 34 59t59 85.5t48 67.5z" />
    <glyph glyph-name="arrowboth" unicode="&#x2194;" horiz-adv-x="758" 
d="M492 408q47 -53 107 -101.5t109 -73.5q-48 -25 -108.5 -74t-107.5 -102l-27 2l2 27q19 13 54.5 38.5t57 40.5t49.5 33t50 29q-152 -1 -204.5 -4t-94.5 -14q-42 11 -94.5 14t-204.5 4q28 -14 60.5 -35.5t81 -56t69.5 -49.5l1 -27l-26 -2q-47 53 -107.5 102t-108.5 74
q49 25 109 73.5t107 101.5l26 -2l-1 -26q-23 -16 -70 -50t-80 -55.5t-60 -35.5q150 1 203 3.5t95 12.5q42 -10 95 -12.5t203 -3.5q-28 14 -59.5 35t-82 57t-68.5 49l-2 26z" />
    <glyph glyph-name="arrowupdn" unicode="&#x2195;" horiz-adv-x="451" 
d="M372 144l27 2l2 -27q-114 -102 -176 -216q-25 49 -73.5 109t-101.5 107l2 27l27 -2q14 -20 49 -69.5t56.5 -82t35.5 -60.5q-2 153 -5 205.5t-13 94.5q10 42 13 94.5t5 205.5q-14 -28 -36 -61t-55.5 -80t-49.5 -71l-27 -1l-2 26q53 47 101.5 107t73.5 109
q62 -114 176 -216l-2 -26l-27 1q-17 25 -49.5 70.5t-55 79t-36.5 61.5q2 -157 4.5 -207.5t12.5 -91.5q-10 -41 -12.5 -91.5t-4.5 -207.5q14 28 36 61t56 80t49 70z" />
    <glyph glyph-name="uni2196" unicode="&#x2196;" horiz-adv-x="471" 
d="M413 51l-30 1q-75 89 -316 338q10 -30 17.5 -66.5t18 -100t13.5 -82.5l-17 -20l-20 17q8 157 -29 277q120 -37 277 -29l17 -20l-20 -17q-24 4 -66.5 11t-68.5 11.5t-58.5 11.5t-55.5 15q253 -245 337 -318z" />
    <glyph glyph-name="uni2197" unicode="&#x2197;" horiz-adv-x="471" 
d="M421 415q-37 -120 -29 -277l-20 -17l-17 20q4 24 11 66.5t11.5 68.5t11.5 58.5t15 55.5q-241 -249 -316 -338l-30 -1l1 29q84 73 337 318q-30 -10 -66.5 -17.5t-100 -18t-82.5 -13.5l-20 17l17 20q157 -8 277 29z" />
    <glyph glyph-name="uni2198" unicode="&#x2198;" horiz-adv-x="471" 
d="M392 320q-8 -157 29 -277q-124 38 -277 29l-17 20l20 18q28 -5 84 -14.5t95 -17.5t69 -17q-9 9 -73 71t-95 92t-81.5 77t-86.5 77l-1 30l30 -1q70 -83 316 -338q-8 23 -15 55t-11.5 58t-11.5 69t-11 66l17 21z" />
    <glyph glyph-name="uni2199" unicode="&#x2199;" horiz-adv-x="471" 
d="M413 408l-1 -30q-36 -30 -86.5 -77t-81.5 -77t-95 -92t-73 -71q30 10 66 17.5t100.5 18t81.5 13.5l20 -18l-17 -20q-71 4 -148 -4t-129 -24q37 119 29 276l20 18l17 -20q-4 -23 -11 -66.5t-11.5 -69.5t-11.5 -58t-15 -55q241 249 316 338z" />
    <glyph glyph-name="minus" unicode="&#x2212;" horiz-adv-x="561" 
d="M50 276q230 -10 461 0v-33q-231 12 -461 0v33z" />
    <glyph glyph-name="approxequal" unicode="&#x2248;" horiz-adv-x="517" 
d="M167 382q37 0 93 -33t88 -33q42 0 84 54l35 -29q-55 -53 -116 -53q-37 0 -93.5 33.5t-88.5 33.5q-25 0 -44 -14t-40 -41l-35 29q55 53 117 53zM167 237q37 0 93 -33t88 -33q42 0 84 54l35 -29q-55 -53 -116 -53q-37 0 -93.5 33.5t-88.5 33.5q-25 0 -44 -14t-40 -41
l-35 29q55 53 117 53z" />
    <glyph glyph-name="notequal" unicode="&#x2260;" horiz-adv-x="561" 
d="M511 323q-93 6 -182 6q-52 -86 -81 -138q121 -1 263 5v-33q-159 9 -275 6q-22 -40 -66 -123l-23 13q47 73 70 110q-83 -2 -167 -6v33q62 -3 180 -5q53 88 81 139q-136 0 -261 -7v33q148 -6 274 -5q49 88 84 154l23 -13q-37 -56 -89 -141q112 2 169 5v-33z" />
    <glyph glyph-name="lessequal" unicode="&#x2264;" horiz-adv-x="400" 
d="M350 162l-19 -30q-117 77 -281 160q168 86 281 161l19 -30q-125 -65 -264 -131q134 -62 264 -130zM350 98v-33q-150 11 -300 0v33q150 -10 300 0z" />
    <glyph glyph-name="greaterequal" unicode="&#x2265;" horiz-adv-x="400" 
d="M50 162q130 68 264 130q-139 66 -264 131l19 30q113 -75 281 -161q-164 -83 -281 -160zM50 98q150 -10 300 0v-33q-150 11 -300 0v33z" />
    <glyph glyph-name="i.loclTRK" horiz-adv-x="164" 
d="M83 598l-53 50l53 50l52 -50zM50 465h64q-6 -68 -6 -177v-110q0 -110 6 -178h-64q6 68 6 178v110q0 109 -6 177z" />
    <glyph glyph-name="e.ss01" horiz-adv-x="558" 
d="M518 195h12q-44 -101 -103 -158t-150 -57q-100 0 -164 68t-64 176q0 109 64.5 185t161.5 76q83 0 134.5 -56t51.5 -130h-347q-6 -35 -6 -73q0 -93 47.5 -161.5t132.5 -68.5q81 0 132 50t98 149zM274 473q-62 0 -102.5 -44t-55.5 -118h288q0 68 -35 115t-95 47z" />
    <glyph glyph-name="eacute.ss01" horiz-adv-x="558" 
d="M371 700q-16 -16 -35.5 -29.5t-61 -37t-69.5 -40.5l-6 6l165 150q13 -2 18 -11t1.5 -19t-12.5 -19zM518 195h12q-44 -101 -103 -158t-150 -57q-100 0 -164 68t-64 176q0 109 64.5 185t161.5 76q83 0 134.5 -56t51.5 -130h-347q-6 -35 -6 -73q0 -93 47.5 -161.5
t132.5 -68.5q81 0 132 50t98 149zM274 473q-62 0 -102.5 -44t-55.5 -118h288q0 68 -35 115t-95 47z" />
    <glyph glyph-name="ecaron.ss01" horiz-adv-x="558" 
d="M275 597q-41 46 -140 131q5 19 20 18t29 -15q10 -9 21 -22t17 -21t24.5 -36t28.5 -42q69 101 91 121q14 15 29 15.5t20 -18.5q-105 -91 -140 -131zM518 195h12q-44 -101 -103 -158t-150 -57q-100 0 -164 68t-64 176q0 109 64.5 185t161.5 76q83 0 134.5 -56t51.5 -130
h-347q-6 -35 -6 -73q0 -93 47.5 -161.5t132.5 -68.5q81 0 132 50t98 149zM274 473q-62 0 -102.5 -44t-55.5 -118h288q0 68 -35 115t-95 47z" />
    <glyph glyph-name="ecircumflex.ss01" horiz-adv-x="558" 
d="M184 616q-14 -14 -29 -14.5t-20 17.5q99 85 140 131q35 -40 140 -131q-5 -18 -20 -18t-29 15q-23 21 -91 122q-10 -14 -24 -35.5t-20 -30.5t-15 -21t-16.5 -20t-15.5 -15zM518 195h12q-44 -101 -103 -158t-150 -57q-100 0 -164 68t-64 176q0 109 64.5 185t161.5 76
q83 0 134.5 -56t51.5 -130h-347q-6 -35 -6 -73q0 -93 47.5 -161.5t132.5 -68.5q81 0 132 50t98 149zM274 473q-62 0 -102.5 -44t-55.5 -118h288q0 68 -35 115t-95 47z" />
    <glyph glyph-name="edieresis.ss01" horiz-adv-x="558" 
d="M247 644l-47 -48l-48 48l48 47zM400 644l-48 -48l-47 48l47 47zM518 195h12q-44 -101 -103 -158t-150 -57q-100 0 -164 68t-64 176q0 109 64.5 185t161.5 76q83 0 134.5 -56t51.5 -130h-347q-6 -35 -6 -73q0 -93 47.5 -161.5t132.5 -68.5q81 0 132 50t98 149zM274 473
q-62 0 -102.5 -44t-55.5 -118h288q0 68 -35 115t-95 47z" />
    <glyph glyph-name="edotaccent.ss01" horiz-adv-x="558" 
d="M323 644l-47 -48l-48 48l48 47zM518 195h12q-44 -101 -103 -158t-150 -57q-100 0 -164 68t-64 176q0 109 64.5 185t161.5 76q83 0 134.5 -56t51.5 -130h-347q-6 -35 -6 -73q0 -93 47.5 -161.5t132.5 -68.5q81 0 132 50t98 149zM274 473q-62 0 -102.5 -44t-55.5 -118h288
q0 68 -35 115t-95 47z" />
    <glyph glyph-name="egrave.ss01" horiz-adv-x="558" 
d="M343 593q-26 16 -56.5 33.5t-46.5 27t-33.5 21.5t-29.5 25q-9 9 -12.5 19t1.5 19t18 11l165 -150zM518 195h12q-44 -101 -103 -158t-150 -57q-100 0 -164 68t-64 176q0 109 64.5 185t161.5 76q83 0 134.5 -56t51.5 -130h-347q-6 -35 -6 -73q0 -93 47.5 -161.5
t132.5 -68.5q81 0 132 50t98 149zM274 473q-62 0 -102.5 -44t-55.5 -118h288q0 68 -35 115t-95 47z" />
    <glyph glyph-name="emacron.ss01" horiz-adv-x="558" 
d="M436 654q-107 7 -160 7t-161 -7v33q161 -9 321 0v-33zM518 195h12q-44 -101 -103 -158t-150 -57q-100 0 -164 68t-64 176q0 109 64.5 185t161.5 76q83 0 134.5 -56t51.5 -130h-347q-6 -35 -6 -73q0 -93 47.5 -161.5t132.5 -68.5q81 0 132 50t98 149zM274 473
q-62 0 -102.5 -44t-55.5 -118h288q0 68 -35 115t-95 47z" />
    <glyph glyph-name="eogonek.ss01" horiz-adv-x="558" 
d="M329 -278q28 0 49 10.5t37 34t25 43.5t23 57l35 -35q-18 -29 -30.5 -46t-33.5 -37t-47.5 -29.5t-59.5 -9.5q-57 0 -90 26t-33 75q0 39 21.5 67t70.5 64t69 55q-40 -17 -88 -17q-100 0 -164 68t-64 176q0 109 64.5 185t161.5 76q83 0 134.5 -56t51.5 -130h-347
q-6 -35 -6 -73q0 -93 47.5 -161.5t132.5 -68.5q81 0 132 50t98 149h12q-60 -139 -141 -186q-21 -24 -53 -55t-47.5 -47.5t-28 -42t-12.5 -54.5q0 -44 23.5 -66t57.5 -22zM274 473q-62 0 -102.5 -44t-55.5 -118h288q0 68 -35 115t-95 47z" />
    <glyph glyph-name="f.ss01" horiz-adv-x="423" 
d="M448 743q3 -29 -22 -34.5t-50 18.5q-4 4 -23.5 24.5t-30 29t-36.5 18t-57 9.5q-57 0 -103.5 -48.5t-46.5 -123.5q0 -79 49 -125t126 -46h134v-12q-36 0 -63.5 -3.5t-46.5 -8.5t-31.5 -16t-19.5 -20.5t-10.5 -27.5t-4 -31.5t-0.5 -37.5v-122q0 -92 7 -186h-65q7 94 7 186
v122q0 60 22 94.5t83 50.5h-18q-37 0 -74.5 9t-73 28.5t-58 57t-22.5 86.5q0 88 63.5 137t143.5 49q14 0 27.5 -1t28 -4.5t24 -5.5t25.5 -8.5t22.5 -9t24 -11.5t22 -11t24.5 -13.5t23 -12.5z" />
    <glyph glyph-name="k.ss01" horiz-adv-x="523" 
d="M385 105q44 -58 101 -105h-96q-19 36 -69 105l-85 113q-25 -9 -110 -35q0 -108 6 -183h-64q6 77 6 188v425q0 110 -6 187h64q-6 -77 -6 -187v-417q39 13 59.5 20.5t52 20.5t48.5 24.5t35.5 27t26 34.5t7.5 41q0 55 -74 100l6 11q59 -28 91.5 -54t32.5 -61
q0 -72 -128 -125z" />
    <glyph glyph-name="uni0137.ss01" horiz-adv-x="523" 
d="M385 105q44 -58 101 -105h-96q-19 36 -69 105l-85 113q-25 -9 -110 -35q0 -108 6 -183h-64q6 77 6 188v425q0 110 -6 187h64q-6 -77 -6 -187v-417q39 13 59.5 20.5t52 20.5t48.5 24.5t35.5 27t26 34.5t7.5 41q0 55 -74 100l6 11q59 -28 91.5 -54t32.5 -61
q0 -72 -128 -125zM204 -134l46 46l45 -46l-82 -161l-6 6l43 110z" />
    <glyph glyph-name="y.ss01" horiz-adv-x="527" 
d="M397 465h63v-436q0 -33 -5.5 -58.5t-22 -46t-33.5 -35t-52.5 -31t-65 -28.5t-85.5 -32q-32 -12 -49 -18v12q21 9 61 24t55 21.5t43 19.5t38.5 21.5t26.5 23t21.5 29t10.5 34.5t5 45v98q-26 -52 -75.5 -90t-113.5 -38q-72 0 -106.5 44t-34.5 139v116q0 92 -10 186h62v-313
q0 -156 104 -156q59 0 103.5 37.5t70.5 89.5v156q0 92 -11 186z" />
    <glyph glyph-name="yacute.ss01" horiz-adv-x="527" 
d="M360 700q-16 -16 -35.5 -29.5t-61 -37t-69.5 -40.5l-6 6l165 150q13 -2 18 -11t1.5 -19t-12.5 -19zM397 465h63v-436q0 -33 -5.5 -58.5t-22 -46t-33.5 -35t-52.5 -31t-65 -28.5t-85.5 -32q-32 -12 -49 -18v12q21 9 61 24t55 21.5t43 19.5t38.5 21.5t26.5 23t21.5 29
t10.5 34.5t5 45v98q-26 -52 -75.5 -90t-113.5 -38q-72 0 -106.5 44t-34.5 139v116q0 92 -10 186h62v-313q0 -156 104 -156q59 0 103.5 37.5t70.5 89.5v156q0 92 -11 186z" />
    <glyph glyph-name="ycircumflex.ss01" horiz-adv-x="527" 
d="M173 616q-14 -14 -29 -14.5t-20 17.5q99 85 140 131q35 -40 140 -131q-5 -18 -20 -18t-29 15q-23 21 -91 122q-10 -14 -24 -35.5t-20 -30.5t-15 -21t-16.5 -20t-15.5 -15zM397 465h63v-436q0 -33 -5.5 -58.5t-22 -46t-33.5 -35t-52.5 -31t-65 -28.5t-85.5 -32
q-32 -12 -49 -18v12q21 9 61 24t55 21.5t43 19.5t38.5 21.5t26.5 23t21.5 29t10.5 34.5t5 45v98q-26 -52 -75.5 -90t-113.5 -38q-72 0 -106.5 44t-34.5 139v116q0 92 -10 186h62v-313q0 -156 104 -156q59 0 103.5 37.5t70.5 89.5v156q0 92 -11 186z" />
    <glyph glyph-name="ydieresis.ss01" horiz-adv-x="527" 
d="M235 644l-47 -48l-48 48l48 47zM388 644l-48 -48l-47 48l47 47zM397 465h63v-436q0 -33 -5.5 -58.5t-22 -46t-33.5 -35t-52.5 -31t-65 -28.5t-85.5 -32q-32 -12 -49 -18v12q21 9 61 24t55 21.5t43 19.5t38.5 21.5t26.5 23t21.5 29t10.5 34.5t5 45v98q-26 -52 -75.5 -90
t-113.5 -38q-72 0 -106.5 44t-34.5 139v116q0 92 -10 186h62v-313q0 -156 104 -156q59 0 103.5 37.5t70.5 89.5v156q0 92 -11 186z" />
    <glyph glyph-name="ygrave.ss01" horiz-adv-x="527" 
d="M331 593q-26 16 -56.5 33.5t-46.5 27t-33.5 21.5t-29.5 25q-9 9 -12.5 19t1.5 19t18 11l165 -150zM397 465h63v-436q0 -33 -5.5 -58.5t-22 -46t-33.5 -35t-52.5 -31t-65 -28.5t-85.5 -32q-32 -12 -49 -18v12q21 9 61 24t55 21.5t43 19.5t38.5 21.5t26.5 23t21.5 29
t10.5 34.5t5 45v98q-26 -52 -75.5 -90t-113.5 -38q-72 0 -106.5 44t-34.5 139v116q0 92 -10 186h62v-313q0 -156 104 -156q59 0 103.5 37.5t70.5 89.5v156q0 92 -11 186z" />
    <glyph glyph-name="C_O" horiz-adv-x="1389" 
d="M451 -1q133 0 216.5 88.5t116.5 241.5h12q-34 -163 -122.5 -256t-233.5 -93q-119 0 -206.5 58.5t-130.5 155t-43 216.5q0 176 109 293t272 117q208 0 311 -208l-66 -18q-29 95 -90 154.5t-155 59.5q-140 0 -228.5 -114.5t-88.5 -280.5q0 -114 34 -205.5t109.5 -150
t183.5 -58.5zM1089 820q112 0 181 -68.5t69 -161.5t-69 -161.5t-181 -68.5q-113 0 -181 68.5t-68 161.5t68 161.5t181 68.5zM1089 371q91 0 142.5 67t51.5 152t-51.5 152t-142.5 67t-142 -67t-51 -152t51 -152t142 -67zM1043 28l47 47l48 -47l-48 -48z" />
    <glyph glyph-name="E_S_T_D" horiz-adv-x="2004" 
d="M799 475q133 -106 165 -138q73 -72 78 -149q1 -7 1 -15q0 -93 -60 -143t-152 -50q-226 0 -300 263l58 22q9 -121 77.5 -197t167.5 -76q76 0 124.5 43t48.5 125q0 58 -44 106.5t-155 135.5q-24 19 -37 29q-112 89 -138 117q-50 54 -50 121q0 71 49.5 111t132.5 40
q160 0 248 -180l-58 -18q-10 78 -57 132t-135 54q-67 0 -105.5 -32.5t-38.5 -87.5q0 -18 3 -33.5t13.5 -32t18 -26.5t28 -28t31.5 -27t41.5 -32t44.5 -34zM135 13h126q154 0 268 28l-23 -41h-436q8 102 8 188v425q0 85 -8 187h429l-36 -41q-105 29 -234 29h-94v-356h71
q107 0 200 10v-32q-93 10 -200 10h-71v-407zM1580 800l-37 -41q-104 29 -207 29h-10v-600q0 -99 6 -188h-69q6 107 6 188v600h-11q-102 0 -207 -29l-36 41h565zM1748 800q93 0 144.5 -56t51.5 -154q0 -92 -52.5 -151t-143.5 -59h-108q5 93 5 180v60q0 87 -5 180h108z
M1747 393q69 0 114 54t45 143q0 95 -44 146.5t-115 51.5h-69v-395h69zM1736 28l47 47l48 -47l-48 -48z" />
    <glyph glyph-name="L_T_D" horiz-adv-x="1110" 
d="M72 800h69q-6 -107 -6 -187v-600h454q159 0 273 28l-24 -41h-768q8 102 8 188v425q0 98 -6 187zM318 800h330l-13 -24q-61 12 -120 12h-16v-228q0 -87 5 -180h-43q5 93 5 180v228h-16q-59 0 -120 -12zM743 380q5 93 5 180v60q0 87 -5 180h108q93 0 144.5 -56t51.5 -154
q0 -92 -52.5 -151t-143.5 -59h-108zM850 393q69 0 114 54t45 143q0 95 -44 146.5t-115 51.5h-69v-395h69zM1002 -20l-47 48l47 47l48 -47z" />
    <glyph glyph-name="S_T" horiz-adv-x="928" 
d="M40 243l58 22q8 -121 76.5 -197t167.5 -76q77 0 125.5 42.5t48.5 125.5q0 15 -3 29.5t-11 30t-14.5 27t-23.5 28.5t-26 26.5t-33.5 30t-36.5 30t-43 34t-45 35.5q-112 89 -138 117q-50 54 -50 121q0 71 49.5 111t132.5 40q160 0 248 -180l-58 -18q-10 78 -57 132t-135 54
q-67 0 -105.5 -32.5t-38.5 -87.5q0 -18 3 -33.5t13.5 -32t18 -26.5t28 -28t31.5 -27t41.5 -32t44.5 -34q133 -106 165 -138q73 -72 78 -149q1 -7 1 -15q0 -93 -60.5 -143t-151.5 -50q-226 0 -300 263zM591 776l-13 24h330l-13 -24q-60 12 -119 12h-16v-228q0 -87 5 -180h-44
q5 93 5 180v228h-16q-59 0 -119 -12zM743 -20l-47 48l47 47l48 -47z" />
    <glyph glyph-name="S_T_R" horiz-adv-x="1633" 
d="M308 475q133 -106 165 -138q73 -72 78 -149q1 -7 1 -15q0 -93 -60.5 -143t-151.5 -50q-226 0 -300 263l58 22q8 -121 76.5 -197t167.5 -76q77 0 125.5 42.5t48.5 125.5q0 15 -3 29.5t-11 30t-14.5 27t-23.5 28.5t-26 26.5t-33.5 30t-36.5 30t-43 34t-45 35.5
q-112 89 -138 117q-50 54 -50 121q0 71 49.5 111t132.5 40q160 0 248 -180l-58 -18q-10 78 -57 132t-135 54q-67 0 -105.5 -32.5t-38.5 -87.5q0 -18 3 -33.5t13.5 -32t18 -26.5t28 -28t31.5 -27t41.5 -32t44.5 -34zM591 776l-13 24h330l-13 -24q-60 12 -119 12h-16v-228
q0 -87 5 -180h-44q5 93 5 180v228h-16q-59 0 -119 -12zM1400 193q39 -106 80 -143.5t114 -37.5v-12q-108 0 -160.5 41t-89.5 144q-40 109 -95.5 147t-143.5 38h-44v-182q0 -84 7 -188h-70q7 104 7 188v425q0 83 -7 187h148q69 0 122.5 -10t99.5 -33t70.5 -66.5t24.5 -105.5
q0 -193 -254 -213q134 -27 191 -179zM1061 383h85q255 0 255 202q0 203 -255 203h-85v-405zM696 28l47 47l48 -47l-48 -48z" />
    <glyph glyph-name="s_t" horiz-adv-x="786" 
d="M736 204h11q-18 -128 -49.5 -178.5t-83.5 -50.5q-49 0 -74.5 35.5t-25.5 122.5v320h-108v12h12q69 0 105 49t36 120q0 90 -50.5 138t-129.5 48t-124.5 -37.5t-45.5 -109.5q0 -51 28.5 -100t76 -107.5t69.5 -100.5q-4 -12 -16 -16.5t-25 3.5t-18 28q-10 42 -36.5 67
t-80.5 25q-46 0 -72.5 -18t-26.5 -54q0 -38 34 -65t114 -68q83 -43 116.5 -75t33.5 -86q0 -56 -42.5 -91t-116.5 -35q-84 0 -138 42.5t-70 122.5q14 22 35.5 15.5t22.5 -39.5q-2 -51 38.5 -89.5t112.5 -38.5q58 0 87.5 29t29.5 75q0 43 -29.5 67.5t-118.5 71.5
q-81 42 -115 72.5t-34 77.5q0 49 39 74t99 25q46 0 78 -16q-39 38 -61 62.5t-42.5 64.5t-20.5 78q0 72 62 115t157 43q97 0 163 -52.5t66 -145.5q0 -54 -30 -101.5t-86 -67.5h217v-12h-143v-325q0 -77 15.5 -107t46.5 -30q39 0 65 48t43 165z" />
    <glyph glyph-name="eight.ss01" horiz-adv-x="748" 
d="M443 498q103 -17 170 -83t67 -173q0 -86 -45 -147t-112.5 -88t-148.5 -27t-148.5 27t-112.5 88t-45 147q0 107 66.5 172.5t169.5 83.5q-86 17 -133.5 74.5t-47.5 150.5v77h502v-77q0 -93 -48 -150.5t-134 -74.5zM179 708q0 -96 51 -150t144 -54t144 54t51 150v80h-390
v-80zM374 -8q102 0 173.5 65t71.5 185q0 119 -71.5 184.5t-173.5 65.5t-173.5 -65.5t-71.5 -184.5q0 -120 71.5 -185t173.5 -65z" />
    <glyph glyph-name="eight.ss02" horiz-adv-x="704" 
d="M380 547q256 -148 256 -328q0 -116 -79 -177.5t-205 -61.5t-205 61.5t-79 177.5q0 180 255 328q-63 36 -211 101v152h480v-152q-153 -67 -212 -101zM167 653q121 -55 185 -90q74 40 185 90v135h-370v-135zM352 -8q99 0 161 57.5t62 166.5q0 179 -223 314
q-223 -135 -223 -314q0 -109 62 -166.5t161 -57.5z" />
    <glyph glyph-name="periodcentered.case" horiz-adv-x="235" 
d="M118 353l-48 47l48 48l47 -48z" />
    <glyph glyph-name="bullet.case" horiz-adv-x="373" 
d="M187 283l-117 117l117 116l116 -116z" />
    <glyph glyph-name="parenleft.case" horiz-adv-x="379" 
d="M70 410q0 148 77 272t205 188v-12q-107 -66 -166.5 -187.5t-59.5 -260.5q0 -146 56.5 -275t165.5 -193v-12q-129 62 -203.5 194t-74.5 286z" />
    <glyph glyph-name="parenright.case" horiz-adv-x="379" 
d="M309 410q0 -154 -74 -286t-203 -194v12q109 64 165 193t56 275q0 139 -59 260.5t-166 187.5v12q127 -64 204 -188t77 -272z" />
    <glyph glyph-name="braceleft.case" horiz-adv-x="399" 
d="M371 858q-94 0 -116.5 -54t3.5 -168q23 -120 -16 -174t-112 -62q33 -4 58.5 -16t48 -39.5t27 -71t-5.5 -109.5q-26 -114 -3 -168t116 -54v-12q-113 0 -149.5 57.5t-14.5 180.5q7 49 8.5 84.5t-9 60.5t-23 41t-32.5 25t-39 12t-42 3v12q23 0 42 3t39.5 12t32.5 25t22.5 41
t9 61t-8.5 85q-22 122 14.5 179.5t149.5 57.5v-12z" />
    <glyph glyph-name="braceright.case" horiz-adv-x="399" 
d="M192 633q-7 -49 -8.5 -85t9 -61t22.5 -41t32.5 -25t39.5 -12t42 -3v-12q-23 0 -42 -3t-39 -12t-32.5 -25t-23 -41t-9 -60.5t8.5 -84.5q22 -123 -14.5 -180.5t-149.5 -57.5v12q93 0 116 54t-3 168q-10 66 -5.5 109.5t27 71t48 39.5t58.5 16q-73 8 -112 62t-16 174
q26 114 3 168t-116 54v12q113 0 149.5 -57.5t14.5 -179.5z" />
    <glyph glyph-name="bracketleft.case" horiz-adv-x="372" 
d="M70 870h275v-12h-226v-916h226v-12h-275v940z" />
    <glyph glyph-name="bracketright.case" horiz-adv-x="372" 
d="M302 870v-940h-274v12h225v916h-225v12h274z" />
    <glyph glyph-name="hyphen.case" horiz-adv-x="663" 
d="M70 417q261 -12 523 0v-33q-261 13 -523 0v33z" />
    <glyph glyph-name="endash.case" horiz-adv-x="952" 
d="M70 417q406 -11 812 0v-33q-406 13 -812 0v33z" />
    <glyph glyph-name="emdash.case" horiz-adv-x="1262" 
d="M70 417q560 -12 1122 0v-33q-562 14 -1122 0v33z" />
    <glyph glyph-name="guillemotleft.001" horiz-adv-x="515" 
d="M277 93q15 -14 15.5 -29t-17.5 -19q-108 110 -205 188q96 76 205 187q18 -4 17.5 -19t-15.5 -29q-15 -15 -35.5 -29t-64.5 -43.5t-94 -66.5q50 -38 94 -67.5t64.5 -43.5t35.5 -29zM430 93q15 -13 15 -29t-18 -19q-112 114 -204 188q92 73 204 187q18 -3 18 -19t-15 -29
q-15 -15 -35.5 -29t-65 -43.5t-94.5 -66.5q51 -38 94.5 -67.5t64.5 -43.5t36 -29z" />
    <glyph glyph-name="guillemotright.001" horiz-adv-x="515" 
d="M106 420q112 -114 204 -187q-92 -74 -204 -188q-18 3 -18 19t15 29q15 15 36 29t64.5 43.5t94.5 67.5q-50 37 -94.5 66.5t-65 43.5t-35.5 29q-15 13 -15 29t18 19zM258 420q109 -111 205 -187q-97 -78 -205 -188q-18 4 -17.5 19t14.5 29q15 14 36 28.5t64.5 44t94.5 67.5
q-50 37 -94 66.5t-65 44t-36 28.5q-14 14 -14.5 29t17.5 19z" />
    <glyph glyph-name="guilsinglleft.001" horiz-adv-x="363" 
d="M277 94q15 -14 15.5 -29t-17.5 -20q-108 110 -205 188q96 76 205 187q18 -4 17.5 -19t-15.5 -29t-35.5 -28.5t-64 -43.5t-94.5 -67q51 -38 94.5 -67t64 -43.5t35.5 -28.5z" />
    <glyph glyph-name="guilsinglright.001" horiz-adv-x="363" 
d="M88 420q109 -111 205 -187q-97 -78 -205 -188q-18 5 -17.5 20t14.5 29q15 14 36 28.5t64.5 43.5t94.5 67q-51 38 -94.5 67t-64.5 43.5t-36 28.5q-14 14 -14.5 29t17.5 19z" />
    <glyph glyph-name="arrowright.case" horiz-adv-x="614" 
d="M348 574q102 -114 216 -176q-49 -25 -109 -73.5t-107 -101.5l-26 2l1 27q19 13 69.5 49t83 57t60.5 35q-346 -5 -464 -16l-22 20l22 21q102 -8 462 -14q-28 14 -61.5 36.5t-79 55t-70.5 49.5l-1 27z" />
    <glyph glyph-name="arrowleft.case" horiz-adv-x="614" 
d="M564 397l-21 -20q-119 11 -464 16q28 -14 60.5 -35.5t82 -56.5t69.5 -49l1 -27l-26 -2q-47 53 -107 101.5t-109 73.5q114 62 216 176l26 -2l-1 -27q-26 -17 -71 -49.5t-78.5 -55t-60.5 -36.5q360 6 462 14z" />
    <glyph glyph-name="arrowright.ss01.case" horiz-adv-x="950" 
d="M701 556q68 -115 199 -153v-12q-130 -38 -199 -154l-23 24q83 97 189 130h-491q-75 -81 -112 -153l-22 23q50 56 123 130h-52q-75 -80 -113 -153l-22 23q50 56 123 130h-40h-12q-75 -80 -113 -153l-21 23q50 56 123 130q-36 0 -53 -1q-73 -76 -112 -152l-22 23
q34 37 122 129q-54 -2 -84 -6v25q30 -4 85 -6q-73 74 -123 130l22 22q40 -75 112 -152h53q-73 74 -123 130l21 22q38 -72 113 -152h12h40q-73 74 -123 130l22 22q38 -72 113 -152h52q-73 74 -123 130l22 22q38 -72 112 -152h491q-106 33 -189 130z" />
    <glyph glyph-name="arrowleft.ss01.case" horiz-adv-x="950" 
d="M861 384q-46 5 -85 6q73 -74 123 -130l-22 -22q-40 75 -113 152q-16 1 -53 1q74 -75 124 -131l-21 -22q-35 67 -114 153h-11h-41q74 -75 124 -131l-22 -22q-35 67 -114 153h-52q74 -75 124 -131l-22 -22q-35 67 -113 153h-493q109 -32 192 -131l-23 -23q-69 116 -199 154
v11q130 38 199 154l23 -24q-83 -97 -189 -130h491q75 81 112 153l22 -23q-50 -56 -123 -130h52q75 80 113 153l22 -23q-50 -56 -123 -130h40h12q75 80 113 153l21 -23q-50 -56 -123 -130q36 0 53 1q73 76 112 152l22 -23q-34 -37 -122 -129q54 2 84 6v-25z" />
    <glyph glyph-name="arrowright.ss02.case" horiz-adv-x="1717" 
d="M1647 442q1 -24 -15 -39t-34 -19.5t-42 -5.5q-10 -2 -75.5 -0.5t-76.5 1.5q-260 0 -294 -1q40 -20 65 -50.5t19 -67.5t-39 -59.5t-70 -14.5q21 -36 -3 -69.5t-63 -38.5q-12 -2 -29 1t-23 1q-6 -6 -15.5 -24t-25.5 -32q-27 -24 -72 -21q-14 1 -37 12.5t-35 13.5
q-15 3 -44 3.5t-41 1.5q-83 8 -174 38q-110 36 -158 45q-1 -7 -8 -14q-1 -1 -31 -16q-4 -2 -17 -2l-20 2q-20 2 -21 -2l-42 -13q-46 -13 -78 6q-20 12 -35 38t-20.5 45.5t-12.5 51.5q-15 72 -6 188q10 118 53 162q137 6 139 6q46 4 63.5 -4.5t18.5 -38.5q72 3 121 28
q12 6 50 37q18 14 59 39q50 30 113 50q35 12 127 18l126 18q50 7 64 13q2 1 44 26q67 41 108 42q25 1 33.5 -21.5t0.5 -66.5q-12 -63 -46 -97t-93 -49q51 -4 160 -17.5t165 -17.5q121 -8 166 -17q98 -19 101 -69zM1175 777q-13 13 -97 -32h1q31 0 48 7q20 9 48 25zM1527 396
q97 0 97 46q0 25 -34 37.5t-95 20.5q-31 4 -90.5 8.5t-70.5 5.5q-47 4 -155 17t-166 18q-58 -18 -75 -18q-16 0 -36 -5q-7 -2 -29.5 -10.5t-37.5 -10.5v6l53 19q18 9 55.5 15.5t45.5 8.5q55 15 96 34q39 18 63.5 54.5t29.5 83.5q2 23 0 41q-22 -20 -53 -30t-56 3
q-7 -2 -18.5 -9.5t-15.5 -9.5q-34 -17 -96 -26q-83 -13 -97 -13q-91 0 -188 -33q-35 -12 -84 -41q-14 -8 -39 -27.5t-35 -26.5q-63 -44 -184 -38q-35 -72 -31 -185q3 -105 36 -193q33 2 70.5 -7t82.5 -25t67 -21q72 -18 118 -27q41 -8 102 -10q-46 31 -63 72q-9 19 -6 45
t19 43q19 14 42 9q-18 40 10 69t69 26q-1 3 -3 6.5t-5 8t-4 6.5q-104 -33 -172 -26q-98 10 -130 77h7q30 -60 126 -66q60 -4 164 33q-11 49 14 74q24 24 77 7q13 -4 35.5 -18t34.5 -18q23 -7 87 -3q46 3 185 3h283zM276 99q12 0 36 -4q-3 10 -10 30q-13 36 -26.5 112
t-11.5 120q3 68 19 116q17 59 46 76q-9 13 -26 13q-16 0 -48 -3.5t-38 -3.5l-86 -5q-5 -6 -10 -14.5t-8 -15.5t-6 -19t-5 -18.5t-4 -21t-3 -18.5t-3 -20t-2 -17q-12 -97 1 -170q16 -89 50 -132q23 -29 57 -24q12 2 37.5 10.5t40.5 8.5zM338 526q0 12 -5 18q-1 -1 -16 -18h21
zM828 360q9 -7 12.5 -5.5t13.5 14.5q30 38 22 51q-25 7 -41 -12q-12 -15 -7 -48zM1172 244q35 67 -76 134q-58 -5 -73 -5q6 -2 45 -9v-9q-51 3 -82 12q-38 10 -71 38q-9 8 -25 13q2 -12 -9 -31l-20 -35q-4 -7 -13.5 -9t-15.5 2q4 -16 24 -36q30 -30 98.5 -48.5t92.5 -33.5
q2 -1 9.5 -6t9.5 -6l9 -4.5t10 -4.5l9 -3t10.5 -1.5t10 1t11.5 2.5q31 11 46 39zM1076 148q4 34 -41 62q-25 15 -90 35t-98 45q-10 8 -31 4q3 -3 -1 -15q-1 -2 -4 -12.5t-5.5 -16.5t-7 -14t-9.5 -11q-9 -6 -21 -3q5 -9 15 -18.5t16 -14.5t22 -16t18 -12q16 -11 61 -27
t65 -35q8 1 21.5 -2t19.5 -3q29 0 48 15.5t22 38.5zM771 271q-16 -14 -8 -36q9 -7 16 0q11 11 14 19q0 1 6.5 12.5t8 16.5t-0.5 10q-16 -3 -36 -22zM705 161q3 -4 14.5 2.5t19.5 17.5t4 19q-16 2 -27 -8.5t-11 -30.5zM929 54q3 3 22 33q-9 8 -22.5 15.5t-22.5 11t-26 9
t-24 8.5q-46 18 -93 65q-2 2 -6 2q-1 -15 -21.5 -32.5t-30.5 -15.5q1 -11 4.5 -21.5t9 -19t12 -16.5t14 -14.5t14 -11.5t14 -9.5t12 -7t9.5 -4.5l4 -3q38 -21 69 -21q30 0 62 32zM333 99q18 8 24 18q-15 4 -35 2z" />
    <glyph glyph-name="arrowleft.ss02.case" horiz-adv-x="1717" 
d="M1643 394q9 -116 -6 -188q-7 -32 -12.5 -51.5t-20.5 -45.5t-35 -38q-32 -19 -78 -6l-42 13q-1 4 -21 2l-20 -2q-13 0 -17 2q-30 15 -31 16q-6 6 -8 14q-48 -9 -158 -45q-91 -30 -174 -38q-12 -1 -41 -1.5t-44 -3.5q-12 -2 -35 -13.5t-37 -12.5q-45 -3 -72 21
q-16 14 -25.5 32t-15.5 24q-6 2 -23 -1t-29 -1q-39 5 -63 38.5t-3 69.5q-37 -8 -70 14.5t-39 59.5t19 67.5t65 50.5q-34 1 -294 1q-11 0 -76.5 -1.5t-75.5 0.5q-24 1 -42 5.5t-34 19.5t-15 39q3 50 101 69q45 9 166 17q56 4 165 17.5t160 17.5q-59 15 -93 49t-46 97
q-8 44 0.5 66.5t33.5 21.5q41 -1 108 -42q42 -25 44 -26q14 -6 64 -13q14 -2 39.5 -6.5t46.5 -7.5t40 -4q92 -6 127 -18q63 -20 113 -50q41 -25 59 -39q38 -31 50 -37q49 -25 121 -28q1 30 18.5 38.5t63.5 4.5q2 0 139 -6q43 -44 53 -162zM639 738q-84 45 -97 32
q28 -16 48 -25q18 -7 48 -7h1zM1180 78q22 5 67 21t82.5 25t70.5 7q33 88 36 193q4 113 -31 185q-121 -6 -184 38q-10 7 -35 26.5t-39 27.5q-49 29 -84 41q-97 33 -188 33q-14 0 -97 13q-62 9 -96 26q-4 2 -15.5 9.5t-18.5 9.5q-25 -13 -56 -3t-53 30q-2 -18 0 -41
q5 -47 29.5 -83.5t63.5 -54.5q41 -19 96 -34q8 -2 45.5 -8.5t55.5 -15.5l53 -19v-6q-15 2 -37.5 10.5t-29.5 10.5q-20 5 -36 5q-17 0 -75 18q-58 -5 -166 -18t-155 -17q-11 -1 -70.5 -5.5t-90.5 -8.5q-61 -8 -95 -20.5t-34 -37.5q0 -46 97 -46h283q139 0 185 -3q64 -4 87 3
q12 4 34.5 18t35.5 18q53 17 77 -7q25 -25 14 -74q104 -37 164 -33q96 6 126 66h7q-32 -67 -130 -77q-68 -7 -172 26q-1 -2 -4 -6.5t-5 -8t-3 -6.5q41 3 69 -26t10 -69q23 5 42 -9q16 -17 19 -43t-6 -45q-17 -41 -63 -72q61 2 102 10q46 9 118 27zM1626 229q13 73 1 170
q0 1 -2 17t-3 20t-3 18.5t-4 21t-5 18.5t-6 19t-8 15.5t-10 14.5l-86 5q-6 0 -38 3.5t-48 3.5q-17 0 -26 -13q29 -17 46 -76q16 -48 19 -116q2 -44 -11.5 -120t-26.5 -112q-7 -20 -10 -30q24 4 36 4q15 0 40.5 -8.5t37.5 -10.5q34 -5 57 24q34 43 50 132zM1384 537
q-5 -6 -5 -18h21q-15 17 -16 18zM841 413q-8 -13 22 -51q10 -13 13.5 -14.5t12.5 5.5q5 33 -7 48q-16 19 -41 12zM591 198q6 -2 11.5 -2.5t10 -1t10.5 1.5l9 3t10 4.5l9 4.5t9.5 6t9.5 6q24 15 92.5 33.5t98.5 48.5q20 20 24 36q-6 -4 -15.5 -2t-13.5 9l-20 35q-11 19 -9 31
q-16 -5 -25 -13q-33 -28 -71 -38q-31 -9 -82 -12v9q39 7 45 9q-16 0 -73 5q-111 -67 -76 -134q15 -28 46 -39zM711 87q6 0 19.5 3t21.5 2q20 19 65 35t61 27q2 1 18 12t22 16t16 14.5t15 18.5q-12 -3 -21 3q-5 3 -9.5 11t-7 14t-5.5 16.5t-4 12.5q-4 12 -1 15q-21 4 -31 -4
q-33 -25 -98 -45t-90 -35q-45 -28 -41 -62q3 -23 22 -38.5t48 -15.5zM910 286q-2 -5 -0.5 -10t8 -16.5t6.5 -12.5q3 -8 14 -19q7 -7 16 0q8 22 -8 36q-20 19 -36 22zM974 193q-4 -8 4 -19t19.5 -17.5t14.5 -2.5q0 20 -11 30.5t-27 8.5zM919 36l5 2q4 3 8.5 5.5t12 7t14 9.5
t14 11.5t14 14.5t12 16.5t9 19t4.5 21.5q-10 -2 -30.5 15.5t-21.5 32.5q-4 0 -6 -2q-47 -47 -93 -65q-7 -3 -24 -8.5t-26 -9t-22.5 -11t-22.5 -15.5q19 -30 22 -33q32 -32 62 -32q31 0 69 21zM1384 92l11 20q-20 2 -35 -2q6 -10 24 -18z" />
    <glyph glyph-name="arrowup.ss01" horiz-adv-x="419" 
d="M346 17q-56 50 -131 124v-52q86 -79 153 -114l-22 -22q-44 40 -131 125v-42v-11q86 -79 153 -114l-22 -21q-56 50 -131 124q0 -37 1 -53q77 -73 152 -113l-22 -22q-56 50 -130 123q1 -39 6 -85h-25q4 30 6 84q-92 -88 -129 -122l-23 22q76 39 152 112q1 17 1 53
q-74 -73 -130 -123l-23 21q73 38 153 113v12v41q-86 -84 -130 -124l-23 22q73 38 153 113v52q-74 -73 -130 -123l-23 22q73 38 153 113v490q-33 -105 -130 -188l-24 23q116 69 154 198h11q38 -129 154 -198l-23 -23q-99 83 -131 191v-492q86 -79 153 -114z" />
    <glyph glyph-name="arrowright.ss01" horiz-adv-x="950" 
d="M701 400q69 -116 199 -154v-12q-131 -38 -199 -153l-23 23q83 97 189 130h-491q-74 -80 -112 -152l-22 22q50 56 123 130h-52q-75 -80 -113 -152l-22 22q50 56 123 130h-40h-12q-75 -80 -113 -152l-21 22q50 56 123 130q-36 0 -53 -1q-72 -76 -112 -151l-22 22
q34 37 122 129q-54 -2 -84 -6v26q30 -4 84 -6q-88 92 -122 129l22 22q40 -75 112 -151q17 -1 53 -1q-73 74 -123 130l21 22q38 -72 113 -152h12h40q-73 74 -123 130l22 22q38 -72 113 -152h52q-73 74 -123 130l22 22q38 -72 112 -152h491q-106 33 -189 130z" />
    <glyph glyph-name="arrowdown.ss01" horiz-adv-x="419" 
d="M346 44l23 -23q-116 -71 -154 -199h-11q-38 128 -154 199l24 23q98 -85 130 -189v491q-81 75 -153 112l23 22q56 -50 130 -123v52q-80 75 -153 113l23 22q56 -50 130 -123v40v12q-80 75 -153 113l23 21q56 -50 130 -123q0 36 -1 53q-76 73 -152 112l23 22
q37 -34 129 -122q-2 54 -6 84h25q-5 -46 -6 -85q74 73 130 123l22 -22q-75 -40 -152 -113q-1 -16 -1 -53q75 74 131 124l22 -21q-67 -35 -153 -114v-11v-41q75 74 131 124l22 -22q-67 -35 -153 -114v-52q75 74 131 124l22 -22q-67 -35 -153 -113v-493q32 107 131 192z" />
    <glyph glyph-name="arrowleft.ss01" horiz-adv-x="950" 
d="M861 227q-30 4 -84 6q88 -92 122 -129l-22 -22q-40 75 -112 151q-17 1 -53 1q73 -74 123 -130l-21 -22q-38 72 -113 152h-12h-40q73 -74 123 -130l-22 -22q-38 72 -113 152h-52q73 -74 123 -130l-22 -22q-38 72 -112 152h-491q106 -33 189 -130l-23 -23q-68 115 -199 153
v12q130 38 199 154l23 -24q-83 -97 -189 -130h491q74 80 112 152l22 -22q-50 -56 -123 -130h52q75 80 113 152l22 -22q-50 -56 -123 -130h40h12q75 80 113 152l21 -22q-50 -56 -123 -130q36 0 53 1q72 76 112 151l22 -22q-34 -37 -122 -129q54 2 84 6v-26z" />
    <glyph glyph-name="arrowup.ss02" horiz-adv-x="934" 
d="M776 585q44 8 66.5 -0.5t21.5 -33.5q-1 -41 -42 -108q-25 -42 -26 -44q-6 -14 -13 -64l-18 -126q-6 -92 -18 -127q-20 -63 -50 -113q-25 -41 -39 -59q-31 -38 -37 -50q-25 -49 -28 -121q30 -1 38.5 -18.5t4.5 -63.5q0 -2 -6 -139q-44 -43 -162 -53q-116 -9 -188 6
q-32 7 -51.5 12.5t-45.5 20.5t-38 35q-19 32 -6 78l13 42q4 1 2 21l-2 20q0 13 2 17q15 30 16 31q6 6 14 8q-9 48 -45 158q-30 91 -38 174q-1 12 -1.5 41t-3.5 44q-2 12 -13.5 35t-12.5 37q-3 45 21 72q14 16 32 25.5t24 15.5q2 6 -1 23t-1 29q5 39 38.5 63t69.5 3
q-8 37 14.5 70t59.5 39t67.5 -19t50.5 -65q1 34 1 294q0 11 -1.5 76.5t0.5 75.5q1 24 5.5 42t19.5 34t39 15q50 -3 69 -101q9 -45 17 -166q4 -56 17.5 -165t17.5 -160q15 59 49 93t97 46zM788 426q2 4 9.5 15.5t9.5 18.5q-13 25 -3 56t30 53q-18 2 -41 0q-47 -5 -83.5 -29.5
t-54.5 -63.5q-19 -41 -34 -96q-2 -8 -8.5 -45.5t-15.5 -55.5l-19 -53h-6q2 15 10.5 37.5t10.5 29.5q5 20 5 36q0 17 18 75q-5 58 -18 166t-17 155q-1 11 -5.5 70.5t-8.5 90.5q-8 61 -20.5 95t-37.5 34q-46 0 -46 -97v-283q0 -139 -3 -185q-4 -64 3 -87q4 -12 18 -34.5
t18 -35.5q17 -53 -7 -77q-25 -25 -74 -14q-37 -104 -33 -164q6 -96 66 -126v-7q-67 32 -77 130q-7 68 26 172q-2 1 -6.5 4t-8 5t-6.5 3q3 -41 -26 -69t-69 -10q5 -23 -9 -42q-17 -16 -43 -19t-45 6q-41 17 -72 63q2 -61 10 -102q9 -46 27 -118q5 -22 21 -67t25 -82.5
t7 -70.5q88 -33 193 -36q113 -4 185 31q-6 121 38 184q7 10 26.5 35t27.5 39q29 49 41 84q33 97 33 188q0 14 13 97q9 62 26 96zM272 517q-2 -6 -2.5 -11.5t-1 -10t1.5 -10.5l3 -9t4.5 -10l4.5 -9t6 -9.5t6 -9.5q15 -24 33.5 -92.5t48.5 -98.5q20 -20 36 -24q-4 6 -2 15.5
t9 13.5l35 20q19 11 31 9q-5 16 -13 25q-28 33 -38 71q-9 31 -12 82h9q7 -39 9 -45q0 16 5 73q-67 111 -134 76q-28 -15 -39 -46zM812 469q45 84 32 97q-16 -28 -25 -48q-7 -17 -7 -48v-1zM215 467q-23 -3 -38.5 -22t-15.5 -48q0 -6 3 -19.5t2 -21.5q19 -20 35 -65t27 -61
q1 -2 12 -18t16 -22t14.5 -16t18.5 -15q-3 12 3 21q3 5 11 9.5t14 7t16.5 5.5t12.5 4q12 4 15 1q3 21 -4 31q-25 33 -45 98t-35 90q-28 45 -62 41zM89 258q0 -31 21 -69l2 -5q3 -4 5.5 -8.5t7 -12t9.5 -14t11.5 -14t14.5 -14t16.5 -12t19 -9t21.5 -4.5q-2 10 15.5 30.5
t32.5 21.5q0 4 -2 6q-47 47 -65 93q-3 7 -8.5 24t-9 26t-11 22.5t-15.5 22.5q-30 -19 -33 -22q-32 -32 -32 -62zM487 267q-13 8 -51 -22q-13 -10 -14.5 -13.5t5.5 -12.5q33 -5 48 7q19 16 12 41zM360 198q-5 2 -10 0.5t-16.5 -8t-12.5 -6.5q-8 -3 -19 -14q-7 -7 0 -16
q22 -8 36 8q19 20 22 36zM228 96q20 0 30.5 11t8.5 27q-8 4 -19 -4t-17.5 -19.5t-2.5 -14.5zM184 -252q-10 -6 -18 -24l20 -11q2 20 -2 35zM611 -276q-6 5 -18 5v-21q17 15 18 16zM629 -306q0 17 -13 26q-17 -29 -76 -46q-48 -16 -116 -19q-44 -2 -120 11.5t-112 26.5
q-20 7 -30 10q4 -24 4 -36q0 -15 -8.5 -40.5t-10.5 -37.5q-5 -34 24 -57q43 -34 132 -50q73 -13 170 -1q1 0 17 2t20 3t18.5 3t21 4t18.5 5t19 6t15.5 8t14.5 10l5 86q0 6 3.5 38t3.5 48z" />
    <glyph glyph-name="arrowright.ss02" horiz-adv-x="1717" 
d="M1647 294q1 -24 -15 -39t-34 -19.5t-42 -5.5q-10 -2 -75.5 -0.5t-76.5 1.5q-260 0 -294 -1q40 -20 65 -50.5t19 -67.5t-39 -59.5t-70 -14.5q21 -36 -3 -69.5t-63 -38.5q-12 -2 -29 1t-23 1q-6 -6 -15.5 -24t-25.5 -32q-27 -24 -72 -21q-14 1 -37 12.5t-35 13.5
q-15 3 -44 3.5t-41 1.5q-83 8 -174 38q-110 36 -158 45q-1 -8 -8 -14q-1 -1 -31 -16q-4 -2 -17 -2l-20 2q-20 2 -21 -2l-42 -13q-46 -13 -78 6q-20 12 -35 38t-20.5 45.5t-12.5 51.5q-15 72 -6 188q10 118 53 162q137 6 139 6q46 4 63.5 -4.5t18.5 -38.5q72 3 121 28
q12 6 50 37q18 14 59 39q50 30 113 50q35 12 127 18l126 18q50 7 64 13q2 1 44 26q67 41 108 42q25 1 33.5 -21.5t0.5 -66.5q-12 -63 -46 -97t-93 -49q51 -4 160 -17.5t165 -17.5q121 -8 166 -17q98 -19 101 -69zM1175 629q-13 13 -97 -32h1q31 0 48 7q20 9 48 25zM1527 248
q97 0 97 46q0 25 -34 37.5t-95 20.5q-31 4 -90.5 8.5t-70.5 5.5q-47 4 -155 17t-166 18q-58 -18 -75 -18q-16 0 -36 -5q-7 -2 -29.5 -10.5t-37.5 -10.5v6l53 19q18 9 55.5 15.5t45.5 8.5q55 15 96 34q39 18 63.5 54.5t29.5 83.5q2 23 0 41q-22 -20 -53 -30t-56 3
q-7 -2 -18.5 -9.5t-15.5 -9.5q-34 -17 -96 -26q-83 -13 -97 -13q-91 0 -188 -33q-35 -12 -84 -41q-14 -8 -39 -27.5t-35 -26.5q-63 -44 -184 -38q-35 -72 -31 -185q3 -105 36 -193q33 2 70.5 -7t82.5 -25t67 -21q72 -18 118 -27q41 -8 102 -10q-46 31 -63 72q-9 19 -6 45
t19 43q19 14 42 9q-18 40 10 69t69 26q-1 3 -3 6.5t-5 8t-4 6.5q-104 -33 -172 -26q-98 10 -130 77h7q30 -60 126 -66q60 -4 164 33q-11 49 14 74q24 24 77 7q13 -4 35.5 -18t34.5 -18q23 -7 87 -3q46 3 185 3h283zM276 -49q12 0 36 -4q-3 10 -10 30q-13 36 -26.5 112
t-11.5 120q3 68 19 116q17 59 46 76q-9 13 -26 13q-16 0 -48 -3.5t-38 -3.5l-86 -5q-5 -6 -10 -14.5t-8 -15.5t-6 -19t-5 -18.5t-4 -21t-3 -18.5t-3 -20t-2 -17q-12 -97 1 -170q16 -89 50 -132q23 -29 57 -24q12 2 37.5 10.5t40.5 8.5zM338 378q0 12 -5 18q-1 -1 -16 -18h21
zM828 212q9 -7 12.5 -5.5t13.5 14.5q30 38 22 51q-25 7 -41 -12q-12 -15 -7 -48zM1172 96q35 67 -76 134q-58 -5 -73 -5q6 -2 45 -9v-9q-51 3 -82 12q-38 10 -71 38q-9 8 -25 13q2 -12 -9 -31l-20 -35q-4 -7 -13.5 -9t-15.5 2q4 -16 24 -36q30 -30 98.5 -48.5t92.5 -33.5
q2 -1 9.5 -6t9.5 -6l9 -4.5t10 -4.5l9 -3t10.5 -1.5t10 1t11.5 2.5q31 11 46 39zM1076 0q4 34 -41 62q-25 15 -90 35t-98 45q-10 8 -31 4q3 -3 -1 -15q-1 -2 -4 -12.5t-5.5 -16.5t-7 -14t-9.5 -11q-9 -6 -21 -3q5 -9 15 -18.5t16 -14.5t22 -16t18 -12q16 -11 61 -27t65 -35
q8 1 21.5 -2t19.5 -3q29 0 48 15.5t22 38.5zM771 123q-16 -14 -8 -36q9 -7 16 0q11 11 14 19q0 1 6.5 12.5t8 16.5t-0.5 10q-16 -3 -36 -22zM705 13q3 -4 14.5 2.5t19.5 17.5t4 19q-16 2 -27 -8.5t-11 -30.5zM929 -94q3 3 22 33q-9 8 -22.5 15.5t-22.5 11t-26 9t-24 8.5
q-46 18 -93 65q-2 2 -6 2q-1 -15 -21.5 -32.5t-30.5 -15.5q1 -11 4.5 -21.5t9 -19t12 -16.5t14 -14.5t14 -11.5t14 -9.5t12 -7t9.5 -4.5l4 -3q38 -21 69 -21q30 0 62 32zM333 -49q18 8 24 18q-15 4 -35 2z" />
    <glyph glyph-name="arrowdown.ss02" horiz-adv-x="934" 
d="M864 -51q1 -25 -21.5 -33.5t-66.5 -0.5q-63 12 -97 46t-49 93q-4 -51 -17.5 -160t-17.5 -165q-8 -121 -17 -166q-19 -98 -69 -101q-24 -1 -39 15t-19.5 34t-5.5 42q-2 10 -0.5 75.5t1.5 76.5q0 260 -1 294q-20 -40 -50.5 -65t-67.5 -19t-59.5 39t-14.5 70
q-36 -21 -69.5 3t-38.5 63q-2 12 1 29t1 23q-6 6 -24 15.5t-32 25.5q-24 27 -21 72q1 14 12.5 37t13.5 35q3 15 3.5 44t1.5 41q8 83 38 174q36 110 45 158q-7 2 -14 8q-1 1 -16 31q-2 4 -2 17l2 20q2 20 -2 21l-13 42q-13 46 6 78q12 20 38 35t45.5 20.5t51.5 12.5
q72 15 188 6q118 -10 162 -53q6 -137 6 -139q4 -46 -4.5 -63.5t-38.5 -18.5q3 -72 28 -121q6 -12 37 -50q14 -18 39 -59q30 -50 50 -113q12 -35 18 -127l18 -126q7 -50 13 -64q1 -2 26 -44q41 -67 42 -108zM147 911q2 -12 10.5 -37.5t8.5 -40.5q0 -12 -4 -36q10 3 30 10
q36 13 112 26.5t120 11.5q68 -3 116 -19q59 -17 76 -46q13 9 13 26q0 16 -3.5 48t-3.5 38l-5 86q-6 5 -14.5 10t-15.5 8t-19 6t-18.5 5t-21 4t-18.5 3t-20 3t-17 2q-97 12 -170 -1q-89 -16 -132 -50q-29 -23 -24 -57zM793 -69q23 -2 41 0q-20 22 -30 53t3 56q-2 7 -9.5 18.5
t-9.5 15.5q-17 34 -26 96q-13 83 -13 97q0 91 -33 188q-12 35 -41 84q-8 14 -27.5 39t-26.5 35q-44 63 -38 184q-72 35 -185 31q-105 -3 -193 -36q2 -33 -7 -70.5t-25 -82.5t-21 -67q-18 -72 -27 -118q-8 -41 -10 -102q31 46 72 63q19 9 45 6t43 -19q14 -19 9 -42
q40 18 69 -10t26 -69q3 1 6.5 3t8 5t6.5 4q-33 104 -26 172q10 98 77 130v-7q-60 -30 -66 -126q-4 -60 33 -164q49 11 74 -14q24 -24 7 -77q-4 -13 -18 -35.5t-18 -34.5q-7 -23 -3 -87q3 -46 3 -185v-283q0 -97 46 -97q25 0 37.5 34t20.5 95q4 31 8.5 90.5t5.5 70.5
q4 47 17 155t18 166q-18 59 -18 75t-5 36q-2 7 -10.5 29.5t-10.5 37.5h6l19 -53q9 -18 15.5 -55.5t8.5 -45.5q15 -55 34 -96q18 -39 54.5 -63.5t83.5 -29.5zM593 771q12 0 18 5q-1 1 -18 16v-21zM166 776q8 -18 18 -24q4 15 2 35zM121 180q3 -3 33 -22q8 9 15.5 22.5
t11 22.5t9 26t8.5 24q18 46 65 93q2 2 2 6q-15 1 -32.5 21.5t-15.5 30.5q-11 -1 -21.5 -4.5t-19 -9t-16.5 -12t-14.5 -14t-11.5 -14t-9.5 -14t-7 -12t-5.5 -8.5l-2 -5q-21 -38 -21 -69q0 -30 32 -62zM228 404q-4 -3 2.5 -14.5t17.5 -19.5t19 -4q2 16 -8.5 27t-30.5 11z
M302 346q-7 -9 0 -16q11 -11 19 -14q1 0 12.5 -6.5t16.5 -8t10 0.5q-3 16 -22 36q-14 16 -36 8zM215 33q34 -4 62 41q15 25 35 90t45 98q7 10 4 31q-3 -3 -15 1q-2 1 -12.5 4t-16.5 5.5t-14 7t-11 9.5q-6 9 -3 21q-9 -5 -18.5 -15t-14.5 -16t-16 -22t-12 -18
q-11 -16 -27 -61t-35 -65q1 -8 -2 -21.5t-3 -19.5q0 -29 15.5 -48t38.5 -22zM427 281q-7 -9 -5.5 -12.5t14.5 -13.5q38 -30 51 -22q7 25 -12 41q-15 12 -48 7zM431 41h-9q3 51 12 82q10 38 38 71q8 9 13 25q-12 -2 -31 9l-35 20q-7 4 -9 13.5t2 15.5q-16 -4 -36 -24
q-30 -30 -48.5 -98.5t-33.5 -92.5q-1 -2 -6 -9.5t-6 -9.5l-4.5 -9t-4.5 -10l-3 -9t-1.5 -10.5t1 -10t2.5 -11.5q11 -31 39 -46q67 -35 134 76q-5 57 -5 73q-2 -6 -9 -45zM844 -66q13 13 -32 97v-1q0 -31 7 -48q9 -20 25 -48z" />
    <glyph glyph-name="arrowleft.ss02" horiz-adv-x="1717" 
d="M1643 251q9 -116 -6 -188q-7 -32 -12.5 -51.5t-20.5 -45.5t-35 -38q-32 -19 -78 -6l-42 13q-1 4 -21 2l-20 -2q-13 0 -17 2q-30 15 -31 16q-6 7 -8 14q-48 -9 -158 -45q-91 -30 -174 -38q-12 -1 -41 -1.5t-44 -3.5q-12 -2 -35 -13.5t-37 -12.5q-45 -3 -72 21
q-16 14 -25.5 32t-15.5 24q-6 2 -23 -1t-29 -1q-39 5 -63 38.5t-3 69.5q-37 -8 -70 14.5t-39 59.5t19 67.5t65 50.5q-34 1 -294 1q-11 0 -76.5 -1.5t-75.5 0.5q-24 1 -42 5.5t-34 19.5t-15 39q3 50 101 69q45 9 166 17q56 4 165 17.5t160 17.5q-59 15 -93 49t-46 97
q-8 44 0.5 66.5t33.5 21.5q41 -1 108 -42q42 -25 44 -26q14 -6 64 -13q14 -2 39.5 -6.5t46.5 -7.5t40 -4q92 -6 127 -18q63 -20 113 -50q41 -25 59 -39q38 -31 50 -37q49 -25 121 -28q1 30 18.5 38.5t63.5 4.5q2 0 139 -6q43 -44 53 -162zM639 595q-84 45 -97 32
q28 -16 48 -25q18 -7 48 -7h1zM1180 -65q22 5 67 21t82.5 25t70.5 7q33 88 36 193q4 113 -31 185q-121 -6 -184 38q-10 7 -35 26.5t-39 27.5q-49 29 -84 41q-97 33 -188 33q-14 0 -97 13q-62 9 -96 26q-4 2 -15.5 9.5t-18.5 9.5q-25 -13 -56 -3t-53 30q-2 -18 0 -41
q5 -47 29.5 -83.5t63.5 -54.5q41 -19 96 -34q8 -2 45.5 -8.5t55.5 -15.5l53 -19v-6q-15 2 -37.5 10.5t-29.5 10.5q-20 5 -36 5q-17 0 -75 18q-58 -5 -166 -18t-155 -17q-11 -1 -70.5 -5.5t-90.5 -8.5q-61 -8 -95 -20.5t-34 -37.5q0 -46 97 -46h283q139 0 185 -3q64 -4 87 3
q12 4 34.5 18t35.5 18q53 17 77 -7q25 -25 14 -74q104 -37 164 -33q96 6 126 66h7q-32 -67 -130 -77q-68 -7 -172 26q-1 -2 -4 -6.5t-5 -8t-3 -6.5q41 3 69 -26t10 -69q23 5 42 -9q16 -17 19 -43t-6 -45q-17 -41 -63 -72q61 2 102 10q46 9 118 27zM1626 86q13 73 1 170
q0 1 -2 17t-3 20t-3 18.5t-4 21t-5 18.5t-6 19t-8 15.5t-10 14.5l-86 5q-6 0 -38 3.5t-48 3.5q-17 0 -26 -13q29 -17 46 -76q16 -48 19 -116q2 -44 -11.5 -120t-26.5 -112q-7 -20 -10 -30q24 4 36 4q15 0 40.5 -8.5t37.5 -10.5q34 -5 57 24q34 43 50 132zM1384 394
q-5 -6 -5 -18h21q-15 17 -16 18zM841 270q-8 -13 22 -51q10 -13 13.5 -14.5t12.5 5.5q5 33 -7 48q-16 19 -41 12zM591 55q6 -2 11.5 -2.5t10 -1t10.5 1.5l9 3t10 4.5l9 4.5t9.5 6t9.5 6q24 15 92.5 33.5t98.5 48.5q20 20 24 36q-6 -4 -15.5 -2t-13.5 9l-20 35q-11 19 -9 31
q-16 -5 -25 -13q-33 -28 -71 -38q-31 -9 -82 -12v9q39 7 45 9q-16 0 -73 5q-111 -67 -76 -134q15 -28 46 -39zM711 -56q6 0 19.5 3t21.5 2q20 19 65 35t61 27q2 1 18 12t22 16t16 14.5t15 18.5q-12 -3 -21 3q-5 3 -9.5 11t-7 14t-5.5 16.5t-4 12.5q-4 12 -1 15q-21 4 -31 -4
q-33 -25 -98 -45t-90 -35q-45 -28 -41 -62q3 -23 22 -38.5t48 -15.5zM910 143q-2 -5 -0.5 -10t8 -16.5t6.5 -12.5q3 -8 14 -19q7 -7 16 0q8 22 -8 36q-20 19 -36 22zM974 50q-4 -8 4 -19t19.5 -17.5t14.5 -2.5q0 20 -11 30.5t-27 8.5zM919 -107l5 3q4 2 8.5 4.5t12 7t14 9.5
t14 11.5t14 14.5t12 16.5t9 19t4.5 21.5q-10 -2 -30.5 15.5t-21.5 32.5q-4 0 -6 -2q-47 -47 -93 -65q-7 -3 -24 -8.5t-26 -9t-22.5 -11t-22.5 -15.5q19 -30 22 -33q32 -32 62 -32q31 0 69 21zM1384 -51l11 20q-20 2 -35 -2q6 -10 24 -18z" />
    </font>
</defs>
</svg>
