<?xml version="1.0" standalone="no"?>
<!DOCTYPE svg PUBLIC "-//W3C//DTD SVG 1.1//EN" "http://www.w3.org/Graphics/SVG/1.1/DTD/svg11.dtd" >
<svg xmlns="http://www.w3.org/2000/svg" xmlns:xlink="http://www.w3.org/1999/xlink" version="1.1">
<metadata>
Created by FontForge 20170731 at Mon Nov 11 17:42:27 2019
 By Aleksey,,,
Copyright (c) 2019 by Mathieu Desjardins. All rights reserved.
</metadata>
<defs>
<font id="Hatton-Ultralight" horiz-adv-x="0" >
  <font-face 
    font-family="Hatton Ultralight"
    font-weight="200"
    font-stretch="normal"
    units-per-em="1000"
    panose-1="0 0 3 0 0 0 0 0 0 0"
    ascent="800"
    descent="-200"
    x-height="460"
    cap-height="800"
    bbox="-363 -538.375 1833 1038.38"
    underline-thickness="10"
    underline-position="-80"
    unicode-range="U+0020-2265"
  />
<missing-glyph horiz-adv-x="550" 
d="M451 800v-1100h-349v1100h349zM366 726h-181v-36h71v-41h-72v-36h182v36h-72v41h72v36zM294 584h-110v-114h182v37h-72v77zM256 547v-40h-36v40h36zM366 440h-182v-36h72v-41h-72v-36h110v77h72v36zM366 374h-36v-72h-146v-38h182v110zM366 240h-110v-61h38v25h36v-52
h-110v88h-36v-124h182v124zM366 50h-182v-124h182v124zM330 14v-52h-110v52h110zM366 -100h-182v-36h77l-77 -52v-36h182v36h-112l77 52h35v36z" />
    <glyph glyph-name="f_f" unicode="ff" horiz-adv-x="540" 
d="M478 820q11 0 21.5 -1t23.5 -4.5t20.5 -5.5t24 -8.5t21.5 -8.5t26 -10.5t25 -10.5q0 -14 -13.5 -18.5t-35.5 6.5q-7 4 -29 19.5t-41.5 23.5t-42.5 8q-62 0 -90.5 -59.5t-28.5 -203.5v-87h152v-10h-152v-270q0 -87 5 -180h-35q5 93 5 180v270h-185v-270q0 -87 5 -180h-35
q5 93 5 180v270h-104v10h104v57q0 77 10.5 130.5t30.5 81.5t43.5 39.5t54.5 11.5q49 0 94 -47q32 87 121 87zM334 460v87q0 109 19 174q-43 49 -90 49q-54 0 -84 -57.5t-30 -195.5v-57h185z" />
    <glyph glyph-name="f_f_i" unicode="ffi" horiz-adv-x="709" 
d="M616 460q-5 -63 -5 -170v-120q0 -107 5 -170h-35q5 63 5 170v120q0 101 -4 160h-223v-270q0 -87 5 -180h-35q5 93 5 180v270h-185v-270q0 -87 5 -180h-35q5 93 5 180v270h-104v10h104v57q0 77 10.5 130.5t30.5 81.5t43.5 39.5t54.5 11.5q50 0 98 -50q35 90 117 90
q47 0 86 -36.5t75 -143.5l-40 -40l-40 40q13 170 -81 170q-119 0 -119 -263v-87h257zM334 460v87q0 105 22 171q-45 52 -93 52q-54 0 -84 -57.5t-30 -195.5v-57h185z" />
    <glyph glyph-name="f_i" unicode="fi" horiz-adv-x="499" 
d="M406 460q-5 -63 -5 -170v-120q0 -107 5 -170h-35q5 63 5 170v120q0 101 -4 160h-223v-270q0 -87 5 -180h-35q5 93 5 180v270h-104v10h104v87q0 273 144 273q47 0 86 -36.5t75 -143.5l-40 -40l-40 40q13 170 -81 170q-119 0 -119 -263v-87h257z" />
    <glyph glyph-name=".notdef" horiz-adv-x="550" 
d="M451 800v-1100h-349v1100h349zM366 726h-181v-36h71v-41h-72v-36h182v36h-72v41h72v36zM294 584h-110v-114h182v37h-72v77zM256 547v-40h-36v40h36zM366 440h-182v-36h72v-41h-72v-36h110v77h72v36zM366 374h-36v-72h-146v-38h182v110zM366 240h-110v-61h38v25h36v-52
h-110v88h-36v-124h182v124zM366 50h-182v-124h182v124zM330 14v-52h-110v52h110zM366 -100h-182v-36h77l-77 -52v-36h182v36h-112l77 52h35v36z" />
    <glyph glyph-name=".null" 
 />
    <glyph glyph-name="nonmarkingreturn" horiz-adv-x="333" 
 />
    <glyph glyph-name="space" unicode=" " horiz-adv-x="280" 
 />
    <glyph glyph-name="exclam" unicode="!" horiz-adv-x="220" 
d="M92 780l18 20l18 -20q-9 -170 -13 -600h-10q-2 403 -13 600zM110 -20l-40 40l40 40l40 -40z" />
    <glyph glyph-name="quotedbl" unicode="&#x22;" horiz-adv-x="270" 
d="M70 800h35q-12 -215 -13 -280h-10q-1 78 -12 280zM165 800h35q-12 -215 -13 -280h-10q-1 78 -12 280z" />
    <glyph glyph-name="numbersign" unicode="#" horiz-adv-x="983" 
d="M913 440h-215l-82 -320h239v-20h-245l-65 -252h-21l65 252h-289l-65 -252h-21l65 252h-209v20h215l82 320h-239v20h245l65 252h21l-65 -252h289l65 252h21l-65 -252h209v-20zM595 120l82 320h-289l-82 -320h289z" />
    <glyph glyph-name="dollar" unicode="$" horiz-adv-x="684" 
d="M391 430q136 -75 179.5 -119.5t43.5 -111.5t-58.5 -113t-154.5 -46q-18 0 -27 1q0 -56 1 -81h-25q1 26 1 82q-90 10 -158.5 67t-122.5 187l30 30q23 -126 89.5 -192.5t162.5 -80.5q2 224 2 372q-126 71 -168 109.5t-42 98.5q0 66 50 101.5t124 35.5q11 0 33 -2
q0 13 -0.5 37t-0.5 35h25q0 -12 -0.5 -37t-0.5 -38q92 -17 186 -101l-30 -30q-58 100 -156 120q-3 -141 -3 -313zM159 641q0 -25 9.5 -46t21 -36.5t42 -36t52 -33t70.5 -39.5q0 170 -3 308q-20 2 -33 2q-66 0 -112.5 -31t-46.5 -88zM401 50q89 0 143.5 42.5t54.5 106.5
q0 57 -47 99t-181 117q0 -146 2 -364q10 -1 28 -1z" />
    <glyph glyph-name="percent" unicode="%" horiz-adv-x="1069" 
d="M242 818q125 14 246 6t230 -30q-209 -469 -330 -794l-38 6q205 458 327 786q-33 2 -160.5 14.5t-203.5 8.5q72 -15 114.5 -75.5t42.5 -129.5q0 -80 -55.5 -145t-144.5 -65t-144.5 65t-55.5 145q0 74 47 135.5t125 72.5zM440 610q0 78 -43.5 139t-126.5 61t-126.5 -61
t-43.5 -139t43.5 -139t126.5 -61t126.5 61t43.5 139zM799 400q89 0 144.5 -65t55.5 -145t-55.5 -145t-144.5 -65t-144.5 65t-55.5 145t55.5 145t144.5 65zM799 -10q83 0 126.5 60.5t43.5 139.5q0 78 -43.5 139t-126.5 61t-126.5 -61t-43.5 -139q0 -79 43.5 -139.5
t126.5 -60.5z" />
    <glyph glyph-name="ampersand" unicode="&#x26;" horiz-adv-x="784" 
d="M694 150l40 -20q-4 -77 -38.5 -113.5t-91.5 -36.5q-53 0 -113 46q-70 -46 -167 -46q-116 0 -195 56t-79 164q0 71 38.5 122t104.5 96q-74 135 -74 230q0 75 47.5 123.5t131.5 48.5q78 0 119.5 -43.5t41.5 -102.5q0 -63 -37.5 -109t-129.5 -102q-46 -28 -68 -42
q43 -78 138 -212q80 -115 131 -164q78 63 86.5 167t-63.5 205l30 30q73 -117 60 -231.5t-102 -180.5q53 -45 100 -45t71.5 40t18.5 120zM149 648q0 -85 68 -214l68 41q85 52 114.5 95t29.5 104q0 57 -32 96.5t-99 39.5q-71 0 -110 -45t-39 -117zM324 -10q90 0 156 45
q-56 47 -145 166q-85 114 -135 204q-58 -42 -89 -89.5t-31 -115.5q0 -98 67 -154t177 -56z" />
    <glyph glyph-name="quotesingle" unicode="'" horiz-adv-x="175" 
d="M70 800h35q-12 -215 -13 -280h-10q-1 78 -12 280z" />
    <glyph glyph-name="parenleft" unicode="(" horiz-adv-x="360" 
d="M70 380q0 144 69.5 268.5t190.5 191.5v-10q-110 -66 -170 -188t-60 -262q0 -147 57 -276.5t169 -193.5v-10q-122 65 -189 197t-67 283z" />
    <glyph glyph-name="parenright" unicode=")" horiz-adv-x="360" 
d="M290 380q0 -151 -67 -283t-189 -197v10q112 64 169 193.5t57 276.5q0 140 -60 262t-170 188v10q121 -67 190.5 -191.5t69.5 -268.5z" />
    <glyph glyph-name="asterisk" unicode="*" horiz-adv-x="573" 
d="M503 567q-101 8 -203 12q59 -56 152 -135l-25 -25q-78 92 -136 153q3 -83 13 -204h-35q10 121 12 203q-65 -70 -135 -152l-25 25q93 79 152 135q-82 -3 -203 -13v35q120 -10 204 -12q-76 71 -153 135l25 25q71 -83 135 -151q-4 102 -12 202h35q-10 -121 -13 -203
q58 60 136 152l25 -25q-93 -79 -153 -135q82 2 203 12z" />
    <glyph glyph-name="plus" unicode="+" horiz-adv-x="553" 
d="M503 272v-25q-109 6 -220 6q0 -111 6 -220h-25q5 122 5 220q-109 0 -219 -6v25q122 -5 219 -5q0 97 -5 219h25q-6 -110 -6 -219q98 0 220 5z" />
    <glyph glyph-name="comma" unicode="," horiz-adv-x="220" 
d="M110 -20l-40 40l40 40l40 -40l-75 -155l-5 5z" />
    <glyph glyph-name="hyphen" unicode="-" horiz-adv-x="653" 
d="M70 272q257 -12 513 0v-25q-257 14 -513 0v25z" />
    <glyph glyph-name="period" unicode="." horiz-adv-x="220" 
d="M110 -20l-40 40l40 40l40 -40z" />
    <glyph glyph-name="slash" unicode="/" horiz-adv-x="562" 
d="M461 803l31 -14q-89 -197 -203.5 -477t-187.5 -481l-31 14q89 197 203.5 477t187.5 481z" />
    <glyph glyph-name="zero" unicode="0" horiz-adv-x="800" 
d="M400 -20q-138 0 -229 116.5t-91 303.5q0 186 91 303t229 117t229 -117t91 -303t-91 -303t-229 -117zM400 -10q126 0 208 117.5t82 292.5q0 174 -82 292t-208 118q-127 0 -208.5 -117.5t-81.5 -292.5t81.5 -292.5t208.5 -117.5z" />
    <glyph glyph-name="one" unicode="1" horiz-adv-x="287" 
d="M53 472l-23 12q102 154 134 316h33q-6 -102 -6 -180v-440q0 -87 5 -180h-35q5 93 5 180v595q-19 -119 -113 -303z" />
    <glyph glyph-name="two" unicode="2" horiz-adv-x="629" 
d="M60 0q17 38 36.5 72.5t45 66.5t42 53t49.5 51t43.5 40t47.5 40.5t39 32.5q42 35 65.5 57t51 55.5t40 68.5t12.5 75q0 89 -56.5 143.5t-151.5 54.5q-94 0 -153 -50t-59 -120q0 -88 114 -134l-20 -40q-114 64 -114 174q0 74 64.5 127t167.5 53q107 0 172.5 -57.5
t65.5 -150.5q0 -40 -14 -76t-44 -70.5t-54.5 -57.5t-68.5 -59q-13 -11 -53.5 -43t-63.5 -52.5t-58.5 -56t-65.5 -78.5t-57 -94h236q159 0 270 20l-30 -45h-499z" />
    <glyph glyph-name="three" unicode="3" horiz-adv-x="620" 
d="M325 426q115 16 185 -37.5t70 -161.5q0 -104 -68 -175.5t-195 -71.5q-117 0 -188 66.5t-79 181.5h10q7 -110 77.5 -174t179.5 -64q115 0 174 68.5t59 168.5q0 101 -61 156.5t-196 27.5l-2 10q106 49 152.5 106t46.5 139q0 58 -34 101t-109 43q-45 0 -81.5 -17t-61.5 -48
t-40 -57.5t-29 -61.5l-40 20q93 174 252 174q85 0 129 -46.5t44 -111.5q0 -42 -16.5 -78.5t-47 -65.5t-60.5 -49.5t-71 -42.5z" />
    <glyph glyph-name="four" unicode="4" horiz-adv-x="664" 
d="M614 244h-150v-64q0 -87 5 -180h-35q5 93 5 180v64h-399v10q95 89 171.5 180.5t121.5 164t69.5 120t36.5 81.5h31q-6 -102 -6 -180v-349q90 3 170 18zM374 269q44 0 65 1v501q-118 -257 -361 -494q102 -8 296 -8z" />
    <glyph glyph-name="five" unicode="5" horiz-adv-x="610" 
d="M159 800h348l20 -45q-111 20 -260 20h-101l-50 -354q117 79 217 79q99 0 163 -65.5t64 -176.5q0 -126 -76 -202t-190 -76q-118 0 -182 61.5t-72 179.5h10q7 -113 70.5 -172t173.5 -59q101 0 168.5 73t67.5 195q0 107 -59.5 164.5t-148.5 57.5q-91 0 -212 -78l-6 5z" />
    <glyph glyph-name="six" unicode="6" horiz-adv-x="690" 
d="M370 500q100 0 170 -69.5t70 -190.5q0 -117 -74.5 -188.5t-178.5 -71.5q-143 0 -210 104t-67 286q0 201 77.5 325.5t207.5 124.5q120 0 210 -114l-40 -20q-23 50 -65.5 87t-104.5 37q-118 0 -186.5 -121t-68.5 -315v-10q124 136 260 136zM357 -10q93 0 158 67.5t65 182.5
q0 120 -59 185t-151 65q-125 0 -260 -135q7 -365 247 -365z" />
    <glyph glyph-name="seven" unicode="7" horiz-adv-x="556" 
d="M506 800v-10l-255 -635q-28 -69 -54 -155h-31q47 91 71 150l251 625h-211q-133 0 -237 -20l-30 45h496z" />
    <glyph glyph-name="eight" unicode="8" horiz-adv-x="679" 
d="M396 433q94 -16 153.5 -75.5t59.5 -148.5q0 -103 -77.5 -166t-191.5 -63q-115 0 -192.5 63t-77.5 166q0 89 59.5 148.5t153.5 75.5q-78 16 -120.5 71.5t-42.5 119.5q0 76 58 136t162 60q103 0 161 -60t58 -136q0 -64 -42.5 -119.5t-120.5 -71.5zM150 624q0 -73 49 -130
t141 -57q91 0 140 57t49 130q0 72 -49 129t-140 57q-92 0 -141 -57t-49 -129zM340 -10q101 0 170 60t69 159t-69 158.5t-170 59.5q-102 0 -171 -59.5t-69 -158.5t69 -159t171 -60z" />
    <glyph glyph-name="nine" unicode="9" horiz-adv-x="670" 
d="M313 820q143 0 210 -104t67 -286q0 -201 -77.5 -325.5t-207.5 -124.5q-120 0 -210 114l40 20q23 -50 65.5 -87t104.5 -37q118 0 186.5 121t68.5 315v10q-124 -136 -260 -136q-100 0 -170 69.5t-70 190.5q0 117 74.5 188.5t178.5 71.5zM300 310q125 0 260 135
q-7 365 -247 365q-93 0 -158 -67.5t-65 -182.5q0 -120 59 -185t151 -65z" />
    <glyph glyph-name="colon" unicode=":" horiz-adv-x="220" 
d="M110 400l-40 40l40 40l40 -40zM110 -20l-40 40l40 40l40 -40z" />
    <glyph glyph-name="semicolon" unicode=";" horiz-adv-x="220" 
d="M110 400l-40 40l40 40l40 -40zM110 -20l-40 40l40 40l40 -40l-75 -155l-5 5z" />
    <glyph glyph-name="less" unicode="&#x3c;" horiz-adv-x="389" 
d="M339 94l-13 -22q-50 37 -89.5 64.5t-100.5 67t-86 56.5q25 17 86 56.5t100.5 67t89.5 64.5l13 -22q-111 -64 -264 -166q153 -102 264 -166z" />
    <glyph glyph-name="equal" unicode="=" horiz-adv-x="553" 
d="M50 352q226 -10 453 0v-25q-227 12 -453 0v25zM50 192q226 -10 453 0v-25q-227 12 -453 0v25z" />
    <glyph glyph-name="greater" unicode="&#x3e;" horiz-adv-x="389" 
d="M50 94q111 64 264 166q-153 102 -264 166l13 22q50 -37 89.5 -64.5t100.5 -67t86 -56.5q-25 -17 -86 -56.5t-100.5 -67t-89.5 -64.5z" />
    <glyph glyph-name="question" unicode="?" horiz-adv-x="481" 
d="M70 651q56 169 197 169q58 0 101 -40t43 -113q0 -47 -19 -89.5t-46.5 -78.5t-54.5 -76t-46 -100.5t-19 -132.5h-10q0 72 17 132.5t41 100.5t48.5 76t41.5 78.5t17 89.5q0 65 -31 104t-83 39q-121 0 -157 -179zM221 -20l-40 40l40 40l40 -40z" />
    <glyph glyph-name="at" unicode="@" horiz-adv-x="917" 
d="M488 715q191 0 295.5 -117t78.5 -296q-16 -107 -67.5 -171t-126.5 -64q-46 0 -67 24t-18 57t8 67q-31 -71 -86 -114.5t-124 -43.5q-93 0 -136 74.5t-24 175.5q20 107 90.5 178.5t163.5 71.5q97 0 158 -105v-5l19 110h25l-55 -310q-1 -4 -3.5 -19.5t-4 -23.5t-3.5 -24
t-1.5 -26t1.5 -23.5t5.5 -21.5t10.5 -16t16.5 -12t24.5 -4q68 0 118 59t65 166q26 174 -74.5 288.5t-290.5 114.5q-174 0 -286.5 -102.5t-134.5 -265.5q-25 -182 81 -301.5t310 -119.5q89 0 153 20t137 67l5 -9q-72 -47 -139.5 -67.5t-157.5 -20.5q-206 0 -315.5 122
t-83.5 309q23 168 138.5 273t294.5 105zM382 67q84 0 142.5 62.5t79.5 155.5l28 158q-65 104 -159 104q-86 0 -143.5 -67.5t-78.5 -172.5q-20 -99 12 -169.5t119 -70.5z" />
    <glyph glyph-name="A" unicode="A" horiz-adv-x="596" 
d="M510 94q14 -50 36 -94h-42q-3 34 -20 94l-58 203h-274l-59 -203q-3 -10 -7.5 -24.5t-7 -22.5t-5 -20.5t-3.5 -26.5h-20q11 23 32 93l196 671q4 17 -4 36h33zM155 307h268l-133 461z" />
    <glyph glyph-name="B" unicode="B" horiz-adv-x="564" 
d="M290 459q42 -7 79 -23t71 -43t54 -71t20 -99q0 -62 -25 -107t-69.5 -69.5t-96 -35.5t-113.5 -11h-140q5 93 5 180v440q0 87 -5 180h130q50 0 90 -6t82.5 -23t66.5 -54t24 -92q0 -144 -173 -166zM100 790v-325h116q115 0 166 41t51 119q0 41 -16.5 72.5t-41 48.5t-58 27.5
t-60.5 13.5t-57 3h-100zM210 10q117 0 195.5 53.5t78.5 162.5q0 65 -28 113t-71 71.5t-83 34t-76 10.5h-10h-116v-445h110z" />
    <glyph glyph-name="C" unicode="C" horiz-adv-x="816" 
d="M766 326h10q-32 -161 -118 -253.5t-230 -92.5q-173 0 -270.5 123.5t-97.5 306.5q0 174 106 292t264 118q198 0 300 -201l-40 -10q-32 88 -96.5 144.5t-163.5 56.5q-148 0 -244 -116t-96 -284q0 -85 21 -159.5t61.5 -133t106.5 -93t149 -34.5q138 0 222 91t116 245z" />
    <glyph glyph-name="D" unicode="D" horiz-adv-x="657" 
d="M70 0q5 93 5 180v440q0 87 -5 180h150q177 0 277 -103.5t100 -296.5q0 -187 -99.5 -293.5t-277.5 -106.5h-150zM220 10q154 0 250.5 103.5t96.5 286.5q0 189 -95.5 289.5t-251.5 100.5h-120v-780h120z" />
    <glyph glyph-name="E" unicode="E" horiz-adv-x="529" 
d="M70 800h396l-30 -30q-104 20 -237 20h-97v-358h76q107 0 200 10v-30q-93 10 -200 10h-76v-412h137q149 0 260 20l-20 -30h-409q7 93 7 180v440q0 87 -7 180z" />
    <glyph glyph-name="F" unicode="F" horiz-adv-x="516" 
d="M70 800h416l-30 -30q-104 20 -237 20h-117v-408h56q107 0 200 10v-30q-93 10 -200 10h-56v-192q0 -87 7 -180h-39q7 93 7 180v440q0 87 -7 180z" />
    <glyph glyph-name="G" unicode="G" horiz-adv-x="853" 
d="M833 396h-87v-176q0 -117 10 -220h-30q10 103 10 220v74q-25 -151 -105.5 -232.5t-209.5 -81.5q-163 0 -262 125t-99 305q0 174 106 292t264 118q198 0 300 -201l-40 -10q-32 88 -96.5 144.5t-163.5 56.5q-148 0 -244 -116t-96 -284q0 -174 89 -294.5t242 -120.5
q144 0 225.5 105.5t89.5 295.5h-27q-133 0 -237 -20l-30 30h391v-10z" />
    <glyph glyph-name="H" unicode="H" horiz-adv-x="608" 
d="M533 620v-440q0 -87 5 -180h-35q5 93 5 180v215h-408v-215q0 -87 5 -180h-35q5 93 5 180v440q0 87 -5 180h35q-5 -93 -5 -180v-215h408v215q0 87 -5 180h35q-5 -93 -5 -180z" />
    <glyph glyph-name="I" unicode="I" horiz-adv-x="175" 
d="M70 800h35q-5 -93 -5 -180v-440q0 -87 5 -180h-35q5 93 5 180v440q0 87 -5 180z" />
    <glyph glyph-name="J" unicode="J" horiz-adv-x="195" 
d="M90 800h35q-5 -93 -5 -180v-664q0 -76 -22 -113t-73 -63l-5 8q43 25 59 59t16 109v664q0 87 -5 180z" />
    <glyph glyph-name="K" unicode="K" horiz-adv-x="632" 
d="M499 104q48 -56 103 -104h-54q-25 37 -82 104l-283 331l-83 -95v-160q0 -87 5 -180h-35q5 93 5 180v440q0 87 -5 180h35q-5 -93 -5 -180v-265l306 351q44 50 72 94h29q-38 -36 -87 -93l-220 -253z" />
    <glyph glyph-name="L" unicode="L" horiz-adv-x="499" 
d="M72 800h35q-5 -93 -5 -180v-610h97q149 0 260 20l-20 -30h-369q7 93 7 180v440q0 87 -5 180z" />
    <glyph glyph-name="M" unicode="M" horiz-adv-x="896" 
d="M70 0q5 93 5 180v440q0 87 -5 180h19l365 -784l352 784h20q-5 -93 -5 -180v-440q0 -87 5 -180h-35q5 93 5 180v572l-347 -772h-6l-358 769v-569q0 -87 5 -180h-20z" />
    <glyph glyph-name="N" unicode="N" horiz-adv-x="694" 
d="M619 620v-440q0 -87 5 -180h-20l-519 763v-583q0 -87 5 -180h-20q5 93 5 180v440q0 87 -5 180h20l519 -763v583q0 87 -5 180h20q-5 -93 -5 -180z" />
    <glyph glyph-name="O" unicode="O" horiz-adv-x="960" 
d="M480 -20q-180 0 -300 122t-120 298q0 175 120 297.5t300 122.5q179 0 299.5 -122.5t120.5 -297.5q0 -176 -120.5 -298t-299.5 -122zM480 -10q111 0 202 58.5t139.5 152t48.5 199.5q0 163 -111.5 286.5t-278.5 123.5q-112 0 -202.5 -59t-139 -152.5t-48.5 -198.5
q0 -106 48.5 -199.5t139 -152t202.5 -58.5z" />
    <glyph glyph-name="P" unicode="P" horiz-adv-x="543" 
d="M70 0q5 93 5 180v440q0 87 -5 180h120q303 0 303 -215t-303 -215h-90v-190q0 -87 5 -180h-35zM100 380h90q55 0 100 9.5t86 31t64 63.5t23 101t-23 101t-64 63.5t-86 31t-100 9.5h-90v-410z" />
    <glyph glyph-name="Q" unicode="Q" horiz-adv-x="960" 
d="M900 400q0 -151 -91.5 -265.5t-236.5 -145.5q0 -1 2 -3q26 -36 56 -54t78 -18v-10q-109 0 -156 62l-13 18q-25 -4 -59 -4q-180 0 -300 122t-120 298q0 175 120 297.5t300 122.5q179 0 299.5 -122.5t120.5 -297.5zM564 -1q136 31 221 145.5t85 255.5q0 163 -111.5 286.5
t-278.5 123.5q-112 0 -202.5 -59t-139 -152.5t-48.5 -198.5q0 -132 75.5 -242.5t198.5 -149.5q39 61 94 61q35 0 58 -17.5t48 -52.5zM480 -10q30 0 53 4q-15 24 -21.5 33t-22.5 20.5t-34 11.5q-49 0 -81 -54q50 -15 106 -15z" />
    <glyph glyph-name="R" unicode="R" horiz-adv-x="662" 
d="M425 195q40 -109 81.5 -147t115.5 -38v-10q-50 0 -84.5 10.5t-59 36.5t-40 56t-35.5 83q-40 107 -100 145.5t-153 38.5h-50v-190q0 -87 5 -180h-35q5 93 5 180v440q0 87 -5 180h120q303 0 303 -215q0 -195 -249 -213q126 -27 181 -177zM100 380h90q55 0 100 9.5t86 31
t64 63.5t23 101t-23 101t-64 63.5t-86 31t-100 9.5h-90v-410z" />
    <glyph glyph-name="S" unicode="S" horiz-adv-x="563" 
d="M40 246l40 10q4 -119 72 -192.5t168 -73.5q80 0 131.5 45.5t51.5 133.5q0 18 -5 36.5t-11 33t-22 33.5t-26 31t-35 34t-38.5 33t-46.5 38.5t-49 40.5q-11 9 -34 28t-31.5 26t-26 22t-24 21.5t-18.5 19.5t-16 20.5t-11.5 19.5t-9.5 22t-4 22.5t-2 25.5q0 67 45.5 105.5
t123.5 38.5q152 0 227 -176l-40 -10q-7 73 -53.5 124.5t-133.5 51.5q-69 0 -109 -34t-40 -92q0 -23 6.5 -44t15 -35.5t28.5 -34.5t34 -31.5t44.5 -36t48.5 -39.5q12 -10 35 -29q60 -50 87 -74t58 -58.5t42 -65t11 -67.5q0 -91 -57.5 -140t-145.5 -49q-218 0 -280 266z" />
    <glyph glyph-name="T" unicode="T" horiz-adv-x="559" 
d="M539 800l-30 -30q-104 20 -207 20h-10v-610q0 -87 5 -180h-35q5 93 5 180v610h-10q-103 0 -207 -20l-30 30h519z" />
    <glyph glyph-name="U" unicode="U" horiz-adv-x="644" 
d="M60 800h35q-5 -93 -5 -180v-280q0 -181 57 -263t177 -82q123 0 184 80t61 265v280q0 87 -5 180h20q-5 -93 -5 -180v-280q0 -191 -64 -275.5t-193 -84.5q-65 0 -110.5 17t-79.5 57t-50.5 111t-16.5 175v280q0 87 -5 180z" />
    <glyph glyph-name="V" unicode="V" horiz-adv-x="596" 
d="M50 800h42q3 -34 20 -94l194 -674l197 674q3 10 7.5 24.5t7 22.5t5 20.5t3.5 26.5h20q-11 -23 -32 -93l-196 -671q-4 -17 4 -36h-33l-203 706q-14 50 -36 94z" />
    <glyph glyph-name="W" unicode="W" horiz-adv-x="911" 
d="M829 707l-196 -671q-4 -17 4 -36h-33l-147 512l-139 -476q-4 -17 4 -36h-33l-203 706q-14 50 -36 94h42q3 -34 20 -94l194 -674l146 498l-51 176q-14 50 -36 94h42q3 -34 20 -94l38 -131l38 131q3 10 7.5 24.5t7 22.5t5 20.5t3.5 26.5h20q-11 -23 -32 -93l-44 -151
l151 -524l197 674q3 10 7.5 24.5t7 22.5t5 20.5t3.5 26.5h20q-11 -23 -32 -93z" />
    <glyph glyph-name="X" unicode="X" horiz-adv-x="553" 
d="M456 91q28 -54 57 -91h-42q-21 51 -42 91l-156 291l-163 -291q-30 -54 -48 -91h-20q22 32 55 91l169 303l-169 315q-28 54 -57 91h42q13 -36 42 -91l156 -290l163 290q30 53 47 91h20q-15 -21 -54 -91l-169 -303z" />
    <glyph glyph-name="Y" unicode="Y" horiz-adv-x="631" 
d="M525 707l-195 -351v-176q0 -87 5 -180h-35q5 93 5 180v176l-193 350q-23 41 -62 94h45q10 -31 46 -94l185 -336l187 336q31 55 50 94h18q-26 -39 -56 -93z" />
    <glyph glyph-name="Z" unicode="Z" horiz-adv-x="646" 
d="M71 800h506v-20l-504 -770h286q133 0 237 20l-20 -30h-526v20l504 770h-216q-133 0 -237 -20z" />
    <glyph glyph-name="bracketleft" unicode="[" horiz-adv-x="360" 
d="M70 840h260v-10h-235v-920h235v-10h-260v940z" />
    <glyph glyph-name="backslash" unicode="\" horiz-adv-x="562" 
d="M101 803q73 -201 187.5 -481t203.5 -477l-31 -14q-73 201 -187.5 481t-203.5 477z" />
    <glyph glyph-name="bracketright" unicode="]" horiz-adv-x="360" 
d="M290 840v-940h-260v10h235v920h-235v10h260z" />
    <glyph glyph-name="asciicircum" unicode="^" horiz-adv-x="420" 
d="M210 800q31 -38 85 -101t75 -88q-5 -13 -15.5 -11t-22.5 14q-7 7 -13.5 14t-14 17.5t-13 17.5t-16 24t-17 26.5t-22.5 35t-26 41.5q-10 -16 -26 -41.5t-22.5 -35t-17 -26.5t-16 -24t-13 -17.5t-14 -17.5t-13.5 -14q-12 -12 -22.5 -14t-15.5 11q21 25 75 88t85 101z" />
    <glyph glyph-name="underscore" unicode="_" horiz-adv-x="840" 
d="M70 -40q350 -13 700 0v-25q-350 12 -700 0v25z" />
    <glyph glyph-name="grave" unicode="`" horiz-adv-x="275" 
d="M220 595q-115 71 -156 112q-12 12 -14 22.5t11 15.5l164 -145z" />
    <glyph glyph-name="a" unicode="a" horiz-adv-x="501" 
d="M441 0h-35q-5 79 -5 139q-18 -69 -65 -114t-125 -45q-65 0 -108 33.5t-43 94.5q0 68 48 102t140 48q41 6 60 10t45 13t37 24t11 37q0 61 -28 94.5t-81 33.5q-31 0 -57 -6t-45 -18t-29 -20t-24 -23.5t-15 -16.5q-10 -10 -22 -13.5t-20.5 1.5t-9.5 17q120 89 222 89
q133 0 134 -134v-166q0 -117 15 -180zM214 -10q84 0 135.5 63.5t51.5 163.5v89q-17 -26 -51.5 -37t-101.5 -21q-158 -23 -158 -140q0 -55 34.5 -86.5t89.5 -31.5z" />
    <glyph glyph-name="b" unicode="b" horiz-adv-x="537" 
d="M287 480q86 0 143 -72.5t57 -177.5q0 -108 -54.5 -179t-149.5 -71q-69 0 -117 45t-66 117q0 -58 10 -142h-35v620q0 87 -5 180h35q-5 -93 -5 -180v-245q34 45 84 75t103 30zM283 -10q88 0 131 66.5t43 173.5q0 103 -45 171.5t-125 68.5q-52 0 -102.5 -30.5t-84.5 -74.5
v-141q0 -98 47.5 -166t135.5 -68z" />
    <glyph glyph-name="c" unicode="c" horiz-adv-x="508" 
d="M50 230q0 112 58.5 181t155.5 69q67 0 113 -38.5t65 -90.5q-5 -15 -22 -11t-21 24q-2 13 -8 27.5t-20 34t-42 32t-65 12.5q-90 0 -137 -65t-47 -175q0 -99 48 -169.5t137 -70.5q42 0 75.5 15.5t56 44.5t36 56t25.5 64h10q-57 -190 -203 -190q-98 0 -156.5 69t-58.5 181z
" />
    <glyph glyph-name="d" unicode="d" horiz-adv-x="548" 
d="M478 0h-35q-6 84 -6 142q-18 -72 -65.5 -117t-117.5 -45q-95 0 -149.5 71t-54.5 179q0 105 57 177.5t143 72.5q53 0 103 -30t84 -75v245q0 87 -10 180h35v-630q0 -87 16 -170zM254 -10q88 0 135.5 68t47.5 166v141q-34 44 -84.5 74.5t-102.5 30.5q-80 0 -125 -68.5
t-45 -171.5q0 -107 43 -173.5t131 -66.5z" />
    <glyph glyph-name="e" unicode="e" horiz-adv-x="518" 
d="M468 170h10q-21 -88 -71 -139t-130 -51q-102 0 -164.5 69t-62.5 181q0 110 61.5 180t153.5 70q86 0 135.5 -54t49.5 -126h-364q-6 -33 -6 -70q0 -98 52.5 -169t144.5 -71q142 0 191 180zM265 470q-68 0 -114 -43t-63 -117h332q0 66 -40.5 113t-114.5 47z" />
    <glyph glyph-name="f" unicode="f" horiz-adv-x="330" 
d="M268 820q11 0 21.5 -1t23.5 -4.5t20.5 -5.5t24 -8.5t21.5 -8.5t26 -10.5t25 -10.5q0 -14 -13.5 -18.5t-35.5 6.5q-7 4 -29 19.5t-41.5 23.5t-42.5 8q-62 0 -90.5 -59.5t-28.5 -203.5v-87h152v-10h-152v-270q0 -87 5 -180h-35q5 93 5 180v270h-104v10h104v87
q0 153 35.5 213t108.5 60z" />
    <glyph glyph-name="g" unicode="g" horiz-adv-x="650" 
d="M501 51q51 0 80 -24t29 -65q0 -62 -54.5 -113.5t-139.5 -80t-177 -28.5q-81 0 -135 29t-54 87q0 49 52 81q-52 20 -52 79q0 72 111 134q-68 55 -68 140q0 79 61.5 134.5t148.5 55.5q69 0 125 -37q93 72 178 76q8 -14 0.5 -23t-28.5 -9h-11q-40 0 -61 -7t-69 -43
q76 -58 76 -147q0 -79 -61.5 -134.5t-148.5 -55.5q-77 0 -134 44q-49 -31 -69 -58.5t-20 -65.5q0 -71 69 -71q52 0 115 25.5t125 51t112 25.5zM123 290q0 -77 49.5 -128.5t130.5 -51.5t130.5 51.5t49.5 128.5t-49.5 128.5t-130.5 51.5t-130.5 -51.5t-49.5 -128.5zM239 -245
q136 0 238.5 62t102.5 150q0 30 -19 52t-60 22q-48 0 -110 -28t-126 -56t-116 -28q-20 0 -38 5q-51 -27 -51 -78q0 -49 50.5 -75t128.5 -26z" />
    <glyph glyph-name="h" unicode="h" horiz-adv-x="495" 
d="M390 0q5 93 5 180v121q0 169 -113 169q-63 0 -109 -42t-73 -95v-153q0 -107 5 -180h-35q5 73 5 180v440q0 107 -5 180h35q-5 -73 -5 -180v-270q24 50 73.5 90t111.5 40q70 0 102.5 -43.5t32.5 -135.5v-121q0 -87 5 -180h-35z" />
    <glyph glyph-name="i" unicode="i" horiz-adv-x="220" 
d="M110 600l-40 40l40 40l40 -40zM93 460h35q-5 -63 -5 -170v-120q0 -107 5 -170h-35q5 63 5 170v120q0 107 -5 170z" />
    <glyph glyph-name="j" unicode="j" horiz-adv-x="187" 
d="M97 600l-40 40l40 40l40 -40zM80 460h35q-5 -73 -5 -180v-384q0 -45 -17 -75.5t-48 -60.5l-5 8q16 18 23.5 30t14.5 37.5t7 60.5v384q0 107 -5 180z" />
    <glyph glyph-name="k" unicode="k" horiz-adv-x="487" 
d="M368 108q20 -26 44 -59.5t35 -48.5h-42q-16 48 -61 108q-47 62 -102.5 93.5t-139.5 38.5q-2 -26 -2 -41v-19q0 -107 5 -180h-35q5 73 5 180v440q0 107 -5 180h35q-5 -73 -5 -180v-322q18 84 65.5 133t113.5 49q50 0 78.5 -25.5t28.5 -71.5q0 -59 -61.5 -98t-168.5 -43
q129 -23 212 -134zM279 470q-72 0 -119 -60t-58 -161q123 0 188.5 34.5t65.5 99.5q0 39 -20.5 63t-56.5 24z" />
    <glyph glyph-name="l" unicode="l" horiz-adv-x="175" 
d="M70 800h35q-5 -73 -5 -180v-440q0 -107 5 -180h-35q5 73 5 180v440q0 107 -5 180z" />
    <glyph glyph-name="m" unicode="m" horiz-adv-x="674" 
d="M569 0q5 93 5 180v141q0 79 -15 114t-52 35q-89 0 -157 -135v-4v-151q0 -87 5 -180h-35q5 93 5 180v141q0 79 -15 114t-52 35q-90 0 -158 -137v-43v-120q0 -107 5 -170h-35q5 63 5 170v120q0 107 -5 170h35q-3 -38 -5 -109q25 51 67 90t94 39q83 0 89 -129q24 51 66 90
t94 39q48 0 68.5 -38t20.5 -111v-151q0 -87 5 -180h-35z" />
    <glyph glyph-name="n" unicode="n" horiz-adv-x="495" 
d="M390 0q5 93 5 180v121q0 169 -113 169q-63 0 -109 -42t-73 -95v-43v-120q0 -107 5 -170h-35q5 63 5 170v120q0 107 -5 170h35q-3 -38 -5 -109q24 50 73.5 89.5t111.5 39.5q70 0 102.5 -43.5t32.5 -135.5v-121q0 -87 5 -180h-35z" />
    <glyph glyph-name="o" unicode="o" horiz-adv-x="580" 
d="M290 -20q-107 0 -173.5 71.5t-66.5 178.5t66.5 178.5t173.5 71.5t173.5 -71.5t66.5 -178.5t-66.5 -178.5t-173.5 -71.5zM290 -10q101 0 155.5 68t54.5 172t-54.5 172t-155.5 68t-155.5 -68t-54.5 -172t54.5 -172t155.5 -68z" />
    <glyph glyph-name="p" unicode="p" horiz-adv-x="537" 
d="M283 480q95 0 149.5 -71t54.5 -179q0 -105 -57 -177.5t-143 -72.5q-53 0 -103 30t-84 75v-145q0 -107 5 -180h-35q5 73 5 180v340q0 107 -5 180h35q-5 -70 -5 -142q18 72 66 117t117 45zM287 -10q80 0 125 68.5t45 171.5q0 107 -43 173.5t-131 66.5t-135.5 -68
t-47.5 -166v-141q34 -44 84.5 -74.5t102.5 -30.5z" />
    <glyph glyph-name="q" unicode="q" horiz-adv-x="537" 
d="M462 280v-340q0 -107 5 -180h-35q5 73 5 180v145q-34 -45 -84 -75t-103 -30q-86 0 -143 72.5t-57 177.5q0 108 54.5 179t149.5 71q69 0 117 -45t66 -117q0 72 -5 142h35q-5 -73 -5 -180zM437 95v141q0 98 -47.5 166t-135.5 68t-131 -66.5t-43 -173.5q0 -103 45 -171.5
t125 -68.5q52 0 102.5 30.5t84.5 74.5z" />
    <glyph glyph-name="r" unicode="r" horiz-adv-x="346" 
d="M314 460q7 -18 -5.5 -29.5t-38.5 -1.5q-33 13 -66.5 -2.5t-103.5 -81.5v-55v-120q0 -107 5 -170h-35q5 63 5 170v120q0 107 -5 170h35q-3 -35 -5 -101q66 61 109.5 84.5t104.5 16.5z" />
    <glyph glyph-name="s" unicode="s" horiz-adv-x="420" 
d="M40 149q12 15 25.5 8.5t11.5 -34.5q-4 -51 40 -92t120 -41q61 0 92 30.5t31 78.5q0 19 -7.5 35.5t-15 26.5t-32.5 26.5t-38.5 24t-54.5 29.5q-79 42 -110.5 72t-31.5 75t34 68.5t89 23.5q56 0 93 -29t70 -90q0 -12 -14 -15q-20 -3 -28 24l-1 4q-22 96 -120 96
q-103 0 -103 -76q0 -22 10 -40t36 -36.5t44 -29.5t62 -34q77 -41 107.5 -72.5t30.5 -82.5q0 -52 -38 -85.5t-105 -33.5q-80 0 -131 43.5t-66 125.5z" />
    <glyph glyph-name="t" unicode="t" horiz-adv-x="378" 
d="M328 204h10q-18 -128 -47 -178.5t-76 -50.5q-87 0 -87 153v322h-108v10h10q34 0 57.5 11t35.5 25t18 43.5t6.5 47.5t0.5 58v9v8h25q0 -40 -2 -64.5t-9 -55.5t-24.5 -51.5t-44.5 -30.5h202v-10h-142v-322q0 -81 16.5 -112t47.5 -31q41 0 67.5 48.5t43.5 170.5z" />
    <glyph glyph-name="u" unicode="u" horiz-adv-x="494" 
d="M389 460h35v-460h-30q3 44 5 107q-25 -49 -74 -88t-110 -39q-70 0 -102.5 43.5t-32.5 135.5v121q0 87 -10 180h35v-301q0 -169 113 -169q63 0 109 38.5t72 89.5v52v110q0 87 -10 180z" />
    <glyph glyph-name="v" unicode="v" horiz-adv-x="445" 
d="M376 433q-7 13 -1 21t19 6q26 -71 -5 -145l-108 -254q-17 -39 -13 -61h-27l-168 395q-6 15 -33 65h37q5 -23 22 -63l158 -367l122 288q6 13 9.5 25t5 21t1 18t-1.5 14t-4 12t-4 9.5t-5 8.5t-4 7z" />
    <glyph glyph-name="w" unicode="w" horiz-adv-x="653" 
d="M602 460q26 -71 -5 -145l-108 -254q-17 -39 -13 -61h-27l-97 229l-71 -168q-17 -39 -13 -61h-27l-168 395q-6 15 -33 65h37q5 -23 22 -63l158 -367l89 212l-65 153q-6 15 -33 65h37q5 -23 22 -63l158 -367l122 288q6 13 9.5 25t5 21t1 18t-1.5 14t-4 12t-4 9.5t-5 8.5
t-4 7q-7 13 -1 21t19 6z" />
    <glyph glyph-name="x" unicode="x" horiz-adv-x="453" 
d="M368 52q16 -23 45 -52h-44q-16 28 -32 52l-115 162l-121 -162q-28 -37 -38 -52h-18q20 20 44 52l127 171l-131 185q-21 28 -45 52h42q9 -17 33 -52l116 -164l122 164q32 45 36 52h18q-3 -4 -42 -52l-127 -172z" />
    <glyph glyph-name="y" unicode="y" horiz-adv-x="461" 
d="M403 460h18q-10 -19 -21 -52l-147 -408q-29 -79 -60 -119.5t-80 -40.5q-37 0 -72 21q-5 13 5.5 19.5t20.5 -5.5q22 -25 46 -25q45 0 74 40.5t54 109.5h-17l-156 408q-11 27 -27 52h40q3 -24 14 -52l152 -392l141 392q9 26 15 52z" />
    <glyph glyph-name="z" unicode="z" horiz-adv-x="483" 
d="M405 20q28 0 28 -20h-383v10l324 440h-112q-66 0 -112 -5t-53 -5q-28 0 -28 20h336v-10l-324 -440h169q66 0 107 5t48 5z" />
    <glyph glyph-name="braceleft" unicode="{" horiz-adv-x="390" 
d="M360 830q-96 0 -121 -55t1 -170q41 -214 -115 -235q155 -21 115 -235q-26 -115 -1 -170t121 -55v-10q-108 0 -137.5 55.5t-7.5 179.5q42 230 -145 230v10q187 0 145 230q-22 124 7.5 179.5t137.5 55.5v-10z" />
    <glyph glyph-name="bar" unicode="|" horiz-adv-x="125" 
d="M50 -240q12 550 0 1100h25q-14 -550 0 -1100h-25z" />
    <glyph glyph-name="braceright" unicode="}" horiz-adv-x="390" 
d="M175 605q-42 -230 145 -230v-10q-187 0 -145 -230q22 -124 -7.5 -179.5t-137.5 -55.5v10q96 0 121 55t-1 170q-40 214 115 235q-156 21 -115 235q26 115 1 170t-121 55v10q108 0 137.5 -55.5t7.5 -179.5z" />
    <glyph glyph-name="asciitilde" unicode="~" horiz-adv-x="495" 
d="M161 302q34 0 88.5 -30t84.5 -30q41 0 81 50l30 -20q-52 -50 -111 -50q-34 0 -88.5 30t-84.5 30q-41 0 -81 -50l-30 20q52 50 111 50z" />
    <glyph glyph-name="exclamdown" unicode="&#xa1;" horiz-adv-x="220" 
d="M110 480l40 -40l-40 -40l-40 40zM92 -320q11 197 13 600h10q4 -430 13 -600l-18 -20z" />
    <glyph glyph-name="cent" unicode="&#xa2;" horiz-adv-x="558" 
d="M478 338h10q-57 -190 -203 -190q-37 0 -66 10q-18 -71 -36 -149l-25 6q32 108 44 149q-62 26 -97 87.5t-35 146.5q0 112 58.5 181t155.5 69q25 0 46 -6l35 146l25 -7q-8 -26 -23.5 -79t-19.5 -65q42 -15 71.5 -47.5t43.5 -70.5q-5 -15 -22 -11t-21 24q-11 69 -75 95
q-73 -255 -122 -457q27 -12 63 -12q42 0 75.5 15.5t56 44.5t36 56t25.5 64zM100 398q0 -73 27 -133.5t79 -87.5q79 283 121 456q-20 5 -43 5q-90 0 -137 -65t-47 -175z" />
    <glyph glyph-name="sterling" unicode="&#xa3;" horiz-adv-x="714" 
d="M604 123l40 -20q-30 -64 -72 -93.5t-110 -29.5q-20 0 -42 4t-37 8t-40.5 15t-33.5 15t-36 19t-31 16q-35 -77 -100 -77q-33 0 -52.5 16t-19.5 44t20.5 44.5t55.5 16.5t90 -25q23 64 23 161q0 45 -3 86q-83 -1 -172 -6l20 25q106 -4 150 -5q-5 58 -22.5 152.5t-17.5 137.5
q0 98 53 145.5t124 47.5q67 0 110 -38.5t74 -130.5l-40 -20q-19 94 -49 136.5t-95 42.5q-64 0 -105.5 -46.5t-41.5 -136.5q0 -49 12 -143.5t15 -146.5q118 -1 266 5l-20 -25q-128 7 -245 6q2 -54 2 -86q0 -99 -26 -166q6 -3 30.5 -15t35 -17t33 -14.5t38 -13.5t36.5 -7.5
t41 -3.5q106 0 142 123zM145 -10q56 0 86 72q-50 24 -79 24q-52 0 -52 -48t45 -48z" />
    <glyph glyph-name="yen" unicode="&#xa5;" horiz-adv-x="671" 
d="M545 707l-189 -340q119 0 236 5v-25q-107 6 -242 6v-103q124 0 242 5v-25q-107 6 -242 6v-56q0 -87 5 -180h-35q5 93 5 180v56q-137 0 -246 -6v25q122 -5 246 -5v103q-137 0 -246 -6v25q118 -5 240 -5l-187 339q-23 41 -62 94h45q10 -31 46 -94l185 -336l187 336
q31 55 50 94h18q-26 -39 -56 -93z" />
    <glyph glyph-name="brokenbar" unicode="&#xa6;" horiz-adv-x="125" 
d="M50 347q10 227 0 453h25q-12 -226 0 -453h-25zM50 -300q10 226 0 453h25q-12 -227 0 -453h-25z" />
    <glyph glyph-name="section" unicode="&#xa7;" horiz-adv-x="643" 
d="M593 149q0 -47 -24.5 -84.5t-67.5 -58.5q13 -38 13 -76q0 -73 -56.5 -121t-146.5 -48q-41 0 -79 12.5t-75 40t-65.5 79.5t-41.5 124l30 30q11 -135 76.5 -205.5t154.5 -70.5q83 0 135.5 44.5t52.5 114.5q0 58 -55.5 121t-211.5 189q-98 79 -138 127.5t-40 105.5
q0 55 31.5 88.5t77.5 38.5q-30 43 -30 92q0 62 41.5 95t112.5 33q115 0 232 -106l-30 -30q-74 126 -202 126q-62 0 -100.5 -29t-38.5 -81q0 -14 2.5 -27.5t10 -27.5t14 -24.5t21 -25l23.5 -23.5t30 -26l31.5 -25.5t37 -29t38.5 -29.5q139 -108 188 -175t49 -138zM496 16
q82 43 82 133q0 58 -55.5 121t-211.5 189q-110 90 -141 132q-40 -3 -70.5 -33t-30.5 -77q0 -14 2.5 -27.5t10 -27.5t14 -24.5t21 -25l23.5 -23.5t30 -26l31.5 -25.5t37 -29t38.5 -29.5q179 -139 219 -227z" />
    <glyph glyph-name="dieresis" unicode="&#xa8;" horiz-adv-x="320" 
d="M90 600l-40 40l40 40l40 -40zM230 600l-40 40l40 40l40 -40z" />
    <glyph glyph-name="copyright" unicode="&#xa9;" horiz-adv-x="829" 
d="M415 36q-161 0 -263 106t-102 258q0 153 102 259t263 106q160 0 262 -106t102 -259q0 -152 -102 -258t-262 -106zM415 46q155 0 254.5 104t99.5 250q0 147 -99.5 251t-254.5 104q-156 0 -255.5 -104t-99.5 -251q0 -146 99.5 -250t255.5 -104zM204 401q0 93 59 161.5
t151 68.5q63 0 110 -36.5t67 -80.5l-40 -20q-6 24 -13 40.5t-21.5 39t-40.5 35t-62 12.5q-85 0 -132.5 -64.5t-47.5 -155.5q0 -79 48.5 -149.5t131.5 -70.5q77 0 119.5 46.5t68.5 123.5h10q-54 -180 -198 -180q-92 0 -151 68.5t-59 161.5z" />
    <glyph glyph-name="guillemotleft" unicode="&#xab;" horiz-adv-x="490" 
d="M80 230q36 -27 72.5 -53.5t53 -38.5t32.5 -25t28 -25t14 -22.5t-11 -15.5q-147 137 -199 180q52 43 199 180q13 -5 11 -15.5t-14 -22.5t-28 -25t-32.5 -25t-53 -38.5t-72.5 -53.5zM220 230q36 -27 72.5 -53.5t53 -38.5t32.5 -25t28 -25t14 -22.5t-11 -15.5
q-147 137 -199 180q52 43 199 180q13 -5 11 -15.5t-14 -22.5t-28 -25t-32.5 -25t-53 -38.5t-72.5 -53.5z" />
    <glyph glyph-name="logicalnot" unicode="&#xac;" horiz-adv-x="552" 
d="M502 103h-25q8 101 8 216q-287 0 -435 -8v25q151 -7 445 -7v-10q0 -115 7 -216z" />
    <glyph glyph-name="registered" unicode="&#xae;" horiz-adv-x="829" 
d="M415 765q160 0 262 -106t102 -259q0 -111 -41 -182t-104 -71q-42 0 -70.5 29.5t-53.5 80.5q-38 79 -73 104t-105 25h-20v-50q0 -87 5 -160h-35q5 73 5 160v140q0 87 -5 160h70q100 0 151.5 -32.5t51.5 -92.5q0 -107 -155 -122q50 -11 78 -37t54 -85q25 -56 46.5 -83
t55.5 -27q58 0 96.5 71t38.5 172q0 147 -99.5 251t-254.5 104q-156 0 -255.5 -104t-99.5 -251q0 -146 99.5 -250t255.5 -104q121 0 200 57l7 -7q-83 -60 -207 -60q-161 0 -263 106t-102 258q0 153 102 259t263 106zM312 396h40q80 0 126.5 30t46.5 85t-46.5 85t-126.5 30
h-40v-230z" />
    <glyph glyph-name="macron" unicode="&#xaf;" horiz-adv-x="413" 
d="M50 683q110 -5 157 -5t156 5v-25q-156 9 -313 0v25z" />
    <glyph glyph-name="degree" unicode="&#xb0;" horiz-adv-x="520" 
d="M260 440q-86 0 -138 53.5t-52 136.5t52 136.5t138 53.5t138 -53.5t52 -136.5t-52 -136.5t-138 -53.5zM260 460q77 0 123.5 48.5t46.5 121.5t-46.5 121.5t-123.5 48.5t-123.5 -48.5t-46.5 -121.5t46.5 -121.5t123.5 -48.5z" />
    <glyph glyph-name="plusminus" unicode="&#xb1;" horiz-adv-x="553" 
d="M284 307q97 0 219 5v-25q-109 6 -219 6q0 -55 5 -138h-25q6 75 6 138q-110 0 -220 -6v25q122 -5 220 -5q0 62 -6 137h25q-5 -83 -5 -137zM50 97q226 -11 453 0v-25q-227 12 -453 0v25z" />
    <glyph glyph-name="acute" unicode="&#xb4;" horiz-adv-x="275" 
d="M55 595l-5 5l164 145q13 -5 11 -15.5t-14 -22.5q-41 -41 -156 -112z" />
    <glyph glyph-name="paragraph" unicode="&#xb6;" horiz-adv-x="756" 
d="M706 775q-79 8 -133 11q-14 -547 0 -1086h-25q12 541 0 1087q-60 3 -175 3q-14 -548 0 -1090h-25q7 320 5 690h-60q-109 0 -176 49.5t-67 155.5t67 155.5t176 49.5h413v-25z" />
    <glyph glyph-name="periodcentered" unicode="&#xb7;" horiz-adv-x="220" 
d="M110 220l-40 40l40 40l40 -40z" />
    <glyph glyph-name="cedilla" unicode="&#xb8;" horiz-adv-x="367" 
d="M179 10h30l-65 -84q86 7 129.5 -26t43.5 -85q0 -45 -30.5 -75t-84.5 -30q-104 0 -152 99l30 30q38 -119 122 -119q85 0 85 95q0 53 -36.5 81.5t-116.5 21.5v10z" />
    <glyph glyph-name="guillemotright" unicode="&#xbb;" horiz-adv-x="490" 
d="M101 410q147 -137 199 -180q-52 -43 -199 -180q-13 5 -11 15.5t14 22.5t28 25t32.5 25t53 38.5t72.5 53.5q-36 27 -72.5 53.5t-53 38.5t-32.5 25t-28 25t-14 22.5t11 15.5zM241 410q147 -137 199 -180q-52 -43 -199 -180q-13 5 -11 15.5t14 22.5t28 25t32.5 25t53 38.5
t72.5 53.5q-36 27 -72.5 53.5t-53 38.5t-32.5 25t-28 25t-14 22.5t11 15.5z" />
    <glyph glyph-name="questiondown" unicode="&#xbf;" horiz-adv-x="481" 
d="M260 480l40 -40l-40 -40l-40 40zM411 -191q-56 -169 -197 -169q-58 0 -101 40t-43 113q0 47 19 89.5t46 78.5t54.5 76t46.5 100t19 133h10q0 -72 -17 -132.5t-41.5 -100.5t-48.5 -76t-41 -78.5t-17 -89.5q0 -65 31 -104t83 -39q121 0 157 179z" />
    <glyph glyph-name="Agrave" unicode="&#xc0;" horiz-adv-x="596" 
d="M361 875q-115 71 -156 112q-12 12 -14 22.5t11 15.5l164 -145zM510 94q14 -50 36 -94h-42q-3 34 -20 94l-58 203h-274l-59 -203q-3 -10 -7.5 -24.5t-7 -22.5t-5 -20.5t-3.5 -26.5h-20q11 23 32 93l196 671q4 17 -4 36h33zM155 307h268l-133 461z" />
    <glyph glyph-name="Aacute" unicode="&#xc1;" horiz-adv-x="596" 
d="M391 987q-41 -41 -156 -112l-5 5l164 145q13 -5 11 -15.5t-14 -22.5zM510 94q14 -50 36 -94h-42q-3 34 -20 94l-58 203h-274l-59 -203q-3 -10 -7.5 -24.5t-7 -22.5t-5 -20.5t-3.5 -26.5h-20q11 23 32 93l196 671q4 17 -4 36h33zM155 307h268l-133 461z" />
    <glyph glyph-name="Acircumflex" unicode="&#xc2;" horiz-adv-x="596" 
d="M206 896q-32 -26 -38 -3q83 75 130 132q47 -57 130 -132q-7 -24 -38 3q-40 35 -92 119q-56 -89 -92 -119zM510 94q14 -50 36 -94h-42q-3 34 -20 94l-58 203h-274l-59 -203q-3 -10 -7.5 -24.5t-7 -22.5t-5 -20.5t-3.5 -26.5h-20q11 23 32 93l196 671q4 17 -4 36h33z
M155 307h268l-133 461z" />
    <glyph glyph-name="Atilde" unicode="&#xc3;" horiz-adv-x="596" 
d="M221 990q-25 0 -34.5 -26t-7.5 -59h-30q6 95 72 95q32 0 80.5 -45t74.5 -45q25 0 34.5 26t7.5 59h30q-6 -95 -72 -95q-32 0 -80.5 45t-74.5 45zM510 94q14 -50 36 -94h-42q-3 34 -20 94l-58 203h-274l-59 -203q-3 -10 -7.5 -24.5t-7 -22.5t-5 -20.5t-3.5 -26.5h-20
q11 23 32 93l196 671q4 17 -4 36h33zM155 307h268l-133 461z" />
    <glyph glyph-name="Adieresis" unicode="&#xc4;" horiz-adv-x="596" 
d="M268 920l-40 -40l-40 40l40 40zM408 920l-40 -40l-40 40l40 40zM510 94q14 -50 36 -94h-42q-3 34 -20 94l-58 203h-274l-59 -203q-3 -10 -7.5 -24.5t-7 -22.5t-5 -20.5t-3.5 -26.5h-20q11 23 32 93l196 671q4 17 -4 36h33zM155 307h268l-133 461z" />
    <glyph glyph-name="Aring" unicode="&#xc5;" horiz-adv-x="596" 
d="M298 865q-37 0 -61 25.5t-24 59.5t24 59.5t61 25.5t61 -25.5t24 -59.5t-24 -59.5t-61 -25.5zM298 1025q-33 0 -54 -22.5t-21 -52.5t21 -52.5t54 -22.5t54 22.5t21 52.5t-21 52.5t-54 22.5zM510 94q14 -50 36 -94h-42q-3 34 -20 94l-58 203h-274l-59 -203
q-3 -10 -7.5 -24.5t-7 -22.5t-5 -20.5t-3.5 -26.5h-20q11 23 32 93l196 671q4 17 -4 36h33zM155 307h268l-133 461z" />
    <glyph glyph-name="AE" unicode="&#xc6;" horiz-adv-x="876" 
d="M606 10q149 0 260 20l-20 -30h-409q7 93 7 180v117h-232l-99 -203q-25 -49 -43 -94h-20q28 44 52 93l326 671q6 12 -4 36h409l-30 -30q-104 20 -237 20h-97v-358h76q107 0 200 10v-30q-93 10 -200 10h-76v-412h137zM216 307h228v313q0 78 -5 146z" />
    <glyph glyph-name="Ccedilla" unicode="&#xc7;" horiz-adv-x="816" 
d="M776 326q-31 -156 -112.5 -248t-216.5 -98l-58 -74q86 7 129.5 -26t43.5 -85q0 -45 -30.5 -75t-84.5 -30q-104 0 -152 99l30 30q38 -119 122 -119q85 0 85 95q0 53 -36.5 81.5t-116.5 21.5v10l40 72q-169 4 -264 126.5t-95 303.5q0 174 106 292t264 118q198 0 300 -201
l-40 -10q-32 88 -96.5 144.5t-163.5 56.5q-148 0 -244 -116t-96 -284q0 -85 21 -159.5t61.5 -133t106.5 -93t149 -34.5q138 0 222 91t116 245h10z" />
    <glyph glyph-name="Egrave" unicode="&#xc8;" horiz-adv-x="529" 
d="M328 875q-115 71 -156 112q-12 12 -14 22.5t11 15.5l164 -145zM70 800h396l-30 -30q-104 20 -237 20h-97v-358h76q107 0 200 10v-30q-93 10 -200 10h-76v-412h137q149 0 260 20l-20 -30h-409q7 93 7 180v440q0 87 -7 180z" />
    <glyph glyph-name="Eacute" unicode="&#xc9;" horiz-adv-x="529" 
d="M202 875l-5 5l164 145q13 -5 11 -15.5t-14 -22.5q-41 -41 -156 -112zM70 800h396l-30 -30q-104 20 -237 20h-97v-358h76q107 0 200 10v-30q-93 10 -200 10h-76v-412h137q149 0 260 20l-20 -30h-409q7 93 7 180v440q0 87 -7 180z" />
    <glyph glyph-name="Ecircumflex" unicode="&#xca;" horiz-adv-x="529" 
d="M173 896q-32 -26 -38 -3q83 75 130 132q47 -57 130 -132q-7 -24 -38 3q-40 35 -92 119q-56 -89 -92 -119zM239 10q149 0 260 20l-20 -30h-409q7 93 7 180v440q0 87 -7 180h396l-30 -30q-104 20 -237 20h-97v-358h76q107 0 200 10v-30q-93 10 -200 10h-76v-412h137z" />
    <glyph glyph-name="Edieresis" unicode="&#xcb;" horiz-adv-x="529" 
d="M195 880l-40 40l40 40l40 -40zM335 880l-40 40l40 40l40 -40zM70 800h396l-30 -30q-104 20 -237 20h-97v-358h76q107 0 200 10v-30q-93 10 -200 10h-76v-412h137q149 0 260 20l-20 -30h-409q7 93 7 180v440q0 87 -7 180z" />
    <glyph glyph-name="Igrave" unicode="&#xcc;" horiz-adv-x="175" 
d="M151 875q-115 71 -156 112q-12 12 -14 22.5t11 15.5l164 -145zM70 800h35q-5 -93 -5 -180v-440q0 -87 5 -180h-35q5 93 5 180v440q0 87 -5 180z" />
    <glyph glyph-name="Iacute" unicode="&#xcd;" horiz-adv-x="175" 
d="M25 875l-5 5l164 145q13 -5 11 -15.5t-14 -22.5q-41 -41 -156 -112zM70 800h35q-5 -93 -5 -180v-440q0 -87 5 -180h-35q5 93 5 180v440q0 87 -5 180z" />
    <glyph glyph-name="Icircumflex" unicode="&#xce;" horiz-adv-x="175" 
d="M88 1025q47 -57 130 -132q-7 -24 -38 3q-40 35 -92 119q-56 -89 -92 -119q-32 -26 -38 -3q83 75 130 132zM105 800q-5 -93 -5 -180v-440q0 -87 5 -180h-35q5 93 5 180v440q0 87 -5 180h35z" />
    <glyph glyph-name="Idieresis" unicode="&#xcf;" horiz-adv-x="175" 
d="M18 880l-40 40l40 40l40 -40zM158 880l-40 40l40 40l40 -40zM70 800h35q-5 -93 -5 -180v-440q0 -87 5 -180h-35q5 93 5 180v440q0 87 -5 180z" />
    <glyph glyph-name="Eth" unicode="&#xd0;" horiz-adv-x="667" 
d="M260 800q177 0 277 -103.5t100 -296.5q0 -187 -99.5 -293.5t-277.5 -106.5h-150q5 93 5 180v228h-105v10h105v202q0 87 -5 180h150zM260 10q154 0 250.5 103.5t96.5 286.5q0 189 -95.5 289.5t-251.5 100.5h-120v-372h191v-10h-191v-398h120z" />
    <glyph glyph-name="Ntilde" unicode="&#xd1;" horiz-adv-x="694" 
d="M270 990q-25 0 -34.5 -26t-7.5 -59h-30q6 95 72 95q26 0 53.5 -22.5t53.5 -45t48 -22.5q25 0 34.5 26t7.5 59h30q-6 -95 -72 -95q-31 0 -80 45t-75 45zM619 620v-440q0 -87 5 -180h-20l-519 763v-583q0 -87 5 -180h-20q5 93 5 180v440q0 87 -5 180h20l519 -763v583
q0 87 -5 180h20q-5 -93 -5 -180z" />
    <glyph glyph-name="Ograve" unicode="&#xd2;" horiz-adv-x="960" 
d="M543 875q-115 71 -156 112q-12 12 -14 22.5t11 15.5l164 -145zM480 -20q-180 0 -300 122t-120 298q0 175 120 297.5t300 122.5q179 0 299.5 -122.5t120.5 -297.5q0 -176 -120.5 -298t-299.5 -122zM480 -10q111 0 202 58.5t139.5 152t48.5 199.5q0 163 -111.5 286.5
t-278.5 123.5q-112 0 -202.5 -59t-139 -152.5t-48.5 -198.5q0 -106 48.5 -199.5t139 -152t202.5 -58.5z" />
    <glyph glyph-name="Oacute" unicode="&#xd3;" horiz-adv-x="960" 
d="M417 875l-5 5l164 145q13 -5 11 -15.5t-14 -22.5q-41 -41 -156 -112zM480 -20q-180 0 -300 122t-120 298q0 175 120 297.5t300 122.5q179 0 299.5 -122.5t120.5 -297.5q0 -176 -120.5 -298t-299.5 -122zM480 -10q111 0 202 58.5t139.5 152t48.5 199.5q0 163 -111.5 286.5
t-278.5 123.5q-112 0 -202.5 -59t-139 -152.5t-48.5 -198.5q0 -106 48.5 -199.5t139 -152t202.5 -58.5z" />
    <glyph glyph-name="Ocircumflex" unicode="&#xd4;" horiz-adv-x="960" 
d="M388 896q-32 -26 -38 -3q83 75 130 132q47 -57 130 -132q-7 -24 -38 3q-40 35 -92 119q-56 -89 -92 -119zM480 820q179 0 299.5 -122.5t120.5 -297.5q0 -176 -120.5 -298t-299.5 -122q-180 0 -300 122t-120 298q0 175 120 297.5t300 122.5zM480 -10q111 0 202 58.5
t139.5 152t48.5 199.5q0 163 -111.5 286.5t-278.5 123.5q-112 0 -202.5 -59t-139 -152.5t-48.5 -198.5q0 -106 48.5 -199.5t139 -152t202.5 -58.5z" />
    <glyph glyph-name="Otilde" unicode="&#xd5;" horiz-adv-x="960" 
d="M403 1000q31 0 80 -45t75 -45q25 0 34.5 26t7.5 59h30q-6 -95 -72 -95q-26 0 -53.5 22.5t-53.5 45t-48 22.5q-25 0 -34.5 -26t-7.5 -59h-30q6 95 72 95zM480 -20q-180 0 -300 122t-120 298q0 175 120 297.5t300 122.5q179 0 299.5 -122.5t120.5 -297.5
q0 -176 -120.5 -298t-299.5 -122zM480 -10q111 0 202 58.5t139.5 152t48.5 199.5q0 163 -111.5 286.5t-278.5 123.5q-112 0 -202.5 -59t-139 -152.5t-48.5 -198.5q0 -106 48.5 -199.5t139 -152t202.5 -58.5z" />
    <glyph glyph-name="Odieresis" unicode="&#xd6;" horiz-adv-x="960" 
d="M410 880l-40 40l40 40l40 -40zM550 880l-40 40l40 40l40 -40zM480 -20q-180 0 -300 122t-120 298q0 175 120 297.5t300 122.5q179 0 299.5 -122.5t120.5 -297.5q0 -176 -120.5 -298t-299.5 -122zM480 -10q111 0 202 58.5t139.5 152t48.5 199.5q0 163 -111.5 286.5
t-278.5 123.5q-112 0 -202.5 -59t-139 -152.5t-48.5 -198.5q0 -106 48.5 -199.5t139 -152t202.5 -58.5z" />
    <glyph glyph-name="multiply" unicode="&#xd7;" horiz-adv-x="439" 
d="M229 259q73 -73 159 -151l-18 -18q-78 86 -151 159q-73 -73 -151 -159l-18 18q86 78 159 151q-73 73 -159 151l18 18q61 -67 151 -159q73 73 151 159l18 -18q-86 -78 -159 -151z" />
    <glyph glyph-name="Oslash" unicode="&#xd8;" horiz-adv-x="940" 
d="M688 767q98 -54 155 -152t57 -215q0 -176 -120.5 -298t-299.5 -122q-119 0 -215 56l-54 -94l-8 5l54 94q-92 56 -144.5 151t-52.5 208q0 175 120 297.5t300 122.5q109 0 199 -48l50 86l8 -5zM90 400q0 -102 47 -194.5t129 -149.5l405 702q-87 52 -191 52
q-112 0 -202.5 -59t-139 -152.5t-48.5 -198.5zM480 -10q111 0 202 58.5t139.5 152t48.5 199.5q0 107 -51.5 202.5t-139.5 150.5l-405 -702q93 -61 206 -61z" />
    <glyph glyph-name="Ugrave" unicode="&#xd9;" horiz-adv-x="644" 
d="M385 875q-115 71 -156 112q-12 12 -14 22.5t11 15.5l164 -145zM60 800h35q-5 -93 -5 -180v-280q0 -181 57 -263t177 -82q123 0 184 80t61 265v280q0 87 -5 180h20q-5 -93 -5 -180v-280q0 -191 -64 -275.5t-193 -84.5q-65 0 -110.5 17t-79.5 57t-50.5 111t-16.5 175v280
q0 87 -5 180z" />
    <glyph glyph-name="Uacute" unicode="&#xda;" horiz-adv-x="644" 
d="M259 875l-5 5l164 145q13 -5 11 -15.5t-14 -22.5q-41 -41 -156 -112zM60 800h35q-5 -93 -5 -180v-280q0 -181 57 -263t177 -82q123 0 184 80t61 265v280q0 87 -5 180h20q-5 -93 -5 -180v-280q0 -191 -64 -275.5t-193 -84.5q-65 0 -110.5 17t-79.5 57t-50.5 111t-16.5 175
v280q0 87 -5 180z" />
    <glyph glyph-name="Ucircumflex" unicode="&#xdb;" horiz-adv-x="644" 
d="M230 896q-32 -26 -38 -3q83 75 130 132q47 -57 130 -132q-7 -24 -38 3q-40 35 -92 119q-56 -89 -92 -119zM564 800h20q-5 -93 -5 -180v-280q0 -191 -64 -275.5t-193 -84.5q-65 0 -110.5 17t-79.5 57t-50.5 111t-16.5 175v280q0 87 -5 180h35q-5 -93 -5 -180v-280
q0 -181 57 -263t177 -82q123 0 184 80t61 265v280q0 87 -5 180z" />
    <glyph glyph-name="Udieresis" unicode="&#xdc;" horiz-adv-x="644" 
d="M252 880l-40 40l40 40l40 -40zM392 880l-40 40l40 40l40 -40zM60 800h35q-5 -93 -5 -180v-280q0 -181 57 -263t177 -82q123 0 184 80t61 265v280q0 87 -5 180h20q-5 -93 -5 -180v-280q0 -191 -64 -275.5t-193 -84.5q-65 0 -110.5 17t-79.5 57t-50.5 111t-16.5 175v280
q0 87 -5 180z" />
    <glyph glyph-name="Yacute" unicode="&#xdd;" horiz-adv-x="631" 
d="M409 987q-41 -41 -156 -112l-5 5l164 145q13 -5 11 -15.5t-14 -22.5zM525 707l-195 -351v-176q0 -87 5 -180h-35q5 93 5 180v176l-193 350q-23 41 -62 94h45q10 -31 46 -94l185 -336l187 336q31 55 50 94h18q-26 -39 -56 -93z" />
    <glyph glyph-name="Thorn" unicode="&#xde;" horiz-adv-x="523" 
d="M50 0q5 93 5 180v440q0 87 -5 180h35q-5 -93 -5 -180v-5h90q303 0 303 -215t-303 -215h-90v-5q0 -87 5 -180h-35zM80 195h90q55 0 100 9.5t86 31t64 63.5t23 101t-23 101t-64 63.5t-86 31t-100 9.5h-90v-410z" />
    <glyph glyph-name="germandbls" unicode="&#xdf;" horiz-adv-x="574" 
d="M446 800v-10l-235 -310q313 -54 313 -278q0 -89 -52 -155.5t-136 -66.5q-57 0 -97.5 23.5t-74.5 75.5q8 19 25.5 16t24.5 -23q5 -17 10.5 -27.5t18 -25t36 -22t57.5 -7.5q55 0 92 32.5t51.5 78t14.5 101.5q0 58 -18.5 102.5t-45 71.5t-70.5 47.5t-79.5 30.5t-87.5 20
l227 299q-64 37 -161 37q-51 0 -84 -18t-48 -51.5t-20 -65.5t-5 -76v-419q0 -87 7 -180h-39q7 93 7 180v420q0 220 182 220q62 0 187 -20z" />
    <glyph glyph-name="agrave" unicode="&#xe0;" horiz-adv-x="501" 
d="M324 595q-115 71 -156 112q-12 12 -14 22.5t11 15.5l164 -145zM441 0h-35q-5 79 -5 139q-18 -69 -65 -114t-125 -45q-65 0 -108 33.5t-43 94.5q0 68 48 102t140 48q41 6 60 10t45 13t37 24t11 37q0 61 -28 94.5t-81 33.5q-31 0 -57 -6t-45 -18t-29 -20t-24 -23.5
t-15 -16.5q-10 -10 -22 -13.5t-20.5 1.5t-9.5 17q120 89 222 89q133 0 134 -134v-166q0 -117 15 -180zM214 -10q84 0 135.5 63.5t51.5 163.5v89q-17 -26 -51.5 -37t-101.5 -21q-158 -23 -158 -140q0 -55 34.5 -86.5t89.5 -31.5z" />
    <glyph glyph-name="aacute" unicode="&#xe1;" horiz-adv-x="501" 
d="M354 707q-41 -41 -156 -112l-5 5l164 145q13 -5 11 -15.5t-14 -22.5zM441 0h-35q-5 79 -5 139q-18 -69 -65 -114t-125 -45q-65 0 -108 33.5t-43 94.5q0 68 48 102t140 48q41 6 60 10t45 13t37 24t11 37q0 61 -28 94.5t-81 33.5q-31 0 -57 -6t-45 -18t-29 -20t-24 -23.5
t-15 -16.5q-10 -10 -22 -13.5t-20.5 1.5t-9.5 17q120 89 222 89q133 0 134 -134v-166q0 -117 15 -180zM214 -10q84 0 135.5 63.5t51.5 163.5v89q-17 -26 -51.5 -37t-101.5 -21q-158 -23 -158 -140q0 -55 34.5 -86.5t89.5 -31.5z" />
    <glyph glyph-name="acircumflex" unicode="&#xe2;" horiz-adv-x="501" 
d="M169 616q-32 -26 -38 -3q83 75 130 132q47 -57 130 -132q-7 -24 -38 3q-40 35 -92 119q-56 -89 -92 -119zM441 0h-35q-5 79 -5 139q-18 -69 -65 -114t-125 -45q-65 0 -108 33.5t-43 94.5q0 68 48 102t140 48q41 6 60 10t45 13t37 24t11 37q0 61 -28 94.5t-81 33.5
q-31 0 -57 -6t-45 -18t-29 -20t-24 -23.5t-15 -16.5q-10 -10 -22 -13.5t-20.5 1.5t-9.5 17q120 89 222 89q133 0 134 -134v-166q0 -117 15 -180zM214 -10q84 0 135.5 63.5t51.5 163.5v89q-17 -26 -51.5 -37t-101.5 -21q-158 -23 -158 -140q0 -55 34.5 -86.5t89.5 -31.5z" />
    <glyph glyph-name="atilde" unicode="&#xe3;" horiz-adv-x="501" 
d="M184 710q-25 0 -34.5 -26t-7.5 -59h-30q6 95 72 95q26 0 53.5 -22.5t53.5 -45t48 -22.5q25 0 34.5 26t7.5 59h30q-6 -95 -72 -95q-31 0 -80 45t-75 45zM441 0h-35q-5 79 -5 139q-18 -69 -65 -114t-125 -45q-65 0 -108 33.5t-43 94.5q0 68 48 102t140 48q41 6 60 10t45 13
t37 24t11 37q0 61 -28 94.5t-81 33.5q-31 0 -57 -6t-45 -18t-29 -20t-24 -23.5t-15 -16.5q-10 -10 -22 -13.5t-20.5 1.5t-9.5 17q120 89 222 89q133 0 134 -134v-166q0 -117 15 -180zM214 -10q84 0 135.5 63.5t51.5 163.5v89q-17 -26 -51.5 -37t-101.5 -21
q-158 -23 -158 -140q0 -55 34.5 -86.5t89.5 -31.5z" />
    <glyph glyph-name="adieresis" unicode="&#xe4;" horiz-adv-x="501" 
d="M231 640l-40 -40l-40 40l40 40zM371 640l-40 -40l-40 40l40 40zM441 0h-35q-5 79 -5 139q-18 -69 -65 -114t-125 -45q-65 0 -108 33.5t-43 94.5q0 68 48 102t140 48q41 6 60 10t45 13t37 24t11 37q0 61 -28 94.5t-81 33.5q-31 0 -57 -6t-45 -18t-29 -20t-24 -23.5
t-15 -16.5q-10 -10 -22 -13.5t-20.5 1.5t-9.5 17q120 89 222 89q133 0 134 -134v-166q0 -117 15 -180zM214 -10q84 0 135.5 63.5t51.5 163.5v89q-17 -26 -51.5 -37t-101.5 -21q-158 -23 -158 -140q0 -55 34.5 -86.5t89.5 -31.5z" />
    <glyph glyph-name="aring" unicode="&#xe5;" horiz-adv-x="501" 
d="M261 585q-37 0 -61 25.5t-24 59.5t24 59.5t61 25.5t61 -25.5t24 -59.5t-24 -59.5t-61 -25.5zM261 745q-33 0 -54 -22.5t-21 -52.5t21 -52.5t54 -22.5t54 22.5t21 52.5t-21 52.5t-54 22.5zM441 0h-35q-5 79 -5 139q-18 -69 -65 -114t-125 -45q-65 0 -108 33.5t-43 94.5
q0 68 48 102t140 48q41 6 60 10t45 13t37 24t11 37q0 61 -28 94.5t-81 33.5q-31 0 -57 -6t-45 -18t-29 -20t-24 -23.5t-15 -16.5q-10 -10 -22 -13.5t-20.5 1.5t-9.5 17q120 89 222 89q133 0 134 -134v-166q0 -117 15 -180zM214 -10q84 0 135.5 63.5t51.5 163.5v89
q-17 -26 -51.5 -37t-101.5 -21q-158 -23 -158 -140q0 -55 34.5 -86.5t89.5 -31.5z" />
    <glyph glyph-name="ae" unicode="&#xe6;" horiz-adv-x="869" 
d="M819 170h10q-21 -88 -71 -139t-130 -51t-137 44t-79 120q-17 -71 -67 -117.5t-134 -46.5q-65 0 -108 36t-43 97q0 64 48.5 97.5t139.5 47.5q41 6 60 10t45 13t37 24t11 37q0 61 -28 94.5t-81 33.5q-31 0 -57 -6t-45 -18t-29 -20t-24 -23.5t-15 -16.5q-10 -10 -22 -13.5
t-20.5 1.5t-9.5 17q120 89 222 89q128 0 134 -128q26 60 76.5 94t113.5 34q86 0 135.5 -54t49.5 -126h-364q-6 -33 -6 -70q0 -98 52.5 -169t144.5 -71q142 0 191 180zM616 470q-68 0 -114 -43t-63 -117h332q0 66 -40.5 113t-114.5 47zM214 -10q84 0 135.5 63.5t51.5 163.5
v89q-17 -26 -51.5 -37t-101.5 -21q-158 -23 -158 -135q0 -56 34.5 -89.5t89.5 -33.5z" />
    <glyph glyph-name="ccedilla" unicode="&#xe7;" horiz-adv-x="508" 
d="M225 -94q86 7 129.5 -26t43.5 -85q0 -45 -30.5 -75t-84.5 -30q-104 0 -152 99l30 30q38 -119 122 -119q85 0 85 95q0 53 -36.5 81.5t-116.5 21.5v10l40 72q-93 4 -149 72.5t-56 177.5q0 112 58.5 181t155.5 69q67 0 113 -38.5t65 -90.5q-5 -15 -22 -11t-21 24
q-2 13 -8 27.5t-20 34t-42 32t-65 12.5q-90 0 -137 -65t-47 -175q0 -99 48 -169.5t137 -70.5q42 0 75.5 15.5t56 44.5t36 56t25.5 64h10q-54 -178 -185 -189z" />
    <glyph glyph-name="egrave" unicode="&#xe8;" horiz-adv-x="518" 
d="M338 595q-115 71 -156 112q-12 12 -14 22.5t11 15.5l164 -145zM468 170h10q-21 -88 -71 -139t-130 -51q-102 0 -164.5 69t-62.5 181q0 110 61.5 180t153.5 70q86 0 135.5 -54t49.5 -126h-364q-6 -33 -6 -70q0 -98 52.5 -169t144.5 -71q142 0 191 180zM265 470
q-68 0 -114 -43t-63 -117h332q0 66 -40.5 113t-114.5 47z" />
    <glyph glyph-name="eacute" unicode="&#xe9;" horiz-adv-x="518" 
d="M368 707q-41 -41 -156 -112l-5 5l164 145q13 -5 11 -15.5t-14 -22.5zM468 170h10q-21 -88 -71 -139t-130 -51q-102 0 -164.5 69t-62.5 181q0 110 61.5 180t153.5 70q86 0 135.5 -54t49.5 -126h-364q-6 -33 -6 -70q0 -98 52.5 -169t144.5 -71q142 0 191 180zM265 470
q-68 0 -114 -43t-63 -117h332q0 66 -40.5 113t-114.5 47z" />
    <glyph glyph-name="ecircumflex" unicode="&#xea;" horiz-adv-x="518" 
d="M183 616q-32 -26 -38 -3q83 75 130 132q47 -57 130 -132q-7 -24 -38 3q-40 35 -92 119q-56 -89 -92 -119zM468 170h10q-21 -88 -71 -139t-130 -51q-102 0 -164.5 69t-62.5 181q0 110 61.5 180t153.5 70q86 0 135.5 -54t49.5 -126h-364q-6 -33 -6 -70q0 -98 52.5 -169
t144.5 -71q142 0 191 180zM265 470q-68 0 -114 -43t-63 -117h332q0 66 -40.5 113t-114.5 47z" />
    <glyph glyph-name="edieresis" unicode="&#xeb;" horiz-adv-x="518" 
d="M245 640l-40 -40l-40 40l40 40zM385 640l-40 -40l-40 40l40 40zM468 170h10q-21 -88 -71 -139t-130 -51q-102 0 -164.5 69t-62.5 181q0 110 61.5 180t153.5 70q86 0 135.5 -54t49.5 -126h-364q-6 -33 -6 -70q0 -98 52.5 -169t144.5 -71q142 0 191 180zM265 470
q-68 0 -114 -43t-63 -117h332q0 66 -40.5 113t-114.5 47z" />
    <glyph glyph-name="igrave" unicode="&#xec;" horiz-adv-x="135" 
d="M131 595q-115 71 -156 112q-12 12 -14 22.5t11 15.5l164 -145zM50 460h35q-5 -63 -5 -170v-120q0 -107 5 -170h-35q5 63 5 170v120q0 107 -5 170z" />
    <glyph glyph-name="iacute" unicode="&#xed;" horiz-adv-x="135" 
d="M5 595l-5 5l164 145q13 -5 11 -15.5t-14 -22.5q-41 -41 -156 -112zM50 460h35q-5 -63 -5 -170v-120q0 -107 5 -170h-35q5 63 5 170v120q0 107 -5 170z" />
    <glyph glyph-name="icircumflex" unicode="&#xee;" horiz-adv-x="135" 
d="M68 745q47 -57 130 -132q-7 -24 -38 3q-40 35 -92 119q-56 -89 -92 -119q-32 -26 -38 -3q83 75 130 132zM85 460q-5 -63 -5 -170v-120q0 -107 5 -170h-35q5 63 5 170v120q0 107 -5 170h35z" />
    <glyph glyph-name="idieresis" unicode="&#xef;" horiz-adv-x="135" 
d="M-2 600l-40 40l40 40l40 -40zM138 600l-40 40l40 40l40 -40zM50 460h35q-5 -63 -5 -170v-120q0 -107 5 -170h-35q5 63 5 170v120q0 107 -5 170z" />
    <glyph glyph-name="ntilde" unicode="&#xf1;" horiz-adv-x="495" 
d="M171 710q-25 0 -34.5 -26t-7.5 -59h-30q6 95 72 95q31 0 80 -45t75 -45q25 0 34.5 26t7.5 59h30q-6 -95 -72 -95q-26 0 -53.5 22.5t-53.5 45t-48 22.5zM390 0q5 93 5 180v121q0 169 -113 169q-63 0 -109 -42t-73 -95v-43v-120q0 -107 5 -170h-35q5 63 5 170v120
q0 107 -5 170h35q-3 -38 -5 -109q24 50 73.5 89.5t111.5 39.5q70 0 102.5 -43.5t32.5 -135.5v-121q0 -87 5 -180h-35z" />
    <glyph glyph-name="ograve" unicode="&#xf2;" horiz-adv-x="580" 
d="M353 595q-115 71 -156 112q-12 12 -14 22.5t11 15.5l164 -145zM290 -20q-107 0 -173.5 71.5t-66.5 178.5t66.5 178.5t173.5 71.5t173.5 -71.5t66.5 -178.5t-66.5 -178.5t-173.5 -71.5zM290 -10q101 0 155.5 68t54.5 172t-54.5 172t-155.5 68t-155.5 -68t-54.5 -172
t54.5 -172t155.5 -68z" />
    <glyph glyph-name="oacute" unicode="&#xf3;" horiz-adv-x="580" 
d="M227 595l-5 5l164 145q13 -5 11 -15.5t-14 -22.5q-41 -41 -156 -112zM290 -20q-107 0 -173.5 71.5t-66.5 178.5t66.5 178.5t173.5 71.5t173.5 -71.5t66.5 -178.5t-66.5 -178.5t-173.5 -71.5zM290 -10q101 0 155.5 68t54.5 172t-54.5 172t-155.5 68t-155.5 -68t-54.5 -172
t54.5 -172t155.5 -68z" />
    <glyph glyph-name="ocircumflex" unicode="&#xf4;" horiz-adv-x="580" 
d="M198 616q-32 -26 -38 -3q83 75 130 132q47 -57 130 -132q-7 -24 -38 3q-40 35 -92 119q-56 -89 -92 -119zM290 480q107 0 173.5 -71.5t66.5 -178.5t-66.5 -178.5t-173.5 -71.5t-173.5 71.5t-66.5 178.5t66.5 178.5t173.5 71.5zM290 -10q101 0 155.5 68t54.5 172
t-54.5 172t-155.5 68t-155.5 -68t-54.5 -172t54.5 -172t155.5 -68z" />
    <glyph glyph-name="otilde" unicode="&#xf5;" horiz-adv-x="580" 
d="M213 720q31 0 80 -45t75 -45q25 0 34.5 26t7.5 59h30q-6 -95 -72 -95q-26 0 -53.5 22.5t-53.5 45t-48 22.5q-25 0 -34.5 -26t-7.5 -59h-30q6 95 72 95zM290 -20q-107 0 -173.5 71.5t-66.5 178.5t66.5 178.5t173.5 71.5t173.5 -71.5t66.5 -178.5t-66.5 -178.5
t-173.5 -71.5zM290 -10q101 0 155.5 68t54.5 172t-54.5 172t-155.5 68t-155.5 -68t-54.5 -172t54.5 -172t155.5 -68z" />
    <glyph glyph-name="odieresis" unicode="&#xf6;" horiz-adv-x="580" 
d="M220 600l-40 40l40 40l40 -40zM360 600l-40 40l40 40l40 -40zM290 -20q-107 0 -173.5 71.5t-66.5 178.5t66.5 178.5t173.5 71.5t173.5 -71.5t66.5 -178.5t-66.5 -178.5t-173.5 -71.5zM290 -10q101 0 155.5 68t54.5 172t-54.5 172t-155.5 68t-155.5 -68t-54.5 -172
t54.5 -172t155.5 -68z" />
    <glyph glyph-name="divide" unicode="&#xf7;" horiz-adv-x="553" 
d="M277 367l-40 40l40 40l40 -40zM50 272q226 -10 453 0v-25q-227 12 -453 0v25zM277 73l-40 40l40 40l40 -40z" />
    <glyph glyph-name="oslash" unicode="&#xf8;" horiz-adv-x="580" 
d="M420 445q52 -33 81 -89.5t29 -125.5q0 -107 -66.5 -178.5t-173.5 -71.5q-66 0 -121 30l-61 -106l-9 5l61 106q-52 33 -81 89.5t-29 125.5q0 107 66.5 178.5t173.5 71.5q66 0 121 -30l61 106l9 -5zM80 230q0 -138 87 -203l237 412q-47 31 -114 31q-101 0 -155.5 -68
t-54.5 -172zM290 -10q101 0 155.5 68t54.5 172q0 138 -87 203l-237 -412q46 -31 114 -31z" />
    <glyph glyph-name="ugrave" unicode="&#xf9;" horiz-adv-x="494" 
d="M313 595q-115 71 -156 112q-12 12 -14 22.5t11 15.5l164 -145zM389 460h35v-460h-30q3 44 5 107q-25 -49 -74 -88t-110 -39q-70 0 -102.5 43.5t-32.5 135.5v121q0 87 -10 180h35v-301q0 -169 113 -169q63 0 109 38.5t72 89.5v52v110q0 87 -10 180z" />
    <glyph glyph-name="uacute" unicode="&#xfa;" horiz-adv-x="494" 
d="M343 707q-41 -41 -156 -112l-5 5l164 145q13 -5 11 -15.5t-14 -22.5zM389 460h35v-460h-30q3 44 5 107q-25 -49 -74 -88t-110 -39q-70 0 -102.5 43.5t-32.5 135.5v121q0 87 -10 180h35v-301q0 -169 113 -169q63 0 109 38.5t72 89.5v52v110q0 87 -10 180z" />
    <glyph glyph-name="ucircumflex" unicode="&#xfb;" horiz-adv-x="494" 
d="M158 616q-32 -26 -38 -3q83 75 130 132q47 -57 130 -132q-7 -24 -38 3q-40 35 -92 119q-56 -89 -92 -119zM389 460h35v-460h-30q3 44 5 107q-25 -49 -74 -88t-110 -39q-70 0 -102.5 43.5t-32.5 135.5v121q0 87 -10 180h35v-301q0 -169 113 -169q63 0 109 38.5t72 89.5v52
v110q0 87 -10 180z" />
    <glyph glyph-name="udieresis" unicode="&#xfc;" horiz-adv-x="494" 
d="M220 640l-40 -40l-40 40l40 40zM360 640l-40 -40l-40 40l40 40zM389 460h35v-460h-30q3 44 5 107q-25 -49 -74 -88t-110 -39q-70 0 -102.5 43.5t-32.5 135.5v121q0 87 -10 180h35v-301q0 -169 113 -169q63 0 109 38.5t72 89.5v52v110q0 87 -10 180z" />
    <glyph glyph-name="yacute" unicode="&#xfd;" horiz-adv-x="461" 
d="M331 707q-41 -41 -156 -112l-5 5l164 145q13 -5 11 -15.5t-14 -22.5zM403 460h18q-10 -19 -21 -52l-147 -408q-29 -79 -60 -119.5t-80 -40.5q-37 0 -72 21q-5 13 5.5 19.5t20.5 -5.5q22 -25 46 -25q45 0 74 40.5t54 109.5h-17l-156 408q-11 27 -27 52h40q3 -24 14 -52
l152 -392l141 392q9 26 15 52z" />
    <glyph glyph-name="thorn" unicode="&#xfe;" horiz-adv-x="517" 
d="M263 480q95 0 149.5 -71t54.5 -179q0 -105 -57 -177.5t-143 -72.5q-53 0 -103 30t-84 75v-145q0 -107 5 -180h-35q5 73 5 180v680q0 107 -5 180h35q-5 -73 -5 -180v-302q18 72 65.5 117t117.5 45zM267 -10q80 0 125 68.5t45 171.5q0 107 -43 173.5t-131 66.5t-135.5 -68
t-47.5 -166v-141q34 -44 84.5 -74.5t102.5 -30.5z" />
    <glyph glyph-name="ydieresis" unicode="&#xff;" horiz-adv-x="461" 
d="M208 640l-40 -40l-40 40l40 40zM348 640l-40 -40l-40 40l40 40zM403 460h18q-10 -19 -21 -52l-147 -408q-29 -79 -60 -119.5t-80 -40.5q-37 0 -72 21q-5 13 5.5 19.5t20.5 -5.5q22 -25 46 -25q45 0 74 40.5t54 109.5h-17l-156 408q-11 27 -27 52h40q3 -24 14 -52
l152 -392l141 392q9 26 15 52z" />
    <glyph glyph-name="Amacron" unicode="&#x100;" horiz-adv-x="596" 
d="M455 938q-156 9 -313 0v25q110 -5 156.5 -5t156.5 5v-25zM510 94q14 -50 36 -94h-42q-3 34 -20 94l-58 203h-274l-59 -203q-3 -10 -7.5 -24.5t-7 -22.5t-5 -20.5t-3.5 -26.5h-20q11 23 32 93l196 671q4 17 -4 36h33zM155 307h268l-133 461z" />
    <glyph glyph-name="amacron" unicode="&#x101;" horiz-adv-x="501" 
d="M418 658q-156 9 -313 0v25q110 -5 156.5 -5t156.5 5v-25zM441 0h-35q-5 79 -5 139q-18 -69 -65 -114t-125 -45q-65 0 -108 33.5t-43 94.5q0 68 48 102t140 48q41 6 60 10t45 13t37 24t11 37q0 61 -28 94.5t-81 33.5q-31 0 -57 -6t-45 -18t-29 -20t-24 -23.5t-15 -16.5
q-10 -10 -22 -13.5t-20.5 1.5t-9.5 17q120 89 222 89q133 0 134 -134v-166q0 -117 15 -180zM214 -10q84 0 135.5 63.5t51.5 163.5v89q-17 -26 -51.5 -37t-101.5 -21q-158 -23 -158 -140q0 -55 34.5 -86.5t89.5 -31.5z" />
    <glyph glyph-name="Abreve" unicode="&#x102;" horiz-adv-x="596" 
d="M298 865q-58 0 -92.5 39.5t-37.5 100.5h30q-1 -21 2 -40.5t12 -41.5t31 -35t55 -13t55 13t31 35t12 41.5t2 40.5h30q-3 -61 -37.5 -100.5t-92.5 -39.5zM510 94q14 -50 36 -94h-42q-3 34 -20 94l-58 203h-274l-59 -203q-3 -10 -7.5 -24.5t-7 -22.5t-5 -20.5t-3.5 -26.5
h-20q11 23 32 93l196 671q4 17 -4 36h33zM155 307h268l-133 461z" />
    <glyph glyph-name="abreve" unicode="&#x103;" horiz-adv-x="501" 
d="M261 585q-58 0 -92.5 39.5t-37.5 100.5h30q-1 -21 2 -40.5t12 -41.5t31 -35t55 -13t55 13t31 35t12 41.5t2 40.5h30q-3 -61 -37.5 -100.5t-92.5 -39.5zM441 0h-35q-5 79 -5 139q-18 -69 -65 -114t-125 -45q-65 0 -108 33.5t-43 94.5q0 68 48 102t140 48q41 6 60 10t45 13
t37 24t11 37q0 61 -28 94.5t-81 33.5q-31 0 -57 -6t-45 -18t-29 -20t-24 -23.5t-15 -16.5q-10 -10 -22 -13.5t-20.5 1.5t-9.5 17q120 89 222 89q133 0 134 -134v-166q0 -117 15 -180zM214 -10q84 0 135.5 63.5t51.5 163.5v89q-17 -26 -51.5 -37t-101.5 -21
q-158 -23 -158 -140q0 -55 34.5 -86.5t89.5 -31.5z" />
    <glyph glyph-name="Aogonek" unicode="&#x104;" horiz-adv-x="596" 
d="M599 -135l30 -30q-18 -29 -30 -46t-33 -38t-47.5 -31t-58.5 -10q-55 0 -85.5 25.5t-30.5 74.5q0 30 16 57t36 44t54 44t54 47q-3 34 -20 92l-58 203h-274l-59 -203q-3 -10 -7.5 -24.5t-7 -22.5t-5 -20.5t-3.5 -26.5h-20q11 23 32 93l196 671q4 17 -4 36h33l203 -706
q14 -50 36 -94h-33q-20 -22 -51.5 -51.5t-47 -45t-28 -40.5t-12.5 -53q0 -46 25 -68t61 -22q29 0 50.5 10t38.5 34.5t26 43.5t24 57zM155 307h268l-133 461z" />
    <glyph glyph-name="aogonek" unicode="&#x105;" horiz-adv-x="501" 
d="M502 -135l30 -30q-18 -29 -30 -46t-33 -38t-47.5 -31t-58.5 -10q-55 0 -85.5 25.5t-30.5 74.5q0 30 16 57t35.5 43.5t53.5 43.5t54 47q-5 79 -5 138q-18 -69 -65 -114t-125 -45q-65 0 -108 33.5t-43 94.5q0 68 48 102t140 48q41 6 60 10t45 13t37 24t11 37q0 61 -28 94.5
t-81 33.5q-31 0 -57 -6t-45 -18t-29 -20t-24 -23.5t-15 -16.5q-10 -10 -22 -13.5t-20.5 1.5t-9.5 17q120 89 222 89q133 0 134 -134v-166q0 -117 15 -180h-25q-20 -22 -51.5 -51.5t-47 -45t-28 -40.5t-12.5 -53q0 -46 25 -68t61 -22q29 0 50.5 10t38.5 34.5t26 43.5t24 57z
M214 -10q84 0 135.5 63.5t51.5 163.5v89q-17 -26 -51.5 -37t-101.5 -21q-158 -23 -158 -140q0 -55 34.5 -86.5t89.5 -31.5z" />
    <glyph glyph-name="Cacute" unicode="&#x106;" horiz-adv-x="816" 
d="M521 987q-41 -41 -156 -112l-5 5l164 145q13 -5 11 -15.5t-14 -22.5zM766 326h10q-32 -161 -118 -253.5t-230 -92.5q-173 0 -270.5 123.5t-97.5 306.5q0 174 106 292t264 118q198 0 300 -201l-40 -10q-32 88 -96.5 144.5t-163.5 56.5q-148 0 -244 -116t-96 -284
q0 -85 21 -159.5t61.5 -133t106.5 -93t149 -34.5q138 0 222 91t116 245z" />
    <glyph glyph-name="cacute" unicode="&#x107;" horiz-adv-x="508" 
d="M191 595l-5 5l164 145q13 -5 11 -15.5t-14 -22.5q-41 -41 -156 -112zM50 230q0 112 58.5 181t155.5 69q67 0 113 -38.5t65 -90.5q-5 -15 -22 -11t-21 24q-2 13 -8 27.5t-20 34t-42 32t-65 12.5q-90 0 -137 -65t-47 -175q0 -99 48 -169.5t137 -70.5q42 0 75.5 15.5
t56 44.5t36 56t25.5 64h10q-57 -190 -203 -190q-98 0 -156.5 69t-58.5 181z" />
    <glyph glyph-name="Cdotaccent" unicode="&#x10a;" horiz-adv-x="816" 
d="M468 920l-40 -40l-40 40l40 40zM766 326h10q-32 -161 -118 -253.5t-230 -92.5q-173 0 -270.5 123.5t-97.5 306.5q0 174 106 292t264 118q198 0 300 -201l-40 -10q-32 88 -96.5 144.5t-163.5 56.5q-148 0 -244 -116t-96 -284q0 -85 21 -159.5t61.5 -133t106.5 -93
t149 -34.5q138 0 222 91t116 245z" />
    <glyph glyph-name="cdotaccent" unicode="&#x10b;" horiz-adv-x="508" 
d="M254 600l-40 40l40 40l40 -40zM50 230q0 112 58.5 181t155.5 69q67 0 113 -38.5t65 -90.5q-5 -15 -22 -11t-21 24q-2 13 -8 27.5t-20 34t-42 32t-65 12.5q-90 0 -137 -65t-47 -175q0 -99 48 -169.5t137 -70.5q42 0 75.5 15.5t56 44.5t36 56t25.5 64h10
q-57 -190 -203 -190q-98 0 -156.5 69t-58.5 181z" />
    <glyph glyph-name="Ccaron" unicode="&#x10c;" horiz-adv-x="816" 
d="M428 882q-47 57 -130 132q6 23 38 -3q36 -30 92 -119q52 84 92 119q31 27 38 3q-83 -75 -130 -132zM766 326h10q-32 -161 -118 -253.5t-230 -92.5q-173 0 -270.5 123.5t-97.5 306.5q0 174 106 292t264 118q198 0 300 -201l-40 -10q-32 88 -96.5 144.5t-163.5 56.5
q-148 0 -244 -116t-96 -284q0 -85 21 -159.5t61.5 -133t106.5 -93t149 -34.5q138 0 222 91t116 245z" />
    <glyph glyph-name="ccaron" unicode="&#x10d;" horiz-adv-x="508" 
d="M254 602q-47 57 -130 132q6 23 38 -3q36 -30 92 -119q52 84 92 119q31 27 38 3q-83 -75 -130 -132zM458 170h10q-57 -190 -203 -190q-98 0 -156.5 69t-58.5 181t58.5 181t155.5 69q67 0 113 -38.5t65 -90.5q-5 -15 -22 -11t-21 24q-2 13 -8 27.5t-20 34t-42 32t-65 12.5
q-90 0 -137 -65t-47 -175q0 -99 48 -169.5t137 -70.5q42 0 75.5 15.5t56 44.5t36 56t25.5 64z" />
    <glyph glyph-name="Dcaron" unicode="&#x10e;" horiz-adv-x="657" 
d="M254 882q-47 57 -130 132q6 23 38 -3q36 -30 92 -119q52 84 92 119q31 27 38 3q-83 -75 -130 -132zM220 800q177 0 277 -103.5t100 -296.5q0 -187 -99.5 -293.5t-277.5 -106.5h-150q5 93 5 180v440q0 87 -5 180h150zM220 10q154 0 250.5 103.5t96.5 286.5
q0 189 -95.5 289.5t-251.5 100.5h-120v-780h120z" />
    <glyph glyph-name="dcaron" unicode="&#x10f;" horiz-adv-x="570" 
d="M600 810l40 -40l-75 -155l-5 5l40 110l-40 40zM462 800v-630q0 -87 16 -170h-35q-6 84 -6 142q-18 -72 -65.5 -117t-117.5 -45q-95 0 -149.5 71t-54.5 179q0 105 57 177.5t143 72.5q53 0 103 -30t84 -75v245q0 87 -10 180h35zM254 -10q88 0 135.5 68t47.5 166v141
q-34 44 -84.5 74.5t-102.5 30.5q-80 0 -125 -68.5t-45 -171.5q0 -107 43 -173.5t131 -66.5z" />
    <glyph glyph-name="Dcroat" unicode="&#x110;" horiz-adv-x="667" 
d="M260 800q177 0 277 -103.5t100 -296.5q0 -187 -99.5 -293.5t-277.5 -106.5h-150q5 93 5 180v228h-105v10h105v202q0 87 -5 180h150zM260 10q154 0 250.5 103.5t96.5 286.5q0 189 -95.5 289.5t-251.5 100.5h-120v-372h191v-10h-191v-398h120z" />
    <glyph glyph-name="dcroat" unicode="&#x111;" horiz-adv-x="548" 
d="M538 652h-76v-482q0 -87 16 -170h-35q-6 84 -6 142q-18 -72 -65.5 -117t-117.5 -45q-95 0 -149.5 71t-54.5 179q0 105 57 177.5t143 72.5q53 0 103 -30t84 -75v245v32h-189v10h189q-2 58 -10 138h35v-138h76v-10zM254 -10q88 0 135.5 68t47.5 166v141q-34 44 -84.5 74.5
t-102.5 30.5q-80 0 -125 -68.5t-45 -171.5q0 -107 43 -173.5t131 -66.5z" />
    <glyph glyph-name="Emacron" unicode="&#x112;" horiz-adv-x="529" 
d="M109 963q110 -5 157 -5t156 5v-25q-156 9 -313 0v25zM70 800h396l-30 -30q-104 20 -237 20h-97v-358h76q107 0 200 10v-30q-93 10 -200 10h-76v-412h137q149 0 260 20l-20 -30h-409q7 93 7 180v440q0 87 -7 180z" />
    <glyph glyph-name="emacron" unicode="&#x113;" horiz-adv-x="518" 
d="M432 658q-156 9 -313 0v25q110 -5 156.5 -5t156.5 5v-25zM468 170h10q-21 -88 -71 -139t-130 -51q-102 0 -164.5 69t-62.5 181q0 110 61.5 180t153.5 70q86 0 135.5 -54t49.5 -126h-364q-6 -33 -6 -70q0 -98 52.5 -169t144.5 -71q142 0 191 180zM265 470q-68 0 -114 -43
t-63 -117h332q0 66 -40.5 113t-114.5 47z" />
    <glyph glyph-name="Edotaccent" unicode="&#x116;" horiz-adv-x="529" 
d="M265 880l-40 40l40 40l40 -40zM70 800h396l-30 -30q-104 20 -237 20h-97v-358h76q107 0 200 10v-30q-93 10 -200 10h-76v-412h137q149 0 260 20l-20 -30h-409q7 93 7 180v440q0 87 -7 180z" />
    <glyph glyph-name="edotaccent" unicode="&#x117;" horiz-adv-x="518" 
d="M315 640l-40 -40l-40 40l40 40zM468 170h10q-21 -88 -71 -139t-130 -51q-102 0 -164.5 69t-62.5 181q0 110 61.5 180t153.5 70q86 0 135.5 -54t49.5 -126h-364q-6 -33 -6 -70q0 -98 52.5 -169t144.5 -71q142 0 191 180zM265 470q-68 0 -114 -43t-63 -117h332
q0 66 -40.5 113t-114.5 47z" />
    <glyph glyph-name="Eogonek" unicode="&#x118;" horiz-adv-x="529" 
d="M327 -280q29 0 50.5 10t38.5 34.5t26 43.5t24 57l30 -30q-18 -29 -30 -46t-33 -38t-47.5 -31t-58.5 -10q-55 0 -85.5 25.5t-30.5 74.5q0 30 16 57t35.5 43.5t53 43.5t53.5 46h-299q7 93 7 180v440q0 87 -7 180h396l-30 -30q-104 20 -237 20h-97v-358h76q107 0 200 10v-30
q-93 10 -200 10h-76v-412h137q149 0 260 20l-20 -30h-99q-20 -22 -51.5 -51.5t-47 -45t-28 -40.5t-12.5 -53q0 -46 25 -68t61 -22z" />
    <glyph glyph-name="eogonek" unicode="&#x119;" horiz-adv-x="518" 
d="M457 -135l30 -30q-18 -29 -30 -46t-33 -38t-47.5 -31t-58.5 -10q-55 0 -85.5 25.5t-30.5 74.5q0 38 19.5 65.5t69 66t65.5 54.5q-37 -16 -79 -16q-102 0 -164.5 69t-62.5 181q0 110 61.5 180t153.5 70q86 0 135.5 -54t49.5 -126h-364q-6 -33 -6 -70q0 -98 52.5 -169
t144.5 -71q142 0 191 180h10q-27 -115 -99 -162q-22 -25 -68 -66.5t-62.5 -68t-16.5 -63.5q0 -46 25 -68t61 -22q29 0 50.5 10t38.5 34.5t26 43.5t24 57zM265 470q-68 0 -114 -43t-63 -117h332q0 66 -40.5 113t-114.5 47z" />
    <glyph glyph-name="Ecaron" unicode="&#x11a;" horiz-adv-x="529" 
d="M265 882q-47 57 -130 132q6 23 38 -3q36 -30 92 -119q52 84 92 119q31 27 38 3q-83 -75 -130 -132zM239 10q149 0 260 20l-20 -30h-409q7 93 7 180v440q0 87 -7 180h396l-30 -30q-104 20 -237 20h-97v-358h76q107 0 200 10v-30q-93 10 -200 10h-76v-412h137z" />
    <glyph glyph-name="ecaron" unicode="&#x11b;" horiz-adv-x="518" 
d="M275 602q-47 57 -130 132q6 23 38 -3q36 -30 92 -119q52 84 92 119q31 27 38 3q-83 -75 -130 -132zM468 170h10q-21 -88 -71 -139t-130 -51q-102 0 -164.5 69t-62.5 181q0 110 61.5 180t153.5 70q86 0 135.5 -54t49.5 -126h-364q-6 -33 -6 -70q0 -98 52.5 -169t144.5 -71
q142 0 191 180zM265 470q-68 0 -114 -43t-63 -117h332q0 66 -40.5 113t-114.5 47z" />
    <glyph glyph-name="Gbreve" unicode="&#x11e;" horiz-adv-x="853" 
d="M432 865q-58 0 -92.5 39.5t-37.5 100.5h30q-1 -21 2 -40.5t12 -41.5t31 -35t55 -13t55 13t31 35t12 41.5t2 40.5h30q-3 -61 -37.5 -100.5t-92.5 -39.5zM833 396h-87v-176q0 -117 10 -220h-30q10 103 10 220v74q-25 -151 -105.5 -232.5t-209.5 -81.5q-163 0 -262 125
t-99 305q0 174 106 292t264 118q198 0 300 -201l-40 -10q-32 88 -96.5 144.5t-163.5 56.5q-148 0 -244 -116t-96 -284q0 -174 89 -294.5t242 -120.5q144 0 225.5 105.5t89.5 295.5h-27q-133 0 -237 -20l-30 30h391v-10z" />
    <glyph glyph-name="gbreve" unicode="&#x11f;" horiz-adv-x="650" 
d="M303 585q-58 0 -92.5 39.5t-37.5 100.5h30q-1 -21 2 -40.5t12 -41.5t31 -35t55 -13t55 13t31 35t12 41.5t2 40.5h30q-3 -61 -37.5 -100.5t-92.5 -39.5zM501 51q51 0 80 -24t29 -65q0 -62 -54.5 -113.5t-139.5 -80t-177 -28.5q-81 0 -135 29t-54 87q0 49 52 81
q-52 20 -52 79q0 72 111 134q-68 55 -68 140q0 79 61.5 134.5t148.5 55.5q69 0 125 -37q93 72 178 76q8 -14 0.5 -23t-28.5 -9h-11q-40 0 -61 -7t-69 -43q76 -58 76 -147q0 -79 -61.5 -134.5t-148.5 -55.5q-77 0 -134 44q-49 -31 -69 -58.5t-20 -65.5q0 -71 69 -71
q52 0 115 25.5t125 51t112 25.5zM123 290q0 -77 49.5 -128.5t130.5 -51.5t130.5 51.5t49.5 128.5t-49.5 128.5t-130.5 51.5t-130.5 -51.5t-49.5 -128.5zM239 -245q136 0 238.5 62t102.5 150q0 30 -19 52t-60 22q-48 0 -110 -28t-126 -56t-116 -28q-20 0 -38 5
q-51 -27 -51 -78q0 -49 50.5 -75t128.5 -26z" />
    <glyph glyph-name="Gdotaccent" unicode="&#x120;" horiz-adv-x="853" 
d="M472 920l-40 -40l-40 40l40 40zM833 396h-87v-176q0 -117 10 -220h-30q10 103 10 220v74q-25 -151 -105.5 -232.5t-209.5 -81.5q-163 0 -262 125t-99 305q0 174 106 292t264 118q198 0 300 -201l-40 -10q-32 88 -96.5 144.5t-163.5 56.5q-148 0 -244 -116t-96 -284
q0 -174 89 -294.5t242 -120.5q144 0 225.5 105.5t89.5 295.5h-27q-133 0 -237 -20l-30 30h391v-10z" />
    <glyph glyph-name="gdotaccent" unicode="&#x121;" horiz-adv-x="650" 
d="M343 640l-40 -40l-40 40l40 40zM501 51q51 0 80 -24t29 -65q0 -62 -54.5 -113.5t-139.5 -80t-177 -28.5q-81 0 -135 29t-54 87q0 49 52 81q-52 20 -52 79q0 72 111 134q-68 55 -68 140q0 79 61.5 134.5t148.5 55.5q69 0 125 -37q93 72 178 76q8 -14 0.5 -23t-28.5 -9h-11
q-40 0 -61 -7t-69 -43q76 -58 76 -147q0 -79 -61.5 -134.5t-148.5 -55.5q-77 0 -134 44q-49 -31 -69 -58.5t-20 -65.5q0 -71 69 -71q52 0 115 25.5t125 51t112 25.5zM123 290q0 -77 49.5 -128.5t130.5 -51.5t130.5 51.5t49.5 128.5t-49.5 128.5t-130.5 51.5t-130.5 -51.5
t-49.5 -128.5zM239 -245q136 0 238.5 62t102.5 150q0 30 -19 52t-60 22q-48 0 -110 -28t-126 -56t-116 -28q-20 0 -38 5q-51 -27 -51 -78q0 -49 50.5 -75t128.5 -26z" />
    <glyph glyph-name="uni0122" unicode="&#x122;" horiz-adv-x="853" 
d="M833 396h-87v-176q0 -117 10 -220h-30q10 103 10 220v74q-25 -151 -105.5 -232.5t-209.5 -81.5q-163 0 -262 125t-99 305q0 174 106 292t264 118q198 0 300 -201l-40 -10q-32 88 -96.5 144.5t-163.5 56.5q-148 0 -244 -116t-96 -284q0 -174 89 -294.5t242 -120.5
q144 0 225.5 105.5t89.5 295.5h-27q-133 0 -237 -20l-30 30h391v-10zM422 -130l40 40l40 -40l-75 -155l-5 5l40 110z" />
    <glyph glyph-name="uni0123" unicode="&#x123;" horiz-adv-x="650" 
d="M343 619l-40 -40l-40 40l75 155l5 -5l-40 -110zM501 51q51 0 80 -24t29 -65q0 -62 -54.5 -113.5t-139.5 -80t-177 -28.5q-81 0 -135 29t-54 87q0 49 52 81q-52 20 -52 79q0 72 111 134q-68 55 -68 140q0 79 61.5 134.5t148.5 55.5q69 0 125 -37q93 72 178 76
q8 -14 0.5 -23t-28.5 -9h-11q-40 0 -61 -7t-69 -43q76 -58 76 -147q0 -79 -61.5 -134.5t-148.5 -55.5q-77 0 -134 44q-49 -31 -69 -58.5t-20 -65.5q0 -71 69 -71q52 0 115 25.5t125 51t112 25.5zM123 290q0 -77 49.5 -128.5t130.5 -51.5t130.5 51.5t49.5 128.5t-49.5 128.5
t-130.5 51.5t-130.5 -51.5t-49.5 -128.5zM239 -245q136 0 238.5 62t102.5 150q0 30 -19 52t-60 22q-48 0 -110 -28t-126 -56t-116 -28q-20 0 -38 5q-51 -27 -51 -78q0 -49 50.5 -75t128.5 -26z" />
    <glyph glyph-name="Hbar" unicode="&#x126;" horiz-adv-x="588" 
d="M578 578h-55v-398q0 -87 5 -180h-35q5 93 5 180v215h-408v-215q0 -87 5 -180h-35q5 93 5 180v398h-55v10h55v32q0 87 -5 180h35q-5 -93 -5 -180v-32h408v32q0 87 -5 180h35q-5 -93 -5 -180v-32h55v-10zM498 405v173h-408v-173h408z" />
    <glyph glyph-name="hbar" unicode="&#x127;" horiz-adv-x="475" 
d="M410 0q5 93 5 180v121q0 169 -113 169q-63 0 -109 -42t-73 -95v-153q0 -107 5 -180h-35q5 73 5 180v440v32h-85v10h85q0 70 -5 138h35q-5 -68 -5 -138h180v-10h-180v-32v-270q24 50 73.5 90t111.5 40q70 0 102.5 -43.5t32.5 -135.5v-121q0 -87 5 -180h-35z" />
    <glyph glyph-name="Imacron" unicode="&#x12a;" horiz-adv-x="175" 
d="M-69 963q110 -5 156.5 -5t156.5 5v-25q-156 9 -313 0v25zM70 800h35q-5 -93 -5 -180v-440q0 -87 5 -180h-35q5 93 5 180v440q0 87 -5 180z" />
    <glyph glyph-name="imacron" unicode="&#x12b;" horiz-adv-x="135" 
d="M-89 683q110 -5 157 -5t156 5v-25q-156 9 -313 0v25zM50 460h35q-5 -63 -5 -170v-120q0 -107 5 -170h-35q5 63 5 170v120q0 107 -5 170z" />
    <glyph glyph-name="Iogonek" unicode="&#x12e;" horiz-adv-x="175" 
d="M165 -135l30 -30q-18 -29 -30 -46t-33 -38t-47.5 -31t-58.5 -10q-55 0 -85.5 25.5t-30.5 74.5q0 30 16 57.5t36 44t54 43.5t54 47q5 91 5 178v440q0 87 -5 180h35q-5 -93 -5 -180v-440q0 -87 5 -180h-26q-20 -22 -51.5 -51.5t-47 -45t-28 -40.5t-12.5 -53q0 -46 25 -68
t61 -22q29 0 50.5 10t38.5 34.5t26 43.5t24 57z" />
    <glyph glyph-name="iogonek" unicode="&#x12f;" horiz-adv-x="135" 
d="M108 640l-40 -40l-40 40l40 40zM142 -135l30 -30q-18 -29 -30 -46t-33 -38t-47.5 -31t-58.5 -10q-55 0 -85.5 25.5t-30.5 74.5q0 40 22 69t71 67t70 59q5 61 5 165v120q0 107 -5 170h35q-5 -63 -5 -170v-120q0 -107 5 -170h-29q-20 -22 -51.5 -51.5t-47 -45t-28 -40.5
t-12.5 -53q0 -46 25 -68t61 -22q29 0 50.5 10t38.5 34.5t26 43.5t24 57z" />
    <glyph glyph-name="Idotaccent" unicode="&#x130;" horiz-adv-x="175" 
d="M88 880l-40 40l40 40l40 -40zM70 800h35q-5 -93 -5 -180v-440q0 -87 5 -180h-35q5 93 5 180v440q0 87 -5 180z" />
    <glyph glyph-name="dotlessi" unicode="&#x131;" horiz-adv-x="135" 
d="M50 460h35q-5 -63 -5 -170v-120q0 -107 5 -170h-35q5 63 5 170v120q0 107 -5 170z" />
    <glyph glyph-name="uni0136" unicode="&#x136;" horiz-adv-x="632" 
d="M499 104q48 -56 103 -104h-54q-25 37 -82 104l-283 331l-83 -95v-160q0 -87 5 -180h-35q5 93 5 180v440q0 87 -5 180h35q-5 -93 -5 -180v-265l306 351q44 50 72 94h29q-38 -36 -87 -93l-220 -253zM261 -130l40 40l40 -40l-75 -155l-5 5l40 110z" />
    <glyph glyph-name="uni0137" unicode="&#x137;" horiz-adv-x="487" 
d="M368 108q20 -26 44 -59.5t35 -48.5h-42q-16 48 -61 108q-47 62 -102.5 93.5t-139.5 38.5q-2 -26 -2 -41v-19q0 -107 5 -180h-35q5 73 5 180v440q0 107 -5 180h35q-5 -73 -5 -180v-322q18 84 65.5 133t113.5 49q50 0 78.5 -25.5t28.5 -71.5q0 -59 -61.5 -98t-168.5 -43
q129 -23 212 -134zM279 470q-72 0 -119 -60t-58 -161q123 0 188.5 34.5t65.5 99.5q0 39 -20.5 63t-56.5 24zM199 -130l40 40l40 -40l-75 -155l-5 5l40 110z" />
    <glyph glyph-name="Lacute" unicode="&#x139;" horiz-adv-x="499" 
d="M26 875l-5 5l164 145q13 -5 11 -15.5t-14 -22.5q-41 -41 -156 -112zM72 800h35q-5 -93 -5 -180v-610h97q149 0 260 20l-20 -30h-369q7 93 7 180v440q0 87 -5 180z" />
    <glyph glyph-name="lacute" unicode="&#x13a;" horiz-adv-x="175" 
d="M25 875l-5 5l164 145q13 -5 11 -15.5t-14 -22.5q-41 -41 -156 -112zM70 800h35q-5 -73 -5 -180v-440q0 -107 5 -180h-35q5 73 5 180v440q0 107 -5 180z" />
    <glyph glyph-name="uni013B" unicode="&#x13b;" horiz-adv-x="499" 
d="M72 800h35q-5 -93 -5 -180v-610h97q149 0 260 20l-20 -30h-369q7 93 7 180v440q0 87 -5 180zM265 -170l-40 40l40 40l40 -40l-75 -155l-5 5z" />
    <glyph glyph-name="uni013C" unicode="&#x13c;" horiz-adv-x="175" 
d="M70 800h35q-5 -73 -5 -180v-440q0 -107 5 -180h-35q5 73 5 180v440q0 107 -5 180zM88 -170l-40 40l40 40l40 -40l-75 -155l-5 5z" />
    <glyph glyph-name="Lcaron" unicode="&#x13d;" horiz-adv-x="489" 
d="M316 730l-40 40l40 40l40 -40l-75 -155l-5 5zM72 800h35q-5 -93 -5 -180v-610h97q149 0 260 20l-20 -30h-369q7 93 7 180v440q0 87 -5 180z" />
    <glyph glyph-name="lcaron" unicode="&#x13e;" horiz-adv-x="270" 
d="M240 730l-40 40l40 40l40 -40l-75 -155l-5 5zM70 800h35q-5 -73 -5 -180v-440q0 -107 5 -180h-35q5 73 5 180v440q0 107 -5 180z" />
    <glyph glyph-name="Lslash" unicode="&#x141;" horiz-adv-x="489" 
d="M199 10q149 0 260 20l-20 -30h-369q7 93 7 180v194l-102 -59l-5 9l107 61v235q0 87 -5 180h35q-5 -93 -5 -180v-220l110 63l5 -9l-115 -66v-378h97z" />
    <glyph glyph-name="lslash" unicode="&#x142;" horiz-adv-x="267" 
d="M146 401v-221q0 -107 5 -180h-35q5 73 5 180v207l-106 -61l-5 9l111 64v221q0 107 -5 180h35q-5 -73 -5 -180v-207l106 61l5 -9z" />
    <glyph glyph-name="Nacute" unicode="&#x143;" horiz-adv-x="694" 
d="M440 987q-41 -41 -156 -112l-5 5l164 145q13 -5 11 -15.5t-14 -22.5zM619 620v-440q0 -87 5 -180h-20l-519 763v-583q0 -87 5 -180h-20q5 93 5 180v440q0 87 -5 180h20l519 -763v583q0 87 -5 180h20q-5 -93 -5 -180z" />
    <glyph glyph-name="nacute" unicode="&#x144;" horiz-adv-x="495" 
d="M341 707q-41 -41 -156 -112l-5 5l164 145q13 -5 11 -15.5t-14 -22.5zM390 0q5 93 5 180v121q0 169 -113 169q-63 0 -109 -42t-73 -95v-43v-120q0 -107 5 -170h-35q5 63 5 170v120q0 107 -5 170h35q-3 -38 -5 -109q24 50 73.5 89.5t111.5 39.5q70 0 102.5 -43.5
t32.5 -135.5v-121q0 -87 5 -180h-35z" />
    <glyph glyph-name="uni0145" unicode="&#x145;" horiz-adv-x="694" 
d="M619 620v-440q0 -87 5 -180h-20l-519 763v-583q0 -87 5 -180h-20q5 93 5 180v440q0 87 -5 180h20l519 -763v583q0 87 -5 180h20q-5 -93 -5 -180zM307 -130l40 40l40 -40l-75 -155l-5 5l40 110z" />
    <glyph glyph-name="uni0146" unicode="&#x146;" horiz-adv-x="495" 
d="M390 0q5 93 5 180v121q0 169 -113 169q-63 0 -109 -42t-73 -95v-43v-120q0 -107 5 -170h-35q5 63 5 170v120q0 107 -5 170h35q-3 -38 -5 -109q24 50 73.5 89.5t111.5 39.5q70 0 102.5 -43.5t32.5 -135.5v-121q0 -87 5 -180h-35zM208 -130l40 40l40 -40l-75 -155l-5 5
l40 110z" />
    <glyph glyph-name="Ncaron" unicode="&#x147;" horiz-adv-x="694" 
d="M347 882q-47 57 -130 132q6 23 38 -3q36 -30 92 -119q52 84 92 119q31 27 38 3q-83 -75 -130 -132zM619 620v-440q0 -87 5 -180h-20l-519 763v-583q0 -87 5 -180h-20q5 93 5 180v440q0 87 -5 180h20l519 -763v583q0 87 -5 180h20q-5 -93 -5 -180z" />
    <glyph glyph-name="ncaron" unicode="&#x148;" horiz-adv-x="495" 
d="M248 602q-47 57 -130 132q6 23 38 -3q36 -30 92 -119q52 84 92 119q31 27 38 3q-83 -75 -130 -132zM390 0q5 93 5 180v121q0 169 -113 169q-63 0 -109 -42t-73 -95v-43v-120q0 -107 5 -170h-35q5 63 5 170v120q0 107 -5 170h35q-3 -38 -5 -109q24 50 73.5 89.5
t111.5 39.5q70 0 102.5 -43.5t32.5 -135.5v-121q0 -87 5 -180h-35z" />
    <glyph glyph-name="Eng" unicode="&#x14a;" horiz-adv-x="694" 
d="M604 800h20q-5 -93 -5 -180v-674q0 -63 -30 -104t-90 -41q-107 0 -152 109l40 20q24 -119 112 -119q53 0 81.5 38.5t28.5 96.5q0 34 -15 54l-509 763v-583q0 -87 5 -180h-20q5 93 5 180v440q0 87 -5 180h20l519 -771v591q0 87 -5 180z" />
    <glyph glyph-name="eng" unicode="&#x14b;" horiz-adv-x="490" 
d="M285 480q70 0 102.5 -43.5t32.5 -135.5v-345q0 -155 -100 -155q-43 0 -77.5 26.5t-49.5 72.5q11 14 23 10.5t16 -23.5q6 -35 30.5 -55.5t57.5 -20.5q39 0 57 32t18 113v345q0 169 -113 169q-63 0 -109 -42t-73 -95v-43v-120q0 -107 5 -170h-35q5 63 5 170v120
q0 107 -5 170h35q-3 -38 -5 -109q24 50 73.5 89.5t111.5 39.5z" />
    <glyph glyph-name="Omacron" unicode="&#x14c;" horiz-adv-x="960" 
d="M324 963q110 -5 156.5 -5t156.5 5v-25q-156 9 -313 0v25zM480 -20q-180 0 -300 122t-120 298q0 175 120 297.5t300 122.5q179 0 299.5 -122.5t120.5 -297.5q0 -176 -120.5 -298t-299.5 -122zM480 -10q111 0 202 58.5t139.5 152t48.5 199.5q0 163 -111.5 286.5
t-278.5 123.5q-112 0 -202.5 -59t-139 -152.5t-48.5 -198.5q0 -106 48.5 -199.5t139 -152t202.5 -58.5z" />
    <glyph glyph-name="omacron" unicode="&#x14d;" horiz-adv-x="580" 
d="M134 683q110 -5 156.5 -5t156.5 5v-25q-156 9 -313 0v25zM290 -20q-107 0 -173.5 71.5t-66.5 178.5t66.5 178.5t173.5 71.5t173.5 -71.5t66.5 -178.5t-66.5 -178.5t-173.5 -71.5zM290 -10q101 0 155.5 68t54.5 172t-54.5 172t-155.5 68t-155.5 -68t-54.5 -172t54.5 -172
t155.5 -68z" />
    <glyph glyph-name="Ohungarumlaut" unicode="&#x150;" horiz-adv-x="960" 
d="M414 875l-5 5l125 145q25 -7 1 -41q-32 -47 -121 -109zM520 875l-5 5l125 145q25 -7 1 -41q-32 -47 -121 -109zM480 -20q-180 0 -300 122t-120 298q0 175 120 297.5t300 122.5q179 0 299.5 -122.5t120.5 -297.5q0 -176 -120.5 -298t-299.5 -122zM480 -10q111 0 202 58.5
t139.5 152t48.5 199.5q0 163 -111.5 286.5t-278.5 123.5q-112 0 -202.5 -59t-139 -152.5t-48.5 -198.5q0 -106 48.5 -199.5t139 -152t202.5 -58.5z" />
    <glyph glyph-name="ohungarumlaut" unicode="&#x151;" horiz-adv-x="580" 
d="M224 595l-5 5l125 145q25 -7 1 -41q-32 -47 -121 -109zM330 595l-5 5l125 145q25 -7 1 -41q-32 -47 -121 -109zM290 -20q-107 0 -173.5 71.5t-66.5 178.5t66.5 178.5t173.5 71.5t173.5 -71.5t66.5 -178.5t-66.5 -178.5t-173.5 -71.5zM290 -10q101 0 155.5 68t54.5 172
t-54.5 172t-155.5 68t-155.5 -68t-54.5 -172t54.5 -172t155.5 -68z" />
    <glyph glyph-name="OE" unicode="&#x152;" horiz-adv-x="1337" 
d="M1047 10q149 0 260 20l-20 -30h-409q7 93 7 180v106q-37 -135 -147 -220.5t-258 -85.5q-180 0 -300 122t-120 298q0 175 120 297.5t300 122.5q147 0 257.5 -85.5t147.5 -220.5v106q0 87 -7 180h396l-30 -30q-104 20 -237 20h-97v-358h76q107 0 200 10v-30q-93 10 -200 10
h-76v-412h137zM480 -10q111 0 202 58.5t139.5 152t48.5 199.5q0 163 -111.5 286.5t-278.5 123.5q-112 0 -202.5 -59t-139 -152.5t-48.5 -198.5q0 -106 48.5 -199.5t139 -152t202.5 -58.5z" />
    <glyph glyph-name="oe" unicode="&#x153;" horiz-adv-x="968" 
d="M918 170h10q-21 -88 -71 -139t-130 -51q-78 0 -134 41.5t-79 113.5q-26 -70 -84.5 -112.5t-139.5 -42.5q-107 0 -173.5 71.5t-66.5 178.5t66.5 178.5t173.5 71.5q81 0 140 -42.5t84 -112.5q23 71 77 113t124 42q86 0 135.5 -54t49.5 -126h-364q-6 -33 -6 -70
q0 -98 52.5 -169t144.5 -71q142 0 191 180zM290 -10q101 0 155.5 68t54.5 172t-54.5 172t-155.5 68t-155.5 -68t-54.5 -172t54.5 -172t155.5 -68zM715 470q-68 0 -114 -43t-63 -117h332q0 66 -40.5 113t-114.5 47z" />
    <glyph glyph-name="Racute" unicode="&#x154;" horiz-adv-x="662" 
d="M319 987q-41 -41 -156 -112l-5 5l164 145q13 -5 11 -15.5t-14 -22.5zM425 195q40 -109 81.5 -147t115.5 -38v-10q-50 0 -84.5 10.5t-59 36.5t-40 56t-35.5 83q-40 107 -100 145.5t-153 38.5h-50v-190q0 -87 5 -180h-35q5 93 5 180v440q0 87 -5 180h120q303 0 303 -215
q0 -195 -249 -213q126 -27 181 -177zM100 380h90q55 0 100 9.5t86 31t64 63.5t23 101t-23 101t-64 63.5t-86 31t-100 9.5h-90v-410z" />
    <glyph glyph-name="racute" unicode="&#x155;" horiz-adv-x="346" 
d="M297 707q-41 -41 -156 -112l-5 5l164 145q13 -5 11 -15.5t-14 -22.5zM314 460q7 -18 -5.5 -29.5t-38.5 -1.5q-33 13 -66.5 -2.5t-103.5 -81.5v-55v-120q0 -107 5 -170h-35q5 63 5 170v120q0 107 -5 170h35q-3 -35 -5 -101q66 61 109.5 84.5t104.5 16.5z" />
    <glyph glyph-name="uni0156" unicode="&#x156;" horiz-adv-x="662" 
d="M425 195q40 -109 81.5 -147t115.5 -38v-10q-50 0 -84.5 10.5t-59 36.5t-40 56t-35.5 83q-40 107 -100 145.5t-153 38.5h-50v-190q0 -87 5 -180h-35q5 93 5 180v440q0 87 -5 180h120q303 0 303 -215q0 -195 -249 -213q126 -27 181 -177zM100 380h90q55 0 100 9.5t86 31
t64 63.5t23 101t-23 101t-64 63.5t-86 31t-100 9.5h-90v-410zM236 -130l40 40l40 -40l-75 -155l-5 5l40 110z" />
    <glyph glyph-name="uni0157" unicode="&#x157;" horiz-adv-x="346" 
d="M314 460q7 -18 -5.5 -29.5t-38.5 -1.5q-33 13 -66.5 -2.5t-103.5 -81.5v-55v-120q0 -107 5 -170h-35q5 63 5 170v120q0 107 -5 170h35q-3 -35 -5 -101q66 61 109.5 84.5t104.5 16.5zM48 -130l40 40l40 -40l-75 -155l-5 5l40 110z" />
    <glyph glyph-name="Rcaron" unicode="&#x158;" horiz-adv-x="662" 
d="M226 882q-47 57 -130 132q6 23 38 -3q36 -30 92 -119q52 84 92 119q31 27 38 3q-83 -75 -130 -132zM425 195q40 -109 81.5 -147t115.5 -38v-10q-50 0 -84.5 10.5t-59 36.5t-40 56t-35.5 83q-40 107 -100 145.5t-153 38.5h-50v-190q0 -87 5 -180h-35q5 93 5 180v440
q0 87 -5 180h120q303 0 303 -215q0 -195 -249 -213q126 -27 181 -177zM100 380h90q55 0 100 9.5t86 31t64 63.5t23 101t-23 101t-64 63.5t-86 31t-100 9.5h-90v-410z" />
    <glyph glyph-name="rcaron" unicode="&#x159;" horiz-adv-x="346" 
d="M204 602q-47 57 -130 132q6 23 38 -3q36 -30 92 -119q52 84 92 119q31 27 38 3q-83 -75 -130 -132zM100 359q66 61 109.5 84.5t104.5 16.5q7 -18 -5.5 -29.5t-38.5 -1.5q-33 13 -66.5 -2.5t-103.5 -81.5v-55v-120q0 -107 5 -170h-35q5 63 5 170v120q0 107 -5 170h35
q-3 -35 -5 -101z" />
    <glyph glyph-name="Sacute" unicode="&#x15a;" horiz-adv-x="563" 
d="M208 875l-5 5l164 145q13 -5 11 -15.5t-14 -22.5q-41 -41 -156 -112zM40 246l40 10q4 -119 72 -192.5t168 -73.5q80 0 131.5 45.5t51.5 133.5q0 18 -5 36.5t-11 33t-22 33.5t-26 31t-35 34t-38.5 33t-46.5 38.5t-49 40.5q-11 9 -34 28t-31.5 26t-26 22t-24 21.5
t-18.5 19.5t-16 20.5t-11.5 19.5t-9.5 22t-4 22.5t-2 25.5q0 67 45.5 105.5t123.5 38.5q152 0 227 -176l-40 -10q-7 73 -53.5 124.5t-133.5 51.5q-69 0 -109 -34t-40 -92q0 -23 6.5 -44t15 -35.5t28.5 -34.5t34 -31.5t44.5 -36t48.5 -39.5q12 -10 35 -29q60 -50 87 -74
t58 -58.5t42 -65t11 -67.5q0 -91 -57.5 -140t-145.5 -49q-218 0 -280 266z" />
    <glyph glyph-name="sacute" unicode="&#x15b;" horiz-adv-x="420" 
d="M142 595l-5 5l164 145q13 -5 11 -15.5t-14 -22.5q-41 -41 -156 -112zM40 149q12 15 25.5 8.5t11.5 -34.5q-4 -51 40 -92t120 -41q61 0 92 30.5t31 78.5q0 19 -7.5 35.5t-15 26.5t-32.5 26.5t-38.5 24t-54.5 29.5q-79 42 -110.5 72t-31.5 75t34 68.5t89 23.5q56 0 93 -29
t70 -90q0 -12 -14 -15q-20 -3 -28 24l-1 4q-22 96 -120 96q-103 0 -103 -76q0 -22 10 -40t36 -36.5t44 -29.5t62 -34q77 -41 107.5 -72.5t30.5 -82.5q0 -52 -38 -85.5t-105 -33.5q-80 0 -131 43.5t-66 125.5z" />
    <glyph glyph-name="Scedilla" unicode="&#x15e;" horiz-adv-x="563" 
d="M523 169q0 -86 -51.5 -134.5t-132.5 -53.5l-58 -75q86 7 129.5 -26t43.5 -85q0 -45 -30.5 -75t-84.5 -30q-104 0 -152 99l30 30q38 -119 122 -119q85 0 85 95q0 53 -36.5 81.5t-116.5 21.5v10l40 72q-210 5 -271 266l40 10q4 -119 72 -192.5t168 -73.5q80 0 131.5 45.5
t51.5 133.5q0 18 -5 36.5t-11 33t-22 33.5t-26 31t-35 34t-38.5 33t-46.5 38.5t-49 40.5q-11 9 -34 28t-31.5 26t-26 22t-24 21.5t-18.5 19.5t-16 20.5t-11.5 19.5t-9.5 22t-4 22.5t-2 25.5q0 67 45.5 105.5t123.5 38.5q152 0 227 -176l-40 -10q-7 73 -53.5 124.5
t-133.5 51.5q-69 0 -109 -34t-40 -92q0 -23 6.5 -44t15 -35.5t28.5 -34.5t34 -31.5t44.5 -36t48.5 -39.5q12 -10 35 -29q60 -50 87 -74t58 -58.5t42 -65t11 -67.5z" />
    <glyph glyph-name="scedilla" unicode="&#x15f;" horiz-adv-x="420" 
d="M186 -94q86 7 129.5 -26t43.5 -85q0 -45 -30.5 -75t-84.5 -30q-104 0 -152 99l30 30q38 -119 122 -119q85 0 85 95q0 53 -36.5 81.5t-116.5 21.5v10l40 73q-71 5 -116.5 48.5t-59.5 119.5q12 15 25.5 8.5t11.5 -34.5q-4 -51 40 -92t120 -41q61 0 92 30.5t31 78.5
q0 19 -7.5 35.5t-15 26.5t-32.5 26.5t-38.5 24t-54.5 29.5q-79 42 -110.5 72t-31.5 75t34 68.5t89 23.5q56 0 93 -29t70 -90q0 -12 -14 -15q-20 -3 -28 24l-1 4q-22 96 -120 96q-103 0 -103 -76q0 -22 10 -40t36 -36.5t44 -29.5t62 -34q77 -41 107.5 -72.5t30.5 -82.5
t-36.5 -84.5t-100.5 -34.5z" />
    <glyph glyph-name="Scaron" unicode="&#x160;" horiz-adv-x="563" 
d="M271 882q-47 57 -130 132q6 23 38 -3q36 -30 92 -119q52 84 92 119q31 27 38 3q-83 -75 -130 -132zM290 463q12 -10 35 -29q60 -50 87 -74t58 -58.5t42 -65t11 -67.5q0 -91 -57.5 -140t-145.5 -49q-218 0 -280 266l40 10q4 -119 72 -192.5t168 -73.5q80 0 131.5 45.5
t51.5 133.5q0 18 -5 36.5t-11 33t-22 33.5t-26 31t-35 34t-38.5 33t-46.5 38.5t-49 40.5q-11 9 -34 28t-31.5 26t-26 22t-24 21.5t-18.5 19.5t-16 20.5t-11.5 19.5t-9.5 22t-4 22.5t-2 25.5q0 67 45.5 105.5t123.5 38.5q152 0 227 -176l-40 -10q-7 73 -53.5 124.5
t-133.5 51.5q-69 0 -109 -34t-40 -92q0 -23 6.5 -44t15 -35.5t28.5 -34.5t34 -31.5t44.5 -36t48.5 -39.5z" />
    <glyph glyph-name="scaron" unicode="&#x161;" horiz-adv-x="420" 
d="M205 602q-47 57 -130 132q6 23 38 -3q36 -30 92 -119q52 84 92 119q31 27 38 3q-83 -75 -130 -132zM242 254q77 -41 107.5 -72.5t30.5 -82.5q0 -52 -38 -85.5t-105 -33.5q-80 0 -131 43.5t-66 125.5q12 15 25.5 8.5t11.5 -34.5q-4 -51 40 -92t120 -41q61 0 92 30.5
t31 78.5q0 19 -7.5 35.5t-15 26.5t-32.5 26.5t-38.5 24t-54.5 29.5q-79 42 -110.5 72t-31.5 75t34 68.5t89 23.5q56 0 93 -29t70 -90q0 -12 -14 -15q-20 -3 -28 24l-1 4q-22 96 -120 96q-103 0 -103 -76q0 -22 10 -40t36 -36.5t44 -29.5t62 -34z" />
    <glyph glyph-name="uni0162" unicode="&#x162;" horiz-adv-x="559" 
d="M302 790h-10v-610q0 -87 5 -180h-2l-65 -84q86 7 129.5 -26t43.5 -85q0 -45 -30.5 -75t-84.5 -30q-104 0 -152 99l30 30q38 -119 122 -119q85 0 85 95q0 53 -36.5 81.5t-116.5 21.5v10l45 82h-3q5 93 5 180v610h-10q-103 0 -207 -20l-30 30h519l-30 -30q-104 20 -207 20z
" />
    <glyph glyph-name="uni0163" unicode="&#x163;" horiz-adv-x="378" 
d="M176 -99q86 7 129.5 -26t43.5 -85q0 -45 -30.5 -75t-84.5 -30q-104 0 -152 99l30 30q38 -119 122 -119q85 0 85 95q0 53 -36.5 81.5t-116.5 21.5v10l40 72q-78 7 -78 153v322h-108v10h10q34 0 57.5 11t35.5 25t18 43.5t6.5 47.5t0.5 58v9v8h25q0 -40 -2 -64.5t-9 -55.5
t-24.5 -51.5t-44.5 -30.5h202v-10h-142v-322q0 -81 16.5 -112t47.5 -31q41 0 67.5 48.5t43.5 170.5h10q-16 -114 -40.5 -166t-62.5 -61z" />
    <glyph glyph-name="Tcaron" unicode="&#x164;" horiz-adv-x="559" 
d="M280 882q-47 57 -130 132q6 23 38 -3q36 -30 92 -119q52 84 92 119q31 27 38 3q-83 -75 -130 -132zM539 800l-30 -30q-104 20 -207 20h-10v-610q0 -87 5 -180h-35q5 93 5 180v610h-10q-103 0 -207 -20l-30 30h519z" />
    <glyph glyph-name="tcaron" unicode="&#x165;" horiz-adv-x="384" 
d="M289 555l-5 5l40 110l-40 40l40 40l40 -40zM217 -15q41 0 67.5 48.5t43.5 170.5h10q-18 -128 -47 -178.5t-76 -50.5q-87 0 -87 153v322h-108v10h10q34 0 57.5 11t35.5 25t18 43.5t6.5 47.5t0.5 58v9v8h25q0 -40 -2 -64.5t-9 -55.5t-24.5 -51.5t-44.5 -30.5h202v-10h-142
v-322q0 -81 16.5 -112t47.5 -31z" />
    <glyph glyph-name="Tbar" unicode="&#x166;" horiz-adv-x="559" 
d="M302 790h-10v-290h188v-10h-188v-310q0 -87 5 -180h-35q5 93 5 180v310h-187v10h187v290h-10q-103 0 -207 -20l-30 30h519l-30 -30q-104 20 -207 20z" />
    <glyph glyph-name="tbar" unicode="&#x167;" horiz-adv-x="378" 
d="M328 204h10q-18 -128 -47 -178.5t-76 -50.5q-87 0 -87 153v206h-108v10h108v106h-108v10h10q34 0 57.5 11t35.5 25t18 43.5t6.5 47.5t0.5 58v9v8h25q0 -40 -2 -64.5t-9 -55.5t-24.5 -51.5t-44.5 -30.5h202v-10h-142v-106h142v-10h-142v-206q0 -81 16.5 -112t47.5 -31
q41 0 67.5 48.5t43.5 170.5z" />
    <glyph glyph-name="Umacron" unicode="&#x16a;" horiz-adv-x="644" 
d="M166 963q110 -5 157 -5t156 5v-25q-156 9 -313 0v25zM60 800h35q-5 -93 -5 -180v-280q0 -181 57 -263t177 -82q123 0 184 80t61 265v280q0 87 -5 180h20q-5 -93 -5 -180v-280q0 -191 -64 -275.5t-193 -84.5q-65 0 -110.5 17t-79.5 57t-50.5 111t-16.5 175v280
q0 87 -5 180z" />
    <glyph glyph-name="umacron" unicode="&#x16b;" horiz-adv-x="494" 
d="M407 658q-156 9 -313 0v25q110 -5 157 -5t156 5v-25zM389 460h35v-460h-30q3 44 5 107q-25 -49 -74 -88t-110 -39q-70 0 -102.5 43.5t-32.5 135.5v121q0 87 -10 180h35v-301q0 -169 113 -169q63 0 109 38.5t72 89.5v52v110q0 87 -10 180z" />
    <glyph glyph-name="Uring" unicode="&#x16e;" horiz-adv-x="644" 
d="M322 865q-37 0 -61 25.5t-24 59.5t24 59.5t61 25.5t61 -25.5t24 -59.5t-24 -59.5t-61 -25.5zM322 875q33 0 54 22.5t21 52.5t-21 52.5t-54 22.5t-54 -22.5t-21 -52.5t21 -52.5t54 -22.5zM60 800h35q-5 -93 -5 -180v-280q0 -181 57 -263t177 -82q123 0 184 80t61 265v280
q0 87 -5 180h20q-5 -93 -5 -180v-280q0 -191 -64 -275.5t-193 -84.5q-65 0 -110.5 17t-79.5 57t-50.5 111t-16.5 175v280q0 87 -5 180z" />
    <glyph glyph-name="uring" unicode="&#x16f;" horiz-adv-x="494" 
d="M250 585q-37 0 -61 25.5t-24 59.5t24 59.5t61 25.5t61 -25.5t24 -59.5t-24 -59.5t-61 -25.5zM250 745q-33 0 -54 -22.5t-21 -52.5t21 -52.5t54 -22.5t54 22.5t21 52.5t-21 52.5t-54 22.5zM389 460h35v-460h-30q3 44 5 107q-25 -49 -74 -88t-110 -39q-70 0 -102.5 43.5
t-32.5 135.5v121q0 87 -10 180h35v-301q0 -169 113 -169q63 0 109 38.5t72 89.5v52v110q0 87 -10 180z" />
    <glyph glyph-name="Uhungarumlaut" unicode="&#x170;" horiz-adv-x="644" 
d="M256 875l-5 5l125 145q25 -7 1 -41q-32 -47 -121 -109zM362 875l-5 5l125 145q25 -7 1 -41q-32 -47 -121 -109zM60 800h35q-5 -93 -5 -180v-280q0 -181 57 -263t177 -82q123 0 184 80t61 265v280q0 87 -5 180h20q-5 -93 -5 -180v-280q0 -191 -64 -275.5t-193 -84.5
q-65 0 -110.5 17t-79.5 57t-50.5 111t-16.5 175v280q0 87 -5 180z" />
    <glyph glyph-name="uhungarumlaut" unicode="&#x171;" horiz-adv-x="494" 
d="M305 704q-32 -47 -121 -109l-5 5l125 145q25 -7 1 -41zM290 595l-5 5l125 145q25 -7 1 -41q-32 -47 -121 -109zM389 460h35v-460h-30q3 44 5 107q-25 -49 -74 -88t-110 -39q-70 0 -102.5 43.5t-32.5 135.5v121q0 87 -10 180h35v-301q0 -169 113 -169q63 0 109 38.5
t72 89.5v52v110q0 87 -10 180z" />
    <glyph glyph-name="Uogonek" unicode="&#x172;" horiz-adv-x="644" 
d="M564 800h20q-5 -93 -5 -180v-280q0 -260 -125 -330q-23 -27 -68.5 -68t-62.5 -68t-17 -64q0 -46 25 -68t61 -22q29 0 50.5 10t38.5 34.5t26 43.5t24 57l30 -30q-18 -29 -30 -46t-33 -38t-47.5 -31t-58.5 -10q-55 0 -85.5 25.5t-30.5 74.5q0 39 20.5 67t70 66.5t68.5 56.5
q-47 -20 -113 -20q-65 0 -110.5 17t-79.5 57t-50.5 111t-16.5 175v280q0 87 -5 180h35q-5 -93 -5 -180v-280q0 -181 57 -263t177 -82q123 0 184 80t61 265v280q0 87 -5 180z" />
    <glyph glyph-name="uogonek" unicode="&#x173;" horiz-adv-x="494" 
d="M489 -135l30 -30q-18 -29 -30 -46t-33 -38t-47.5 -31t-58.5 -10q-55 0 -85.5 25.5t-30.5 74.5q0 30 16 57.5t36 44t54 43.5t54 47q3 42 5 105q-25 -49 -74 -88t-110 -39q-70 0 -102.5 43.5t-32.5 135.5v121q0 87 -10 180h35v-301q0 -169 113 -169q63 0 109 38.5t72 89.5
v52v110q0 87 -10 180h35v-460h-21q-20 -22 -51.5 -51.5t-47 -45t-28 -40.5t-12.5 -53q0 -46 25 -68t61 -22q29 0 50.5 10t38.5 34.5t26 43.5t24 57z" />
    <glyph glyph-name="Wcircumflex" unicode="&#x174;" horiz-adv-x="911" 
d="M369 896q-32 -26 -38 -3q83 75 130 132q47 -57 130 -132q-7 -24 -38 3q-40 35 -92 119q-56 -89 -92 -119zM829 707l-196 -671q-4 -17 4 -36h-33l-147 512l-139 -476q-4 -17 4 -36h-33l-203 706q-14 50 -36 94h42q3 -34 20 -94l194 -674l146 498l-51 176q-14 50 -36 94h42
q3 -34 20 -94l38 -131l38 131q3 10 7.5 24.5t7 22.5t5 20.5t3.5 26.5h20q-11 -23 -32 -93l-44 -151l151 -524l197 674q3 10 7.5 24.5t7 22.5t5 20.5t3.5 26.5h20q-11 -23 -32 -93z" />
    <glyph glyph-name="wcircumflex" unicode="&#x175;" horiz-adv-x="653" 
d="M235 616q-32 -26 -38 -3q83 75 130 132q47 -57 130 -132q-7 -24 -38 3q-40 35 -92 119q-56 -89 -92 -119zM602 460q26 -71 -5 -145l-108 -254q-17 -39 -13 -61h-27l-97 229l-71 -168q-17 -39 -13 -61h-27l-168 395q-6 15 -33 65h37q5 -23 22 -63l158 -367l89 212l-65 153
q-6 15 -33 65h37q5 -23 22 -63l158 -367l122 288q6 13 9.5 25t5 21t1 18t-1.5 14t-4 12t-4 9.5t-5 8.5t-4 7q-7 13 -1 21t19 6z" />
    <glyph glyph-name="Ycircumflex" unicode="&#x176;" horiz-adv-x="631" 
d="M224 896q-32 -26 -38 -3q83 75 130 132q47 -57 130 -132q-7 -24 -38 3q-40 35 -92 119q-56 -89 -92 -119zM525 707l-195 -351v-176q0 -87 5 -180h-35q5 93 5 180v176l-193 350q-23 41 -62 94h45q10 -31 46 -94l185 -336l187 336q31 55 50 94h18q-26 -39 -56 -93z" />
    <glyph glyph-name="ycircumflex" unicode="&#x177;" horiz-adv-x="461" 
d="M146 616q-32 -26 -38 -3q83 75 130 132q47 -57 130 -132q-7 -24 -38 3q-40 35 -92 119q-56 -89 -92 -119zM403 460h18q-10 -19 -21 -52l-147 -408q-29 -79 -60 -119.5t-80 -40.5q-37 0 -72 21q-5 13 5.5 19.5t20.5 -5.5q22 -25 46 -25q45 0 74 40.5t54 109.5h-17
l-156 408q-11 27 -27 52h40q3 -24 14 -52l152 -392l141 392q9 26 15 52z" />
    <glyph glyph-name="Ydieresis" unicode="&#x178;" horiz-adv-x="631" 
d="M286 920l-40 -40l-40 40l40 40zM426 920l-40 -40l-40 40l40 40zM525 707l-195 -351v-176q0 -87 5 -180h-35q5 93 5 180v176l-193 350q-23 41 -62 94h45q10 -31 46 -94l185 -336l187 336q31 55 50 94h18q-26 -39 -56 -93z" />
    <glyph glyph-name="Zacute" unicode="&#x179;" horiz-adv-x="646" 
d="M260 875l-5 5l164 145q13 -5 11 -15.5t-14 -22.5q-41 -41 -156 -112zM71 800h506v-20l-504 -770h286q133 0 237 20l-20 -30h-526v20l504 770h-216q-133 0 -237 -20z" />
    <glyph glyph-name="zacute" unicode="&#x17a;" horiz-adv-x="483" 
d="M189 595l-5 5l164 145q13 -5 11 -15.5t-14 -22.5q-41 -41 -156 -112zM405 20q28 0 28 -20h-383v10l324 440h-112q-66 0 -112 -5t-53 -5q-28 0 -28 20h336v-10l-324 -440h169q66 0 107 5t48 5z" />
    <glyph glyph-name="Zdotaccent" unicode="&#x17b;" horiz-adv-x="646" 
d="M323 880l-40 40l40 40l40 -40zM71 800h506v-20l-504 -770h286q133 0 237 20l-20 -30h-526v20l504 770h-216q-133 0 -237 -20z" />
    <glyph glyph-name="zdotaccent" unicode="&#x17c;" horiz-adv-x="483" 
d="M252 600l-40 40l40 40l40 -40zM405 20q28 0 28 -20h-383v10l324 440h-112q-66 0 -112 -5t-53 -5q-28 0 -28 20h336v-10l-324 -440h169q66 0 107 5t48 5z" />
    <glyph glyph-name="Zcaron" unicode="&#x17d;" horiz-adv-x="646" 
d="M323 882q-47 57 -130 132q6 23 38 -3q36 -30 92 -119q52 84 92 119q31 27 38 3q-83 -75 -130 -132zM359 10q133 0 237 20l-20 -30h-526v20l504 770h-216q-133 0 -237 -20l-30 30h506v-20l-504 -770h286z" />
    <glyph glyph-name="zcaron" unicode="&#x17e;" horiz-adv-x="483" 
d="M252 602q-47 57 -130 132q6 23 38 -3q36 -30 92 -119q52 84 92 119q31 27 38 3q-83 -75 -130 -132zM405 20q28 0 28 -20h-383v10l324 440h-112q-66 0 -112 -5t-53 -5q-28 0 -28 20h336v-10l-324 -440h169q66 0 107 5t48 5z" />
    <glyph glyph-name="uni0218" unicode="&#x218;" horiz-adv-x="563" 
d="M40 246l40 10q4 -119 72 -192.5t168 -73.5q80 0 131.5 45.5t51.5 133.5q0 18 -5 36.5t-11 33t-22 33.5t-26 31t-35 34t-38.5 33t-46.5 38.5t-49 40.5q-11 9 -34 28t-31.5 26t-26 22t-24 21.5t-18.5 19.5t-16 20.5t-11.5 19.5t-9.5 22t-4 22.5t-2 25.5q0 67 45.5 105.5
t123.5 38.5q152 0 227 -176l-40 -10q-7 73 -53.5 124.5t-133.5 51.5q-69 0 -109 -34t-40 -92q0 -23 6.5 -44t15 -35.5t28.5 -34.5t34 -31.5t44.5 -36t48.5 -39.5q12 -10 35 -29q60 -50 87 -74t58 -58.5t42 -65t11 -67.5q0 -91 -57.5 -140t-145.5 -49q-218 0 -280 266z
M320 -190l-40 40l40 40l40 -40l-75 -155l-5 5z" />
    <glyph glyph-name="uni0219" unicode="&#x219;" horiz-adv-x="420" 
d="M40 149q12 15 25.5 8.5t11.5 -34.5q-4 -51 40 -92t120 -41q61 0 92 30.5t31 78.5q0 19 -7.5 35.5t-15 26.5t-32.5 26.5t-38.5 24t-54.5 29.5q-79 42 -110.5 72t-31.5 75t34 68.5t89 23.5q56 0 93 -29t70 -90q0 -12 -14 -15q-20 -3 -28 24l-1 4q-22 96 -120 96
q-103 0 -103 -76q0 -22 10 -40t36 -36.5t44 -29.5t62 -34q77 -41 107.5 -72.5t30.5 -82.5q0 -52 -38 -85.5t-105 -33.5q-80 0 -131 43.5t-66 125.5zM225 -190l-40 40l40 40l40 -40l-75 -155l-5 5z" />
    <glyph glyph-name="uni021A" unicode="&#x21a;" horiz-adv-x="559" 
d="M539 800l-30 -30q-104 20 -207 20h-10v-610q0 -87 5 -180h-35q5 93 5 180v610h-10q-103 0 -207 -20l-30 30h519zM242 -140l40 40l40 -40l-75 -155l-5 5l40 110z" />
    <glyph glyph-name="uni021B" unicode="&#x21b;" horiz-adv-x="378" 
d="M328 204h10q-18 -128 -47 -178.5t-76 -50.5q-87 0 -87 153v322h-108v10h10q34 0 57.5 11t35.5 25t18 43.5t6.5 47.5t0.5 58v9v8h25q0 -40 -2 -64.5t-9 -55.5t-24.5 -51.5t-44.5 -30.5h202v-10h-142v-322q0 -81 16.5 -112t47.5 -31q41 0 67.5 48.5t43.5 170.5zM175 -155
l40 40l40 -40l-75 -155l-5 5l40 110z" />
    <glyph glyph-name="circumflex" unicode="&#x2c6;" horiz-adv-x="360" 
d="M180 745q47 -57 130 -132q-7 -24 -38 3q-40 35 -92 119q-56 -89 -92 -119q-32 -26 -38 -3q83 75 130 132z" />
    <glyph glyph-name="caron" unicode="&#x2c7;" horiz-adv-x="360" 
d="M272 731q31 27 38 3q-83 -75 -130 -132q-47 57 -130 132q6 23 38 -3q36 -30 92 -119q52 84 92 119z" />
    <glyph glyph-name="breve" unicode="&#x2d8;" horiz-adv-x="360" 
d="M280 725h30q-3 -61 -37.5 -100.5t-92.5 -39.5t-92.5 39.5t-37.5 100.5h30q-1 -21 2 -40.5t12 -41.5t31 -35t55 -13t55 13t31 35t12 41.5t2 40.5z" />
    <glyph glyph-name="dotaccent" unicode="&#x2d9;" horiz-adv-x="180" 
d="M90 600l-40 40l40 40l40 -40z" />
    <glyph glyph-name="ring" unicode="&#x2da;" horiz-adv-x="270" 
d="M135 585q-37 0 -61 25.5t-24 59.5t24 59.5t61 25.5t61 -25.5t24 -59.5t-24 -59.5t-61 -25.5zM135 595q33 0 54 22.5t21 52.5t-21 52.5t-54 22.5t-54 -22.5t-21 -52.5t21 -52.5t54 -22.5z" />
    <glyph glyph-name="ogonek" unicode="&#x2db;" horiz-adv-x="385" 
d="M305 -135l30 -30q-18 -29 -30 -46t-33 -38t-47.5 -31t-58.5 -10q-55 0 -85.5 25.5t-30.5 74.5q0 31 17 59t38.5 45.5t56.5 45t56 50.5h10q-23 -27 -68.5 -68t-62.5 -68t-17 -64q0 -46 25 -68t61 -22q29 0 50.5 10t38.5 34.5t26 43.5t24 57z" />
    <glyph glyph-name="tilde" unicode="&#x2dc;" horiz-adv-x="399" 
d="M122 720q26 0 53.5 -22.5t53.5 -45t48 -22.5q25 0 34.5 26t7.5 59h30q-6 -95 -72 -95q-31 0 -80 45t-75 45q-25 0 -34.5 -26t-7.5 -59h-30q6 95 72 95z" />
    <glyph glyph-name="hungarumlaut" unicode="&#x2dd;" horiz-adv-x="342" 
d="M55 595l-5 5l125 145q25 -7 1 -41q-32 -47 -121 -109zM161 595l-5 5l125 145q25 -7 1 -41q-32 -47 -121 -109z" />
    <glyph glyph-name="gravecomb" unicode="&#x300;" 
d="M-55 595q-115 71 -156 112q-12 12 -14 22.5t11 15.5l164 -145z" />
    <glyph glyph-name="acutecomb" unicode="&#x301;" 
d="M-220 595l-5 5l164 145q13 -5 11 -15.5t-14 -22.5q-41 -41 -156 -112z" />
    <glyph glyph-name="uni0302" unicode="&#x302;" 
d="M-180 745q47 -57 130 -132q-7 -24 -38 3q-40 35 -92 119q-56 -89 -92 -119q-32 -26 -38 -3q83 75 130 132z" />
    <glyph glyph-name="tildecomb" unicode="&#x303;" 
d="M-277 720q31 0 80 -45t75 -45q25 0 34.5 26t7.5 59h30q-6 -95 -72 -95q-26 0 -53.5 22.5t-53.5 45t-48 22.5q-25 0 -34.5 -26t-7.5 -59h-30q6 95 72 95z" />
    <glyph glyph-name="uni0304" unicode="&#x304;" 
d="M-363 683q110 -5 156.5 -5t156.5 5v-25q-156 9 -313 0v25z" />
    <glyph glyph-name="uni0306" unicode="&#x306;" 
d="M-80 725h30q-3 -61 -37.5 -100.5t-92.5 -39.5t-92.5 39.5t-37.5 100.5h30q-1 -21 2 -40.5t12 -41.5t31 -35t55 -13t55 13t31 35t12 41.5t2 40.5z" />
    <glyph glyph-name="uni0307" unicode="&#x307;" 
d="M-90 600l-40 40l40 40l40 -40z" />
    <glyph glyph-name="uni0308" unicode="&#x308;" 
d="M-230 600l-40 40l40 40l40 -40zM-90 600l-40 40l40 40l40 -40z" />
    <glyph glyph-name="uni030A" unicode="&#x30a;" 
d="M-135 585q-37 0 -61 25.5t-24 59.5t24 59.5t61 25.5t61 -25.5t24 -59.5t-24 -59.5t-61 -25.5zM-135 595q33 0 54 22.5t21 52.5t-21 52.5t-54 22.5t-54 -22.5t-21 -52.5t21 -52.5t54 -22.5z" />
    <glyph glyph-name="uni030B" unicode="&#x30b;" 
d="M-287 595l-5 5l125 145q25 -7 1 -41q-32 -47 -121 -109zM-181 595l-5 5l125 145q25 -7 1 -41q-32 -47 -121 -109z" />
    <glyph glyph-name="uni030C" unicode="&#x30c;" 
d="M-88 731q31 27 38 3q-83 -75 -130 -132q-47 57 -130 132q6 23 38 -3q36 -30 92 -119q52 84 92 119z" />
    <glyph glyph-name="uni0312" unicode="&#x312;" 
d="M-90 659l40 -40l-40 -40l-40 40l75 155l5 -5z" />
    <glyph glyph-name="uni0326" unicode="&#x326;" 
d="M-90 -170l-40 40l40 40l40 -40l-75 -155l-5 5z" />
    <glyph glyph-name="uni0327" unicode="&#x327;" 
d="M-188 10h30l-65 -84q86 7 129.5 -26t43.5 -85q0 -45 -30.5 -75t-84.5 -30q-104 0 -152 99l30 30q38 -119 122 -119q85 0 85 95q0 53 -36.5 81.5t-116.5 21.5v10z" />
    <glyph glyph-name="uni0328" unicode="&#x328;" 
d="M-80 -135l30 -30q-18 -29 -30 -46t-33 -38t-47.5 -31t-58.5 -10q-55 0 -85.5 25.5t-30.5 74.5q0 31 17 59t38.5 45.5t56.5 45t56 50.5h10q-23 -27 -68.5 -68t-62.5 -68t-17 -64q0 -46 25 -68t61 -22q29 0 50.5 10t38.5 34.5t26 43.5t24 57z" />
    <glyph glyph-name="Wgrave" unicode="&#x1e80;" horiz-adv-x="911" 
d="M524 875q-115 71 -156 112q-12 12 -14 22.5t11 15.5l164 -145zM829 707l-196 -671q-4 -17 4 -36h-33l-147 512l-139 -476q-4 -17 4 -36h-33l-203 706q-14 50 -36 94h42q3 -34 20 -94l194 -674l146 498l-51 176q-14 50 -36 94h42q3 -34 20 -94l38 -131l38 131
q3 10 7.5 24.5t7 22.5t5 20.5t3.5 26.5h20q-11 -23 -32 -93l-44 -151l151 -524l197 674q3 10 7.5 24.5t7 22.5t5 20.5t3.5 26.5h20q-11 -23 -32 -93z" />
    <glyph glyph-name="wgrave" unicode="&#x1e81;" horiz-adv-x="653" 
d="M390 595q-115 71 -156 112q-12 12 -14 22.5t11 15.5l164 -145zM602 460q26 -71 -5 -145l-108 -254q-17 -39 -13 -61h-27l-97 229l-71 -168q-17 -39 -13 -61h-27l-168 395q-6 15 -33 65h37q5 -23 22 -63l158 -367l89 212l-65 153q-6 15 -33 65h37q5 -23 22 -63l158 -367
l122 288q6 13 9.5 25t5 21t1 18t-1.5 14t-4 12t-4 9.5t-5 8.5t-4 7q-7 13 -1 21t19 6z" />
    <glyph glyph-name="Wacute" unicode="&#x1e82;" horiz-adv-x="911" 
d="M554 987q-41 -41 -156 -112l-5 5l164 145q13 -5 11 -15.5t-14 -22.5zM829 707l-196 -671q-4 -17 4 -36h-33l-147 512l-139 -476q-4 -17 4 -36h-33l-203 706q-14 50 -36 94h42q3 -34 20 -94l194 -674l146 498l-51 176q-14 50 -36 94h42q3 -34 20 -94l38 -131l38 131
q3 10 7.5 24.5t7 22.5t5 20.5t3.5 26.5h20q-11 -23 -32 -93l-44 -151l151 -524l197 674q3 10 7.5 24.5t7 22.5t5 20.5t3.5 26.5h20q-11 -23 -32 -93z" />
    <glyph glyph-name="wacute" unicode="&#x1e83;" horiz-adv-x="653" 
d="M420 707q-41 -41 -156 -112l-5 5l164 145q13 -5 11 -15.5t-14 -22.5zM602 460q26 -71 -5 -145l-108 -254q-17 -39 -13 -61h-27l-97 229l-71 -168q-17 -39 -13 -61h-27l-168 395q-6 15 -33 65h37q5 -23 22 -63l158 -367l89 212l-65 153q-6 15 -33 65h37q5 -23 22 -63
l158 -367l122 288q6 13 9.5 25t5 21t1 18t-1.5 14t-4 12t-4 9.5t-5 8.5t-4 7q-7 13 -1 21t19 6z" />
    <glyph glyph-name="Wdieresis" unicode="&#x1e84;" horiz-adv-x="911" 
d="M431 920l-40 -40l-40 40l40 40zM571 920l-40 -40l-40 40l40 40zM829 707l-196 -671q-4 -17 4 -36h-33l-147 512l-139 -476q-4 -17 4 -36h-33l-203 706q-14 50 -36 94h42q3 -34 20 -94l194 -674l146 498l-51 176q-14 50 -36 94h42q3 -34 20 -94l38 -131l38 131
q3 10 7.5 24.5t7 22.5t5 20.5t3.5 26.5h20q-11 -23 -32 -93l-44 -151l151 -524l197 674q3 10 7.5 24.5t7 22.5t5 20.5t3.5 26.5h20q-11 -23 -32 -93z" />
    <glyph glyph-name="wdieresis" unicode="&#x1e85;" horiz-adv-x="653" 
d="M297 640l-40 -40l-40 40l40 40zM437 640l-40 -40l-40 40l40 40zM602 460q26 -71 -5 -145l-108 -254q-17 -39 -13 -61h-27l-97 229l-71 -168q-17 -39 -13 -61h-27l-168 395q-6 15 -33 65h37q5 -23 22 -63l158 -367l89 212l-65 153q-6 15 -33 65h37q5 -23 22 -63l158 -367
l122 288q6 13 9.5 25t5 21t1 18t-1.5 14t-4 12t-4 9.5t-5 8.5t-4 7q-7 13 -1 21t19 6z" />
    <glyph glyph-name="Ygrave" unicode="&#x1ef2;" horiz-adv-x="631" 
d="M379 875q-115 71 -156 112q-12 12 -14 22.5t11 15.5l164 -145zM525 707l-195 -351v-176q0 -87 5 -180h-35q5 93 5 180v176l-193 350q-23 41 -62 94h45q10 -31 46 -94l185 -336l187 336q31 55 50 94h18q-26 -39 -56 -93z" />
    <glyph glyph-name="ygrave" unicode="&#x1ef3;" horiz-adv-x="461" 
d="M301 595q-115 71 -156 112q-12 12 -14 22.5t11 15.5l164 -145zM403 460h18q-10 -19 -21 -52l-147 -408q-29 -79 -60 -119.5t-80 -40.5q-37 0 -72 21q-5 13 5.5 19.5t20.5 -5.5q22 -25 46 -25q45 0 74 40.5t54 109.5h-17l-156 408q-11 27 -27 52h40q3 -24 14 -52l152 -392
l141 392q9 26 15 52z" />
    <glyph glyph-name="endash" unicode="&#x2013;" horiz-adv-x="940" 
d="M70 272q400 -12 800 0v-25q-400 13 -800 0v25z" />
    <glyph glyph-name="emdash" unicode="&#x2014;" horiz-adv-x="1240" 
d="M70 272q550 -12 1100 0v-25q-550 14 -1100 0v25z" />
    <glyph glyph-name="quoteleft" unicode="&#x2018;" horiz-adv-x="220" 
d="M110 699l40 -40l-40 -40l-40 40l75 155l5 -5z" />
    <glyph glyph-name="quoteright" unicode="&#x2019;" horiz-adv-x="220" 
d="M110 730l-40 40l40 40l40 -40l-75 -155l-5 5z" />
    <glyph glyph-name="quotesinglbase" unicode="&#x201a;" horiz-adv-x="220" 
d="M110 -20l-40 40l40 40l40 -40l-75 -155l-5 5z" />
    <glyph glyph-name="quotedblleft" unicode="&#x201c;" horiz-adv-x="330" 
d="M110 699l40 -40l-40 -40l-40 40l75 155l5 -5zM220 699l40 -40l-40 -40l-40 40l75 155l5 -5z" />
    <glyph glyph-name="quotedblright" unicode="&#x201d;" horiz-adv-x="330" 
d="M110 730l-40 40l40 40l40 -40l-75 -155l-5 5zM220 730l-40 40l40 40l40 -40l-75 -155l-5 5z" />
    <glyph glyph-name="quotedblbase" unicode="&#x201e;" horiz-adv-x="330" 
d="M110 -20l-40 40l40 40l40 -40l-75 -155l-5 5zM220 -20l-40 40l40 40l40 -40l-75 -155l-5 5z" />
    <glyph glyph-name="dagger" unicode="&#x2020;" horiz-adv-x="560" 
d="M442 600q38 0 38 -20t-38 -20q-12 0 -55.5 7.5t-101.5 7.5q0 -115 18 -187q-7 -61 -10.5 -135t-4.5 -138.5t-3 -276.5h-10q-2 281 -4.5 372.5t-12.5 177.5q18 73 17 187q-58 0 -101.5 -7.5t-55.5 -7.5q-38 0 -38 20t38 20q12 0 55.5 -7.5t101.5 -7.5q-1 59 -8 121.5
t-7 75.5q0 38 20 38t20 -38q0 -12 -7.5 -75t-7.5 -122q58 1 101 8t56 7z" />
    <glyph glyph-name="daggerdbl" unicode="&#x2021;" horiz-adv-x="500" 
d="M412 -24q38 0 38 -20t-38 -20q-13 0 -56 7t-101 8q0 -59 7.5 -122t7.5 -75q0 -38 -20 -38t-20 38q0 13 7 75.5t8 121.5q-58 0 -101.5 -7.5t-55.5 -7.5q-38 0 -38 20t38 20q12 0 55.5 -7.5t101.5 -7.5q1 97 -17 157q17 60 17 150t-17 150q18 60 17 157q-58 0 -101.5 -7.5
t-55.5 -7.5q-38 0 -38 20t38 20q12 0 55.5 -7.5t101.5 -7.5q-1 59 -8 121.5t-7 75.5q0 38 20 38t20 -38q0 -12 -7.5 -75t-7.5 -122q58 1 101 8t56 7q38 0 38 -20t-38 -20q-12 0 -55.5 7.5t-101.5 7.5q0 -98 18 -157q-18 -64 -18 -150t18 -150q-18 -59 -18 -157
q58 0 101.5 7.5t55.5 7.5z" />
    <glyph glyph-name="bullet" unicode="&#x2022;" horiz-adv-x="336" 
d="M168 162l-98 98l98 98l98 -98z" />
    <glyph glyph-name="ellipsis" unicode="&#x2026;" horiz-adv-x="560" 
d="M110 -20l-40 40l40 40l40 -40zM280 -20l-40 40l40 40l40 -40zM450 -20l-40 40l40 40l40 -40z" />
    <glyph glyph-name="perthousand" unicode="&#x2030;" horiz-adv-x="1549" 
d="M242 818q125 14 246 6t230 -30q-209 -469 -330 -794l-38 6q205 458 327 786q-33 2 -160.5 14.5t-203.5 8.5q72 -15 114.5 -75.5t42.5 -129.5q0 -80 -55.5 -145t-144.5 -65t-144.5 65t-55.5 145q0 74 47 135.5t125 72.5zM440 610q0 78 -43.5 139t-126.5 61t-126.5 -61
t-43.5 -139t43.5 -139t126.5 -61t126.5 61t43.5 139zM799 400q89 0 144.5 -65t55.5 -145t-55.5 -145t-144.5 -65t-144.5 65t-55.5 145t55.5 145t144.5 65zM1279 400q89 0 144.5 -65t55.5 -145t-55.5 -145t-144.5 -65t-144.5 65t-55.5 145t55.5 145t144.5 65zM799 -10
q83 0 126.5 60.5t43.5 139.5q0 78 -43.5 139t-126.5 61t-126.5 -61t-43.5 -139q0 -79 43.5 -139.5t126.5 -60.5zM1279 -10q83 0 126.5 60.5t43.5 139.5q0 78 -43.5 139t-126.5 61t-126.5 -61t-43.5 -139q0 -79 43.5 -139.5t126.5 -60.5z" />
    <glyph glyph-name="guilsinglleft" unicode="&#x2039;" horiz-adv-x="350" 
d="M80 230q36 -27 72.5 -53.5t53 -38.5t32.5 -25t28 -25t14 -22.5t-11 -15.5q-147 137 -199 180q52 43 199 180q13 -5 11 -15.5t-14 -22.5t-28 -25t-32.5 -25t-53 -38.5t-72.5 -53.5z" />
    <glyph glyph-name="guilsinglright" unicode="&#x203a;" horiz-adv-x="350" 
d="M81 410q147 -137 199 -180q-52 -43 -199 -180q-13 5 -11 15.5t14 22.5t28 25t32.5 25t53 38.5t72.5 53.5q-36 27 -72.5 53.5t-53 38.5t-32.5 25t-28 25t-14 22.5t11 15.5z" />
    <glyph glyph-name="fraction" unicode="&#x2044;" horiz-adv-x="442" 
d="M401 803l31 -14q-89 -197 -203.5 -477t-187.5 -481l-31 14q89 197 203.5 477t187.5 481z" />
    <glyph glyph-name="Euro" unicode="&#x20ac;" horiz-adv-x="920" 
d="M560 50q83 0 137.5 37.5t112.5 113.5l40 -20q-79 -74 -142.5 -107.5t-147.5 -33.5q-129 0 -210.5 80.5t-102.5 201.5q-89 0 -177 -5l20 25q94 -4 154 -4q-4 27 -4 62q0 15 2 41q-82 -2 -122 -4l20 25q14 0 49 -1.5t55 -2.5q17 129 99 215.5t217 86.5q84 0 147.5 -33.5
t142.5 -107.5l-40 -20q-58 76 -112.5 113.5t-137.5 37.5q-125 0 -198 -84t-89 -208q217 -3 380 4l-20 -25q-148 8 -361 5q-2 -28 -2 -42q0 -35 4 -63q172 -2 329 5l-20 -25q-137 8 -307 6q20 -118 92 -195.5t192 -77.5z" />
    <glyph glyph-name="trademark" unicode="&#x2122;" horiz-adv-x="676" 
d="M329 800l-20 -19q-57 9 -97 9h-10v-80q0 -87 5 -180h-35q5 93 5 180v80h-10q-40 0 -97 -9l-20 19h279zM626 800q-2 -28 -3.5 -72.5t-1.5 -47.5q0 -8 1 -36t2 -57.5t2 -56.5h-35q5 93 5 170v52l-104 -235h-12l-110 232v-49q0 -77 5 -170h-20q1 27 2 56.5t2 57.5t1 36
q0 3 -1.5 47.5t-3.5 72.5h19l120 -254l112 254h20z" />
    <glyph glyph-name="arrowleft" unicode="&#x2190;" horiz-adv-x="584" 
d="M534 229l-14 -13q-131 9 -444 9q21 -10 49 -28.5t44.5 -30.5t57 -43t49.5 -38l2 -19l-19 -2q-45 51 -104.5 98.5t-104.5 67.5q45 20 104.5 67.5t104.5 98.5l19 -2l-2 -19q-9 -7 -49.5 -38t-57 -43t-44.5 -30.5t-49 -28.5q313 0 444 7z" />
    <glyph glyph-name="arrowup" unicode="&#x2191;" horiz-adv-x="430" 
d="M215 469q20 -45 67.5 -104.5t98.5 -104.5l-2 -19l-19 2q-7 9 -38 49.5t-43 57t-30.5 44.5t-28.5 49q0 -313 9 -444l-13 -14l-13 14q7 131 7 444q-10 -21 -28.5 -49t-30.5 -44.5t-43 -57t-38 -49.5l-19 -2l-2 19q51 45 98.5 104.5t67.5 104.5z" />
    <glyph glyph-name="arrowright" unicode="&#x2192;" horiz-adv-x="584" 
d="M325 396q45 -51 104.5 -98.5t104.5 -67.5q-45 -20 -104.5 -67.5t-104.5 -98.5l-19 2l2 19q9 7 49.5 38t57 43t44.5 30.5t49 28.5q-313 0 -444 -9l-14 13l14 13q131 -7 444 -7q-21 10 -49 28.5t-44.5 30.5t-57 43t-49.5 38l-2 19z" />
    <glyph glyph-name="arrowdown" unicode="&#x2193;" horiz-adv-x="430" 
d="M379 213l2 -19q-51 -45 -98.5 -104.5t-67.5 -104.5q-20 45 -67.5 104.5t-98.5 104.5l2 19l19 -2q7 -9 38 -49.5t43 -57t30.5 -44.5t28.5 -49q0 313 -7 444l13 14l13 -14q-9 -131 -9 -444q10 21 28.5 49t30.5 44.5t43 57t38 49.5z" />
    <glyph glyph-name="arrowboth" unicode="&#x2194;" horiz-adv-x="720" 
d="M461 396q45 -51 104.5 -98.5t104.5 -67.5q-45 -20 -104.5 -67.5t-104.5 -98.5l-19 2l2 19q9 7 49.5 38t57 43t44.5 30.5t49 28.5q-154 0 -200.5 -2t-83.5 -12q-37 10 -83.5 12t-200.5 2q21 -10 49 -28.5t44.5 -30.5t57 -43t49.5 -38l2 -19l-19 -2q-45 51 -104.5 98.5
t-104.5 67.5q45 20 104.5 67.5t104.5 98.5l19 -2l-2 -19q-9 -7 -49.5 -38t-57 -43t-44.5 -30.5t-49 -28.5q154 0 200.5 2t83.5 11q37 -9 83.5 -11t200.5 -2q-21 10 -49 28.5t-44.5 30.5t-57 43t-49.5 38l-2 19z" />
    <glyph glyph-name="arrowupdn" unicode="&#x2195;" horiz-adv-x="432" 
d="M361 146l19 2l2 -19q-51 -45 -98.5 -104.5t-67.5 -104.5q-20 45 -67.5 104.5t-98.5 104.5l2 19l19 -2q7 -9 38 -49.5t43 -57t30.5 -44.5t28.5 -49q0 155 -2 201t-12 83q10 37 12 83.5t2 200.5q-10 -21 -28.5 -49t-30.5 -44.5t-43 -57t-38 -49.5l-19 -2l-2 19
q51 45 98.5 104.5t67.5 104.5q20 -45 67.5 -104.5t98.5 -104.5l-2 -19l-19 2q-7 9 -38 49.5t-43 57t-30.5 44.5t-28.5 49q0 -154 2 -200.5t11 -83.5q-9 -37 -11 -83.5t-2 -200.5q10 21 28.5 49t30.5 44.5t43 57t38 49.5z" />
    <glyph glyph-name="uni2196" unicode="&#x2196;" horiz-adv-x="451" 
d="M392 59l-20 1q-93 107 -307 321q18 -53 42 -241l-12 -15l-15 12q4 68 -4.5 143.5t-25.5 121.5q47 -17 123 -25.5t142 -4.5l12 -15l-15 -12q-194 27 -240 43q231 -231 319 -310z" />
    <glyph glyph-name="uni2197" unicode="&#x2197;" horiz-adv-x="451" 
d="M401 402q-17 -46 -25.5 -121.5t-4.5 -143.5l-15 -12l-12 15q24 188 42 241q-214 -214 -307 -321l-20 -1l1 19q88 79 319 310q-46 -16 -240 -43l-15 12l12 15q66 -4 142 4.5t123 25.5z" />
    <glyph glyph-name="uni2198" unicode="&#x2198;" horiz-adv-x="451" 
d="M371 316q-4 -68 4.5 -143.5t25.5 -121.5q-47 17 -123 25.5t-142 4.5l-12 15l15 12q194 -27 240 -43q-231 231 -319 310l-1 19l20 -1q93 -107 307 -321q-18 53 -42 241l12 15z" />
    <glyph glyph-name="uni2199" unicode="&#x2199;" horiz-adv-x="451" 
d="M391 375q-88 -79 -319 -310q46 16 240 43l15 -12l-12 -15q-66 4 -142 -4.5t-123 -25.5q17 46 25.5 121.5t4.5 143.5l15 12l12 -15q-24 -188 -42 -241q214 214 307 321l20 1z" />
    <glyph glyph-name="minus" unicode="&#x2212;" horiz-adv-x="553" 
d="M50 272q226 -10 453 0v-25q-227 12 -453 0v25z" />
    <glyph glyph-name="approxequal" unicode="&#x2248;" horiz-adv-x="495" 
d="M161 372q34 0 88.5 -30t84.5 -30q41 0 81 50l30 -20q-52 -50 -111 -50q-34 0 -88.5 30t-84.5 30q-41 0 -81 -50l-30 20q52 50 111 50zM161 232q34 0 88.5 -30t84.5 -30q41 0 81 50l30 -20q-52 -50 -111 -50q-34 0 -88.5 30t-84.5 30q-41 0 -81 -50l-30 20q52 50 111 50z
" />
    <glyph glyph-name="notequal" unicode="&#x2260;" horiz-adv-x="553" 
d="M503 327q-89 5 -177 6q-55 -94 -83 -146q121 -1 260 5v-25q-134 8 -268 6q-21 -38 -66 -124l-22 13q33 51 69 111q-84 -2 -166 -6v25q58 -3 175 -5q38 65 85 146q-130 1 -260 -6v25q143 -6 268 -5q54 97 86 159l22 -13q-42 -63 -91 -146q112 2 168 5v-25z" />
    <glyph glyph-name="lessequal" unicode="&#x2264;" horiz-adv-x="389" 
d="M339 154l-13 -22q-103 67 -276 158q173 91 276 158l13 -22q-25 -14 -259 -136q234 -122 259 -136zM339 97v-25q-144 11 -289 0v25q145 -10 289 0z" />
    <glyph glyph-name="greaterequal" unicode="&#x2265;" horiz-adv-x="389" 
d="M50 154q25 14 259 136q-234 122 -259 136l13 22q103 -67 276 -158q-173 -91 -276 -158zM50 97q145 -10 289 0v-25q-144 11 -289 0v25z" />
    <glyph glyph-name="i.loclTRK" horiz-adv-x="135" 
d="M68 600l-40 40l40 40l40 -40zM50 460h35q-5 -63 -5 -170v-120q0 -107 5 -170h-35q5 63 5 170v120q0 107 -5 170z" />
    <glyph glyph-name="e.ss01" horiz-adv-x="528" 
d="M488 190h10q-20 -46 -40 -80t-48.5 -65.5t-66.5 -48t-83 -16.5q-94 0 -152 67.5t-58 172.5q0 107 59 183.5t151 76.5q76 0 123 -54.5t47 -125.5h-342q-8 -40 -8 -80q0 -92 47.5 -161t132.5 -69q45 0 80 14.5t62 46t45 61t41 78.5zM260 470q-66 0 -109.5 -44t-60.5 -116
h310q0 65 -38 112.5t-102 47.5z" />
    <glyph glyph-name="eacute.ss01" horiz-adv-x="528" 
d="M352 707q-41 -41 -156 -112l-5 5l164 145q13 -5 11 -15.5t-14 -22.5zM488 190h10q-20 -46 -40 -80t-48.5 -65.5t-66.5 -48t-83 -16.5q-94 0 -152 67.5t-58 172.5q0 107 59 183.5t151 76.5q76 0 123 -54.5t47 -125.5h-342q-8 -40 -8 -80q0 -92 47.5 -161t132.5 -69
q45 0 80 14.5t62 46t45 61t41 78.5zM260 470q-66 0 -109.5 -44t-60.5 -116h310q0 65 -38 112.5t-102 47.5z" />
    <glyph glyph-name="ecaron.ss01" horiz-adv-x="528" 
d="M259 602q-47 57 -130 132q6 23 38 -3q36 -30 92 -119q52 84 92 119q31 27 38 3q-83 -75 -130 -132zM488 190h10q-20 -46 -40 -80t-48.5 -65.5t-66.5 -48t-83 -16.5q-94 0 -152 67.5t-58 172.5q0 107 59 183.5t151 76.5q76 0 123 -54.5t47 -125.5h-342q-8 -40 -8 -80
q0 -92 47.5 -161t132.5 -69q45 0 80 14.5t62 46t45 61t41 78.5zM260 470q-66 0 -109.5 -44t-60.5 -116h310q0 65 -38 112.5t-102 47.5z" />
    <glyph glyph-name="ecircumflex.ss01" horiz-adv-x="528" 
d="M167 616q-32 -26 -38 -3q83 75 130 132q47 -57 130 -132q-7 -24 -38 3q-40 35 -92 119q-56 -89 -92 -119zM488 190h10q-20 -46 -40 -80t-48.5 -65.5t-66.5 -48t-83 -16.5q-94 0 -152 67.5t-58 172.5q0 107 59 183.5t151 76.5q76 0 123 -54.5t47 -125.5h-342
q-8 -40 -8 -80q0 -92 47.5 -161t132.5 -69q45 0 80 14.5t62 46t45 61t41 78.5zM260 470q-66 0 -109.5 -44t-60.5 -116h310q0 65 -38 112.5t-102 47.5z" />
    <glyph glyph-name="edieresis.ss01" horiz-adv-x="528" 
d="M229 640l-40 -40l-40 40l40 40zM369 640l-40 -40l-40 40l40 40zM488 190h10q-20 -46 -40 -80t-48.5 -65.5t-66.5 -48t-83 -16.5q-94 0 -152 67.5t-58 172.5q0 107 59 183.5t151 76.5q76 0 123 -54.5t47 -125.5h-342q-8 -40 -8 -80q0 -92 47.5 -161t132.5 -69
q45 0 80 14.5t62 46t45 61t41 78.5zM260 470q-66 0 -109.5 -44t-60.5 -116h310q0 65 -38 112.5t-102 47.5z" />
    <glyph glyph-name="edotaccent.ss01" horiz-adv-x="528" 
d="M299 640l-40 -40l-40 40l40 40zM488 190h10q-20 -46 -40 -80t-48.5 -65.5t-66.5 -48t-83 -16.5q-94 0 -152 67.5t-58 172.5q0 107 59 183.5t151 76.5q76 0 123 -54.5t47 -125.5h-342q-8 -40 -8 -80q0 -92 47.5 -161t132.5 -69q45 0 80 14.5t62 46t45 61t41 78.5zM260 470
q-66 0 -109.5 -44t-60.5 -116h310q0 65 -38 112.5t-102 47.5z" />
    <glyph glyph-name="egrave.ss01" horiz-adv-x="528" 
d="M322 595q-115 71 -156 112q-12 12 -14 22.5t11 15.5l164 -145zM488 190h10q-20 -46 -40 -80t-48.5 -65.5t-66.5 -48t-83 -16.5q-94 0 -152 67.5t-58 172.5q0 107 59 183.5t151 76.5q76 0 123 -54.5t47 -125.5h-342q-8 -40 -8 -80q0 -92 47.5 -161t132.5 -69q45 0 80 14.5
t62 46t45 61t41 78.5zM260 470q-66 0 -109.5 -44t-60.5 -116h310q0 65 -38 112.5t-102 47.5z" />
    <glyph glyph-name="emacron.ss01" horiz-adv-x="528" 
d="M416 658q-156 9 -313 0v25q110 -5 157 -5t156 5v-25zM488 190h10q-20 -46 -40 -80t-48.5 -65.5t-66.5 -48t-83 -16.5q-94 0 -152 67.5t-58 172.5q0 107 59 183.5t151 76.5q76 0 123 -54.5t47 -125.5h-342q-8 -40 -8 -80q0 -92 47.5 -161t132.5 -69q45 0 80 14.5t62 46
t45 61t41 78.5zM260 470q-66 0 -109.5 -44t-60.5 -116h310q0 65 -38 112.5t-102 47.5z" />
    <glyph glyph-name="eogonek.ss01" horiz-adv-x="528" 
d="M305 -280q29 0 50.5 10t38.5 34.5t26 43.5t24 57l30 -30q-18 -29 -30 -46t-33 -38t-47.5 -31t-58.5 -10q-55 0 -85.5 25.5t-30.5 74.5q0 38 20 66t69 66t67 56q-37 -18 -85 -18q-94 0 -152 67.5t-58 172.5q0 107 59 183.5t151 76.5q76 0 123 -54.5t47 -125.5h-342
q-8 -40 -8 -80q0 -92 47.5 -161t132.5 -69q45 0 80 14.5t62 46t45 61t41 78.5h10q-56 -134 -131 -180q-23 -27 -68.5 -68t-62.5 -68t-17 -64q0 -46 25 -68t61 -22zM260 470q-66 0 -109.5 -44t-60.5 -116h310q0 65 -38 112.5t-102 47.5z" />
    <glyph glyph-name="f.ss01" horiz-adv-x="398" 
d="M206 820q20 0 40 -3.5t34.5 -7.5t36 -14t32 -15.5t35.5 -19.5t34 -19q0 -21 -20.5 -24t-42.5 16l-23 23t-30.5 27.5t-37.5 17.5t-58 9q-58 0 -107 -49.5t-49 -127.5q0 -80 51.5 -126.5t128.5 -46.5h126v-10q-62 0 -98.5 -8t-53 -29.5t-20 -42t-3.5 -62.5v-128
q0 -87 5 -180h-35q5 93 5 180v128q0 40 5.5 64.5t27 46t62.5 31.5h-21q-29 0 -57 5.5t-56 19t-49.5 34t-34.5 52.5t-13 72q0 88 58 137.5t128 49.5z" />
    <glyph glyph-name="k.ss01" horiz-adv-x="468" 
d="M327 104q45 -57 101 -104h-61q-18 34 -72 104l-87 114q-34 -14 -108 -40q0 -106 5 -178h-35q5 73 5 180v440q0 107 -5 180h35q-5 -73 -5 -180v-432q45 16 70 26t58.5 26.5t50.5 32t29.5 38t12.5 48.5q0 53 -69 101l4 9q95 -59 95 -114q0 -73 -120 -127z" />
    <glyph glyph-name="uni0137.ss01" horiz-adv-x="468" 
d="M327 104q45 -57 101 -104h-61q-18 34 -72 104l-87 114q-34 -14 -108 -40q0 -106 5 -178h-35q5 73 5 180v440q0 107 -5 180h35q-5 -73 -5 -180v-432q45 16 70 26t58.5 26.5t50.5 32t29.5 38t12.5 48.5q0 53 -69 101l4 9q95 -59 95 -114q0 -73 -120 -127zM184 -130l40 40
l40 -40l-75 -155l-5 5l40 110z" />
    <glyph glyph-name="y.ss01" horiz-adv-x="494" 
d="M389 460h35v-445q0 -20 -3 -37.5t-7 -31.5t-15 -27.5t-18 -22.5t-25.5 -20.5t-29.5 -18t-37.5 -18t-40.5 -17.5t-48.5 -20t-53.5 -22v11q23 10 63.5 26t57.5 23.5t45 22t39 26t25 29t18.5 39t4.5 49.5v102q-25 -50 -73.5 -89t-110.5 -39q-70 0 -102.5 43.5t-32.5 135.5
v121q0 87 -10 180h35v-301q0 -169 113 -169q63 0 109.5 39t71.5 89v162q0 87 -10 180z" />
    <glyph glyph-name="yacute.ss01" horiz-adv-x="494" 
d="M340 707q-41 -41 -156 -112l-5 5l164 145q13 -5 11 -15.5t-14 -22.5zM389 460h35v-445q0 -20 -3 -37.5t-7 -31.5t-15 -27.5t-18 -22.5t-25.5 -20.5t-29.5 -18t-37.5 -18t-40.5 -17.5t-48.5 -20t-53.5 -22v11q23 10 63.5 26t57.5 23.5t45 22t39 26t25 29t18.5 39t4.5 49.5
v102q-25 -50 -73.5 -89t-110.5 -39q-70 0 -102.5 43.5t-32.5 135.5v121q0 87 -10 180h35v-301q0 -169 113 -169q63 0 109.5 39t71.5 89v162q0 87 -10 180z" />
    <glyph glyph-name="ycircumflex.ss01" horiz-adv-x="494" 
d="M155 616q-32 -26 -38 -3q83 75 130 132q47 -57 130 -132q-7 -24 -38 3q-40 35 -92 119q-56 -89 -92 -119zM389 460h35v-445q0 -20 -3 -37.5t-7 -31.5t-15 -27.5t-18 -22.5t-25.5 -20.5t-29.5 -18t-37.5 -18t-40.5 -17.5t-48.5 -20t-53.5 -22v11q23 10 63.5 26t57.5 23.5
t45 22t39 26t25 29t18.5 39t4.5 49.5v102q-25 -50 -73.5 -89t-110.5 -39q-70 0 -102.5 43.5t-32.5 135.5v121q0 87 -10 180h35v-301q0 -169 113 -169q63 0 109.5 39t71.5 89v162q0 87 -10 180z" />
    <glyph glyph-name="ydieresis.ss01" horiz-adv-x="494" 
d="M217 640l-40 -40l-40 40l40 40zM357 640l-40 -40l-40 40l40 40zM389 460h35v-445q0 -20 -3 -37.5t-7 -31.5t-15 -27.5t-18 -22.5t-25.5 -20.5t-29.5 -18t-37.5 -18t-40.5 -17.5t-48.5 -20t-53.5 -22v11q23 10 63.5 26t57.5 23.5t45 22t39 26t25 29t18.5 39t4.5 49.5v102
q-25 -50 -73.5 -89t-110.5 -39q-70 0 -102.5 43.5t-32.5 135.5v121q0 87 -10 180h35v-301q0 -169 113 -169q63 0 109.5 39t71.5 89v162q0 87 -10 180z" />
    <glyph glyph-name="ygrave.ss01" horiz-adv-x="494" 
d="M310 595q-115 71 -156 112q-12 12 -14 22.5t11 15.5l164 -145zM389 460h35v-445q0 -20 -3 -37.5t-7 -31.5t-15 -27.5t-18 -22.5t-25.5 -20.5t-29.5 -18t-37.5 -18t-40.5 -17.5t-48.5 -20t-53.5 -22v11q23 10 63.5 26t57.5 23.5t45 22t39 26t25 29t18.5 39t4.5 49.5v102
q-25 -50 -73.5 -89t-110.5 -39q-70 0 -102.5 43.5t-32.5 135.5v121q0 87 -10 180h35v-301q0 -169 113 -169q63 0 109.5 39t71.5 89v162q0 87 -10 180z" />
    <glyph glyph-name="C_O" horiz-adv-x="1342" 
d="M428 -10q138 0 222 91t116 245h10q-32 -161 -118 -253.5t-230 -92.5q-173 0 -270.5 123.5t-97.5 306.5q0 174 106 292t264 118q198 0 300 -201l-40 -10q-32 88 -96.5 144.5t-163.5 56.5q-148 0 -244 -116t-96 -284q0 -85 21 -159.5t61.5 -133t106.5 -93t149 -34.5z
M1054 820q108 0 173 -70.5t65 -159.5t-65 -159.5t-173 -70.5q-109 0 -173 70t-64 160t64 160t173 70zM1054 370q96 0 152 67.5t56 152.5t-56 152.5t-152 67.5t-151.5 -67.5t-55.5 -152.5t55.5 -152.5t151.5 -67.5zM1015 20l40 40l40 -40l-40 -40z" />
    <glyph glyph-name="E_S_T_D" horiz-adv-x="1893" 
d="M753 463q12 -10 35 -29q60 -50 87 -74t58 -58.5t42 -65t11 -67.5q0 -91 -57.5 -140t-145.5 -49q-218 0 -280 266l40 10q4 -119 72 -192.5t168 -73.5q80 0 131.5 45.5t51.5 133.5q0 18 -5 36.5t-11 33t-22 33.5t-26 31t-35 34t-38.5 33t-46.5 38.5t-49 40.5q-11 9 -34 28
t-31.5 26t-26 22t-24 21.5t-18.5 19.5t-16 20.5t-11.5 19.5t-9.5 22t-4 22.5t-2 25.5q0 67 45.5 105.5t123.5 38.5q152 0 227 -176l-40 -10q-7 73 -53.5 124.5t-133.5 51.5q-69 0 -109 -34t-40 -92q0 -23 6.5 -44t15 -35.5t28.5 -34.5t34 -31.5t44.5 -36t48.5 -39.5zM102 10
h137q149 0 260 20l-20 -30h-409q7 93 7 180v440q0 87 -7 180h396l-30 -30q-104 20 -237 20h-97v-358h76q107 0 200 10v-30q-93 10 -200 10h-76v-412zM1480 800l-30 -30q-104 20 -207 20h-10v-610q0 -87 5 -180h-35q5 93 5 180v610h-10q-103 0 -207 -20l-30 30h519zM1641 800
q91 0 141.5 -56t50.5 -154q0 -93 -51 -151.5t-141 -58.5h-100q5 93 5 180v60q0 87 -5 180h100zM1641 390q69 0 115.5 56t46.5 144q0 94 -46 147t-116 53h-70v-400h70zM1637 20l40 40l40 -40l-40 -40z" />
    <glyph glyph-name="L_T_D" horiz-adv-x="1063" 
d="M72 800h35q-5 -93 -5 -180v-610h465q149 0 260 20l-20 -30h-737q7 93 7 180v440q0 87 -5 180zM292 800h319l-10 -20q-60 10 -123 10h-14v-230q0 -87 5 -180h-35q5 93 5 180v230h-14q-63 0 -123 -10zM711 380q5 93 5 180v60q0 87 -5 180h100q91 0 141.5 -56t50.5 -154
q0 -93 -51 -151.5t-141 -58.5h-100zM811 390q69 0 115.5 56t46.5 144q0 94 -46 147t-116 53h-70v-400h70zM963 -20l-40 40l40 40l40 -40z" />
    <glyph glyph-name="S_T" horiz-adv-x="889" 
d="M40 246l40 10q4 -119 72 -192.5t168 -73.5q80 0 131.5 45.5t51.5 133.5q0 18 -5 36.5t-11 33t-22 33.5t-26 31t-35 34t-38.5 33t-46.5 38.5t-49 40.5q-11 9 -34 28t-31.5 26t-26 22t-24 21.5t-18.5 19.5t-16 20.5t-11.5 19.5t-9.5 22t-4 22.5t-2 25.5q0 67 45.5 105.5
t123.5 38.5q152 0 227 -176l-40 -10q-7 73 -53.5 124.5t-133.5 51.5q-69 0 -109 -34t-40 -92q0 -23 6.5 -44t15 -35.5t28.5 -34.5t34 -31.5t44.5 -36t48.5 -39.5q12 -10 35 -29q60 -50 87 -74t58 -58.5t42 -65t11 -67.5q0 -91 -57.5 -140t-145.5 -49q-218 0 -280 266z
M560 780l-10 20h319l-10 -20q-60 10 -123 10h-14v-230q0 -87 5 -180h-35q5 93 5 180v230h-14q-63 0 -123 -10zM710 -20l-40 40l40 40l40 -40z" />
    <glyph glyph-name="S_T_R" horiz-adv-x="1557" 
d="M290 463q12 -10 35 -29q60 -50 87 -74t58 -58.5t42 -65t11 -67.5q0 -91 -57.5 -140t-145.5 -49q-218 0 -280 266l40 10q4 -119 72 -192.5t168 -73.5q80 0 131.5 45.5t51.5 133.5q0 18 -5 36.5t-11 33t-22 33.5t-26 31t-35 34t-38.5 33t-46.5 38.5t-49 40.5q-11 9 -34 28
t-31.5 26t-26 22t-24 21.5t-18.5 19.5t-16 20.5t-11.5 19.5t-9.5 22t-4 22.5t-2 25.5q0 67 45.5 105.5t123.5 38.5q152 0 227 -176l-40 -10q-7 73 -53.5 124.5t-133.5 51.5q-69 0 -109 -34t-40 -92q0 -23 6.5 -44t15 -35.5t28.5 -34.5t34 -31.5t44.5 -36t48.5 -39.5z
M560 780l-10 20h319l-10 -20q-60 10 -123 10h-14v-230q0 -87 5 -180h-35q5 93 5 180v230h-14q-63 0 -123 -10zM1320 195q40 -109 81.5 -147t115.5 -38v-10q-50 0 -84.5 10.5t-59 36.5t-40 56t-35.5 83q-40 107 -100 145.5t-153 38.5h-50v-190q0 -87 5 -180h-35q5 93 5 180
v440q0 87 -5 180h120q303 0 303 -215q0 -195 -249 -213q126 -27 181 -177zM995 380h90q55 0 100 9.5t86 31t64 63.5t23 101t-23 101t-64 63.5t-86 31t-100 9.5h-90v-410zM670 20l40 40l40 -40l-40 -40z" />
    <glyph glyph-name="s_t" horiz-adv-x="737" 
d="M687 204h10q-18 -128 -47 -178.5t-76 -50.5q-87 0 -87 153v322h-108v10h10q68 0 103 47.5t35 116.5q0 89 -51 137.5t-131 48.5q-78 0 -124 -36t-46 -106q0 -49 30.5 -97.5t79 -107t71.5 -102.5q0 -12 -14 -15q-20 -3 -28 24l-1 4q-22 96 -120 96q-103 0 -103 -76
q0 -22 10 -40t36 -36.5t44 -29.5t62 -34q77 -41 107.5 -72.5t30.5 -82.5q0 -52 -38 -85.5t-105 -33.5q-80 0 -131 43.5t-66 125.5q12 15 25.5 8.5t11.5 -34.5q-4 -51 40 -92t120 -41q61 0 92 30.5t31 78.5q0 19 -7.5 35.5t-15 26.5t-32.5 26.5t-38.5 24t-54.5 29.5
q-79 42 -110.5 72t-31.5 75t34 68.5t89 23.5q39 0 66 -13q-54 56 -84 103t-30 98q0 68 56 110t144 42q92 0 152 -52t60 -144q0 -53 -29 -99t-80 -65h206v-10h-142v-322q0 -81 16.5 -112t47.5 -31q41 0 67.5 48.5t43.5 170.5z" />
    <glyph glyph-name="eight.ss01" horiz-adv-x="719" 
d="M420 492q99 -16 164 -82t65 -171q0 -122 -85 -190.5t-204 -68.5q-120 0 -205 68.5t-85 190.5q0 105 65 171t165 82q-85 16 -132.5 75t-47.5 153v80h479v-80q0 -94 -47 -153t-132 -75zM150 710q0 -99 55.5 -156t154.5 -57q98 0 153.5 57t55.5 156v80h-419v-80zM360 -10
q106 0 182.5 65.5t76.5 183.5q0 117 -76.5 182.5t-182.5 65.5q-107 0 -183.5 -65.5t-76.5 -182.5q0 -118 76.5 -183.5t183.5 -65.5z" />
    <glyph glyph-name="eight.ss02" horiz-adv-x="680" 
d="M363 546q247 -150 247 -329q0 -116 -76 -176.5t-194 -60.5t-194 60.5t-76 176.5q0 179 247 329q-60 34 -206 101v153h458v-153q-146 -67 -206 -101zM141 660q140 -66 199 -100q59 34 199 100v130h-398v-130zM340 -10q105 0 172.5 57.5t67.5 169.5q0 169 -240 315
q-240 -146 -240 -315q0 -112 67.5 -169.5t172.5 -57.5z" />
    <glyph glyph-name="periodcentered.case" horiz-adv-x="220" 
d="M110 360l-40 40l40 40l40 -40z" />
    <glyph glyph-name="bullet.case" horiz-adv-x="336" 
d="M168 302l-98 98l98 98l98 -98z" />
    <glyph glyph-name="parenleft.case" horiz-adv-x="360" 
d="M70 410q0 144 69.5 268.5t190.5 191.5v-10q-110 -66 -170 -188t-60 -262q0 -147 57 -276.5t169 -193.5v-10q-122 65 -189 197t-67 283z" />
    <glyph glyph-name="parenright.case" horiz-adv-x="360" 
d="M290 410q0 -151 -67 -283t-189 -197v10q112 64 169 193.5t57 276.5q0 140 -60 262t-170 188v10q121 -67 190.5 -191.5t69.5 -268.5z" />
    <glyph glyph-name="braceleft.case" horiz-adv-x="390" 
d="M360 860q-97 0 -121.5 -55t1.5 -170q41 -214 -115 -235q155 -21 115 -235q-26 -115 -1 -170t121 -55v-10q-108 0 -137.5 55.5t-7.5 179.5q42 230 -145 230v10q187 0 145 230q-22 124 7.5 179.5t137.5 55.5v-10z" />
    <glyph glyph-name="braceright.case" horiz-adv-x="390" 
d="M175 635q-42 -230 145 -230v-10q-187 0 -145 -230q22 -124 -7.5 -179.5t-137.5 -55.5v10q96 0 121 55t-1 170q-40 214 115 235q-156 21 -115 235q26 115 1 170t-121 55v10q108 0 137.5 -55.5t7.5 -179.5z" />
    <glyph glyph-name="bracketleft.case" horiz-adv-x="360" 
d="M70 870h260v-10h-235v-920h235v-10h-260v940z" />
    <glyph glyph-name="bracketright.case" horiz-adv-x="360" 
d="M290 870v-940h-260v10h235v920h-235v10h260z" />
    <glyph glyph-name="hyphen.case" horiz-adv-x="653" 
d="M70 413q257 -12 513 0v-25q-257 14 -513 0v25z" />
    <glyph glyph-name="endash.case" horiz-adv-x="940" 
d="M70 413q400 -12 800 0v-25q-400 13 -800 0v25z" />
    <glyph glyph-name="emdash.case" horiz-adv-x="1240" 
d="M70 413q550 -12 1100 0v-25q-550 14 -1100 0v25z" />
    <glyph glyph-name="guillemotleft.001" horiz-adv-x="490" 
d="M80 230q36 -27 72.5 -53.5t53 -38.5t32.5 -25t28 -25t14 -22.5t-11 -15.5q-147 137 -199 180q52 43 199 180q13 -5 11 -15.5t-14 -22.5t-28 -25t-32.5 -25t-53 -38.5t-72.5 -53.5zM220 230q36 -27 72.5 -53.5t53 -38.5t32.5 -25t28 -25t14 -22.5t-11 -15.5
q-147 137 -199 180q52 43 199 180q13 -5 11 -15.5t-14 -22.5t-28 -25t-32.5 -25t-53 -38.5t-72.5 -53.5z" />
    <glyph glyph-name="guillemotright.001" horiz-adv-x="490" 
d="M101 410q147 -137 199 -180q-52 -43 -199 -180q-13 5 -11 15.5t14 22.5t28 25t32.5 25t53 38.5t72.5 53.5q-36 27 -72.5 53.5t-53 38.5t-32.5 25t-28 25t-14 22.5t11 15.5zM241 410q147 -137 199 -180q-52 -43 -199 -180q-13 5 -11 15.5t14 22.5t28 25t32.5 25t53 38.5
t72.5 53.5q-36 27 -72.5 53.5t-53 38.5t-32.5 25t-28 25t-14 22.5t11 15.5z" />
    <glyph glyph-name="guilsinglleft.001" horiz-adv-x="350" 
d="M80 230q36 -27 72.5 -53.5t53 -38.5t32.5 -25t28 -25t14 -22.5t-11 -15.5q-147 137 -199 180q52 43 199 180q13 -5 11 -15.5t-14 -22.5t-28 -25t-32.5 -25t-53 -38.5t-72.5 -53.5z" />
    <glyph glyph-name="guilsinglright.001" horiz-adv-x="350" 
d="M81 410q147 -137 199 -180q-52 -43 -199 -180q-13 5 -11 15.5t14 22.5t28 25t32.5 25t53 38.5t72.5 53.5q-36 27 -72.5 53.5t-53 38.5t-32.5 25t-28 25t-14 22.5t11 15.5z" />
    <glyph glyph-name="arrowright.case" horiz-adv-x="584" 
d="M325 564q45 -51 104.5 -98.5t104.5 -67.5q-45 -20 -104.5 -67.5t-104.5 -98.5l-19 2l2 19q9 7 49.5 38t57 43t44.5 30.5t49 28.5q-313 0 -444 -9l-14 13l14 13q131 -7 444 -7q-21 10 -49 28.5t-44.5 30.5t-57 43t-49.5 38l-2 19z" />
    <glyph glyph-name="arrowleft.case" horiz-adv-x="584" 
d="M534 397l-14 -13q-131 9 -444 9q21 -10 49 -28.5t44.5 -30.5t57 -43t49.5 -38l2 -19l-19 -2q-45 51 -104.5 98.5t-104.5 67.5q45 20 104.5 67.5t104.5 98.5l19 -2l-2 -19q-9 -7 -49.5 -38t-57 -43t-44.5 -30.5t-49 -28.5q313 0 444 7z" />
    <glyph glyph-name="arrowright.ss01.case" horiz-adv-x="939" 
d="M688 553q67 -113 201 -152v-10q-134 -39 -201 -152l-18 21q84 100 191 131h-497q-82 -87 -116 -152l-18 21q50 56 124 131h-50q-82 -87 -116 -152l-18 21q50 56 124 131h-30h-20q-82 -87 -116 -152l-18 21q50 56 124 131q-34 0 -50 -1q-80 -82 -116 -151l-18 21
q50 56 123 130q-36 -1 -79 -6v24q43 -5 79 -6q-73 74 -123 130l18 21q36 -69 116 -151q16 -1 50 -1q-74 75 -124 131l18 21q34 -65 116 -152h20h30q-74 75 -124 131l18 21q34 -65 116 -152h50q-74 75 -124 131l18 21q34 -65 116 -152h497q-107 31 -191 131z" />
    <glyph glyph-name="arrowleft.ss01.case" horiz-adv-x="939" 
d="M845 384q-43 5 -79 6q73 -74 123 -130l-18 -21q-36 69 -116 151q-16 1 -50 1q74 -75 124 -131l-18 -21q-34 65 -116 152h-20h-30q74 -75 124 -131l-18 -21q-34 65 -116 152h-50q74 -75 124 -131l-18 -21q-34 65 -116 152h-497q107 -31 191 -131l-18 -21q-67 113 -201 152
v10q134 39 201 152l18 -21q-84 -100 -191 -131h497q82 87 116 152l18 -21q-50 -56 -124 -131h50q82 87 116 152l18 -21q-50 -56 -124 -131h30h20q82 87 116 152l18 -21q-50 -56 -124 -131q34 0 50 1q80 82 116 151l18 -21q-50 -56 -123 -130q36 1 79 6v-24z" />
    <glyph glyph-name="arrowright.ss02.case" horiz-adv-x="1717" 
d="M1647 442q1 -24 -15 -39t-34 -19.5t-42 -5.5q-10 -2 -75.5 -0.5t-76.5 1.5q-260 0 -294 -1q40 -20 65 -50.5t19 -67.5t-39 -59.5t-70 -14.5q21 -36 -3 -69.5t-63 -38.5q-12 -2 -29 1t-23 1q-6 -6 -15.5 -24t-25.5 -32q-27 -24 -72 -21q-14 1 -37 12.5t-35 13.5
q-15 3 -44 3.5t-41 1.5q-83 8 -174 38q-110 36 -158 45q-1 -7 -8 -14q-1 -1 -31 -16q-4 -2 -17 -2l-20 2q-20 2 -21 -2l-42 -13q-46 -13 -78 6q-20 12 -35 38t-20.5 45.5t-12.5 51.5q-15 72 -6 188q10 118 53 162q137 6 139 6q46 4 63.5 -4.5t18.5 -38.5q72 3 121 28
q12 6 50 37q18 14 59 39q50 30 113 50q35 12 127 18l126 18q50 7 64 13q2 1 44 26q67 41 108 42q25 1 33.5 -21.5t0.5 -66.5q-12 -63 -46 -97t-93 -49q51 -4 160 -17.5t165 -17.5q121 -8 166 -17q98 -19 101 -69zM1175 777q-13 13 -97 -32h1q31 0 48 7q20 9 48 25zM1527 396
q97 0 97 46q0 25 -34 37.5t-95 20.5q-31 4 -90.5 8.5t-70.5 5.5q-47 4 -155 17t-166 18q-58 -18 -75 -18q-16 0 -36 -5q-7 -2 -29.5 -10.5t-37.5 -10.5v6l53 19q18 9 55.5 15.5t45.5 8.5q55 15 96 34q39 18 63.5 54.5t29.5 83.5q2 23 0 41q-22 -20 -53 -30t-56 3
q-7 -2 -18.5 -9.5t-15.5 -9.5q-34 -17 -96 -26q-83 -13 -97 -13q-91 0 -188 -33q-35 -12 -84 -41q-14 -8 -39 -27.5t-35 -26.5q-63 -44 -184 -38q-35 -72 -31 -185q3 -105 36 -193q33 2 70.5 -7t82.5 -25t67 -21q72 -18 118 -27q41 -8 102 -10q-46 31 -63 72q-9 19 -6 45
t19 43q19 14 42 9q-18 40 10 69t69 26q-1 3 -3 6.5t-5 8t-4 6.5q-104 -33 -172 -26q-98 10 -130 77h7q30 -60 126 -66q60 -4 164 33q-11 49 14 74q24 24 77 7q13 -4 35.5 -18t34.5 -18q23 -7 87 -3q46 3 185 3h283zM276 99q12 0 36 -4q-3 10 -10 30q-13 36 -26.5 112
t-11.5 120q3 68 19 116q17 59 46 76q-9 13 -26 13q-16 0 -48 -3.5t-38 -3.5l-86 -5q-5 -6 -10 -14.5t-8 -15.5t-6 -19t-5 -18.5t-4 -21t-3 -18.5t-3 -20t-2 -17q-12 -97 1 -170q16 -89 50 -132q23 -29 57 -24q12 2 37.5 10.5t40.5 8.5zM338 526q0 12 -5 18q-1 -1 -16 -18h21
zM828 360q9 -7 12.5 -5.5t13.5 14.5q30 38 22 51q-25 7 -41 -12q-12 -15 -7 -48zM1172 244q35 67 -76 134q-58 -5 -73 -5q6 -2 45 -9v-9q-51 3 -82 12q-38 10 -71 38q-9 8 -25 13q2 -12 -9 -31l-20 -35q-4 -7 -13.5 -9t-15.5 2q4 -16 24 -36q30 -30 98.5 -48.5t92.5 -33.5
q2 -1 9.5 -6t9.5 -6l9 -4.5t10 -4.5l9 -3t10.5 -1.5t10 1t11.5 2.5q31 11 46 39zM1076 148q4 34 -41 62q-25 15 -90 35t-98 45q-10 8 -31 4q3 -3 -1 -15q-1 -2 -4 -12.5t-5.5 -16.5t-7 -14t-9.5 -11q-9 -6 -21 -3q5 -9 15 -18.5t16 -14.5t22 -16t18 -12q16 -11 61 -27
t65 -35q8 1 21.5 -2t19.5 -3q29 0 48 15.5t22 38.5zM771 271q-16 -14 -8 -36q9 -7 16 0q11 11 14 19q0 1 6.5 12.5t8 16.5t-0.5 10q-16 -3 -36 -22zM705 161q3 -4 14.5 2.5t19.5 17.5t4 19q-16 2 -27 -8.5t-11 -30.5zM929 54q3 3 22 33q-9 8 -22.5 15.5t-22.5 11t-26 9
t-24 8.5q-46 18 -93 65q-2 2 -6 2q-1 -15 -21.5 -32.5t-30.5 -15.5q1 -11 4.5 -21.5t9 -19t12 -16.5t14 -14.5t14 -11.5t14 -9.5t12 -7t9.5 -4.5l4 -3q38 -21 69 -21q30 0 62 32zM333 99q18 8 24 18q-15 4 -35 2z" />
    <glyph glyph-name="arrowleft.ss02.case" horiz-adv-x="1717" 
d="M1643 394q9 -116 -6 -188q-7 -32 -12.5 -51.5t-20.5 -45.5t-35 -38q-32 -19 -78 -6l-42 13q-1 4 -21 2l-20 -2q-13 0 -17 2q-30 15 -31 16q-6 6 -8 14q-48 -9 -158 -45q-91 -30 -174 -38q-12 -1 -41 -1.5t-44 -3.5q-12 -2 -35 -13.5t-37 -12.5q-45 -3 -72 21
q-16 14 -25.5 32t-15.5 24q-6 2 -23 -1t-29 -1q-39 5 -63 38.5t-3 69.5q-37 -8 -70 14.5t-39 59.5t19 67.5t65 50.5q-34 1 -294 1q-11 0 -76.5 -1.5t-75.5 0.5q-24 1 -42 5.5t-34 19.5t-15 39q3 50 101 69q45 9 166 17q56 4 165 17.5t160 17.5q-59 15 -93 49t-46 97
q-8 44 0.5 66.5t33.5 21.5q41 -1 108 -42q42 -25 44 -26q14 -6 64 -13q14 -2 39.5 -6.5t46.5 -7.5t40 -4q92 -6 127 -18q63 -20 113 -50q41 -25 59 -39q38 -31 50 -37q49 -25 121 -28q1 30 18.5 38.5t63.5 4.5q2 0 139 -6q43 -44 53 -162zM639 738q-84 45 -97 32
q28 -16 48 -25q18 -7 48 -7h1zM1180 78q22 5 67 21t82.5 25t70.5 7q33 88 36 193q4 113 -31 185q-121 -6 -184 38q-10 7 -35 26.5t-39 27.5q-49 29 -84 41q-97 33 -188 33q-14 0 -97 13q-62 9 -96 26q-4 2 -15.5 9.5t-18.5 9.5q-25 -13 -56 -3t-53 30q-2 -18 0 -41
q5 -47 29.5 -83.5t63.5 -54.5q41 -19 96 -34q8 -2 45.5 -8.5t55.5 -15.5l53 -19v-6q-15 2 -37.5 10.5t-29.5 10.5q-20 5 -36 5q-17 0 -75 18q-58 -5 -166 -18t-155 -17q-11 -1 -70.5 -5.5t-90.5 -8.5q-61 -8 -95 -20.5t-34 -37.5q0 -46 97 -46h283q139 0 185 -3q64 -4 87 3
q12 4 34.5 18t35.5 18q53 17 77 -7q25 -25 14 -74q104 -37 164 -33q96 6 126 66h7q-32 -67 -130 -77q-68 -7 -172 26q-1 -2 -4 -6.5t-5 -8t-3 -6.5q41 3 69 -26t10 -69q23 5 42 -9q16 -17 19 -43t-6 -45q-17 -41 -63 -72q61 2 102 10q46 9 118 27zM1626 229q13 73 1 170
q0 1 -2 17t-3 20t-3 18.5t-4 21t-5 18.5t-6 19t-8 15.5t-10 14.5l-86 5q-6 0 -38 3.5t-48 3.5q-17 0 -26 -13q29 -17 46 -76q16 -48 19 -116q2 -44 -11.5 -120t-26.5 -112q-7 -20 -10 -30q24 4 36 4q15 0 40.5 -8.5t37.5 -10.5q34 -5 57 24q34 43 50 132zM1384 537
q-5 -6 -5 -18h21q-15 17 -16 18zM841 413q-8 -13 22 -51q10 -13 13.5 -14.5t12.5 5.5q5 33 -7 48q-16 19 -41 12zM591 198q6 -2 11.5 -2.5t10 -1t10.5 1.5l9 3t10 4.5l9 4.5t9.5 6t9.5 6q24 15 92.5 33.5t98.5 48.5q20 20 24 36q-6 -4 -15.5 -2t-13.5 9l-20 35q-11 19 -9 31
q-16 -5 -25 -13q-33 -28 -71 -38q-31 -9 -82 -12v9q39 7 45 9q-16 0 -73 5q-111 -67 -76 -134q15 -28 46 -39zM711 87q6 0 19.5 3t21.5 2q20 19 65 35t61 27q2 1 18 12t22 16t16 14.5t15 18.5q-12 -3 -21 3q-5 3 -9.5 11t-7 14t-5.5 16.5t-4 12.5q-4 12 -1 15q-21 4 -31 -4
q-33 -25 -98 -45t-90 -35q-45 -28 -41 -62q3 -23 22 -38.5t48 -15.5zM910 286q-2 -5 -0.5 -10t8 -16.5t6.5 -12.5q3 -8 14 -19q7 -7 16 0q8 22 -8 36q-20 19 -36 22zM974 193q-4 -8 4 -19t19.5 -17.5t14.5 -2.5q0 20 -11 30.5t-27 8.5zM919 36l5 2q4 3 8.5 5.5t12 7t14 9.5
t14 11.5t14 14.5t12 16.5t9 19t4.5 21.5q-10 -2 -30.5 15.5t-21.5 32.5q-4 0 -6 -2q-47 -47 -93 -65q-7 -3 -24 -8.5t-26 -9t-22.5 -11t-22.5 -15.5q19 -30 22 -33q32 -32 62 -32q31 0 69 21zM1384 92l11 20q-20 2 -35 -2q6 -10 24 -18z" />
    <glyph glyph-name="arrowup.ss01" horiz-adv-x="414" 
d="M343 9q-56 50 -131 124v-50q87 -82 152 -116l-21 -18q-56 50 -131 124v-30v-20q87 -82 152 -116l-21 -18q-56 50 -131 124q0 -34 1 -50q82 -80 151 -116l-21 -18q-56 50 -130 123q1 -36 6 -79h-24q5 43 6 79q-74 -73 -130 -123l-21 18q69 36 151 116q1 16 1 50
q-75 -74 -131 -124l-21 18q65 34 152 116v20v30q-75 -74 -131 -124l-21 18q65 34 152 116v50q-75 -74 -131 -124l-21 18q65 34 152 116v497q-31 -107 -131 -191l-21 18q113 67 152 201h10q39 -134 152 -201l-21 -18q-100 84 -131 191v-497q87 -82 152 -116z" />
    <glyph glyph-name="arrowright.ss01" horiz-adv-x="939" 
d="M688 397q67 -113 201 -152v-10q-134 -39 -201 -152l-18 21q84 100 191 131h-497q-82 -87 -116 -152l-18 21q50 56 124 131h-50q-82 -87 -116 -152l-18 21q50 56 124 131h-30h-20q-82 -87 -116 -152l-18 21q50 56 124 131q-34 0 -50 -1q-80 -82 -116 -151l-18 21
q50 56 123 130q-36 -1 -79 -6v24q43 -5 79 -6q-73 74 -123 130l18 21q36 -69 116 -151q16 -1 50 -1q-74 75 -124 131l18 21q34 -65 116 -152h20h30q-74 75 -124 131l18 21q34 -65 116 -152h50q-74 75 -124 131l18 21q34 -65 116 -152h497q-107 31 -191 131z" />
    <glyph glyph-name="arrowdown.ss01" horiz-adv-x="414" 
d="M212 474v-20v-30q75 74 131 124l21 -18q-65 -34 -152 -116v-50q75 74 131 124l21 -18q-65 -34 -152 -116v-497q31 107 131 191l21 -18q-113 -67 -152 -201h-10q-39 134 -152 201l21 18q100 -84 131 -191v497q-87 82 -152 116l21 18q56 -50 131 -124v50q-87 82 -152 116
l21 18q56 -50 131 -124v30v20q-87 82 -152 116l21 18q56 -50 131 -124q0 34 -1 50q-82 80 -151 116l21 18q56 -50 130 -123q-1 36 -6 79h24q-5 -43 -6 -79q74 73 130 123l21 -18q-69 -36 -151 -116q-1 -16 -1 -50q75 74 131 124l21 -18q-65 -34 -152 -116z" />
    <glyph glyph-name="arrowleft.ss01" horiz-adv-x="939" 
d="M845 228q-43 5 -79 6q73 -74 123 -130l-18 -21q-36 69 -116 151q-16 1 -50 1q74 -75 124 -131l-18 -21q-34 65 -116 152h-20h-30q74 -75 124 -131l-18 -21q-34 65 -116 152h-50q74 -75 124 -131l-18 -21q-34 65 -116 152h-497q107 -31 191 -131l-18 -21q-67 113 -201 152
v10q134 39 201 152l18 -21q-84 -100 -191 -131h497q82 87 116 152l18 -21q-50 -56 -124 -131h50q82 87 116 152l18 -21q-50 -56 -124 -131h30h20q82 87 116 152l18 -21q-50 -56 -124 -131q34 0 50 1q80 82 116 151l18 -21q-50 -56 -123 -130q36 1 79 6v-24z" />
    <glyph glyph-name="arrowup.ss02" horiz-adv-x="934" 
d="M776 585q44 8 66.5 -0.5t21.5 -33.5q-1 -41 -42 -108q-25 -42 -26 -44q-6 -14 -13 -64l-18 -126q-6 -92 -18 -127q-20 -63 -50 -113q-25 -41 -39 -59q-31 -38 -37 -50q-25 -49 -28 -121q30 -1 38.5 -18.5t4.5 -63.5q0 -2 -6 -139q-44 -43 -162 -53q-116 -9 -188 6
q-32 7 -51.5 12.5t-45.5 20.5t-38 35q-19 32 -6 78l13 42q4 1 2 21l-2 20q0 13 2 17q15 30 16 31q6 6 14 8q-9 48 -45 158q-30 91 -38 174q-1 12 -1.5 41t-3.5 44q-2 12 -13.5 35t-12.5 37q-3 45 21 72q14 16 32 25.5t24 15.5q2 6 -1 23t-1 29q5 39 38.5 63t69.5 3
q-8 37 14.5 70t59.5 39t67.5 -19t50.5 -65q1 34 1 294q0 11 -1.5 76.5t0.5 75.5q1 24 5.5 42t19.5 34t39 15q50 -3 69 -101q9 -45 17 -166q4 -56 17.5 -165t17.5 -160q15 59 49 93t97 46zM788 426q2 4 9.5 15.5t9.5 18.5q-13 25 -3 56t30 53q-18 2 -41 0q-47 -5 -83.5 -29.5
t-54.5 -63.5q-19 -41 -34 -96q-2 -8 -8.5 -45.5t-15.5 -55.5l-19 -53h-6q2 15 10.5 37.5t10.5 29.5q5 20 5 36q0 17 18 75q-5 58 -18 166t-17 155q-1 11 -5.5 70.5t-8.5 90.5q-8 61 -20.5 95t-37.5 34q-46 0 -46 -97v-283q0 -139 -3 -185q-4 -64 3 -87q4 -12 18 -34.5
t18 -35.5q17 -53 -7 -77q-25 -25 -74 -14q-37 -104 -33 -164q6 -96 66 -126v-7q-67 32 -77 130q-7 68 26 172q-2 1 -6.5 4t-8 5t-6.5 3q3 -41 -26 -69t-69 -10q5 -23 -9 -42q-17 -16 -43 -19t-45 6q-41 17 -72 63q2 -61 10 -102q9 -46 27 -118q5 -22 21 -67t25 -82.5
t7 -70.5q88 -33 193 -36q113 -4 185 31q-6 121 38 184q7 10 26.5 35t27.5 39q29 49 41 84q33 97 33 188q0 14 13 97q9 62 26 96zM272 517q-2 -6 -2.5 -11.5t-1 -10t1.5 -10.5l3 -9t4.5 -10l4.5 -9t6 -9.5t6 -9.5q15 -24 33.5 -92.5t48.5 -98.5q20 -20 36 -24q-4 6 -2 15.5
t9 13.5l35 20q19 11 31 9q-5 16 -13 25q-28 33 -38 71q-9 31 -12 82h9q7 -39 9 -45q0 16 5 73q-67 111 -134 76q-28 -15 -39 -46zM812 469q45 84 32 97q-16 -28 -25 -48q-7 -17 -7 -48v-1zM215 467q-23 -3 -38.5 -22t-15.5 -48q0 -6 3 -19.5t2 -21.5q19 -20 35 -65t27 -61
q1 -2 12 -18t16 -22t14.5 -16t18.5 -15q-3 12 3 21q3 5 11 9.5t14 7t16.5 5.5t12.5 4q12 4 15 1q3 21 -4 31q-25 33 -45 98t-35 90q-28 45 -62 41zM89 258q0 -31 21 -69l2 -5q3 -4 5.5 -8.5t7 -12t9.5 -14t11.5 -14t14.5 -14t16.5 -12t19 -9t21.5 -4.5q-2 10 15.5 30.5
t32.5 21.5q0 4 -2 6q-47 47 -65 93q-3 7 -8.5 24t-9 26t-11 22.5t-15.5 22.5q-30 -19 -33 -22q-32 -32 -32 -62zM487 267q-13 8 -51 -22q-13 -10 -14.5 -13.5t5.5 -12.5q33 -5 48 7q19 16 12 41zM360 198q-5 2 -10 0.5t-16.5 -8t-12.5 -6.5q-8 -3 -19 -14q-7 -7 0 -16
q22 -8 36 8q19 20 22 36zM228 96q20 0 30.5 11t8.5 27q-8 4 -19 -4t-17.5 -19.5t-2.5 -14.5zM184 -252q-10 -6 -18 -24l20 -11q2 20 -2 35zM611 -276q-6 5 -18 5v-21q17 15 18 16zM629 -306q0 17 -13 26q-17 -29 -76 -46q-48 -16 -116 -19q-44 -2 -120 11.5t-112 26.5
q-20 7 -30 10q4 -24 4 -36q0 -15 -8.5 -40.5t-10.5 -37.5q-5 -34 24 -57q43 -34 132 -50q73 -13 170 -1q1 0 17 2t20 3t18.5 3t21 4t18.5 5t19 6t15.5 8t14.5 10l5 86q0 6 3.5 38t3.5 48z" />
    <glyph glyph-name="arrowright.ss02" horiz-adv-x="1717" 
d="M1647 294q1 -24 -15 -39t-34 -19.5t-42 -5.5q-10 -2 -75.5 -0.5t-76.5 1.5q-260 0 -294 -1q40 -20 65 -50.5t19 -67.5t-39 -59.5t-70 -14.5q21 -36 -3 -69.5t-63 -38.5q-12 -2 -29 1t-23 1q-6 -6 -15.5 -24t-25.5 -32q-27 -24 -72 -21q-14 1 -37 12.5t-35 13.5
q-15 3 -44 3.5t-41 1.5q-83 8 -174 38q-110 36 -158 45q-1 -8 -8 -14q-1 -1 -31 -16q-4 -2 -17 -2l-20 2q-20 2 -21 -2l-42 -13q-46 -13 -78 6q-20 12 -35 38t-20.5 45.5t-12.5 51.5q-15 72 -6 188q10 118 53 162q137 6 139 6q46 4 63.5 -4.5t18.5 -38.5q72 3 121 28
q12 6 50 37q18 14 59 39q50 30 113 50q35 12 127 18l126 18q50 7 64 13q2 1 44 26q67 41 108 42q25 1 33.5 -21.5t0.5 -66.5q-12 -63 -46 -97t-93 -49q51 -4 160 -17.5t165 -17.5q121 -8 166 -17q98 -19 101 -69zM1175 629q-13 13 -97 -32h1q31 0 48 7q20 9 48 25zM1527 248
q97 0 97 46q0 25 -34 37.5t-95 20.5q-31 4 -90.5 8.5t-70.5 5.5q-47 4 -155 17t-166 18q-58 -18 -75 -18q-16 0 -36 -5q-7 -2 -29.5 -10.5t-37.5 -10.5v6l53 19q18 9 55.5 15.5t45.5 8.5q55 15 96 34q39 18 63.5 54.5t29.5 83.5q2 23 0 41q-22 -20 -53 -30t-56 3
q-7 -2 -18.5 -9.5t-15.5 -9.5q-34 -17 -96 -26q-83 -13 -97 -13q-91 0 -188 -33q-35 -12 -84 -41q-14 -8 -39 -27.5t-35 -26.5q-63 -44 -184 -38q-35 -72 -31 -185q3 -105 36 -193q33 2 70.5 -7t82.5 -25t67 -21q72 -18 118 -27q41 -8 102 -10q-46 31 -63 72q-9 19 -6 45
t19 43q19 14 42 9q-18 40 10 69t69 26q-1 3 -3 6.5t-5 8t-4 6.5q-104 -33 -172 -26q-98 10 -130 77h7q30 -60 126 -66q60 -4 164 33q-11 49 14 74q24 24 77 7q13 -4 35.5 -18t34.5 -18q23 -7 87 -3q46 3 185 3h283zM276 -49q12 0 36 -4q-3 10 -10 30q-13 36 -26.5 112
t-11.5 120q3 68 19 116q17 59 46 76q-9 13 -26 13q-16 0 -48 -3.5t-38 -3.5l-86 -5q-5 -6 -10 -14.5t-8 -15.5t-6 -19t-5 -18.5t-4 -21t-3 -18.5t-3 -20t-2 -17q-12 -97 1 -170q16 -89 50 -132q23 -29 57 -24q12 2 37.5 10.5t40.5 8.5zM338 378q0 12 -5 18q-1 -1 -16 -18h21
zM828 212q9 -7 12.5 -5.5t13.5 14.5q30 38 22 51q-25 7 -41 -12q-12 -15 -7 -48zM1172 96q35 67 -76 134q-58 -5 -73 -5q6 -2 45 -9v-9q-51 3 -82 12q-38 10 -71 38q-9 8 -25 13q2 -12 -9 -31l-20 -35q-4 -7 -13.5 -9t-15.5 2q4 -16 24 -36q30 -30 98.5 -48.5t92.5 -33.5
q2 -1 9.5 -6t9.5 -6l9 -4.5t10 -4.5l9 -3t10.5 -1.5t10 1t11.5 2.5q31 11 46 39zM1076 0q4 34 -41 62q-25 15 -90 35t-98 45q-10 8 -31 4q3 -3 -1 -15q-1 -2 -4 -12.5t-5.5 -16.5t-7 -14t-9.5 -11q-9 -6 -21 -3q5 -9 15 -18.5t16 -14.5t22 -16t18 -12q16 -11 61 -27t65 -35
q8 1 21.5 -2t19.5 -3q29 0 48 15.5t22 38.5zM771 123q-16 -14 -8 -36q9 -7 16 0q11 11 14 19q0 1 6.5 12.5t8 16.5t-0.5 10q-16 -3 -36 -22zM705 13q3 -4 14.5 2.5t19.5 17.5t4 19q-16 2 -27 -8.5t-11 -30.5zM929 -94q3 3 22 33q-9 8 -22.5 15.5t-22.5 11t-26 9t-24 8.5
q-46 18 -93 65q-2 2 -6 2q-1 -15 -21.5 -32.5t-30.5 -15.5q1 -11 4.5 -21.5t9 -19t12 -16.5t14 -14.5t14 -11.5t14 -9.5t12 -7t9.5 -4.5l4 -3q38 -21 69 -21q30 0 62 32zM333 -49q18 8 24 18q-15 4 -35 2z" />
    <glyph glyph-name="arrowdown.ss02" horiz-adv-x="934" 
d="M864 -51q1 -25 -21.5 -33.5t-66.5 -0.5q-63 12 -97 46t-49 93q-4 -51 -17.5 -160t-17.5 -165q-8 -121 -17 -166q-19 -98 -69 -101q-24 -1 -39 15t-19.5 34t-5.5 42q-2 10 -0.5 75.5t1.5 76.5q0 260 -1 294q-20 -40 -50.5 -65t-67.5 -19t-59.5 39t-14.5 70
q-36 -21 -69.5 3t-38.5 63q-2 12 1 29t1 23q-6 6 -24 15.5t-32 25.5q-24 27 -21 72q1 14 12.5 37t13.5 35q3 15 3.5 44t1.5 41q8 83 38 174q36 110 45 158q-7 2 -14 8q-1 1 -16 31q-2 4 -2 17l2 20q2 20 -2 21l-13 42q-13 46 6 78q12 20 38 35t45.5 20.5t51.5 12.5
q72 15 188 6q118 -10 162 -53q6 -137 6 -139q4 -46 -4.5 -63.5t-38.5 -18.5q3 -72 28 -121q6 -12 37 -50q14 -18 39 -59q30 -50 50 -113q12 -35 18 -127l18 -126q7 -50 13 -64q1 -2 26 -44q41 -67 42 -108zM147 911q2 -12 10.5 -37.5t8.5 -40.5q0 -12 -4 -36q10 3 30 10
q36 13 112 26.5t120 11.5q68 -3 116 -19q59 -17 76 -46q13 9 13 26q0 16 -3.5 48t-3.5 38l-5 86q-6 5 -14.5 10t-15.5 8t-19 6t-18.5 5t-21 4t-18.5 3t-20 3t-17 2q-97 12 -170 -1q-89 -16 -132 -50q-29 -23 -24 -57zM793 -69q23 -2 41 0q-20 22 -30 53t3 56q-2 7 -9.5 18.5
t-9.5 15.5q-17 34 -26 96q-13 83 -13 97q0 91 -33 188q-12 35 -41 84q-8 14 -27.5 39t-26.5 35q-44 63 -38 184q-72 35 -185 31q-105 -3 -193 -36q2 -33 -7 -70.5t-25 -82.5t-21 -67q-18 -72 -27 -118q-8 -41 -10 -102q31 46 72 63q19 9 45 6t43 -19q14 -19 9 -42
q40 18 69 -10t26 -69q3 1 6.5 3t8 5t6.5 4q-33 104 -26 172q10 98 77 130v-7q-60 -30 -66 -126q-4 -60 33 -164q49 11 74 -14q24 -24 7 -77q-4 -13 -18 -35.5t-18 -34.5q-7 -23 -3 -87q3 -46 3 -185v-283q0 -97 46 -97q25 0 37.5 34t20.5 95q4 31 8.5 90.5t5.5 70.5
q4 47 17 155t18 166q-18 59 -18 75t-5 36q-2 7 -10.5 29.5t-10.5 37.5h6l19 -53q9 -18 15.5 -55.5t8.5 -45.5q15 -55 34 -96q18 -39 54.5 -63.5t83.5 -29.5zM593 771q12 0 18 5q-1 1 -18 16v-21zM166 776q8 -18 18 -24q4 15 2 35zM121 180q3 -3 33 -22q8 9 15.5 22.5
t11 22.5t9 26t8.5 24q18 46 65 93q2 2 2 6q-15 1 -32.5 21.5t-15.5 30.5q-11 -1 -21.5 -4.5t-19 -9t-16.5 -12t-14.5 -14t-11.5 -14t-9.5 -14t-7 -12t-5.5 -8.5l-2 -5q-21 -38 -21 -69q0 -30 32 -62zM228 404q-4 -3 2.5 -14.5t17.5 -19.5t19 -4q2 16 -8.5 27t-30.5 11z
M302 346q-7 -9 0 -16q11 -11 19 -14q1 0 12.5 -6.5t16.5 -8t10 0.5q-3 16 -22 36q-14 16 -36 8zM215 33q34 -4 62 41q15 25 35 90t45 98q7 10 4 31q-3 -3 -15 1q-2 1 -12.5 4t-16.5 5.5t-14 7t-11 9.5q-6 9 -3 21q-9 -5 -18.5 -15t-14.5 -16t-16 -22t-12 -18
q-11 -16 -27 -61t-35 -65q1 -8 -2 -21.5t-3 -19.5q0 -29 15.5 -48t38.5 -22zM427 281q-7 -9 -5.5 -12.5t14.5 -13.5q38 -30 51 -22q7 25 -12 41q-15 12 -48 7zM431 41h-9q3 51 12 82q10 38 38 71q8 9 13 25q-12 -2 -31 9l-35 20q-7 4 -9 13.5t2 15.5q-16 -4 -36 -24
q-30 -30 -48.5 -98.5t-33.5 -92.5q-1 -2 -6 -9.5t-6 -9.5l-4.5 -9t-4.5 -10l-3 -9t-1.5 -10.5t1 -10t2.5 -11.5q11 -31 39 -46q67 -35 134 76q-5 57 -5 73q-2 -6 -9 -45zM844 -66q13 13 -32 97v-1q0 -31 7 -48q9 -20 25 -48z" />
    <glyph glyph-name="arrowleft.ss02" horiz-adv-x="1717" 
d="M1643 251q9 -116 -6 -188q-7 -32 -12.5 -51.5t-20.5 -45.5t-35 -38q-32 -19 -78 -6l-42 13q-1 4 -21 2l-20 -2q-13 0 -17 2q-30 15 -31 16q-6 7 -8 14q-48 -9 -158 -45q-91 -30 -174 -38q-12 -1 -41 -1.5t-44 -3.5q-12 -2 -35 -13.5t-37 -12.5q-45 -3 -72 21
q-16 14 -25.5 32t-15.5 24q-6 2 -23 -1t-29 -1q-39 5 -63 38.5t-3 69.5q-37 -8 -70 14.5t-39 59.5t19 67.5t65 50.5q-34 1 -294 1q-11 0 -76.5 -1.5t-75.5 0.5q-24 1 -42 5.5t-34 19.5t-15 39q3 50 101 69q45 9 166 17q56 4 165 17.5t160 17.5q-59 15 -93 49t-46 97
q-8 44 0.5 66.5t33.5 21.5q41 -1 108 -42q42 -25 44 -26q14 -6 64 -13q14 -2 39.5 -6.5t46.5 -7.5t40 -4q92 -6 127 -18q63 -20 113 -50q41 -25 59 -39q38 -31 50 -37q49 -25 121 -28q1 30 18.5 38.5t63.5 4.5q2 0 139 -6q43 -44 53 -162zM639 595q-84 45 -97 32
q28 -16 48 -25q18 -7 48 -7h1zM1180 -65q22 5 67 21t82.5 25t70.5 7q33 88 36 193q4 113 -31 185q-121 -6 -184 38q-10 7 -35 26.5t-39 27.5q-49 29 -84 41q-97 33 -188 33q-14 0 -97 13q-62 9 -96 26q-4 2 -15.5 9.5t-18.5 9.5q-25 -13 -56 -3t-53 30q-2 -18 0 -41
q5 -47 29.5 -83.5t63.5 -54.5q41 -19 96 -34q8 -2 45.5 -8.5t55.5 -15.5l53 -19v-6q-15 2 -37.5 10.5t-29.5 10.5q-20 5 -36 5q-17 0 -75 18q-58 -5 -166 -18t-155 -17q-11 -1 -70.5 -5.5t-90.5 -8.5q-61 -8 -95 -20.5t-34 -37.5q0 -46 97 -46h283q139 0 185 -3q64 -4 87 3
q12 4 34.5 18t35.5 18q53 17 77 -7q25 -25 14 -74q104 -37 164 -33q96 6 126 66h7q-32 -67 -130 -77q-68 -7 -172 26q-1 -2 -4 -6.5t-5 -8t-3 -6.5q41 3 69 -26t10 -69q23 5 42 -9q16 -17 19 -43t-6 -45q-17 -41 -63 -72q61 2 102 10q46 9 118 27zM1626 86q13 73 1 170
q0 1 -2 17t-3 20t-3 18.5t-4 21t-5 18.5t-6 19t-8 15.5t-10 14.5l-86 5q-6 0 -38 3.5t-48 3.5q-17 0 -26 -13q29 -17 46 -76q16 -48 19 -116q2 -44 -11.5 -120t-26.5 -112q-7 -20 -10 -30q24 4 36 4q15 0 40.5 -8.5t37.5 -10.5q34 -5 57 24q34 43 50 132zM1384 394
q-5 -6 -5 -18h21q-15 17 -16 18zM841 270q-8 -13 22 -51q10 -13 13.5 -14.5t12.5 5.5q5 33 -7 48q-16 19 -41 12zM591 55q6 -2 11.5 -2.5t10 -1t10.5 1.5l9 3t10 4.5l9 4.5t9.5 6t9.5 6q24 15 92.5 33.5t98.5 48.5q20 20 24 36q-6 -4 -15.5 -2t-13.5 9l-20 35q-11 19 -9 31
q-16 -5 -25 -13q-33 -28 -71 -38q-31 -9 -82 -12v9q39 7 45 9q-16 0 -73 5q-111 -67 -76 -134q15 -28 46 -39zM711 -56q6 0 19.5 3t21.5 2q20 19 65 35t61 27q2 1 18 12t22 16t16 14.5t15 18.5q-12 -3 -21 3q-5 3 -9.5 11t-7 14t-5.5 16.5t-4 12.5q-4 12 -1 15q-21 4 -31 -4
q-33 -25 -98 -45t-90 -35q-45 -28 -41 -62q3 -23 22 -38.5t48 -15.5zM910 143q-2 -5 -0.5 -10t8 -16.5t6.5 -12.5q3 -8 14 -19q7 -7 16 0q8 22 -8 36q-20 19 -36 22zM974 50q-4 -8 4 -19t19.5 -17.5t14.5 -2.5q0 20 -11 30.5t-27 8.5zM919 -107l5 3q4 2 8.5 4.5t12 7t14 9.5
t14 11.5t14 14.5t12 16.5t9 19t4.5 21.5q-10 -2 -30.5 15.5t-21.5 32.5q-4 0 -6 -2q-47 -47 -93 -65q-7 -3 -24 -8.5t-26 -9t-22.5 -11t-22.5 -15.5q19 -30 22 -33q32 -32 62 -32q31 0 69 21zM1384 -51l11 20q-20 2 -35 -2q6 -10 24 -18z" />
    </font>
</defs>
</svg>
