<?xml version="1.0" standalone="no"?>
<!DOCTYPE svg PUBLIC "-//W3C//DTD SVG 1.1//EN" "http://www.w3.org/Graphics/SVG/1.1/DTD/svg11.dtd" >
<svg xmlns="http://www.w3.org/2000/svg" xmlns:xlink="http://www.w3.org/1999/xlink" version="1.1">
<metadata>
Created by FontForge 20170731 at Fri Jan 15 04:04:20 2021
 By Aleksey,,,
Copyright (c) 2019 by Mathieu Desjardins. All rights reserved.
</metadata>
<defs>
<font id="NeueMachina-Black" horiz-adv-x="2310" >
  <font-face 
    font-family="Neue Machina Black"
    font-weight="900"
    font-stretch="normal"
    units-per-em="2048"
    panose-1="0 0 10 0 0 0 0 0 0 0"
    ascent="1638"
    descent="-410"
    x-height="1040"
    cap-height="1444"
    bbox="-1372 -846 3529 2093"
    underline-thickness="102"
    underline-position="-255"
    unicode-range="U+0020-277E"
  />
<missing-glyph horiz-adv-x="989" 
d="M811 1505v-1976h-627v1976h627zM657 1372h-325v-63h129v-74h-131v-66h327v66h-129v74h129v63zM528 1118h-198v-205h327v66h-129v139zM461 1051v-72h-66v72h66zM657 858h-327v-63h131v-74h-131v-66h198v140h129v63zM657 741h-63v-131h-264v-67h327v198zM657 500h-196v-111
h67v45h66v-92h-199v158h-65v-224h327v224zM657 158h-327v-224h327v224zM594 92v-92h-199v92h199zM657 -111h-327v-65h139l-139 -94v-64h327v64h-200l137 94h63v65z" />
    <glyph glyph-name="f_f" unicode="ff" horiz-adv-x="1785" 
d="M1546 1161q-61 0 -92 -27.5t-35 -93.5h299v-344h-299v-352h299v-344h-1667v344h264v352h-264v344h273q31 207 176.5 312.5t373.5 105.5h422q124 47 303 47h177v-344h-230zM1026 1040q0 39 8 101h-160q-70 0 -109 -24t-56 -77h317zM1026 344v352h-332v-352h332z" />
    <glyph glyph-name="f_f_i" unicode="ffi" horiz-adv-x="2625" 
d="M2306 344h289v-344h-2544v344h264v352h-264v344h273q31 207 176.5 312.5t373.5 105.5h426q145 82 355 68l346 -21v-317l-402 20q-57 3 -88.5 -35.5t-37.5 -121.5l638 10q92 2 143.5 -45.5t51.5 -138.5v-533zM874 1141q-70 0 -109 -24t-56 -77h186l186 4q0 27 9 97h-216z
M1915 344v363l-442 -5v-358h442zM1081 344v354l-141 -2h-246v-352h387z" />
    <glyph glyph-name="f_i" unicode="fi" horiz-adv-x="1779" 
d="M1462 344h289v-344h-1700v344h185v354l-185 -2v344l185 4q5 232 152.5 366t420.5 116l346 -21v-317l-399 20q-59 3 -91 -35.5t-38 -121.5l639 10q93 2 144.5 -45.5t51.5 -138.5v-533zM1069 344v363l-442 -5v-358h442z" />
    <glyph glyph-name=".notdef" horiz-adv-x="989" 
d="M811 1505v-1976h-627v1976h627zM657 1372h-325v-63h129v-74h-131v-66h327v66h-129v74h129v63zM528 1118h-198v-205h327v66h-129v139zM461 1051v-72h-66v72h66zM657 858h-327v-63h131v-74h-131v-66h198v140h129v63zM657 741h-63v-131h-264v-67h327v198zM657 500h-196v-111
h67v45h66v-92h-199v158h-65v-224h327v224zM657 158h-327v-224h327v224zM594 92v-92h-199v92h199zM657 -111h-327v-65h139l-139 -94v-64h327v64h-200l137 94h63v65z" />
    <glyph glyph-name=".null" horiz-adv-x="0" 
 />
    <glyph glyph-name="nonmarkingreturn" horiz-adv-x="682" 
 />
    <glyph glyph-name="space" unicode=" " horiz-adv-x="530" 
 />
    <glyph glyph-name="exclam" unicode="!" horiz-adv-x="759" 
d="M184 1444h391l-77 -873h-236zM377 -20q-115 0 -182.5 69.5t-67.5 171.5q0 99 68 167.5t182 68.5q113 0 184.5 -69t71.5 -167q0 -101 -71.5 -171t-184.5 -70z" />
    <glyph glyph-name="quotedbl" unicode="&#x22;" horiz-adv-x="980" 
d="M133 1614h285v-709h-285v709zM565 1614h287v-709h-287v709z" />
    <glyph glyph-name="numbersign" unicode="#" 
d="M2179 805h-450l-154 -377h377v-238h-471l-201 -495l-274 108l155 387h-356l-201 -495l-274 108l155 387h-352v238h449l151 377h-373v237h469l220 543l274 -108l-176 -435h358l219 543l275 -108l-176 -435h356v-237zM1257 428l152 377h-356l-154 -377h358z" />
    <glyph glyph-name="dollar" unicode="$" horiz-adv-x="1648" 
d="M1516 412q0 -198 -148 -311.5t-455 -120.5v-283h-182v289q-311 26 -454.5 170.5t-143.5 406.5h391q0 -106 45.5 -159t161.5 -70v266q-59 20 -96 33.5t-88.5 34t-84 37t-73 40.5t-65.5 47t-51.5 54t-41 64t-23.5 74t-9 87q0 182 136.5 282t395.5 109v285h182v-289
q267 -27 405 -163t138 -349h-391q0 140 -152 166v-219q69 -24 116 -41t116 -46t115.5 -55t99 -64.5t83.5 -77.5t52 -90t21 -107zM590 1055q0 -21 5 -31t35.5 -26.5t100.5 -41.5v162q-141 -6 -141 -63zM913 324q123 1 167 19.5t44 55.5t-51.5 67.5t-159.5 68.5v-211z" />
    <glyph glyph-name="percent" unicode="%" horiz-adv-x="2590" 
d="M1524 1640l274 -108l-719 -1782l-274 107zM629 535q-145 0 -259.5 67.5t-175.5 180t-61 247.5q0 101 36 191.5t100 158t157.5 107t202.5 39.5q145 0 259 -68t175 -180.5t61 -247.5t-61 -247.5t-175 -180t-259 -67.5zM629 825q89 0 147 60t58 145t-58 145t-147 60
q-90 0 -148.5 -60t-58.5 -145t58.5 -145t148.5 -60zM1962 -184q-145 0 -259.5 67.5t-175.5 180t-61 247.5q0 101 36 191.5t100 158t157.5 107t202.5 39.5t202.5 -39.5t157.5 -107t100 -158t36 -191.5q0 -135 -61 -247.5t-175.5 -180t-259.5 -67.5zM1962 106q89 0 148 60
t59 145t-59 145t-148 60t-148 -60t-59 -145t59 -145t148 -60z" />
    <glyph glyph-name="ampersand" unicode="&#x26;" horiz-adv-x="2117" 
d="M1985 -27l-308 -211l-264 338q-221 -108 -506 -108q-364 0 -569 140.5t-205 416.5q0 78 23 141.5t60 104.5t86 68.5t99 39.5t101 12q96 0 167 -36t134 -103v96l-322 414l2 158h1135v-344h-592l412 -484q73 140 73 342h394q0 -385 -215 -639zM907 336q157 0 281 51l-53 70
q-97 123 -187.5 177t-199.5 54q-96 0 -160 -40t-64 -116q0 -106 91.5 -151t291.5 -45z" />
    <glyph glyph-name="quotesingle" unicode="'" horiz-adv-x="550" 
d="M133 1614h285v-709h-285v709z" />
    <glyph glyph-name="parenleft" unicode="(" horiz-adv-x="940" 
d="M809 -72v-235q-173 29 -303.5 106t-211.5 192t-121 259.5t-40 318.5t40 318.5t121 259.5t211.5 191.5t303.5 105.5v-236q-75 -24 -133 -56t-99 -67t-70.5 -81.5t-46.5 -91.5t-26.5 -105t-12.5 -113t-3 -125t3 -125t12.5 -113.5t26.5 -105.5t46.5 -91.5t70 -82t99 -67.5
t133.5 -56z" />
    <glyph glyph-name="parenright" unicode=")" horiz-adv-x="940" 
d="M133 -72q74 24 132 56t99 67.5t70 82t46 91.5t26.5 105.5t12.5 113.5t3 125t-3 125t-12.5 113t-26.5 105t-46 91.5t-70 81.5t-99 67t-132 56v236q173 -29 303 -105.5t211.5 -191t121.5 -259.5t40 -319q0 -173 -40 -318t-121.5 -260t-211.5 -192t-303 -106v235z" />
    <glyph glyph-name="asterisk" unicode="*" horiz-adv-x="1069" 
d="M92 1100l72 225l184 -57l115 -92l-43 137v192h235v-192l-47 -139l115 86l182 59l74 -225l-184 -62l-148 2l117 -82l113 -155l-191 -140l-111 154l-45 143l-43 -137l-112 -153l-193 139l115 153l119 86h-142z" />
    <glyph glyph-name="plus" unicode="+" horiz-adv-x="1423" 
d="M1290 715v-293h-434v-432h-291v432h-432v293h432v432h291v-432h434z" />
    <glyph glyph-name="comma" unicode="," horiz-adv-x="673" 
d="M264 389l277 -74l-213 -780l-277 76z" />
    <glyph glyph-name="hyphen" unicode="-" horiz-adv-x="1423" 
d="M133 713h1157v-291h-1157v291z" />
    <glyph glyph-name="period" unicode="." horiz-adv-x="759" 
d="M377 -20q-115 0 -182.5 69.5t-67.5 171.5q0 99 68 167.5t182 68.5q113 0 184.5 -69t71.5 -167q0 -101 -71.5 -171t-184.5 -70z" />
    <glyph glyph-name="slash" unicode="/" horiz-adv-x="1175" 
d="M811 1667l272 -108l-718 -1782l-273 108z" />
    <glyph glyph-name="zero" unicode="0" horiz-adv-x="1583" 
d="M793 1464q336 0 531.5 -202t195.5 -539q0 -339 -195.5 -541t-531.5 -202q-338 0 -534 202t-196 541q0 337 196.5 539t533.5 202zM793 1120q-159 0 -247.5 -98t-88.5 -299q0 -85 14 -145l498 501q-69 41 -176 41zM793 324q159 0 246 98t87 301q0 85 -14 145l-498 -503
q77 -41 179 -41z" />
    <glyph glyph-name="one" unicode="1" horiz-adv-x="1267" 
d="M43 897q85 33 140.5 63t102 72.5t71.5 98t38.5 132t12.5 181.5h755v-1444h-391v1137l74 211h-94q-6 -94 -14.5 -162t-26.5 -144.5t-44 -132t-68 -114t-99 -102t-137 -83.5t-181 -71z" />
    <glyph glyph-name="two" unicode="2" horiz-adv-x="1447" 
d="M72 797q0 138 35.5 250t98.5 188.5t150 128.5t188 76t216 24q286 0 454 -124.5t168 -348.5q0 -76 -14.5 -138.5t-53 -112t-75 -86.5t-111.5 -69t-129.5 -52.5t-161.5 -44t-175.5 -36.5t-201.5 -37q-179 -32 -274 -50v-97l240 76h956v-344h-1290v686q20 3 79 8.5t122 11
t145.5 17t157 25.5t148.5 36.5t127 50t86.5 67t33.5 85.5q0 22 -9.5 42.5t-32 42.5t-70.5 35t-115 13q-163 0 -232 -78.5t-69 -244.5h-391z" />
    <glyph glyph-name="three" unicode="3" horiz-adv-x="1486" 
d="M37 551h391q0 -71 17.5 -116.5t57.5 -69.5t91.5 -32.5t132.5 -8.5q141 0 209 28.5t68 98.5q0 59 -45 93t-121 34h-201v317h201q145 0 145 102q0 62 -61.5 92.5t-194.5 30.5q-155 0 -216.5 -36t-61.5 -136h-392q0 115 36 204.5t98 147.5t150.5 95.5t187 53t214.5 15.5
q133 0 245 -22t199.5 -66t137 -116.5t49.5 -167.5q0 -49 -11.5 -89.5t-28.5 -69t-47 -52t-57.5 -37.5t-69.5 -26.5t-73.5 -19t-78.5 -14.5v-96q147 -14 202 -30q136 -40 171 -161q14 -48 14 -110q0 -107 -52.5 -187.5t-144.5 -127.5t-206 -69.5t-249 -22.5q-117 0 -216.5 16
t-192 56t-156.5 103.5t-102.5 164t-38.5 231.5z" />
    <glyph glyph-name="four" unicode="4" horiz-adv-x="1449" 
d="M1378 557v-344h-145v-213h-393v213h-748v715q262 13 401.5 143.5t151.5 372.5h393q-7 -374 -231 -596t-621 -270v-95l240 74h414v238h393v-238h145z" />
    <glyph glyph-name="five" unicode="5" horiz-adv-x="1521" 
d="M63 537h394q0 -213 319 -213q140 0 201 51t61 162q0 89 -55 134.5t-135 45.5q-160 0 -273 -137l-430 254v610h1166v-344h-774v-144l-74 -211l78 -45q54 184 162 262t268 78q93 0 174 -29.5t145.5 -87.5t102 -153.5t37.5 -218.5q0 -284 -175 -427.5t-479 -143.5
q-119 0 -222 18t-195 59.5t-156.5 105t-102 159t-37.5 215.5z" />
    <glyph glyph-name="six" unicode="6" horiz-adv-x="1509" 
d="M92 727q0 138 25.5 253.5t82 211t141 159.5t208.5 94t278 19l525 -41v-344l-521 41q-84 9 -158 2t-133 -29t-105 -77t-73 -142l-96 -210h96q21 124 93.5 208t179.5 123t246 39q279 0 435.5 -134t156.5 -370q0 -261 -179.5 -405.5t-486.5 -144.5q-340 0 -527.5 185
t-187.5 562zM483 506q0 -80 73.5 -131t223.5 -51q75 0 126.5 8.5t93 30.5t61.5 63.5t20 103.5q0 102 -75.5 144.5t-223.5 42.5q-168 0 -233.5 -50t-65.5 -161z" />
    <glyph glyph-name="seven" unicode="7" horiz-adv-x="1265" 
d="M203 0q0 229 66 414.5t188.5 316t286 216.5t370.5 132v97l-213 -76h-844v344h1151v-553q-221 -82 -346 -190.5t-183 -275.5t-58 -425h-418z" />
    <glyph glyph-name="eight" unicode="8" horiz-adv-x="1425" 
d="M16 401q0 322 457 347v94q-53 1 -101.5 8.5t-100 27.5t-88.5 51.5t-61 84.5t-24 121q0 57 19.5 104t52.5 80.5t81 59t101 41.5t116.5 26t122.5 14t124 4q76 0 144 -5.5t140 -19t129 -38.5t103 -60t71 -87.5t25 -118.5q0 -68 -23.5 -121t-60.5 -84.5t-88 -51.5
t-99.5 -27.5t-101.5 -8.5v-94q69 -4 132 -17.5t122.5 -40.5t103.5 -65.5t70.5 -96t26.5 -127.5q0 -120 -50 -204t-146 -130.5t-216.5 -66.5t-281.5 -20q-128 0 -230 12t-191.5 41.5t-149.5 76.5t-94 120.5t-34 170.5zM489 1055q0 -48 52 -69t174 -21q119 0 170 21t51 69
t-51.5 70t-169.5 22q-121 0 -173.5 -22t-52.5 -70zM408 457q0 -84 72.5 -122t234.5 -38q160 0 231.5 38t71.5 122q0 82 -72.5 123t-230.5 41q-159 0 -233 -41.5t-74 -122.5z" />
    <glyph glyph-name="nine" unicode="9" horiz-adv-x="1509" 
d="M1417 717q0 -138 -25.5 -253.5t-82 -211t-141 -159.5t-208.5 -94t-278 -19l-524 40v345l520 -41q83 -9 157.5 -2.5t133.5 29t105 77t73 141.5l96 211h-96q-21 -124 -93 -208t-179 -123t-246 -39q-279 0 -435.5 134t-156.5 369q0 261 179.5 406t485.5 145
q340 0 527.5 -185t187.5 -562zM1026 938q0 80 -73.5 131t-223.5 51q-152 0 -226.5 -43.5t-74.5 -163.5q0 -102 75.5 -144t223.5 -42q168 0 233.5 50t65.5 161z" />
    <glyph glyph-name="colon" unicode=":" horiz-adv-x="759" 
d="M377 567q-115 0 -182.5 69.5t-67.5 172.5q0 99 67.5 167t182.5 68q113 0 184.5 -68.5t71.5 -166.5q0 -102 -71.5 -172t-184.5 -70zM377 -20q-115 0 -182.5 69.5t-67.5 171.5q0 99 68 167.5t182 68.5q113 0 184.5 -69t71.5 -167q0 -101 -71.5 -171t-184.5 -70z" />
    <glyph glyph-name="semicolon" unicode=";" horiz-adv-x="841" 
d="M459 567q-115 0 -182.5 69.5t-67.5 172.5q0 99 67.5 167t182.5 68q113 0 184.5 -68.5t71.5 -166.5q0 -102 -71.5 -172t-184.5 -70zM264 389l277 -74l-213 -780l-277 76z" />
    <glyph glyph-name="less" unicode="&#x3c;" horiz-adv-x="1441" 
d="M133 365v282l1088 436l88 -276l-840 -301l840 -273l-88 -276z" />
    <glyph glyph-name="equal" unicode="=" horiz-adv-x="1423" 
d="M133 946h1157v-291h-1157v291zM133 481h1157v-291h-1157v291z" />
    <glyph glyph-name="greater" unicode="&#x3e;" horiz-adv-x="1441" 
d="M1309 365l-1088 -408l-88 276l840 273l-840 301l88 276l1088 -436v-282z" />
    <glyph glyph-name="question" unicode="?" horiz-adv-x="1138" 
d="M92 1133q0 85 27.5 156.5t85.5 130.5t159 92.5t236 33.5q100 0 179.5 -18t128.5 -47.5t81.5 -69t45 -79.5t12.5 -83q0 -359 -752 -426v-84l184 70h479v-238h-757v469q263 2 411 48t148 133q0 88 -166 88q-117 0 -167 -44.5t-50 -131.5h-285zM580 -20q-115 0 -182.5 69.5
t-67.5 171.5q0 99 68 167.5t182 68.5q113 0 183.5 -69t70.5 -167q0 -101 -70.5 -171t-183.5 -70z" />
    <glyph glyph-name="at" unicode="@" horiz-adv-x="2306" 
d="M395 569q0 -174 57.5 -323t158.5 -251.5t248 -152.5t317 -30l831 96v-240l-831 -94q-133 -16 -263.5 6t-245.5 77t-213.5 144.5t-169.5 203.5t-111 259t-40 305q0 199 56 366.5t154 286t232 201.5t289 122.5t326 39.5q212 0 390.5 -58t311 -167t207 -278t74.5 -380
q0 -307 -141.5 -489t-395.5 -182h-120q-115 0 -115 141l74 182h-95q-30 -143 -131.5 -228t-251.5 -85q-204 0 -323 141t-119 387q0 245 119.5 386t322.5 141q150 0 251.5 -85.5t131.5 -228.5h95l-74 211v92h285v-817h40q185 0 185 434q0 330 -177.5 487t-543.5 157
q-179 0 -329 -59.5t-251.5 -163t-158 -246.5t-56.5 -308zM1053 279q118 0 161 71t43 219q0 147 -43.5 218t-160.5 71t-164 -73t-47 -216q0 -145 47 -217.5t164 -72.5z" />
    <glyph glyph-name="A" unicode="A" horiz-adv-x="1662" 
d="M1235 0l-111 422h-585l-111 -422h-397l395 1444h809l397 -1444h-397zM629 766h403l-153 582h-97z" />
    <glyph glyph-name="B" unicode="B" horiz-adv-x="1480" 
d="M113 0v1444h557q132 0 226.5 -9.5t170.5 -33t121.5 -64t69.5 -101.5t24 -146q0 -43 -6.5 -79t-16.5 -62.5t-27.5 -47t-34 -34.5t-41.5 -24t-45 -15.5t-49.5 -9t-50 -5t-51 -3t-47.5 -3.5v-94q165 -8 217 -16q168 -29 225 -142q34 -68 34 -172q0 -72 -20.5 -129
t-54.5 -96.5t-88 -68.5t-111 -46t-135.5 -27t-149.5 -13t-162 -3h-555zM504 924h221q10 0 33 -0.5t32 0l27 1.5t26 4.5t19.5 10t16 16t8.5 23.5t4 33q0 26 -8.5 43.5t-19 26t-34.5 13t-39 5t-49 0.5h-16h-221v-176zM504 344h219q18 0 49.5 -0.5t46 -0.5t40 1t37 3t29.5 5.5
t26 9.5t19 15t15.5 21t8 27.5t3.5 35.5q0 23 -3 41t-12 31t-17 21.5t-25.5 14t-30.5 8.5t-38.5 3.5t-42.5 0.5t-50.5 -0.5t-54.5 -0.5h-219v-236z" />
    <glyph glyph-name="C" unicode="C" horiz-adv-x="1687" 
d="M92 723q0 157 54 293t152 235t243 156t319 57q311 0 507 -154.5t228 -422.5h-391q-24 113 -117 173t-223 60q-173 0 -277 -99t-104 -298q0 -201 104 -300t277 -99q129 0 222.5 61t117.5 174h391q-32 -269 -228 -424t-507 -155q-174 0 -319 57t-243 156.5t-152 235.5
t-54 294z" />
    <glyph glyph-name="D" unicode="D" horiz-adv-x="1576" 
d="M674 1444q93 0 171.5 -7t163.5 -27.5t153 -53.5t130.5 -88.5t104 -129.5t66 -179.5t24.5 -235.5t-24.5 -236t-66 -180t-104 -130t-130.5 -89t-153 -53.5t-163.5 -27.5t-171.5 -7h-561v1444h561zM674 344q46 0 74.5 0.5t67 3.5t62.5 8.5t54 14.5t48.5 24t39 35t32.5 48
t22.5 63.5t15 81t4.5 100.5t-4.5 100t-15 80t-22.5 63t-32.5 48.5t-39 35t-48.5 23.5t-54 14.5t-62.5 8.5t-67 3.5t-74.5 0.5h-170v-756h170z" />
    <glyph glyph-name="E" unicode="E" horiz-adv-x="1267" 
d="M113 0v1444h1083v-344h-692v-205h590v-344h-590v-207h692v-344h-1083z" />
    <glyph glyph-name="F" unicode="F" horiz-adv-x="1247" 
d="M113 0v1444h1063v-344h-672v-352l645 40v-348l-645 -41v-399h-391z" />
    <glyph glyph-name="G" unicode="G" horiz-adv-x="1882" 
d="M92 723q0 164 58 303.5t158 235t237 149t293 53.5q180 0 335.5 -67.5t257.5 -190.5t123 -278h-391q-24 105 -101.5 148.5t-223.5 43.5q-175 0 -265 -90t-90 -307q0 -113 20 -191t61 -123.5t97 -65t134 -19.5q124 0 199.5 52.5t76.5 151.5h-266v291h772q93 0 144 -51.5
t51 -146.5v-621h-394v481l76 242h-96q-1 -166 -35 -299t-103 -233.5t-181 -155.5t-261 -55q-323 0 -504.5 201t-181.5 542z" />
    <glyph glyph-name="H" unicode="H" horiz-adv-x="1681" 
d="M1178 1444h393v-1444h-393v526h-674v-526h-391v1444h391v-574h674v574z" />
    <glyph glyph-name="I" unicode="I" horiz-adv-x="1234" 
d="M1143 1100h-330v-756h330v-344h-1051v344h330v756h-330v344h1051v-344z" />
    <glyph glyph-name="J" unicode="J" horiz-adv-x="1146" 
d="M410 -20l-379 20v344l379 -20q50 -3 89.5 5t66 23t45 42t29 53t16 66t7 72t1.5 79v456l-457 -20v344l653 20q95 3 145 -47.5t50 -146.5v-754q0 -209 -58.5 -327.5t-199.5 -170t-387 -38.5z" />
    <glyph glyph-name="K" unicode="K" horiz-adv-x="1654" 
d="M1626 1444l-866 -723l866 -721h-573l-549 467v-467h-391v1444h391v-469l549 469h573z" />
    <glyph glyph-name="L" unicode="L" horiz-adv-x="1226" 
d="M309 -20q-95 -2 -145.5 47.5t-50.5 144.5v1272h391v-1120l692 20v-344z" />
    <glyph glyph-name="M" unicode="M" horiz-adv-x="2119" 
d="M113 0v1444h768l131 -1348h96l131 1348h768v-1444h-391v1110l74 238h-95l-157 -1348h-756l-158 1348h-96l76 -238v-1110h-391z" />
    <glyph glyph-name="N" unicode="N" horiz-adv-x="1726" 
d="M113 0v1444h768l321 -1348h96l-75 238v1110h393v-1444h-770l-322 1348h-96l76 -238v-1110h-391z" />
    <glyph glyph-name="O" unicode="O" horiz-adv-x="1705" 
d="M92 723q0 157 53 293t150 235t241 156t318 57q173 0 317 -57t240.5 -156t149.5 -235t53 -293q0 -158 -53 -294t-149.5 -235.5t-240.5 -156.5t-317 -57q-174 0 -318 57t-241 156.5t-150 235.5t-53 294zM483 723q0 -192 94 -295.5t277 -103.5q182 0 275.5 103t93.5 296
q0 191 -93.5 294t-275.5 103q-183 0 -277 -103t-94 -294z" />
    <glyph glyph-name="P" unicode="P" horiz-adv-x="1409" 
d="M676 1444q86 0 152.5 -4.5t138 -18t123.5 -37t101 -62.5t79.5 -93t48.5 -131t18 -174t-18 -174t-48.5 -131t-79.5 -93.5t-101.5 -63t-123.5 -37t-137.5 -18t-152.5 -4.5h-172v-403h-391v1444h563zM702 748q49 0 78.5 1.5t61 7t48 17t31 31t20 49t5.5 70.5t-5.5 70.5
t-20 49t-31 31t-48 17t-61 7t-78.5 1.5h-198v-352h198z" />
    <glyph glyph-name="Q" unicode="Q" horiz-adv-x="1761" 
d="M1221 -39q256 22 714 -33v-344q-298 37 -544 41.5t-436 -13t-480 -61.5l-31 318q4 0 79 6.5t93.5 8.5t89 10t102 14.5l94.5 19.5t103 27t91 34t94 44l-55 90q-71 -63 -157.5 -93t-240.5 -30q-127 0 -243 50t-205.5 140.5t-143 228t-53.5 300.5q0 156 57.5 293.5
t159.5 237t250.5 157t321.5 57.5q233 0 412 -91.5t277.5 -260t98.5 -389.5q0 -138 -36 -259t-100.5 -214t-141 -163t-170.5 -126zM881 317q187 0 292 109t105 297q0 187 -104.5 292t-292.5 105t-293 -107t-105 -294q0 -188 105 -295t293 -107z" />
    <glyph glyph-name="R" unicode="R" horiz-adv-x="1509" 
d="M113 0v1444h589q676 0 676 -404q0 -59 -17 -107t-48.5 -80.5t-68.5 -56t-86.5 -38t-91.5 -22.5t-93 -13v-94h225q94 0 146.5 -53t52.5 -148v-428h-391v479h-502v-479h-391zM504 823h198h28q51 0 75 0.5t60.5 4t53.5 12t35.5 23.5t25.5 39.5t7 58.5q0 21 -3 38t-8.5 30
t-14 23.5t-19.5 18t-24.5 12.5t-29.5 8.5t-34 5.5t-38 2.5t-42 0.5h-46h-26h-198v-277z" />
    <glyph glyph-name="S" unicode="S" horiz-adv-x="1484" 
d="M1434 412q0 -204 -158 -318t-485 -114q-385 0 -562.5 147t-177.5 436h391q0 -133 77 -186t286 -53q139 0 188 18t49 57q0 23 -16.5 42t-68 43t-82.5 35.5t-122 43.5q-39 14 -59 21q-228 79 -309 119q-176 85 -234 206q-34 71 -34 162q0 192 152 292.5t438 100.5
q327 0 497 -140t170 -378h-391q0 53 -19.5 88.5t-59 53.5t-85.5 25t-112 7q-199 0 -199 -65q0 -19 3 -27t25 -22.5t66.5 -31.5t132.5 -48q19 -6 82 -27.5t92 -31.5t90.5 -34t95 -40t86.5 -44t83 -51.5t67 -57.5t56.5 -67.5t33 -75t13.5 -85.5z" />
    <glyph glyph-name="T" unicode="T" horiz-adv-x="1413" 
d="M1364 1444v-344h-461v-1100h-391v1100h-461v344h1313z" />
    <glyph glyph-name="U" unicode="U" horiz-adv-x="1511" 
d="M72 537v907h391v-715q0 -167 10 -221q20 -113 105 -153q65 -31 176 -31q62 0 109 10.5t78.5 24.5t52.5 46t32 56t16 74.5t6 82t1 97.5v14v715h391v-907q0 -270 -177 -413.5t-509 -143.5q-330 0 -506 143.5t-176 413.5z" />
    <glyph glyph-name="V" unicode="V" horiz-adv-x="1662" 
d="M31 1444h397l354 -1348h97l356 1348h397l-397 -1444h-809z" />
    <glyph glyph-name="W" unicode="W" horiz-adv-x="2519" 
d="M31 1444h381l202 -1348h95l133 1348h835l133 -1348h95l202 1348h381l-223 -1444h-815l-143 1348h-95l-143 -1348h-815z" />
    <glyph glyph-name="X" unicode="X" horiz-adv-x="1699" 
d="M31 0l481 676v94l-481 674h450l367 -526l371 526h450l-483 -674v-94l483 -676h-450l-371 528l-367 -528h-450z" />
    <glyph glyph-name="Y" unicode="Y" horiz-adv-x="1533" 
d="M1083 1444h420l-542 -1008v-436h-392v436l-538 1008h418l268 -559v-213h96v213z" />
    <glyph glyph-name="Z" unicode="Z" horiz-adv-x="1378" 
d="M72 0v719l1140 360v97l-213 -76h-927v344h1235v-719l-1141 -360v-97l213 76h928v-344h-1235z" />
    <glyph glyph-name="bracketleft" unicode="[" horiz-adv-x="968" 
d="M133 1444h703v-238h-414v-1276h414v-237h-703v1751z" />
    <glyph glyph-name="backslash" unicode="\" horiz-adv-x="1175" 
d="M365 1667l718 -1782l-272 -108l-719 1782z" />
    <glyph glyph-name="bracketright" unicode="]" horiz-adv-x="968" 
d="M836 1444v-1751h-703v237h414v1276h-414v238h703z" />
    <glyph glyph-name="asciicircum" unicode="^" horiz-adv-x="1191" 
d="M752 735l-107 613h-96l-109 -613h-307l178 709h572l176 -709h-307z" />
    <glyph glyph-name="underscore" unicode="_" horiz-adv-x="1341" 
d="M92 -20h1157v-291h-1157v291z" />
    <glyph glyph-name="grave" unicode="`" horiz-adv-x="1196" 
d="M1063 1393l-64 -275l-866 182l64 275z" />
    <glyph glyph-name="a" unicode="a" horiz-adv-x="1361" 
d="M72 283q0 96 40 159.5t138.5 106.5t263.5 59l295 33q2 53 -38.5 77.5t-135.5 24.5q-87 0 -129.5 -29.5t-42.5 -74.5h-365q0 103 43 185t117.5 133t170.5 77.5t206 26.5q89 0 168.5 -14.5t154 -50t127.5 -89.5t85 -138t32 -191v-234h150v-344h-250q-80 0 -125 43.5
t-45 124.5l61 129h-94q-15 -70 -42 -123t-75 -99t-128 -70.5t-189 -24.5q-96 0 -169.5 22t-114.5 54t-67 75t-34 79t-8 73zM455 350q0 -53 114 -53q100 0 170 43t70 115l-221 -37q-89 -15 -109 -26q-23 -15 -24 -42z" />
    <glyph glyph-name="b" unicode="b" horiz-adv-x="1435" 
d="M113 0v1505h391v-493l-76 -211h96q19 44 37.5 76.5t51.5 69.5t73 60t102 38.5t138 15.5q111 0 196.5 -43.5t137.5 -119t78 -171t26 -205.5q0 -111 -26 -207t-78 -172t-137.5 -119.5t-196.5 -43.5q-94 0 -165 21.5t-116 62.5t-71 81t-50 97h-96l76 -213v-29h-391zM504 522
q0 -105 53.5 -151.5t175.5 -46.5q125 0 182.5 47.5t57.5 150.5q0 102 -57.5 148.5t-182.5 46.5q-122 0 -175.5 -46t-53.5 -149z" />
    <glyph glyph-name="c" unicode="c" horiz-adv-x="1312" 
d="M72 522q0 134 44.5 238t123.5 169t184 98.5t231 33.5q160 0 290.5 -54.5t211.5 -161.5t86 -249h-393q-5 44 -57 82.5t-138 38.5q-81 0 -136.5 -49.5t-55.5 -145.5q0 -98 55.5 -148t136.5 -50q86 0 138 38t57 82h393q-5 -142 -86 -248.5t-211.5 -161t-290.5 -54.5
q-126 0 -231 33.5t-184 99t-123.5 170.5t-44.5 239z" />
    <glyph glyph-name="d" unicode="d" horiz-adv-x="1435" 
d="M1323 0h-391v29l76 213h-97q-19 -45 -37.5 -77.5t-51.5 -69.5t-73 -60.5t-101.5 -39t-137.5 -15.5q-111 0 -196.5 43.5t-137.5 119.5t-78 172t-26 207q0 110 26 205.5t78 171t137.5 119t196.5 43.5q76 0 137.5 -15.5t101.5 -38.5t73 -60t51.5 -69.5t37.5 -76.5h97
l-76 211v493h391v-1505zM932 522q0 103 -53.5 149t-176.5 46q-125 0 -182 -46.5t-57 -148.5q0 -103 57.5 -150.5t181.5 -47.5q123 0 176.5 46.5t53.5 151.5z" />
    <glyph glyph-name="e" unicode="e" horiz-adv-x="1320" 
d="M72 532q0 241 156.5 385t410.5 144q252 0 412.5 -141t160.5 -365v-100h-776q-3 -80 59 -127t181 -47q68 0 119.5 25.5t62.5 62.5h391q-4 -46 -28 -97t-72 -103.5t-113 -94t-159 -68t-201 -26.5q-150 0 -267.5 44.5t-190 122t-109.5 175.5t-37 210zM436 621h412
q0 56 -46 89t-163 33q-61 0 -103 -9.5t-63 -27.5t-29 -38t-8 -47z" />
    <glyph glyph-name="f" unicode="f" horiz-adv-x="995" 
d="M756 1161q-61 0 -92 -27.5t-35 -93.5h299v-344h-299v-352h299v-344h-877v344h185v352h-185v344h185q6 465 573 465h176v-344h-229z" />
    <glyph glyph-name="g" unicode="g" horiz-adv-x="1482" 
d="M1384 1040h91v-344h-64q-2 0 -16.5 0.5t-22.5 0t-20 -2.5t-21 -6l1 -5l2.5 -12.5t3 -16.5t2.5 -21t1 -23q0 -132 -119 -227.5t-339 -167.5q73 1 136.5 -7t121 -28t98.5 -52t65.5 -81.5t24.5 -112.5q0 -54 -15.5 -98t-42 -78.5t-74 -61t-101 -46t-133.5 -32.5t-160 -21.5
t-193.5 -13t-220 -6t-252.5 -1.5v344q536 0 665 16q106 14 125 52q7 13 7 35q0 20 -11.5 35t-35.5 23.5t-52.5 14t-72.5 6t-83 -0.5t-97 -5t-103.5 -7.5t-112 -9.5t-112.5 -9l-37 190q234 2 396.5 11.5t301.5 37.5v97q-99 -32 -210.5 -47.5t-224 -8.5t-203.5 38t-148 100.5
t-57 170.5q0 131 81.5 223.5t216 135.5t310.5 43q279 0 434 -115q53 94 270 94zM707 549q138 0 190.5 25t52.5 83q0 57 -52.5 84t-190.5 27q-137 0 -190.5 -27t-53.5 -84t53.5 -82.5t190.5 -25.5z" />
    <glyph glyph-name="h" unicode="h" horiz-adv-x="1447" 
d="M913 1061q209 0 327 -137.5t118 -388.5v-535h-393v471q0 137 -41.5 191.5t-153.5 54.5q-51 0 -89.5 -8.5t-73 -32.5t-56.5 -63.5t-34.5 -103.5t-12.5 -151v-358h-391v1505h391v-569l-76 -211h96q33 148 132.5 242t256.5 94z" />
    <glyph glyph-name="i" unicode="i" horiz-adv-x="1071" 
d="M528 1128q-198 0 -198 168q0 84 51.5 126t146.5 42q96 0 151.5 -42t55.5 -126q0 -86 -55 -127t-152 -41zM72 0v344h286v363l-260 -11v344l455 21q94 5 146.5 -46.5t52.5 -148.5v-522h288v-344h-968z" />
    <glyph glyph-name="j" unicode="j" horiz-adv-x="761" 
d="M463 1128q-201 0 -201 168q0 84 53 126t148 42q96 0 150.5 -42t54.5 -126q0 -86 -54 -127t-151 -41zM10 -424l230 371q34 52 34 139v621l-266 -11v344l481 13q92 3 143.5 -47t51.5 -144v-801q0 -75 -35 -139l-196 -346h-443z" />
    <glyph glyph-name="k" unicode="k" horiz-adv-x="1458" 
d="M963 0l-224 369l-235 -103v-266h-391v1505h391v-835l454 190l3 180h393l-8 -239q-2 -84 -36.5 -139t-111.5 -91l-119 -53l328 -518h-444z" />
    <glyph glyph-name="l" unicode="l" horiz-adv-x="1046" 
d="M51 0v344h287v827l-260 -10v344l459 13q92 1 142 -48t50 -141v-985h289v-344h-967z" />
    <glyph glyph-name="m" unicode="m" horiz-adv-x="1996" 
d="M1552 1061q83 0 146 -30.5t101.5 -80.5t63 -124t33.5 -151t9 -171v-504h-392v485q0 100 -12 148.5t-38 66t-81 17.5q-49 0 -82.5 -18t-52 -46t-28.5 -81.5t-12.5 -104.5t-2.5 -135v-332h-395l4 8v477q0 100 -12 148.5t-38 66t-81 17.5q-49 0 -82.5 -18t-52 -46
t-28.5 -81.5t-12.5 -104.5t-2.5 -135v-332h-391v1040h391v-75l-76 -213h96q33 149 110 229t218 80q73 0 128 -22.5t90.5 -66t56.5 -97.5t32 -125l2 2h68q33 150 107.5 229.5t215.5 79.5z" />
    <glyph glyph-name="n" unicode="n" horiz-adv-x="1447" 
d="M770 717q-51 0 -89.5 -8.5t-73 -32.5t-56.5 -63.5t-34.5 -103.5t-12.5 -151v-358h-391v1040h391v-104l-76 -211h96q33 148 132.5 242t256.5 94q209 0 327 -137.5t118 -388.5v-535h-393v471q0 137 -41.5 191.5t-153.5 54.5z" />
    <glyph glyph-name="o" unicode="o" horiz-adv-x="1343" 
d="M72 522q0 112 31.5 203t86.5 152.5t131.5 103.5t164.5 61t188 19q124 0 230 -31t190 -94t132 -169t48 -245q0 -140 -48 -247t-132 -170t-189.5 -94t-230.5 -31q-100 0 -188 19t-164.5 61t-131.5 104t-86.5 153.5t-31.5 204.5zM463 522q0 -102 56.5 -150t154.5 -48
q95 0 151 48t56 150q0 101 -56 148t-151 47q-98 0 -154.5 -47t-56.5 -148z" />
    <glyph glyph-name="p" unicode="p" horiz-adv-x="1435" 
d="M113 1040h391v-28l-76 -211h96q19 44 37.5 76.5t52 69.5t73.5 60t102 38.5t139 15.5q88 0 161 -29t123.5 -79t85 -119t50.5 -147.5t16 -166.5q0 -111 -26 -206.5t-77.5 -171t-137 -119t-195.5 -43.5q-77 0 -139 15.5t-102.5 39t-73.5 60.5t-51.5 69.5t-37.5 77.5h-96
l76 -213v-426h-391v1437zM504 520q0 -106 53 -151t176 -45q126 0 183 45.5t57 150.5q0 104 -57.5 150.5t-182.5 46.5q-123 0 -176 -46t-53 -151z" />
    <glyph glyph-name="q" unicode="q" horiz-adv-x="1435" 
d="M1323 1040v-1437h-391v426l76 213h-97q-19 -45 -37.5 -77.5t-51.5 -69.5t-73 -60.5t-102 -39t-139 -15.5q-110 0 -195.5 43.5t-137 119t-77.5 171t-26 206.5q0 88 16 166.5t50.5 147.5t85 119t123.5 79t161 29q77 0 139 -15.5t102 -38.5t73 -60t51.5 -69.5t37.5 -76.5h97
l-76 211v28h391zM932 520q0 105 -53.5 151t-176.5 46q-125 0 -182 -46.5t-57 -150.5q0 -105 56.5 -150.5t182.5 -45.5q123 0 176.5 45t53.5 151z" />
    <glyph glyph-name="r" unicode="r" horiz-adv-x="1034" 
d="M113 0v870q0 90 49.5 138.5t140.5 48.5l723 -17v-344l-522 11v-707h-391z" />
    <glyph glyph-name="s" unicode="s" horiz-adv-x="1171" 
d="M1141 295q0 -146 -122.5 -230.5t-391.5 -84.5q-292 0 -434 103.5t-142 291.5h391q0 -41 45.5 -77t153.5 -36q109 0 109 43q0 18 -27 31q-21 9 -166 59q-24 8 -74.5 24t-79.5 26t-75 28.5t-74 35t-61 43t-51.5 55.5t-31 68t-12.5 85q0 145 124 223t347 78
q252 0 394.5 -110t142.5 -277h-391q0 39 -38 71.5t-102 32.5q-47 0 -66.5 -8.5t-19.5 -28.5q0 -14 11.5 -26t41.5 -24t55.5 -20.5t80.5 -25t90 -27.5q54 -18 85 -28.5t76 -29.5t71 -35t56.5 -40.5t46.5 -51t27 -62t11 -76.5z" />
    <glyph glyph-name="t" unicode="t" horiz-adv-x="1095" 
d="M655 324l392 20v-344l-594 -20q-90 -3 -139.5 47t-49.5 141v528h-254v344h254v168l391 123v-291h351v-344h-351v-372z" />
    <glyph glyph-name="u" unicode="u" horiz-adv-x="1427" 
d="M678 324q65 0 110.5 14.5t82.5 52.5t55 110t18 181v358h393v-1040h-393v104l76 211h-96q-31 -147 -131 -241t-258 -94q-208 0 -325.5 138t-117.5 388v534h391v-471q0 -136 42 -190.5t153 -54.5z" />
    <glyph glyph-name="v" unicode="v" horiz-adv-x="1298" 
d="M901 1040h389l-235 -1040h-809l-236 1040h387l205 -944h96z" />
    <glyph glyph-name="w" unicode="w" horiz-adv-x="2013" 
d="M10 1040h375l88 -944h94l29 944h821l29 -944h96l90 944h373l-102 -1040h-820l-28 946h-97l-28 -946h-819z" />
    <glyph glyph-name="x" unicode="x" horiz-adv-x="1456" 
d="M51 0l398 473v96l-398 471h465l211 -301l211 301h467l-397 -471v-96l397 -473h-467l-211 303l-211 -303h-465z" />
    <glyph glyph-name="y" unicode="y" horiz-adv-x="1441" 
d="M967 1040h446l-485 -958v-334q0 -96 -50.5 -145.5t-140.5 -46.5l-551 12v344h349v170l-484 958h443l190 -481v-199h94v199z" />
    <glyph glyph-name="z" unicode="z" horiz-adv-x="1193" 
d="M72 0v575l956 115v94l-213 -73h-743v329h1050v-573l-956 -115v-96l213 76h743v-332h-1050z" />
    <glyph glyph-name="braceleft" unicode="{" horiz-adv-x="1417" 
d="M803 1206l-211 74v-94q224 -66 272 -84q129 -50 175 -121q42 -64 42 -172q0 -107 -71 -236q71 -129 71 -235q0 -58 -10.5 -102t-36 -77t-56.5 -56.5t-84 -45t-104 -38t-132 -39.5q-43 -12 -66 -19v-94l211 74h454v-238h-761v403h1l2 1q175 44 241 78q127 63 134 183v15v8
q-169 -172 -344 -172q-167 0 -268.5 94t-101.5 260q0 171 93 263t277 92q175 0 344 -172v8q0 127 -124 193q-66 35 -240 79l-1 1h-1h-1h-1l-1 1h-1h-2l-1 1h-1h-1h-1l-1 1h-1v404h761v-238h-454zM580 432q44 0 101.5 40t104.5 101q-48 61 -105 101.5t-101 40.5
q-57 0 -95.5 -36.5t-38.5 -105.5t38.5 -105t95.5 -36z" />
    <glyph glyph-name="bar" unicode="|" horiz-adv-x="555" 
d="M133 1747h289v-2050h-289v2050z" />
    <glyph glyph-name="braceright" unicode="}" horiz-adv-x="1363" 
d="M860 219q-175 0 -344 172v-8q0 -33 7 -61.5t24 -51t34 -40.5t48.5 -34t54.5 -27t65 -23.5t68 -19.5t74 -19q3 -1 4 -1v-403h-762v238h455l211 -74v94q-224 66 -271 84q-130 49 -177 121q-42 64 -42 172q0 104 72 235q-72 131 -72 236q0 70 20.5 120.5t42 81t92 62.5
t110 45.5t158.5 47.5q44 13 67 20v94l-211 -74h-455v238h762v-404h-1l-1 -1h-1h-1h-1l-1 -1h-1q-174 -44 -240 -77q-126 -64 -132 -184v-13v-8q169 172 344 172q184 0 277.5 -92t93.5 -263q0 -166 -102 -260t-269 -94zM811 715q-44 0 -101.5 -40.5t-105.5 -101.5
q47 -60 105 -100.5t102 -40.5q57 0 95 36t38 105q0 70 -38 106t-95 36z" />
    <glyph glyph-name="asciitilde" unicode="~" horiz-adv-x="1390" 
d="M133 334q0 214 80 337.5t229 123.5q68 0 139 -25.5t119.5 -55.5t98.5 -55.5t82 -25.5q50 0 69 37t19 131h288q0 -214 -80 -336.5t-231 -122.5q-67 0 -138 25.5t-119 55.5t-98 55.5t-81 25.5q-50 0 -69 -38t-19 -132h-289z" />
    <glyph glyph-name="exclamdown" unicode="&#xa1;" horiz-adv-x="761" 
d="M381 1061q112 0 183 -70t71 -172q0 -98 -71.5 -166.5t-182.5 -68.5q-116 0 -183 67.5t-67 167.5q0 104 67 173t183 69zM186 -403l78 874h236l78 -874h-392z" />
    <glyph glyph-name="cent" unicode="&#xa2;" horiz-adv-x="1435" 
d="M809 553q45 18 72 47.5t30 58.5h394q-7 -191 -145.5 -313.5t-350.5 -146.5v-502l-180 2v500q-109 12 -198.5 51t-156.5 104t-104 163t-37 220q0 121 37 218t103.5 162t155 104t196.5 51v475l182 -2v-473q212 -24 351.5 -147t146.5 -314h-394q-3 30 -30 60.5t-74 46.5z
M524 737q0 -67 28 -113t75 -67v356q-103 -47 -103 -176z" />
    <glyph glyph-name="sterling" unicode="&#xa3;" horiz-adv-x="1435" 
d="M735 1100q-44 1 -73 -0.5t-58.5 -8t-44 -21t-14.5 -38.5q0 -30 17 -59t34.5 -45t53.5 -46q8 -7 12 -10h559v-186h-424q6 -30 6 -65q0 -141 -160 -197q-96 -34 -325 -52q-11 -1 -33 -2q-39 -3 -58 -5v-97l213 76h863v-344h-1170v498q149 31 182 44q66 25 84 77
q10 28 11 67h-277v186h152q-62 44 -96.5 99t-34.5 153q0 70 39.5 127t102.5 93t144.5 60t163 33t160.5 7l539 -21v-344z" />
    <glyph glyph-name="currency" unicode="&#xa4;" horiz-adv-x="1587" 
d="M1298 733q0 -148 -73 -266l231 -231l-166 -166l-233 233q-109 -65 -254 -65q-149 0 -266 71l-240 -239l-166 166l242 241q-66 117 -66 256q0 140 66 254l-242 242l166 166l238 -238q122 72 268 72q140 0 256 -66l231 232l166 -166l-229 -230q71 -123 71 -266zM803 528
q89 0 147 60t58 145t-58 145t-147 60q-90 0 -148.5 -60t-58.5 -145t58.5 -145t148.5 -60z" />
    <glyph glyph-name="yen" unicode="&#xa5;" horiz-adv-x="1738" 
d="M1606 1444l-416 -772h278v-185h-378l-27 -51v-47h405v-186h-405v-203h-391v203h-406v186h406v47l-27 51h-379v185h281l-414 772h418l268 -559v-213h96v213l271 559h420z" />
    <glyph glyph-name="brokenbar" unicode="&#xa6;" horiz-adv-x="555" 
d="M133 989v758h289v-758h-289zM422 455v-758h-289v758h289z" />
    <glyph glyph-name="section" unicode="&#xa7;" horiz-adv-x="1290" 
d="M133 725q0 65 48 121.5t151 77.5q-127 52 -172 106.5t-45 132.5q0 145 126.5 223t356.5 78q132 0 234 -30.5t164.5 -84t94 -123t31.5 -151.5h-391q0 44 -36.5 84.5t-100.5 40.5q-88 0 -88 -43q0 -16 12 -28.5t41 -24t56.5 -20t80 -23.5t90.5 -27q56 -18 85 -28.5
t75.5 -29t71 -33.5t55.5 -39t46.5 -49t26.5 -59t11 -73q0 -65 -48 -121.5t-151 -77.5q128 -52 173 -106.5t45 -132.5q0 -145 -127 -223t-357 -78q-132 0 -234 30.5t-164.5 84t-94 123t-31.5 151.5h391q0 -43 36.5 -83t100.5 -40q88 0 88 41q0 17 -12 29.5t-41 24.5t-56 20
t-80 23.5t-91 27.5q-56 18 -85 28.5t-75.5 29t-71 33.5t-55.5 38.5t-46.5 48.5t-26.5 58.5t-11 72.5zM498 764q0 -52 131 -107q54 -25 109 -22t55 47q0 29 -26.5 47.5t-91.5 47.5q-3 1 -5 2l-5 2.5t-6 2.5q-37 18 -72.5 25t-62 -3.5t-26.5 -41.5z" />
    <glyph glyph-name="dieresis" unicode="&#xa8;" horiz-adv-x="1296" 
d="M330 1128q-199 0 -199 168q0 84 52 126t147 42q96 0 151.5 -42t55.5 -126q0 -86 -55 -127t-152 -41zM858 1128q-201 0 -201 168q0 84 52.5 126t148.5 42t150.5 -42t54.5 -126q0 -86 -54 -127t-151 -41z" />
    <glyph glyph-name="copyright" unicode="&#xa9;" horiz-adv-x="2392" 
d="M1196 -487q-195 0 -365 54t-296.5 151t-218 229t-137.5 292t-46 336q0 221 73.5 414.5t208 337.5t336.5 227.5t445 83.5t445 -83.5t336.5 -227.5t208 -337.5t73.5 -414.5q0 -176 -46 -336t-137.5 -292t-218 -229t-296.5 -151t-365 -54zM1196 -250q151 0 283.5 43
t231 119.5t169.5 179.5t107 226t36 257q0 168 -57.5 317.5t-161.5 262.5t-262 179.5t-346 66.5t-346 -66.5t-262 -179.5t-161.5 -262.5t-57.5 -317.5q0 -134 36 -257t107 -226t169.5 -179.5t231 -119.5t283.5 -43zM616 578q0 134 44.5 238t124 169.5t184.5 99t231 33.5
q160 0 290.5 -54.5t211.5 -162t86 -250.5h-393q-5 45 -57 84t-138 39q-80 0 -136 -49.5t-56 -146.5q0 -98 56 -148.5t136 -50.5q86 0 138 39t57 84h393q-5 -143 -86 -250.5t-211.5 -162t-290.5 -54.5q-126 0 -231 34t-184.5 99.5t-124 170.5t-44.5 239z" />
    <glyph glyph-name="guillemotleft" unicode="&#xab;" horiz-adv-x="1853" 
d="M1028 14l-211 -192l-684 686l684 684l211 -193l-487 -491zM1720 14l-211 -192l-684 686l684 684l211 -193l-487 -491z" />
    <glyph glyph-name="logicalnot" unicode="&#xac;" horiz-adv-x="1423" 
d="M1290 895v-578h-291v287h-866v291h1157z" />
    <glyph glyph-name="registered" unicode="&#xae;" horiz-adv-x="1564" 
d="M782 401q-151 0 -275 51t-205 139.5t-125 206.5t-44 253t44 252.5t125 206t205 139.5t275 51t275.5 -51t205.5 -139.5t125 -206t44 -252.5t-44 -253t-125 -206.5t-205.5 -139.5t-275.5 -51zM782 575q113 0 204 38t149.5 104t90 151.5t31.5 182.5t-31.5 182.5t-90 151
t-149.5 103.5t-204 38t-204 -38t-149.5 -103.5t-90 -151t-31.5 -182.5t31.5 -182.5t90 -151.5t149.5 -104t204 -38zM498 752v610h274q52 0 100 -7t100 -24.5t83.5 -55t31.5 -91.5q0 -34 -12 -59t-29 -40t-44 -24.5t-49.5 -13.5t-53.5 -7v-45h137q51 0 51 -51v-192h-176v159
h-237v-159h-176zM674 1090h96q94 0 116 9q25 11 25 38q0 17 -8 27t-29 14t-38.5 5t-55.5 1h-10h-96v-94z" />
    <glyph glyph-name="macron" unicode="&#xaf;" horiz-adv-x="1232" 
d="M133 1505h969v-286l-969 -5v291z" />
    <glyph glyph-name="degree" unicode="&#xb0;" horiz-adv-x="1255" 
d="M629 535q-145 0 -259.5 67.5t-175.5 180t-61 247.5q0 101 36 191.5t100 158t157.5 107t202.5 39.5q145 0 259 -68t175 -180.5t61 -247.5t-61 -247.5t-175 -180t-259 -67.5zM629 825q89 0 147 60t58 145t-58 145t-147 60q-90 0 -148.5 -60t-58.5 -145t58.5 -145t148.5 -60
z" />
    <glyph glyph-name="plusminus" unicode="&#xb1;" horiz-adv-x="1423" 
d="M856 963h434v-291h-434v-285h-291v285h-432v291h432v280h291v-280zM133 -23v293h1157v-293h-1157z" />
    <glyph glyph-name="acute" unicode="&#xb4;" horiz-adv-x="1196" 
d="M133 1393l866 182l64 -275l-866 -182z" />
    <glyph glyph-name="paragraph" unicode="&#xb6;" horiz-adv-x="1595" 
d="M760 1747h289v-2050h-289v1003q-143 0 -252.5 26.5t-179.5 72t-114.5 113t-62.5 143t-18 168.5t18 168.5t62.5 143t114.5 113.5t179.5 72.5t252.5 26.5zM1174 1747h290v-2050h-290v2050z" />
    <glyph glyph-name="periodcentered" unicode="&#xb7;" horiz-adv-x="759" 
d="M377 270q-115 0 -182.5 69t-67.5 171q0 100 68 169t182 69q113 0 184.5 -70t71.5 -168q0 -101 -71.5 -170.5t-184.5 -69.5z" />
    <glyph glyph-name="cedilla" unicode="&#xb8;" horiz-adv-x="892" 
d="M567 -82q195 0 195 -131q0 -47 -19.5 -83.5t-50.5 -61t-81.5 -42.5t-100 -27.5t-119.5 -15t-125.5 -7t-132.5 -1.5v211q46 0 123 -1q127 -2 171 4t44 34q0 14 -13 23.5t-34 9.5q-52 0 -166 -33l-119 80l41 123h287l-111 -125q99 43 211 43z" />
    <glyph glyph-name="guillemotright" unicode="&#xbb;" horiz-adv-x="1853" 
d="M133 14l488 494l-488 491l211 193l684 -684l-684 -686zM825 14l488 494l-488 491l211 193l684 -684l-684 -686z" />
    <glyph glyph-name="onequarter" unicode="&#xbc;" horiz-adv-x="2621" 
d="M1452 1667l272 -108l-718 -1782l-273 108zM49 1257q54 51 75.5 73.5t42.5 63.5t28.5 83t19.5 131h533v-1014h-287v749l51 168h-72q-23 -418 -266 -518zM1694 102v598q332 36 379 314h286q-8 -80 -33 -155t-74 -149t-118 -131.5t-171.5 -100.5t-227.5 -60v-74l172 51h239
v140h287v-140h139v-293h-139v-102h-287v102h-452z" />
    <glyph glyph-name="onehalf" unicode="&#xbd;" horiz-adv-x="2547" 
d="M1452 1667l272 -108l-718 -1782l-273 108zM49 1257q54 51 75.5 73.5t42.5 63.5t28.5 83t19.5 131h533v-1014h-287v749l51 168h-72q-23 -418 -266 -518zM1640 598q0 62 15.5 122t50.5 117.5t86.5 100.5t130.5 69.5t176 26.5q89 0 159 -21.5t114 -56t73 -81.5t40.5 -94.5
t11.5 -98.5q0 -63 -18.5 -115t-51 -90.5t-83 -69.5t-106.5 -52t-131.5 -37t-148 -26t-164.5 -18v-73l172 37h539v-238h-805v436q9 1 52 5.5t84 10t97.5 16t102.5 28t87.5 42t65 61.5t23.5 83t-31.5 80.5t-105.5 34.5q-48 0 -78.5 -13.5t-45 -42.5t-19.5 -61t-5 -82h-287z
" />
    <glyph glyph-name="threequarters" unicode="&#xbe;" horiz-adv-x="2750" 
d="M1595 1667l273 -108l-719 -1782l-272 108zM51 983h285q0 -54 13.5 -88.5t42 -50t57.5 -20.5t75 -5q79 0 115.5 19.5t36.5 83.5q0 56 -31 71t-102 15h-99v235h99q67 0 93 14t26 64q0 47 -32 62.5t-106 15.5q-89 0 -131.5 -23t-42.5 -90h-287q0 166 121.5 258t339.5 92
q213 0 319.5 -76t106.5 -194q0 -46 -15 -80.5t-36.5 -55t-59 -35.5t-68.5 -22t-79 -14v-74q8 -2 39.5 -8t40.5 -8t36.5 -9t37 -11.5t31 -14t30 -18.5t22.5 -23.5t19.5 -30t10 -36.5t4.5 -45q0 -140 -110 -219.5t-329 -79.5q-225 0 -349 100t-124 301zM1823 102v598
q332 36 379 314h286q-8 -80 -33 -155t-74 -149t-118 -131.5t-171.5 -100.5t-227.5 -60v-74l172 51h239v140h287v-140h139v-293h-139v-102h-287v102h-452z" />
    <glyph glyph-name="questiondown" unicode="&#xbf;" horiz-adv-x="1159" 
d="M580 1061q115 0 182 -69t67 -173q0 -99 -67.5 -167t-181.5 -68q-113 0 -184.5 68.5t-71.5 166.5q0 102 71.5 172t184.5 70zM1067 -92q0 -84 -28 -156t-85.5 -131t-159 -93t-237.5 -34q-100 0 -178.5 18t-127.5 47.5t-81 69.5t-44.5 80t-12.5 84q0 362 749 424v84
l-182 -70h-481v240h759v-471q-263 -2 -412 -47.5t-149 -132.5q0 -86 166 -86q118 0 167.5 44t49.5 130h287z" />
    <glyph glyph-name="Agrave" unicode="&#xc0;" horiz-adv-x="1662" 
d="M1323 1796l-63 -274l-867 182l64 274zM1235 0l-111 422h-585l-111 -422h-397l395 1444h809l397 -1444h-397zM629 766h403l-153 582h-97z" />
    <glyph glyph-name="Aacute" unicode="&#xc1;" horiz-adv-x="1662" 
d="M1270 1704l-867 -182l-63 274l866 182zM1235 0l-111 422h-585l-111 -422h-397l395 1444h809l397 -1444h-397zM629 766h403l-153 582h-97z" />
    <glyph glyph-name="Acircumflex" unicode="&#xc2;" horiz-adv-x="1662" 
d="M831 1686l-278 -183l-207 191l485 327l488 -327l-207 -191zM1235 0l-111 422h-585l-111 -422h-397l395 1444h809l397 -1444h-397zM629 766h403l-153 582h-97z" />
    <glyph glyph-name="Atilde" unicode="&#xc3;" horiz-adv-x="1662" 
d="M672 1780q-38 0 -55 -28t-17 -114h-289q0 195 89 314t247 119q55 0 102.5 -16.5t80.5 -40.5t60.5 -48t54 -40.5t50.5 -16.5q38 0 55 27.5t17 113.5h289q0 -195 -89 -313.5t-247 -118.5q-55 0 -102.5 16.5t-80.5 40.5t-60.5 48t-54 40.5t-50.5 16.5zM1235 0l-111 422h-585
l-111 -422h-397l395 1444h809l397 -1444h-397zM629 766h403l-153 582h-97z" />
    <glyph glyph-name="Adieresis" unicode="&#xc4;" horiz-adv-x="1662" 
d="M565 1532q-198 0 -198 168q0 84 51.5 126t146.5 42q96 0 151.5 -42t55.5 -126q0 -86 -55 -127t-152 -41zM1094 1532q-201 0 -201 168q0 84 52.5 126t148.5 42q95 0 149.5 -42t54.5 -126q0 -168 -204 -168zM1235 0l-111 422h-585l-111 -422h-397l395 1444h809l397 -1444
h-397zM629 766h403l-153 582h-97z" />
    <glyph glyph-name="Aring" unicode="&#xc5;" horiz-adv-x="1662" 
d="M831 1536q-352 0 -352 264q0 136 92 201t260 65t261.5 -65t93.5 -201q0 -135 -93.5 -199.5t-261.5 -64.5zM831 1862q-90 0 -90 -62q0 -37 23.5 -50t66.5 -13q44 0 68.5 13t24.5 50q0 62 -93 62zM1235 0l-111 422h-585l-111 -422h-397l395 1444h809l397 -1444h-397z
M629 766h403l-153 582h-97z" />
    <glyph glyph-name="AE" unicode="&#xc6;" horiz-adv-x="2344" 
d="M2273 1100h-692v-205h590v-344h-590v-207h692v-344h-1083v444h-524l-222 -444h-413l719 1444h1523v-344zM836 788h354v560h-76z" />
    <glyph glyph-name="Ccedilla" unicode="&#xc7;" horiz-adv-x="1687" 
d="M864 324q129 0 222.5 61t117.5 174h391q-29 -244 -195 -395.5t-433 -177.5l-97 -111q99 43 211 43q195 0 195 -131q0 -47 -19.5 -83.5t-50.5 -61t-81.5 -42.5t-100 -27.5t-119.5 -15t-125.5 -7t-132.5 -1.5v211q46 0 123 -1q127 -2 171 4t44 34q0 14 -13 23.5t-34 9.5
q-52 0 -166 -33l-119 80l39 117q-185 33 -321.5 136t-207.5 256t-71 337q0 157 54 293t152 235t243 156t319 57q311 0 507 -154.5t228 -422.5h-391q-24 113 -117 173t-223 60q-173 0 -277 -99t-104 -298q0 -201 104 -300t277 -99z" />
    <glyph glyph-name="Egrave" unicode="&#xc8;" horiz-adv-x="1267" 
d="M1145 1796l-64 -274l-866 182l64 274zM113 0v1444h1083v-344h-692v-205h590v-344h-590v-207h692v-344h-1083z" />
    <glyph glyph-name="Eacute" unicode="&#xc9;" horiz-adv-x="1267" 
d="M162 1796l866 182l64 -274l-867 -182zM113 0v1444h1083v-344h-692v-205h590v-344h-590v-207h692v-344h-1083z" />
    <glyph glyph-name="Ecircumflex" unicode="&#xca;" horiz-adv-x="1267" 
d="M1143 1694l-207 -191l-281 183l-278 -183l-207 191l485 327zM113 0v1444h1083v-344h-692v-205h590v-344h-590v-207h692v-344h-1083z" />
    <glyph glyph-name="Edieresis" unicode="&#xcb;" horiz-adv-x="1267" 
d="M387 1532q-199 0 -199 168q0 84 52 126t147 42q96 0 151.5 -42t55.5 -126q0 -86 -55 -127t-152 -41zM915 1532q-200 0 -200 168q0 84 52 126t148 42t150.5 -42t54.5 -126q0 -86 -54 -127t-151 -41zM113 0v1444h1083v-344h-692v-205h590v-344h-590v-207h692v-344h-1083z
" />
    <glyph glyph-name="Igrave" unicode="&#xcc;" horiz-adv-x="1234" 
d="M1108 1796l-64 -274l-866 182l64 274zM1143 1100h-330v-756h330v-344h-1051v344h330v756h-330v344h1051v-344z" />
    <glyph glyph-name="Iacute" unicode="&#xcd;" horiz-adv-x="1234" 
d="M1053 1704l-867 -182l-63 274l866 182zM1143 1100h-330v-756h330v-344h-1051v344h330v756h-330v344h1051v-344z" />
    <glyph glyph-name="Icircumflex" unicode="&#xce;" horiz-adv-x="1234" 
d="M616 1686l-278 -183l-207 191l485 327l488 -327l-207 -191zM1143 1100h-330v-756h330v-344h-1051v344h330v756h-330v344h1051v-344z" />
    <glyph glyph-name="Idieresis" unicode="&#xcf;" horiz-adv-x="1234" 
d="M350 1532q-198 0 -198 168q0 84 51.5 126t146.5 42q96 0 151.5 -42t55.5 -126q0 -86 -55 -127t-152 -41zM879 1532q-201 0 -201 168q0 84 52.5 126t148.5 42q95 0 149.5 -42t54.5 -126q0 -168 -204 -168zM1143 1100h-330v-756h330v-344h-1051v344h330v756h-330v344h1051
v-344z" />
    <glyph glyph-name="Eth" unicode="&#xd0;" horiz-adv-x="1755" 
d="M852 1444q93 0 171.5 -7t163.5 -27.5t152.5 -53.5t129.5 -88.5t103.5 -129.5t66 -179.5t24.5 -235.5t-24.5 -236t-66 -180t-103.5 -130t-129.5 -89t-152.5 -53.5t-163.5 -27.5t-171.5 -7h-563v602h-197v291h197v551h563zM852 344q46 0 74.5 0.5t67 3.5t62.5 8.5t54 14.5
t48.5 24t39 35t32.5 48t22.5 63.5t15 81t4.5 100.5t-4.5 100t-15 80t-22.5 63t-32.5 48.5t-39 35t-48.5 23.5t-54 14.5t-62.5 8.5t-67 3.5t-74.5 0.5h-170v-207h266v-291h-266v-258h170z" />
    <glyph glyph-name="Ntilde" unicode="&#xd1;" horiz-adv-x="1726" 
d="M383 1638q0 195 89 314t247 119q55 0 102.5 -16.5t80.5 -40.5t60.5 -48t54 -40.5t50.5 -16.5q38 0 55 27.5t17 113.5h288q0 -195 -88.5 -313.5t-246.5 -118.5q-67 0 -125 25.5t-91 55.5t-69 55.5t-64 25.5q-37 0 -54 -28t-17 -114h-289zM113 0v1444h768l321 -1348h96
l-75 238v1110h393v-1444h-770l-322 1348h-96l76 -238v-1110h-391z" />
    <glyph glyph-name="Ograve" unicode="&#xd2;" horiz-adv-x="1705" 
d="M1343 1796l-63 -274l-866 182l63 274zM92 723q0 157 53 293t150 235t241 156t318 57q173 0 317 -57t240.5 -156t149.5 -235t53 -293q0 -158 -53 -294t-149.5 -235.5t-240.5 -156.5t-317 -57q-174 0 -318 57t-241 156.5t-150 235.5t-53 294zM483 723q0 -192 94 -295.5
t277 -103.5q182 0 275.5 103t93.5 296q0 191 -93.5 294t-275.5 103q-183 0 -277 -103t-94 -294z" />
    <glyph glyph-name="Oacute" unicode="&#xd3;" horiz-adv-x="1705" 
d="M360 1796l867 182l63 -274l-866 -182zM92 723q0 157 53 293t150 235t241 156t318 57q173 0 317 -57t240.5 -156t149.5 -235t53 -293q0 -158 -53 -294t-149.5 -235.5t-240.5 -156.5t-317 -57q-174 0 -318 57t-241 156.5t-150 235.5t-53 294zM483 723q0 -192 94 -295.5
t277 -103.5q182 0 275.5 103t93.5 296q0 191 -93.5 294t-275.5 103q-183 0 -277 -103t-94 -294z" />
    <glyph glyph-name="Ocircumflex" unicode="&#xd4;" horiz-adv-x="1705" 
d="M1341 1694l-206 -191l-281 183l-279 -183l-206 191l485 327zM92 723q0 157 53 293t150 235t241 156t318 57q173 0 317 -57t240.5 -156t149.5 -235t53 -293q0 -158 -53 -294t-149.5 -235.5t-240.5 -156.5t-317 -57q-174 0 -318 57t-241 156.5t-150 235.5t-53 294zM483 723
q0 -192 94 -295.5t277 -103.5q182 0 275.5 103t93.5 296q0 191 -93.5 294t-275.5 103q-183 0 -277 -103t-94 -294z" />
    <glyph glyph-name="Otilde" unicode="&#xd5;" horiz-adv-x="1705" 
d="M332 1638q0 195 89 314t247 119q55 0 102.5 -16.5t80.5 -40.5t60.5 -48t54 -40.5t50.5 -16.5q38 0 54.5 27.5t16.5 113.5h289q0 -195 -89 -313.5t-247 -118.5q-55 0 -102.5 16.5t-80.5 40.5t-60.5 48t-54 40.5t-50.5 16.5q-37 0 -54 -28t-17 -114h-289zM92 723
q0 157 53 293t150 235t241 156t318 57q173 0 317 -57t240.5 -156t149.5 -235t53 -293q0 -158 -53 -294t-149.5 -235.5t-240.5 -156.5t-317 -57q-174 0 -318 57t-241 156.5t-150 235.5t-53 294zM483 723q0 -192 94 -295.5t277 -103.5q182 0 275.5 103t93.5 296
q0 191 -93.5 294t-275.5 103q-183 0 -277 -103t-94 -294z" />
    <glyph glyph-name="Odieresis" unicode="&#xd6;" horiz-adv-x="1705" 
d="M586 1532q-199 0 -199 168q0 84 52 126t147 42q96 0 151.5 -42t55.5 -126q0 -86 -55 -127t-152 -41zM1114 1532q-201 0 -201 168q0 84 52.5 126t148.5 42t150.5 -42t54.5 -126q0 -86 -54 -127t-151 -41zM92 723q0 157 53 293t150 235t241 156t318 57q173 0 317 -57
t240.5 -156t149.5 -235t53 -293q0 -158 -53 -294t-149.5 -235.5t-240.5 -156.5t-317 -57q-174 0 -318 57t-241 156.5t-150 235.5t-53 294zM483 723q0 -192 94 -295.5t277 -103.5q182 0 275.5 103t93.5 296q0 191 -93.5 294t-275.5 103q-183 0 -277 -103t-94 -294z" />
    <glyph glyph-name="multiply" unicode="&#xd7;" horiz-adv-x="1288" 
d="M1157 846l-307 -307l307 -306l-207 -206l-305 307l-307 -307l-207 206l307 306l-307 307l207 205l307 -306l305 306z" />
    <glyph glyph-name="Oslash" unicode="&#xd8;" horiz-adv-x="1705" 
d="M1333 1319q135 -100 208 -255t73 -341q0 -158 -53 -294t-149.5 -235.5t-240.5 -156.5t-317 -57q-153 0 -274 40l-99 -170l-198 117l90 158q-135 100 -208 255t-73 343q0 157 53 293t150 235t241 156t318 57q140 0 268 -39l97 168l204 -118zM483 723q0 -173 76 -274
l383 665q-40 6 -88 6q-183 0 -277 -103t-94 -294zM854 324q182 0 275.5 103t93.5 296q0 173 -76 274l-387 -665q39 -8 94 -8z" />
    <glyph glyph-name="Ugrave" unicode="&#xd9;" horiz-adv-x="1511" 
d="M1245 1796l-63 -274l-867 182l64 274zM72 537v907h391v-715q0 -167 10 -221q20 -113 105 -153q65 -31 176 -31q62 0 109 10.5t78.5 24.5t52.5 46t32 56t16 74.5t6 82t1 97.5v14v715h391v-907q0 -270 -177 -413.5t-509 -143.5q-330 0 -506 143.5t-176 413.5z" />
    <glyph glyph-name="Uacute" unicode="&#xda;" horiz-adv-x="1511" 
d="M260 1796l866 182l64 -274l-866 -182zM72 537v907h391v-715q0 -167 10 -221q20 -113 105 -153q65 -31 176 -31q62 0 109 10.5t78.5 24.5t52.5 46t32 56t16 74.5t6 82t1 97.5v14v715h391v-907q0 -270 -177 -413.5t-509 -143.5q-330 0 -506 143.5t-176 413.5z" />
    <glyph glyph-name="Ucircumflex" unicode="&#xdb;" horiz-adv-x="1511" 
d="M1241 1694l-207 -191l-280 183l-279 -183l-207 191l486 327zM72 537v907h391v-715q0 -167 10 -221q20 -113 105 -153q65 -31 176 -31q62 0 109 10.5t78.5 24.5t52.5 46t32 56t16 74.5t6 82t1 97.5v14v715h391v-907q0 -270 -177 -413.5t-509 -143.5q-330 0 -506 143.5
t-176 413.5z" />
    <glyph glyph-name="Udieresis" unicode="&#xdc;" horiz-adv-x="1511" 
d="M487 1532q-198 0 -198 168q0 84 51.5 126t146.5 42q96 0 151.5 -42t55.5 -126q0 -86 -55 -127t-152 -41zM1016 1532q-201 0 -201 168q0 84 52.5 126t148.5 42t150.5 -42t54.5 -126q0 -86 -54 -127t-151 -41zM72 537v907h391v-715q0 -167 10 -221q20 -113 105 -153
q65 -31 176 -31q62 0 109 10.5t78.5 24.5t52.5 46t32 56t16 74.5t6 82t1 97.5v14v715h391v-907q0 -270 -177 -413.5t-509 -143.5q-330 0 -506 143.5t-176 413.5z" />
    <glyph glyph-name="Yacute" unicode="&#xdd;" horiz-adv-x="1533" 
d="M272 1796l867 182l63 -274l-866 -182zM1083 1444h420l-542 -1008v-436h-392v436l-538 1008h418l268 -559v-213h96v213z" />
    <glyph glyph-name="Thorn" unicode="&#xde;" horiz-adv-x="1409" 
d="M676 1243q86 0 152.5 -4.5t138 -18t123.5 -37t101 -62.5t79.5 -93t48.5 -131t18 -174t-18 -174.5t-48.5 -131.5t-79.5 -93.5t-101 -63t-123.5 -37t-138 -18t-152.5 -4.5h-172v-201h-391v1444h391v-201h172zM702 545h38h50.5t43 2t35.5 6.5t28.5 12.5t21.5 21t15 32
t9 44.5t3 59.5q0 38 -4 66t-11.5 47t-19.5 31.5t-29 19t-38 9.5t-47 3.5t-56 -0.5h-39h-198v-354h198z" />
    <glyph glyph-name="germandbls" unicode="&#xdf;" horiz-adv-x="1482" 
d="M618 0v344l269 -18q99 -7 136.5 10.5t37.5 91.5q0 32 -20 55t-51.5 37.5t-69.5 27.5t-76.5 30t-70 39t-51.5 60t-20 89q0 52 19.5 94.5t48 69t56.5 48t47.5 42.5t19.5 41q0 33 -33 46t-121 13q-235 0 -235 -229v-891h-391v938q0 113 31.5 203t87 150t135.5 99t171.5 56.5
t200.5 17.5q139 0 246.5 -27t171 -72.5t95.5 -100t32 -115.5q0 -48 -19.5 -89.5t-47 -71t-55 -58t-47 -64t-19.5 -75.5q0 -36 19.5 -60.5t51 -39.5t69.5 -28.5t76 -34t69.5 -49.5t51 -81t19.5 -123q0 -107 -41 -188t-112 -127.5t-162 -66.5t-197 -13z" />
    <glyph glyph-name="agrave" unicode="&#xe0;" horiz-adv-x="1361" 
d="M1147 1393l-64 -275l-866 182l64 275zM72 283q0 96 40 159.5t138.5 106.5t263.5 59l295 33q2 53 -38.5 77.5t-135.5 24.5q-87 0 -129.5 -29.5t-42.5 -74.5h-365q0 103 43 185t117.5 133t170.5 77.5t206 26.5q89 0 168.5 -14.5t154 -50t127.5 -89.5t85 -138t32 -191v-234
h150v-344h-250q-80 0 -125 43.5t-45 124.5l61 129h-94q-15 -70 -42 -123t-75 -99t-128 -70.5t-189 -24.5q-96 0 -169.5 22t-114.5 54t-67 75t-34 79t-8 73zM455 350q0 -53 114 -53q100 0 170 43t70 115l-221 -37q-89 -15 -109 -26q-23 -15 -24 -42z" />
    <glyph glyph-name="aacute" unicode="&#xe1;" horiz-adv-x="1361" 
d="M162 1393l866 182l64 -275l-867 -182zM72 283q0 96 40 159.5t138.5 106.5t263.5 59l295 33q2 53 -38.5 77.5t-135.5 24.5q-87 0 -129.5 -29.5t-42.5 -74.5h-365q0 103 43 185t117.5 133t170.5 77.5t206 26.5q89 0 168.5 -14.5t154 -50t127.5 -89.5t85 -138t32 -191v-234
h150v-344h-250q-80 0 -125 43.5t-45 124.5l61 129h-94q-15 -70 -42 -123t-75 -99t-128 -70.5t-189 -24.5q-96 0 -169.5 22t-114.5 54t-67 75t-34 79t-8 73zM455 350q0 -53 114 -53q100 0 170 43t70 115l-221 -37q-89 -15 -109 -26q-23 -15 -24 -42z" />
    <glyph glyph-name="acircumflex" unicode="&#xe2;" horiz-adv-x="1361" 
d="M1143 1290l-207 -190l-281 182l-278 -182l-207 190l485 328zM72 283q0 96 40 159.5t138.5 106.5t263.5 59l295 33q2 53 -38.5 77.5t-135.5 24.5q-87 0 -129.5 -29.5t-42.5 -74.5h-365q0 103 43 185t117.5 133t170.5 77.5t206 26.5q89 0 168.5 -14.5t154 -50t127.5 -89.5
t85 -138t32 -191v-234h150v-344h-250q-80 0 -125 43.5t-45 124.5l61 129h-94q-15 -70 -42 -123t-75 -99t-128 -70.5t-189 -24.5q-96 0 -169.5 22t-114.5 54t-67 75t-34 79t-8 73zM455 350q0 -53 114 -53q100 0 170 43t70 115l-221 -37q-89 -15 -109 -26q-23 -15 -24 -42z
" />
    <glyph glyph-name="atilde" unicode="&#xe3;" horiz-adv-x="1361" 
d="M133 1235q0 195 89 313.5t247 118.5q55 0 102.5 -16.5t80.5 -40.5t60.5 -48t54 -40.5t50.5 -16.5q38 0 55 28t17 114h289q0 -195 -89 -314t-247 -119q-55 0 -102.5 16.5t-80.5 40.5t-60.5 48t-54 40.5t-50.5 16.5q-38 0 -55 -27.5t-17 -113.5h-289zM72 283q0 96 40 159.5
t138.5 106.5t263.5 59l295 33q2 53 -38.5 77.5t-135.5 24.5q-87 0 -129.5 -29.5t-42.5 -74.5h-365q0 103 43 185t117.5 133t170.5 77.5t206 26.5q89 0 168.5 -14.5t154 -50t127.5 -89.5t85 -138t32 -191v-234h150v-344h-250q-80 0 -125 43.5t-45 124.5l61 129h-94
q-15 -70 -42 -123t-75 -99t-128 -70.5t-189 -24.5q-96 0 -169.5 22t-114.5 54t-67 75t-34 79t-8 73zM455 350q0 -53 114 -53q100 0 170 43t70 115l-221 -37q-89 -15 -109 -26q-23 -15 -24 -42z" />
    <glyph glyph-name="adieresis" unicode="&#xe4;" horiz-adv-x="1361" 
d="M389 1128q-199 0 -199 168q0 84 52 126t147 42q96 0 151.5 -42t55.5 -126q0 -86 -55 -127t-152 -41zM918 1128q-201 0 -201 168q0 84 52.5 126t148.5 42q95 0 149.5 -42t54.5 -126q0 -168 -204 -168zM72 283q0 96 40 159.5t138.5 106.5t263.5 59l295 33q2 53 -38.5 77.5
t-135.5 24.5q-87 0 -129.5 -29.5t-42.5 -74.5h-365q0 103 43 185t117.5 133t170.5 77.5t206 26.5q89 0 168.5 -14.5t154 -50t127.5 -89.5t85 -138t32 -191v-234h150v-344h-250q-80 0 -125 43.5t-45 124.5l61 129h-94q-15 -70 -42 -123t-75 -99t-128 -70.5t-189 -24.5
q-96 0 -169.5 22t-114.5 54t-67 75t-34 79t-8 73zM455 350q0 -53 114 -53q100 0 170 43t70 115l-221 -37q-89 -15 -109 -26q-23 -15 -24 -42z" />
    <glyph glyph-name="aring" unicode="&#xe5;" horiz-adv-x="1361" 
d="M653 1133q-352 0 -352 264q0 136 92 201t260 65t261.5 -65t93.5 -201q0 -135 -93.5 -199.5t-261.5 -64.5zM653 1333q44 0 68 13.5t24 50.5q0 61 -92 61q-42 0 -66 -13t-24 -48q0 -64 90 -64zM72 283q0 96 40 159.5t138.5 106.5t263.5 59l295 33q2 53 -38.5 77.5
t-135.5 24.5q-87 0 -129.5 -29.5t-42.5 -74.5h-365q0 103 43 185t117.5 133t170.5 77.5t206 26.5q89 0 168.5 -14.5t154 -50t127.5 -89.5t85 -138t32 -191v-234h150v-344h-250q-80 0 -125 43.5t-45 124.5l61 129h-94q-15 -70 -42 -123t-75 -99t-128 -70.5t-189 -24.5
q-96 0 -169.5 22t-114.5 54t-67 75t-34 79t-8 73zM455 350q0 -53 114 -53q100 0 170 43t70 115l-221 -37q-89 -15 -109 -26q-23 -15 -24 -42z" />
    <glyph glyph-name="ae" unicode="&#xe6;" horiz-adv-x="2185" 
d="M1722 369h394q-4 -46 -28.5 -97t-73.5 -103.5t-114 -94t-159 -68t-201 -26.5q-211 0 -352.5 86t-204.5 231h-94q-11 -54 -31 -99.5t-54.5 -86.5t-80.5 -69.5t-112 -45t-146 -16.5q-96 0 -169.5 22t-114.5 54t-67 75t-34 79t-8 73q0 139 97.5 210t344.5 107l295 49
q2 50 -38 72t-136 22q-87 0 -129.5 -29.5t-42.5 -74.5h-365q0 103 43 185t117.5 133t170.5 77.5t206 26.5q295 0 416 -191q76 92 192 141.5t260 49.5q253 0 413.5 -141t160.5 -365v-100h-777q-3 -80 59.5 -127t180.5 -47q70 0 121.5 25.5t60.5 62.5zM1503 743
q-61 0 -103 -9.5t-63 -27.5t-29 -38t-8 -47h412q0 56 -46 89t-163 33zM565 307q102 0 173 38.5t71 109.5l-221 -37q-87 -14 -105 -26q-20 -14 -20 -40q0 -45 102 -45z" />
    <glyph glyph-name="ccedilla" unicode="&#xe7;" horiz-adv-x="1312" 
d="M655 324q86 0 138 38t57 82h393q-6 -182 -133 -302t-324 -152l-102 -115q99 43 211 43q195 0 195 -131q0 -47 -19.5 -83.5t-50.5 -61t-81.5 -42.5t-100 -27.5t-119.5 -15t-125.5 -7t-132.5 -1.5v211q46 0 123 -1q127 -2 171 4t44 34q0 14 -13 23.5t-34 9.5
q-52 0 -166 -33l-119 80l39 115q-199 37 -316.5 171.5t-117.5 358.5q0 134 44.5 238t123.5 169t184 98.5t231 33.5q160 0 290.5 -54.5t211.5 -161.5t86 -249h-393q-5 44 -57 82.5t-138 38.5q-81 0 -136.5 -49.5t-55.5 -145.5q0 -98 55.5 -148t136.5 -50z" />
    <glyph glyph-name="egrave" unicode="&#xe8;" horiz-adv-x="1320" 
d="M1151 1393l-64 -275l-866 182l64 275zM72 532q0 241 156.5 385t410.5 144q252 0 412.5 -141t160.5 -365v-100h-776q-3 -80 59 -127t181 -47q68 0 119.5 25.5t62.5 62.5h391q-4 -46 -28 -97t-72 -103.5t-113 -94t-159 -68t-201 -26.5q-150 0 -267.5 44.5t-190 122
t-109.5 175.5t-37 210zM436 621h412q0 56 -46 89t-163 33q-61 0 -103 -9.5t-63 -27.5t-29 -38t-8 -47z" />
    <glyph glyph-name="eacute" unicode="&#xe9;" horiz-adv-x="1320" 
d="M168 1393l866 182l64 -275l-867 -182zM72 532q0 241 156.5 385t410.5 144q252 0 412.5 -141t160.5 -365v-100h-776q-3 -80 59 -127t181 -47q68 0 119.5 25.5t62.5 62.5h391q-4 -46 -28 -97t-72 -103.5t-113 -94t-159 -68t-201 -26.5q-150 0 -267.5 44.5t-190 122
t-109.5 175.5t-37 210zM436 621h412q0 56 -46 89t-163 33q-61 0 -103 -9.5t-63 -27.5t-29 -38t-8 -47z" />
    <glyph glyph-name="ecircumflex" unicode="&#xea;" horiz-adv-x="1320" 
d="M1149 1290l-207 -190l-280 182l-279 -182l-207 190l486 328zM72 532q0 241 156.5 385t410.5 144q252 0 412.5 -141t160.5 -365v-100h-776q-3 -80 59 -127t181 -47q68 0 119.5 25.5t62.5 62.5h391q-4 -46 -28 -97t-72 -103.5t-113 -94t-159 -68t-201 -26.5
q-150 0 -267.5 44.5t-190 122t-109.5 175.5t-37 210zM436 621h412q0 56 -46 89t-163 33q-61 0 -103 -9.5t-63 -27.5t-29 -38t-8 -47z" />
    <glyph glyph-name="edieresis" unicode="&#xeb;" horiz-adv-x="1320" 
d="M393 1128q-198 0 -198 168q0 84 51.5 126t146.5 42q96 0 151.5 -42t55.5 -126q0 -86 -55 -127t-152 -41zM922 1128q-201 0 -201 168q0 84 52.5 126t148.5 42q95 0 149.5 -42t54.5 -126q0 -168 -204 -168zM72 532q0 241 156.5 385t410.5 144q252 0 412.5 -141t160.5 -365
v-100h-776q-3 -80 59 -127t181 -47q68 0 119.5 25.5t62.5 62.5h391q-4 -46 -28 -97t-72 -103.5t-113 -94t-159 -68t-201 -26.5q-150 0 -267.5 44.5t-190 122t-109.5 175.5t-37 210zM436 621h412q0 56 -46 89t-163 33q-61 0 -103 -9.5t-63 -27.5t-29 -38t-8 -47z" />
    <glyph glyph-name="igrave" unicode="&#xec;" horiz-adv-x="1071" 
d="M985 1393l-63 -275l-867 182l64 275zM72 0v344h293v363l-267 -11v344l453 21q91 5 142.5 -43.5t51.5 -140.5v-533h295v-344h-968z" />
    <glyph glyph-name="iacute" unicode="&#xed;" horiz-adv-x="1122" 
d="M84 1393l866 182l64 -275l-867 -182zM123 0v344h295v363l-268 -11v344l452 21q93 5 145 -43.5t52 -140.5v-533h293v-344h-969z" />
    <glyph glyph-name="icircumflex" unicode="&#xee;" horiz-adv-x="1114" 
d="M1028 1290l-207 -190l-278 182l-281 -182l-205 190l486 328zM115 0v344h295v363l-269 -11v344l453 21q93 5 145 -43.5t52 -140.5v-533h292v-344h-968z" />
    <glyph glyph-name="idieresis" unicode="&#xef;" horiz-adv-x="1122" 
d="M256 1128q-201 0 -201 168q0 84 53 126t148 42q96 0 150.5 -42t54.5 -126q0 -86 -54 -127t-151 -41zM782 1128q-200 0 -200 168q0 84 52.5 126t147.5 42q96 0 150.5 -42t54.5 -126q0 -86 -54 -127t-151 -41zM123 0v344h295v363l-268 -11v344l452 21q93 5 145 -43.5
t52 -140.5v-533h293v-344h-969z" />
    <glyph glyph-name="eth" unicode="&#xf0;" horiz-adv-x="1480" 
d="M1110 1362q299 -242 299 -709q0 -316 -180 -494.5t-494 -178.5q-299 0 -481 150t-182 386q0 113 40 211.5t113 173t185.5 117.5t248.5 43q123 0 218.5 -39.5t156 -111t93.5 -164.5t40 -207h95l-74 215q-18 159 -105.5 260.5t-248.5 161.5l-144 -99l-264 101l109 73
l-177 25v344q318 -32 533 -127l125 86l264 -100zM745 324q142 0 208.5 45.5t66.5 146.5q0 116 -62.5 158.5t-212.5 42.5q-151 0 -216.5 -42.5t-65.5 -158.5q0 -91 71 -141.5t211 -50.5z" />
    <glyph glyph-name="ntilde" unicode="&#xf1;" horiz-adv-x="1447" 
d="M240 1235q0 195 88.5 313.5t246.5 118.5q67 0 125 -25.5t91 -55.5t69 -55.5t64 -25.5q37 0 54 28t17 114h289q0 -195 -89 -314t-247 -119q-55 0 -102.5 16.5t-80.5 40.5t-60.5 48t-54 40.5t-50.5 16.5q-38 0 -55 -27.5t-17 -113.5h-288zM770 717q-51 0 -89.5 -8.5
t-73 -32.5t-56.5 -63.5t-34.5 -103.5t-12.5 -151v-358h-391v1040h391v-104l-76 -211h96q33 148 132.5 242t256.5 94q209 0 327 -137.5t118 -388.5v-535h-393v471q0 137 -41.5 191.5t-153.5 54.5z" />
    <glyph glyph-name="ograve" unicode="&#xf2;" horiz-adv-x="1343" 
d="M1163 1393l-63 -275l-867 182l64 275zM72 522q0 112 31.5 203t86.5 152.5t131.5 103.5t164.5 61t188 19q124 0 230 -31t190 -94t132 -169t48 -245q0 -140 -48 -247t-132 -170t-189.5 -94t-230.5 -31q-100 0 -188 19t-164.5 61t-131.5 104t-86.5 153.5t-31.5 204.5z
M463 522q0 -102 56.5 -150t154.5 -48q95 0 151 48t56 150q0 101 -56 148t-151 47q-98 0 -154.5 -47t-56.5 -148z" />
    <glyph glyph-name="oacute" unicode="&#xf3;" horiz-adv-x="1343" 
d="M180 1393l867 182l63 -275l-866 -182zM72 522q0 112 31.5 203t86.5 152.5t131.5 103.5t164.5 61t188 19q124 0 230 -31t190 -94t132 -169t48 -245q0 -140 -48 -247t-132 -170t-189.5 -94t-230.5 -31q-100 0 -188 19t-164.5 61t-131.5 104t-86.5 153.5t-31.5 204.5z
M463 522q0 -102 56.5 -150t154.5 -48q95 0 151 48t56 150q0 101 -56 148t-151 47q-98 0 -154.5 -47t-56.5 -148z" />
    <glyph glyph-name="ocircumflex" unicode="&#xf4;" horiz-adv-x="1343" 
d="M1159 1290l-207 -190l-280 182l-279 -182l-207 190l486 328zM72 522q0 112 31.5 203t86.5 152.5t131.5 103.5t164.5 61t188 19q124 0 230 -31t190 -94t132 -169t48 -245q0 -140 -48 -247t-132 -170t-189.5 -94t-230.5 -31q-100 0 -188 19t-164.5 61t-131.5 104
t-86.5 153.5t-31.5 204.5zM463 522q0 -102 56.5 -150t154.5 -48q95 0 151 48t56 150q0 101 -56 148t-151 47q-98 0 -154.5 -47t-56.5 -148z" />
    <glyph glyph-name="otilde" unicode="&#xf5;" horiz-adv-x="1343" 
d="M152 1235q0 195 88.5 313.5t246.5 118.5q67 0 125 -25.5t91 -55.5t69 -55.5t64 -25.5q37 0 54 28t17 114h289q0 -195 -89 -314t-247 -119q-55 0 -102.5 16.5t-80.5 40.5t-60.5 48t-54 40.5t-50.5 16.5q-38 0 -55 -27.5t-17 -113.5h-288zM72 522q0 112 31.5 203
t86.5 152.5t131.5 103.5t164.5 61t188 19q124 0 230 -31t190 -94t132 -169t48 -245q0 -140 -48 -247t-132 -170t-189.5 -94t-230.5 -31q-100 0 -188 19t-164.5 61t-131.5 104t-86.5 153.5t-31.5 204.5zM463 522q0 -102 56.5 -150t154.5 -48q95 0 151 48t56 150
q0 101 -56 148t-151 47q-98 0 -154.5 -47t-56.5 -148z" />
    <glyph glyph-name="odieresis" unicode="&#xf6;" horiz-adv-x="1343" 
d="M406 1128q-199 0 -199 168q0 84 52 126t147 42q96 0 151 -42t55 -126q0 -86 -54.5 -127t-151.5 -41zM934 1128q-201 0 -201 168q0 84 52.5 126t148.5 42t150.5 -42t54.5 -126q0 -86 -54 -127t-151 -41zM72 522q0 112 31.5 203t86.5 152.5t131.5 103.5t164.5 61t188 19
q124 0 230 -31t190 -94t132 -169t48 -245q0 -140 -48 -247t-132 -170t-189.5 -94t-230.5 -31q-100 0 -188 19t-164.5 61t-131.5 104t-86.5 153.5t-31.5 204.5zM463 522q0 -102 56.5 -150t154.5 -48q95 0 151 48t56 150q0 101 -56 148t-151 47q-98 0 -154.5 -47t-56.5 -148z
" />
    <glyph glyph-name="divide" unicode="&#xf7;" horiz-adv-x="1423" 
d="M709 768q-115 0 -182.5 70t-67.5 172q0 99 68 168t182 69q112 0 183 -69.5t71 -167.5q0 -101 -70.5 -171.5t-183.5 -70.5zM133 711h1157v-291h-1157v291zM709 -137q-115 0 -182.5 69.5t-67.5 171.5q0 99 68 167.5t182 68.5q113 0 183.5 -69t70.5 -167q0 -101 -70.5 -171
t-183.5 -70z" />
    <glyph glyph-name="oslash" unicode="&#xf8;" horiz-adv-x="1343" 
d="M1040 975q234 -139 234 -451q0 -140 -48 -246.5t-132 -169.5t-190 -94.5t-230 -31.5q-102 0 -201 22l-90 -154l-156 91l76 131q-231 140 -231 452q0 112 31.5 203t86.5 153t131.5 104.5t164.5 61.5t188 19t192 -21l88 154l162 -92zM463 524q0 -71 31 -121l184 318h-4
q-98 0 -154.5 -48t-56.5 -149zM674 326q95 0 151 48t56 150q0 72 -33 123l-186 -321h12z" />
    <glyph glyph-name="ugrave" unicode="&#xf9;" horiz-adv-x="1427" 
d="M1198 1393l-63 -275l-867 182l64 275zM678 324q65 0 110.5 14.5t82.5 52.5t55 110t18 181v358h393v-1040h-393v104l76 211h-96q-31 -147 -131 -241t-258 -94q-208 0 -325.5 138t-117.5 388v534h391v-471q0 -136 42 -190.5t153 -54.5z" />
    <glyph glyph-name="uacute" unicode="&#xfa;" horiz-adv-x="1427" 
d="M213 1393l866 182l64 -275l-867 -182zM678 324q65 0 110.5 14.5t82.5 52.5t55 110t18 181v358h393v-1040h-393v104l76 211h-96q-31 -147 -131 -241t-258 -94q-208 0 -325.5 138t-117.5 388v534h391v-471q0 -136 42 -190.5t153 -54.5z" />
    <glyph glyph-name="ucircumflex" unicode="&#xfb;" horiz-adv-x="1427" 
d="M1194 1290l-207 -190l-280 182l-279 -182l-207 190l486 328zM678 324q65 0 110.5 14.5t82.5 52.5t55 110t18 181v358h393v-1040h-393v104l76 211h-96q-31 -147 -131 -241t-258 -94q-208 0 -325.5 138t-117.5 388v534h391v-471q0 -136 42 -190.5t153 -54.5z" />
    <glyph glyph-name="udieresis" unicode="&#xfc;" horiz-adv-x="1427" 
d="M440 1128q-198 0 -198 168q0 84 51.5 126t146.5 42q96 0 151.5 -42t55.5 -126q0 -86 -55 -127t-152 -41zM969 1128q-201 0 -201 168q0 84 52.5 126t148.5 42t150.5 -42t54.5 -126q0 -86 -54 -127t-151 -41zM678 324q65 0 110.5 14.5t82.5 52.5t55 110t18 181v358h393
v-1040h-393v104l76 211h-96q-31 -147 -131 -241t-258 -94q-208 0 -325.5 138t-117.5 388v534h391v-471q0 -136 42 -190.5t153 -54.5z" />
    <glyph glyph-name="yacute" unicode="&#xfd;" horiz-adv-x="1441" 
d="M1167 1300l-866 -182l-63 275l866 182zM967 1040h446l-485 -958v-334q0 -96 -50.5 -145.5t-140.5 -46.5l-551 12v344h349v170l-484 958h443l190 -481v-199h94v199z" />
    <glyph glyph-name="thorn" unicode="&#xfe;" horiz-adv-x="1435" 
d="M928 1061q88 0 161 -29t123.5 -79t85 -119t50.5 -147.5t16 -166.5q0 -111 -26 -206.5t-77.5 -171t-137 -119t-195.5 -43.5q-77 0 -139 15.5t-102.5 39t-73.5 60.5t-51.5 69.5t-37.5 77.5h-96l76 -213v-426h-391v1902h391v-493l-76 -211h96q19 44 37.5 76.5t52 69.5
t73.5 60t102 38.5t139 15.5zM733 324q126 0 183 45.5t57 150.5q0 104 -57.5 150.5t-182.5 46.5q-123 0 -176 -46t-53 -151q0 -106 53 -151t176 -45z" />
    <glyph glyph-name="ydieresis" unicode="&#xff;" horiz-adv-x="1441" 
d="M463 1128q-199 0 -199 168q0 84 52 126t147 42q96 0 151.5 -42t55.5 -126q0 -86 -55 -127t-152 -41zM991 1128q-200 0 -200 168q0 84 52 126t148 42t150.5 -42t54.5 -126q0 -86 -54 -127t-151 -41zM967 1040h446l-485 -958v-334q0 -96 -50.5 -145.5t-140.5 -46.5l-551 12
v344h349v170l-484 958h443l190 -481v-199h94v199z" />
    <glyph glyph-name="Amacron" unicode="&#x100;" horiz-adv-x="1662" 
d="M1317 1909v-287l-969 -4v291h969zM1235 0l-111 422h-585l-111 -422h-397l395 1444h809l397 -1444h-397zM629 766h403l-153 582h-97z" />
    <glyph glyph-name="amacron" unicode="&#x101;" horiz-adv-x="1361" 
d="M172 1505h969v-286l-969 -5v291zM72 283q0 96 40 159.5t138.5 106.5t263.5 59l295 33q2 53 -38.5 77.5t-135.5 24.5q-87 0 -129.5 -29.5t-42.5 -74.5h-365q0 103 43 185t117.5 133t170.5 77.5t206 26.5q89 0 168.5 -14.5t154 -50t127.5 -89.5t85 -138t32 -191v-234h150
v-344h-250q-80 0 -125 43.5t-45 124.5l61 129h-94q-15 -70 -42 -123t-75 -99t-128 -70.5t-189 -24.5q-96 0 -169.5 22t-114.5 54t-67 75t-34 79t-8 73zM455 350q0 -53 114 -53q100 0 170 43t70 115l-221 -37q-89 -15 -109 -26q-23 -15 -24 -42z" />
    <glyph glyph-name="Abreve" unicode="&#x102;" horiz-adv-x="1662" 
d="M831 1534q-89 0 -158.5 25.5t-113.5 66.5t-72 98.5t-39.5 116t-11.5 123.5h289q0 -97 27.5 -131.5t78.5 -34.5q52 0 80.5 34.5t28.5 131.5h289q0 -65 -11.5 -124t-40.5 -116t-73 -98t-114 -66.5t-159 -25.5zM1235 0l-111 422h-585l-111 -422h-397l395 1444h809l397 -1444
h-397zM629 766h403l-153 582h-97z" />
    <glyph glyph-name="abreve" unicode="&#x103;" horiz-adv-x="1361" 
d="M1053 1561q0 -65 -11.5 -124t-40.5 -116t-73 -98.5t-114 -67t-159 -25.5t-158.5 25.5t-113.5 67t-72 98.5t-39.5 116t-11.5 124h289q0 -97 27.5 -131.5t78.5 -34.5q52 0 80.5 34.5t28.5 131.5h289zM72 283q0 96 40 159.5t138.5 106.5t263.5 59l295 33q2 53 -38.5 77.5
t-135.5 24.5q-87 0 -129.5 -29.5t-42.5 -74.5h-365q0 103 43 185t117.5 133t170.5 77.5t206 26.5q89 0 168.5 -14.5t154 -50t127.5 -89.5t85 -138t32 -191v-234h150v-344h-250q-80 0 -125 43.5t-45 124.5l61 129h-94q-15 -70 -42 -123t-75 -99t-128 -70.5t-189 -24.5
q-96 0 -169.5 22t-114.5 54t-67 75t-34 79t-8 73zM455 350q0 -53 114 -53q100 0 170 43t70 115l-221 -37q-89 -15 -109 -26q-23 -15 -24 -42z" />
    <glyph glyph-name="Aogonek" unicode="&#x104;" horiz-adv-x="1662" 
d="M1579 -123l236 25v-291l-367 -29q-48 -3 -91 10t-72.5 38t-46.5 56.5t-15 68t24 69.5l121 176h-133l-111 422h-585l-111 -422h-397l395 1444h809l397 -1442v-2zM629 766h403l-153 582h-97z" />
    <glyph glyph-name="aogonek" unicode="&#x105;" horiz-adv-x="1361" 
d="M1298 -123l236 25v-291l-367 -29q-48 -3 -91 10t-72.5 38t-46 56.5t-14.5 68t24 69.5l120 176q-74 5 -114.5 48t-40.5 120l61 129h-94q-15 -70 -42 -123t-75 -99t-128 -70.5t-189 -24.5q-96 0 -169.5 22t-114.5 54t-67 75t-34 79t-8 73q0 96 40 159.5t138.5 106.5
t263.5 59l295 33q2 53 -38.5 77.5t-135.5 24.5q-87 0 -129.5 -29.5t-42.5 -74.5h-365q0 103 43 185t117.5 133t170.5 77.5t206 26.5q89 0 168.5 -14.5t154 -50t127.5 -89.5t85 -138t32 -191v-234h150v-344zM569 297q100 0 170 43t70 115l-221 -37q-89 -15 -109 -26
q-23 -15 -24 -42q0 -53 114 -53z" />
    <glyph glyph-name="Cacute" unicode="&#x106;" horiz-adv-x="1687" 
d="M360 1796l867 182l63 -274l-866 -182zM92 723q0 157 54 293t152 235t243 156t319 57q311 0 507 -154.5t228 -422.5h-391q-24 113 -117 173t-223 60q-173 0 -277 -99t-104 -298q0 -201 104 -300t277 -99q129 0 222.5 61t117.5 174h391q-32 -269 -228 -424t-507 -155
q-174 0 -319 57t-243 156.5t-152 235.5t-54 294z" />
    <glyph glyph-name="cacute" unicode="&#x107;" horiz-adv-x="1312" 
d="M162 1393l866 182l64 -275l-867 -182zM72 522q0 134 44.5 238t123.5 169t184 98.5t231 33.5q160 0 290.5 -54.5t211.5 -161.5t86 -249h-393q-5 44 -57 82.5t-138 38.5q-81 0 -136.5 -49.5t-55.5 -145.5q0 -98 55.5 -148t136.5 -50q86 0 138 38t57 82h393
q-5 -142 -86 -248.5t-211.5 -161t-290.5 -54.5q-126 0 -231 33.5t-184 99t-123.5 170.5t-44.5 239z" />
    <glyph glyph-name="Cdotaccent" unicode="&#x10a;" horiz-adv-x="1687" 
d="M848 1532q-199 0 -199 168q0 84 52 126t147 42q96 0 151.5 -42t55.5 -126q0 -86 -55 -127t-152 -41zM92 723q0 157 54 293t152 235t243 156t319 57q311 0 507 -154.5t228 -422.5h-391q-24 113 -117 173t-223 60q-173 0 -277 -99t-104 -298q0 -201 104 -300t277 -99
q129 0 222.5 61t117.5 174h391q-32 -269 -228 -424t-507 -155q-174 0 -319 57t-243 156.5t-152 235.5t-54 294z" />
    <glyph glyph-name="cdotaccent" unicode="&#x10b;" horiz-adv-x="1312" 
d="M649 1128q-198 0 -198 168q0 84 51.5 126t146.5 42q96 0 151.5 -42t55.5 -126q0 -86 -55 -127t-152 -41zM72 522q0 134 44.5 238t123.5 169t184 98.5t231 33.5q160 0 290.5 -54.5t211.5 -161.5t86 -249h-393q-5 44 -57 82.5t-138 38.5q-81 0 -136.5 -49.5t-55.5 -145.5
q0 -98 55.5 -148t136.5 -50q86 0 138 38t57 82h393q-5 -142 -86 -248.5t-211.5 -161t-290.5 -54.5q-126 0 -231 33.5t-184 99t-123.5 170.5t-44.5 239z" />
    <glyph glyph-name="Ccaron" unicode="&#x10c;" horiz-adv-x="1687" 
d="M1341 1847l-487 -327l-485 327l206 191l279 -183l281 183zM92 723q0 157 54 293t152 235t243 156t319 57q311 0 507 -154.5t228 -422.5h-391q-24 113 -117 173t-223 60q-173 0 -277 -99t-104 -298q0 -201 104 -300t277 -99q129 0 222.5 61t117.5 174h391
q-32 -269 -228 -424t-507 -155q-174 0 -319 57t-243 156.5t-152 235.5t-54 294z" />
    <glyph glyph-name="ccaron" unicode="&#x10d;" horiz-adv-x="1312" 
d="M1141 1444l-488 -328l-485 328l207 190l278 -182l281 182zM72 522q0 134 44.5 238t123.5 169t184 98.5t231 33.5q160 0 290.5 -54.5t211.5 -161.5t86 -249h-393q-5 44 -57 82.5t-138 38.5q-81 0 -136.5 -49.5t-55.5 -145.5q0 -98 55.5 -148t136.5 -50q86 0 138 38t57 82
h393q-5 -142 -86 -248.5t-211.5 -161t-290.5 -54.5q-126 0 -231 33.5t-184 99t-123.5 170.5t-44.5 239z" />
    <glyph glyph-name="Dcaron" unicode="&#x10e;" horiz-adv-x="1576" 
d="M1141 1847l-488 -327l-485 327l207 191l278 -183l281 183zM674 1444q93 0 171.5 -7t163.5 -27.5t153 -53.5t130.5 -88.5t104 -129.5t66 -179.5t24.5 -235.5t-24.5 -236t-66 -180t-104 -130t-130.5 -89t-153 -53.5t-163.5 -27.5t-171.5 -7h-561v1444h561zM674 344
q46 0 74.5 0.5t67 3.5t62.5 8.5t54 14.5t48.5 24t39 35t32.5 48t22.5 63.5t15 81t4.5 100.5t-4.5 100t-15 80t-22.5 63t-32.5 48.5t-39 35t-48.5 23.5t-54 14.5t-62.5 8.5t-67 3.5t-74.5 0.5h-170v-756h170z" />
    <glyph glyph-name="dcaron" unicode="&#x10f;" horiz-adv-x="1861" 
d="M1528 1614h287v-709h-287v709zM1323 0h-391v29l76 213h-97q-19 -45 -37.5 -77.5t-51.5 -69.5t-73 -60.5t-101.5 -39t-137.5 -15.5q-111 0 -196.5 43.5t-137.5 119.5t-78 172t-26 207q0 110 26 205.5t78 171t137.5 119t196.5 43.5q76 0 137.5 -15.5t101.5 -38.5t73 -60
t51.5 -69.5t37.5 -76.5h97l-76 211v493h391v-1505zM932 522q0 103 -53.5 149t-176.5 46q-125 0 -182 -46.5t-57 -148.5q0 -103 57.5 -150.5t181.5 -47.5q123 0 176.5 46.5t53.5 151.5z" />
    <glyph glyph-name="Dcroat" unicode="&#x110;" horiz-adv-x="1755" 
d="M852 1444q93 0 171.5 -7t163.5 -27.5t152.5 -53.5t129.5 -88.5t103.5 -129.5t66 -179.5t24.5 -235.5t-24.5 -236t-66 -180t-103.5 -130t-129.5 -89t-152.5 -53.5t-163.5 -27.5t-171.5 -7h-563v602h-197v291h197v551h563zM852 344q46 0 74.5 0.5t67 3.5t62.5 8.5t54 14.5
t48.5 24t39 35t32.5 48t22.5 63.5t15 81t4.5 100.5t-4.5 100t-15 80t-22.5 63t-32.5 48.5t-39 35t-48.5 23.5t-54 14.5t-62.5 8.5t-67 3.5t-74.5 0.5h-170v-207h266v-291h-266v-258h170z" />
    <glyph glyph-name="dcroat" unicode="&#x111;" horiz-adv-x="1497" 
d="M1446 1415v-291h-123v-1124h-391v29l76 213h-97q-19 -45 -37.5 -77.5t-51.5 -69.5t-73 -60.5t-101.5 -39t-137.5 -15.5q-111 0 -196.5 43.5t-137.5 119.5t-78 172t-26 207q0 110 26 205.5t78 171t137.5 119t196.5 43.5q76 0 137.5 -15.5t101.5 -38.5t73 -60t51.5 -69.5
t37.5 -76.5h97l-76 211v112h-289v291h289v90h391v-90h123zM702 324q123 0 176.5 46.5t53.5 151.5q0 103 -53.5 149t-176.5 46q-125 0 -182 -46.5t-57 -148.5q0 -103 57.5 -150.5t181.5 -47.5z" />
    <glyph glyph-name="Emacron" unicode="&#x112;" horiz-adv-x="1267" 
d="M172 1909h969v-287l-969 -4v291zM113 0v1444h1083v-344h-692v-205h590v-344h-590v-207h692v-344h-1083z" />
    <glyph glyph-name="emacron" unicode="&#x113;" horiz-adv-x="1320" 
d="M178 1505h969v-286l-969 -5v291zM72 532q0 241 156.5 385t410.5 144q252 0 412.5 -141t160.5 -365v-100h-776q-3 -80 59 -127t181 -47q68 0 119.5 25.5t62.5 62.5h391q-4 -46 -28 -97t-72 -103.5t-113 -94t-159 -68t-201 -26.5q-150 0 -267.5 44.5t-190 122t-109.5 175.5
t-37 210zM436 621h412q0 56 -46 89t-163 33q-61 0 -103 -9.5t-63 -27.5t-29 -38t-8 -47z" />
    <glyph glyph-name="Edotaccent" unicode="&#x116;" horiz-adv-x="1267" 
d="M649 1532q-198 0 -198 168q0 84 51.5 126t146.5 42q96 0 151.5 -42t55.5 -126q0 -86 -55 -127t-152 -41zM113 0v1444h1083v-344h-692v-205h590v-344h-590v-207h692v-344h-1083z" />
    <glyph glyph-name="edotaccent" unicode="&#x117;" horiz-adv-x="1320" 
d="M655 1128q-198 0 -198 168q0 84 51.5 126t146.5 42q96 0 151.5 -42t55.5 -126q0 -86 -55 -127t-152 -41zM72 532q0 241 156.5 385t410.5 144q252 0 412.5 -141t160.5 -365v-100h-776q-3 -80 59 -127t181 -47q68 0 119.5 25.5t62.5 62.5h391q-4 -46 -28 -97t-72 -103.5
t-113 -94t-159 -68t-201 -26.5q-150 0 -267.5 44.5t-190 122t-109.5 175.5t-37 210zM436 621h412q0 56 -46 89t-163 33q-61 0 -103 -9.5t-63 -27.5t-29 -38t-8 -47z" />
    <glyph glyph-name="Eogonek" unicode="&#x118;" horiz-adv-x="1267" 
d="M1196 1100h-692v-205h590v-344h-590v-207h692v-344h-203l-53 -123l236 25v-291l-367 -29q-48 -3 -91 10t-72.5 38t-46.5 56.5t-15 68t24 69.5l121 176h-616v1444h1083v-344z" />
    <glyph glyph-name="eogonek" unicode="&#x119;" horiz-adv-x="1320" 
d="M1249 369q-4 -48 -31 -101.5t-74.5 -106.5t-123.5 -96.5t-168 -64.5l-51 -123l235 25v-291l-366 -29q-48 -3 -91 10t-72.5 38t-46.5 56.5t-15 68t24 69.5l111 160q-126 14 -224.5 64t-159.5 124.5t-92.5 166t-31.5 193.5q0 241 156.5 385t410.5 144q252 0 412.5 -141
t160.5 -365v-100h-776q-3 -80 59 -127t181 -47q68 0 119.5 25.5t62.5 62.5h391zM639 743q-61 0 -103 -9.5t-63 -27.5t-29 -38t-8 -47h412q0 56 -46 89t-163 33z" />
    <glyph glyph-name="Ecaron" unicode="&#x11a;" horiz-adv-x="1267" 
d="M1143 1847l-488 -327l-485 327l207 191l278 -183l281 183zM113 0v1444h1083v-344h-692v-205h590v-344h-590v-207h692v-344h-1083z" />
    <glyph glyph-name="ecaron" unicode="&#x11b;" horiz-adv-x="1320" 
d="M1149 1444l-487 -328l-486 328l207 190l279 -182l280 182zM72 532q0 241 156.5 385t410.5 144q252 0 412.5 -141t160.5 -365v-100h-776q-3 -80 59 -127t181 -47q68 0 119.5 25.5t62.5 62.5h391q-4 -46 -28 -97t-72 -103.5t-113 -94t-159 -68t-201 -26.5
q-150 0 -267.5 44.5t-190 122t-109.5 175.5t-37 210zM436 621h412q0 56 -46 89t-163 33q-61 0 -103 -9.5t-63 -27.5t-29 -38t-8 -47z" />
    <glyph glyph-name="Gbreve" unicode="&#x11e;" horiz-adv-x="1882" 
d="M1237 1964q0 -65 -11.5 -124t-40 -116t-72.5 -98t-114 -66.5t-159 -25.5t-159 25.5t-113.5 66.5t-72 98.5t-40 116t-11.5 123.5h289q0 -97 28 -131.5t79 -34.5t79.5 34.5t28.5 131.5h289zM92 723q0 164 58 303.5t158 235t237 149t293 53.5q180 0 335.5 -67.5
t257.5 -190.5t123 -278h-391q-24 105 -101.5 148.5t-223.5 43.5q-175 0 -265 -90t-90 -307q0 -113 20 -191t61 -123.5t97 -65t134 -19.5q124 0 199.5 52.5t76.5 151.5h-266v291h772q93 0 144 -51.5t51 -146.5v-621h-394v481l76 242h-96q-1 -166 -35 -299t-103 -233.5
t-181 -155.5t-261 -55q-323 0 -504.5 201t-181.5 542z" />
    <glyph glyph-name="gbreve" unicode="&#x11f;" horiz-adv-x="1482" 
d="M707 1130q-89 0 -159 25.5t-113.5 67t-72 98.5t-40 116t-11.5 124h289q0 -97 28 -131.5t79 -34.5t79.5 34.5t28.5 131.5h289q0 -65 -11.5 -124t-40 -116t-72.5 -98.5t-114 -67t-159 -25.5zM1384 1040h91v-344h-64q-2 0 -16.5 0.5t-22.5 0t-20 -2.5t-21 -6l1 -5l2.5 -12.5
t3 -16.5t2.5 -21t1 -23q0 -132 -119 -227.5t-339 -167.5q73 1 136.5 -7t121 -28t98.5 -52t65.5 -81.5t24.5 -112.5q0 -54 -15.5 -98t-42 -78.5t-74 -61t-101 -46t-133.5 -32.5t-160 -21.5t-193.5 -13t-220 -6t-252.5 -1.5v344q536 0 665 16q106 14 125 52q7 13 7 35
q0 20 -11.5 35t-35.5 23.5t-52.5 14t-72.5 6t-83 -0.5t-97 -5t-103.5 -7.5t-112 -9.5t-112.5 -9l-37 190q234 2 396.5 11.5t301.5 37.5v97q-99 -32 -210.5 -47.5t-224 -8.5t-203.5 38t-148 100.5t-57 170.5q0 131 81.5 223.5t216 135.5t310.5 43q279 0 434 -115
q53 94 270 94zM707 549q138 0 190.5 25t52.5 83q0 57 -52.5 84t-190.5 27q-137 0 -190.5 -27t-53.5 -84t53.5 -82.5t190.5 -25.5z" />
    <glyph glyph-name="Gdotaccent" unicode="&#x120;" horiz-adv-x="1882" 
d="M836 1532q-199 0 -199 168q0 84 52 126t147 42q96 0 151 -42t55 -126q0 -86 -54.5 -127t-151.5 -41zM92 723q0 164 58 303.5t158 235t237 149t293 53.5q180 0 335.5 -67.5t257.5 -190.5t123 -278h-391q-24 105 -101.5 148.5t-223.5 43.5q-175 0 -265 -90t-90 -307
q0 -113 20 -191t61 -123.5t97 -65t134 -19.5q124 0 199.5 52.5t76.5 151.5h-266v291h772q93 0 144 -51.5t51 -146.5v-621h-394v481l76 242h-96q-1 -166 -35 -299t-103 -233.5t-181 -155.5t-261 -55q-323 0 -504.5 201t-181.5 542z" />
    <glyph glyph-name="gdotaccent" unicode="&#x121;" horiz-adv-x="1482" 
d="M702 1128q-198 0 -198 168q0 84 51.5 126t146.5 42q96 0 151.5 -42t55.5 -126q0 -86 -55 -127t-152 -41zM1384 1040h91v-344h-64q-2 0 -16.5 0.5t-22.5 0t-20 -2.5t-21 -6l1 -5l2.5 -12.5t3 -16.5t2.5 -21t1 -23q0 -132 -119 -227.5t-339 -167.5q73 1 136.5 -7t121 -28
t98.5 -52t65.5 -81.5t24.5 -112.5q0 -54 -15.5 -98t-42 -78.5t-74 -61t-101 -46t-133.5 -32.5t-160 -21.5t-193.5 -13t-220 -6t-252.5 -1.5v344q536 0 665 16q106 14 125 52q7 13 7 35q0 20 -11.5 35t-35.5 23.5t-52.5 14t-72.5 6t-83 -0.5t-97 -5t-103.5 -7.5t-112 -9.5
t-112.5 -9l-37 190q234 2 396.5 11.5t301.5 37.5v97q-99 -32 -210.5 -47.5t-224 -8.5t-203.5 38t-148 100.5t-57 170.5q0 131 81.5 223.5t216 135.5t310.5 43q279 0 434 -115q53 94 270 94zM707 549q138 0 190.5 25t52.5 83q0 57 -52.5 84t-190.5 27q-137 0 -190.5 -27
t-53.5 -84t53.5 -82.5t190.5 -25.5z" />
    <glyph glyph-name="uni0122" unicode="&#x122;" horiz-adv-x="1882" 
d="M92 723q0 164 58 303.5t158 235t237 149t293 53.5q180 0 335.5 -67.5t257.5 -190.5t123 -278h-391q-24 105 -101.5 148.5t-223.5 43.5q-175 0 -265 -90t-90 -307q0 -113 20 -191t61 -123.5t97 -65t134 -19.5q124 0 199.5 52.5t76.5 151.5h-266v291h772q93 0 144 -51.5
t51 -146.5v-621h-394v481l76 242h-96q-1 -166 -35 -299t-103 -233.5t-181 -155.5t-261 -55q-323 0 -504.5 201t-181.5 542zM637 -100l272 -90l-135 -355l-270 90z" />
    <glyph glyph-name="uni0123" unicode="&#x123;" horiz-adv-x="1482" 
d="M977 1593l-164 -475l-276 74l161 475zM1384 1040h91v-344h-64q-2 0 -16.5 0.5t-22.5 0t-20 -2.5t-21 -6l1 -5l2.5 -12.5t3 -16.5t2.5 -21t1 -23q0 -132 -119 -227.5t-339 -167.5q73 1 136.5 -7t121 -28t98.5 -52t65.5 -81.5t24.5 -112.5q0 -54 -15.5 -98t-42 -78.5
t-74 -61t-101 -46t-133.5 -32.5t-160 -21.5t-193.5 -13t-220 -6t-252.5 -1.5v344q536 0 665 16q106 14 125 52q7 13 7 35q0 20 -11.5 35t-35.5 23.5t-52.5 14t-72.5 6t-83 -0.5t-97 -5t-103.5 -7.5t-112 -9.5t-112.5 -9l-37 190q234 2 396.5 11.5t301.5 37.5v97
q-99 -32 -210.5 -47.5t-224 -8.5t-203.5 38t-148 100.5t-57 170.5q0 131 81.5 223.5t216 135.5t310.5 43q279 0 434 -115q53 94 270 94zM707 549q138 0 190.5 25t52.5 83q0 57 -52.5 84t-190.5 27q-137 0 -190.5 -27t-53.5 -84t53.5 -82.5t190.5 -25.5z" />
    <glyph glyph-name="Hbar" unicode="&#x126;" horiz-adv-x="1804" 
d="M1755 1296v-290h-123v-1006h-393v526h-674v-526h-391v1006h-123v290h123v148h391v-148h674v148h393v-148h123zM1239 870v136h-674v-136h674z" />
    <glyph glyph-name="hbar" unicode="&#x127;" horiz-adv-x="1538" 
d="M1001 1061q211 0 328 -137t117 -389v-535h-391v471q0 137 -42.5 191.5t-154.5 54.5q-51 0 -89.5 -8.5t-73 -32.5t-56.5 -63.5t-34.5 -103.5t-12.5 -151v-358h-391v1124h-129v291h129v90h391v-90h280v-291h-280v-188l-74 -211h94q33 148 132.5 242t256.5 94z" />
    <glyph glyph-name="Imacron" unicode="&#x12a;" horiz-adv-x="1234" 
d="M1102 1909v-287l-969 -4v291h969zM1143 1100h-330v-756h330v-344h-1051v344h330v756h-330v344h1051v-344z" />
    <glyph glyph-name="imacron" unicode="&#x12b;" horiz-adv-x="1112" 
d="M82 1505h969v-286l-969 -5v291zM113 0v344h293v363l-267 -11v344l453 21q91 5 142.5 -43.5t51.5 -140.5v-533h295v-344h-968z" />
    <glyph glyph-name="Iogonek" unicode="&#x12e;" horiz-adv-x="1234" 
d="M1143 1100h-330v-756h330v-344h-197l-53 -123l235 25v-291l-366 -29q-48 -3 -91 10t-72.5 38t-46.5 56.5t-15 68t24 69.5l121 176h-590v344h330v756h-330v344h1051v-344z" />
    <glyph glyph-name="iogonek" unicode="&#x12f;" horiz-adv-x="1071" 
d="M489 1128q-198 0 -198 168q0 84 51.5 126t146.5 42q96 0 151.5 -42t55.5 -126q0 -86 -55 -127t-152 -41zM1040 0h-202l-54 -123l236 25v-291l-367 -29q-48 -3 -91 10t-72.5 38t-46 56.5t-14.5 68t24 69.5l120 176h-501v344h293v363l-267 -11v344l453 21q91 5 142.5 -43.5
t51.5 -140.5v-533h295v-344z" />
    <glyph glyph-name="Idotaccent" unicode="&#x130;" horiz-adv-x="1234" 
d="M612 1532q-198 0 -198 168q0 84 51.5 126t146.5 42q96 0 151.5 -42t55.5 -126q0 -86 -55 -127t-152 -41zM1143 1100h-330v-756h330v-344h-1051v344h330v756h-330v344h1051v-344z" />
    <glyph glyph-name="dotlessi" unicode="&#x131;" horiz-adv-x="1071" 
d="M72 0v344h293v363l-267 -11v344l453 21q91 5 142.5 -43.5t51.5 -140.5v-533h295v-344h-968z" />
    <glyph glyph-name="uni0136" unicode="&#x136;" horiz-adv-x="1654" 
d="M1626 1444l-866 -723l866 -721h-573l-549 467v-467h-391v1444h391v-469l549 469h573zM510 -455l133 355l272 -90l-135 -355z" />
    <glyph glyph-name="uni0137" unicode="&#x137;" horiz-adv-x="1458" 
d="M1079 518l328 -518h-444l-224 369l-235 -103v-266h-391v1505h391v-835l454 190l3 180h393l-8 -239q-2 -84 -36.5 -139t-111.5 -91zM442 -455l133 355l273 -90l-135 -355z" />
    <glyph glyph-name="Lacute" unicode="&#x139;" horiz-adv-x="1245" 
d="M111 1796l866 182l65 -276l-866 -182zM328 -20q-95 -2 -146 47.5t-51 144.5v1272h391v-1120l692 20v-344z" />
    <glyph glyph-name="lacute" unicode="&#x13a;" horiz-adv-x="1107" 
d="M47 1858l866 182l64 -277l-866 -182zM111 0v344h286v827l-260 -10v344l459 13q93 2 144 -47.5t51 -141.5v-985h286v-344h-966z" />
    <glyph glyph-name="uni013B" unicode="&#x13b;" horiz-adv-x="1226" 
d="M309 -20q-95 -2 -145.5 47.5t-50.5 144.5v1272h391v-1120l692 20v-344zM547 -100l272 -90l-135 -355l-270 90z" />
    <glyph glyph-name="uni013C" unicode="&#x13c;" horiz-adv-x="1046" 
d="M51 0v344h287v827l-260 -10v344l459 13q92 1 142 -48t50 -141v-985h289v-344h-967zM371 -100l272 -90l-135 -355l-270 90z" />
    <glyph glyph-name="Lcaron" unicode="&#x13d;" horiz-adv-x="1247" 
d="M752 1614h286v-709h-286v709zM309 -20q-95 -2 -145.5 47.5t-50.5 144.5v1272h391v-1120l692 20v-344z" />
    <glyph glyph-name="lcaron" unicode="&#x13e;" horiz-adv-x="1179" 
d="M866 1614h287v-709h-287v709zM51 0v344h287v827l-260 -10v344l459 13q92 1 142 -48t50 -141v-985h289v-344h-967z" />
    <glyph glyph-name="Lslash" unicode="&#x141;" horiz-adv-x="1439" 
d="M696 324l693 20v-344l-887 -20q-95 -2 -146 47.5t-51 144.5v432l-162 -43l-71 277l233 63v543h391v-438l340 92l72 -275l-412 -112v-387z" />
    <glyph glyph-name="lslash" unicode="&#x142;" horiz-adv-x="1046" 
d="M729 344h289v-344h-967v344h287v203l-184 -51l-72 276l256 70v329l-260 -10v344l459 13q92 1 142 -48t50 -141v-379l184 51l72 -278l-256 -70v-309z" />
    <glyph glyph-name="Nacute" unicode="&#x143;" horiz-adv-x="1726" 
d="M412 1796l866 182l63 -274l-866 -182zM113 0v1444h768l321 -1348h96l-75 238v1110h393v-1444h-770l-322 1348h-96l76 -238v-1110h-391z" />
    <glyph glyph-name="nacute" unicode="&#x144;" horiz-adv-x="1447" 
d="M268 1393l867 182l63 -275l-866 -182zM770 717q-51 0 -89.5 -8.5t-73 -32.5t-56.5 -63.5t-34.5 -103.5t-12.5 -151v-358h-391v1040h391v-104l-76 -211h96q33 148 132.5 242t256.5 94q209 0 327 -137.5t118 -388.5v-535h-393v471q0 137 -41.5 191.5t-153.5 54.5z" />
    <glyph glyph-name="uni0145" unicode="&#x145;" horiz-adv-x="1726" 
d="M113 0v1444h768l321 -1348h96l-75 238v1110h393v-1444h-770l-322 1348h-96l76 -238v-1110h-391zM715 -100l272 -90l-135 -355l-270 90z" />
    <glyph glyph-name="uni0146" unicode="&#x146;" horiz-adv-x="1447" 
d="M770 717q-51 0 -89.5 -8.5t-73 -32.5t-56.5 -63.5t-34.5 -103.5t-12.5 -151v-358h-391v1040h391v-104l-76 -211h96q33 148 132.5 242t256.5 94q209 0 327 -137.5t118 -388.5v-535h-393v471q0 137 -41.5 191.5t-153.5 54.5zM598 -100l272 -90l-135 -355l-270 90z" />
    <glyph glyph-name="Ncaron" unicode="&#x147;" horiz-adv-x="1726" 
d="M1391 1847l-488 -327l-485 327l207 191l278 -183l281 183zM113 0v1444h768l321 -1348h96l-75 238v1110h393v-1444h-770l-322 1348h-96l76 -238v-1110h-391z" />
    <glyph glyph-name="ncaron" unicode="&#x148;" horiz-adv-x="1447" 
d="M1249 1444l-487 -328l-486 328l207 190l279 -182l280 182zM770 717q-51 0 -89.5 -8.5t-73 -32.5t-56.5 -63.5t-34.5 -103.5t-12.5 -151v-358h-391v1040h391v-104l-76 -211h96q33 148 132.5 242t256.5 94q209 0 327 -137.5t118 -388.5v-535h-393v471q0 137 -41.5 191.5
t-153.5 54.5z" />
    <glyph glyph-name="Eng" unicode="&#x14a;" horiz-adv-x="1726" 
d="M1223 1444h393v-1665q0 -96 -52 -147t-143 -48l-547 13v344l349 -11v70h-377l-322 1348h-96l76 -238v-1110h-391v1444h768l321 -1348h96l-75 238v1110z" />
    <glyph glyph-name="eng" unicode="&#x14b;" horiz-adv-x="1447" 
d="M913 1061q209 0 327 -137.5t118 -388.5v-760q0 -96 -50.5 -145t-140.5 -46l-551 13v344l349 -11v541q0 137 -41.5 191.5t-153.5 54.5q-51 0 -89.5 -8.5t-73 -32.5t-56.5 -63.5t-34.5 -103.5t-12.5 -151v-358h-391v1040h391v-104l-76 -211h96q33 148 132.5 242t256.5 94z
" />
    <glyph glyph-name="Omacron" unicode="&#x14c;" horiz-adv-x="1705" 
d="M371 1909h968v-287l-968 -4v291zM92 723q0 157 53 293t150 235t241 156t318 57q173 0 317 -57t240.5 -156t149.5 -235t53 -293q0 -158 -53 -294t-149.5 -235.5t-240.5 -156.5t-317 -57q-174 0 -318 57t-241 156.5t-150 235.5t-53 294zM483 723q0 -192 94 -295.5
t277 -103.5q182 0 275.5 103t93.5 296q0 191 -93.5 294t-275.5 103q-183 0 -277 -103t-94 -294z" />
    <glyph glyph-name="omacron" unicode="&#x14d;" horiz-adv-x="1343" 
d="M188 1505h969v-286l-969 -5v291zM72 522q0 112 31.5 203t86.5 152.5t131.5 103.5t164.5 61t188 19q124 0 230 -31t190 -94t132 -169t48 -245q0 -140 -48 -247t-132 -170t-189.5 -94t-230.5 -31q-100 0 -188 19t-164.5 61t-131.5 104t-86.5 153.5t-31.5 204.5zM463 522
q0 -102 56.5 -150t154.5 -48q95 0 151 48t56 150q0 101 -56 148t-151 47q-98 0 -154.5 -47t-56.5 -148z" />
    <glyph glyph-name="Ohungarumlaut" unicode="&#x150;" horiz-adv-x="1705" 
d="M303 1720l457 373l203 -188l-457 -373zM885 1720l456 373l203 -188l-457 -373zM92 723q0 157 53 293t150 235t241 156t318 57q173 0 317 -57t240.5 -156t149.5 -235t53 -293q0 -158 -53 -294t-149.5 -235.5t-240.5 -156.5t-317 -57q-174 0 -318 57t-241 156.5t-150 235.5
t-53 294zM483 723q0 -192 94 -295.5t277 -103.5q182 0 275.5 103t93.5 296q0 191 -93.5 294t-275.5 103q-183 0 -277 -103t-94 -294z" />
    <glyph glyph-name="ohungarumlaut" unicode="&#x151;" horiz-adv-x="1343" 
d="M121 1317l457 373l202 -189l-456 -373zM702 1317l457 373l203 -189l-457 -373zM72 522q0 112 31.5 203t86.5 152.5t131.5 103.5t164.5 61t188 19q124 0 230 -31t190 -94t132 -169t48 -245q0 -140 -48 -247t-132 -170t-189.5 -94t-230.5 -31q-100 0 -188 19t-164.5 61
t-131.5 104t-86.5 153.5t-31.5 204.5zM463 522q0 -102 56.5 -150t154.5 -48q95 0 151 48t56 150q0 101 -56 148t-151 47q-98 0 -154.5 -47t-56.5 -148z" />
    <glyph glyph-name="OE" unicode="&#x152;" horiz-adv-x="2398" 
d="M2329 1100h-695v-205h592v-344h-592v-207h695v-344h-1086v70q-172 -90 -389 -90q-174 0 -318 57t-241 156.5t-150 235.5t-53 294q0 157 53 293t150 235t241 156t318 57q217 0 389 -90v70h1086v-344zM854 324q182 0 275.5 103t93.5 296q0 191 -93.5 294t-275.5 103
q-183 0 -277 -103t-94 -294q0 -192 94 -295.5t277 -103.5z" />
    <glyph glyph-name="oe" unicode="&#x153;" horiz-adv-x="2234" 
d="M1772 369h391q-4 -46 -28.5 -97t-73 -103.5t-113.5 -94t-159 -68t-200 -26.5q-291 0 -454 163q-157 -163 -461 -163q-100 0 -188 19t-164.5 61t-131.5 104t-86.5 153.5t-31.5 204.5q0 112 31.5 203t86.5 152.5t131.5 103.5t164.5 61t188 19q292 0 454 -156
q156 156 424 156q251 0 412.5 -141.5t161.5 -364.5v-100h-776q-3 -80 58.5 -127t180.5 -47q68 0 120 25.5t63 62.5zM1552 743q-118 0 -160 -32t-42 -90h409q0 56 -45.5 89t-161.5 33zM674 324q95 0 151 48t56 150q0 101 -56 148t-151 47q-98 0 -154.5 -47t-56.5 -148
q0 -102 56.5 -150t154.5 -48z" />
    <glyph glyph-name="Racute" unicode="&#x154;" horiz-adv-x="1509" 
d="M229 1796l867 182l63 -274l-866 -182zM113 0v1444h589q676 0 676 -404q0 -59 -17 -107t-48.5 -80.5t-68.5 -56t-86.5 -38t-91.5 -22.5t-93 -13v-94h225q94 0 146.5 -53t52.5 -148v-428h-391v479h-502v-479h-391zM504 823h198h28q51 0 75 0.5t60.5 4t53.5 12t35.5 23.5
t25.5 39.5t7 58.5q0 21 -3 38t-8.5 30t-14 23.5t-19.5 18t-24.5 12.5t-29.5 8.5t-34 5.5t-38 2.5t-42 0.5h-46h-26h-198v-277z" />
    <glyph glyph-name="racute" unicode="&#x155;" horiz-adv-x="1067" 
d="M96 1393l867 182l65 -275l-868 -182zM145 0v870q0 90 50 138.5t141 48.5l723 -17v-344l-522 11v-707h-392z" />
    <glyph glyph-name="uni0156" unicode="&#x156;" horiz-adv-x="1509" 
d="M113 0v1444h589q676 0 676 -404q0 -59 -17 -107t-48.5 -80.5t-68.5 -56t-86.5 -38t-91.5 -22.5t-93 -13v-94h225q94 0 146.5 -53t52.5 -148v-428h-391v479h-502v-479h-391zM504 823h198h28q51 0 75 0.5t60.5 4t53.5 12t35.5 23.5t25.5 39.5t7 58.5q0 21 -3 38t-8.5 30
t-14 23.5t-19.5 18t-24.5 12.5t-29.5 8.5t-34 5.5t-38 2.5t-42 0.5h-46h-26h-198v-277zM635 -100l272 -90l-135 -355l-270 90z" />
    <glyph glyph-name="uni0157" unicode="&#x157;" horiz-adv-x="1005" 
d="M82 0v870q0 90 50 138.5t140 48.5l723 -17v-344l-522 11v-707h-391zM133 -100l273 -90l-136 -355l-270 90z" />
    <glyph glyph-name="Rcaron" unicode="&#x158;" horiz-adv-x="1509" 
d="M1210 1847l-487 -327l-485 327l206 191l279 -183l281 183zM113 0v1444h589q676 0 676 -404q0 -59 -17 -107t-48.5 -80.5t-68.5 -56t-86.5 -38t-91.5 -22.5t-93 -13v-94h225q94 0 146.5 -53t52.5 -148v-428h-391v479h-502v-479h-391zM504 823h198h28q51 0 75 0.5t60.5 4
t53.5 12t35.5 23.5t25.5 39.5t7 58.5q0 21 -3 38t-8.5 30t-14 23.5t-19.5 18t-24.5 12.5t-29.5 8.5t-34 5.5t-38 2.5t-42 0.5h-46h-26h-198v-277z" />
    <glyph glyph-name="rcaron" unicode="&#x159;" horiz-adv-x="1075" 
d="M1069 1444l-487 -328l-486 328l207 190l279 -182l280 182zM137 0v870q0 90 50 138.5t141 48.5l723 -17v-344l-523 11v-707h-391z" />
    <glyph glyph-name="Sacute" unicode="&#x15a;" horiz-adv-x="1484" 
d="M250 1796l866 182l64 -274l-867 -182zM1434 412q0 -204 -158 -318t-485 -114q-385 0 -562.5 147t-177.5 436h391q0 -133 77 -186t286 -53q139 0 188 18t49 57q0 23 -16.5 42t-68 43t-82.5 35.5t-122 43.5q-39 14 -59 21q-228 79 -309 119q-176 85 -234 206
q-34 71 -34 162q0 192 152 292.5t438 100.5q327 0 497 -140t170 -378h-391q0 53 -19.5 88.5t-59 53.5t-85.5 25t-112 7q-199 0 -199 -65q0 -19 3 -27t25 -22.5t66.5 -31.5t132.5 -48q19 -6 82 -27.5t92 -31.5t90.5 -34t95 -40t86.5 -44t83 -51.5t67 -57.5t56.5 -67.5t33 -75
t13.5 -85.5z" />
    <glyph glyph-name="sacute" unicode="&#x15b;" horiz-adv-x="1171" 
d="M102 1393l867 182l63 -275l-866 -182zM1141 295q0 -146 -122.5 -230.5t-391.5 -84.5q-292 0 -434 103.5t-142 291.5h391q0 -41 45.5 -77t153.5 -36q109 0 109 43q0 18 -27 31q-21 9 -166 59q-24 8 -74.5 24t-79.5 26t-75 28.5t-74 35t-61 43t-51.5 55.5t-31 68t-12.5 85
q0 145 124 223t347 78q252 0 394.5 -110t142.5 -277h-391q0 39 -38 71.5t-102 32.5q-47 0 -66.5 -8.5t-19.5 -28.5q0 -14 11.5 -26t41.5 -24t55.5 -20.5t80.5 -25t90 -27.5q54 -18 85 -28.5t76 -29.5t71 -35t56.5 -40.5t46.5 -51t27 -62t11 -76.5z" />
    <glyph glyph-name="Scedilla" unicode="&#x15e;" horiz-adv-x="1484" 
d="M1434 412q0 -193 -140.5 -305.5t-429.5 -124.5l-94 -107q99 43 211 43q195 0 195 -131q0 -47 -19.5 -83.5t-50.5 -61t-81.5 -42.5t-100 -27.5t-119.5 -15t-125.5 -7t-132.5 -1.5v211q46 0 123 -1q127 -2 171 4t44 34q0 14 -13 23.5t-34 9.5q-52 0 -166 -33l-119 80
l39 115q-281 36 -411 179t-130 392h391q0 -133 77 -186t286 -53q139 0 188 18t49 57q0 23 -16.5 42t-68 43t-82.5 35.5t-122 43.5q-39 14 -59 21q-228 79 -309 119q-176 85 -234 206q-34 71 -34 162q0 192 152 292.5t438 100.5q327 0 497 -140t170 -378h-391
q0 53 -19.5 88.5t-59 53.5t-85.5 25t-112 7q-199 0 -199 -65q0 -19 3 -27t25 -22.5t66.5 -31.5t132.5 -48q19 -6 82 -27.5t92 -31.5t90.5 -34t95 -40t86.5 -44t83 -51.5t67 -57.5t56.5 -67.5t33 -75t13.5 -85.5z" />
    <glyph glyph-name="scedilla" unicode="&#x15f;" horiz-adv-x="1171" 
d="M1141 295q0 -133 -101.5 -216t-320.5 -97l-94 -107q99 43 211 43q194 0 194 -131q0 -47 -19.5 -83.5t-50.5 -61t-81.5 -42.5t-100 -27.5t-119.5 -15t-125.5 -7t-132.5 -1.5v211q46 0 123 -1q127 -2 171 4t44 34q0 14 -13 23.5t-34 9.5q-52 0 -166 -33l-118 80l38 115
q-200 30 -297.5 129t-97.5 254h391q0 -41 45.5 -77t153.5 -36q109 0 109 43q0 18 -27 31q-21 9 -166 59q-24 8 -74.5 24t-79.5 26t-75 28.5t-74 35t-61 43t-51.5 55.5t-31 68t-12.5 85q0 145 124 223t347 78q252 0 394.5 -110t142.5 -277h-391q0 39 -38 71.5t-102 32.5
q-47 0 -66.5 -8.5t-19.5 -28.5q0 -14 11.5 -26t41.5 -24t55.5 -20.5t80.5 -25t90 -27.5q54 -18 85 -28.5t76 -29.5t71 -35t56.5 -40.5t46.5 -51t27 -62t11 -76.5z" />
    <glyph glyph-name="Scaron" unicode="&#x160;" horiz-adv-x="1484" 
d="M1231 1847l-488 -327l-485 327l207 191l278 -183l281 183zM1434 412q0 -204 -158 -318t-485 -114q-385 0 -562.5 147t-177.5 436h391q0 -133 77 -186t286 -53q139 0 188 18t49 57q0 23 -16.5 42t-68 43t-82.5 35.5t-122 43.5q-39 14 -59 21q-228 79 -309 119
q-176 85 -234 206q-34 71 -34 162q0 192 152 292.5t438 100.5q327 0 497 -140t170 -378h-391q0 53 -19.5 88.5t-59 53.5t-85.5 25t-112 7q-199 0 -199 -65q0 -19 3 -27t25 -22.5t66.5 -31.5t132.5 -48q19 -6 82 -27.5t92 -31.5t90.5 -34t95 -40t86.5 -44t83 -51.5t67 -57.5
t56.5 -67.5t33 -75t13.5 -85.5z" />
    <glyph glyph-name="scaron" unicode="&#x161;" horiz-adv-x="1171" 
d="M1083 1444l-487 -328l-485 328l206 190l279 -182l281 182zM1141 295q0 -146 -122.5 -230.5t-391.5 -84.5q-292 0 -434 103.5t-142 291.5h391q0 -41 45.5 -77t153.5 -36q109 0 109 43q0 18 -27 31q-21 9 -166 59q-24 8 -74.5 24t-79.5 26t-75 28.5t-74 35t-61 43
t-51.5 55.5t-31 68t-12.5 85q0 145 124 223t347 78q252 0 394.5 -110t142.5 -277h-391q0 39 -38 71.5t-102 32.5q-47 0 -66.5 -8.5t-19.5 -28.5q0 -14 11.5 -26t41.5 -24t55.5 -20.5t80.5 -25t90 -27.5q54 -18 85 -28.5t76 -29.5t71 -35t56.5 -40.5t46.5 -51t27 -62
t11 -76.5z" />
    <glyph glyph-name="uni0162" unicode="&#x162;" horiz-adv-x="1413" 
d="M903 0h-57l-111 -125q99 43 211 43q195 0 195 -131q0 -47 -19.5 -83.5t-50.5 -61t-81.5 -42.5t-100 -27.5t-119.5 -15t-125.5 -7t-132.5 -1.5v211q46 0 123 -1q127 -2 171 4t44 34q0 14 -13 23.5t-34 9.5q-52 0 -166 -33l-119 80l41 123h-47v1100h-461v344h1313v-344
h-461v-1100z" />
    <glyph glyph-name="uni0163" unicode="&#x163;" horiz-adv-x="1095" 
d="M889 -82q194 0 194 -131q0 -47 -19.5 -83.5t-50.5 -61t-81.5 -42.5t-99.5 -27.5t-119 -15t-125.5 -7t-132.5 -1.5v211q46 0 123 -1q127 -2 171 4t44 34q0 14 -13.5 23.5t-34.5 9.5q-51 0 -165 -33l-119 80l35 105l-43 -2q-90 -3 -139.5 47t-49.5 141v528h-254v344h254
v168l391 123v-291h351v-344h-351v-372l392 20v-344l-267 -8l-102 -117q99 43 211 43z" />
    <glyph glyph-name="Tcaron" unicode="&#x164;" horiz-adv-x="1413" 
d="M1194 1847l-487 -327l-486 327l207 191l279 -183l280 183zM1364 1444v-344h-461v-1100h-391v1100h-461v344h1313z" />
    <glyph glyph-name="tcaron" unicode="&#x165;" horiz-adv-x="1095" 
d="M795 1505h284v-368h-284v368zM655 696v-372l392 20v-344l-594 -20q-90 -3 -139.5 47t-49.5 141v528h-254v344h254v168l391 123v-291h351v-344h-351z" />
    <glyph glyph-name="Tbar" unicode="&#x166;" horiz-adv-x="1413" 
d="M1364 1100h-461v-289h301v-291h-301v-520h-391v520h-305v291h305v289h-461v344h1313v-344z" />
    <glyph glyph-name="tbar" unicode="&#x167;" horiz-adv-x="1095" 
d="M655 324l392 20v-344l-594 -20q-90 -3 -139.5 47t-49.5 141v227h-213v238h213v63h-254v344h254v168l391 123v-291h351v-344h-351v-63h316v-238h-316v-71z" />
    <glyph glyph-name="Umacron" unicode="&#x16a;" horiz-adv-x="1511" 
d="M270 1909h969v-287l-969 -4v291zM72 537v907h391v-715q0 -167 10 -221q20 -113 105 -153q65 -31 176 -31q62 0 109 10.5t78.5 24.5t52.5 46t32 56t16 74.5t6 82t1 97.5v14v715h391v-907q0 -270 -177 -413.5t-509 -143.5q-330 0 -506 143.5t-176 413.5z" />
    <glyph glyph-name="umacron" unicode="&#x16b;" horiz-adv-x="1427" 
d="M223 1505h969v-286l-969 -5v291zM678 324q65 0 110.5 14.5t82.5 52.5t55 110t18 181v358h393v-1040h-393v104l76 211h-96q-31 -147 -131 -241t-258 -94q-208 0 -325.5 138t-117.5 388v534h391v-471q0 -136 42 -190.5t153 -54.5z" />
    <glyph glyph-name="Uring" unicode="&#x16e;" horiz-adv-x="1511" 
d="M752 1536q-353 0 -353 264q0 136 92.5 201t260.5 65t261 -65t93 -201q0 -135 -93 -199.5t-261 -64.5zM752 1737q44 0 68 13t24 50q0 62 -92 62q-90 0 -90 -62q0 -37 23.5 -50t66.5 -13zM72 537v907h391v-715q0 -167 10 -221q20 -113 105 -153q65 -31 176 -31
q62 0 109 10.5t78.5 24.5t52.5 46t32 56t16 74.5t6 82t1 97.5v14v715h391v-907q0 -270 -177 -413.5t-509 -143.5q-330 0 -506 143.5t-176 413.5z" />
    <glyph glyph-name="uring" unicode="&#x16f;" horiz-adv-x="1427" 
d="M705 1133q-353 0 -353 264q0 136 92.5 201t260.5 65t261 -65t93 -201q0 -135 -93 -199.5t-261 -64.5zM705 1333q44 0 68 13.5t24 50.5q0 61 -92 61q-91 0 -91 -61q0 -64 91 -64zM678 324q65 0 110.5 14.5t82.5 52.5t55 110t18 181v358h393v-1040h-393v104l76 211h-96
q-31 -147 -131 -241t-258 -94q-208 0 -325.5 138t-117.5 388v534h391v-471q0 -136 42 -190.5t153 -54.5z" />
    <glyph glyph-name="Uhungarumlaut" unicode="&#x170;" horiz-adv-x="1511" 
d="M203 1720l456 373l203 -188l-456 -373zM784 1720l457 373l203 -188l-457 -373zM72 537v907h391v-715q0 -167 10 -221q20 -113 105 -153q65 -31 176 -31q62 0 109 10.5t78.5 24.5t52.5 46t32 56t16 74.5t6 82t1 97.5v14v715h391v-907q0 -270 -177 -413.5t-509 -143.5
q-330 0 -506 143.5t-176 413.5z" />
    <glyph glyph-name="uhungarumlaut" unicode="&#x171;" horiz-adv-x="1427" 
d="M156 1317l456 373l203 -189l-457 -373zM737 1317l457 373l203 -189l-457 -373zM678 324q65 0 110.5 14.5t82.5 52.5t55 110t18 181v358h393v-1040h-393v104l76 211h-96q-31 -147 -131 -241t-258 -94q-208 0 -325.5 138t-117.5 388v534h391v-471q0 -136 42 -190.5
t153 -54.5z" />
    <glyph glyph-name="Uogonek" unicode="&#x172;" horiz-adv-x="1511" 
d="M1049 1444h391v-907q0 -221 -119.5 -358.5t-347.5 -180.5l-51 -121l235 25v-291l-366 -29q-48 -3 -91 10t-72.5 38t-46.5 56.5t-15 68t24 69.5l108 158q-304 10 -465 153.5t-161 401.5v907h391v-715q0 -167 10 -221q20 -113 105 -153q65 -31 176 -31q62 0 109 10.5
t78.5 24.5t52.5 46t32 56t16 74.5t6 82t1 97.5v14v715z" />
    <glyph glyph-name="uogonek" unicode="&#x173;" horiz-adv-x="1427" 
d="M1284 -123l236 25v-291l-367 -29q-48 -3 -91 10t-72.5 38t-46.5 56.5t-15 68t24 69.5l121 176h-129v104l76 211h-96q-31 -147 -131 -241t-258 -94q-208 0 -325.5 138t-117.5 388v534h391v-471q0 -136 42 -190.5t153 -54.5q65 0 110.5 14.5t82.5 52.5t55 110t18 181v358
h393v-1040z" />
    <glyph glyph-name="Wcircumflex" unicode="&#x174;" horiz-adv-x="2519" 
d="M1747 1694l-207 -191l-280 183l-279 -183l-207 191l486 327zM31 1444h381l202 -1348h95l133 1348h835l133 -1348h95l202 1348h381l-223 -1444h-815l-143 1348h-95l-143 -1348h-815z" />
    <glyph glyph-name="wcircumflex" unicode="&#x175;" horiz-adv-x="2013" 
d="M1493 1290l-207 -190l-280 182l-279 -182l-207 190l486 328zM10 1040h375l88 -944h94l29 944h821l29 -944h96l90 944h373l-102 -1040h-820l-28 946h-97l-28 -946h-819z" />
    <glyph glyph-name="Ycircumflex" unicode="&#x176;" horiz-adv-x="1533" 
d="M1251 1694l-207 -191l-280 183l-279 -183l-206 191l485 327zM1083 1444h420l-542 -1008v-436h-392v436l-538 1008h418l268 -559v-213h96v213z" />
    <glyph glyph-name="ycircumflex" unicode="&#x177;" horiz-adv-x="1441" 
d="M731 1282l-278 -182l-207 190l485 328l488 -328l-207 -190zM967 1040h446l-485 -958v-334q0 -96 -50.5 -145.5t-140.5 -46.5l-551 12v344h349v170l-484 958h443l190 -481v-199h94v199z" />
    <glyph glyph-name="Ydieresis" unicode="&#x178;" horiz-adv-x="1533" 
d="M498 1532q-199 0 -199 168q0 84 52 126t147 42q96 0 151.5 -42t55.5 -126q0 -86 -55 -127t-152 -41zM1026 1532q-201 0 -201 168q0 84 52.5 126t148.5 42t150.5 -42t54.5 -126q0 -86 -54 -127t-151 -41zM1083 1444h420l-542 -1008v-436h-392v436l-538 1008h418l268 -559
v-213h96v213z" />
    <glyph glyph-name="Zacute" unicode="&#x179;" horiz-adv-x="1378" 
d="M197 1796l866 182l63 -274l-866 -182zM72 0v719l1140 360v97l-213 -76h-927v344h1235v-719l-1141 -360v-97l213 76h928v-344h-1235z" />
    <glyph glyph-name="zacute" unicode="&#x17a;" horiz-adv-x="1193" 
d="M104 1393l867 182l63 -275l-866 -182zM72 0v575l956 115v94l-213 -73h-743v329h1050v-573l-956 -115v-96l213 76h743v-332h-1050z" />
    <glyph glyph-name="Zdotaccent" unicode="&#x17b;" horiz-adv-x="1378" 
d="M684 1532q-199 0 -199 168q0 84 52 126t147 42q96 0 151.5 -42t55.5 -126q0 -86 -55 -127t-152 -41zM72 0v719l1140 360v97l-213 -76h-927v344h1235v-719l-1141 -360v-97l213 76h928v-344h-1235z" />
    <glyph glyph-name="zdotaccent" unicode="&#x17c;" horiz-adv-x="1193" 
d="M592 1128q-199 0 -199 168q0 84 52 126t147 42q96 0 151.5 -42t55.5 -126q0 -86 -55 -127t-152 -41zM72 0v575l956 115v94l-213 -73h-743v329h1050v-573l-956 -115v-96l213 76h743v-332h-1050z" />
    <glyph glyph-name="Zcaron" unicode="&#x17d;" horiz-adv-x="1378" 
d="M1178 1847l-488 -327l-485 327l207 191l278 -183l281 183zM72 0v719l1140 360v97l-213 -76h-927v344h1235v-719l-1141 -360v-97l213 76h928v-344h-1235z" />
    <glyph glyph-name="zcaron" unicode="&#x17e;" horiz-adv-x="1193" 
d="M1085 1444l-487 -328l-485 328l206 190l279 -182l281 182zM72 0v575l956 115v94l-213 -73h-743v329h1050v-573l-956 -115v-96l213 76h743v-332h-1050z" />
    <glyph glyph-name="uni0218" unicode="&#x218;" horiz-adv-x="1484" 
d="M1434 412q0 -204 -158 -318t-485 -114q-385 0 -562.5 147t-177.5 436h391q0 -133 77 -186t286 -53q139 0 188 18t49 57q0 23 -16.5 42t-68 43t-82.5 35.5t-122 43.5q-39 14 -59 21q-228 79 -309 119q-176 85 -234 206q-34 71 -34 162q0 192 152 292.5t438 100.5
q327 0 497 -140t170 -378h-391q0 53 -19.5 88.5t-59 53.5t-85.5 25t-112 7q-199 0 -199 -65q0 -19 3 -27t25 -22.5t66.5 -31.5t132.5 -48q19 -6 82 -27.5t92 -31.5t90.5 -34t95 -40t86.5 -44t83 -51.5t67 -57.5t56.5 -67.5t33 -75t13.5 -85.5zM594 -100l272 -90l-135 -355
l-270 90z" />
    <glyph glyph-name="uni0219" unicode="&#x219;" horiz-adv-x="1171" 
d="M1141 295q0 -146 -122.5 -230.5t-391.5 -84.5q-292 0 -434 103.5t-142 291.5h391q0 -41 45.5 -77t153.5 -36q109 0 109 43q0 18 -27 31q-21 9 -166 59q-24 8 -74.5 24t-79.5 26t-75 28.5t-74 35t-61 43t-51.5 55.5t-31 68t-12.5 85q0 145 124 223t347 78
q252 0 394.5 -110t142.5 -277h-391q0 39 -38 71.5t-102 32.5q-47 0 -66.5 -8.5t-19.5 -28.5q0 -14 11.5 -26t41.5 -24t55.5 -20.5t80.5 -25t90 -27.5q54 -18 85 -28.5t76 -29.5t71 -35t56.5 -40.5t46.5 -51t27 -62t11 -76.5zM446 -100l273 -90l-135 -355l-271 90z" />
    <glyph glyph-name="uni021A" unicode="&#x21a;" horiz-adv-x="1413" 
d="M1364 1444v-344h-461v-1100h-391v1100h-461v344h1313zM426 -455l133 355l272 -90l-135 -355z" />
    <glyph glyph-name="uni021B" unicode="&#x21b;" horiz-adv-x="1095" 
d="M655 324l392 20v-344l-594 -20q-90 -3 -139.5 47t-49.5 141v528h-254v344h254v168l391 123v-291h351v-344h-351v-372zM369 -455l133 355l272 -90l-135 -355z" />
    <glyph glyph-name="circumflex" unicode="&#x2c6;" horiz-adv-x="1239" 
d="M1106 1290l-207 -190l-281 182l-278 -182l-207 190l485 328z" />
    <glyph glyph-name="caron" unicode="&#x2c7;" horiz-adv-x="1239" 
d="M1106 1444l-488 -328l-485 328l207 190l278 -182l281 182z" />
    <glyph glyph-name="breve" unicode="&#x2d8;" horiz-adv-x="1058" 
d="M926 1561q0 -65 -11.5 -124t-40.5 -116t-73 -98.5t-114 -67t-159 -25.5t-158.5 25.5t-113.5 67t-72 98.5t-39.5 116t-11.5 124h289q0 -97 27.5 -131.5t78.5 -34.5q52 0 80.5 34.5t28.5 131.5h289z" />
    <glyph glyph-name="dotaccent" unicode="&#x2d9;" horiz-adv-x="718" 
d="M330 1128q-199 0 -199 168q0 84 52 126t147 42q96 0 151.5 -42t55.5 -126q0 -86 -55 -127t-152 -41z" />
    <glyph glyph-name="ring" unicode="&#x2da;" horiz-adv-x="940" 
d="M485 1133q-352 0 -352 264q0 136 92 201t260 65t261.5 -65t93.5 -201q0 -135 -93.5 -199.5t-261.5 -64.5zM485 1333q93 0 93 64q0 61 -93 61q-42 0 -66 -13t-24 -48q0 -64 90 -64z" />
    <glyph glyph-name="ogonek" unicode="&#x2db;" horiz-adv-x="856" 
d="M725 -98v-291l-367 -29q-48 -3 -91 10t-72.5 38t-46 56.5t-14.5 68t24 69.5l123 178h262l-54 -125z" />
    <glyph glyph-name="tilde" unicode="&#x2dc;" horiz-adv-x="1310" 
d="M133 1208q0 195 89 313.5t247 118.5q55 0 102.5 -16.5t80.5 -40t60.5 -47.5t54 -40.5t50.5 -16.5q38 0 55 27.5t17 113.5h289q0 -195 -89 -313.5t-247 -118.5q-55 0 -102.5 16.5t-80.5 40.5t-60.5 48t-54 40.5t-50.5 16.5q-38 0 -55 -28t-17 -114h-289z" />
    <glyph glyph-name="hungarumlaut" unicode="&#x2dd;" horiz-adv-x="1505" 
d="M133 1317l457 373l203 -189l-457 -373zM715 1317l456 373l203 -189l-456 -373z" />
    <glyph glyph-name="gravecomb" unicode="&#x300;" horiz-adv-x="0" 
d="M-133 1393l-64 -275l-866 182l64 275z" />
    <glyph glyph-name="acutecomb" unicode="&#x301;" horiz-adv-x="0" 
d="M-1063 1393l866 182l64 -275l-866 -182z" />
    <glyph glyph-name="uni0302" unicode="&#x302;" horiz-adv-x="0" 
d="M-133 1290l-207 -190l-281 182l-278 -182l-207 190l485 328z" />
    <glyph glyph-name="tildecomb" unicode="&#x303;" horiz-adv-x="0" 
d="M-1178 1208q0 195 89 313.5t247 118.5q55 0 102.5 -16.5t80.5 -40t60.5 -47.5t54 -40.5t50.5 -16.5q38 0 55 27.5t17 113.5h289q0 -195 -89 -313.5t-247 -118.5q-55 0 -102.5 16.5t-80.5 40.5t-60.5 48t-54 40.5t-50.5 16.5q-38 0 -55 -28t-17 -114h-289z" />
    <glyph glyph-name="uni0304" unicode="&#x304;" horiz-adv-x="0" 
d="M-1100 1505h969v-286l-969 -5v291z" />
    <glyph glyph-name="uni0306" unicode="&#x306;" horiz-adv-x="0" 
d="M-133 1561q0 -65 -11.5 -124t-40 -116t-72.5 -98.5t-114 -67t-159 -25.5t-159 25.5t-113.5 67t-72 98.5t-40 116t-11.5 124h289q0 -97 28 -131.5t79 -34.5t79.5 34.5t28.5 131.5h289z" />
    <glyph glyph-name="uni0307" unicode="&#x307;" horiz-adv-x="0" 
d="M-336 1128q-199 0 -199 168q0 84 52 126t147 42q96 0 151.5 -42t55.5 -126q0 -86 -55 -127t-152 -41z" />
    <glyph glyph-name="uni0308" unicode="&#x308;" horiz-adv-x="0" 
d="M-862 1128q-199 0 -199 168q0 84 52 126t147 42q96 0 151.5 -42t55.5 -126q0 -86 -55 -127t-152 -41zM-334 1128q-201 0 -201 168q0 84 52.5 126t148.5 42t150.5 -42t54.5 -126q0 -86 -54 -127t-151 -41z" />
    <glyph glyph-name="uni030A" unicode="&#x30a;" horiz-adv-x="0" 
d="M-487 1133q-353 0 -353 264q0 136 92.5 201t260.5 65t261 -65t93 -201q0 -135 -93 -199.5t-261 -64.5zM-487 1333q44 0 68 13.5t24 50.5q0 61 -92 61q-91 0 -91 -61q0 -64 91 -64z" />
    <glyph glyph-name="uni030B" unicode="&#x30b;" horiz-adv-x="0" 
d="M-1372 1317l457 373l202 -189l-456 -373zM-791 1317l457 373l203 -189l-457 -373z" />
    <glyph glyph-name="uni030C" unicode="&#x30c;" horiz-adv-x="0" 
d="M-133 1444l-488 -328l-485 328l207 190l278 -182l281 182z" />
    <glyph glyph-name="uni0312" unicode="&#x312;" horiz-adv-x="0" 
d="M-410 1667l279 -74l-164 -475l-276 74z" />
    <glyph glyph-name="uni0326" unicode="&#x326;" horiz-adv-x="0" 
d="M-416 -100l273 -90l-136 -355l-270 90z" />
    <glyph glyph-name="uni0327" unicode="&#x327;" horiz-adv-x="0" 
d="M-326 -82q195 0 195 -131q0 -47 -19.5 -83.5t-50.5 -61t-81.5 -42.5t-100 -27.5t-119.5 -15t-125.5 -7t-132.5 -1.5v211q46 0 123 -1q127 -2 171 4t44 34q0 14 -13 23.5t-34 9.5q-52 0 -166 -33l-119 80l41 123h287l-111 -125q99 43 211 43z" />
    <glyph glyph-name="uni0328" unicode="&#x328;" horiz-adv-x="0" 
d="M-131 -98v-291l-367 -29q-48 -3 -91 10t-72.5 38t-46 56.5t-14.5 68t24 69.5l123 178h262l-54 -125z" />
    <glyph glyph-name="uni0400" unicode="&#x400;" horiz-adv-x="1267" 
d="M1145 1796l-64 -274l-866 182l64 274zM113 0v1444h1083v-344h-692v-205h590v-344h-590v-207h692v-344h-1083z" />
    <glyph glyph-name="uni0401" unicode="&#x401;" horiz-adv-x="1267" 
d="M387 1532q-199 0 -199 168q0 84 52 126t147 42q96 0 151.5 -42t55.5 -126q0 -86 -55 -127t-152 -41zM915 1532q-200 0 -200 168q0 84 52 126t148 42t150.5 -42t54.5 -126q0 -86 -54 -127t-151 -41zM113 0v1444h1083v-344h-692v-205h590v-344h-590v-207h692v-344h-1083z
" />
    <glyph glyph-name="uni0402" unicode="&#x402;" horiz-adv-x="1824" 
d="M1114 913q113 14 210 15.5t176 -22.5t135.5 -70.5t87 -129t30.5 -198.5q0 -86 -21.5 -158t-58.5 -124t-90 -92t-112 -65t-129 -41t-136 -22t-137 -6v344q136 0 214.5 37t78.5 98q0 55 -35 79t-91.5 21.5t-127.5 -10.5l-254 -37v-532h-391v1100h-432v344h1255v-344h-432
v-223z" />
    <glyph glyph-name="uni0403" unicode="&#x403;" horiz-adv-x="1239" 
d="M186 1796l867 182l63 -274l-866 -182zM113 0v1444h1077v-344h-686v-1100h-391z" />
    <glyph glyph-name="uni0404" unicode="&#x404;" horiz-adv-x="1687" 
d="M864 324q129 0 222.5 61t117.5 174h391q-32 -269 -228 -424t-507 -155q-174 0 -319 57t-243 156.5t-152 235.5t-54 294q0 157 54 293t152 235t243 156t319 57q311 0 507 -154.5t228 -422.5h-391q-24 113 -117 173t-223 60q-137 0 -232.5 -63t-129.5 -189h487v-290h-487
q34 -128 129.5 -191t232.5 -63z" />
    <glyph glyph-name="uni0405" unicode="&#x405;" horiz-adv-x="1484" 
d="M1434 412q0 -204 -158 -318t-485 -114q-385 0 -562.5 147t-177.5 436h391q0 -133 77 -186t286 -53q139 0 188 18t49 57q0 23 -16.5 42t-68 43t-82.5 35.5t-122 43.5q-39 14 -59 21q-228 79 -309 119q-176 85 -234 206q-34 71 -34 162q0 192 152 292.5t438 100.5
q327 0 497 -140t170 -378h-391q0 53 -19.5 88.5t-59 53.5t-85.5 25t-112 7q-199 0 -199 -65q0 -19 3 -27t25 -22.5t66.5 -31.5t132.5 -48q19 -6 82 -27.5t92 -31.5t90.5 -34t95 -40t86.5 -44t83 -51.5t67 -57.5t56.5 -67.5t33 -75t13.5 -85.5z" />
    <glyph glyph-name="uni0406" unicode="&#x406;" horiz-adv-x="1234" 
d="M1143 1100h-330v-756h330v-344h-1051v344h330v756h-330v344h1051v-344z" />
    <glyph glyph-name="uni0407" unicode="&#x407;" horiz-adv-x="1234" 
d="M350 1532q-198 0 -198 168q0 84 51.5 126t146.5 42q96 0 151.5 -42t55.5 -126q0 -86 -55 -127t-152 -41zM879 1532q-201 0 -201 168q0 84 52.5 126t148.5 42q95 0 149.5 -42t54.5 -126q0 -168 -204 -168zM1143 1100h-330v-756h330v-344h-1051v344h330v756h-330v344h1051
v-344z" />
    <glyph glyph-name="uni0408" unicode="&#x408;" horiz-adv-x="1146" 
d="M410 -20l-379 20v344l379 -20q50 -3 89.5 5t66 23t45 42t29 53t16 66t7 72t1.5 79v456l-457 -20v344l653 20q95 3 145 -47.5t50 -146.5v-754q0 -209 -58.5 -327.5t-199.5 -170t-387 -38.5z" />
    <glyph glyph-name="uni0409" unicode="&#x409;" horiz-adv-x="2336" 
d="M1591 999q83 0 146.5 -3.5t137 -16t127.5 -34t106.5 -59t85.5 -89t53 -127t20 -170.5t-20 -170.5t-53 -127.5t-85.5 -89.5t-106.5 -59t-127.5 -34t-137 -16t-146.5 -3.5h-551v1100h-321q-2 -114 -7.5 -205.5t-16.5 -189t-29 -173.5t-45.5 -151.5t-64.5 -131.5t-88 -104.5
t-114.5 -79t-144.5 -48t-178 -17.5v344q154 0 221 163q62 150 72 520q4 129 4 417h1106v-445h157zM1591 344q63 0 100 1.5t73.5 7t54 15t32 27.5t19 43t4.5 62t-4.5 61.5t-19 42.5t-32.5 27.5t-53.5 15t-73 7t-100.5 1.5h-157v-311h157z" />
    <glyph glyph-name="uni040A" unicode="&#x40a;" horiz-adv-x="2473" 
d="M1729 999q83 0 146.5 -3.5t137 -16t127.5 -34t106 -59t85 -89t53 -127t20 -170.5t-20 -170.5t-53 -127.5t-85 -89.5t-106 -59t-127.5 -34t-137 -16t-146.5 -3.5h-551v526h-674v-526h-391v1444h391v-574h674v574h393v-445h158zM1729 344q63 0 100 1.5t73 7t53.5 15
t32 27.5t19 43t4.5 62q0 44 -8.5 71t-24.5 45t-53 26t-78.5 10.5t-117.5 2.5h-158v-311h158z" />
    <glyph glyph-name="uni040B" unicode="&#x40b;" horiz-adv-x="1800" 
d="M1495 1047q93 5 143 -42t50 -139v-866h-392v692l-571 -30v-662h-391v1100h-303v344h1147v-344h-453v-94z" />
    <glyph glyph-name="uni040C" unicode="&#x40c;" horiz-adv-x="1482" 
d="M1151 1704l-866 -182l-64 274l866 182zM989 0l-377 512q-50 -47 -108 -68v-444h-391v1444h391v-502l358 395q98 107 240 107h297v-344h-248l-285 -309l588 -791h-465z" />
    <glyph glyph-name="uni040D" unicode="&#x40d;" horiz-adv-x="1728" 
d="M1409 1796l-63 -274l-867 182l64 274zM1616 0h-393v1110l75 238h-96l-321 -1348h-768v1444h391v-1110l-76 -238h96l322 1348h770v-1444z" />
    <glyph glyph-name="uni040F" unicode="&#x40f;" horiz-adv-x="1599" 
d="M1096 1444h393v-1444h-494v-293h-391v293h-491v1444h391v-1100h592v1100z" />
    <glyph glyph-name="uni0410" unicode="&#x410;" horiz-adv-x="1662" 
d="M1235 0l-111 422h-585l-111 -422h-397l395 1444h809l397 -1444h-397zM629 766h403l-153 582h-97z" />
    <glyph glyph-name="uni0411" unicode="&#x411;" horiz-adv-x="1429" 
d="M662 999q83 0 146.5 -3.5t137 -16t127.5 -34t106 -59t85 -89t53 -127t20 -170.5t-20 -170.5t-53 -127.5t-85 -89.5t-106 -59t-127.5 -34t-137 -16t-146.5 -3.5h-549v1444h1046v-344h-655v-101h158zM662 344q77 0 118.5 2.5t79 10.5t53.5 25.5t24.5 45t8.5 72.5
q0 44 -8.5 71t-24.5 45t-53 26t-79.5 10.5t-118.5 2.5h-158v-311h158z" />
    <glyph glyph-name="uni0412" unicode="&#x412;" horiz-adv-x="1480" 
d="M113 0v1444h557q132 0 226.5 -9.5t170.5 -33t121.5 -64t69.5 -101.5t24 -146q0 -43 -6.5 -79t-16.5 -62.5t-27.5 -47t-34 -34.5t-41.5 -24t-45 -15.5t-49.5 -9t-50 -5t-51 -3t-47.5 -3.5v-94q165 -8 217 -16q168 -29 225 -142q34 -68 34 -172q0 -72 -20.5 -129
t-54.5 -96.5t-88 -68.5t-111 -46t-135.5 -27t-149.5 -13t-162 -3h-555zM504 924h221q10 0 33 -0.5t32 0l27 1.5t26 4.5t19.5 10t16 16t8.5 23.5t4 33q0 26 -8.5 43.5t-19 26t-34.5 13t-39 5t-49 0.5h-16h-221v-176zM504 344h219q18 0 49.5 -0.5t46 -0.5t40 1t37 3t29.5 5.5
t26 9.5t19 15t15.5 21t8 27.5t3.5 35.5q0 23 -3 41t-12 31t-17 21.5t-25.5 14t-30.5 8.5t-38.5 3.5t-42.5 0.5t-50.5 -0.5t-54.5 -0.5h-219v-236z" />
    <glyph glyph-name="uni0413" unicode="&#x413;" horiz-adv-x="1239" 
d="M113 0v1444h1077v-344h-686v-1100h-391z" />
    <glyph glyph-name="uni0414" unicode="&#x414;" horiz-adv-x="1628" 
d="M1462 344h135v-637h-391v293h-784v-293h-391v637h135q101 81 163 369.5t62 730.5h1071v-1100zM557 344h514v756h-299q-21 -301 -78 -496.5t-137 -259.5z" />
    <glyph glyph-name="uni0415" unicode="&#x415;" horiz-adv-x="1267" 
d="M113 0v1444h1083v-344h-692v-205h590v-344h-590v-207h692v-344h-1083z" />
    <glyph glyph-name="uni0416" unicode="&#x416;" horiz-adv-x="2242" 
d="M2212 1100h-248l-332 -363l580 -737h-486l-350 473q-20 -13 -59 -29v-444h-391v444q-41 16 -60 29l-350 -473h-485l579 737l-331 363h-248v344h297q141 0 239 -107l359 -395v502h391v-502l358 395q98 107 240 107h297v-344z" />
    <glyph glyph-name="uni0417" unicode="&#x417;" horiz-adv-x="1542" 
d="M92 551h391q0 -71 17.5 -116.5t57.5 -69.5t91.5 -32.5t132.5 -8.5q141 0 209 28.5t68 98.5q0 58 -45.5 92.5t-122.5 34.5h-201v317h201q147 0 147 102q0 62 -61.5 92.5t-194.5 30.5q-155 0 -216.5 -36t-61.5 -136h-391q0 115 36 204.5t97.5 147.5t150 95.5t186.5 53
t214 15.5q133 0 245.5 -22t200.5 -66t137.5 -116.5t49.5 -167.5q0 -49 -11.5 -89.5t-28.5 -69t-47 -52t-57.5 -37.5t-70 -26.5t-74 -19t-78.5 -14.5v-96q147 -14 202 -30q136 -40 171 -161q14 -48 14 -110q0 -86 -35 -155.5t-95 -115.5t-144 -77.5t-178 -45t-201 -13.5
q-117 0 -216 16t-191.5 56t-156.5 103.5t-102.5 164t-38.5 231.5z" />
    <glyph glyph-name="uni0418" unicode="&#x418;" horiz-adv-x="1728" 
d="M1616 0h-393v1110l75 238h-96l-321 -1348h-768v1444h391v-1110l-76 -238h96l322 1348h770v-1444z" />
    <glyph glyph-name="uni0419" unicode="&#x419;" horiz-adv-x="1728" 
d="M1315 1964q0 -65 -11.5 -124t-40 -116t-72.5 -98t-114 -66.5t-159 -25.5t-159 25.5t-113.5 66.5t-72 98.5t-40 116t-11.5 123.5h289q0 -97 28 -131.5t79 -34.5t79.5 34.5t28.5 131.5h289zM1616 0h-393v1110l75 238h-96l-321 -1348h-768v1444h391v-1110l-76 -238h96
l322 1348h770v-1444z" />
    <glyph glyph-name="uni041A" unicode="&#x41a;" horiz-adv-x="1482" 
d="M989 0l-377 512q-50 -47 -108 -68v-444h-391v1444h391v-502l358 395q98 107 240 107h297v-344h-248l-285 -309l588 -791h-465z" />
    <glyph glyph-name="uni041B" unicode="&#x41b;" horiz-adv-x="1544" 
d="M1434 1444v-1444h-394v1100h-321q-2 -114 -7.5 -205.5t-16.5 -189t-29 -173.5t-45.5 -151.5t-64.5 -131.5t-88 -104.5t-114.5 -79t-144.5 -48t-178 -17.5v344q154 0 221 163q62 150 72 520q4 129 4 417h1106z" />
    <glyph glyph-name="uni041C" unicode="&#x41c;" horiz-adv-x="2119" 
d="M113 0v1444h768l131 -1348h96l131 1348h768v-1444h-391v1110l74 238h-95l-157 -1348h-756l-158 1348h-96l76 -238v-1110h-391z" />
    <glyph glyph-name="uni041D" unicode="&#x41d;" horiz-adv-x="1681" 
d="M1178 1444h393v-1444h-393v526h-674v-526h-391v1444h391v-574h674v574z" />
    <glyph glyph-name="uni041E" unicode="&#x41e;" horiz-adv-x="1705" 
d="M92 723q0 157 53 293t150 235t241 156t318 57q173 0 317 -57t240.5 -156t149.5 -235t53 -293q0 -158 -53 -294t-149.5 -235.5t-240.5 -156.5t-317 -57q-174 0 -318 57t-241 156.5t-150 235.5t-53 294zM483 723q0 -192 94 -295.5t277 -103.5q182 0 275.5 103t93.5 296
q0 191 -93.5 294t-275.5 103q-183 0 -277 -103t-94 -294z" />
    <glyph glyph-name="uni041F" unicode="&#x41f;" horiz-adv-x="1546" 
d="M1434 1444v-1444h-392v1100h-538v-1100h-391v1444h1321z" />
    <glyph glyph-name="uni0420" unicode="&#x420;" horiz-adv-x="1409" 
d="M676 1444q86 0 152.5 -4.5t138 -18t123.5 -37t101 -62.5t79.5 -93t48.5 -131t18 -174t-18 -174t-48.5 -131t-79.5 -93.5t-101.5 -63t-123.5 -37t-137.5 -18t-152.5 -4.5h-172v-403h-391v1444h563zM702 748q49 0 78.5 1.5t61 7t48 17t31 31t20 49t5.5 70.5t-5.5 70.5
t-20 49t-31 31t-48 17t-61 7t-78.5 1.5h-198v-352h198z" />
    <glyph glyph-name="uni0421" unicode="&#x421;" horiz-adv-x="1687" 
d="M92 723q0 157 54 293t152 235t243 156t319 57q311 0 507 -154.5t228 -422.5h-391q-24 113 -117 173t-223 60q-173 0 -277 -99t-104 -298q0 -201 104 -300t277 -99q129 0 222.5 61t117.5 174h391q-32 -269 -228 -424t-507 -155q-174 0 -319 57t-243 156.5t-152 235.5
t-54 294z" />
    <glyph glyph-name="uni0422" unicode="&#x422;" horiz-adv-x="1413" 
d="M1364 1444v-344h-461v-1100h-391v1100h-461v344h1313z" />
    <glyph glyph-name="uni0423" unicode="&#x423;" horiz-adv-x="1456" 
d="M1006 1444h419l-491 -987v-285q0 -96 -50.5 -145.5t-140.5 -46.5l-530 12v344l330 -10v131l-492 987h416l223 -502v-199h96v199z" />
    <glyph glyph-name="uni0424" unicode="&#x424;" horiz-adv-x="1822" 
d="M1772 719q0 -256 -183 -403t-508 -177v-139h-338v137q-330 30 -511 177t-181 405q0 256 181 402.5t511 176.5v146h338v-148q328 -28 509.5 -174.5t181.5 -402.5zM442 719q0 -126 72.5 -177.5t228.5 -62.5v477q-156 -11 -228.5 -62t-72.5 -175zM1081 479
q154 11 226.5 63.5t72.5 176.5t-72 175t-227 62v-477z" />
    <glyph glyph-name="uni0425" unicode="&#x425;" horiz-adv-x="1699" 
d="M31 0l481 676v94l-481 674h450l367 -526l371 526h450l-483 -674v-94l483 -676h-450l-371 528l-367 -528h-450z" />
    <glyph glyph-name="uni0426" unicode="&#x426;" horiz-adv-x="1914" 
d="M1669 344q95 0 145 -49.5t50 -144.5v-443h-391v293h-1360v1444h391v-1100h538v1100h392v-1100h235z" />
    <glyph glyph-name="uni0427" unicode="&#x427;" horiz-adv-x="1579" 
d="M1075 1444h391v-1444h-391v438l-770 -41q-92 -5 -142 42t-50 139v866h391v-692l571 30v662z" />
    <glyph glyph-name="uni0428" unicode="&#x428;" horiz-adv-x="2086" 
d="M1583 1444h391v-1444h-1861v1444h391v-1100h344v1100h391v-1100h344v1100z" />
    <glyph glyph-name="uni0429" unicode="&#x429;" horiz-adv-x="2455" 
d="M2210 344q95 0 144.5 -49.5t49.5 -144.5v-443h-391v293h-1900v1444h391v-1100h344v1100h391v-1100h344v1100h391v-1100h236z" />
    <glyph glyph-name="uni042A" unicode="&#x42a;" horiz-adv-x="1667" 
d="M922 999q83 0 146.5 -3.5t137 -16t127.5 -34t106 -59t85 -89t53 -127t20 -170.5t-20 -170.5t-53 -127.5t-85 -89.5t-106 -59t-127.5 -34t-137 -16t-146.5 -3.5h-551v1100h-340v344h733v-445h158zM922 344q63 0 100 1.5t73 7t53.5 15t32 27.5t19 43t4.5 62q0 44 -8.5 71
t-24.5 45t-53 26t-78.5 10.5t-117.5 2.5h-158v-311h158z" />
    <glyph glyph-name="uni042B" unicode="&#x42b;" horiz-adv-x="2015" 
d="M504 1444v-445h158q83 0 146.5 -3.5t137 -16t127.5 -34t106 -59t85 -89t53 -127t20 -170.5t-20 -170.5t-53 -127.5t-85 -89.5t-106 -59t-127.5 -34t-137 -16t-146.5 -3.5h-549v1444h391zM1511 1444h394v-1444h-394v1444zM504 344h158q77 0 118.5 2.5t79 10.5t53.5 25.5
t24.5 45t8.5 72.5q0 44 -8.5 71t-24.5 45t-53 26t-79.5 10.5t-118.5 2.5h-158v-311z" />
    <glyph glyph-name="uni042C" unicode="&#x42c;" horiz-adv-x="1409" 
d="M504 1444v-445h158q83 0 146.5 -3.5t137 -16t127.5 -34t106 -59t85 -89t53 -127t20 -170.5t-20 -170.5t-53 -127.5t-85 -89.5t-106 -59t-127.5 -34t-137 -16t-146.5 -3.5h-549v1444h391zM504 344h158q77 0 118.5 2.5t79 10.5t53.5 25.5t24.5 45t8.5 72.5q0 44 -8.5 71
t-24.5 45t-53 26t-79.5 10.5t-118.5 2.5h-158v-311z" />
    <glyph glyph-name="uni042D" unicode="&#x42d;" horiz-adv-x="1687" 
d="M827 1464q174 0 319 -57t243 -156t152 -235t54 -293q0 -158 -54 -294t-152 -235.5t-243 -156.5t-319 -57q-311 0 -507 155t-228 424h391q24 -113 117.5 -174t222.5 -61q137 0 233 63t130 191h-488v290h488q-34 126 -130 189t-233 63q-130 0 -223 -60t-117 -173h-391
q32 268 228 422.5t507 154.5z" />
    <glyph glyph-name="uni042E" unicode="&#x42e;" horiz-adv-x="2177" 
d="M1360 1464q176 0 314.5 -53t228.5 -150.5t137 -233.5t47 -304q0 -344 -188 -543.5t-539 -199.5q-306 0 -488.5 151.5t-226.5 419.5h-141v-551h-391v1444h391v-549h141q44 267 227.5 418t487.5 151zM1360 324q161 0 247.5 92t86.5 307q0 214 -86.5 305.5t-247.5 91.5
t-248.5 -92t-87.5 -305q0 -215 87.5 -307t248.5 -92z" />
    <glyph glyph-name="uni042F" unicode="&#x42f;" horiz-adv-x="1449" 
d="M1337 1444v-1444h-391v567h-90l-258 -426q-40 -73 -95 -107t-134 -34h-338v344h258l160 238q-94 14 -166.5 44t-128.5 79.5t-85.5 125t-29.5 175.5q0 101 31.5 177.5t86 125.5t134.5 79.5t169 43t199 12.5h678zM946 885v241h-342q-174 0 -174 -120q0 -60 41.5 -90.5
t132.5 -30.5h342z" />
    <glyph glyph-name="uni0430" unicode="&#x430;" horiz-adv-x="1361" 
d="M72 283q0 96 40 159.5t138.5 106.5t263.5 59l295 33q2 53 -38.5 77.5t-135.5 24.5q-87 0 -129.5 -29.5t-42.5 -74.5h-365q0 103 43 185t117.5 133t170.5 77.5t206 26.5q89 0 168.5 -14.5t154 -50t127.5 -89.5t85 -138t32 -191v-234h150v-344h-250q-80 0 -125 43.5
t-45 124.5l61 129h-94q-15 -70 -42 -123t-75 -99t-128 -70.5t-189 -24.5q-96 0 -169.5 22t-114.5 54t-67 75t-34 79t-8 73zM455 350q0 -53 114 -53q100 0 170 43t70 115l-221 -37q-89 -15 -109 -26q-23 -15 -24 -42z" />
    <glyph glyph-name="uni0431" unicode="&#x431;" horiz-adv-x="1470" 
d="M92 674q0 130 24.5 235t68.5 182.5t111.5 138.5t145.5 102.5t179 74.5q201 67 273 108t85 99h436q-8 -68 -32.5 -125.5t-59 -100t-85 -78.5t-100 -60t-114.5 -45.5t-118.5 -34t-121.5 -25.5q-211 -41 -312 -120t-138 -232l-94 -211h94q34 232 164 355.5t342 123.5
q238 0 394.5 -150.5t156.5 -375.5q0 -95 -23 -177t-74 -152.5t-126 -120t-183.5 -77.5t-243.5 -28q-312 0 -480.5 182.5t-168.5 511.5zM483 526q0 -111 65.5 -156.5t192.5 -45.5q123 0 190.5 48.5t67.5 145.5q0 199 -272 199q-122 0 -183 -46.5t-61 -144.5z" />
    <glyph glyph-name="uni0432" unicode="&#x432;" horiz-adv-x="1214" 
d="M113 0v1040h526q107 0 184.5 -11t140.5 -37t94.5 -74.5t31.5 -118.5q0 -55 -18 -96t-42 -62.5t-61 -35t-61.5 -17.5t-57.5 -6v-95q48 -1 85.5 -4.5t83 -17.5t75.5 -36.5t50.5 -63.5t20.5 -97q0 -268 -450 -268h-602zM477 662h162q56 0 70 8.5t14 46.5q0 39 -15 49t-69 10
h-162v-114zM477 264h238q49 0 66.5 16.5t17.5 53.5q0 39 -15.5 50t-68.5 11h-238v-131z" />
    <glyph glyph-name="uni0433" unicode="&#x433;" horiz-adv-x="1064" 
d="M113 0v1040h942v-344h-551v-696h-391z" />
    <glyph glyph-name="uni0434" unicode="&#x434;" horiz-adv-x="1505" 
d="M1278 344h135v-637h-391v293h-559v-293h-391v637h135q84 88 117.5 242.5t33.5 453.5h920v-696zM598 344h289v352h-154q-15 -128 -47.5 -211t-87.5 -141z" />
    <glyph glyph-name="uni0435" unicode="&#x435;" horiz-adv-x="1320" 
d="M72 532q0 241 156.5 385t410.5 144q252 0 412.5 -141t160.5 -365v-100h-776q-3 -80 59 -127t181 -47q68 0 119.5 25.5t62.5 62.5h391q-4 -46 -28 -97t-72 -103.5t-113 -94t-159 -68t-201 -26.5q-150 0 -267.5 44.5t-190 122t-109.5 175.5t-37 210zM436 621h412
q0 56 -46 89t-163 33q-61 0 -103 -9.5t-63 -27.5t-29 -38t-8 -47z" />
    <glyph glyph-name="uni0436" unicode="&#x436;" horiz-adv-x="1875" 
d="M1845 696h-166l-104 -135l270 -561h-418l-167 365h-9h-116v-365h-394v365h-116h-9l-167 -365h-418l270 561l-104 135h-166v344h192q86 0 146.5 -17.5t99.5 -68.5l182 -245h90v331h394v-331h90l182 245q39 51 99.5 68.5t146.5 17.5h192v-344z" />
    <glyph glyph-name="uni0437" unicode="&#x437;" horiz-adv-x="1243" 
d="M92 397h365q0 -53 10 -84t36 -46t54.5 -19t81.5 -4q69 0 108 16.5t39 58.5q0 19 -4 32.5t-16 22t-20.5 13t-30 6t-32 2t-38.5 0.5h-90v264h90q121 0 121 72q0 43 -30.5 54.5t-104.5 11.5q-95 0 -124.5 -16.5t-29.5 -80.5h-364q0 178 130 269.5t388 91.5
q240 0 369.5 -78.5t129.5 -210.5q0 -111 -66.5 -157.5t-158.5 -39.5v-96q43 2 83.5 -7t78.5 -31t61 -65.5t23 -103.5q0 -133 -135 -212.5t-377 -79.5q-547 0 -547 417z" />
    <glyph glyph-name="uni0438" unicode="&#x438;" horiz-adv-x="1488" 
d="M1419 0h-366v741l75 205h-96l-209 -946h-710v1040h364v-727l-74 -217h95l211 944h710v-1040z" />
    <glyph glyph-name="uni0439" unicode="&#x439;" horiz-adv-x="1488" 
d="M1176 1561q0 -65 -11.5 -124t-40.5 -116t-73 -98.5t-114 -67t-159 -25.5t-158.5 25.5t-113.5 67t-72 98.5t-39.5 116t-11.5 124h289q0 -97 27.5 -131.5t78.5 -34.5q52 0 80.5 34.5t28.5 131.5h289zM1419 0h-366v741l75 205h-96l-209 -946h-710v1040h364v-727l-74 -217h95
l211 944h710v-1040z" />
    <glyph glyph-name="uni043A" unicode="&#x43a;" horiz-adv-x="1294" 
d="M1264 0h-420l-168 367q-18 -2 -55 -2h-117v-365h-391v1040h391v-331h92l182 245q38 51 98.5 68.5t145.5 17.5h195v-344h-166l-76 -98z" />
    <glyph glyph-name="uni043B" unicode="&#x43b;" horiz-adv-x="1318" 
d="M1208 1040v-1040h-393v696h-156q-5 -100 -15 -177.5t-30 -152.5t-49.5 -129.5t-73.5 -101t-103 -75t-138 -44.5t-178 -16v344q45 0 75 10.5t53.5 42t37 78t22 129t11.5 183.5t3 253h934z" />
    <glyph glyph-name="uni043C" unicode="&#x43c;" horiz-adv-x="1921" 
d="M113 0v1040h747l51 -944h97l51 944h749v-1040h-364v727l74 219h-95l-110 -946h-709l-106 946h-97l76 -219v-727h-364z" />
    <glyph glyph-name="uni043D" unicode="&#x43d;" horiz-adv-x="1460" 
d="M956 1040h394v-1040h-394v350h-452v-350h-391v1040h391v-346h452v346z" />
    <glyph glyph-name="uni043E" unicode="&#x43e;" horiz-adv-x="1343" 
d="M72 522q0 112 31.5 203t86.5 152.5t131.5 103.5t164.5 61t188 19q124 0 230 -31t190 -94t132 -169t48 -245q0 -140 -48 -247t-132 -170t-189.5 -94t-230.5 -31q-100 0 -188 19t-164.5 61t-131.5 104t-86.5 153.5t-31.5 204.5zM463 522q0 -102 56.5 -150t154.5 -48
q95 0 151 48t56 150q0 101 -56 148t-151 47q-98 0 -154.5 -47t-56.5 -148z" />
    <glyph glyph-name="uni043F" unicode="&#x43f;" horiz-adv-x="1361" 
d="M1249 1040v-1040h-391v696h-354v-696h-391v1040h1136z" />
    <glyph glyph-name="uni0440" unicode="&#x440;" horiz-adv-x="1435" 
d="M113 1040h391v-28l-76 -211h96q19 44 37.5 76.5t52 69.5t73.5 60t102 38.5t139 15.5q88 0 161 -29t123.5 -79t85 -119t50.5 -147.5t16 -166.5q0 -111 -26 -206.5t-77.5 -171t-137 -119t-195.5 -43.5q-77 0 -139 15.5t-102.5 39t-73.5 60.5t-51.5 69.5t-37.5 77.5h-96
l76 -213v-426h-391v1437zM504 520q0 -106 53 -151t176 -45q126 0 183 45.5t57 150.5q0 104 -57.5 150.5t-182.5 46.5q-123 0 -176 -46t-53 -151z" />
    <glyph glyph-name="uni0441" unicode="&#x441;" horiz-adv-x="1312" 
d="M72 522q0 134 44.5 238t123.5 169t184 98.5t231 33.5q160 0 290.5 -54.5t211.5 -161.5t86 -249h-393q-5 44 -57 82.5t-138 38.5q-81 0 -136.5 -49.5t-55.5 -145.5q0 -98 55.5 -148t136.5 -50q86 0 138 38t57 82h393q-5 -142 -86 -248.5t-211.5 -161t-290.5 -54.5
q-126 0 -231 33.5t-184 99t-123.5 170.5t-44.5 239z" />
    <glyph glyph-name="uni0442" unicode="&#x442;" horiz-adv-x="1275" 
d="M1225 1040v-344h-391v-696h-392v696h-391v344h1174z" />
    <glyph glyph-name="uni0443" unicode="&#x443;" horiz-adv-x="1441" 
d="M967 1040h446l-485 -958v-334q0 -96 -50.5 -145.5t-140.5 -46.5l-551 12v344h349v170l-484 958h443l190 -481v-199h94v199z" />
    <glyph glyph-name="uni0444" unicode="&#x444;" horiz-adv-x="1712" 
d="M1642 524q0 -123 -44.5 -219t-127 -160.5t-193.5 -103.5t-251 -53v-357h-338v357q-288 29 -452 162t-164 374q0 236 164.5 368t451.5 161v329h338v-329q140 -14 251 -52.5t193.5 -102.5t127 -159t44.5 -215zM1026 330q110 13 166.5 56.5t56.5 137.5q0 91 -56.5 133.5
t-166.5 53.5v-381zM463 524q0 -94 57.5 -137.5t167.5 -56.5v381q-109 -11 -167 -54t-58 -133z" />
    <glyph glyph-name="uni0445" unicode="&#x445;" horiz-adv-x="1456" 
d="M51 0l398 473v96l-398 471h465l211 -301l211 301h467l-397 -471v-96l397 -473h-467l-211 303l-211 -303h-465z" />
    <glyph glyph-name="uni0446" unicode="&#x446;" horiz-adv-x="1656" 
d="M1434 344q94 0 144 -49.5t50 -144.5v-443h-393v293h-1122v1040h391v-696h354v696h391v-696h185z" />
    <glyph glyph-name="uni0447" unicode="&#x447;" horiz-adv-x="1394" 
d="M891 1040h391v-1040h-391v369l-584 -39q-91 -6 -142.5 41t-51.5 139v530h391v-362l387 35v327z" />
    <glyph glyph-name="uni0448" unicode="&#x448;" horiz-adv-x="1718" 
d="M1214 1040h392v-1040h-1493v1040h391v-696h160v696h391v-696h159v696z" />
    <glyph glyph-name="uni0449" unicode="&#x449;" horiz-adv-x="2013" 
d="M1790 344q94 0 144.5 -49.5t50.5 -144.5v-443h-394v293h-1478v1040h391v-696h160v696h391v-696h159v696h392v-696h184z" />
    <glyph glyph-name="uni044A" unicode="&#x44a;" horiz-adv-x="1417" 
d="M821 846q525 0 525 -424q0 -422 -525 -422h-514v696h-276v344h667v-194h123zM801 344q95 0 124 14t29 64t-29.5 65t-123.5 15h-103v-158h103z" />
    <glyph glyph-name="uni044B" unicode="&#x44b;" horiz-adv-x="1818" 
d="M627 846q524 0 524 -424q0 -422 -524 -422h-514v1040h391v-194h123zM1315 0v1040h391v-1040h-391zM504 344h102q95 0 124.5 14t29.5 64t-30 65t-124 15h-102v-158z" />
    <glyph glyph-name="uni044C" unicode="&#x44c;" horiz-adv-x="1222" 
d="M627 846q524 0 524 -424q0 -422 -524 -422h-514v1040h391v-194h123zM504 344h102q95 0 124.5 14t29.5 64t-30 65t-124 15h-102v-158z" />
    <glyph glyph-name="uni044D" unicode="&#x44d;" horiz-adv-x="1312" 
d="M657 1061q126 0 231.5 -33.5t185 -98.5t124.5 -169.5t45 -237.5q0 -134 -45 -239t-124.5 -170.5t-185 -99t-231.5 -33.5q-159 0 -289.5 54.5t-211 161.5t-84.5 248h391q5 -44 57 -82t137 -38q58 0 105 26t69 78h-251v186h251q-22 52 -68.5 77.5t-105.5 25.5
q-85 0 -137 -38.5t-57 -82.5h-391q4 141 84.5 248.5t211 162t289.5 54.5z" />
    <glyph glyph-name="uni044E" unicode="&#x44e;" horiz-adv-x="1746" 
d="M1145 1061q257 0 393.5 -145t136.5 -394q0 -250 -136.5 -396t-393.5 -146q-211 0 -342.5 98t-173.5 272h-125v-350h-391v1040h391v-346h127q42 173 173 270t341 97zM1145 324q73 0 106 43t33 155q0 109 -33 152t-106 43q-76 0 -110 -43t-34 -152q0 -112 34 -155t110 -43z
" />
    <glyph glyph-name="uni044F" unicode="&#x44f;" horiz-adv-x="1175" 
d="M1063 1040v-1040h-391v395h-66l-211 -272q-50 -66 -103.5 -94.5t-129.5 -28.5h-152v317h152l82 89q-50 8 -88 26.5t-70.5 53.5t-50 93.5t-17.5 139.5q0 70 24.5 126t64 92t92.5 59.5t107.5 33.5t111.5 10h645zM672 635v168h-142q-120 0 -120 -84t120 -84h142z" />
    <glyph glyph-name="uni0450" unicode="&#x450;" horiz-adv-x="1320" 
d="M1151 1393l-64 -275l-866 182l64 275zM72 532q0 241 156.5 385t410.5 144q252 0 412.5 -141t160.5 -365v-100h-776q-3 -80 59 -127t181 -47q68 0 119.5 25.5t62.5 62.5h391q-4 -46 -28 -97t-72 -103.5t-113 -94t-159 -68t-201 -26.5q-150 0 -267.5 44.5t-190 122
t-109.5 175.5t-37 210zM436 621h412q0 56 -46 89t-163 33q-61 0 -103 -9.5t-63 -27.5t-29 -38t-8 -47z" />
    <glyph glyph-name="uni0451" unicode="&#x451;" horiz-adv-x="1320" 
d="M393 1128q-198 0 -198 168q0 84 51.5 126t146.5 42q96 0 151.5 -42t55.5 -126q0 -86 -55 -127t-152 -41zM922 1128q-201 0 -201 168q0 84 52.5 126t148.5 42q95 0 149.5 -42t54.5 -126q0 -168 -204 -168zM72 532q0 241 156.5 385t410.5 144q252 0 412.5 -141t160.5 -365
v-100h-776q-3 -80 59 -127t181 -47q68 0 119.5 25.5t62.5 62.5h391q-4 -46 -28 -97t-72 -103.5t-113 -94t-159 -68t-201 -26.5q-150 0 -267.5 44.5t-190 122t-109.5 175.5t-37 210zM436 621h412q0 56 -46 89t-163 33q-61 0 -103 -9.5t-63 -27.5t-29 -38t-8 -47z" />
    <glyph glyph-name="uni0452" unicode="&#x452;" horiz-adv-x="1564" 
d="M1030 1061q209 0 326 -137t117 -389v-760q0 -96 -50 -145t-141 -46l-551 13v344l350 -11v541q0 137 -41.5 191.5t-152.5 54.5q-52 0 -90.5 -8.5t-73 -32.5t-56 -63.5t-34 -103.5t-12.5 -151v-358h-394v1124h-129v291h129v90h394v-90h280v-291h-280v-188l-76 -211h96
q31 148 130.5 242t258.5 94z" />
    <glyph glyph-name="uni0453" unicode="&#x453;" horiz-adv-x="1083" 
d="M111 1393l866 182l63 -275l-866 -182zM131 0v1040h944v-344h-553v-696h-391z" />
    <glyph glyph-name="uni0454" unicode="&#x454;" horiz-adv-x="1314" 
d="M655 324q86 0 138 38t57 82h393q-5 -142 -86 -248.5t-211.5 -161t-290.5 -54.5q-126 0 -231 33.5t-184 99t-123.5 170.5t-44.5 239t44.5 238t123.5 169t184 98.5t231 33.5q160 0 290.5 -54.5t211.5 -161.5t86 -249h-393q-5 44 -57 82.5t-138 38.5q-58 0 -105 -26t-69 -77
h252v-186h-252q24 -52 70.5 -78t103.5 -26z" />
    <glyph glyph-name="uni0455" unicode="&#x455;" horiz-adv-x="1171" 
d="M1141 295q0 -146 -122.5 -230.5t-391.5 -84.5q-292 0 -434 103.5t-142 291.5h391q0 -41 45.5 -77t153.5 -36q109 0 109 43q0 18 -27 31q-21 9 -166 59q-24 8 -74.5 24t-79.5 26t-75 28.5t-74 35t-61 43t-51.5 55.5t-31 68t-12.5 85q0 145 124 223t347 78
q252 0 394.5 -110t142.5 -277h-391q0 39 -38 71.5t-102 32.5q-47 0 -66.5 -8.5t-19.5 -28.5q0 -14 11.5 -26t41.5 -24t55.5 -20.5t80.5 -25t90 -27.5q54 -18 85 -28.5t76 -29.5t71 -35t56.5 -40.5t46.5 -51t27 -62t11 -76.5z" />
    <glyph glyph-name="uni0456" unicode="&#x456;" horiz-adv-x="1071" 
d="M528 1128q-198 0 -198 168q0 84 51.5 126t146.5 42q96 0 151.5 -42t55.5 -126q0 -86 -55 -127t-152 -41zM72 0v344h286v363l-260 -11v344l455 21q94 5 146.5 -46.5t52.5 -148.5v-522h288v-344h-968z" />
    <glyph glyph-name="uni0457" unicode="&#x457;" horiz-adv-x="1122" 
d="M260 1128q-201 0 -201 168q0 84 53 126t148 42q96 0 150.5 -42t54.5 -126q0 -86 -54 -127t-151 -41zM786 1128q-200 0 -200 168q0 84 52.5 126t147.5 42q96 0 150.5 -42t54.5 -126q0 -86 -54 -127t-151 -41zM123 0v344h295v363l-268 -11v344l452 21q93 5 145 -43.5
t52 -140.5v-533h293v-344h-969z" />
    <glyph glyph-name="uni0458" unicode="&#x458;" horiz-adv-x="761" 
d="M463 1128q-201 0 -201 168q0 84 53 126t148 42q96 0 150.5 -42t54.5 -126q0 -86 -54 -127t-151 -41zM10 -424l230 371q34 52 34 139v621l-266 -11v344l481 13q92 3 143.5 -47t51.5 -144v-801q0 -75 -35 -139l-196 -346h-443z" />
    <glyph glyph-name="uni0459" unicode="&#x459;" horiz-adv-x="1925" 
d="M1329 846q526 0 526 -424q0 -422 -526 -422h-514v696h-156q-5 -100 -15 -177.5t-30 -152.5t-49.5 -129.5t-73.5 -101t-103 -75t-138 -44.5t-178 -16v344q45 0 75 10.5t53.5 42t37 78t22 129t11.5 183.5t3 253h934v-194h121zM1309 344q96 0 124.5 14t28.5 64t-29 65
t-124 15h-101v-158h101z" />
    <glyph glyph-name="uni045A" unicode="&#x45a;" horiz-adv-x="2066" 
d="M1470 846q527 0 527 -424q0 -422 -527 -422h-514v350h-452v-350h-391v1040h391v-346h452v346h394v-194h120zM1450 344q96 0 125 14t29 64t-29.5 65t-124.5 15h-100v-158h100z" />
    <glyph glyph-name="uni045B" unicode="&#x45b;" horiz-adv-x="1538" 
d="M1001 1061q211 0 328 -137t117 -389v-535h-391v471q0 137 -42.5 191.5t-154.5 54.5q-51 0 -89.5 -8.5t-73 -32.5t-56.5 -63.5t-34.5 -103.5t-12.5 -151v-358h-391v1124h-129v291h129v90h391v-90h280v-291h-280v-188l-74 -211h94q33 148 132.5 242t256.5 94z" />
    <glyph glyph-name="uni045C" unicode="&#x45c;" horiz-adv-x="1294" 
d="M1139 1300l-867 -182l-63 275l866 182zM1264 0h-420l-168 367q-18 -2 -55 -2h-117v-365h-391v1040h391v-331h92l182 245q38 51 98.5 68.5t145.5 17.5h195v-344h-166l-76 -98z" />
    <glyph glyph-name="uni045F" unicode="&#x45f;" horiz-adv-x="1449" 
d="M946 1014h391v-1014h-415v-293h-394v293h-415v1014h391v-670h442v670z" />
    <glyph glyph-name="uni0490" unicode="&#x490;" horiz-adv-x="1198" 
d="M797 1683h393v-583h-686v-1100h-391v1444h684v239z" />
    <glyph glyph-name="uni0491" unicode="&#x491;" horiz-adv-x="1064" 
d="M664 1298h391v-602h-551v-696h-391v1040h551v258z" />
    <glyph glyph-name="Wgrave" unicode="&#x1e80;" horiz-adv-x="2519" 
d="M1749 1796l-63 -274l-867 182l64 274zM31 1444h381l202 -1348h95l133 1348h835l133 -1348h95l202 1348h381l-223 -1444h-815l-143 1348h-95l-143 -1348h-815z" />
    <glyph glyph-name="wgrave" unicode="&#x1e81;" horiz-adv-x="2013" 
d="M1497 1393l-63 -275l-867 182l64 275zM10 1040h375l88 -944h94l29 944h821l29 -944h96l90 944h373l-102 -1040h-820l-28 946h-97l-28 -946h-819z" />
    <glyph glyph-name="Wacute" unicode="&#x1e82;" horiz-adv-x="2519" 
d="M766 1796l866 182l64 -274l-867 -182zM31 1444h381l202 -1348h95l133 1348h835l133 -1348h95l202 1348h381l-223 -1444h-815l-143 1348h-95l-143 -1348h-815z" />
    <glyph glyph-name="wacute" unicode="&#x1e83;" horiz-adv-x="2013" 
d="M514 1393l866 182l64 -275l-866 -182zM10 1040h375l88 -944h94l29 944h821l29 -944h96l90 944h373l-102 -1040h-820l-28 946h-97l-28 -946h-819z" />
    <glyph glyph-name="Wdieresis" unicode="&#x1e84;" horiz-adv-x="2519" 
d="M991 1532q-198 0 -198 168q0 84 51.5 126t146.5 42q96 0 151.5 -42t55.5 -126q0 -86 -55 -127t-152 -41zM1520 1532q-201 0 -201 168q0 84 52.5 126t148.5 42q95 0 149.5 -42t54.5 -126q0 -168 -204 -168zM31 1444h381l202 -1348h95l133 1348h835l133 -1348h95l202 1348
h381l-223 -1444h-815l-143 1348h-95l-143 -1348h-815z" />
    <glyph glyph-name="wdieresis" unicode="&#x1e85;" horiz-adv-x="2013" 
d="M739 1128q-198 0 -198 168q0 84 51.5 126t146.5 42q96 0 151.5 -42t55.5 -126q0 -86 -55 -127t-152 -41zM1268 1128q-201 0 -201 168q0 84 52.5 126t148.5 42t150.5 -42t54.5 -126q0 -86 -54 -127t-151 -41zM10 1040h375l88 -944h94l29 944h821l29 -944h96l90 944h373
l-102 -1040h-820l-28 946h-97l-28 -946h-819z" />
    <glyph glyph-name="uni1E9E" unicode="&#x1e9e;" horiz-adv-x="1527" 
d="M618 0v344l228 -18q129 -9 184 15.5t55 86.5q0 60 -34.5 96t-86 40.5t-115.5 -24t-118 -87.5l-113 467l308 69q0 131 -181 131q-115 0 -178 -55t-63 -188v-877h-391v936q0 150 84.5 271.5t229 189t318.5 67.5q68 0 142 -17.5t152 -60.5t139 -104.5t100 -159t39 -215.5
l-559 -176l18 -90q68 51 148.5 77.5t158 28t149.5 -23t126.5 -70t87.5 -119.5t33 -165q0 -146 -61.5 -237t-203 -131t-368.5 -21z" />
    <glyph glyph-name="Ygrave" unicode="&#x1ef2;" horiz-adv-x="1533" 
d="M1255 1796l-63 -274l-866 182l63 274zM1083 1444h420l-542 -1008v-436h-392v436l-538 1008h418l268 -559v-213h96v213z" />
    <glyph glyph-name="ygrave" unicode="&#x1ef3;" horiz-adv-x="1441" 
d="M1221 1393l-64 -275l-866 182l63 275zM967 1040h446l-485 -958v-334q0 -96 -50.5 -145.5t-140.5 -46.5l-551 12v344h349v170l-484 958h443l190 -481v-199h94v199z" />
    <glyph glyph-name="endash" unicode="&#x2013;" horiz-adv-x="1859" 
d="M133 713h1593v-291h-1593v291z" />
    <glyph glyph-name="emdash" unicode="&#x2014;" horiz-adv-x="2269" 
d="M133 713h2003v-291h-2003v291z" />
    <glyph glyph-name="quoteleft" unicode="&#x2018;" horiz-adv-x="722" 
d="M406 1620l184 -684l-277 -76l-184 686z" />
    <glyph glyph-name="quoteright" unicode="&#x2019;" horiz-adv-x="722" 
d="M317 1620l277 -74l-184 -686l-277 76z" />
    <glyph glyph-name="quotesinglbase" unicode="&#x201a;" horiz-adv-x="755" 
d="M346 389l277 -74l-213 -780l-277 76z" />
    <glyph glyph-name="quotedblleft" unicode="&#x201c;" horiz-adv-x="1165" 
d="M406 1620l184 -684l-277 -76l-184 686zM848 1620l184 -684l-276 -76l-185 686z" />
    <glyph glyph-name="quotedblright" unicode="&#x201d;" horiz-adv-x="1165" 
d="M317 1620l277 -74l-184 -686l-277 76zM760 1620l276 -74l-184 -686l-277 76z" />
    <glyph glyph-name="quotedblbase" unicode="&#x201e;" horiz-adv-x="1200" 
d="M346 389l277 -74l-213 -780l-277 76zM791 389l276 -74l-213 -780l-276 76z" />
    <glyph glyph-name="dagger" unicode="&#x2020;" horiz-adv-x="1206" 
d="M1075 1427v-290h-327v-828h-289v828h-326v290h326v320h289v-320h327z" />
    <glyph glyph-name="daggerdbl" unicode="&#x2021;" horiz-adv-x="1206" 
d="M1075 1137h-327v-217h327v-291h-327v-320h-289v320h-326v291h326v217h-326v290h326v320h289v-320h327v-290z" />
    <glyph glyph-name="bullet" unicode="&#x2022;" horiz-adv-x="1712" 
d="M848 -219q-168 0 -307.5 56t-230.5 152.5t-141 224.5t-50 273q0 140 50 265t141 220.5t230.5 151.5t307.5 56q164 0 305 -56t236.5 -151t149.5 -221t54 -265q0 -144 -54 -273t-149.5 -224.5t-236.5 -152t-305 -56.5z" />
    <glyph glyph-name="ellipsis" unicode="&#x2026;" horiz-adv-x="1941" 
d="M377 -20q-115 0 -182.5 69.5t-67.5 171.5q0 99 68 167.5t182 68.5q113 0 184.5 -69t71.5 -167q0 -101 -71.5 -171t-184.5 -70zM969 -20q-116 0 -183 69t-67 172q0 100 67 168t183 68q111 0 182.5 -69t71.5 -167q0 -101 -71 -171t-183 -70zM1559 -20q-115 0 -182.5 69.5
t-67.5 171.5q0 99 68 167.5t182 68.5q112 0 182.5 -69t70.5 -167q0 -101 -70 -171t-183 -70z" />
    <glyph glyph-name="perthousand" unicode="&#x2030;" horiz-adv-x="3661" 
d="M1524 1640l274 -108l-719 -1782l-274 107zM629 535q-145 0 -259.5 67.5t-175.5 180t-61 247.5q0 101 36 191.5t100 158t157.5 107t202.5 39.5q145 0 259 -68t175 -180.5t61 -247.5t-61 -247.5t-175 -180t-259 -67.5zM629 825q89 0 147 60t58 145t-58 145t-147 60
q-90 0 -148.5 -60t-58.5 -145t58.5 -145t148.5 -60zM1962 -184q-145 0 -259.5 67.5t-175.5 180t-61 247.5q0 101 36 191.5t100 158t157.5 107t202.5 39.5t202.5 -39.5t157.5 -107t100 -158t36 -191.5q0 -135 -61 -247.5t-175.5 -180t-259.5 -67.5zM3033 -184
q-145 0 -259.5 67.5t-175.5 180t-61 247.5q0 101 36 191.5t100 158t157.5 107t202.5 39.5t202.5 -39.5t157.5 -107t100 -158t36 -191.5q0 -135 -61 -247.5t-175.5 -180t-259.5 -67.5zM1962 106q89 0 148 60t59 145t-59 145t-148 60t-148 -60t-59 -145t59 -145t148 -60z
M3033 106q89 0 148 60t59 145t-59 145t-148 60t-148 -60t-59 -145t59 -145t148 -60z" />
    <glyph glyph-name="guilsinglleft" unicode="&#x2039;" horiz-adv-x="1161" 
d="M1028 14l-211 -192l-684 686l684 684l211 -193l-487 -491z" />
    <glyph glyph-name="guilsinglright" unicode="&#x203a;" horiz-adv-x="1161" 
d="M133 14l488 494l-488 491l211 193l684 -684l-684 -686z" />
    <glyph glyph-name="fraction" unicode="&#x2044;" horiz-adv-x="929" 
d="M688 1667l273 -108l-719 -1782l-273 108z" />
    <glyph glyph-name="Euro" unicode="&#x20ac;" horiz-adv-x="1820" 
d="M1044 324q47 0 82.5 6t73.5 23.5t63.5 55.5t36.5 95h388q-34 -249 -204 -386.5t-440 -137.5q-275 0 -451.5 133.5t-238.5 361.5h-221v187h193q-2 20 -2 61q0 39 2 57h-193v187h221q61 230 237 363.5t453 133.5q270 0 440 -136.5t204 -385.5h-392q-10 57 -35 94.5
t-62.5 54.5t-72 23t-82.5 6q-52 0 -89.5 -5.5t-78 -20.5t-71 -46.5t-51.5 -80.5h385v-187h-422q-2 -18 -2 -57q0 -43 2 -61h422v-187h-385q21 -48 52 -79.5t71.5 -46.5t78 -20t88.5 -5z" />
    <glyph glyph-name="trademark" unicode="&#x2122;" horiz-adv-x="2048" 
d="M770 1444v-215h-199v-469h-235v469h-203v215h637zM1440 1444h475v-684h-236v403l64 185h-74l-63 -588h-486l-65 588h-74l63 -185v-403h-235v684h477l53 -588h47z" />
    <glyph glyph-name="oneeighth" unicode="&#x215b;" horiz-adv-x="2574" 
d="M1452 1667l272 -108l-718 -1782l-273 108zM49 1257q54 51 75.5 73.5t42.5 63.5t28.5 83t19.5 131h533v-1014h-287v749l51 168h-72q-23 -418 -266 -518zM1651 256q0 205 295 246v47q-33 4 -63 12t-65 25t-60.5 40.5t-42.5 61.5t-17 86q0 123 96.5 191.5t292.5 68.5
q195 0 291 -68.5t96 -191.5q0 -48 -17 -86t-42 -61.5t-60 -40.5t-65 -25t-62 -12v-47q295 -41 295 -246q0 -128 -115 -202t-321 -74t-321 74t-115 202zM1985 727q0 -17 3 -28.5t12 -25t31 -21t56 -7.5t56 7t30.5 21.5t11 25.5t2.5 28q0 16 -2.5 25.5t-11.5 21.5t-30.5 17.5
t-55.5 5.5t-56 -6t-31.5 -17.5t-12 -21.5t-2.5 -25zM1937 309q0 -52 38 -72t112 -20q73 0 111 20t38 72q0 54 -38.5 75.5t-110.5 21.5q-73 0 -111.5 -21.5t-38.5 -75.5z" />
    <glyph glyph-name="threeeighths" unicode="&#x215c;" horiz-adv-x="2631" 
d="M1530 1667l272 -108l-719 -1782l-272 108zM51 983h285q0 -54 13.5 -88.5t42 -50t57.5 -20.5t75 -5q79 0 115.5 19.5t36.5 83.5q0 56 -31 71t-102 15h-99v235h99q67 0 93 14t26 64q0 47 -32 62.5t-106 15.5q-89 0 -131.5 -23t-42.5 -90h-287q0 166 121.5 258t339.5 92
q213 0 319.5 -76t106.5 -194q0 -46 -15 -80.5t-36.5 -55t-59 -35.5t-68.5 -22t-79 -14v-74q8 -2 39.5 -8t40.5 -8t36.5 -9t37 -11.5t31 -14t30 -18.5t22.5 -23.5t19.5 -30t10 -36.5t4.5 -45q0 -140 -110 -219.5t-329 -79.5q-225 0 -349 100t-124 301zM1710 256
q0 205 295 246v47q-33 4 -63 12t-65 25t-60.5 40.5t-42.5 61.5t-17 86q0 123 96.5 191.5t292.5 68.5q195 0 291 -68.5t96 -191.5q0 -48 -17 -86t-42 -61.5t-59.5 -40.5t-64.5 -25t-62 -12v-47q295 -41 295 -246q0 -128 -115.5 -202t-321.5 -74t-321 74t-115 202zM2042 727
q0 -16 3 -28t12.5 -25.5t32 -21t56.5 -7.5t56 7.5t31 21t11.5 25t2.5 28.5q0 15 -2.5 25t-11.5 21.5t-31 17.5t-56 6t-56.5 -6t-32 -17t-12.5 -21.5t-3 -25.5zM1995 309q0 -52 38 -72t113 -20q73 0 111.5 20t38.5 72q0 54 -39 75.5t-111 21.5q-74 0 -112.5 -21.5
t-38.5 -75.5z" />
    <glyph glyph-name="fiveeighths" unicode="&#x215d;" horiz-adv-x="2615" 
d="M1513 1667l273 -108l-719 -1782l-272 108zM51 924h285q0 -51 44 -78t105 -27q81 0 123.5 27t42.5 92q0 145 -110 145q-86 0 -158 -112l-313 98v549h817v-238h-533v-172l-39 -100l47 -27q24 108 98.5 175t201.5 67q75 0 130 -29.5t86 -80.5t45.5 -112t14.5 -132
q0 -77 -25 -144.5t-76 -123t-138 -87.5t-201 -32q-215 0 -331 87.5t-116 254.5zM1694 256q0 205 295 246v47q-33 4 -63 12t-65 25t-60.5 40.5t-42.5 61.5t-17 86q0 123 96.5 191.5t292.5 68.5q195 0 291 -68.5t96 -191.5q0 -48 -17 -86t-42 -61.5t-60 -40.5t-65 -25t-62 -12
v-47q295 -41 295 -246q0 -128 -115 -202t-321 -74t-321 74t-115 202zM2025 727q0 -16 3 -28t12.5 -25.5t32 -21t57.5 -7.5q33 0 55 7.5t31 21t11.5 25t2.5 28.5q0 15 -2.5 25t-12 21.5t-30.5 17.5t-55 6q-35 0 -57.5 -6t-32 -17t-12.5 -21.5t-3 -25.5zM1978 309
q0 -52 38.5 -72t113.5 -20q73 0 111 20t38 72q0 54 -38.5 75.5t-110.5 21.5q-75 0 -113.5 -21.5t-38.5 -75.5z" />
    <glyph glyph-name="seveneighths" unicode="&#x215e;" horiz-adv-x="2473" 
d="M1382 1667l273 -108l-719 -1782l-272 108zM160 594q0 168 37 289.5t114 203.5t185 131t262 78v74h-707v238h803v-480q-121 -32 -199.5 -76t-125 -110t-65 -148t-18.5 -200h-286zM1552 256q0 205 295 246v47q-33 4 -63 12t-65 25t-60.5 40.5t-42.5 61.5t-17 86
q0 123 96.5 191.5t293.5 68.5q195 0 291 -68.5t96 -191.5q0 -48 -17 -86t-42 -61.5t-60 -40.5t-65 -25t-62 -12v-47q295 -41 295 -246q0 -128 -115 -202t-321 -74t-321.5 74t-115.5 202zM1884 727q0 -16 3 -28t13 -25.5t32.5 -21t56.5 -7.5t56 7t30.5 21.5t11 25.5t2.5 28
q0 16 -2.5 25.5t-11.5 21.5t-30.5 17.5t-55.5 5.5t-56.5 -6t-32.5 -17t-13 -21.5t-3 -25.5zM1837 309q0 -52 38.5 -72t113.5 -20q73 0 111 20t38 72q0 54 -38.5 75.5t-110.5 21.5q-75 0 -113.5 -21.5t-38.5 -75.5z" />
    <glyph glyph-name="arrowleft" unicode="&#x2190;" horiz-adv-x="1884" 
d="M1751 651v-289h-1067l344 -348l-211 -192l-684 686l684 684l211 -193l-346 -348h1069z" />
    <glyph glyph-name="arrowup" unicode="&#x2191;" horiz-adv-x="1634" 
d="M1503 623l-192 -211l-350 344v-1067h-289v1069l-348 -346l-193 211l684 684z" />
    <glyph glyph-name="arrowright" unicode="&#x2192;" horiz-adv-x="1884" 
d="M1067 1192l684 -684l-684 -686l-211 192l344 348h-1067v289h1069l-346 348z" />
    <glyph glyph-name="arrowdown" unicode="&#x2193;" horiz-adv-x="1634" 
d="M1311 573l192 -211l-688 -686l-684 686l193 211l348 -346v1069h289v-1067z" />
    <glyph glyph-name="arrowboth" unicode="&#x2194;" horiz-adv-x="2967" 
d="M2150 1384l686 -686l-686 -686l-211 193l345 348h-1067v291h1067l-345 348zM1028 809l-346 -348h1069v-289h-1067l344 -350l-211 -193l-684 688l684 684z" />
    <glyph glyph-name="arrowupdn" unicode="&#x2195;" horiz-adv-x="2029" 
d="M651 213v1069l-348 -346l-192 211l684 684l688 -684l-193 -211l-350 344v-1067h-289zM1726 49l193 -211l-686 -684l-684 684l190 211l348 -344v1067h291v-1067z" />
    <glyph glyph-name="uni2196" unicode="&#x2196;" horiz-adv-x="1511" 
d="M1378 115l-204 -205l-756 756l-2 -492l-285 12v971h969l14 -287l-489 -2z" />
    <glyph glyph-name="uni2197" unicode="&#x2197;" horiz-adv-x="1511" 
d="M1380 186l-286 -12l-2 490l-756 -754l-205 205l756 753l-490 2l13 287h968z" />
    <glyph glyph-name="uni2198" unicode="&#x2198;" horiz-adv-x="1511" 
d="M1094 813l286 -12l-2 -971h-968l-13 287l490 2l-756 753l205 205l756 -753z" />
    <glyph glyph-name="uni2199" unicode="&#x2199;" horiz-adv-x="1511" 
d="M1378 872l-753 -753l489 -2l-14 -287h-969v971l285 12l2 -491l756 755z" />
    <glyph glyph-name="partialdiff" unicode="&#x2202;" horiz-adv-x="1605" 
d="M1470 653q0 -316 -179.5 -494.5t-493.5 -178.5q-299 0 -481.5 150t-182.5 386q0 113 40 211.5t113.5 173t186 117.5t248.5 43q123 0 218.5 -39.5t156 -111t93.5 -164.5t40 -207h94l-74 215q-12 104 -54.5 183t-109 134.5t-169 95.5t-219.5 65t-277 44v344
q191 -19 346.5 -61t288.5 -118.5t223.5 -183.5t141 -260t50.5 -344zM1081 516q0 116 -62 158.5t-212 42.5q-151 0 -217 -42.5t-66 -158.5q0 -91 71.5 -141.5t211.5 -50.5q142 0 208 45.5t66 146.5z" />
    <glyph glyph-name="emptyset" unicode="&#x2205;" horiz-adv-x="2029" 
d="M1581 1266q150 -122 232.5 -302.5t82.5 -388.5q0 -181 -64.5 -343t-178 -281t-279.5 -188.5t-360 -69.5q-164 0 -309 51l-105 -180l-254 145l103 176q-150 122 -233 301.5t-83 388.5q0 145 40.5 278.5t118 243t184 190.5t245 126t293.5 45q166 0 311 -51l105 180
l253 -145zM422 575q0 -124 46 -235t130 -193l578 1000q-73 20 -162 20q-170 0 -307 -81.5t-211 -216.5t-74 -294zM1014 -16q129 0 241 47.5t188.5 128t120.5 188.5t44 227q0 124 -46 235.5t-130 193.5l-578 -1000q70 -20 160 -20z" />
    <glyph glyph-name="product" unicode="&#x220f;" horiz-adv-x="1728" 
d="M1595 1444v-291h-311v-1522h-287v1522h-266v-1522h-285v1522h-313v291h1462z" />
    <glyph glyph-name="summation" unicode="&#x2211;" horiz-adv-x="1384" 
d="M133 -367v588l606 271v94l-606 270v588h1118v-291h-833l-213 74v-94l831 -418v-353l-831 -417v-95l213 74h833v-291h-1118z" />
    <glyph glyph-name="minus" unicode="&#x2212;" horiz-adv-x="1423" 
d="M133 713h1157v-291h-1157v291z" />
    <glyph glyph-name="radical" unicode="&#x221a;" horiz-adv-x="1730" 
d="M975 1272q37 172 215 172h407v-291h-372l-330 -1522h-608l-154 789h287l123 -692h96z" />
    <glyph glyph-name="infinity" unicode="&#x221e;" horiz-adv-x="2263" 
d="M133 614q0 119 39.5 223t104.5 173.5t149.5 109t173.5 39.5q55 0 105.5 -11.5t90 -29t78 -45t66 -54t58 -62.5t49.5 -62.5t45 -62t41 -54.5q16 20 46.5 63t53 72.5t58 70.5t72 68.5t82 54t101 39.5t117.5 13q90 0 174.5 -39.5t150 -109t105 -173.5t39.5 -223
t-39.5 -222.5t-105 -173t-150 -109t-174.5 -39.5q-62 0 -117.5 13t-101 39.5t-82 54t-72 68.5t-58 70.5t-53 72.5t-46.5 63q-15 -19 -41 -54.5t-45 -62t-49.5 -62.5t-58 -62.5t-66 -54t-78 -45t-90 -29t-105.5 -11.5q-89 0 -173.5 39.5t-149.5 109t-104.5 173t-39.5 222.5z
M418 614q0 -116 70.5 -185t191.5 -69q40 0 73.5 10t56 24t47.5 41t41 49.5t44 62.5t49 67q-21 27 -49 67t-44 62.5t-41 49.5t-47.5 41t-56 24t-73.5 10q-121 0 -191.5 -69t-70.5 -185zM1272 614q21 -27 49 -67t44 -62.5t41.5 -49.5t48.5 -41t56.5 -24t73.5 -10
q121 0 190.5 69t69.5 185t-69.5 185t-190.5 69q-40 0 -73.5 -10t-56.5 -24t-48.5 -41t-41.5 -49.5t-44 -62.5t-49 -67z" />
    <glyph glyph-name="integral" unicode="&#x222b;" horiz-adv-x="1562" 
d="M133 -369v291h387l367 1358q43 164 219 164h324v-291h-279l-367 -1358q-43 -164 -219 -164h-432z" />
    <glyph glyph-name="approxequal" unicode="&#x2248;" horiz-adv-x="1390" 
d="M133 567q0 213 79.5 336t229.5 123q68 0 139 -25.5t119.5 -55.5t98.5 -55.5t82 -25.5q50 0 69 38t19 132h288q0 -214 -80 -337.5t-231 -123.5q-67 0 -138 25.5t-119 55.5t-98 55.5t-81 25.5q-50 0 -69 -37t-19 -131h-289zM133 47q0 214 80 337.5t229 123.5
q68 0 139 -25.5t119.5 -55.5t98.5 -55.5t82 -25.5q50 0 69 37t19 131h288q0 -214 -80 -336.5t-231 -122.5q-67 0 -138 25.5t-119 55.5t-98 55.5t-81 25.5q-50 0 -69 -38t-19 -132h-289z" />
    <glyph glyph-name="notequal" unicode="&#x2260;" horiz-adv-x="1423" 
d="M1290 655h-393l-100 -174h493v-291h-661l-191 -331l-202 118l122 213h-225v291h393l101 174h-494v291h662l190 332l203 -119l-123 -213h225v-291z" />
    <glyph glyph-name="lessequal" unicode="&#x2264;" horiz-adv-x="1441" 
d="M133 745v285l1088 436l88 -276l-840 -301l840 -273l-88 -276zM1309 270v-293h-1157v293h1157z" />
    <glyph glyph-name="greaterequal" unicode="&#x2265;" horiz-adv-x="1441" 
d="M1309 745l-1088 -405l-88 276l840 273l-840 301l88 276l1088 -436v-285zM133 270h1157v-293h-1157v293z" />
    <glyph glyph-name="uni2460" unicode="&#x2460;" 
d="M1155 -393q-195 0 -365 54t-296.5 151.5t-218 230t-137.5 293t-46 336.5q0 175 46 335t137.5 292.5t218 230t296.5 151.5t365 54t365 -54t296.5 -151.5t218 -230t137.5 -292.5t46 -335q0 -176 -46 -336.5t-137.5 -293t-218 -230t-296.5 -151.5t-365 -54zM1155 -156
q152 0 284.5 43t231 120t169 180.5t106.5 227t36 257.5t-36 257.5t-106.5 226.5t-169 180t-231 120t-284.5 43t-284.5 -43t-231 -120t-169 -180t-106.5 -226.5t-36 -257.5t36 -257.5t106.5 -227t169 -180.5t231 -120t284.5 -43zM727 827q69 63 94.5 97.5t41 85.5t30.5 166
h532v-1014h-286v749l51 170h-72q-23 -418 -266 -518z" />
    <glyph glyph-name="uni2461" unicode="&#x2461;" 
d="M1155 -393q-195 0 -365 54t-296.5 151.5t-218 230t-137.5 293t-46 336.5q0 175 46 335t137.5 292.5t218 230t296.5 151.5t365 54t365 -54t296.5 -151.5t218 -230t137.5 -292.5t46 -335q0 -176 -46 -336.5t-137.5 -293t-218 -230t-296.5 -151.5t-365 -54zM1155 -156
q152 0 284.5 43t231 120t169 180.5t106.5 227t36 257.5t-36 257.5t-106.5 226.5t-169 180t-231 120t-284.5 43t-284.5 -43t-231 -120t-169 -180t-106.5 -226.5t-36 -257.5t36 -257.5t106.5 -227t169 -180.5t231 -120t284.5 -43zM713 813q0 80 25.5 154t77.5 139.5t143.5 105
t211.5 39.5q89 0 159 -21.5t114 -56t73 -81.5t40.5 -94.5t11.5 -98.5q0 -63 -18.5 -115.5t-50.5 -91t-83 -69t-107 -51.5t-131.5 -37t-148 -25.5t-164.5 -17.5v-74l172 37h539v-238h-805v436q6 1 52 5t84.5 9t96.5 15.5t103 28.5t87 42.5t65.5 62t23.5 83.5q0 45 -31.5 79
t-105.5 34q-91 0 -119.5 -48t-28.5 -151h-286z" />
    <glyph glyph-name="uni2462" unicode="&#x2462;" 
d="M1155 -393q-195 0 -365 54t-296.5 151.5t-218 230t-137.5 293t-46 336.5q0 175 46 335t137.5 292.5t218 230t296.5 151.5t365 54t365 -54t296.5 -151.5t218 -230t137.5 -292.5t46 -335q0 -176 -46 -336.5t-137.5 -293t-218 -230t-296.5 -151.5t-365 -54zM1155 -156
q152 0 284.5 43t231 120t169 180.5t106.5 227t36 257.5t-36 257.5t-106.5 226.5t-169 180t-231 120t-284.5 43t-284.5 -43t-231 -120t-169 -180t-106.5 -226.5t-36 -257.5t36 -257.5t106.5 -227t169 -180.5t231 -120t284.5 -43zM700 547h287q0 -54 13.5 -88.5t42 -50
t57.5 -20.5t74 -5q79 0 115 19t36 83q0 55 -31 70.5t-102 15.5h-96v236h96q68 0 93.5 13.5t25.5 64.5q0 47 -31 61.5t-106 14.5q-88 0 -131.5 -22t-43.5 -89h-286q0 166 121.5 258t339.5 92q214 0 319.5 -76t105.5 -194q0 -33 -8 -60t-19.5 -46.5t-32.5 -35t-40 -25.5
t-48.5 -18.5t-51.5 -13t-56 -10.5v-74q8 -2 26 -5q118 -22 162 -47q81 -46 81 -153q0 -140 -108.5 -218.5t-329.5 -78.5q-224 0 -349 100.5t-125 301.5z" />
    <glyph glyph-name="uni2463" unicode="&#x2463;" 
d="M1155 -393q-195 0 -365 54t-296.5 151.5t-218 230t-137.5 293t-46 336.5q0 175 46 335t137.5 292.5t218 230t296.5 151.5t365 54t365 -54t296.5 -151.5t218 -230t137.5 -292.5t46 -335q0 -176 -46 -336.5t-137.5 -293t-218 -230t-296.5 -151.5t-365 -54zM1155 -156
q152 0 284.5 43t231 120t169 180.5t106.5 227t36 257.5t-36 257.5t-106.5 226.5t-169 180t-231 120t-284.5 43t-284.5 -43t-231 -120t-169 -180t-106.5 -226.5t-36 -257.5t36 -257.5t106.5 -227t169 -180.5t231 -120t284.5 -43zM715 274v598q332 36 379 314h284
q-7 -80 -31.5 -155t-74 -149t-118 -132t-171 -100.5t-227.5 -59.5v-74l170 51h241v140h287v-140h137v-293h-137v-102h-287v102h-452z" />
    <glyph glyph-name="uni2464" unicode="&#x2464;" 
d="M1155 -393q-195 0 -365 54t-296.5 151.5t-218 230t-137.5 293t-46 336.5q0 175 46 335t137.5 292.5t218 230t296.5 151.5t365 54t365 -54t296.5 -151.5t218 -230t137.5 -292.5t46 -335q0 -176 -46 -336.5t-137.5 -293t-218 -230t-296.5 -151.5t-365 -54zM1155 -156
q152 0 284.5 43t231 120t169 180.5t106.5 227t36 257.5t-36 257.5t-106.5 226.5t-169 180t-231 120t-284.5 43t-284.5 -43t-231 -120t-169 -180t-106.5 -226.5t-36 -257.5t36 -257.5t106.5 -227t169 -180.5t231 -120t284.5 -43zM741 438h285q0 -50 44 -76t106 -26
q81 0 123 27t42 92q0 145 -110 145q-86 0 -158 -113l-313 99v549h817v-238h-533v-174l-38 -100l47 -25q24 107 98 173.5t201 66.5q75 0 130 -29.5t86 -80.5t45.5 -112t14.5 -133q0 -61 -15 -116.5t-49.5 -105t-84.5 -85.5t-124.5 -57t-166.5 -21q-215 0 -331 87t-116 253z
" />
    <glyph glyph-name="uni2465" unicode="&#x2465;" 
d="M1155 -393q-195 0 -365 54t-296.5 151.5t-218 230t-137.5 293t-46 336.5q0 175 46 335t137.5 292.5t218 230t296.5 151.5t365 54t365 -54t296.5 -151.5t218 -230t137.5 -292.5t46 -335q0 -176 -46 -336.5t-137.5 -293t-218 -230t-296.5 -151.5t-365 -54zM1155 -156
q152 0 284.5 43t231 120t169 180.5t106.5 227t36 257.5t-36 257.5t-106.5 226.5t-169 180t-231 120t-284.5 43t-284.5 -43t-231 -120t-169 -180t-106.5 -226.5t-36 -257.5t36 -257.5t106.5 -227t169 -180.5t231 -120t284.5 -43zM696 631q0 104 14 189t53.5 165.5t103.5 131
t170 74.5t247 7l164 -20v-240l-184 20q-89 12 -153.5 4.5t-107 -23.5t-67.5 -48.5t-35 -70.5t-10 -89l-76 -170h74q9 39 24 75t43.5 73.5t65 65.5t91.5 45.5t120 17.5q49 0 93.5 -9t88.5 -33t75.5 -61.5t51 -98.5t19.5 -140q0 -80 -23.5 -142.5t-61.5 -101.5t-91.5 -64
t-109.5 -35t-120 -10q-230 0 -344.5 115.5t-114.5 372.5zM983 492q0 -65 32.5 -88t112.5 -23q77 0 111.5 24t34.5 84t-37 85.5t-117 25.5q-77 0 -107 -23t-30 -85z" />
    <glyph glyph-name="uni2466" unicode="&#x2466;" 
d="M1155 -393q-195 0 -365 54t-296.5 151.5t-218 230t-137.5 293t-46 336.5q0 175 46 335t137.5 292.5t218 230t296.5 151.5t365 54t365 -54t296.5 -151.5t218 -230t137.5 -292.5t46 -335q0 -176 -46 -336.5t-137.5 -293t-218 -230t-296.5 -151.5t-365 -54zM1155 -156
q152 0 284.5 43t231 120t169 180.5t106.5 227t36 257.5t-36 257.5t-106.5 226.5t-169 180t-231 120t-284.5 43t-284.5 -43t-231 -120t-169 -180t-106.5 -226.5t-36 -257.5t36 -257.5t106.5 -227t169 -180.5t231 -120t284.5 -43zM885 119q0 168 37 289.5t114 203.5t185 131
t262 78v74h-709v238h805v-480q-122 -32 -200.5 -76t-125 -110t-64.5 -148t-18 -200h-286z" />
    <glyph glyph-name="uni2467" unicode="&#x2467;" 
d="M1155 -393q-195 0 -365 54t-296.5 151.5t-218 230t-137.5 293t-46 336.5q0 175 46 335t137.5 292.5t218 230t296.5 151.5t365 54t365 -54t296.5 -151.5t218 -230t137.5 -292.5t46 -335q0 -176 -46 -336.5t-137.5 -293t-218 -230t-296.5 -151.5t-365 -54zM1155 -156
q152 0 284.5 43t231 120t169 180.5t106.5 227t36 257.5t-36 257.5t-106.5 226.5t-169 180t-231 120t-284.5 43t-284.5 -43t-231 -120t-169 -180t-106.5 -226.5t-36 -257.5t36 -257.5t106.5 -227t169 -180.5t231 -120t284.5 -43zM719 422q0 205 295 246v47q-33 4 -63 12
t-65 25t-60.5 40.5t-42.5 61.5t-17 86q0 123 96.5 191.5t292.5 68.5q195 0 291 -68.5t96 -191.5q0 -48 -17 -86t-42 -61.5t-60 -40.5t-65 -25t-62 -12v-47q295 -41 295 -246q0 -128 -115.5 -202.5t-320.5 -74.5t-320.5 74.5t-115.5 202.5zM1053 893q0 -17 3 -29t12 -26
t31 -21.5t56 -7.5t56 7.5t30.5 21.5t11 25.5t2.5 29.5q0 16 -2.5 25.5t-11.5 20.5t-30.5 16.5t-55.5 5.5t-56 -5.5t-31.5 -16.5t-12 -21t-2.5 -25zM1006 473q0 -51 37.5 -70.5t111.5 -19.5q73 0 111.5 19.5t38.5 70.5q0 98 -150 98q-73 0 -111 -22t-38 -76z" />
    <glyph glyph-name="uni2468" unicode="&#x2468;" 
d="M1155 -393q-195 0 -365 54t-296.5 151.5t-218 230t-137.5 293t-46 336.5q0 175 46 335t137.5 292.5t218 230t296.5 151.5t365 54t365 -54t296.5 -151.5t218 -230t137.5 -292.5t46 -335q0 -176 -46 -336.5t-137.5 -293t-218 -230t-296.5 -151.5t-365 -54zM1155 -156
q152 0 284.5 43t231 120t169 180.5t106.5 227t36 257.5t-36 257.5t-106.5 226.5t-169 180t-231 120t-284.5 43t-284.5 -43t-231 -120t-169 -180t-106.5 -226.5t-36 -257.5t36 -257.5t106.5 -227t169 -180.5t231 -120t284.5 -43zM1612 719q0 -105 -14 -190t-53.5 -165.5
t-103.5 -131.5t-170 -74t-247 -6l-164 20v238l184 -21q75 -6 132 -5t98.5 14.5t69 32.5t44 49t23 63t6.5 75l76 170h-74q-11 -50 -34 -94.5t-62 -88t-102.5 -69.5t-143.5 -26q-63 0 -117.5 16.5t-104 53t-78.5 107t-29 167.5q0 98 34.5 169.5t94.5 110t128.5 55.5t149.5 17
q229 0 343 -115.5t114 -371.5zM1327 858q0 65 -33 88t-114 23q-77 0 -111.5 -25t-34.5 -86q0 -59 37.5 -83.5t118.5 -24.5q76 0 106.5 23t30.5 85z" />
    <glyph glyph-name="uni24EA" unicode="&#x24ea;" 
d="M1155 1735q195 0 365 -54t296.5 -151.5t218 -230t137.5 -292.5t46 -335q0 -176 -46 -336.5t-137.5 -293t-218 -230t-296.5 -151.5t-365 -54t-365 54t-296.5 151.5t-218 230t-137.5 293t-46 336.5q0 175 46 335t137.5 292.5t218 230t296.5 151.5t365 54zM1155 -156
q152 0 284.5 43t231 120t169 180.5t106.5 227t36 257.5t-36 257.5t-106.5 226.5t-169 180t-231 120t-284.5 43t-284.5 -43t-231 -120t-169 -180t-106.5 -226.5t-36 -257.5t36 -257.5t106.5 -227t169 -180.5t231 -120t284.5 -43zM1157 1200q114 0 204.5 -40t149 -111
t89 -166.5t30.5 -208.5q0 -155 -52.5 -273t-160.5 -187t-260 -69q-153 0 -261.5 69.5t-161 187t-52.5 272.5q0 233 124 379.5t351 146.5zM1157 909q-87 0 -137.5 -67t-50.5 -168q0 -48 12 -92l281 301q-44 26 -105 26zM1157 436q186 0 186 238q0 51 -8 90l-280 -295
q48 -33 102 -33z" />
    <glyph glyph-name="uni24FF" unicode="&#x24ff;" 
d="M1155 -393q-195 0 -365 54t-296.5 151.5t-218 230t-137.5 293t-46 336.5q0 175 46 335t137.5 292.5t218 230t296.5 151.5t365 54t365 -54t296.5 -151.5t218 -230t137.5 -292.5t46 -335q0 -176 -46 -336.5t-137.5 -293t-218 -230t-296.5 -151.5t-365 -54zM682 674
q0 -155 52.5 -272.5t161 -187t261.5 -69.5q152 0 260 69t160.5 187t52.5 273q0 113 -30.5 208.5t-89 166.5t-149 111t-204.5 40q-227 0 -351 -146.5t-124 -379.5zM969 674q0 101 50.5 168t137.5 67q61 0 107 -26l-285 -299q-10 48 -10 90zM1051 469l286 293q6 -40 6 -88
q0 -238 -186 -238q-55 0 -106 33z" />
    <glyph glyph-name="lozenge" unicode="&#x25ca;" horiz-adv-x="1191" 
d="M883 1444l176 -709l-176 -706h-572l-178 706l178 709h572zM645 123l107 612l-107 613h-96l-109 -613l109 -612h96z" />
    <glyph glyph-name="uni2776" unicode="&#x2776;" 
d="M1155 -393q195 0 365 54t296.5 151.5t218 230t137.5 293t46 336.5q0 175 -46 335t-137.5 292.5t-218 230t-296.5 151.5t-365 54t-365 -54t-296.5 -151.5t-218 -230t-137.5 -292.5t-46 -335q0 -176 46 -336.5t137.5 -293t218 -230t296.5 -151.5t365 -54zM727 827
q69 63 94.5 97.5t41 85.5t30.5 166h532v-1014h-286v749l51 170h-72q-23 -418 -266 -518z" />
    <glyph glyph-name="uni2777" unicode="&#x2777;" 
d="M1155 -393q195 0 365 54t296.5 151.5t218 230t137.5 293t46 336.5q0 175 -46 335t-137.5 292.5t-218 230t-296.5 151.5t-365 54t-365 -54t-296.5 -151.5t-218 -230t-137.5 -292.5t-46 -335q0 -176 46 -336.5t137.5 -293t218 -230t296.5 -151.5t365 -54zM713 813
q0 80 25.5 154t77.5 139.5t143.5 105t211.5 39.5q89 0 159 -21.5t114 -56t73 -81.5t40.5 -94.5t11.5 -98.5q0 -63 -18.5 -115.5t-50.5 -91t-83 -69t-107 -51.5t-131.5 -37t-148 -25.5t-164.5 -17.5v-74l172 37h539v-238h-805v436q6 1 52 5t84.5 9t96.5 15.5t103 28.5
t87 42.5t65.5 62t23.5 83.5q0 45 -31.5 79t-105.5 34q-91 0 -119.5 -48t-28.5 -151h-286z" />
    <glyph glyph-name="uni2778" unicode="&#x2778;" 
d="M1155 -393q195 0 365 54t296.5 151.5t218 230t137.5 293t46 336.5q0 175 -46 335t-137.5 292.5t-218 230t-296.5 151.5t-365 54t-365 -54t-296.5 -151.5t-218 -230t-137.5 -292.5t-46 -335q0 -176 46 -336.5t137.5 -293t218 -230t296.5 -151.5t365 -54zM700 547h287
q0 -54 13.5 -88.5t42 -50t57.5 -20.5t74 -5q79 0 115 19t36 83q0 55 -31 70.5t-102 15.5h-96v236h96q68 0 93.5 13.5t25.5 64.5q0 47 -31 61.5t-106 14.5q-88 0 -131.5 -22t-43.5 -89h-286q0 166 121.5 258t339.5 92q214 0 319.5 -76t105.5 -194q0 -33 -8 -60t-19.5 -46.5
t-32.5 -35t-40 -25.5t-48.5 -18.5t-51.5 -13t-56 -10.5v-74q8 -2 26 -5q118 -22 162 -47q81 -46 81 -153q0 -140 -108.5 -218.5t-329.5 -78.5q-224 0 -349 100.5t-125 301.5z" />
    <glyph glyph-name="uni2779" unicode="&#x2779;" 
d="M1155 -393q195 0 365 54t296.5 151.5t218 230t137.5 293t46 336.5q0 175 -46 335t-137.5 292.5t-218 230t-296.5 151.5t-365 54t-365 -54t-296.5 -151.5t-218 -230t-137.5 -292.5t-46 -335q0 -176 46 -336.5t137.5 -293t218 -230t296.5 -151.5t365 -54zM723 295v598
q335 36 379 313h287q-8 -80 -33 -155t-74.5 -149t-118.5 -132t-171.5 -100.5t-227.5 -59.5v-73l172 51h240v139h286v-139h140v-293h-140v-102h-286v102h-453z" />
    <glyph glyph-name="uni277A" unicode="&#x277a;" 
d="M1155 -393q195 0 365 54t296.5 151.5t218 230t137.5 293t46 336.5q0 175 -46 335t-137.5 292.5t-218 230t-296.5 151.5t-365 54t-365 -54t-296.5 -151.5t-218 -230t-137.5 -292.5t-46 -335q0 -176 46 -336.5t137.5 -293t218 -230t296.5 -151.5t365 -54zM741 438h285
q0 -50 44 -76t106 -26q81 0 123 27t42 92q0 145 -110 145q-86 0 -158 -113l-313 99v549h817v-238h-533v-174l-38 -100l47 -25q24 107 98 173.5t201 66.5q75 0 130 -29.5t86 -80.5t45.5 -112t14.5 -133q0 -61 -15 -116.5t-49.5 -105t-84.5 -85.5t-124.5 -57t-166.5 -21
q-215 0 -331 87t-116 253z" />
    <glyph glyph-name="uni277B" unicode="&#x277b;" 
d="M1155 -393q195 0 365 54t296.5 151.5t218 230t137.5 293t46 336.5q0 175 -46 335t-137.5 292.5t-218 230t-296.5 151.5t-365 54t-365 -54t-296.5 -151.5t-218 -230t-137.5 -292.5t-46 -335q0 -176 46 -336.5t137.5 -293t218 -230t296.5 -151.5t365 -54zM696 631
q0 104 14 189t53.5 165.5t103.5 131t170 74.5t247 7l164 -20v-240l-184 20q-89 12 -153.5 4.5t-107 -23.5t-67.5 -48.5t-35 -70.5t-10 -89l-76 -170h74q9 39 24 75t43.5 73.5t65 65.5t91.5 45.5t120 17.5q49 0 93.5 -9t88.5 -33t75.5 -61.5t51 -98.5t19.5 -140
q0 -80 -23.5 -142.5t-61.5 -101.5t-91.5 -64t-109.5 -35t-120 -10q-230 0 -344.5 115.5t-114.5 372.5zM983 492q0 -65 32.5 -88t112.5 -23q77 0 111.5 24t34.5 84t-37 85.5t-117 25.5q-77 0 -107 -23t-30 -85z" />
    <glyph glyph-name="uni277C" unicode="&#x277c;" 
d="M1155 -393q195 0 365 54t296.5 151.5t218 230t137.5 293t46 336.5q0 175 -46 335t-137.5 292.5t-218 230t-296.5 151.5t-365 54t-365 -54t-296.5 -151.5t-218 -230t-137.5 -292.5t-46 -335q0 -176 46 -336.5t137.5 -293t218 -230t296.5 -151.5t365 -54zM885 119
q0 168 37 289.5t114 203.5t185 131t262 78v74h-709v238h805v-480q-122 -32 -200.5 -76t-125 -110t-64.5 -148t-18 -200h-286z" />
    <glyph glyph-name="uni277D" unicode="&#x277d;" 
d="M1155 -393q195 0 365 54t296.5 151.5t218 230t137.5 293t46 336.5q0 175 -46 335t-137.5 292.5t-218 230t-296.5 151.5t-365 54t-365 -54t-296.5 -151.5t-218 -230t-137.5 -292.5t-46 -335q0 -176 46 -336.5t137.5 -293t218 -230t296.5 -151.5t365 -54zM719 422
q0 205 295 246v47q-33 4 -63 12t-65 25t-60.5 40.5t-42.5 61.5t-17 86q0 123 96.5 191.5t292.5 68.5q195 0 291 -68.5t96 -191.5q0 -48 -17 -86t-42 -61.5t-60 -40.5t-65 -25t-62 -12v-47q295 -41 295 -246q0 -128 -115.5 -202.5t-320.5 -74.5t-320.5 74.5t-115.5 202.5z
M1053 893q0 -17 3 -29t12 -26t31 -21.5t56 -7.5t56 7.5t30.5 21.5t11 25.5t2.5 29.5q0 16 -2.5 25.5t-11.5 20.5t-30.5 16.5t-55.5 5.5t-56 -5.5t-31.5 -16.5t-12 -21t-2.5 -25zM1006 473q0 -51 37.5 -70.5t111.5 -19.5q73 0 111.5 19.5t38.5 70.5q0 98 -150 98
q-73 0 -111 -22t-38 -76z" />
    <glyph glyph-name="uni277E" unicode="&#x277e;" 
d="M1155 -393q195 0 365 54t296.5 151.5t218 230t137.5 293t46 336.5q0 175 -46 335t-137.5 292.5t-218 230t-296.5 151.5t-365 54t-365 -54t-296.5 -151.5t-218 -230t-137.5 -292.5t-46 -335q0 -176 46 -336.5t137.5 -293t218 -230t296.5 -151.5t365 -54zM1612 719
q0 -105 -14 -190t-53.5 -165.5t-103.5 -131.5t-170 -74t-247 -6l-164 20v238l184 -21q75 -6 132 -5t98.5 14.5t69 32.5t44 49t23 63t6.5 75l76 170h-74q-11 -50 -34 -94.5t-62 -88t-102.5 -69.5t-143.5 -26q-63 0 -117.5 16.5t-104 53t-78.5 107t-29 167.5q0 98 34.5 169.5
t94.5 110t128.5 55.5t149.5 17q229 0 343 -115.5t114 -371.5zM1327 858q0 65 -33 88t-114 23q-77 0 -111.5 -25t-34.5 -86q0 -59 37.5 -83.5t118.5 -24.5q76 0 106.5 23t30.5 85z" />
    <glyph glyph-name="G.ss01" horiz-adv-x="1736" 
d="M92 723q0 164 58.5 303.5t159 235t237.5 149t293 53.5q180 0 335.5 -67.5t258 -190.5t125.5 -278h-392q-27 106 -102.5 149t-224.5 43q-170 0 -263.5 -98t-93.5 -299q0 -208 84 -303.5t264 -95.5q95 0 185 22.5t153.5 70.5t63.5 111h-348v291h547q93 0 143.5 -51.5
t50.5 -146.5v-621h-393v96l74 262h-97q2 -12 2 -28.5t-3.5 -43t-10.5 -53t-22.5 -57.5t-37.5 -58t-57 -53t-78.5 -44.5t-105.5 -29.5t-135 -11q-312 0 -491 201.5t-179 541.5z" />
    <glyph glyph-name="Gbreve.ss01" horiz-adv-x="1736" 
d="M1237 1964q0 -65 -11.5 -124t-40 -116t-72.5 -98t-114 -66.5t-159 -25.5t-159 25.5t-113.5 66.5t-72 98.5t-40 116t-11.5 123.5h289q0 -97 28 -131.5t79 -34.5t79.5 34.5t28.5 131.5h289zM92 723q0 164 58.5 303.5t159 235t237.5 149t293 53.5q180 0 335.5 -67.5
t258 -190.5t125.5 -278h-392q-27 106 -102.5 149t-224.5 43q-170 0 -263.5 -98t-93.5 -299q0 -208 84 -303.5t264 -95.5q95 0 185 22.5t153.5 70.5t63.5 111h-348v291h547q93 0 143.5 -51.5t50.5 -146.5v-621h-393v96l74 262h-97q2 -12 2 -28.5t-3.5 -43t-10.5 -53
t-22.5 -57.5t-37.5 -58t-57 -53t-78.5 -44.5t-105.5 -29.5t-135 -11q-312 0 -491 201.5t-179 541.5z" />
    <glyph glyph-name="uni0122.ss01" horiz-adv-x="1736" 
d="M92 723q0 164 58.5 303.5t159 235t237.5 149t293 53.5q180 0 335.5 -67.5t258 -190.5t125.5 -278h-392q-27 106 -102.5 149t-224.5 43q-170 0 -263.5 -98t-93.5 -299q0 -208 84 -303.5t264 -95.5q95 0 185 22.5t153.5 70.5t63.5 111h-348v291h547q93 0 143.5 -51.5
t50.5 -146.5v-621h-393v96l74 262h-97q2 -12 2 -28.5t-3.5 -43t-10.5 -53t-22.5 -57.5t-37.5 -58t-57 -53t-78.5 -44.5t-105.5 -29.5t-135 -11q-312 0 -491 201.5t-179 541.5zM635 -100l272 -90l-135 -355l-270 90z" />
    <glyph glyph-name="Gdotaccent.ss01" horiz-adv-x="1736" 
d="M836 1532q-199 0 -199 168q0 84 52 126t147 42q96 0 151 -42t55 -126q0 -86 -54.5 -127t-151.5 -41zM92 723q0 164 58.5 303.5t159 235t237.5 149t293 53.5q180 0 335.5 -67.5t258 -190.5t125.5 -278h-392q-27 106 -102.5 149t-224.5 43q-170 0 -263.5 -98t-93.5 -299
q0 -208 84 -303.5t264 -95.5q95 0 185 22.5t153.5 70.5t63.5 111h-348v291h547q93 0 143.5 -51.5t50.5 -146.5v-621h-393v96l74 262h-97q2 -12 2 -28.5t-3.5 -43t-10.5 -53t-22.5 -57.5t-37.5 -58t-57 -53t-78.5 -44.5t-105.5 -29.5t-135 -11q-312 0 -491 201.5t-179 541.5z
" />
    <glyph glyph-name="i.loclTRK" horiz-adv-x="1071" 
d="M489 1128q-198 0 -198 168q0 84 51.5 126t146.5 42q96 0 151.5 -42t55.5 -126q0 -86 -55 -127t-152 -41zM72 0v344h293v363l-267 -11v344l453 21q91 5 142.5 -43.5t51.5 -140.5v-533h295v-344h-968z" />
    <glyph glyph-name="a.ss01" horiz-adv-x="1486" 
d="M1376 0h-391v29l74 213h-94q-112 -262 -404 -262q-96 0 -177 28.5t-138 79t-96.5 119t-58.5 148t-19 167.5q0 110 30.5 206t89.5 171t154 118.5t215 43.5q291 0 404 -260h94l-74 211v28h391v-1040zM985 522q0 110 -63.5 152.5t-194.5 42.5q-132 0 -198 -43.5t-66 -151.5
q0 -111 66 -154.5t198 -43.5t195 42.5t63 155.5z" />
    <glyph glyph-name="aacute.ss01" horiz-adv-x="1486" 
d="M252 1393l866 182l64 -275l-867 -182zM1376 0h-391v29l74 213h-94q-112 -262 -404 -262q-96 0 -177 28.5t-138 79t-96.5 119t-58.5 148t-19 167.5q0 110 30.5 206t89.5 171t154 118.5t215 43.5q291 0 404 -260h94l-74 211v28h391v-1040zM985 522q0 110 -63.5 152.5
t-194.5 42.5q-132 0 -198 -43.5t-66 -151.5q0 -111 66 -154.5t198 -43.5t195 42.5t63 155.5z" />
    <glyph glyph-name="abreve.ss01" horiz-adv-x="1486" 
d="M1141 1561q0 -65 -11.5 -124t-40.5 -116t-73 -98.5t-114 -67t-159 -25.5t-158.5 25.5t-113.5 67t-72 98.5t-39.5 116t-11.5 124h289q0 -97 27.5 -131.5t78.5 -34.5q52 0 80.5 34.5t28.5 131.5h289zM1376 0h-391v29l74 213h-94q-112 -262 -404 -262q-96 0 -177 28.5
t-138 79t-96.5 119t-58.5 148t-19 167.5q0 110 30.5 206t89.5 171t154 118.5t215 43.5q291 0 404 -260h94l-74 211v28h391v-1040zM985 522q0 110 -63.5 152.5t-194.5 42.5q-132 0 -198 -43.5t-66 -151.5q0 -111 66 -154.5t198 -43.5t195 42.5t63 155.5z" />
    <glyph glyph-name="acircumflex.ss01" horiz-adv-x="1486" 
d="M1231 1290l-207 -190l-281 182l-278 -182l-207 190l485 328zM1376 0h-391v29l74 213h-94q-112 -262 -404 -262q-96 0 -177 28.5t-138 79t-96.5 119t-58.5 148t-19 167.5q0 110 30.5 206t89.5 171t154 118.5t215 43.5q291 0 404 -260h94l-74 211v28h391v-1040zM985 522
q0 110 -63.5 152.5t-194.5 42.5q-132 0 -198 -43.5t-66 -151.5q0 -111 66 -154.5t198 -43.5t195 42.5t63 155.5z" />
    <glyph glyph-name="adieresis.ss01" horiz-adv-x="1486" 
d="M477 1128q-198 0 -198 168q0 84 51.5 126t146.5 42q96 0 151.5 -42t55.5 -126q0 -86 -55 -127t-152 -41zM1006 1128q-201 0 -201 168q0 84 52.5 126t148.5 42q95 0 149.5 -42t54.5 -126q0 -168 -204 -168zM1376 0h-391v29l74 213h-94q-112 -262 -404 -262
q-96 0 -177 28.5t-138 79t-96.5 119t-58.5 148t-19 167.5q0 110 30.5 206t89.5 171t154 118.5t215 43.5q291 0 404 -260h94l-74 211v28h391v-1040zM985 522q0 110 -63.5 152.5t-194.5 42.5q-132 0 -198 -43.5t-66 -151.5q0 -111 66 -154.5t198 -43.5t195 42.5t63 155.5z" />
    <glyph glyph-name="agrave.ss01" horiz-adv-x="1486" 
d="M1235 1393l-64 -275l-866 182l64 275zM1376 0h-391v29l74 213h-94q-112 -262 -404 -262q-96 0 -177 28.5t-138 79t-96.5 119t-58.5 148t-19 167.5q0 110 30.5 206t89.5 171t154 118.5t215 43.5q291 0 404 -260h94l-74 211v28h391v-1040zM985 522q0 110 -63.5 152.5
t-194.5 42.5q-132 0 -198 -43.5t-66 -151.5q0 -111 66 -154.5t198 -43.5t195 42.5t63 155.5z" />
    <glyph glyph-name="amacron.ss01" horiz-adv-x="1486" 
d="M260 1505h969v-286l-969 -5v291zM1376 0h-391v29l74 213h-94q-112 -262 -404 -262q-96 0 -177 28.5t-138 79t-96.5 119t-58.5 148t-19 167.5q0 110 30.5 206t89.5 171t154 118.5t215 43.5q291 0 404 -260h94l-74 211v28h391v-1040zM985 522q0 110 -63.5 152.5
t-194.5 42.5q-132 0 -198 -43.5t-66 -151.5q0 -111 66 -154.5t198 -43.5t195 42.5t63 155.5z" />
    <glyph glyph-name="aogonek.ss01" horiz-adv-x="1486" 
d="M1323 -125l236 25v-291l-367 -29q-48 -3 -91 10t-72.5 38t-46.5 56.5t-15 68t24 69.5l123 178h-129v29l74 213h-94q-112 -262 -404 -262q-96 0 -177 28.5t-138 79t-96.5 119t-58.5 148t-19 167.5q0 110 30.5 206t89.5 171t154 118.5t215 43.5q291 0 404 -260h94l-74 211
v28h391v-1040zM727 324q132 0 195 42.5t63 155.5q0 110 -63.5 152.5t-194.5 42.5q-132 0 -198 -43.5t-66 -151.5q0 -111 66 -154.5t198 -43.5z" />
    <glyph glyph-name="aring.ss01" horiz-adv-x="1486" 
d="M743 1133q-352 0 -352 264q0 136 92 201t260 65t261.5 -65t93.5 -201q0 -135 -93.5 -199.5t-261.5 -64.5zM743 1333q93 0 93 64q0 61 -93 61q-42 0 -66 -13t-24 -48q0 -64 90 -64zM1376 0h-391v29l74 213h-94q-112 -262 -404 -262q-96 0 -177 28.5t-138 79t-96.5 119
t-58.5 148t-19 167.5q0 110 30.5 206t89.5 171t154 118.5t215 43.5q291 0 404 -260h94l-74 211v28h391v-1040zM985 522q0 110 -63.5 152.5t-194.5 42.5q-132 0 -198 -43.5t-66 -151.5q0 -111 66 -154.5t198 -43.5t195 42.5t63 155.5z" />
    <glyph glyph-name="atilde.ss01" horiz-adv-x="1486" 
d="M223 1235q0 195 89 313.5t247 118.5q55 0 102.5 -16.5t80.5 -40.5t60.5 -48t54 -40.5t50.5 -16.5q38 0 55 28t17 114h289q0 -195 -89 -314t-247 -119q-55 0 -102.5 16.5t-80.5 40.5t-60.5 48t-54 40.5t-50.5 16.5q-38 0 -55 -27.5t-17 -113.5h-289zM1376 0h-391v29
l74 213h-94q-112 -262 -404 -262q-96 0 -177 28.5t-138 79t-96.5 119t-58.5 148t-19 167.5q0 110 30.5 206t89.5 171t154 118.5t215 43.5q291 0 404 -260h94l-74 211v28h391v-1040zM985 522q0 110 -63.5 152.5t-194.5 42.5q-132 0 -198 -43.5t-66 -151.5q0 -111 66 -154.5
t198 -43.5t195 42.5t63 155.5z" />
    <glyph glyph-name="g.ss01" horiz-adv-x="1488" 
d="M985 1040h391v-1265q0 -95 -49.5 -144t-140.5 -47l-910 13v344l709 -11v99l74 213h-94q-112 -262 -404 -262q-96 0 -177 28.5t-138 79t-96.5 119t-58.5 148t-19 167.5q0 110 30.5 206t89.5 171t154 118.5t215 43.5q291 0 404 -260h94l-74 211v28zM727 324q132 0 195 42.5
t63 155.5q0 110 -63.5 152.5t-194.5 42.5q-132 0 -198 -43.5t-66 -151.5q0 -111 66 -154.5t198 -43.5z" />
    <glyph glyph-name="gbreve.ss01" horiz-adv-x="1488" 
d="M692 1130q-89 0 -158.5 25.5t-113.5 67t-72 98.5t-39.5 116t-11.5 124h289q0 -97 27.5 -131.5t78.5 -34.5q52 0 80.5 34.5t28.5 131.5h289q0 -65 -11.5 -124t-40.5 -116t-73 -98.5t-114 -67t-159 -25.5zM985 1040h391v-1265q0 -95 -49.5 -144t-140.5 -47l-910 13v344
l709 -11v99l74 213h-94q-112 -262 -404 -262q-96 0 -177 28.5t-138 79t-96.5 119t-58.5 148t-19 167.5q0 110 30.5 206t89.5 171t154 118.5t215 43.5q291 0 404 -260h94l-74 211v28zM727 324q132 0 195 42.5t63 155.5q0 110 -63.5 152.5t-194.5 42.5q-132 0 -198 -43.5
t-66 -151.5q0 -111 66 -154.5t198 -43.5z" />
    <glyph glyph-name="uni0123.ss01" horiz-adv-x="1488" 
d="M965 1593l-164 -475l-277 74l162 475zM985 1040h391v-1265q0 -95 -49.5 -144t-140.5 -47l-910 13v344l709 -11v99l74 213h-94q-112 -262 -404 -262q-96 0 -177 28.5t-138 79t-96.5 119t-58.5 148t-19 167.5q0 110 30.5 206t89.5 171t154 118.5t215 43.5q291 0 404 -260
h94l-74 211v28zM727 324q132 0 195 42.5t63 155.5q0 110 -63.5 152.5t-194.5 42.5q-132 0 -198 -43.5t-66 -151.5q0 -111 66 -154.5t198 -43.5z" />
    <glyph glyph-name="gdotaccent.ss01" horiz-adv-x="1488" 
d="M688 1128q-199 0 -199 168q0 84 52 126t147 42q96 0 151.5 -42t55.5 -126q0 -86 -55 -127t-152 -41zM985 1040h391v-1265q0 -95 -49.5 -144t-140.5 -47l-910 13v344l709 -11v99l74 213h-94q-112 -262 -404 -262q-96 0 -177 28.5t-138 79t-96.5 119t-58.5 148t-19 167.5
q0 110 30.5 206t89.5 171t154 118.5t215 43.5q291 0 404 -260h94l-74 211v28zM727 324q132 0 195 42.5t63 155.5q0 110 -63.5 152.5t-194.5 42.5q-132 0 -198 -43.5t-66 -151.5q0 -111 66 -154.5t198 -43.5z" />
    <glyph glyph-name="k.ss01" horiz-adv-x="1558" 
d="M1509 1040l-524 -422l524 -618h-483l-328 387l-194 -156v-231h-391v1505h391v-798l422 333h583z" />
    <glyph glyph-name="uni0137.ss01" horiz-adv-x="1558" 
d="M1509 1040l-524 -422l524 -618h-483l-328 387l-194 -156v-231h-391v1505h391v-798l422 333h583zM524 -455l133 355l273 -90l-135 -355z" />
    <glyph glyph-name="uni0438.loclBGR" horiz-adv-x="1488" 
d="M1419 0h-366v741l75 205h-96l-209 -946h-710v1040h364v-727l-74 -217h95l211 944h710v-1040z" />
    <glyph glyph-name="uni0439.loclBGR" horiz-adv-x="1488" 
d="M1176 1561q0 -65 -11.5 -124t-40.5 -116t-73 -98.5t-114 -67t-159 -25.5t-158.5 25.5t-113.5 67t-72 98.5t-39.5 116t-11.5 124h289q0 -97 27.5 -131.5t78.5 -34.5q52 0 80.5 34.5t28.5 131.5h289zM1419 0h-366v741l75 205h-96l-209 -946h-710v1040h364v-727l-74 -217h95
l211 944h710v-1040z" />
    <glyph glyph-name="uni045D.loclBGR" horiz-adv-x="1488" 
d="M1270 1393l-64 -275l-866 182l63 275zM1419 0h-366v741l75 205h-96l-209 -946h-710v1040h364v-727l-74 -217h95l211 944h710v-1040z" />
    <glyph glyph-name="zero.dnom" horiz-adv-x="1048" 
d="M524 1034q226 0 349.5 -146t123.5 -380q0 -155 -52.5 -272.5t-160.5 -186.5t-260 -69t-260 69t-160.5 186.5t-52.5 272.5q0 234 123.5 380t349.5 146zM524 743q-87 0 -137.5 -67t-50.5 -168q0 -50 12 -94l281 303q-44 26 -105 26zM524 270q187 0 187 238q0 48 -9 92
l-280 -297q48 -33 102 -33z" />
    <glyph glyph-name="one.dnom" horiz-adv-x="798" 
d="M49 664q70 65 95 98.5t40.5 85t30.5 166.5h533v-1014h-287v750l51 168h-72q-23 -419 -266 -519z" />
    <glyph glyph-name="two.dnom" horiz-adv-x="956" 
d="M51 598q0 62 15 122t50 117.5t86.5 100.5t130 69.5t175.5 26.5q89 0 159 -21.5t114 -56t73.5 -81.5t41 -94.5t11.5 -98.5q0 -63 -18.5 -115t-51 -90.5t-83 -69.5t-107 -52t-131.5 -37t-147.5 -26t-163.5 -18v-73l170 37h538v-238h-804v436q9 1 52 5.5t84 10t97.5 16
t102.5 28t87.5 42t65 61.5t23.5 83q0 45 -32 80t-106 35q-89 0 -118 -48.5t-29 -150.5h-285z" />
    <glyph glyph-name="three.dnom" horiz-adv-x="1013" 
d="M51 381h285q0 -54 13.5 -88.5t42 -50t57.5 -20.5t75 -5q79 0 115.5 19t36.5 83q0 56 -31 71.5t-102 15.5h-99v235h99q67 0 93 14t26 64q0 47 -32 62.5t-106 15.5q-89 0 -131.5 -23t-42.5 -90h-287q0 166 121.5 258t339.5 92q213 0 319.5 -76t106.5 -194q0 -46 -15 -80.5
t-36.5 -55t-59 -35.5t-68.5 -22t-79 -14v-74q8 -2 39.5 -8t40.5 -8t36.5 -9t37 -11.5t31 -14t30 -18.5t22.5 -23.5t19.5 -30t10 -36.5t4.5 -45q0 -140 -110 -219.5t-329 -79.5q-225 0 -349 100t-124 301z" />
    <glyph glyph-name="four.dnom" horiz-adv-x="978" 
d="M51 102v598q333 36 377 314h287q-8 -80 -33 -155t-74.5 -149t-118.5 -132t-171 -100.5t-226 -59.5v-74l170 51h242v140h284v-140h140v-293h-140v-102h-284v102h-453z" />
    <glyph glyph-name="five.dnom" horiz-adv-x="987" 
d="M51 322h285q0 -51 44 -78t105 -27q81 0 123.5 27t42.5 92q0 145 -110 145q-86 0 -158 -112l-313 98v549h817v-238h-533v-172l-39 -100l47 -27q24 108 98.5 175t201.5 67q75 0 130 -29.5t86 -80.5t45.5 -112t14.5 -132q0 -77 -25 -144.5t-76 -123t-138 -87.5t-201 -32
q-215 0 -331 87.5t-116 254.5z" />
    <glyph glyph-name="six.dnom" horiz-adv-x="964" 
d="M51 467q0 105 14 190t53.5 165.5t103.5 131.5t170 74t247 6l164 -20v-238l-185 21q-110 11 -184.5 0.5t-114.5 -43.5t-56.5 -77.5t-16.5 -109.5l-76 -170h74q11 50 34 95t62 88.5t102.5 69.5t143.5 26q63 0 117.5 -16.5t104 -53t78.5 -107t29 -167.5q0 -98 -34.5 -169.5
t-94.5 -110t-128.5 -55.5t-149.5 -17q-229 0 -343 115.5t-114 371.5zM336 328q0 -65 33 -88t114 -23q77 0 111.5 25t34.5 86q0 59 -37.5 83.5t-118.5 24.5q-76 0 -106.5 -23t-30.5 -85z" />
    <glyph glyph-name="seven.dnom" horiz-adv-x="905" 
d="M160 0q0 168 37 289.5t114 203.5t185 131t262 78v74h-707v238h803v-479q-121 -32 -199.5 -76.5t-125 -110.5t-65 -148t-18.5 -200h-286z" />
    <glyph glyph-name="eight.dnom" horiz-adv-x="972" 
d="M51 256q0 205 295 246v47q-33 4 -63 12t-65 25t-60.5 40.5t-42.5 61.5t-17 86q0 123 96.5 191.5t292.5 68.5q195 0 291 -68.5t96 -191.5q0 -48 -17 -86t-42 -61.5t-59.5 -40.5t-64.5 -25t-62 -12v-47q295 -41 295 -246q0 -128 -115.5 -202t-321.5 -74t-321 74t-115 202z
M383 727q0 -16 3 -28t12.5 -25.5t32 -21t56.5 -7.5t56 7.5t31 21t11.5 25t2.5 28.5q0 15 -2.5 25t-11.5 21.5t-31 17.5t-56 6t-56.5 -6t-32 -17t-12.5 -21.5t-3 -25.5zM336 309q0 -52 38 -72t113 -20q73 0 111.5 20t38.5 72q0 54 -39 75.5t-111 21.5q-74 0 -112.5 -21.5
t-38.5 -75.5z" />
    <glyph glyph-name="nine.dnom" horiz-adv-x="964" 
d="M913 555q0 -57 -4 -107t-14 -102t-26.5 -95t-40.5 -85t-57.5 -72.5t-77 -57t-98 -38t-121.5 -17t-148 6.5l-164 20v238l184 -21q110 -11 185 -0.5t115 43.5t56.5 77.5t16.5 109.5l76 170h-74q-11 -50 -34 -95t-62 -88.5t-102.5 -69.5t-143.5 -26q-49 0 -93.5 9.5
t-89 33.5t-76 62t-51.5 99t-20 140t23.5 141.5t62 101t92.5 64t110 35.5t120 10q229 0 342.5 -115.5t113.5 -371.5zM629 694q0 65 -33.5 88t-114.5 23q-77 0 -111 -24.5t-34 -86.5q0 -59 37.5 -83.5t118.5 -24.5q76 0 106.5 23t30.5 85z" />
    <glyph glyph-name="zero.numr" horiz-adv-x="1048" 
d="M524 1645q226 0 349.5 -146.5t123.5 -380.5q0 -155 -52.5 -272.5t-160.5 -186.5t-260 -69t-260 69t-160.5 186.5t-52.5 272.5q0 234 123.5 380.5t349.5 146.5zM524 1354q-87 0 -137.5 -67t-50.5 -169q0 -50 12 -94l281 303q-46 27 -105 27zM524 881q187 0 187 237
q0 48 -9 92l-280 -297q46 -32 102 -32z" />
    <glyph glyph-name="one.numr" horiz-adv-x="798" 
d="M49 1257q54 51 75.5 73.5t42.5 63.5t28.5 83t19.5 131h533v-1014h-287v749l51 168h-72q-23 -418 -266 -518z" />
    <glyph glyph-name="two.numr" horiz-adv-x="956" 
d="M51 1200q0 62 15 122t50 117.5t86.5 100.5t130 69.5t175.5 26.5q89 0 159 -21.5t114 -56t73.5 -81.5t41 -94.5t11.5 -98.5q0 -63 -18.5 -115t-51 -90.5t-83 -69t-106.5 -51.5t-131.5 -37t-148 -26t-163.5 -18v-74l170 37h538v-238h-804v436q9 1 52 5.5t84 10t97.5 16
t102.5 28t87.5 42t65 61.5t23.5 83q0 45 -32 80t-106 35q-89 0 -118 -48.5t-29 -150.5h-285z" />
    <glyph glyph-name="three.numr" horiz-adv-x="1013" 
d="M51 983h285q0 -54 13.5 -88.5t42 -50t57.5 -20.5t75 -5q79 0 115.5 19.5t36.5 83.5q0 56 -31 71t-102 15h-99v235h99q67 0 93 14t26 64q0 47 -32 62.5t-106 15.5q-89 0 -131.5 -23t-42.5 -90h-287q0 166 121.5 258t339.5 92q213 0 319.5 -76t106.5 -194q0 -46 -15 -80.5
t-36.5 -55t-59 -35.5t-68.5 -22t-79 -14v-74q8 -2 39.5 -8t40.5 -8t36.5 -9t37 -11.5t31 -14t30 -18.5t22.5 -23.5t19.5 -30t10 -36.5t4.5 -45q0 -140 -110 -219.5t-329 -79.5q-225 0 -349 100t-124 301z" />
    <glyph glyph-name="four.numr" horiz-adv-x="978" 
d="M51 696v598q333 36 377 314h287q-8 -80 -33 -155t-74.5 -149t-118.5 -132t-171 -100.5t-226 -59.5v-74l170 51h242v139h284v-139h140v-293h-140v-102h-284v102h-453z" />
    <glyph glyph-name="five.numr" horiz-adv-x="987" 
d="M51 924h285q0 -51 44 -78t105 -27q81 0 123.5 27t42.5 92q0 145 -110 145q-86 0 -158 -112l-313 98v549h817v-238h-533v-172l-39 -100l47 -27q24 108 98.5 175t201.5 67q75 0 130 -29.5t86 -80.5t45.5 -112t14.5 -132q0 -77 -25 -144.5t-76 -123t-138 -87.5t-201 -32
q-215 0 -331 87.5t-116 254.5z" />
    <glyph glyph-name="six.numr" horiz-adv-x="964" 
d="M51 1079q0 57 4 107t14 102t26.5 95t41 85.5t57.5 72.5t77 57t98.5 38.5t121.5 17t148 -6.5l164 -21v-237l-185 20q-75 6 -132 5t-98.5 -15t-68.5 -32.5t-43.5 -48.5t-23 -63t-6.5 -75l-76 -170h74q11 50 34 94.5t62 88t102.5 69.5t143.5 26q63 0 117.5 -16.5t104 -53
t78.5 -107t29 -167.5q0 -98 -34.5 -169.5t-94.5 -110t-128.5 -55.5t-149.5 -17q-229 0 -343 115.5t-114 371.5zM336 940q0 -65 33 -88t114 -23q77 0 111.5 25t34.5 86q0 59 -37.5 84t-118.5 25q-76 0 -106.5 -23.5t-30.5 -85.5z" />
    <glyph glyph-name="seven.numr" horiz-adv-x="905" 
d="M160 594q0 168 37 289.5t114 203.5t185 131t262 78v74h-707v238h803v-480q-121 -32 -199.5 -76t-125 -110t-65 -148t-18.5 -200h-286z" />
    <glyph glyph-name="eight.numr" horiz-adv-x="972" 
d="M51 866q0 205 295 246v47q-33 4 -63 12t-65 25t-60.5 40.5t-42.5 61.5t-17 86q0 123 96.5 192t292.5 69q195 0 291 -69t96 -192q0 -48 -17 -86t-42 -61.5t-59.5 -40.5t-64.5 -25t-62 -12v-47q295 -41 295 -246q0 -128 -115.5 -202t-321.5 -74t-321 74t-115 202zM383 1337
q0 -16 3 -28t12.5 -25.5t32 -21t56.5 -7.5t56 7.5t31 21t11.5 25t2.5 28.5q0 15 -2.5 25t-11.5 21.5t-31 17.5t-56 6t-56.5 -6t-32 -17t-12.5 -21.5t-3 -25.5zM336 920q0 -52 38 -72.5t113 -20.5q73 0 111.5 20.5t38.5 72.5q0 54 -39 75t-111 21q-75 0 -113 -21t-38 -75z
" />
    <glyph glyph-name="nine.numr" horiz-adv-x="964" 
d="M913 1167q0 -57 -4 -107t-14 -102t-26.5 -95t-40.5 -85t-57.5 -72.5t-77 -57t-98 -38t-121.5 -17t-148 6.5l-164 21v237l184 -20q75 -6 132 -5t98.5 14.5t69 32.5t44 49t23 63t6.5 75l76 170h-74q-11 -50 -34 -95t-62 -88.5t-102.5 -69.5t-143.5 -26q-63 0 -117.5 16.5
t-104.5 53.5t-79 107.5t-29 167.5q0 79 23.5 141.5t62 101t92.5 64t110 35.5t120 10q229 0 342.5 -115.5t113.5 -372.5zM629 1307q0 65 -33 87.5t-115 22.5q-77 0 -111 -24.5t-34 -85.5q0 -59 37.5 -84t118.5 -25q76 0 106.5 23.5t30.5 85.5z" />
    <glyph glyph-name="colon.case" horiz-adv-x="759" 
d="M377 831q-115 0 -182.5 70t-67.5 172q0 99 68 167.5t182 68.5q113 0 184.5 -69t71.5 -167q0 -101 -71.5 -171.5t-184.5 -70.5zM377 115q-115 0 -182.5 69.5t-67.5 171.5q0 99 68 167.5t182 68.5q113 0 184.5 -69t71.5 -167q0 -101 -71.5 -171t-184.5 -70z" />
    <glyph glyph-name="bullet.case" horiz-adv-x="1712" 
d="M848 -2q-168 0 -307.5 56t-230.5 153t-141 225t-50 273q0 140 50 265t141 220t230.5 151t307.5 56q164 0 305 -56t236.5 -150.5t149.5 -220.5t54 -265q0 -144 -54 -273t-149.5 -225t-236.5 -152.5t-305 -56.5z" />
    <glyph glyph-name="parenleft.case" horiz-adv-x="940" 
d="M809 82v-236q-173 29 -303.5 106t-211.5 192.5t-121 260t-40 318.5t40 318.5t121 259t211.5 191t303.5 105.5v-235q-75 -24 -133 -56t-99 -67t-70.5 -81.5t-46.5 -91.5t-26.5 -105t-12.5 -113t-3 -125t3 -125t12.5 -113.5t26.5 -105.5t46.5 -91.5t70 -82t99 -67.5
t133.5 -56z" />
    <glyph glyph-name="parenright.case" horiz-adv-x="940" 
d="M133 82q74 24 132 56t99 67.5t70 82t46 91.5t26.5 105.5t12.5 113.5t3 125t-3 125t-12.5 113t-26.5 105t-46 91.5t-70 81.5t-99 67t-132 56v235q173 -29 303 -105.5t211.5 -191t121.5 -259t40 -318.5q0 -173 -40 -318t-121.5 -260.5t-211.5 -192.5t-303 -106v236z" />
    <glyph glyph-name="braceleft.case" horiz-adv-x="1363" 
d="M776 1350l-211 73v-94q223 -66 268 -83q131 -50 179 -120q43 -65 43 -174q0 -104 -72 -235q72 -131 72 -236q0 -50 -8.5 -89t-25 -69t-43.5 -54.5t-59 -43t-77.5 -35.5t-94.5 -32t-113 -34q-45 -13 -69 -20v-94l211 74h455v-238h-762v404q173 44 237 75q128 61 141 173
q1 14 1 28v9q-170 -173 -344 -173q-168 0 -269.5 94.5t-101.5 260.5q0 171 93.5 262.5t277.5 91.5q175 0 344 -172v8q0 30 -7.5 56t-17 46t-30.5 39.5t-36.5 32t-48.5 27t-51.5 22.5t-60 20t-61 17t-66.5 17v403h762v-237h-455zM553 575q44 0 101.5 40.5t105.5 101.5
q-47 60 -105 100.5t-102 40.5q-57 0 -96 -36t-39 -105t39 -105.5t96 -36.5z" />
    <glyph glyph-name="braceright.case" horiz-adv-x="1390" 
d="M887 362q-174 0 -344 173v-9q0 -52 22.5 -93.5t48 -66t87.5 -49t96 -34.5t118 -31q5 -1 7 -2v-404h-762v238h454l211 -74v94q-224 66 -272 84q-129 50 -175 121q-42 64 -42 172q0 105 72 236q-72 131 -72 235q0 58 10.5 102t36 77t56.5 56.5t84 45t104 38t132 39.5
q43 12 66 19v94l-211 -73h-454v237h762v-403q-176 -45 -241 -77q-128 -63 -137 -179q-1 -10 -1 -21v-8q169 172 344 172q184 0 277 -91.5t93 -262.5q0 -166 -101.5 -260.5t-268.5 -94.5zM838 858q-44 0 -102 -40.5t-105 -100.5q48 -61 105.5 -101.5t101.5 -40.5q57 0 95 36
t38 106q0 69 -38 105t-95 36z" />
    <glyph glyph-name="bracketleft.case" horiz-adv-x="968" 
d="M133 1597h703v-237h-414v-1276h414v-238h-703v1751z" />
    <glyph glyph-name="bracketright.case" horiz-adv-x="968" 
d="M836 1597v-1751h-703v238h414v1276h-414v237h703z" />
    <glyph glyph-name="braceleft.ss01" horiz-adv-x="944" 
d="M133 717q58 -2 104.5 3t75.5 13.5t49.5 24t30.5 27.5t15 32t5.5 29t0.5 26v7q0 48 -42.5 94.5t-127.5 60.5v410h567v-238h-367l-104 74v-94q55 -20 82.5 -31t73 -31.5t69 -36.5t54 -42t45 -52.5t25.5 -63t11 -79.5q0 -69 -26.5 -118.5t-75 -76t-109.5 -36.5t-137 -5v-94
q76 5 137 -5.5t109.5 -37t75 -76t26.5 -118.5q0 -42 -10 -77.5t-25 -62t-43.5 -51.5t-52.5 -41t-66.5 -35.5t-71.5 -30.5t-80 -30q-7 -3 -11 -4v-94l104 73h367v-237h-567v409q84 14 127 59.5t43 92.5q0 54 -12 79q-45 94 -269 85v299z" />
    <glyph glyph-name="braceright.ss01" horiz-adv-x="944" 
d="M811 717v-299q-58 2 -104.5 -3t-75.5 -13.5t-49.5 -24.5t-30.5 -28.5t-15 -32.5t-5.5 -29t-0.5 -26v-7q0 -47 43 -92.5t127 -59.5v-409h-567v237h367l104 -73v94q-160 59 -218 94q-121 72 -139 190q-3 23 -3 48q0 69 26.5 118.5t75 76t109.5 37t137 5.5v94q-76 -5 -137 5
t-109.5 36.5t-75 76t-26.5 118.5q0 43 11 79.5t25.5 63t45 52.5t54 42t69 36.5t73 31.5t82.5 31v94l-104 -74h-367v238h567v-410q-85 -14 -127.5 -60.5t-42.5 -94.5q0 -53 12 -78q45 -93 269 -84z" />
    <glyph glyph-name="braceleft.case.ss01" horiz-adv-x="944" 
d="M133 870q58 -2 104.5 3t75.5 13.5t49.5 24t30.5 27.5t15 32t5.5 29t0.5 26v7q0 48 -42.5 95t-127.5 61v409h567v-237h-367l-104 74v-95q44 -16 64.5 -24t59 -24t57.5 -26t49 -28t45 -33.5t34.5 -38t28.5 -46t15.5 -53t6.5 -62.5q0 -69 -26.5 -118.5t-75 -76t-109.5 -36.5
t-137 -5v-94q76 5 137 -5.5t109.5 -37.5t75 -76.5t26.5 -118.5q0 -42 -10 -77.5t-25 -62t-43.5 -51.5t-52.5 -41t-66.5 -35.5t-71.5 -30.5t-80 -30q-7 -3 -11 -4v-94l104 74h367v-238h-567v410q84 14 127 59.5t43 92.5q0 54 -12 78q-45 94 -269 85v299z" />
    <glyph glyph-name="braceright.case.ss01" horiz-adv-x="944" 
d="M811 870v-299q-58 2 -104.5 -3t-75.5 -13.5t-49.5 -24.5t-30.5 -28t-15 -32t-5.5 -29t-0.5 -26v-7q0 -47 43 -92.5t127 -59.5v-410h-567v238h367l104 -74v94q-160 59 -218 94q-121 72 -139 190q-3 23 -3 48q0 69 26.5 118.5t75 76.5t109.5 37.5t137 5.5v94q-76 -5 -137 5
t-109.5 36.5t-75 76t-26.5 118.5q0 33 6.5 62.5t15.5 53t28.5 46t34.5 38t45 33.5t49 28t57.5 26t59 24t64.5 24v95l-104 -74h-367v237h567v-409q-85 -14 -127.5 -61t-42.5 -95q0 -53 12 -78q45 -93 269 -84z" />
    <glyph glyph-name="hyphen.case" horiz-adv-x="1423" 
d="M133 868h1157v-290h-1157v290z" />
    <glyph glyph-name="endash.case" horiz-adv-x="1859" 
d="M133 868h1593v-290h-1593v290z" />
    <glyph glyph-name="emdash.case" horiz-adv-x="2269" 
d="M133 868h2003v-290h-2003v290z" />
    <glyph glyph-name="guillemotleft.case" horiz-adv-x="1853" 
d="M1028 229l-211 -192l-684 686l684 684l211 -193l-487 -491zM1720 229l-211 -192l-684 686l684 684l211 -193l-487 -491z" />
    <glyph glyph-name="guillemotright.case" horiz-adv-x="1908" 
d="M186 229l490 494l-490 491l213 193l684 -684l-684 -686zM879 229l489 494l-489 491l213 193l684 -684l-684 -686z" />
    <glyph glyph-name="guilsinglleft.case" horiz-adv-x="1161" 
d="M1028 229l-211 -192l-684 686l684 684l211 -193l-487 -491z" />
    <glyph glyph-name="guilsinglright.case" horiz-adv-x="1216" 
d="M186 229l490 494l-490 491l213 193l684 -684l-684 -686z" />
    <glyph glyph-name="ampersand.ss01" horiz-adv-x="2093" 
d="M1962 1069q0 -225 -86.5 -412.5t-239.5 -330.5q232 -134 324 -185l-213 -286q-122 70 -434 254q-267 -129 -555 -129q-301 0 -463 108t-162 315q0 78 24.5 140t71.5 107.5t100.5 76.5t125.5 59q-86 131 -86 254q0 143 72.5 239.5t197.5 140.5t299 44q116 0 216.5 -32.5
t167.5 -85.5t105.5 -120.5t38.5 -138.5q0 -81 -13.5 -132t-56.5 -99.5t-116 -88t-199 -89.5q115 -85 240 -160q250 205 250 551h391zM915 1120q-81 0 -118 -17.5t-37 -62.5q0 -64 65 -141q115 37 167 60t66.5 39.5t14.5 43.5q0 36 -47 57t-111 21zM758 324q94 0 184 20
q-141 93 -252 188q-96 -40 -131 -65.5t-35 -50.5q0 -35 32.5 -56.5t81.5 -28.5t120 -7z" />
    <glyph glyph-name="brevecombcy" horiz-adv-x="0" 
d="M-133 1561q0 -65 -11.5 -124t-40 -116t-72.5 -98.5t-114 -67t-159 -25.5t-159 25.5t-113.5 67t-72 98.5t-40 116t-11.5 124h289q0 -97 28 -131.5t79 -34.5t79.5 34.5t28.5 131.5h289z" />
    </font>
</defs>
</svg>
