<?xml version="1.0" standalone="no"?>
<!DOCTYPE svg PUBLIC "-//W3C//DTD SVG 1.1//EN" "http://www.w3.org/Graphics/SVG/1.1/DTD/svg11.dtd" >
<svg xmlns="http://www.w3.org/2000/svg" xmlns:xlink="http://www.w3.org/1999/xlink" version="1.1">
<metadata>
Created by FontForge 20170731 at Fri Jan 15 04:04:21 2021
 By Aleksey,,,
Copyright (c) 2019 by Mathieu Desjardins. All rights reserved.
</metadata>
<defs>
<font id="NeueMachina-Ultralight" horiz-adv-x="1982" >
  <font-face 
    font-family="Neue Machina Ultralight"
    font-weight="200"
    font-stretch="normal"
    units-per-em="2048"
    panose-1="0 0 3 0 0 0 0 0 0 0"
    ascent="1638"
    descent="-410"
    x-height="1008"
    cap-height="1444"
    bbox="-797 -471 3099 1987"
    underline-thickness="102"
    underline-position="-255"
    unicode-range="U+0020-277E"
  />
<missing-glyph horiz-adv-x="989" 
d="M811 1505v-1976h-627v1976h627zM657 1372h-325v-63h129v-74h-131v-66h327v66h-129v74h129v63zM528 1118h-198v-205h327v66h-129v139zM461 1051v-72h-66v72h66zM657 858h-327v-63h131v-74h-131v-66h198v140h129v63zM657 741h-63v-131h-264v-67h327v198zM657 500h-196v-111
h67v45h66v-92h-199v158h-65v-224h327v224zM657 158h-327v-224h327v224zM594 92v-92h-199v92h199zM657 -111h-327v-65h139l-139 -94v-64h327v64h-200l137 94h63v65z" />
    <glyph glyph-name="f_f" unicode="ff" horiz-adv-x="1406" 
d="M1180 1448q-104 0 -145.5 -51t-41.5 -162v-227h293v-58h-293v-893h293v-57h-1182v57h226v893h-226v58h226v125q0 127 53 191.5t192 64.5h375q56 116 217 116h176v-57h-163zM922 1008v227q0 48 10 96h-357q-99 0 -136.5 -46t-37.5 -152v-125h521zM922 57v893h-521v-893
h521z" />
    <glyph glyph-name="f_f_i" unicode="ffi" horiz-adv-x="1957" 
d="M1597 57h277v-57h-1770v57h226v893h-226v58h226v125q0 127 53 191.5t192 64.5h357q51 143 221 137l420 -21v-57l-408 20q-105 4 -144.5 -55.5t-39.5 -177.5v-219l510 12q61 1 83.5 -27t22.5 -94v-850zM401 1133v-125h265l243 6v221q0 49 9 96h-343q-99 0 -136.5 -46
t-37.5 -152zM1526 57v914l-545 -13v-901h545zM909 57v899l-202 -6h-306v-893h508z" />
    <glyph glyph-name="f_i" unicode="fi" horiz-adv-x="1396" 
d="M1036 57h277v-57h-1209v57h244v899l-244 -6v58l244 6v221q0 299 244 291l420 -21v-57l-408 20q-105 4 -144.5 -55.5t-39.5 -177.5v-219l510 12q61 1 83.5 -27t22.5 -94v-850zM965 57v914l-545 -13v-901h545z" />
    <glyph glyph-name=".notdef" horiz-adv-x="989" 
d="M811 1505v-1976h-627v1976h627zM657 1372h-325v-63h129v-74h-131v-66h327v66h-129v74h129v63zM528 1118h-198v-205h327v66h-129v139zM461 1051v-72h-66v72h66zM657 858h-327v-63h131v-74h-131v-66h198v140h129v63zM657 741h-63v-131h-264v-67h327v198zM657 500h-196v-111
h67v45h66v-92h-199v158h-65v-224h327v224zM657 158h-327v-224h327v224zM594 92v-92h-199v92h199zM657 -111h-327v-65h139l-139 -94v-64h327v64h-200l137 94h63v65z" />
    <glyph glyph-name=".null" horiz-adv-x="0" 
 />
    <glyph glyph-name="nonmarkingreturn" horiz-adv-x="682" 
 />
    <glyph glyph-name="space" unicode=" " horiz-adv-x="743" 
 />
    <glyph glyph-name="exclam" unicode="!" horiz-adv-x="647" 
d="M289 1444h71v-969h-71v969zM324 -20q-42 0 -70.5 29t-28.5 69t28.5 69t70.5 29t70 -29t28 -69t-28 -69t-70 -29z" />
    <glyph glyph-name="quotedbl" unicode="&#x22;" horiz-adv-x="686" 
d="M186 1479h72v-439h-72v439zM401 1479h72v-439h-72v439z" />
    <glyph glyph-name="numbersign" unicode="#" horiz-adv-x="2174" 
d="M1987 936h-441l-174 -557h428v-57h-446l-197 -627l-63 18l190 609h-606l-197 -627l-63 18l190 609h-422v57h441l174 557h-428v57h446l187 592l63 -18l-180 -574h606l186 592l64 -18l-180 -574h422v-57zM1303 379l174 557h-607l-174 -557h607z" />
    <glyph glyph-name="dollar" unicode="$" horiz-adv-x="1505" 
d="M791 774q70 -21 117 -37t107.5 -40.5t100 -47.5t81.5 -56.5t66.5 -70.5t40 -85.5t15.5 -104.5q0 -352 -518 -352h-10v-283h-72v285q-155 9 -262 52.5t-165 118.5t-82 165.5t-24 211.5h72q0 -106 23 -188.5t63 -136.5t99.5 -90.5t126.5 -53.5t149 -22v692q-2 1 -7 2t-7 2
q-89 28 -152.5 53.5t-123.5 60.5t-96.5 74.5t-58.5 93.5t-22 120q0 324 467 327v283h72v-285q106 -8 189.5 -42.5t134.5 -83t85 -111.5t47 -123t13 -123h-72q0 193 -110.5 301.5t-286.5 124.5v-631zM324 1137q0 -60 20.5 -108t52 -80.5t87 -61.5t106 -47.5t129.5 -42.5v610
q-89 -1 -157.5 -14.5t-123.5 -43.5t-84.5 -83.5t-29.5 -128.5zM797 37q83 0 149 8.5t123.5 29.5t96 54.5t60 85t21.5 119.5q0 39 -9 73.5t-22.5 62t-38.5 53t-46.5 44t-59 37.5t-63.5 31t-71 27.5t-71 23.5t-75 23v-672h6z" />
    <glyph glyph-name="percent" unicode="%" horiz-adv-x="2316" 
d="M1409 1673l64 -18l-588 -1872l-64 18zM580 739q-174 0 -284 114t-110 280t110 279.5t284 113.5t283.5 -113.5t109.5 -279.5t-109.5 -280t-283.5 -114zM580 797q141 0 232 96.5t91 239.5t-91 239t-232 96q-140 0 -231 -96.5t-91 -238.5t91 -239t231 -97zM1737 20
q-174 0 -284 114t-110 280t110 279.5t284 113.5t283.5 -113.5t109.5 -279.5t-109.5 -280t-283.5 -114zM1737 78q141 0 232 96.5t91 239.5t-91 239.5t-232 96.5q-140 0 -231 -97t-91 -239t91 -239t231 -97z" />
    <glyph glyph-name="ampersand" unicode="&#x26;" horiz-adv-x="1882" 
d="M1696 -37l-56 -35l-217 279q-112 -134 -269 -205.5t-351 -71.5q-174 0 -314.5 67.5t-221.5 191t-81 280.5q0 226 132.5 360t334.5 134q77 0 133.5 -20t75.5 -46v27l-352 446l-4 74h1053v-58h-979l841 -1073q178 274 178 715h72q0 -477 -207 -768zM803 -12q367 0 579 270
l-356 453q-85 108 -166 151t-203 43q-184 0 -291.5 -115.5t-107.5 -316.5q0 -146 71 -257.5t194.5 -169.5t279.5 -58z" />
    <glyph glyph-name="quotesingle" unicode="'" horiz-adv-x="444" 
d="M186 1479h72v-439h-72v439z" />
    <glyph glyph-name="parenleft" unicode="(" horiz-adv-x="854" 
d="M668 -244v-63q-147 50 -257.5 180t-167.5 310.5t-57 385.5t57 385t167.5 310t257.5 180v-64q-78 -26 -151 -95t-131 -171.5t-93 -244.5t-35 -300t35 -300.5t93 -245t131 -172t151 -95.5z" />
    <glyph glyph-name="parenright" unicode=")" horiz-adv-x="854" 
d="M186 -244q78 26 151 95.5t131 172t93 245t35 300.5t-35 300t-93 244.5t-131 171.5t-151 95v64q147 -50 257.5 -180t167.5 -310t57 -385t-57 -385.5t-167.5 -310.5t-257.5 -180v63z" />
    <glyph glyph-name="asterisk" unicode="*" horiz-adv-x="1026" 
d="M147 1212l23 70l260 -88l64 -37l-17 72v276h72v-276l-17 -74l62 41l262 82l23 -68l-261 -82l-71 -12l53 -41l162 -223l-60 -39l-159 221l-31 62l-29 -62l-161 -223l-58 39l162 223l53 45l-67 10z" />
    <glyph glyph-name="plus" unicode="+" horiz-adv-x="1271" 
d="M1085 520v-57h-419v-420h-58v420h-422v57h422v422h58v-422h419z" />
    <glyph glyph-name="comma" unicode="," horiz-adv-x="522" 
d="M274 301l62 -16l-170 -502l-62 14z" />
    <glyph glyph-name="hyphen" unicode="-" horiz-adv-x="1271" 
d="M186 522h899v-57h-899v57z" />
    <glyph glyph-name="period" unicode="." horiz-adv-x="647" 
d="M324 -20q-42 0 -70.5 29t-28.5 69t28.5 69t70.5 29t70 -29t28 -69t-28 -69t-70 -29z" />
    <glyph glyph-name="slash" unicode="/" horiz-adv-x="942" 
d="M733 1667l64 -18l-588 -1872l-64 18z" />
    <glyph glyph-name="zero" unicode="0" horiz-adv-x="1439" 
d="M721 1464q112 0 205 -37.5t159 -104t111.5 -159.5t67.5 -204t22 -236q0 -126 -22 -237t-67.5 -204t-111.5 -160t-159 -104.5t-205 -37.5q-140 0 -249.5 57t-178 158.5t-104 235.5t-35.5 292t35.5 291t104 234.5t178 158.5t249.5 57zM721 1407q-100 0 -182 -35
t-139.5 -96.5t-97.5 -148t-58.5 -188t-18.5 -216.5q0 -283 105 -459l743 975q-132 168 -352 168zM721 37q100 0 181.5 35t139 97t96.5 148t57.5 188t18.5 218q0 282 -106 463l-741 -977q130 -172 354 -172z" />
    <glyph glyph-name="one" unicode="1" horiz-adv-x="866" 
d="M133 762q100 41 174.5 117t116.5 171.5t62.5 192.5t23.5 201h162v-1444h-72v1341l8 76h-28q-7 -116 -32.5 -219t-73.5 -201.5t-130.5 -173.5t-193.5 -112z" />
    <glyph glyph-name="two" unicode="2" horiz-adv-x="1337" 
d="M125 727q0 158 29.5 284t81.5 210t126.5 139t159.5 79.5t185 24.5q220 0 349.5 -126.5t129.5 -358.5q0 -168 -81.5 -323t-219.5 -271.5t-322.5 -197.5t-388.5 -109v-27l68 6h944v-57h-1041v125q40 3 106.5 18.5t159 49t187 80t188 117t166 153t117.5 195t45 237.5
q0 214 -108 323t-295 109q-86 0 -159 -20t-140 -69.5t-113.5 -125.5t-74 -194.5t-27.5 -270.5h-72z" />
    <glyph glyph-name="three" unicode="3" horiz-adv-x="1343" 
d="M160 551h71q0 -268 118.5 -391t355.5 -123q421 0 421 381q0 157 -86 240t-241 83h-201v58h201q150 0 228.5 74.5t78.5 199.5q0 155 -96 244.5t-305 89.5q-453 0 -453 -426h-72q0 228 128.5 355.5t396.5 127.5q125 0 219 -31t148 -85t80 -119.5t26 -141.5
q0 -44 -7.5 -82.5t-25 -75.5t-44.5 -66t-69 -50t-96 -29v-26q133 -33 197.5 -124.5t64.5 -227.5q0 -194 -122.5 -310t-370.5 -116q-277 0 -411 142.5t-134 428.5z" />
    <glyph glyph-name="four" unicode="4" horiz-adv-x="1318" 
d="M1194 422v-57h-203v-365h-71v365h-775v127q123 75 233.5 172.5t205 217t159 265t84.5 297.5h72q-29 -144 -78.5 -270.5t-132.5 -257t-212.5 -251t-301.5 -223.5v-28l68 8h678v647h71v-647h203z" />
    <glyph glyph-name="five" unicode="5" horiz-adv-x="1411" 
d="M154 504h71q0 -225 125 -346t357 -121q219 0 353 133t134 367q0 203 -96.5 318.5t-288.5 115.5q-252 0 -408 -219l-122 49v643h890v-58h-819v-491l-8 -74l25 -14q163 221 444 221q222 0 338.5 -136.5t116.5 -373.5q0 -238 -154.5 -388t-404.5 -150q-270 0 -411.5 139.5
t-141.5 384.5z" />
    <glyph glyph-name="six" unicode="6" horiz-adv-x="1366" 
d="M145 629q0 100 10 192t33 182.5t58 165.5t89 137t121.5 101.5t159 55t199.5 1.5l293 -41v-57l-322 41q-122 14 -221.5 -22t-162 -102.5t-105 -157t-60 -178.5t-18.5 -175l-26 -76h26q40 148 168.5 240t323.5 92q147 0 261 -69t174 -186t60 -261q0 -237 -135 -384.5
t-375 -147.5q-262 0 -406.5 168.5t-144.5 480.5zM217 520q0 -94 31.5 -180t90.5 -154t151.5 -108.5t205.5 -40.5q208 0 323.5 128.5t115.5 346.5q0 201 -117.5 330t-312.5 129q-210 0 -349 -127t-139 -324z" />
    <glyph glyph-name="seven" unicode="7" horiz-adv-x="1171" 
d="M346 0q0 471 173 801.5t546 564.5v27l-74 -7h-913v58h1016v-131q-324 -183 -500 -520t-176 -793h-72z" />
    <glyph glyph-name="eight" unicode="8" horiz-adv-x="1351" 
d="M139 391q0 143 68 237.5t227 151.5v29q-119 50 -166 120.5t-47 186.5q0 165 120.5 256.5t334.5 91.5q213 0 333.5 -91.5t120.5 -256.5q0 -115 -48 -186t-167 -121v-29q161 -57 229 -150t68 -239q0 -80 -34.5 -153t-100 -131t-169.5 -92.5t-232 -34.5q-129 0 -233.5 34.5
t-169.5 93t-99.5 131t-34.5 152.5zM293 1114q0 -148 102 -220.5t281 -72.5t281 72.5t102 220.5q0 147 -102 220t-281 73t-281 -73t-102 -220zM211 401q0 -73 28.5 -137.5t84 -115.5t146 -81t206.5 -30q115 0 206 30t146.5 81t84 115.5t28.5 137.5q0 164 -118 263.5
t-347 99.5q-230 0 -347.5 -99.5t-117.5 -263.5z" />
    <glyph glyph-name="nine" unicode="9" horiz-adv-x="1366" 
d="M1221 815q0 -100 -10 -192t-33 -182.5t-58 -165.5t-89 -137t-121.5 -101.5t-159 -55t-199.5 -1.5l-293 40v58l322 -41q122 -14 221.5 22t162 102.5t105 157t60 178.5t18.5 175l27 76h-27q-40 -148 -168.5 -240t-323.5 -92q-147 0 -261 69t-174 186t-60 261
q0 237 135 384.5t375 147.5q262 0 406.5 -168.5t144.5 -480.5zM1149 924q0 94 -31.5 180t-90.5 154t-151.5 108.5t-205.5 40.5q-208 0 -323.5 -128.5t-115.5 -346.5q0 -201 118 -330t313 -129q210 0 348.5 127t138.5 324z" />
    <glyph glyph-name="colon" unicode=":" horiz-adv-x="647" 
d="M324 754q-42 0 -70.5 29t-28.5 69t28.5 69t70.5 29t70 -29t28 -69t-28 -69t-70 -29zM324 -20q-42 0 -70.5 29t-28.5 69t28.5 69t70.5 29t70 -29t28 -69t-28 -69t-70 -29z" />
    <glyph glyph-name="semicolon" unicode=";" horiz-adv-x="626" 
d="M303 754q-42 0 -70 29t-28 69t28 69t70 29t70 -29t28 -69t-28 -69t-70 -29zM274 301l62 -16l-170 -502l-62 14z" />
    <glyph glyph-name="less" unicode="&#x3c;" horiz-adv-x="1267" 
d="M186 467v78l869 291l26 -58l-813 -272l813 -275l-26 -57z" />
    <glyph glyph-name="equal" unicode="=" horiz-adv-x="1271" 
d="M186 721h899v-57h-899v57zM186 324h899v-58h-899v58z" />
    <glyph glyph-name="greater" unicode="&#x3e;" horiz-adv-x="1267" 
d="M1081 467l-868 -293l-27 57l813 275l-813 272l27 58l868 -291v-78z" />
    <glyph glyph-name="question" unicode="?" horiz-adv-x="1028" 
d="M145 997q0 210 106 328.5t286 118.5q158 0 252 -94t94 -254q0 -139 -80.5 -254.5t-212 -188.5t-297.5 -104v-17l45 3h414v-60h-488v125q37 6 84 20t112 39t124.5 65t111.5 91t83.5 124t31.5 157q0 130 -69 210t-201 80q-152 0 -238 -101t-86 -288h-72zM498 -20
q-42 0 -70.5 29t-28.5 69t28.5 69t70.5 29t70 -29t28 -69t-28 -69t-70 -29z" />
    <glyph glyph-name="at" unicode="@" horiz-adv-x="2091" 
d="M1411 164v137l6 74h-26q-45 -132 -164 -213.5t-279 -81.5q-133 0 -241.5 63t-173 183.5t-64.5 277.5t64.5 277.5t173 183.5t241.5 63q160 0 279 -82t164 -215h26l-6 76v201h72v-975h100q60 0 106 31.5t72.5 79t43.5 112t22.5 120.5t5.5 114q0 160 -58 304t-158.5 250.5
t-246 169t-311.5 62.5t-315 -60.5t-255.5 -164t-168.5 -247t-62 -302.5q0 -161 60 -302.5t168 -245t271 -159.5t357 -47l627 29v-57l-627 -29q-177 -8 -329 31.5t-261 116t-186 181.5t-114.5 227.5t-37.5 254.5q0 165 65.5 317t179 265.5t277.5 181.5t351 68
q148 0 281.5 -44t235.5 -123.5t176.5 -184.5t113.5 -231.5t39 -260.5q0 -53 -5 -104t-16.5 -112t-35 -112t-57.5 -94t-87 -67.5t-119 -24.5h-82q-54 0 -73 18.5t-19 69.5zM958 137q83 0 161.5 30t143 86.5t103.5 148t39 202.5t-39 202t-103.5 147.5t-143 87t-161.5 30.5
t-157 -29t-132.5 -85t-93 -147t-34.5 -206q0 -116 34.5 -207t93 -146.5t132.5 -84.5t157 -29z" />
    <glyph glyph-name="A" unicode="A" horiz-adv-x="1304" 
d="M1153 0l-215 627h-571l-215 -627h-68l494 1444h147l496 -1444h-68zM385 684h533l-252 733h-29z" />
    <glyph glyph-name="B" unicode="B" horiz-adv-x="1255" 
d="M166 0v1444h307q102 0 180 -9.5t146 -33.5t112 -63.5t68.5 -101.5t24.5 -146q0 -129 -72.5 -219.5t-181.5 -96.5v-29q167 -2 263.5 -97.5t96.5 -264.5q0 -198 -125 -290.5t-379 -92.5h-440zM238 780h221q94 0 163.5 7.5t130.5 27.5t98.5 54t59 87.5t21.5 126.5
q0 69 -13.5 119.5t-44 83.5t-66.5 53t-95.5 30.5t-114.5 13.5t-139 3h-221v-606zM238 57h354q110 0 187.5 15t138 51t90.5 102t30 164q0 175 -115 254.5t-331 79.5h-354v-666z" />
    <glyph glyph-name="C" unicode="C" horiz-adv-x="1544" 
d="M145 723q0 158 43 293t123 235t200.5 156.5t268.5 56.5q260 0 423 -154t196 -423h-72q-25 246 -169.5 383t-377.5 137q-135 0 -243 -53.5t-177.5 -146.5t-106 -217t-36.5 -267q0 -144 36.5 -268t106 -217.5t177.5 -147t243 -53.5q233 0 377.5 138t169.5 384h72
q-32 -270 -195 -424.5t-424 -154.5q-148 0 -268.5 56.5t-200.5 156.5t-123 236t-43 294z" />
    <glyph glyph-name="D" unicode="D" horiz-adv-x="1409" 
d="M580 1444q77 0 142.5 -7t137 -27.5t128.5 -53.5t110 -88.5t88.5 -129.5t56.5 -179.5t21 -235.5t-21 -236t-56.5 -180t-88.5 -130t-110 -89t-128.5 -53.5t-137 -27.5t-142.5 -7h-414v1444h414zM580 57q65 0 118 5t118.5 21.5t116.5 44.5t102 78.5t84 119t54 170t21 227.5
t-21 227t-54 169t-84 118.5t-102 78t-116.5 44t-118.5 21.5t-118 5h-342v-1329h342z" />
    <glyph glyph-name="E" unicode="E" horiz-adv-x="1103" 
d="M166 0v1444h813v-58h-741v-634h639v-58h-639v-637h741v-57h-813z" />
    <glyph glyph-name="F" unicode="F" horiz-adv-x="1185" 
d="M166 0v1444h895v-58h-823v-671l698 41v-60l-698 -41v-655h-72z" />
    <glyph glyph-name="G" unicode="G" horiz-adv-x="1576" 
d="M145 723q0 156 44 290.5t125.5 235t206.5 158t278 57.5q486 0 559 -536h-72q-13 109 -45 193.5t-88.5 150t-146 100.5t-207.5 35q-137 0 -248.5 -54.5t-183.5 -148t-111 -217t-39 -264.5q0 -115 18 -215.5t58.5 -188t100.5 -149.5t148.5 -97.5t198.5 -35.5q255 0 382 165
t118 490h-610v58h680q51 0 71.5 -17.5t20.5 -58.5v-674h-72v563l8 160h-28q-1 -391 -142.5 -567t-423.5 -176q-153 0 -270 57t-188 159t-106.5 234.5t-35.5 292.5z" />
    <glyph glyph-name="H" unicode="H" horiz-adv-x="1402" 
d="M1165 1444h72v-1444h-72v690h-927v-690h-72v1444h72v-696h927v696z" />
    <glyph glyph-name="I" unicode="I" horiz-adv-x="1001" 
d="M856 1386h-319v-1329h319v-57h-711v57h320v1329h-320v58h711v-58z" />
    <glyph glyph-name="J" unicode="J" horiz-adv-x="890" 
d="M397 -20l-313 20v57l313 -20q61 -4 104 7t74.5 43t50 76.5t29.5 121t15 163.5t4 216v743l-344 -21v58l323 20q42 3 67 -23t25 -69v-667v-14q0 -91 -0.5 -136t-3.5 -123t-9 -117t-17.5 -98t-29 -88.5t-43.5 -66t-60.5 -52t-81 -25t-103.5 -5.5z" />
    <glyph glyph-name="K" unicode="K" horiz-adv-x="1251" 
d="M1167 1444l-886 -721l886 -723h-102l-827 678v-678h-72v1444h72v-678l827 678h102z" />
    <glyph glyph-name="L" unicode="L" horiz-adv-x="1062" 
d="M258 -20q-42 -1 -67 24t-25 68v1372h72v-1407l741 20v-57z" />
    <glyph glyph-name="M" unicode="M" horiz-adv-x="1722" 
d="M166 0v1444h151l531 -1417h29l528 1417h151v-1444h-71v1348l10 69h-31l-528 -1417h-148l-530 1417h-29l9 -69v-1348h-72z" />
    <glyph glyph-name="N" unicode="N" horiz-adv-x="1468" 
d="M166 0v1444h151l893 -1417h29l-8 69v1348h72v-1444h-152l-893 1417h-29l9 -69v-1348h-72z" />
    <glyph glyph-name="O" unicode="O" horiz-adv-x="1562" 
d="M145 723q0 158 43.5 293t123.5 235t201 156.5t269 56.5q196 0 341.5 -98t219.5 -265t74 -378q0 -126 -27 -239t-81 -205t-130 -159t-177.5 -103.5t-219.5 -36.5q-148 0 -269 56.5t-201 156.5t-123.5 236t-43.5 294zM217 723q0 -111 22.5 -212t69 -188t112.5 -150.5
t158.5 -99.5t202.5 -36t202.5 36t158.5 99.5t112 150.5t68.5 188t22.5 212t-21.5 211.5t-67.5 187t-111.5 150t-159 99.5t-204.5 36t-204.5 -36t-159.5 -99.5t-111.5 -150t-67.5 -187t-22 -211.5z" />
    <glyph glyph-name="P" unicode="P" horiz-adv-x="1196" 
d="M502 1444q142 0 244 -22.5t177 -74t111.5 -139.5t36.5 -215t-37 -215.5t-111.5 -140.5t-176.5 -75t-244 -23h-264v-539h-72v1444h336zM496 596q94 0 165 9t137 34.5t108.5 69t67.5 115t25 169.5q0 70 -13 126.5t-35.5 97.5t-58 71t-76 48.5t-94 30t-107 15.5t-119.5 4
h-258v-790h258z" />
    <glyph glyph-name="Q" unicode="Q" horiz-adv-x="1505" 
d="M774 -127q361 15 852 -96v-58q-148 33 -287.5 55.5t-300.5 36.5t-337 11.5t-355 -23.5l-6 60q114 14 171.5 22.5t154.5 27t175 45t148 62.5l-10 25q-30 -12 -94.5 -26.5t-124.5 -14.5q-177 0 -318 97t-219 265.5t-78 374.5q0 158 42 291t120.5 230t199 151.5t269.5 54.5
q195 0 339 -99.5t216 -266t72 -375.5q0 -153 -35 -283t-94 -222.5t-141 -164t-170.5 -114.5t-188.5 -66zM776 63q265 0 410 173.5t145 486.5q0 200 -64 353.5t-191 242t-300 88.5q-261 0 -410 -183.5t-149 -486.5q0 -195 66.5 -347t194.5 -239.5t298 -87.5z" />
    <glyph glyph-name="R" unicode="R" horiz-adv-x="1296" 
d="M166 0v1444h432q136 0 227 -18t158 -62.5t98 -124t31 -199.5q0 -155 -51 -241t-160 -109v-28h152q46 0 61.5 -14.5t15.5 -55.5v-592h-71v623h-821v-623h-72zM238 680h360q64 0 111.5 3t96.5 12t82.5 25t64 42.5t48.5 63.5t28.5 89t10.5 119q0 69 -10.5 121.5t-28 90
t-49 63t-64 41t-82.5 23.5t-96 10.5t-112 2.5h-360v-706z" />
    <glyph glyph-name="S" unicode="S" horiz-adv-x="1341" 
d="M1237 332q0 -352 -518 -352q-145 0 -253.5 27t-177 73.5t-110 117.5t-58 150.5t-16.5 181.5h72q0 -116 28 -203.5t75 -142t117.5 -88t147 -46.5t171.5 -13q83 0 149 8.5t123.5 29.5t96 54.5t60 85t21.5 119.5q0 39 -9 74.5t-23.5 63t-39.5 53t-48.5 44.5t-60.5 38t-65 31
t-72.5 27.5t-73.5 24t-76.5 23t-73.5 22.5q-89 28 -152.5 53.5t-123.5 60.5t-96.5 74.5t-58.5 93.5t-22 120q0 159 114 243t363 84q120 0 214.5 -31t152.5 -80t96.5 -115t53 -129.5t14.5 -129.5h-72q0 107 -36.5 190.5t-100.5 134.5t-145.5 77t-176.5 26q-72 0 -130.5 -7.5
t-110.5 -26.5t-87.5 -49.5t-56 -77.5t-20.5 -109q0 -45 11.5 -83t29.5 -66.5t50.5 -54.5t63 -44t80 -37.5t88 -32.5t99.5 -31q83 -25 126 -38.5t114.5 -40.5t110 -49t88 -57t74 -72.5t42.5 -88.5t18 -110z" />
    <glyph glyph-name="T" unicode="T" horiz-adv-x="1318" 
d="M1212 1444v-58h-516v-1386h-71v1386h-521v58h1108z" />
    <glyph glyph-name="U" unicode="U" horiz-adv-x="1298" 
d="M125 537v907h72v-952q0 -455 452 -455q453 0 453 455v952h72v-907q0 -277 -125.5 -417t-399.5 -140q-275 0 -399.5 139.5t-124.5 417.5z" />
    <glyph glyph-name="V" unicode="V" horiz-adv-x="1304" 
d="M84 1444h68l485 -1417h29l487 1417h68l-496 -1444h-147z" />
    <glyph glyph-name="W" unicode="W" horiz-adv-x="1884" 
d="M84 1444h66l333 -1417h29l356 1417h148l356 -1417h29l334 1417h65l-340 -1444h-147l-357 1417h-28l-357 -1417h-147z" />
    <glyph glyph-name="X" unicode="X" horiz-adv-x="1280" 
d="M84 0l510 709v28l-510 707h80l477 -662l475 662h80l-510 -707v-28l510 -709h-80l-475 664l-477 -664h-80z" />
    <glyph glyph-name="Y" unicode="Y" horiz-adv-x="1269" 
d="M1112 1444h74l-514 -862v-582h-72v582l-516 862h74l465 -776v-76h26v76z" />
    <glyph glyph-name="Z" unicode="Z" horiz-adv-x="1316" 
d="M125 0v141l1038 1225v29l-73 -9h-965v58h1067v-141l-1038 -1225v-29l73 8h965v-57h-1067z" />
    <glyph glyph-name="bracketleft" unicode="[" horiz-adv-x="845" 
d="M186 1444h473v-58h-401v-1636h401v-57h-473v1751z" />
    <glyph glyph-name="backslash" unicode="\" horiz-adv-x="942" 
d="M209 1667l588 -1872l-64 -18l-588 1872z" />
    <glyph glyph-name="bracketright" unicode="]" horiz-adv-x="845" 
d="M659 1444v-1751h-473v57h402v1636h-402v58h473z" />
    <glyph glyph-name="asciicircum" unicode="^" horiz-adv-x="1081" 
d="M823 805l-268 612h-27l-268 -612h-74l285 639h141l283 -639h-72z" />
    <glyph glyph-name="underscore" unicode="_" horiz-adv-x="1189" 
d="M145 -129h899v-57h-899v57z" />
    <glyph glyph-name="grave" unicode="`" horiz-adv-x="919" 
d="M733 1280l-18 -61l-529 145l19 61z" />
    <glyph glyph-name="a" unicode="a" horiz-adv-x="1148" 
d="M125 283q0 120 76.5 195.5t236.5 86.5l434 33q0 174 -95.5 273.5t-246.5 99.5q-50 0 -97 -10t-92 -35t-78 -62t-53 -95t-20 -130h-71q0 70 24.5 137t72 124.5t129 92.5t185.5 35q103 0 183 -37.5t127.5 -101.5t71.5 -143t24 -168v-521h149v-57h-127q-43 0 -60 24.5
t-17 73.5v125l12 96h-29q-97 -339 -436 -339q-70 0 -125.5 21.5t-88 54t-53.5 75t-28.5 80t-7.5 72.5zM197 279q0 -115 62 -178.5t179 -63.5q89 0 163.5 32.5t123.5 85t83 120t49 134.5t15 132l-428 -33q-125 -9 -186 -63.5t-61 -165.5z" />
    <glyph glyph-name="b" unicode="b" horiz-adv-x="1304" 
d="M166 0v1505h72v-698l-7 -76h27q45 133 163.5 215t278.5 82q99 0 187 -37t153 -104t102.5 -166t37.5 -217t-37.5 -217t-102.5 -166t-153 -104t-187 -37q-160 0 -278.5 81t-163.5 213h-27l7 -73v-201h-72zM244 504q0 -112 39 -203t103 -147.5t142.5 -86.5t161.5 -30t157 29
t133 84.5t93.5 146.5t34.5 207q0 115 -34.5 206t-93.5 147t-133 85t-157 29t-161.5 -30.5t-142.5 -87t-103 -147.5t-39 -202z" />
    <glyph glyph-name="c" unicode="c" horiz-adv-x="1165" 
d="M125 504q0 80 19 155t58.5 142.5t95.5 117.5t136 79.5t174 29.5q51 0 100.5 -8.5t107.5 -33.5t102 -65.5t78.5 -111t43.5 -162.5h-69q-12 92 -47 158t-86.5 100.5t-107.5 50t-122 15.5q-100 0 -180 -39t-129.5 -105t-75.5 -148.5t-26 -174.5q0 -93 26 -175.5t75.5 -148.5
t129.5 -104.5t180 -38.5q66 0 122 15t107.5 50t86.5 100.5t47 157.5h69q-9 -93 -43.5 -163.5t-78.5 -110.5t-102 -65t-107 -33t-101 -8q-117 0 -211.5 44.5t-152.5 119t-88.5 167t-30.5 193.5z" />
    <glyph glyph-name="d" unicode="d" horiz-adv-x="1304" 
d="M1139 0h-72v201l6 73h-26q-45 -132 -164 -213t-279 -81q-133 0 -241.5 63t-173 183.5t-64.5 277.5t64.5 277.5t173 183.5t241.5 63q160 0 279 -82t164 -215h26l-6 76v698h72v-1505zM1061 504q0 111 -39 202t-103.5 147.5t-143 87t-161.5 30.5t-157 -29t-132.5 -85
t-93 -147t-34.5 -206q0 -116 34.5 -207t93 -146.5t132.5 -84.5t157 -29t161.5 30t143 86.5t103.5 148t39 202.5z" />
    <glyph glyph-name="e" unicode="e" horiz-adv-x="1177" 
d="M125 520q0 242 121 375t325 133q203 0 325 -130t122 -361v-35h-821q6 -101 30.5 -182t71.5 -146.5t124 -101t181 -35.5q148 0 244.5 83.5t132.5 229.5h72q-17 -57 -36.5 -102t-56 -97.5t-82 -87.5t-116.5 -59t-158 -24q-100 0 -181 29t-135.5 79t-92 119t-54 147
t-16.5 166zM197 559h749q0 193 -104 302.5t-271 109.5q-162 0 -268 -110t-106 -302z" />
    <glyph glyph-name="f" unicode="f" horiz-adv-x="831" 
d="M604 1448q-104 0 -145 -51t-41 -162v-227h293v-58h-293v-893h293v-57h-607v57h242v893h-242v58h242v227q0 270 246 270h176v-57h-164z" />
    <glyph glyph-name="g" unicode="g" horiz-adv-x="1296" 
d="M1141 1008h90v-58h-96q-97 0 -177 -55q117 -117 117 -291q0 -168 -128.5 -287.5t-401.5 -216.5q102 22 189.5 25.5t164 -14t120.5 -70t44 -137.5q0 -75 -44.5 -123.5t-150 -79t-265 -43t-402.5 -12.5v57q102 0 176.5 1t154.5 4.5t136.5 10t112 17t91.5 26t64.5 36
t41.5 48t13 62.5q0 284 -725 69l-18 56q212 75 391 168v26q-221 -39 -367.5 76.5t-146.5 321.5q0 103 42 182.5t111.5 126.5t152.5 70.5t173 23.5q98 0 170.5 -22t143.5 -68q77 47 115 58.5t108 11.5zM1004 616q0 114 -58.5 196.5t-148 120.5t-195.5 38q-82 0 -154 -22.5
t-128.5 -65.5t-89.5 -111.5t-33 -155.5q0 -171 113.5 -262.5t291.5 -91.5q176 0 289 91.5t113 262.5z" />
    <glyph glyph-name="h" unicode="h" horiz-adv-x="1148" 
d="M666 1028q160 0 247.5 -97.5t87.5 -277.5v-653h-71v655q0 164 -71.5 240t-213.5 76q-124 0 -218 -70.5t-141.5 -183t-47.5 -246.5v-471h-72v1505h72v-704l-9 -76h29q34 141 140.5 222t267.5 81z" />
    <glyph glyph-name="i" unicode="i" horiz-adv-x="837" 
d="M414 1268q-42 0 -70.5 29t-28.5 69t28.5 69t70.5 29t70 -29t28 -69t-28 -69t-70 -29zM125 0v57h281v916l-185 -23v58l172 20q44 5 62 -9t18 -56v-906h281v-57h-629z" />
    <glyph glyph-name="j" unicode="j" horiz-adv-x="503" 
d="M262 1268q-42 0 -70 29t-28 69t28 69t70 29t70 -29t28 -69t-28 -69t-70 -29zM63 -354l164 301q35 64 35 139v887l-192 -23v58l168 22q92 12 92 -78v-891q0 -78 -35 -139l-158 -276h-74z" />
    <glyph glyph-name="k" unicode="k" horiz-adv-x="1017" 
d="M831 0l-391 518l-202 -123v-395h-72v1505h72v-1034l546 330l-32 207h71l29 -164q11 -70 -55 -111l-301 -182l417 -551h-82z" />
    <glyph glyph-name="l" unicode="l" horiz-adv-x="829" 
d="M104 0v57h285v1413l-188 -22v57l141 23q65 9 92 -10.5t27 -81.5v-1379h282v-57h-639z" />
    <glyph glyph-name="m" unicode="m" horiz-adv-x="1785" 
d="M1321 1028q142 0 229.5 -99t87.5 -282v-647h-71v625q0 159 -59 252.5t-187 93.5q-115 0 -203 -67t-134 -180t-46 -253v-471h-72v625q0 159 -58.5 252.5t-186.5 93.5q-115 0 -203 -67t-134 -180t-46 -253v-471h-72v1008h72v-215l-9 -74h29q32 143 124.5 226t238.5 83
q127 0 211.5 -79.5t101.5 -229.5h16q32 142 128 225.5t243 83.5z" />
    <glyph glyph-name="n" unicode="n" horiz-adv-x="1148" 
d="M645 971q-124 0 -218 -70.5t-141.5 -183t-47.5 -246.5v-471h-72v1008h72v-207l-9 -76h29q34 141 140.5 222t267.5 81q160 0 247.5 -97.5t87.5 -277.5v-653h-71v655q0 164 -71.5 240t-213.5 76z" />
    <glyph glyph-name="o" unicode="o" horiz-adv-x="1269" 
d="M125 504q0 98 33.5 191t95.5 167.5t161 120t220 45.5q120 0 219 -45.5t161.5 -120t96 -167.5t33.5 -191t-33.5 -191t-96 -167.5t-161.5 -120t-219 -45.5q-121 0 -220 45.5t-161 120t-95.5 167.5t-33.5 191zM197 504q0 -69 17.5 -135.5t53.5 -127t87 -105.5t123 -72
t157 -27t157 27t123 72t87 105.5t53.5 127t17.5 135.5q0 86 -28 168t-81 149.5t-138.5 108.5t-190.5 41t-190.5 -41t-138.5 -108.5t-81 -149.5t-28 -168z" />
    <glyph glyph-name="p" unicode="p" horiz-adv-x="1304" 
d="M166 1008h72v-201l-7 -74h27q45 132 163.5 213.5t278.5 81.5q99 0 187 -37t153 -104t102.5 -166t37.5 -217t-37.5 -217t-102.5 -166t-153 -104t-187 -37q-160 0 -278.5 81.5t-163.5 214.5h-27l7 -75v-555h-72v1362zM244 504q0 -111 39 -202t103 -147.5t142.5 -87
t161.5 -30.5t157 29t133 85t93.5 147t34.5 206q0 116 -34.5 207t-93.5 146.5t-133 84.5t-157 29t-161.5 -30t-142.5 -86.5t-103 -147.5t-39 -203z" />
    <glyph glyph-name="q" unicode="q" horiz-adv-x="1306" 
d="M1139 1008v-1362h-72v555l6 75h-26q-45 -133 -164 -214.5t-279 -81.5q-133 0 -241.5 63t-173 183.5t-64.5 277.5t64.5 277.5t173 183.5t241.5 63q160 0 279 -81.5t164 -213.5h26l-6 74v201h72zM1061 504q0 111 -39 202.5t-103.5 148t-143 86.5t-161.5 30t-157 -29
t-132.5 -84.5t-93 -146.5t-34.5 -207q0 -115 34.5 -206t93 -147t132.5 -85t157 -29t161.5 30.5t143 87t103.5 147.5t39 202z" />
    <glyph glyph-name="r" unicode="r" horiz-adv-x="847" 
d="M166 0v909q0 64 28.5 93.5t90.5 25.5l497 -20v-58l-544 23v-973h-72z" />
    <glyph glyph-name="s" unicode="s" horiz-adv-x="958" 
d="M874 242q0 -262 -352 -262q-418 0 -418 395h72q0 -172 88.5 -255t253.5 -83q134 0 209.5 49.5t75.5 149.5q0 48 -20.5 86.5t-41 61t-75.5 46.5t-78.5 32t-94.5 28q-27 8 -40 12q-156 48 -228.5 111t-72.5 175q0 110 86 175t237 65q85 0 151 -19.5t105.5 -50.5t64.5 -74.5
t34.5 -86t9.5 -90.5h-72q0 264 -293 264q-108 0 -180 -46t-72 -134q0 -78 48 -128.5t167 -89.5q22 -7 67 -21t69.5 -22.5t65 -23t64 -27t54.5 -31t48.5 -38.5t35 -45.5t25 -56t7.5 -66.5z" />
    <glyph glyph-name="t" unicode="t" horiz-adv-x="796" 
d="M346 37l344 20v-57l-297 -20q-62 -4 -90.5 25t-28.5 93v852h-211v58h211v303l72 20v-323h303v-58h-303v-913z" />
    <glyph glyph-name="u" unicode="u" horiz-adv-x="1128" 
d="M504 37q124 0 218 70.5t141.5 183t47.5 246.5v471h72v-1008h-72v207l9 76h-29q-34 -141 -140.5 -222t-267.5 -81q-160 0 -248 97.5t-88 276.5v654h72v-656q0 -164 71 -239.5t214 -75.5z" />
    <glyph glyph-name="v" unicode="v" horiz-adv-x="1019" 
d="M889 1008h65l-372 -1008h-142l-377 1008h68l367 -981h26z" />
    <glyph glyph-name="w" unicode="w" horiz-adv-x="1652" 
d="M63 1008h68l313 -981h29l285 981h137l285 -981h26l314 981h67l-321 -1008h-146l-280 979h-27l-281 -979h-147z" />
    <glyph glyph-name="x" unicode="x" horiz-adv-x="1079" 
d="M104 0l377 492v26l-377 490h80l357 -457l354 457h80l-377 -490v-26l377 -492h-80l-354 459l-357 -459h-80z" />
    <glyph glyph-name="y" unicode="y" horiz-adv-x="1112" 
d="M956 1008h70l-422 -1028v-263q0 -45 -29.5 -70t-91.5 -22l-325 23v57l374 -24v299l-428 1028h70l379 -914v-26h29v26z" />
    <glyph glyph-name="z" unicode="z" horiz-adv-x="1132" 
d="M125 0v139l854 791v26l-74 -6h-780v58h883v-140l-854 -790v-27l73 6h781v-57h-883z" />
    <glyph glyph-name="braceleft" unicode="{" horiz-adv-x="1128" 
d="M494 1386l-76 7v-27q98 -35 173.5 -99t117.5 -139.5t63 -150.5t21 -146q0 -135 -54 -258q54 -123 54 -258q0 -71 -21 -146t-63 -150t-117.5 -139t-173.5 -99v-27l76 6h454v-57h-557v121q330 160 330 506q0 85 -23 166q-107 -166 -272 -166q-109 0 -177.5 64.5
t-68.5 178.5q0 113 70.5 178.5t175.5 65.5q165 0 272 -166q23 81 23 166q0 346 -330 506v121h557v-58h-454zM426 387q73 0 138 49.5t106 136.5q-42 87 -106.5 137t-137.5 50q-84 0 -129 -49t-45 -138q0 -88 45 -137t129 -49z" />
    <glyph glyph-name="bar" unicode="|" horiz-adv-x="444" 
d="M186 1747h72v-2050h-72v2050z" />
    <glyph glyph-name="braceright" unicode="}" horiz-adv-x="1140" 
d="M709 330q-166 0 -273 166q-22 -77 -22 -166q0 -346 329 -506v-121h-557v57h455l76 -6v27q-98 35 -173.5 99t-117.5 139t-63 150t-21 146q0 137 53 258q-53 121 -53 258q0 71 21 146t63 150.5t117.5 139.5t173.5 99v27l-76 -7h-455v58h557v-121q-329 -160 -329 -506
q0 -89 22 -166q107 166 273 166q105 0 175 -65.5t70 -178.5q0 -114 -68 -178.5t-177 -64.5zM709 760q-73 0 -137.5 -50t-106.5 -137q41 -87 106 -136.5t138 -49.5q84 0 129 49t45 137q0 89 -45 138t-129 49z" />
    <glyph glyph-name="asciitilde" unicode="~" horiz-adv-x="1280" 
d="M186 403q0 50 15 88.5t37.5 60.5t53 35.5t56 18t51.5 4.5q65 0 136 -28t121.5 -61t113 -61t113.5 -28q59 0 99 34t40 118h72q0 -50 -15 -89t-37.5 -61t-52.5 -36t-55.5 -18.5t-50.5 -4.5q-66 0 -137 28t-121.5 61t-112.5 61t-113 28q-141 0 -141 -150h-72z" />
    <glyph glyph-name="exclamdown" unicode="&#xa1;" horiz-adv-x="647" 
d="M324 1028q42 0 70 -29t28 -69q0 -41 -28 -70t-70 -29t-70.5 29.5t-28.5 69.5t28.5 69t70.5 29zM289 -436v968h71v-968h-71z" />
    <glyph glyph-name="cent" unicode="&#xa2;" horiz-adv-x="1292" 
d="M682 252q308 8 350 323h70q-9 -90 -42 -159.5t-75.5 -109.5t-99 -66t-104.5 -35t-99 -10v-498l-70 2v498q-103 11 -186 59.5t-134.5 120.5t-78.5 159.5t-27 182.5q0 94 27 181.5t78.5 160t133.5 121t185 59.5v506l70 -2v-502q51 -1 100 -10t105 -35t99 -66.5t76 -110
t42 -159.5h-70q-12 90 -45.5 155t-83 100.5t-104 51.5t-119.5 17zM258 719q0 -178 92 -310t262 -153l-2 926q-168 -21 -260 -153.5t-92 -309.5z" />
    <glyph glyph-name="sterling" unicode="&#xa3;" horiz-adv-x="1202" 
d="M825 1386q-213 23 -299 -29t-86 -202q0 -60 13 -128.5t41 -174t36 -139.5h404v-58h-391q18 -80 18 -149q0 -82 -28.5 -152.5t-80 -122t-109.5 -88.5t-128 -65v-27l74 6h727v-57h-830v131q147 56 225 155.5t78 219.5q0 54 -18 149h-285v58h273q-8 34 -28.5 112.5t-31 122
t-20.5 103.5t-10 104q0 82 23 140t64.5 89t97.5 48t122.5 16.5t140.5 -4.5l199 -21v-57z" />
    <glyph glyph-name="currency" unicode="&#xa4;" horiz-adv-x="1595" 
d="M1188 674q0 -146 -86 -252l301 -301l-51 -51l-301 301q-104 -90 -256 -90q-147 0 -254 86l-297 -297l-51 51l299 297q-91 109 -91 256q0 144 88 256l-296 299l51 51l299 -299q107 86 252 86q150 0 256 -88l301 301l51 -51l-301 -301q86 -109 86 -254zM795 338
q141 0 232 96.5t91 239.5t-91 239.5t-232 96.5q-140 0 -231 -97t-91 -239t91 -239t231 -97z" />
    <glyph glyph-name="yen" unicode="&#xa5;" horiz-adv-x="1474" 
d="M1288 1444l-508 -852h318v-57h-324v-138h324v-57h-324v-340h-72v340h-323v57h323v138h-323v57h317l-510 852h74l465 -776v-76h27v76l462 776h74z" />
    <glyph glyph-name="brokenbar" unicode="&#xa6;" horiz-adv-x="444" 
d="M186 989v758h72v-758h-72zM258 455v-758h-72v758h72z" />
    <glyph glyph-name="section" unicode="&#xa7;" horiz-adv-x="1167" 
d="M186 743q0 94 45 160.5t152 102.5q-125 67 -125 206q0 111 86.5 181.5t235.5 70.5q86 0 152 -19.5t105.5 -50.5t65 -74.5t34.5 -85.5t9 -89h-72q0 130 -74.5 196t-217.5 66q-109 0 -180.5 -45.5t-71.5 -134.5t43 -129.5t170 -81.5q173 -57 199 -67q166 -65 215 -161
q24 -48 24 -106q0 -94 -44.5 -160t-152.5 -102q125 -67 125 -207q0 -111 -86 -181.5t-235 -70.5q-86 0 -152 19.5t-106 51t-65 74.5t-34.5 85.5t-9.5 89.5h72q0 -130 75 -196.5t218 -66.5q109 0 180.5 46t71.5 135q0 88 -43 128t-170 81q-18 6 -56 18q-41 13 -62.5 20
t-60 21t-60 24t-53 27t-49.5 32t-39.5 37t-32.5 44.5t-18.5 51t-7.5 60.5zM258 752q0 -26 5.5 -49t12.5 -41.5t22.5 -35.5t28.5 -29t37 -25t40 -20.5t47 -18.5t49 -17t53.5 -17.5t54.5 -17.5q131 -41 216 18.5t85 174.5q0 122 -115 187q-59 33 -218 78h-1l-1 1h-1h-1l-1 1
h-1h-1h-1l-1 1h-1h-1l-1 1h-1h-1h-1l-1 1h-1q-133 37 -217 -20.5t-84 -171.5z" />
    <glyph glyph-name="dieresis" unicode="&#xa8;" horiz-adv-x="960" 
d="M303 1268q-42 0 -70 29t-28 69t28 69t70 29t70 -29t28 -69t-28 -69t-70 -29zM657 1268q-42 0 -70 29t-28 69t28 69t70 29t70.5 -29t28.5 -69t-28.5 -69t-70.5 -29z" />
    <glyph glyph-name="copyright" unicode="&#xa9;" horiz-adv-x="2064" 
d="M1032 -270q-184 0 -342.5 66.5t-268.5 180.5t-172.5 269t-62.5 329t62.5 329t172.5 269t268.5 181t342.5 67t342.5 -67t268.5 -181t172.5 -269t62.5 -329t-62.5 -329t-172.5 -269t-268.5 -180.5t-342.5 -66.5zM1032 -213q138 0 260.5 41t215 114.5t160.5 171.5t103 216
t35 245t-35 245t-103 216.5t-160.5 172t-215 114.5t-260.5 41t-260.5 -41t-215 -114.5t-160.5 -172t-103 -216.5t-35 -245t35 -245t103 -216t160.5 -171.5t215 -114.5t260.5 -41zM557 578q0 80 19 155t58.5 142.5t95.5 117.5t136 79.5t174 29.5q51 0 100.5 -8.5t107.5 -33.5
t102.5 -65.5t79 -111t43.5 -162.5h-70q-12 92 -47 157.5t-86.5 100.5t-107.5 50t-122 15q-100 0 -180 -39t-129.5 -104.5t-75.5 -148t-26 -174.5q0 -93 26 -175.5t75.5 -148.5t129.5 -104.5t180 -38.5q66 0 122 15t107.5 50t86.5 100.5t47 157.5h70q-9 -93 -43.5 -163.5
t-79 -111t-102.5 -65.5t-107 -33t-101 -8q-94 0 -174 29.5t-136 79.5t-95.5 117t-58.5 143t-19 156z" />
    <glyph glyph-name="guillemotleft" unicode="&#xab;" horiz-adv-x="1259" 
d="M770 47l-47 -45l-537 506l537 504l47 -45l-489 -459zM1073 47l-47 -45l-537 506l537 504l47 -45l-489 -459z" />
    <glyph glyph-name="logicalnot" unicode="&#xac;" horiz-adv-x="1271" 
d="M1085 670v-449h-57v391h-842v58h899z" />
    <glyph glyph-name="registered" unicode="&#xae;" horiz-adv-x="1236" 
d="M618 618q-198 0 -315 124t-117 309t117 308.5t315 123.5t315.5 -123.5t117.5 -308.5t-117.5 -309t-315.5 -124zM618 676q168 0 264.5 108t96.5 267t-96.5 266.5t-264.5 107.5t-264 -107.5t-96 -266.5q0 -160 96 -267.5t264 -107.5zM436 834v438h172q213 0 213 -127
q0 -50 -28 -76.5t-91 -32.5v-20h68q51 0 51 -51v-131h-71v159h-242v-159h-72zM508 1051h121q67 0 94 17.5t27 66.5q0 46 -27 62.5t-94 16.5h-121v-163z" />
    <glyph glyph-name="macron" unicode="&#xaf;" horiz-adv-x="903" 
d="M186 1348h529v-58h-529v58z" />
    <glyph glyph-name="degree" unicode="&#xb0;" horiz-adv-x="1161" 
d="M580 739q-174 0 -284 114t-110 280t110 279.5t284 113.5t283.5 -113.5t109.5 -279.5t-109.5 -280t-283.5 -114zM580 797q141 0 232 96.5t91 239.5t-91 239t-232 96q-140 0 -231 -96.5t-91 -238.5t91 -239t231 -97z" />
    <glyph glyph-name="plusminus" unicode="&#xb1;" horiz-adv-x="1271" 
d="M666 651h419v-57h-419v-301h-58v301h-422v57h422v307h58v-307zM186 90v57h899v-57h-899z" />
    <glyph glyph-name="acute" unicode="&#xb4;" horiz-adv-x="919" 
d="M186 1280l529 145l18 -61l-528 -145z" />
    <glyph glyph-name="paragraph" unicode="&#xb6;" horiz-adv-x="1234" 
d="M186 1292q0 79 14.5 142t54 123t104.5 100.5t172.5 65t250.5 24.5h72v-2050h-72v1139q-143 0 -250.5 24.5t-172.5 65t-104.5 101t-54 123.5t-14.5 142zM975 1747h72v-2050h-72v2050z" />
    <glyph glyph-name="periodcentered" unicode="&#xb7;" horiz-adv-x="647" 
d="M324 408q-42 0 -70.5 29t-28.5 69t28.5 69t70.5 29t70 -29t28 -69t-28 -69t-70 -29z" />
    <glyph glyph-name="cedilla" unicode="&#xb8;" horiz-adv-x="716" 
d="M422 -80q46 0 76 -26.5t30 -75.5q0 -78 -90 -122t-252 -44v57q127 0 199 28t72 81q0 45 -45 45q-29 0 -56.5 -11t-76.5 -45l-43 66l112 127h72l-105 -113q57 33 107 33z" />
    <glyph glyph-name="guillemotright" unicode="&#xbb;" horiz-adv-x="1259" 
d="M186 47l490 461l-490 459l47 45l537 -504l-537 -506zM489 47l490 461l-490 459l48 45l536 -504l-536 -506z" />
    <glyph glyph-name="onequarter" unicode="&#xbc;" horiz-adv-x="1738" 
d="M1128 1667l64 -18l-588 -1872l-63 18zM109 1065q202 82 202 338h170v-809h-71v729l2 53h-29q-15 -152 -72 -238t-178 -137zM995 215v111q151 81 246 202.5t119 280.5h72q-43 -333 -396 -526v-13l35 2h367v346h71v-346h125v-57h-125v-215h-71v215h-443z" />
    <glyph glyph-name="onehalf" unicode="&#xbd;" horiz-adv-x="1900" 
d="M1128 1667l64 -18l-588 -1872l-63 18zM109 1065q202 82 202 338h170v-809h-71v729l2 53h-29q-15 -152 -72 -238t-178 -137zM1124 406q0 98 23 173.5t59.5 121.5t87 76t101 41t106.5 11q129 0 212 -68t83 -202q0 -78 -32 -147t-87.5 -122.5t-133.5 -98t-166.5 -75.5
t-190.5 -53v-12l35 6h559v-57h-621v117q56 8 124 27.5t147.5 57.5t143.5 86.5t107 119.5t43 151q0 104 -58.5 158.5t-164.5 54.5q-134 0 -219.5 -91.5t-85.5 -274.5h-72z" />
    <glyph glyph-name="threequarters" unicode="&#xbe;" horiz-adv-x="1970" 
d="M1300 1667l64 -18l-588 -1872l-63 18zM104 909h72q0 -143 71.5 -206.5t205.5 -63.5q116 0 180.5 49t64.5 139q0 48 -22 85t-55.5 56.5t-66 28.5t-60.5 9h-103v57h103q23 0 46 3t50.5 12.5t48.5 24.5t35 42t14 63q0 78 -60.5 122t-174.5 44q-128 0 -197.5 -57.5
t-69.5 -165.5h-71q0 138 89.5 209.5t248.5 71.5q139 0 222 -60t83 -160q0 -145 -170 -174v-12q82 -16 131 -67.5t49 -137.5q0 -114 -86 -176.5t-229 -62.5q-77 0 -138.5 17.5t-110 55t-74.5 102t-26 152.5zM1227 215v111q317 171 364 483h72q-43 -333 -395 -526v-13l35 2
h366v346h72v-346h125v-57h-125v-215h-72v215h-442z" />
    <glyph glyph-name="questiondown" unicode="&#xbf;" horiz-adv-x="1048" 
d="M551 1028q42 0 70 -29t28 -69q0 -41 -28 -70t-70 -29t-70 29t-28 70q0 40 28 69t70 29zM903 10q0 -210 -105.5 -328t-285.5 -118q-158 0 -252 94t-94 254q0 139 80.5 254.5t212 188.5t297.5 104v16l-45 -2h-414v59h487v-124q-31 -5 -69.5 -15t-92.5 -30.5t-105 -47
t-102.5 -67t-90 -87.5t-62.5 -112t-24 -137q0 -130 69 -210.5t201 -80.5q152 0 237.5 101t85.5 288h72z" />
    <glyph glyph-name="Agrave" unicode="&#xc0;" horiz-adv-x="1304" 
d="M924 1716l-19 -61l-528 145l18 62zM1153 0l-215 627h-571l-215 -627h-68l494 1444h147l496 -1444h-68zM385 684h533l-252 733h-29z" />
    <glyph glyph-name="Aacute" unicode="&#xc1;" horiz-adv-x="1304" 
d="M932 1800l-529 -145l-18 61l528 146zM1153 0l-215 627h-571l-215 -627h-68l494 1444h147l496 -1444h-68zM385 684h533l-252 733h-29z" />
    <glyph glyph-name="Acircumflex" unicode="&#xc2;" horiz-adv-x="1304" 
d="M651 1819l-231 -201l-43 49l274 236l273 -236l-43 -49zM1153 0l-215 627h-571l-215 -627h-68l494 1444h147l496 -1444h-68zM385 684h533l-252 733h-29z" />
    <glyph glyph-name="Atilde" unicode="&#xc3;" horiz-adv-x="1304" 
d="M508 1796q-39 0 -64.5 -36.5t-25.5 -121.5h-72q0 110 45.5 162.5t116.5 52.5q43 0 78.5 -18.5t59.5 -44.5t46 -52t48 -44.5t55 -18.5q39 0 64.5 36.5t25.5 121.5h71q0 -110 -45 -162.5t-116 -52.5q-43 0 -78.5 18.5t-59.5 44.5t-46 52t-48 44.5t-55 18.5zM1153 0
l-215 627h-571l-215 -627h-68l494 1444h147l496 -1444h-68zM385 684h533l-252 733h-29z" />
    <glyph glyph-name="Adieresis" unicode="&#xc4;" horiz-adv-x="1304" 
d="M473 1704q-42 0 -70 29t-28 69q0 41 28 70t70 29t70 -29t28 -70q0 -40 -28 -69t-70 -29zM827 1704q-42 0 -70 29t-28 69q0 41 28 70t70 29t70.5 -29.5t28.5 -69.5t-28.5 -69t-70.5 -29zM1153 0l-215 627h-571l-215 -627h-68l494 1444h147l496 -1444h-68zM385 684h533
l-252 733h-29z" />
    <glyph glyph-name="Aring" unicode="&#xc5;" horiz-adv-x="1304" 
d="M649 1595q-90 0 -144 59.5t-54 137.5q0 76 54 135.5t144 59.5q91 0 146 -59.5t55 -135.5t-55 -136.5t-146 -60.5zM649 1929q-58 0 -92.5 -38t-34.5 -99q0 -62 34.5 -100.5t92.5 -38.5q60 0 94.5 38t34.5 101q0 61 -35 99t-94 38zM1153 0l-215 627h-571l-215 -627h-68
l494 1444h147l496 -1444h-68zM385 684h533l-252 733h-29z" />
    <glyph glyph-name="AE" unicode="&#xc6;" horiz-adv-x="1925" 
d="M1800 1386h-741v-634h639v-58h-639v-637h741v-57h-813v621h-467l-360 -621h-76l840 1444h876v-58zM553 678h434v739h-6z" />
    <glyph glyph-name="Ccedilla" unicode="&#xc7;" horiz-adv-x="1544" 
d="M780 37q233 0 377.5 138t169.5 384h72q-33 -268 -192.5 -422t-415.5 -157l-86 -93q57 33 106 33q47 0 77 -26.5t30 -75.5q0 -78 -90.5 -122t-252.5 -44v57q127 0 199 28t72 81q0 45 -45 45q-29 0 -56.5 -11t-76.5 -45l-43 66l96 109q-269 23 -422.5 228t-153.5 513
q0 158 43 293t123 235t200.5 156.5t268.5 56.5q260 0 423 -154t196 -423h-72q-25 246 -169.5 383t-377.5 137q-135 0 -243 -53.5t-177.5 -146.5t-106 -217t-36.5 -267q0 -144 36.5 -268t106 -217.5t177.5 -147t243 -53.5z" />
    <glyph glyph-name="Egrave" unicode="&#xc8;" horiz-adv-x="1103" 
d="M846 1716l-19 -61l-528 145l18 62zM166 0v1444h813v-58h-741v-634h639v-58h-639v-637h741v-57h-813z" />
    <glyph glyph-name="Eacute" unicode="&#xc9;" horiz-adv-x="1103" 
d="M307 1716l529 146l18 -62l-528 -145zM166 0v1444h813v-58h-741v-634h639v-58h-639v-637h741v-57h-813z" />
    <glyph glyph-name="Ecircumflex" unicode="&#xca;" horiz-adv-x="1103" 
d="M846 1667l-43 -49l-230 201l-231 -201l-43 49l274 236zM166 0v1444h813v-58h-741v-634h639v-58h-639v-637h741v-57h-813z" />
    <glyph glyph-name="Edieresis" unicode="&#xcb;" horiz-adv-x="1103" 
d="M395 1704q-42 0 -70 29t-28 69q0 41 28 70t70 29t70.5 -29.5t28.5 -69.5t-28.5 -69t-70.5 -29zM750 1704q-42 0 -70.5 29t-28.5 69t28.5 69.5t70.5 29.5t70 -29t28 -70q0 -40 -28 -69t-70 -29zM166 0v1444h813v-58h-741v-634h639v-58h-639v-637h741v-57h-813z" />
    <glyph glyph-name="Igrave" unicode="&#xcc;" horiz-adv-x="1001" 
d="M774 1716l-18 -61l-529 145l19 62zM856 1386h-319v-1329h319v-57h-711v57h320v1329h-320v58h711v-58z" />
    <glyph glyph-name="Iacute" unicode="&#xcd;" horiz-adv-x="1001" 
d="M782 1800l-528 -145l-18 61l528 146zM856 1386h-319v-1329h319v-57h-711v57h320v1329h-320v58h711v-58z" />
    <glyph glyph-name="Icircumflex" unicode="&#xce;" horiz-adv-x="1001" 
d="M502 1819l-232 -201l-43 49l275 236l272 -236l-43 -49zM856 1386h-319v-1329h319v-57h-711v57h320v1329h-320v58h711v-58z" />
    <glyph glyph-name="Idieresis" unicode="&#xcf;" horiz-adv-x="1001" 
d="M324 1704q-42 0 -70.5 29t-28.5 69t28.5 69.5t70.5 29.5t70 -29t28 -70q0 -40 -28 -69t-70 -29zM678 1704q-42 0 -70 29t-28 69q0 41 28 70t70 29t70 -29t28 -70q0 -40 -28 -69t-70 -29zM856 1386h-319v-1329h319v-57h-711v57h320v1329h-320v58h711v-58z" />
    <glyph glyph-name="Eth" unicode="&#xd0;" horiz-adv-x="1519" 
d="M688 1444q77 0 142.5 -7t137 -27.5t128.5 -53.5t110 -88.5t88.5 -129.5t56.5 -179.5t21 -235.5t-21 -236t-56.5 -180t-88.5 -130t-110 -89t-128.5 -53.5t-137 -27.5t-142.5 -7h-414v719h-129v57h129v668h414zM688 57q65 0 118 5t118.5 21.5t117 44.5t102 78.5t84 119
t54.5 170t21 227.5t-21 227t-54.5 169t-84.5 118.5t-101.5 78t-116.5 44t-119 21.5t-118 5h-342v-610h451v-57h-451v-662h342z" />
    <glyph glyph-name="Ntilde" unicode="&#xd1;" horiz-adv-x="1468" 
d="M469 1638q0 110 45.5 162.5t116.5 52.5q43 0 78.5 -18.5t59.5 -44.5t46 -52t48 -44.5t55 -18.5q39 0 64.5 36.5t25.5 121.5h71q0 -110 -45 -162.5t-116 -52.5q-43 0 -78.5 18.5t-59.5 44.5t-46 52t-48 44.5t-55 18.5q-39 0 -64.5 -36.5t-25.5 -121.5h-72zM166 0v1444h151
l893 -1417h29l-8 69v1348h72v-1444h-152l-893 1417h-29l9 -69v-1348h-72z" />
    <glyph glyph-name="Ograve" unicode="&#xd2;" horiz-adv-x="1562" 
d="M1055 1716l-19 -61l-528 145l18 62zM145 723q0 158 43.5 293t123.5 235t201 156.5t269 56.5q196 0 341.5 -98t219.5 -265t74 -378q0 -126 -27 -239t-81 -205t-130 -159t-177.5 -103.5t-219.5 -36.5q-148 0 -269 56.5t-201 156.5t-123.5 236t-43.5 294zM217 723
q0 -111 22.5 -212t69 -188t112.5 -150.5t158.5 -99.5t202.5 -36t202.5 36t158.5 99.5t112 150.5t68.5 188t22.5 212t-21.5 211.5t-67.5 187t-111.5 150t-159 99.5t-204.5 36t-204.5 -36t-159.5 -99.5t-111.5 -150t-67.5 -187t-22 -211.5z" />
    <glyph glyph-name="Oacute" unicode="&#xd3;" horiz-adv-x="1562" 
d="M516 1716l528 146l19 -62l-528 -145zM145 723q0 158 43.5 293t123.5 235t201 156.5t269 56.5q196 0 341.5 -98t219.5 -265t74 -378q0 -126 -27 -239t-81 -205t-130 -159t-177.5 -103.5t-219.5 -36.5q-148 0 -269 56.5t-201 156.5t-123.5 236t-43.5 294zM217 723
q0 -111 22.5 -212t69 -188t112.5 -150.5t158.5 -99.5t202.5 -36t202.5 36t158.5 99.5t112 150.5t68.5 188t22.5 212t-21.5 211.5t-67.5 187t-111.5 150t-159 99.5t-204.5 36t-204.5 -36t-159.5 -99.5t-111.5 -150t-67.5 -187t-22 -211.5z" />
    <glyph glyph-name="Ocircumflex" unicode="&#xd4;" horiz-adv-x="1562" 
d="M1055 1667l-43 -49l-230 201l-231 -201l-43 49l274 236zM145 723q0 158 43.5 293t123.5 235t201 156.5t269 56.5q196 0 341.5 -98t219.5 -265t74 -378q0 -126 -27 -239t-81 -205t-130 -159t-177.5 -103.5t-219.5 -36.5q-148 0 -269 56.5t-201 156.5t-123.5 236t-43.5 294
zM217 723q0 -111 22.5 -212t69 -188t112.5 -150.5t158.5 -99.5t202.5 -36t202.5 36t158.5 99.5t112 150.5t68.5 188t22.5 212t-21.5 211.5t-67.5 187t-111.5 150t-159 99.5t-204.5 36t-204.5 -36t-159.5 -99.5t-111.5 -150t-67.5 -187t-22 -211.5z" />
    <glyph glyph-name="Otilde" unicode="&#xd5;" horiz-adv-x="1562" 
d="M477 1638q0 110 45.5 162.5t116.5 52.5q43 0 78.5 -18.5t59.5 -44.5t46 -52t48 -44.5t55 -18.5q39 0 64.5 36.5t25.5 121.5h71q0 -110 -45 -162.5t-116 -52.5q-43 0 -78.5 18.5t-59.5 44.5t-46 52t-48 44.5t-55 18.5q-39 0 -64.5 -36.5t-25.5 -121.5h-72zM145 723
q0 158 43.5 293t123.5 235t201 156.5t269 56.5q196 0 341.5 -98t219.5 -265t74 -378q0 -126 -27 -239t-81 -205t-130 -159t-177.5 -103.5t-219.5 -36.5q-148 0 -269 56.5t-201 156.5t-123.5 236t-43.5 294zM217 723q0 -111 22.5 -212t69 -188t112.5 -150.5t158.5 -99.5
t202.5 -36t202.5 36t158.5 99.5t112 150.5t68.5 188t22.5 212t-21.5 211.5t-67.5 187t-111.5 150t-159 99.5t-204.5 36t-204.5 -36t-159.5 -99.5t-111.5 -150t-67.5 -187t-22 -211.5z" />
    <glyph glyph-name="Odieresis" unicode="&#xd6;" horiz-adv-x="1562" 
d="M604 1704q-42 0 -70 29t-28 69q0 41 28 70t70 29t70 -29t28 -70q0 -40 -28 -69t-70 -29zM958 1704q-42 0 -70 29t-28 69q0 41 28 70t70 29t70.5 -29.5t28.5 -69.5t-28.5 -69t-70.5 -29zM145 723q0 158 43.5 293t123.5 235t201 156.5t269 56.5q196 0 341.5 -98t219.5 -265
t74 -378q0 -126 -27 -239t-81 -205t-130 -159t-177.5 -103.5t-219.5 -36.5q-148 0 -269 56.5t-201 156.5t-123.5 236t-43.5 294zM217 723q0 -111 22.5 -212t69 -188t112.5 -150.5t158.5 -99.5t202.5 -36t202.5 36t158.5 99.5t112 150.5t68.5 188t22.5 212t-21.5 211.5
t-67.5 187t-111.5 150t-159 99.5t-204.5 36t-204.5 -36t-159.5 -99.5t-111.5 -150t-67.5 -187t-22 -211.5z" />
    <glyph glyph-name="multiply" unicode="&#xd7;" horiz-adv-x="1060" 
d="M868 797l-297 -297l295 -297l-39 -41l-297 297l-297 -297l-40 41l296 297l-299 297l41 41l299 -297l297 297z" />
    <glyph glyph-name="Oslash" unicode="&#xd8;" horiz-adv-x="1562" 
d="M1178 1323q116 -97 177.5 -254t61.5 -348q0 -212 -74 -379.5t-219.5 -266t-341.5 -98.5q-195 0 -346 101l-108 -184l-54 34l111 189q-116 99 -178 255.5t-62 348.5q0 158 43.5 293t123.5 235t201 156.5t269 56.5q195 0 344 -100l109 184l55 -33zM217 721q0 -168 52 -312
t151 -237l676 1139q-134 94 -314 94q-111 0 -204.5 -36t-159.5 -99.5t-111.5 -150t-67.5 -187t-22 -211.5zM782 35q110 0 202.5 36t158.5 99.5t112 150.5t68.5 188t22.5 212q0 169 -51 312.5t-150 236.5l-676 -1139q132 -96 313 -96z" />
    <glyph glyph-name="Ugrave" unicode="&#xd9;" horiz-adv-x="1298" 
d="M922 1716l-19 -61l-528 145l18 62zM125 537v907h72v-952q0 -455 452 -455q453 0 453 455v952h72v-907q0 -277 -125.5 -417t-399.5 -140q-275 0 -399.5 139.5t-124.5 417.5z" />
    <glyph glyph-name="Uacute" unicode="&#xda;" horiz-adv-x="1298" 
d="M383 1716l528 146l19 -62l-529 -145zM125 537v907h72v-952q0 -455 452 -455q453 0 453 455v952h72v-907q0 -277 -125.5 -417t-399.5 -140q-275 0 -399.5 139.5t-124.5 417.5z" />
    <glyph glyph-name="Ucircumflex" unicode="&#xdb;" horiz-adv-x="1298" 
d="M922 1667l-43 -49l-230 201l-231 -201l-43 49l274 236zM125 537v907h72v-952q0 -455 452 -455q453 0 453 455v952h72v-907q0 -277 -125.5 -417t-399.5 -140q-275 0 -399.5 139.5t-124.5 417.5z" />
    <glyph glyph-name="Udieresis" unicode="&#xdc;" horiz-adv-x="1298" 
d="M471 1704q-42 0 -70 29t-28 69q0 41 28 70t70 29t70 -29t28 -70q0 -40 -28 -69t-70 -29zM825 1704q-42 0 -70 29t-28 69q0 41 28 70t70 29t70.5 -29.5t28.5 -69.5t-28.5 -69t-70.5 -29zM125 537v907h72v-952q0 -455 452 -455q453 0 453 455v952h72v-907
q0 -277 -125.5 -417t-399.5 -140q-275 0 -399.5 139.5t-124.5 417.5z" />
    <glyph glyph-name="Yacute" unicode="&#xdd;" horiz-adv-x="1269" 
d="M369 1716l528 146l18 -62l-528 -145zM1112 1444h74l-514 -862v-582h-72v582l-516 862h74l465 -776v-76h26v76z" />
    <glyph glyph-name="Thorn" unicode="&#xde;" horiz-adv-x="1196" 
d="M502 1174q284 0 426.5 -103t142.5 -348q0 -126 -37.5 -214.5t-113 -140.5t-177 -75t-241.5 -23h-264v-270h-72v1444h72v-270h264zM496 328q94 0 165.5 9t137.5 35t108 69t67 114t25 168q0 96 -25 166.5t-67 113.5t-108 69t-137.5 35t-165.5 9h-258v-788h258z" />
    <glyph glyph-name="germandbls" unicode="&#xdf;" horiz-adv-x="972" 
d="M352 0v57l199 -18q132 -11 199 63t67 191q0 84 -23.5 145t-61 95.5t-82.5 59.5t-90 45.5t-82.5 44t-61 64t-23.5 97.5q0 46 26.5 85t64 69t75 61t64 73.5t26.5 92.5q0 82 -46 132t-136 50q-53 0 -91 -13.5t-71 -48t-50 -102t-17 -166.5v-1077h-72v1092q0 105 22.5 179.5
t65 115.5t94.5 59t119 18q121 0 187.5 -69.5t66.5 -177.5q0 -55 -26.5 -101.5t-64.5 -79t-76 -61.5t-64.5 -62t-26.5 -69q0 -39 23.5 -69t61 -52t83 -44.5t91 -53.5t83 -70.5t61 -103.5t23.5 -146q0 -164 -96.5 -252t-253.5 -73z" />
    <glyph glyph-name="agrave" unicode="&#xe0;" horiz-adv-x="1148" 
d="M823 1280l-18 -61l-529 145l19 61zM125 283q0 120 76.5 195.5t236.5 86.5l434 33q0 174 -95.5 273.5t-246.5 99.5q-50 0 -97 -10t-92 -35t-78 -62t-53 -95t-20 -130h-71q0 70 24.5 137t72 124.5t129 92.5t185.5 35q103 0 183 -37.5t127.5 -101.5t71.5 -143t24 -168v-521
h149v-57h-127q-43 0 -60 24.5t-17 73.5v125l12 96h-29q-97 -339 -436 -339q-70 0 -125.5 21.5t-88 54t-53.5 75t-28.5 80t-7.5 72.5zM197 279q0 -115 62 -178.5t179 -63.5q89 0 163.5 32.5t123.5 85t83 120t49 134.5t15 132l-428 -33q-125 -9 -186 -63.5t-61 -165.5z" />
    <glyph glyph-name="aacute" unicode="&#xe1;" horiz-adv-x="1148" 
d="M285 1280l528 145l18 -61l-528 -145zM125 283q0 120 76.5 195.5t236.5 86.5l434 33q0 174 -95.5 273.5t-246.5 99.5q-50 0 -97 -10t-92 -35t-78 -62t-53 -95t-20 -130h-71q0 70 24.5 137t72 124.5t129 92.5t185.5 35q103 0 183 -37.5t127.5 -101.5t71.5 -143t24 -168
v-521h149v-57h-127q-43 0 -60 24.5t-17 73.5v125l12 96h-29q-97 -339 -436 -339q-70 0 -125.5 21.5t-88 54t-53.5 75t-28.5 80t-7.5 72.5zM197 279q0 -115 62 -178.5t179 -63.5q89 0 163.5 32.5t123.5 85t83 120t49 134.5t15 132l-428 -33q-125 -9 -186 -63.5t-61 -165.5z
" />
    <glyph glyph-name="acircumflex" unicode="&#xe2;" horiz-adv-x="1148" 
d="M823 1231l-43 -49l-229 200l-232 -200l-43 49l275 235zM125 283q0 120 76.5 195.5t236.5 86.5l434 33q0 174 -95.5 273.5t-246.5 99.5q-50 0 -97 -10t-92 -35t-78 -62t-53 -95t-20 -130h-71q0 70 24.5 137t72 124.5t129 92.5t185.5 35q103 0 183 -37.5t127.5 -101.5
t71.5 -143t24 -168v-521h149v-57h-127q-43 0 -60 24.5t-17 73.5v125l12 96h-29q-97 -339 -436 -339q-70 0 -125.5 21.5t-88 54t-53.5 75t-28.5 80t-7.5 72.5zM197 279q0 -115 62 -178.5t179 -63.5q89 0 163.5 32.5t123.5 85t83 120t49 134.5t15 132l-428 -33
q-125 -9 -186 -63.5t-61 -165.5z" />
    <glyph glyph-name="atilde" unicode="&#xe3;" horiz-adv-x="1148" 
d="M246 1202q0 110 45.5 162.5t116.5 52.5q43 0 78 -18.5t59 -44.5t46 -52t48 -44.5t55 -18.5q39 0 64.5 36.5t25.5 121.5h72q0 -110 -45.5 -162.5t-116.5 -52.5q-43 0 -78 18.5t-59 44.5t-46 52t-48 44.5t-55 18.5q-39 0 -65 -36.5t-26 -121.5h-71zM125 283
q0 120 76.5 195.5t236.5 86.5l434 33q0 174 -95.5 273.5t-246.5 99.5q-50 0 -97 -10t-92 -35t-78 -62t-53 -95t-20 -130h-71q0 70 24.5 137t72 124.5t129 92.5t185.5 35q103 0 183 -37.5t127.5 -101.5t71.5 -143t24 -168v-521h149v-57h-127q-43 0 -60 24.5t-17 73.5v125
l12 96h-29q-97 -339 -436 -339q-70 0 -125.5 21.5t-88 54t-53.5 75t-28.5 80t-7.5 72.5zM197 279q0 -115 62 -178.5t179 -63.5q89 0 163.5 32.5t123.5 85t83 120t49 134.5t15 132l-428 -33q-125 -9 -186 -63.5t-61 -165.5z" />
    <glyph glyph-name="adieresis" unicode="&#xe4;" horiz-adv-x="1148" 
d="M373 1268q-42 0 -70.5 29t-28.5 69t28.5 69t70.5 29t70 -29t28 -69t-28 -69t-70 -29zM727 1268q-42 0 -70 29t-28 69t28 69t70 29t70 -29t28 -69t-28 -69t-70 -29zM125 283q0 120 76.5 195.5t236.5 86.5l434 33q0 174 -95.5 273.5t-246.5 99.5q-50 0 -97 -10t-92 -35
t-78 -62t-53 -95t-20 -130h-71q0 70 24.5 137t72 124.5t129 92.5t185.5 35q103 0 183 -37.5t127.5 -101.5t71.5 -143t24 -168v-521h149v-57h-127q-43 0 -60 24.5t-17 73.5v125l12 96h-29q-97 -339 -436 -339q-70 0 -125.5 21.5t-88 54t-53.5 75t-28.5 80t-7.5 72.5zM197 279
q0 -115 62 -178.5t179 -63.5q89 0 163.5 32.5t123.5 85t83 120t49 134.5t15 132l-428 -33q-125 -9 -186 -63.5t-61 -165.5z" />
    <glyph glyph-name="aring" unicode="&#xe5;" horiz-adv-x="1148" 
d="M549 1159q-90 0 -144.5 60t-54.5 137q0 76 54.5 135t144.5 59q92 0 146.5 -59t54.5 -135t-55 -136.5t-146 -60.5zM549 1217q60 0 94.5 38t34.5 101q0 61 -35 99t-94 38q-58 0 -92.5 -38t-34.5 -99q0 -62 34.5 -100.5t92.5 -38.5zM125 283q0 120 76.5 195.5t236.5 86.5
l434 33q0 174 -95.5 273.5t-246.5 99.5q-50 0 -97 -10t-92 -35t-78 -62t-53 -95t-20 -130h-71q0 70 24.5 137t72 124.5t129 92.5t185.5 35q103 0 183 -37.5t127.5 -101.5t71.5 -143t24 -168v-521h149v-57h-127q-43 0 -60 24.5t-17 73.5v125l12 96h-29q-97 -339 -436 -339
q-70 0 -125.5 21.5t-88 54t-53.5 75t-28.5 80t-7.5 72.5zM197 279q0 -115 62 -178.5t179 -63.5q89 0 163.5 32.5t123.5 85t83 120t49 134.5t15 132l-428 -33q-125 -9 -186 -63.5t-61 -165.5z" />
    <glyph glyph-name="ae" unicode="&#xe6;" horiz-adv-x="1921" 
d="M1724 350h72q-17 -57 -36 -101.5t-55.5 -97.5t-82 -88t-116.5 -59t-158 -24q-186 0 -299.5 93t-155.5 249v-3h-29q-97 -339 -436 -339q-70 0 -125.5 21.5t-88 54t-53.5 75t-28.5 80t-7.5 72.5q0 120 76.5 195.5t236.5 86.5l434 33v4q-1 172 -97 270.5t-245 98.5
q-50 0 -97 -10t-92 -35t-78 -62t-53 -95t-20 -130h-71q0 70 24.5 137t72 124.5t129 92.5t185.5 35q148 0 243 -73t136 -195q49 130 154.5 199t251.5 69q203 0 324.5 -130t121.5 -361v-35h-821q5 -80 21 -147.5t47.5 -127.5t77 -101t112.5 -65t150 -24q148 0 244 83.5
t132 229.5zM1315 971q-163 0 -269 -110t-106 -302h750q0 193 -104 302.5t-271 109.5zM438 37q81 0 150.5 27t117 71t83 103t54.5 119.5t25 123.5v39v21l-424 -33q-125 -9 -186 -63.5t-61 -165.5q0 -115 62 -178.5t179 -63.5z" />
    <glyph glyph-name="ccedilla" unicode="&#xe7;" horiz-adv-x="1165" 
d="M608 37q66 0 122 15t107.5 50t86.5 100.5t47 157.5h69q-9 -93 -43.5 -163.5t-78.5 -110.5t-102 -65t-107 -33t-101 -8h-4l-86 -93q57 33 107 33q46 0 76 -26.5t30 -75.5q0 -78 -90 -122t-252 -44v57q127 0 198.5 28t71.5 81q0 45 -45 45q-29 0 -56.5 -11t-76.5 -45
l-43 66l99 111q-100 13 -180 61.5t-130 120.5t-76 158.5t-26 179.5q0 80 19 155t58.5 142.5t95.5 117.5t136 79.5t174 29.5q51 0 100.5 -8.5t107.5 -33.5t102 -65.5t78.5 -111t43.5 -162.5h-69q-12 92 -47 158t-86.5 100.5t-107.5 50t-122 15.5q-100 0 -180 -39t-129.5 -105
t-75.5 -148.5t-26 -174.5q0 -93 26 -175.5t75.5 -148.5t129.5 -104.5t180 -38.5z" />
    <glyph glyph-name="egrave" unicode="&#xe8;" horiz-adv-x="1177" 
d="M862 1280l-18 -61l-529 145l19 61zM125 520q0 242 121 375t325 133q203 0 325 -130t122 -361v-35h-821q6 -101 30.5 -182t71.5 -146.5t124 -101t181 -35.5q148 0 244.5 83.5t132.5 229.5h72q-17 -57 -36.5 -102t-56 -97.5t-82 -87.5t-116.5 -59t-158 -24q-100 0 -181 29
t-135.5 79t-92 119t-54 147t-16.5 166zM197 559h749q0 193 -104 302.5t-271 109.5q-162 0 -268 -110t-106 -302z" />
    <glyph glyph-name="eacute" unicode="&#xe9;" horiz-adv-x="1177" 
d="M324 1280l528 145l18 -61l-528 -145zM125 520q0 242 121 375t325 133q203 0 325 -130t122 -361v-35h-821q6 -101 30.5 -182t71.5 -146.5t124 -101t181 -35.5q148 0 244.5 83.5t132.5 229.5h72q-17 -57 -36.5 -102t-56 -97.5t-82 -87.5t-116.5 -59t-158 -24
q-100 0 -181 29t-135.5 79t-92 119t-54 147t-16.5 166zM197 559h749q0 193 -104 302.5t-271 109.5q-162 0 -268 -110t-106 -302z" />
    <glyph glyph-name="ecircumflex" unicode="&#xea;" horiz-adv-x="1177" 
d="M862 1231l-43 -49l-229 200l-232 -200l-43 49l275 235zM125 520q0 242 121 375t325 133q203 0 325 -130t122 -361v-35h-821q6 -101 30.5 -182t71.5 -146.5t124 -101t181 -35.5q148 0 244.5 83.5t132.5 229.5h72q-17 -57 -36.5 -102t-56 -97.5t-82 -87.5t-116.5 -59
t-158 -24q-100 0 -181 29t-135.5 79t-92 119t-54 147t-16.5 166zM197 559h749q0 193 -104 302.5t-271 109.5q-162 0 -268 -110t-106 -302z" />
    <glyph glyph-name="edieresis" unicode="&#xeb;" horiz-adv-x="1177" 
d="M412 1268q-42 0 -70.5 29t-28.5 69t28.5 69t70.5 29t70 -29t28 -69t-28 -69t-70 -29zM766 1268q-42 0 -70 29t-28 69t28 69t70 29t70 -29t28 -69t-28 -69t-70 -29zM125 520q0 242 121 375t325 133q203 0 325 -130t122 -361v-35h-821q6 -101 30.5 -182t71.5 -146.5
t124 -101t181 -35.5q148 0 244.5 83.5t132.5 229.5h72q-17 -57 -36.5 -102t-56 -97.5t-82 -87.5t-116.5 -59t-158 -24q-100 0 -181 29t-135.5 79t-92 119t-54 147t-16.5 166zM197 559h749q0 193 -104 302.5t-271 109.5q-162 0 -268 -110t-106 -302z" />
    <glyph glyph-name="igrave" unicode="&#xec;" horiz-adv-x="837" 
d="M662 1280l-19 -61l-528 145l18 61zM125 0v57h289v916l-193 -23v58l137 20q61 7 85 -23.5t24 -97.5v-850h287v-57h-629z" />
    <glyph glyph-name="iacute" unicode="&#xed;" horiz-adv-x="825" 
d="M76 1280l528 145l19 -61l-529 -145zM113 0v57h288v916l-192 -23v58l137 20q61 7 85 -23.5t24 -97.5v-850h286v-57h-628z" />
    <glyph glyph-name="icircumflex" unicode="&#xee;" horiz-adv-x="827" 
d="M625 1231l-43 -49l-230 200l-231 -200l-43 49l274 235zM115 0v57h288v916l-192 -23v58l137 20q61 7 85 -23.5t24 -97.5v-850h286v-57h-628z" />
    <glyph glyph-name="idieresis" unicode="&#xef;" horiz-adv-x="825" 
d="M205 1268q-42 0 -70.5 29t-28.5 69t28.5 69t70.5 29t70 -29t28 -69t-28 -69t-70 -29zM559 1268q-42 0 -70 29t-28 69t28 69t70 29t70 -29t28 -69t-28 -69t-70 -29zM113 0v57h288v916l-192 -23v58l137 20q61 7 85 -23.5t24 -97.5v-850h286v-57h-628z" />
    <glyph glyph-name="eth" unicode="&#xf0;" horiz-adv-x="1280" 
d="M758 1317q185 -114 291 -285t106 -379q0 -313 -145.5 -493t-384.5 -180q-164 0 -278 70t-168 189t-54 277q0 225 144 368.5t372 143.5q155 0 274 -88.5t158 -241.5h27l-17 56q-20 162 -123.5 298t-267.5 230l-274 -145l-27 57l234 123q-159 75 -338 102v58
q213 -26 405 -123l254 133l27 -57zM625 37q99 0 184.5 41.5t142 109t89 153.5t32.5 175q0 198 -120 326.5t-312 128.5q-201 0 -322.5 -128.5t-121.5 -326.5q0 -225 114 -352t314 -127z" />
    <glyph glyph-name="ntilde" unicode="&#xf1;" horiz-adv-x="1148" 
d="M324 1202q0 110 45 162.5t116 52.5q43 0 78.5 -18.5t59.5 -44.5t46 -52t48 -44.5t55 -18.5q39 0 64.5 36.5t25.5 121.5h72q0 -110 -45.5 -162.5t-116.5 -52.5q-43 0 -78.5 18.5t-59.5 44.5t-46 52t-48 44.5t-55 18.5q-39 0 -64.5 -36.5t-25.5 -121.5h-71zM645 971
q-124 0 -218 -70.5t-141.5 -183t-47.5 -246.5v-471h-72v1008h72v-207l-9 -76h29q34 141 140.5 222t267.5 81q160 0 247.5 -97.5t87.5 -277.5v-653h-71v655q0 164 -71.5 240t-213.5 76z" />
    <glyph glyph-name="ograve" unicode="&#xf2;" horiz-adv-x="1269" 
d="M907 1280l-18 -61l-529 145l19 61zM125 504q0 98 33.5 191t95.5 167.5t161 120t220 45.5q120 0 219 -45.5t161.5 -120t96 -167.5t33.5 -191t-33.5 -191t-96 -167.5t-161.5 -120t-219 -45.5q-121 0 -220 45.5t-161 120t-95.5 167.5t-33.5 191zM197 504q0 -69 17.5 -135.5
t53.5 -127t87 -105.5t123 -72t157 -27t157 27t123 72t87 105.5t53.5 127t17.5 135.5q0 86 -28 168t-81 149.5t-138.5 108.5t-190.5 41t-190.5 -41t-138.5 -108.5t-81 -149.5t-28 -168z" />
    <glyph glyph-name="oacute" unicode="&#xf3;" horiz-adv-x="1269" 
d="M369 1280l528 145l18 -61l-528 -145zM125 504q0 98 33.5 191t95.5 167.5t161 120t220 45.5q120 0 219 -45.5t161.5 -120t96 -167.5t33.5 -191t-33.5 -191t-96 -167.5t-161.5 -120t-219 -45.5q-121 0 -220 45.5t-161 120t-95.5 167.5t-33.5 191zM197 504
q0 -69 17.5 -135.5t53.5 -127t87 -105.5t123 -72t157 -27t157 27t123 72t87 105.5t53.5 127t17.5 135.5q0 86 -28 168t-81 149.5t-138.5 108.5t-190.5 41t-190.5 -41t-138.5 -108.5t-81 -149.5t-28 -168z" />
    <glyph glyph-name="ocircumflex" unicode="&#xf4;" horiz-adv-x="1269" 
d="M907 1231l-43 -49l-229 200l-232 -200l-43 49l275 235zM125 504q0 98 33.5 191t95.5 167.5t161 120t220 45.5q120 0 219 -45.5t161.5 -120t96 -167.5t33.5 -191t-33.5 -191t-96 -167.5t-161.5 -120t-219 -45.5q-121 0 -220 45.5t-161 120t-95.5 167.5t-33.5 191zM197 504
q0 -69 17.5 -135.5t53.5 -127t87 -105.5t123 -72t157 -27t157 27t123 72t87 105.5t53.5 127t17.5 135.5q0 86 -28 168t-81 149.5t-138.5 108.5t-190.5 41t-190.5 -41t-138.5 -108.5t-81 -149.5t-28 -168z" />
    <glyph glyph-name="otilde" unicode="&#xf5;" horiz-adv-x="1269" 
d="M330 1202q0 110 45.5 162.5t116.5 52.5q43 0 78 -18.5t59 -44.5t46 -52t48 -44.5t55 -18.5q39 0 64.5 36.5t25.5 121.5h72q0 -110 -45.5 -162.5t-116.5 -52.5q-43 0 -78 18.5t-59 44.5t-46 52t-48 44.5t-55 18.5q-39 0 -65 -36.5t-26 -121.5h-71zM125 504q0 98 33.5 191
t95.5 167.5t161 120t220 45.5q120 0 219 -45.5t161.5 -120t96 -167.5t33.5 -191t-33.5 -191t-96 -167.5t-161.5 -120t-219 -45.5q-121 0 -220 45.5t-161 120t-95.5 167.5t-33.5 191zM197 504q0 -69 17.5 -135.5t53.5 -127t87 -105.5t123 -72t157 -27t157 27t123 72t87 105.5
t53.5 127t17.5 135.5q0 86 -28 168t-81 149.5t-138.5 108.5t-190.5 41t-190.5 -41t-138.5 -108.5t-81 -149.5t-28 -168z" />
    <glyph glyph-name="odieresis" unicode="&#xf6;" horiz-adv-x="1269" 
d="M457 1268q-42 0 -70.5 29t-28.5 69t28.5 69t70.5 29t70 -29t28 -69t-28 -69t-70 -29zM811 1268q-42 0 -70 29t-28 69t28 69t70 29t70 -29t28 -69t-28 -69t-70 -29zM125 504q0 98 33.5 191t95.5 167.5t161 120t220 45.5q120 0 219 -45.5t161.5 -120t96 -167.5t33.5 -191
t-33.5 -191t-96 -167.5t-161.5 -120t-219 -45.5q-121 0 -220 45.5t-161 120t-95.5 167.5t-33.5 191zM197 504q0 -69 17.5 -135.5t53.5 -127t87 -105.5t123 -72t157 -27t157 27t123 72t87 105.5t53.5 127t17.5 135.5q0 86 -28 168t-81 149.5t-138.5 108.5t-190.5 41
t-190.5 -41t-138.5 -108.5t-81 -149.5t-28 -168z" />
    <glyph glyph-name="divide" unicode="&#xf7;" horiz-adv-x="1271" 
d="M637 723q-42 0 -70 29t-28 69q0 41 28 70t70 29t70 -29t28 -70q0 -40 -28 -69t-70 -29zM186 522h899v-57h-899v57zM637 68q-42 0 -70 29t-28 69t28 69t70 29t70 -29t28 -69t-28 -69t-70 -29z" />
    <glyph glyph-name="oslash" unicode="&#xf8;" horiz-adv-x="1269" 
d="M928 940q104 -73 160.5 -190.5t56.5 -245.5q0 -98 -33.5 -191t-96 -167.5t-161.5 -120t-219 -45.5q-130 0 -232 51l-73 -129l-56 32l74 127q-107 73 -165 192t-58 251q0 98 33.5 191t95.5 167.5t161 120t220 45.5q128 0 237 -53l72 125l57 -33zM197 504q0 -114 47 -217.5
t135 -169.5l463 805q-90 49 -207 49q-105 0 -190.5 -41t-138.5 -108.5t-81 -149.5t-28 -168zM635 37q85 0 157 27t123 72t87 105.5t53.5 127t17.5 135.5q0 111 -45.5 213.5t-130.5 169.5l-463 -805q88 -45 201 -45z" />
    <glyph glyph-name="ugrave" unicode="&#xf9;" horiz-adv-x="1128" 
d="M864 1280l-18 -61l-529 145l19 61zM504 37q124 0 218 70.5t141.5 183t47.5 246.5v471h72v-1008h-72v207l9 76h-29q-34 -141 -140.5 -222t-267.5 -81q-160 0 -248 97.5t-88 276.5v654h72v-656q0 -164 71 -239.5t214 -75.5z" />
    <glyph glyph-name="uacute" unicode="&#xfa;" horiz-adv-x="1128" 
d="M326 1280l528 145l18 -61l-528 -145zM504 37q124 0 218 70.5t141.5 183t47.5 246.5v471h72v-1008h-72v207l9 76h-29q-34 -141 -140.5 -222t-267.5 -81q-160 0 -248 97.5t-88 276.5v654h72v-656q0 -164 71 -239.5t214 -75.5z" />
    <glyph glyph-name="ucircumflex" unicode="&#xfb;" horiz-adv-x="1128" 
d="M864 1231l-43 -49l-229 200l-232 -200l-43 49l275 235zM504 37q124 0 218 70.5t141.5 183t47.5 246.5v471h72v-1008h-72v207l9 76h-29q-34 -141 -140.5 -222t-267.5 -81q-160 0 -248 97.5t-88 276.5v654h72v-656q0 -164 71 -239.5t214 -75.5z" />
    <glyph glyph-name="udieresis" unicode="&#xfc;" horiz-adv-x="1128" 
d="M414 1268q-42 0 -70.5 29t-28.5 69t28.5 69t70.5 29t70 -29t28 -69t-28 -69t-70 -29zM768 1268q-42 0 -70 29t-28 69t28 69t70 29t70 -29t28 -69t-28 -69t-70 -29zM504 37q124 0 218 70.5t141.5 183t47.5 246.5v471h72v-1008h-72v207l9 76h-29q-34 -141 -140.5 -222
t-267.5 -81q-160 0 -248 97.5t-88 276.5v654h72v-656q0 -164 71 -239.5t214 -75.5z" />
    <glyph glyph-name="yacute" unicode="&#xfd;" horiz-adv-x="1112" 
d="M848 1364l-529 -145l-18 61l528 145zM956 1008h70l-422 -1028v-263q0 -45 -29.5 -70t-91.5 -22l-325 23v57l374 -24v299l-428 1028h70l379 -914v-26h29v26z" />
    <glyph glyph-name="thorn" unicode="&#xfe;" horiz-adv-x="1304" 
d="M700 1028q99 0 187 -37t153 -104t102.5 -166t37.5 -217t-37.5 -217t-102.5 -166t-153 -104t-187 -37q-160 0 -278.5 81.5t-163.5 214.5h-27l7 -75v-555h-72v1859h72v-698l-7 -74h27q45 132 163.5 213.5t278.5 81.5zM690 37q83 0 157 29t133 85t93.5 147t34.5 206
q0 116 -34.5 207t-93.5 146.5t-133 84.5t-157 29t-161.5 -30t-142.5 -86.5t-103 -147.5t-39 -203q0 -111 39 -202t103 -147.5t142.5 -87t161.5 -30.5z" />
    <glyph glyph-name="ydieresis" unicode="&#xff;" horiz-adv-x="1112" 
d="M389 1268q-42 0 -70 29t-28 69t28 69t70 29t70 -29t28 -69t-28 -69t-70 -29zM743 1268q-42 0 -70 29t-28 69t28 69t70 29t70.5 -29t28.5 -69t-28.5 -69t-70.5 -29zM956 1008h70l-422 -1028v-263q0 -45 -29.5 -70t-91.5 -22l-325 23v57l374 -24v299l-428 1028h70l379 -914
v-26h29v26z" />
    <glyph glyph-name="Amacron" unicode="&#x100;" horiz-adv-x="1304" 
d="M915 1784v-58h-528v58h528zM1153 0l-215 627h-571l-215 -627h-68l494 1444h147l496 -1444h-68zM385 684h533l-252 733h-29z" />
    <glyph glyph-name="amacron" unicode="&#x101;" horiz-adv-x="1148" 
d="M287 1348h528v-58h-528v58zM125 283q0 120 76.5 195.5t236.5 86.5l434 33q0 174 -95.5 273.5t-246.5 99.5q-50 0 -97 -10t-92 -35t-78 -62t-53 -95t-20 -130h-71q0 70 24.5 137t72 124.5t129 92.5t185.5 35q103 0 183 -37.5t127.5 -101.5t71.5 -143t24 -168v-521h149v-57
h-127q-43 0 -60 24.5t-17 73.5v125l12 96h-29q-97 -339 -436 -339q-70 0 -125.5 21.5t-88 54t-53.5 75t-28.5 80t-7.5 72.5zM197 279q0 -115 62 -178.5t179 -63.5q89 0 163.5 32.5t123.5 85t83 120t49 134.5t15 132l-428 -33q-125 -9 -186 -63.5t-61 -165.5z" />
    <glyph glyph-name="Abreve" unicode="&#x102;" horiz-adv-x="1304" 
d="M651 1597q-289 0 -289 320h72q0 -262 217 -262q215 0 215 262h72q0 -320 -287 -320zM1153 0l-215 627h-571l-215 -627h-68l494 1444h147l496 -1444h-68zM385 684h533l-252 733h-29z" />
    <glyph glyph-name="abreve" unicode="&#x103;" horiz-adv-x="1148" 
d="M838 1481q0 -320 -287 -320q-289 0 -289 320h72q0 -262 217 -262q215 0 215 262h72zM125 283q0 120 76.5 195.5t236.5 86.5l434 33q0 174 -95.5 273.5t-246.5 99.5q-50 0 -97 -10t-92 -35t-78 -62t-53 -95t-20 -130h-71q0 70 24.5 137t72 124.5t129 92.5t185.5 35
q103 0 183 -37.5t127.5 -101.5t71.5 -143t24 -168v-521h149v-57h-127q-43 0 -60 24.5t-17 73.5v125l12 96h-29q-97 -339 -436 -339q-70 0 -125.5 21.5t-88 54t-53.5 75t-28.5 80t-7.5 72.5zM197 279q0 -115 62 -178.5t179 -63.5q89 0 163.5 32.5t123.5 85t83 120t49 134.5
t15 132l-428 -33q-125 -9 -186 -63.5t-61 -165.5z" />
    <glyph glyph-name="Aogonek" unicode="&#x104;" horiz-adv-x="1304" 
d="M1038 -326l459 45v-57l-440 -43q-46 -4 -67.5 34.5t3.5 78.5l162 268h-2l-215 627h-571l-215 -627h-68l494 1444h147l496 -1444zM385 684h533l-252 733h-29z" />
    <glyph glyph-name="aogonek" unicode="&#x105;" horiz-adv-x="1148" 
d="M903 -326l459 45v-57l-440 -43q-46 -4 -67.5 34.5t3.5 78.5l162 268h-62q-43 0 -60 24.5t-17 73.5v125l12 96h-29q-97 -339 -436 -339q-70 0 -125.5 21.5t-88 54t-53.5 75t-28.5 80t-7.5 72.5q0 120 76.5 195.5t236.5 86.5l434 33q0 174 -95.5 273.5t-246.5 99.5
q-50 0 -97 -10t-92 -35t-78 -62t-53 -95t-20 -130h-71q0 70 24.5 137t72 124.5t129 92.5t185.5 35q103 0 183 -37.5t127.5 -101.5t71.5 -143t24 -168v-521h149v-57zM438 37q89 0 163.5 32.5t123.5 85t83 120t49 134.5t15 132l-428 -33q-125 -9 -186 -63.5t-61 -165.5
q0 -115 62 -178.5t179 -63.5z" />
    <glyph glyph-name="Cacute" unicode="&#x106;" horiz-adv-x="1544" 
d="M516 1716l528 146l19 -62l-528 -145zM145 723q0 158 43 293t123 235t200.5 156.5t268.5 56.5q260 0 423 -154t196 -423h-72q-25 246 -169.5 383t-377.5 137q-135 0 -243 -53.5t-177.5 -146.5t-106 -217t-36.5 -267q0 -144 36.5 -268t106 -217.5t177.5 -147t243 -53.5
q233 0 377.5 138t169.5 384h72q-32 -270 -195 -424.5t-424 -154.5q-148 0 -268.5 56.5t-200.5 156.5t-123 236t-43 294z" />
    <glyph glyph-name="cacute" unicode="&#x107;" horiz-adv-x="1165" 
d="M350 1280l529 145l18 -61l-528 -145zM125 504q0 80 19 155t58.5 142.5t95.5 117.5t136 79.5t174 29.5q51 0 100.5 -8.5t107.5 -33.5t102 -65.5t78.5 -111t43.5 -162.5h-69q-12 92 -47 158t-86.5 100.5t-107.5 50t-122 15.5q-100 0 -180 -39t-129.5 -105t-75.5 -148.5
t-26 -174.5q0 -93 26 -175.5t75.5 -148.5t129.5 -104.5t180 -38.5q66 0 122 15t107.5 50t86.5 100.5t47 157.5h69q-9 -93 -43.5 -163.5t-78.5 -110.5t-102 -65t-107 -33t-101 -8q-117 0 -211.5 44.5t-152.5 119t-88.5 167t-30.5 193.5z" />
    <glyph glyph-name="Cdotaccent" unicode="&#x10a;" horiz-adv-x="1544" 
d="M782 1704q-42 0 -70 29t-28 69q0 41 28 70t70 29t70.5 -29.5t28.5 -69.5t-28.5 -69t-70.5 -29zM145 723q0 158 43 293t123 235t200.5 156.5t268.5 56.5q260 0 423 -154t196 -423h-72q-25 246 -169.5 383t-377.5 137q-135 0 -243 -53.5t-177.5 -146.5t-106 -217
t-36.5 -267q0 -144 36.5 -268t106 -217.5t177.5 -147t243 -53.5q233 0 377.5 138t169.5 384h72q-32 -270 -195 -424.5t-424 -154.5q-148 0 -268.5 56.5t-200.5 156.5t-123 236t-43 294z" />
    <glyph glyph-name="cdotaccent" unicode="&#x10b;" horiz-adv-x="1165" 
d="M616 1268q-42 0 -70 29t-28 69t28 69t70 29t70.5 -29t28.5 -69t-28.5 -69t-70.5 -29zM125 504q0 80 19 155t58.5 142.5t95.5 117.5t136 79.5t174 29.5q51 0 100.5 -8.5t107.5 -33.5t102 -65.5t78.5 -111t43.5 -162.5h-69q-12 92 -47 158t-86.5 100.5t-107.5 50t-122 15.5
q-100 0 -180 -39t-129.5 -105t-75.5 -148.5t-26 -174.5q0 -93 26 -175.5t75.5 -148.5t129.5 -104.5t180 -38.5q66 0 122 15t107.5 50t86.5 100.5t47 157.5h69q-9 -93 -43.5 -163.5t-78.5 -110.5t-102 -65t-107 -33t-101 -8q-117 0 -211.5 44.5t-152.5 119t-88.5 167
t-30.5 193.5z" />
    <glyph glyph-name="Ccaron" unicode="&#x10c;" horiz-adv-x="1544" 
d="M1055 1837l-273 -235l-274 235l43 49l231 -200l230 200zM145 723q0 158 43 293t123 235t200.5 156.5t268.5 56.5q260 0 423 -154t196 -423h-72q-25 246 -169.5 383t-377.5 137q-135 0 -243 -53.5t-177.5 -146.5t-106 -217t-36.5 -267q0 -144 36.5 -268t106 -217.5
t177.5 -147t243 -53.5q233 0 377.5 138t169.5 384h72q-32 -270 -195 -424.5t-424 -154.5q-148 0 -268.5 56.5t-200.5 156.5t-123 236t-43 294z" />
    <glyph glyph-name="ccaron" unicode="&#x10d;" horiz-adv-x="1165" 
d="M889 1401l-273 -236l-274 236l43 49l231 -201l230 201zM125 504q0 80 19 155t58.5 142.5t95.5 117.5t136 79.5t174 29.5q51 0 100.5 -8.5t107.5 -33.5t102 -65.5t78.5 -111t43.5 -162.5h-69q-12 92 -47 158t-86.5 100.5t-107.5 50t-122 15.5q-100 0 -180 -39t-129.5 -105
t-75.5 -148.5t-26 -174.5q0 -93 26 -175.5t75.5 -148.5t129.5 -104.5t180 -38.5q66 0 122 15t107.5 50t86.5 100.5t47 157.5h69q-9 -93 -43.5 -163.5t-78.5 -110.5t-102 -65t-107 -33t-101 -8q-117 0 -211.5 44.5t-152.5 119t-88.5 167t-30.5 193.5z" />
    <glyph glyph-name="Dcaron" unicode="&#x10e;" horiz-adv-x="1409" 
d="M864 1837l-272 -235l-275 235l43 49l232 -200l229 200zM580 1444q77 0 142.5 -7t137 -27.5t128.5 -53.5t110 -88.5t88.5 -129.5t56.5 -179.5t21 -235.5t-21 -236t-56.5 -180t-88.5 -130t-110 -89t-128.5 -53.5t-137 -27.5t-142.5 -7h-414v1444h414zM580 57q65 0 118 5
t118.5 21.5t116.5 44.5t102 78.5t84 119t54 170t21 227.5t-21 227t-54 169t-84 118.5t-102 78t-116.5 44t-118.5 21.5t-118 5h-342v-1329h342z" />
    <glyph glyph-name="dcaron" unicode="&#x10f;" horiz-adv-x="1443" 
d="M1139 0h-72v201l6 73h-26q-45 -132 -164 -213t-279 -81q-133 0 -241.5 63t-173 183.5t-64.5 277.5t64.5 277.5t173 183.5t241.5 63q160 0 279 -82t164 -215h26l-6 76v698h72v-1505zM1241 1479h72v-439h-72v439zM1061 504q0 111 -39 202t-103.5 147.5t-143 87t-161.5 30.5
t-157 -29t-132.5 -85t-93 -147t-34.5 -206q0 -116 34.5 -207t93 -146.5t132.5 -84.5t157 -29t161.5 30t143 86.5t103.5 148t39 202.5z" />
    <glyph glyph-name="Dcroat" unicode="&#x110;" horiz-adv-x="1519" 
d="M688 1444q77 0 142.5 -7t137 -27.5t128.5 -53.5t110 -88.5t88.5 -129.5t56.5 -179.5t21 -235.5t-21 -236t-56.5 -180t-88.5 -130t-110 -89t-128.5 -53.5t-137 -27.5t-142.5 -7h-414v719h-129v57h129v668h414zM688 57q65 0 118 5t118.5 21.5t117 44.5t102 78.5t84 119
t54.5 170t21 227.5t-21 227t-54.5 169t-84.5 118.5t-101.5 78t-116.5 44t-119 21.5t-118 5h-342v-610h451v-57h-451v-662h342z" />
    <glyph glyph-name="dcroat" unicode="&#x111;" horiz-adv-x="1366" 
d="M1262 1368v-57h-123v-1311h-72v201l6 73h-26q-45 -132 -164 -213t-279 -81q-133 0 -241.5 63t-173 183.5t-64.5 277.5t64.5 277.5t173 183.5t241.5 63q160 0 279 -82t164 -215h26l-6 76v504h-283v57h283v137h72v-137h123zM614 37q83 0 161.5 30t143 86.5t103.5 148
t39 202.5t-39 202t-103.5 147.5t-143 87t-161.5 30.5t-157 -29t-132.5 -85t-93 -147t-34.5 -206q0 -116 34.5 -207t93 -146.5t132.5 -84.5t157 -29z" />
    <glyph glyph-name="Emacron" unicode="&#x112;" horiz-adv-x="1103" 
d="M309 1784h529v-58h-529v58zM166 0v1444h813v-58h-741v-634h639v-58h-639v-637h741v-57h-813z" />
    <glyph glyph-name="emacron" unicode="&#x113;" horiz-adv-x="1177" 
d="M326 1348h528v-58h-528v58zM125 520q0 242 121 375t325 133q203 0 325 -130t122 -361v-35h-821q6 -101 30.5 -182t71.5 -146.5t124 -101t181 -35.5q148 0 244.5 83.5t132.5 229.5h72q-17 -57 -36.5 -102t-56 -97.5t-82 -87.5t-116.5 -59t-158 -24q-100 0 -181 29
t-135.5 79t-92 119t-54 147t-16.5 166zM197 559h749q0 193 -104 302.5t-271 109.5q-162 0 -268 -110t-106 -302z" />
    <glyph glyph-name="Edotaccent" unicode="&#x116;" horiz-adv-x="1103" 
d="M573 1704q-42 0 -70 29t-28 69q0 41 28 70t70 29t70.5 -29.5t28.5 -69.5t-28.5 -69t-70.5 -29zM166 0v1444h813v-58h-741v-634h639v-58h-639v-637h741v-57h-813z" />
    <glyph glyph-name="edotaccent" unicode="&#x117;" horiz-adv-x="1177" 
d="M590 1268q-42 0 -70 29t-28 69t28 69t70 29t70 -29t28 -69t-28 -69t-70 -29zM125 520q0 242 121 375t325 133q203 0 325 -130t122 -361v-35h-821q6 -101 30.5 -182t71.5 -146.5t124 -101t181 -35.5q148 0 244.5 83.5t132.5 229.5h72q-17 -57 -36.5 -102t-56 -97.5
t-82 -87.5t-116.5 -59t-158 -24q-100 0 -181 29t-135.5 79t-92 119t-54 147t-16.5 166zM197 559h749q0 193 -104 302.5t-271 109.5q-162 0 -268 -110t-106 -302z" />
    <glyph glyph-name="Eogonek" unicode="&#x118;" horiz-adv-x="1103" 
d="M979 1386h-741v-634h639v-58h-639v-637h741v-57h-289l-182 -326l459 45v-57l-441 -43q-45 -4 -66.5 34.5t3.5 78.5l162 268h-459v1444h813v-58z" />
    <glyph glyph-name="eogonek" unicode="&#x119;" horiz-adv-x="1177" 
d="M737 -4l-180 -322l459 45v-57l-441 -43q-45 -4 -66.5 34.5t3.5 78.5l152 250q-18 -2 -60 -2q-100 0 -181 29t-135.5 79t-92 119t-54 147t-16.5 166q0 242 121 375t325 133q203 0 325 -130t122 -361v-35h-821q6 -101 30.5 -182t71.5 -146.5t124 -101t181 -35.5
q148 0 244.5 83.5t132.5 229.5h72q-14 -46 -29 -84t-42 -83.5t-59 -79.5t-80 -63t-106 -44zM571 971q-162 0 -268 -110t-106 -302h749q0 193 -104 302.5t-271 109.5z" />
    <glyph glyph-name="Ecaron" unicode="&#x11a;" horiz-adv-x="1103" 
d="M846 1837l-273 -235l-274 235l43 49l231 -200l230 200zM166 0v1444h813v-58h-741v-634h639v-58h-639v-637h741v-57h-813z" />
    <glyph glyph-name="ecaron" unicode="&#x11b;" horiz-adv-x="1177" 
d="M862 1401l-272 -236l-275 236l43 49l232 -201l229 201zM125 520q0 242 121 375t325 133q203 0 325 -130t122 -361v-35h-821q6 -101 30.5 -182t71.5 -146.5t124 -101t181 -35.5q148 0 244.5 83.5t132.5 229.5h72q-17 -57 -36.5 -102t-56 -97.5t-82 -87.5t-116.5 -59
t-158 -24q-100 0 -181 29t-135.5 79t-92 119t-54 147t-16.5 166zM197 559h749q0 193 -104 302.5t-271 109.5q-162 0 -268 -110t-106 -302z" />
    <glyph glyph-name="Gbreve" unicode="&#x11e;" horiz-adv-x="1576" 
d="M1069 1917q0 -320 -287 -320q-288 0 -288 320h71q0 -262 217 -262q215 0 215 262h72zM145 723q0 156 44 290.5t125.5 235t206.5 158t278 57.5q486 0 559 -536h-72q-13 109 -45 193.5t-88.5 150t-146 100.5t-207.5 35q-137 0 -248.5 -54.5t-183.5 -148t-111 -217
t-39 -264.5q0 -115 18 -215.5t58.5 -188t100.5 -149.5t148.5 -97.5t198.5 -35.5q255 0 382 165t118 490h-610v58h680q51 0 71.5 -17.5t20.5 -58.5v-674h-72v563l8 160h-28q-1 -391 -142.5 -567t-423.5 -176q-153 0 -270 57t-188 159t-106.5 234.5t-35.5 292.5z" />
    <glyph glyph-name="gbreve" unicode="&#x11f;" horiz-adv-x="1296" 
d="M602 1161q-289 0 -289 320h72q0 -262 217 -262q215 0 215 262h72q0 -320 -287 -320zM1141 1008h90v-58h-96q-97 0 -177 -55q117 -117 117 -291q0 -168 -128.5 -287.5t-401.5 -216.5q102 22 189.5 25.5t164 -14t120.5 -70t44 -137.5q0 -75 -44.5 -123.5t-150 -79t-265 -43
t-402.5 -12.5v57q102 0 176.5 1t154.5 4.5t136.5 10t112 17t91.5 26t64.5 36t41.5 48t13 62.5q0 284 -725 69l-18 56q212 75 391 168v26q-221 -39 -367.5 76.5t-146.5 321.5q0 103 42 182.5t111.5 126.5t152.5 70.5t173 23.5q98 0 170.5 -22t143.5 -68q77 47 115 58.5
t108 11.5zM1004 616q0 114 -58.5 196.5t-148 120.5t-195.5 38q-82 0 -154 -22.5t-128.5 -65.5t-89.5 -111.5t-33 -155.5q0 -171 113.5 -262.5t291.5 -91.5q176 0 289 91.5t113 262.5z" />
    <glyph glyph-name="Gdotaccent" unicode="&#x120;" horiz-adv-x="1576" 
d="M782 1704q-42 0 -70 29t-28 69q0 41 28 70t70 29t70.5 -29.5t28.5 -69.5t-28.5 -69t-70.5 -29zM145 723q0 156 44 290.5t125.5 235t206.5 158t278 57.5q486 0 559 -536h-72q-13 109 -45 193.5t-88.5 150t-146 100.5t-207.5 35q-137 0 -248.5 -54.5t-183.5 -148t-111 -217
t-39 -264.5q0 -115 18 -215.5t58.5 -188t100.5 -149.5t148.5 -97.5t198.5 -35.5q255 0 382 165t118 490h-610v58h680q51 0 71.5 -17.5t20.5 -58.5v-674h-72v563l8 160h-28q-1 -391 -142.5 -567t-423.5 -176q-153 0 -270 57t-188 159t-106.5 234.5t-35.5 292.5z" />
    <glyph glyph-name="gdotaccent" unicode="&#x121;" horiz-adv-x="1296" 
d="M602 1268q-42 0 -70 29t-28 69t28 69t70 29t70 -29t28 -69t-28 -69t-70 -29zM1141 1008h90v-58h-96q-97 0 -177 -55q117 -117 117 -291q0 -168 -128.5 -287.5t-401.5 -216.5q102 22 189.5 25.5t164 -14t120.5 -70t44 -137.5q0 -75 -44.5 -123.5t-150 -79t-265 -43
t-402.5 -12.5v57q102 0 176.5 1t154.5 4.5t136.5 10t112 17t91.5 26t64.5 36t41.5 48t13 62.5q0 284 -725 69l-18 56q212 75 391 168v26q-221 -39 -367.5 76.5t-146.5 321.5q0 103 42 182.5t111.5 126.5t152.5 70.5t173 23.5q98 0 170.5 -22t143.5 -68q77 47 115 58.5
t108 11.5zM1004 616q0 114 -58.5 196.5t-148 120.5t-195.5 38q-82 0 -154 -22.5t-128.5 -65.5t-89.5 -111.5t-33 -155.5q0 -171 113.5 -262.5t291.5 -91.5q176 0 289 91.5t113 262.5z" />
    <glyph glyph-name="uni0122" unicode="&#x122;" horiz-adv-x="1576" 
d="M145 723q0 156 44 290.5t125.5 235t206.5 158t278 57.5q486 0 559 -536h-72q-13 109 -45 193.5t-88.5 150t-146 100.5t-207.5 35q-137 0 -248.5 -54.5t-183.5 -148t-111 -217t-39 -264.5q0 -115 18 -215.5t58.5 -188t100.5 -149.5t148.5 -97.5t198.5 -35.5q255 0 382 165
t118 490h-610v58h680q51 0 71.5 -17.5t20.5 -58.5v-674h-72v563l8 160h-28q-1 -391 -142.5 -567t-423.5 -176q-153 0 -270 57t-188 159t-106.5 234.5t-35.5 292.5zM709 -106l63 -15l-98 -325l-64 14z" />
    <glyph glyph-name="uni0123" unicode="&#x123;" horiz-adv-x="1296" 
d="M752 1532l-111 -315l-63 14l110 315zM1141 1008h90v-58h-96q-97 0 -177 -55q117 -117 117 -291q0 -168 -128.5 -287.5t-401.5 -216.5q102 22 189.5 25.5t164 -14t120.5 -70t44 -137.5q0 -75 -44.5 -123.5t-150 -79t-265 -43t-402.5 -12.5v57q102 0 176.5 1t154.5 4.5
t136.5 10t112 17t91.5 26t64.5 36t41.5 48t13 62.5q0 284 -725 69l-18 56q212 75 391 168v26q-221 -39 -367.5 76.5t-146.5 321.5q0 103 42 182.5t111.5 126.5t152.5 70.5t173 23.5q98 0 170.5 -22t143.5 -68q77 47 115 58.5t108 11.5zM1004 616q0 114 -58.5 196.5
t-148 120.5t-195.5 38q-82 0 -154 -22.5t-128.5 -65.5t-89.5 -111.5t-33 -155.5q0 -171 113.5 -262.5t291.5 -91.5q176 0 289 91.5t113 262.5z" />
    <glyph glyph-name="Hbar" unicode="&#x126;" horiz-adv-x="1525" 
d="M1419 1208v-57h-121v-1151h-71v690h-928v-690h-72v1151h-123v57h123v236h72v-236h928v236h71v-236h121zM1227 748v403h-928v-403h928z" />
    <glyph glyph-name="hbar" unicode="&#x127;" horiz-adv-x="1204" 
d="M721 1028q160 0 248 -97.5t88 -277.5v-653h-72v655q0 164 -71.5 240t-213.5 76q-124 0 -218 -70.5t-141.5 -183t-47.5 -246.5v-471h-72v1311h-96v57h96v137h72v-137h311v-57h-311v-510l-8 -76h28q34 141 140.5 222t267.5 81z" />
    <glyph glyph-name="Imacron" unicode="&#x12a;" horiz-adv-x="1001" 
d="M766 1784v-58h-528v58h528zM856 1386h-319v-1329h319v-57h-711v57h320v1329h-320v58h711v-58z" />
    <glyph glyph-name="imacron" unicode="&#x12b;" horiz-adv-x="827" 
d="M82 1348h528v-58h-528v58zM115 0v57h288v916l-192 -23v58l137 20q61 7 85 -23.5t24 -97.5v-850h286v-57h-628z" />
    <glyph glyph-name="Iogonek" unicode="&#x12e;" horiz-adv-x="1001" 
d="M451 -326l458 45v-57l-440 -43q-45 -4 -66.5 34.5t3.5 78.5l161 268h-422v57h320v1329h-320v58h711v-58h-319v-1329h319v-57h-223z" />
    <glyph glyph-name="iogonek" unicode="&#x12f;" horiz-adv-x="837" 
d="M389 1268q-42 0 -70 29t-28 69t28 69t70 29t70 -29t28 -69t-28 -69t-70 -29zM754 0h-293l-182 -326l458 45v-57l-440 -43q-46 -4 -67.5 34.5t3.5 78.5l162 268h-270v57h289v916l-193 -23v58l137 20q61 7 85 -23.5t24 -97.5v-850h287v-57z" />
    <glyph glyph-name="Idotaccent" unicode="&#x130;" horiz-adv-x="1001" 
d="M502 1704q-42 0 -70.5 29t-28.5 69t28.5 69.5t70.5 29.5t70 -29t28 -70q0 -40 -28 -69t-70 -29zM856 1386h-319v-1329h319v-57h-711v57h320v1329h-320v58h711v-58z" />
    <glyph glyph-name="dotlessi" unicode="&#x131;" horiz-adv-x="837" 
d="M125 0v57h289v916l-193 -23v58l137 20q61 7 85 -23.5t24 -97.5v-850h287v-57h-629z" />
    <glyph glyph-name="uni0136" unicode="&#x136;" horiz-adv-x="1251" 
d="M1167 1444l-886 -721l886 -723h-102l-827 678v-678h-72v1444h72v-678l827 678h102zM479 -432l99 326l63 -15l-98 -325z" />
    <glyph glyph-name="uni0137" unicode="&#x137;" horiz-adv-x="1017" 
d="M496 551l417 -551h-82l-391 518l-202 -123v-395h-72v1505h72v-1034l546 330l-32 207h71l29 -164q11 -70 -55 -111zM387 -432l98 326l64 -15l-98 -325z" />
    <glyph glyph-name="Lacute" unicode="&#x139;" horiz-adv-x="1062" 
d="M172 1716l528 146l19 -62l-529 -145zM258 -20q-42 -1 -67 24t-25 68v1372h72v-1407l741 20v-57z" />
    <glyph glyph-name="lacute" unicode="&#x13a;" horiz-adv-x="813" 
d="M100 1778l529 145l18 -61l-528 -146zM90 0v57h285v1413l-189 -22v57l142 23q64 9 91 -10.5t27 -81.5v-1379h283v-57h-639z" />
    <glyph glyph-name="uni013B" unicode="&#x13b;" horiz-adv-x="1062" 
d="M258 -20q-42 -1 -67 24t-25 68v1372h72v-1407l741 20v-57zM569 -106l64 -15l-98 -325l-64 14z" />
    <glyph glyph-name="uni013C" unicode="&#x13c;" horiz-adv-x="829" 
d="M104 0v57h285v1413l-188 -22v57l141 23q65 9 92 -10.5t27 -81.5v-1379h282v-57h-639zM389 -106l64 -15l-99 -325l-63 14z" />
    <glyph glyph-name="Lcaron" unicode="&#x13d;" horiz-adv-x="1083" 
d="M440 1479h72v-439h-72v439zM258 -20q-42 -1 -67 24t-25 68v1372h72v-1407l741 20v-57z" />
    <glyph glyph-name="lcaron" unicode="&#x13e;" horiz-adv-x="813" 
d="M104 0v57h285v1413l-188 -22v57l141 23q65 9 92 -10.5t27 -81.5v-1379h282v-57h-639zM631 1479h71v-439h-71v439z" />
    <glyph glyph-name="Lslash" unicode="&#x141;" horiz-adv-x="1163" 
d="M317 37l742 20v-57l-721 -20q-42 -1 -67 24t-25 68v569l-103 -29l-18 62l121 35v735h71v-715l402 113l18 -62l-420 -118v-625z" />
    <glyph glyph-name="lslash" unicode="&#x142;" horiz-adv-x="829" 
d="M461 723v-666h282v-57h-639v57h285v650l-270 -70l-17 61l287 74v698l-188 -22v57l141 23q65 9 92 -10.5t27 -81.5v-648l270 70l17 -61z" />
    <glyph glyph-name="Nacute" unicode="&#x143;" horiz-adv-x="1468" 
d="M508 1716l528 146l19 -62l-529 -145zM166 0v1444h151l893 -1417h29l-8 69v1348h72v-1444h-152l-893 1417h-29l9 -69v-1348h-72z" />
    <glyph glyph-name="nacute" unicode="&#x144;" horiz-adv-x="1148" 
d="M362 1280l529 145l18 -61l-528 -145zM645 971q-124 0 -218 -70.5t-141.5 -183t-47.5 -246.5v-471h-72v1008h72v-207l-9 -76h29q34 141 140.5 222t267.5 81q160 0 247.5 -97.5t87.5 -277.5v-653h-71v655q0 164 -71.5 240t-213.5 76z" />
    <glyph glyph-name="uni0145" unicode="&#x145;" horiz-adv-x="1468" 
d="M166 0v1444h151l893 -1417h29l-8 69v1348h72v-1444h-152l-893 1417h-29l9 -69v-1348h-72zM694 -106l64 -15l-99 -325l-63 14z" />
    <glyph glyph-name="uni0146" unicode="&#x146;" horiz-adv-x="1148" 
d="M645 971q-124 0 -218 -70.5t-141.5 -183t-47.5 -246.5v-471h-72v1008h72v-207l-9 -76h29q34 141 140.5 222t267.5 81q160 0 247.5 -97.5t87.5 -277.5v-653h-71v655q0 164 -71.5 240t-213.5 76zM543 -106l63 -15l-98 -325l-64 14z" />
    <glyph glyph-name="Ncaron" unicode="&#x147;" horiz-adv-x="1468" 
d="M1047 1837l-273 -235l-274 235l43 49l231 -200l230 200zM166 0v1444h151l893 -1417h29l-8 69v1348h72v-1444h-152l-893 1417h-29l9 -69v-1348h-72z" />
    <glyph glyph-name="ncaron" unicode="&#x148;" horiz-adv-x="1148" 
d="M901 1401l-272 -236l-275 236l43 49l232 -201l229 201zM645 971q-124 0 -218 -70.5t-141.5 -183t-47.5 -246.5v-471h-72v1008h72v-207l-9 -76h29q34 141 140.5 222t267.5 81q160 0 247.5 -97.5t87.5 -277.5v-653h-71v655q0 164 -71.5 240t-213.5 76z" />
    <glyph glyph-name="Eng" unicode="&#x14a;" horiz-adv-x="1468" 
d="M1231 1444h72v-1444h-3v-309q0 -46 -18.5 -62t-79.5 -12l-346 23v57l373 -23v326h-78l-893 1417h-29l9 -69v-1348h-72v1444h151l893 -1417h29l-8 69v1348z" />
    <glyph glyph-name="eng" unicode="&#x14b;" horiz-adv-x="1148" 
d="M666 1028q160 0 247.5 -97.5t87.5 -277.5v-942q0 -99 -118 -94l-326 23v57l375 -23v326h-2v655q0 164 -71.5 240t-213.5 76q-124 0 -218 -70.5t-141.5 -183t-47.5 -246.5v-471h-72v1008h72v-207l-9 -76h29q34 141 140.5 222t267.5 81z" />
    <glyph glyph-name="Omacron" unicode="&#x14c;" horiz-adv-x="1562" 
d="M518 1784h529v-58h-529v58zM145 723q0 158 43.5 293t123.5 235t201 156.5t269 56.5q196 0 341.5 -98t219.5 -265t74 -378q0 -126 -27 -239t-81 -205t-130 -159t-177.5 -103.5t-219.5 -36.5q-148 0 -269 56.5t-201 156.5t-123.5 236t-43.5 294zM217 723q0 -111 22.5 -212
t69 -188t112.5 -150.5t158.5 -99.5t202.5 -36t202.5 36t158.5 99.5t112 150.5t68.5 188t22.5 212t-21.5 211.5t-67.5 187t-111.5 150t-159 99.5t-204.5 36t-204.5 -36t-159.5 -99.5t-111.5 -150t-67.5 -187t-22 -211.5z" />
    <glyph glyph-name="omacron" unicode="&#x14d;" horiz-adv-x="1269" 
d="M371 1348h528v-58h-528v58zM125 504q0 98 33.5 191t95.5 167.5t161 120t220 45.5q120 0 219 -45.5t161.5 -120t96 -167.5t33.5 -191t-33.5 -191t-96 -167.5t-161.5 -120t-219 -45.5q-121 0 -220 45.5t-161 120t-95.5 167.5t-33.5 191zM197 504q0 -69 17.5 -135.5
t53.5 -127t87 -105.5t123 -72t157 -27t157 27t123 72t87 105.5t53.5 127t17.5 135.5q0 86 -28 168t-81 149.5t-138.5 108.5t-190.5 41t-190.5 -41t-138.5 -108.5t-81 -149.5t-28 -168z" />
    <glyph glyph-name="Ohungarumlaut" unicode="&#x150;" horiz-adv-x="1562" 
d="M614 1651l222 233l49 -41l-221 -233zM848 1651l221 233l49 -41l-221 -233zM145 723q0 158 43.5 293t123.5 235t201 156.5t269 56.5q196 0 341.5 -98t219.5 -265t74 -378q0 -126 -27 -239t-81 -205t-130 -159t-177.5 -103.5t-219.5 -36.5q-148 0 -269 56.5t-201 156.5
t-123.5 236t-43.5 294zM217 723q0 -111 22.5 -212t69 -188t112.5 -150.5t158.5 -99.5t202.5 -36t202.5 36t158.5 99.5t112 150.5t68.5 188t22.5 212t-21.5 211.5t-67.5 187t-111.5 150t-159 99.5t-204.5 36t-204.5 -36t-159.5 -99.5t-111.5 -150t-67.5 -187t-22 -211.5z" />
    <glyph glyph-name="ohungarumlaut" unicode="&#x151;" horiz-adv-x="1269" 
d="M467 1214l221 234l49 -41l-221 -233zM700 1214l222 234l49 -41l-221 -233zM125 504q0 98 33.5 191t95.5 167.5t161 120t220 45.5q120 0 219 -45.5t161.5 -120t96 -167.5t33.5 -191t-33.5 -191t-96 -167.5t-161.5 -120t-219 -45.5q-121 0 -220 45.5t-161 120t-95.5 167.5
t-33.5 191zM197 504q0 -69 17.5 -135.5t53.5 -127t87 -105.5t123 -72t157 -27t157 27t123 72t87 105.5t53.5 127t17.5 135.5q0 86 -28 168t-81 149.5t-138.5 108.5t-190.5 41t-190.5 -41t-138.5 -108.5t-81 -149.5t-28 -168z" />
    <glyph glyph-name="OE" unicode="&#x152;" horiz-adv-x="2304" 
d="M2179 1386h-741v-634h639v-58h-639v-637h741v-57h-813v403q-69 -196 -220 -309.5t-364 -113.5q-148 0 -269 56.5t-201 156.5t-123.5 236t-43.5 294t43.5 293t123.5 235t201 156.5t269 56.5q213 0 363.5 -114t220.5 -310v404h813v-58zM782 37q110 0 202.5 36t158.5 99.5
t112 150.5t68.5 188t22.5 212t-21.5 211.5t-67.5 187t-111.5 150t-159 99.5t-204.5 36t-204.5 -36t-159.5 -99.5t-111.5 -150t-67.5 -187t-22 -211.5t22.5 -212t69 -188t112.5 -150.5t158.5 -99.5t202.5 -36z" />
    <glyph glyph-name="oe" unicode="&#x153;" horiz-adv-x="2123" 
d="M1927 350h72q-17 -57 -36.5 -102t-56 -97.5t-82 -87.5t-116.5 -59t-158 -24q-176 0 -287.5 84.5t-158.5 228.5q-56 -139 -177 -226t-292 -87q-121 0 -220 45.5t-161 120t-95.5 167.5t-33.5 191t33.5 191t95.5 167.5t161 120t220 45.5q169 0 288.5 -83.5t176.5 -219.5
q45 147 154 225t264 78q203 0 324.5 -130t121.5 -361v-35h-819v-21q8 -97 33.5 -174.5t72.5 -139.5t123 -96t176 -34q148 0 244.5 83.5t132.5 229.5zM635 37q101 0 184 37.5t136 100t83 139.5t35 161q-2 14 -2 45v25q-6 82 -37 157t-84 135.5t-135 97t-180 36.5
q-105 0 -190.5 -41t-138.5 -108.5t-81 -149.5t-28 -168q0 -69 17.5 -135.5t53.5 -127t87 -105.5t123 -72t157 -27zM1518 971q-163 0 -269 -110t-106 -302h749q0 194 -103.5 303t-270.5 109z" />
    <glyph glyph-name="Racute" unicode="&#x154;" horiz-adv-x="1296" 
d="M352 1716l529 146l18 -62l-528 -145zM166 0v1444h432q136 0 227 -18t158 -62.5t98 -124t31 -199.5q0 -155 -51 -241t-160 -109v-28h152q46 0 61.5 -14.5t15.5 -55.5v-592h-71v623h-821v-623h-72zM238 680h360q64 0 111.5 3t96.5 12t82.5 25t64 42.5t48.5 63.5t28.5 89
t10.5 119q0 69 -10.5 121.5t-28 90t-49 63t-64 41t-82.5 23.5t-96 10.5t-112 2.5h-360v-706z" />
    <glyph glyph-name="racute" unicode="&#x155;" horiz-adv-x="839" 
d="M229 1280l529 145l18 -61l-528 -145zM158 0v909q0 64 28 93.5t90 25.5l498 -20v-58l-545 23v-973h-71z" />
    <glyph glyph-name="uni0156" unicode="&#x156;" horiz-adv-x="1296" 
d="M166 0v1444h432q136 0 227 -18t158 -62.5t98 -124t31 -199.5q0 -155 -51 -241t-160 -109v-28h152q46 0 61.5 -14.5t15.5 -55.5v-592h-71v623h-821v-623h-72zM238 680h360q64 0 111.5 3t96.5 12t82.5 25t64 42.5t48.5 63.5t28.5 89t10.5 119q0 69 -10.5 121.5t-28 90
t-49 63t-64 41t-82.5 23.5t-96 10.5t-112 2.5h-360v-706zM641 -106l64 -15l-99 -325l-63 14z" />
    <glyph glyph-name="uni0157" unicode="&#x157;" horiz-adv-x="854" 
d="M174 0v909q0 64 28.5 93.5t90.5 25.5l498 -20v-58l-545 23v-973h-72zM152 -106l63 -15l-98 -325l-64 14z" />
    <glyph glyph-name="Rcaron" unicode="&#x158;" horiz-adv-x="1296" 
d="M891 1837l-273 -235l-274 235l43 49l231 -200l230 200zM166 0v1444h432q136 0 227 -18t158 -62.5t98 -124t31 -199.5q0 -155 -51 -241t-160 -109v-28h152q46 0 61.5 -14.5t15.5 -55.5v-592h-71v623h-821v-623h-72zM238 680h360q64 0 111.5 3t96.5 12t82.5 25t64 42.5
t48.5 63.5t28.5 89t10.5 119q0 69 -10.5 121.5t-28 90t-49 63t-64 41t-82.5 23.5t-96 10.5t-112 2.5h-360v-706z" />
    <glyph glyph-name="rcaron" unicode="&#x159;" horiz-adv-x="837" 
d="M770 1401l-272 -236l-275 236l43 49l232 -201l229 201zM160 0v909q0 64 28.5 93.5t90.5 25.5l497 -20v-58l-545 23v-973h-71z" />
    <glyph glyph-name="Sacute" unicode="&#x15a;" horiz-adv-x="1341" 
d="M406 1716l528 146l18 -62l-528 -145zM1237 332q0 -352 -518 -352q-145 0 -253.5 27t-177 73.5t-110 117.5t-58 150.5t-16.5 181.5h72q0 -116 28 -203.5t75 -142t117.5 -88t147 -46.5t171.5 -13q83 0 149 8.5t123.5 29.5t96 54.5t60 85t21.5 119.5q0 39 -9 74.5t-23.5 63
t-39.5 53t-48.5 44.5t-60.5 38t-65 31t-72.5 27.5t-73.5 24t-76.5 23t-73.5 22.5q-89 28 -152.5 53.5t-123.5 60.5t-96.5 74.5t-58.5 93.5t-22 120q0 159 114 243t363 84q120 0 214.5 -31t152.5 -80t96.5 -115t53 -129.5t14.5 -129.5h-72q0 107 -36.5 190.5t-100.5 134.5
t-145.5 77t-176.5 26q-72 0 -130.5 -7.5t-110.5 -26.5t-87.5 -49.5t-56 -77.5t-20.5 -109q0 -45 11.5 -83t29.5 -66.5t50.5 -54.5t63 -44t80 -37.5t88 -32.5t99.5 -31q83 -25 126 -38.5t114.5 -40.5t110 -49t88 -57t74 -72.5t42.5 -88.5t18 -110z" />
    <glyph glyph-name="sacute" unicode="&#x15b;" horiz-adv-x="958" 
d="M225 1280l529 145l18 -61l-528 -145zM874 242q0 -262 -352 -262q-418 0 -418 395h72q0 -172 88.5 -255t253.5 -83q134 0 209.5 49.5t75.5 149.5q0 48 -20.5 86.5t-41 61t-75.5 46.5t-78.5 32t-94.5 28q-27 8 -40 12q-156 48 -228.5 111t-72.5 175q0 110 86 175t237 65
q85 0 151 -19.5t105.5 -50.5t64.5 -74.5t34.5 -86t9.5 -90.5h-72q0 264 -293 264q-108 0 -180 -46t-72 -134q0 -78 48 -128.5t167 -89.5q22 -7 67 -21t69.5 -22.5t65 -23t64 -27t54.5 -31t48.5 -38.5t35 -45.5t25 -56t7.5 -66.5z" />
    <glyph glyph-name="Scedilla" unicode="&#x15e;" horiz-adv-x="1341" 
d="M719 -20h-29l-86 -93q57 33 107 33q46 0 76 -26.5t30 -75.5q0 -78 -90 -122t-252 -44v57q127 0 198.5 28t71.5 81q0 45 -45 45q-29 0 -56.5 -11t-76.5 -45l-43 66l99 111q-122 9 -213 40t-149 78t-93.5 115.5t-49.5 143.5t-14 169h72q0 -116 28 -203.5t75 -142t117.5 -88
t147 -46.5t171.5 -13q83 0 149 8.5t123.5 29.5t96 54.5t60 85t21.5 119.5q0 39 -9 74.5t-23.5 63t-39.5 53t-48.5 44.5t-60.5 38t-65 31t-72.5 27.5t-73.5 24t-76.5 23t-73.5 22.5q-89 28 -152.5 53.5t-123.5 60.5t-96.5 74.5t-58.5 93.5t-22 120q0 159 114 243t363 84
q120 0 214.5 -31t152.5 -80t96.5 -115t53 -129.5t14.5 -129.5h-72q0 107 -36.5 190.5t-100.5 134.5t-145.5 77t-176.5 26q-72 0 -130.5 -7.5t-110.5 -26.5t-87.5 -49.5t-56 -77.5t-20.5 -109q0 -45 11.5 -83t29.5 -66.5t50.5 -54.5t63 -44t80 -37.5t88 -32.5t99.5 -31
q83 -25 126 -38.5t114.5 -40.5t110 -49t88 -57t74 -72.5t42.5 -88.5t18 -110q0 -352 -518 -352z" />
    <glyph glyph-name="scedilla" unicode="&#x15f;" horiz-adv-x="958" 
d="M522 -20h-12l-86 -93q57 33 106 33q47 0 77 -26.5t30 -75.5q0 -78 -90 -122t-252 -44v57q127 0 198.5 28t71.5 81q0 45 -45 45q-29 0 -56.5 -11t-76.5 -45l-43 66l98 111q-338 38 -338 391h72q0 -172 88.5 -255t253.5 -83q134 0 209.5 49.5t75.5 149.5q0 48 -20.5 86.5
t-41 61t-75.5 46.5t-78.5 32t-94.5 28q-27 8 -40 12q-156 48 -228.5 111t-72.5 175q0 110 86 175t237 65q85 0 151 -19.5t105.5 -50.5t64.5 -74.5t34.5 -86t9.5 -90.5h-72q0 264 -293 264q-108 0 -180 -46t-72 -134q0 -78 48 -128.5t167 -89.5q22 -7 67 -21t69.5 -22.5
t65 -23t64 -27t54.5 -31t48.5 -38.5t35 -45.5t25 -56t7.5 -66.5q0 -262 -352 -262z" />
    <glyph glyph-name="Scaron" unicode="&#x160;" horiz-adv-x="1341" 
d="M944 1837l-272 -235l-275 235l43 49l232 -200l229 200zM1237 332q0 -352 -518 -352q-145 0 -253.5 27t-177 73.5t-110 117.5t-58 150.5t-16.5 181.5h72q0 -116 28 -203.5t75 -142t117.5 -88t147 -46.5t171.5 -13q83 0 149 8.5t123.5 29.5t96 54.5t60 85t21.5 119.5
q0 39 -9 74.5t-23.5 63t-39.5 53t-48.5 44.5t-60.5 38t-65 31t-72.5 27.5t-73.5 24t-76.5 23t-73.5 22.5q-89 28 -152.5 53.5t-123.5 60.5t-96.5 74.5t-58.5 93.5t-22 120q0 159 114 243t363 84q120 0 214.5 -31t152.5 -80t96.5 -115t53 -129.5t14.5 -129.5h-72
q0 107 -36.5 190.5t-100.5 134.5t-145.5 77t-176.5 26q-72 0 -130.5 -7.5t-110.5 -26.5t-87.5 -49.5t-56 -77.5t-20.5 -109q0 -45 11.5 -83t29.5 -66.5t50.5 -54.5t63 -44t80 -37.5t88 -32.5t99.5 -31q83 -25 126 -38.5t114.5 -40.5t110 -49t88 -57t74 -72.5t42.5 -88.5
t18 -110z" />
    <glyph glyph-name="scaron" unicode="&#x161;" horiz-adv-x="958" 
d="M764 1401l-272 -236l-275 236l43 49l232 -201l229 201zM874 242q0 -262 -352 -262q-418 0 -418 395h72q0 -172 88.5 -255t253.5 -83q134 0 209.5 49.5t75.5 149.5q0 48 -20.5 86.5t-41 61t-75.5 46.5t-78.5 32t-94.5 28q-27 8 -40 12q-156 48 -228.5 111t-72.5 175
q0 110 86 175t237 65q85 0 151 -19.5t105.5 -50.5t64.5 -74.5t34.5 -86t9.5 -90.5h-72q0 264 -293 264q-108 0 -180 -46t-72 -134q0 -78 48 -128.5t167 -89.5q22 -7 67 -21t69.5 -22.5t65 -23t64 -27t54.5 -31t48.5 -38.5t35 -45.5t25 -56t7.5 -66.5z" />
    <glyph glyph-name="uni0162" unicode="&#x162;" horiz-adv-x="1318" 
d="M696 1386v-1386l-104 -113q57 33 106 33q47 0 77 -26.5t30 -75.5q0 -78 -90 -122t-252 -44v57q127 0 198.5 28t71.5 81q0 45 -45 45q-29 0 -56.5 -11t-76.5 -45l-43 66l113 127v1386h-521v58h1108v-58h-516z" />
    <glyph glyph-name="uni0163" unicode="&#x163;" horiz-adv-x="796" 
d="M690 0l-164 -12l-94 -101q57 33 107 33q46 0 76 -26.5t30 -75.5q0 -78 -90 -122t-252 -44v57q127 0 198.5 28t71.5 81q0 45 -45 45q-29 0 -56.5 -11t-76.5 -45l-43 66l99 111l-58 -4q-62 -4 -90.5 25t-28.5 93v852h-211v58h211v303l72 20v-323h303v-58h-303v-913l344 20
v-57z" />
    <glyph glyph-name="Tcaron" unicode="&#x164;" horiz-adv-x="1318" 
d="M932 1837l-273 -235l-274 235l43 49l231 -200l230 200zM1212 1444v-58h-516v-1386h-71v1386h-521v58h1108z" />
    <glyph glyph-name="tcaron" unicode="&#x165;" horiz-adv-x="796" 
d="M549 1505v-368h-72v368h72zM346 37l344 20v-57l-297 -20q-62 -4 -90.5 25t-28.5 93v852h-211v58h211v303l72 20v-323h303v-58h-303v-913z" />
    <glyph glyph-name="Tbar" unicode="&#x166;" horiz-adv-x="1318" 
d="M1212 1386h-516v-589h324v-58h-324v-739h-71v739h-324v58h324v589h-521v58h1108v-58z" />
    <glyph glyph-name="tbar" unicode="&#x167;" horiz-adv-x="796" 
d="M346 37l344 20v-57l-297 -20q-62 -4 -90.5 25t-28.5 93v498h-170v57h170v297h-211v58h211v303l72 20v-323h303v-58h-303v-297h234v-57h-234v-559z" />
    <glyph glyph-name="Umacron" unicode="&#x16a;" horiz-adv-x="1298" 
d="M385 1784h528v-58h-528v58zM125 537v907h72v-952q0 -455 452 -455q453 0 453 455v952h72v-907q0 -277 -125.5 -417t-399.5 -140q-275 0 -399.5 139.5t-124.5 417.5z" />
    <glyph glyph-name="umacron" unicode="&#x16b;" horiz-adv-x="1128" 
d="M328 1348h528v-58h-528v58zM504 37q124 0 218 70.5t141.5 183t47.5 246.5v471h72v-1008h-72v207l9 76h-29q-34 -141 -140.5 -222t-267.5 -81q-160 0 -248 97.5t-88 276.5v654h72v-656q0 -164 71 -239.5t214 -75.5z" />
    <glyph glyph-name="Uring" unicode="&#x16e;" horiz-adv-x="1298" 
d="M647 1595q-90 0 -144 59.5t-54 137.5q0 76 54 135.5t144 59.5q91 0 146 -59.5t55 -135.5t-55 -136.5t-146 -60.5zM647 1653q60 0 94.5 38t34.5 101q0 61 -35 99t-94 38q-58 0 -92.5 -38t-34.5 -99q0 -62 34.5 -100.5t92.5 -38.5zM125 537v907h72v-952q0 -455 452 -455
q453 0 453 455v952h72v-907q0 -277 -125.5 -417t-399.5 -140q-275 0 -399.5 139.5t-124.5 417.5z" />
    <glyph glyph-name="uring" unicode="&#x16f;" horiz-adv-x="1128" 
d="M590 1159q-90 0 -144.5 60t-54.5 137q0 76 54.5 135t144.5 59q92 0 146.5 -59t54.5 -135t-55 -136.5t-146 -60.5zM590 1217q60 0 94.5 38t34.5 101q0 61 -35 99t-94 38q-58 0 -92.5 -38t-34.5 -99q0 -62 34.5 -100.5t92.5 -38.5zM504 37q124 0 218 70.5t141.5 183
t47.5 246.5v471h72v-1008h-72v207l9 76h-29q-34 -141 -140.5 -222t-267.5 -81q-160 0 -248 97.5t-88 276.5v654h72v-656q0 -164 71 -239.5t214 -75.5z" />
    <glyph glyph-name="Uhungarumlaut" unicode="&#x170;" horiz-adv-x="1298" 
d="M481 1651l221 233l50 -41l-222 -233zM715 1651l221 233l49 -41l-221 -233zM125 537v907h72v-952q0 -455 452 -455q453 0 453 455v952h72v-907q0 -277 -125.5 -417t-399.5 -140q-275 0 -399.5 139.5t-124.5 417.5z" />
    <glyph glyph-name="uhungarumlaut" unicode="&#x171;" horiz-adv-x="1128" 
d="M424 1214l221 234l49 -41l-221 -233zM657 1214l222 234l49 -41l-221 -233zM504 37q124 0 218 70.5t141.5 183t47.5 246.5v471h72v-1008h-72v207l9 76h-29q-34 -141 -140.5 -222t-267.5 -81q-160 0 -248 97.5t-88 276.5v654h72v-656q0 -164 71 -239.5t214 -75.5z" />
    <glyph glyph-name="Uogonek" unicode="&#x172;" horiz-adv-x="1298" 
d="M1174 537q0 -229 -85.5 -365t-269.5 -176l-180 -322l459 45v-57l-441 -43q-45 -4 -66.5 34.5t3.5 78.5l151 252q-58 -4 -96 -4q-275 0 -399.5 139.5t-124.5 417.5v907h72v-952q0 -455 452 -455q453 0 453 455v952h72v-907z" />
    <glyph glyph-name="uogonek" unicode="&#x173;" horiz-adv-x="1128" 
d="M801 -326l459 45v-57l-441 -43q-45 -4 -66.5 34.5t3.5 78.5l162 268h-7v207l9 76h-29q-34 -141 -140.5 -222t-267.5 -81q-160 0 -248 97.5t-88 276.5v654h72v-656q0 -164 71 -239.5t214 -75.5q124 0 218 70.5t141.5 183t47.5 246.5v471h72v-1008z" />
    <glyph glyph-name="Wcircumflex" unicode="&#x174;" horiz-adv-x="1884" 
d="M1214 1667l-43 -49l-229 201l-231 -201l-43 49l274 236zM84 1444h66l333 -1417h29l356 1417h148l356 -1417h29l334 1417h65l-340 -1444h-147l-357 1417h-28l-357 -1417h-147z" />
    <glyph glyph-name="wcircumflex" unicode="&#x175;" horiz-adv-x="1652" 
d="M1098 1231l-43 -49l-230 200l-231 -200l-43 49l274 235zM63 1008h68l313 -981h29l285 981h137l285 -981h26l314 981h67l-321 -1008h-146l-280 979h-27l-281 -979h-147z" />
    <glyph glyph-name="Ycircumflex" unicode="&#x176;" horiz-adv-x="1269" 
d="M907 1667l-43 -49l-229 201l-232 -201l-43 49l275 236zM1112 1444h74l-514 -862v-582h-72v582l-516 862h74l465 -776v-76h26v76z" />
    <glyph glyph-name="ycircumflex" unicode="&#x177;" horiz-adv-x="1112" 
d="M567 1382l-231 -200l-43 49l274 235l273 -235l-43 -49zM956 1008h70l-422 -1028v-263q0 -45 -29.5 -70t-91.5 -22l-325 23v57l374 -24v299l-428 1028h70l379 -914v-26h29v26z" />
    <glyph glyph-name="Ydieresis" unicode="&#x178;" horiz-adv-x="1269" 
d="M457 1704q-42 0 -70.5 29t-28.5 69t28.5 69.5t70.5 29.5t70 -29t28 -70q0 -40 -28 -69t-70 -29zM811 1704q-42 0 -70 29t-28 69q0 41 28 70t70 29t70 -29t28 -70q0 -40 -28 -69t-70 -29zM1112 1444h74l-514 -862v-582h-72v582l-516 862h74l465 -776v-76h26v76z" />
    <glyph glyph-name="Zacute" unicode="&#x179;" horiz-adv-x="1316" 
d="M393 1716l529 146l18 -62l-528 -145zM125 0v141l1038 1225v29l-73 -9h-965v58h1067v-141l-1038 -1225v-29l73 8h965v-57h-1067z" />
    <glyph glyph-name="zacute" unicode="&#x17a;" horiz-adv-x="1132" 
d="M301 1280l528 145l19 -61l-529 -145zM125 0v139l854 791v26l-74 -6h-780v58h883v-140l-854 -790v-27l73 6h781v-57h-883z" />
    <glyph glyph-name="Zdotaccent" unicode="&#x17b;" horiz-adv-x="1316" 
d="M659 1704q-42 0 -70 29t-28 69q0 41 28 70t70 29t70.5 -29.5t28.5 -69.5t-28.5 -69t-70.5 -29zM125 0v141l1038 1225v29l-73 -9h-965v58h1067v-141l-1038 -1225v-29l73 8h965v-57h-1067z" />
    <glyph glyph-name="zdotaccent" unicode="&#x17c;" horiz-adv-x="1132" 
d="M567 1268q-42 0 -70 29t-28 69t28 69t70 29t70.5 -29t28.5 -69t-28.5 -69t-70.5 -29zM125 0v139l854 791v26l-74 -6h-780v58h883v-140l-854 -790v-27l73 6h781v-57h-883z" />
    <glyph glyph-name="Zcaron" unicode="&#x17d;" horiz-adv-x="1316" 
d="M932 1837l-273 -235l-274 235l43 49l231 -200l230 200zM125 0v141l1038 1225v29l-73 -9h-965v58h1067v-141l-1038 -1225v-29l73 8h965v-57h-1067z" />
    <glyph glyph-name="zcaron" unicode="&#x17e;" horiz-adv-x="1132" 
d="M840 1401l-273 -236l-274 236l43 49l231 -201l230 201zM125 0v139l854 791v26l-74 -6h-780v58h883v-140l-854 -790v-27l73 6h781v-57h-883z" />
    <glyph glyph-name="uni0218" unicode="&#x218;" horiz-adv-x="1341" 
d="M1237 332q0 -352 -518 -352q-145 0 -253.5 27t-177 73.5t-110 117.5t-58 150.5t-16.5 181.5h72q0 -116 28 -203.5t75 -142t117.5 -88t147 -46.5t171.5 -13q83 0 149 8.5t123.5 29.5t96 54.5t60 85t21.5 119.5q0 39 -9 74.5t-23.5 63t-39.5 53t-48.5 44.5t-60.5 38t-65 31
t-72.5 27.5t-73.5 24t-76.5 23t-73.5 22.5q-89 28 -152.5 53.5t-123.5 60.5t-96.5 74.5t-58.5 93.5t-22 120q0 159 114 243t363 84q120 0 214.5 -31t152.5 -80t96.5 -115t53 -129.5t14.5 -129.5h-72q0 107 -36.5 190.5t-100.5 134.5t-145.5 77t-176.5 26q-72 0 -130.5 -7.5
t-110.5 -26.5t-87.5 -49.5t-56 -77.5t-20.5 -109q0 -45 11.5 -83t29.5 -66.5t50.5 -54.5t63 -44t80 -37.5t88 -32.5t99.5 -31q83 -25 126 -38.5t114.5 -40.5t110 -49t88 -57t74 -72.5t42.5 -88.5t18 -110zM633 -106l63 -15l-98 -325l-63 14z" />
    <glyph glyph-name="uni0219" unicode="&#x219;" horiz-adv-x="958" 
d="M874 242q0 -262 -352 -262q-418 0 -418 395h72q0 -172 88.5 -255t253.5 -83q134 0 209.5 49.5t75.5 149.5q0 48 -20.5 86.5t-41 61t-75.5 46.5t-78.5 32t-94.5 28q-27 8 -40 12q-156 48 -228.5 111t-72.5 175q0 110 86 175t237 65q85 0 151 -19.5t105.5 -50.5t64.5 -74.5
t34.5 -86t9.5 -90.5h-72q0 264 -293 264q-108 0 -180 -46t-72 -134q0 -78 48 -128.5t167 -89.5q22 -7 67 -21t69.5 -22.5t65 -23t64 -27t54.5 -31t48.5 -38.5t35 -45.5t25 -56t7.5 -66.5zM453 -106l63 -15l-98 -325l-64 14z" />
    <glyph glyph-name="uni021A" unicode="&#x21a;" horiz-adv-x="1318" 
d="M1212 1444v-58h-516v-1386h-71v1386h-521v58h1108zM522 -432l99 326l63 -15l-98 -325z" />
    <glyph glyph-name="uni021B" unicode="&#x21b;" horiz-adv-x="796" 
d="M346 37l344 20v-57l-297 -20q-62 -4 -90.5 25t-28.5 93v852h-211v58h211v303l72 20v-323h303v-58h-303v-913zM362 -432l99 326l63 -15l-98 -325z" />
    <glyph glyph-name="circumflex" unicode="&#x2c6;" horiz-adv-x="903" 
d="M725 1231l-43 -49l-229 200l-232 -200l-43 49l275 235z" />
    <glyph glyph-name="caron" unicode="&#x2c7;" horiz-adv-x="903" 
d="M725 1401l-272 -236l-275 236l43 49l232 -201l229 201z" />
    <glyph glyph-name="breve" unicode="&#x2d8;" horiz-adv-x="948" 
d="M762 1481q0 -320 -287 -320q-289 0 -289 320h72q0 -262 217 -262q215 0 215 262h72z" />
    <glyph glyph-name="dotaccent" unicode="&#x2d9;" horiz-adv-x="606" 
d="M303 1268q-42 0 -70 29t-28 69t28 69t70 29t70 -29t28 -69t-28 -69t-70 -29z" />
    <glyph glyph-name="ring" unicode="&#x2da;" horiz-adv-x="694" 
d="M385 1159q-90 0 -144.5 60t-54.5 137q0 76 54.5 135t144.5 59q92 0 146.5 -59t54.5 -135t-55 -136.5t-146 -60.5zM385 1217q60 0 94.5 38t34.5 101q0 61 -35 99t-94 38q-58 0 -92.5 -38t-34.5 -99q0 -62 34.5 -100.5t92.5 -38.5z" />
    <glyph glyph-name="ogonek" unicode="&#x2db;" horiz-adv-x="884" 
d="M696 -281v-57l-440 -43q-45 -4 -66.5 34.5t3.5 78.5l161 268h66l-182 -326z" />
    <glyph glyph-name="tilde" unicode="&#x2dc;" horiz-adv-x="983" 
d="M186 1208q0 110 45.5 162.5t116.5 52.5q43 0 78.5 -18.5t59.5 -44.5t46 -52t48 -44.5t55 -18.5q39 0 64.5 36.5t25.5 121.5h72q0 -110 -45.5 -162.5t-116.5 -52.5q-43 0 -78.5 18.5t-59.5 44.5t-46 52t-48 44.5t-55 18.5q-39 0 -64.5 -36.5t-25.5 -121.5h-72z" />
    <glyph glyph-name="hungarumlaut" unicode="&#x2dd;" horiz-adv-x="878" 
d="M186 1214l222 234l49 -41l-221 -233zM420 1214l221 234l49 -41l-221 -233z" />
    <glyph glyph-name="gravecomb" unicode="&#x300;" horiz-adv-x="0" 
d="M-186 1280l-19 -61l-528 145l18 61z" />
    <glyph glyph-name="acutecomb" unicode="&#x301;" horiz-adv-x="0" 
d="M-733 1280l528 145l19 -61l-529 -145z" />
    <glyph glyph-name="uni0302" unicode="&#x302;" horiz-adv-x="0" 
d="M-178 1231l-43 -49l-230 200l-231 -200l-43 49l274 235z" />
    <glyph glyph-name="tildecomb" unicode="&#x303;" horiz-adv-x="0" 
d="M-797 1208q0 110 45.5 162.5t116.5 52.5q43 0 78.5 -18.5t59.5 -44.5t46 -52t48 -44.5t55 -18.5q39 0 64.5 36.5t25.5 121.5h72q0 -110 -45.5 -162.5t-116.5 -52.5q-43 0 -78.5 18.5t-59.5 44.5t-46 52t-48 44.5t-55 18.5q-39 0 -64.5 -36.5t-25.5 -121.5h-72z" />
    <glyph glyph-name="uni0304" unicode="&#x304;" horiz-adv-x="0" 
d="M-717 1348h529v-58h-529v58z" />
    <glyph glyph-name="uni0306" unicode="&#x306;" horiz-adv-x="0" 
d="M-186 1481q0 -320 -287 -320q-289 0 -289 320h72q0 -262 217 -262q215 0 215 262h72z" />
    <glyph glyph-name="uni0307" unicode="&#x307;" horiz-adv-x="0" 
d="M-303 1268q-42 0 -70 29t-28 69t28 69t70 29t70 -29t28 -69t-28 -69t-70 -29z" />
    <glyph glyph-name="uni0308" unicode="&#x308;" horiz-adv-x="0" 
d="M-657 1268q-42 0 -70.5 29t-28.5 69t28.5 69t70.5 29t70 -29t28 -69t-28 -69t-70 -29zM-303 1268q-42 0 -70 29t-28 69t28 69t70 29t70 -29t28 -69t-28 -69t-70 -29z" />
    <glyph glyph-name="uni030A" unicode="&#x30a;" horiz-adv-x="0" 
d="M-389 1159q-90 0 -144.5 60t-54.5 137q0 76 54.5 135t144.5 59q92 0 146.5 -59t54.5 -135t-55 -136.5t-146 -60.5zM-389 1217q60 0 94.5 38t34.5 101q0 61 -35 99t-94 38q-58 0 -92.5 -38t-34.5 -99q0 -62 34.5 -100.5t92.5 -38.5z" />
    <glyph glyph-name="uni030B" unicode="&#x30b;" horiz-adv-x="0" 
d="M-692 1214l221 234l49 -41l-221 -233zM-459 1214l221 234l50 -41l-222 -233z" />
    <glyph glyph-name="uni030C" unicode="&#x30c;" horiz-adv-x="0" 
d="M-178 1401l-273 -236l-274 236l43 49l231 -201l230 201z" />
    <glyph glyph-name="uni0312" unicode="&#x312;" horiz-adv-x="0" 
d="M-252 1546l64 -14l-111 -315l-63 14z" />
    <glyph glyph-name="uni0326" unicode="&#x326;" horiz-adv-x="0" 
d="M-260 -106l63 -15l-98 -325l-63 14z" />
    <glyph glyph-name="uni0327" unicode="&#x327;" horiz-adv-x="0" 
d="M-295 -80q47 0 77 -26.5t30 -75.5q0 -78 -90 -122t-252 -44v57q127 0 198.5 28t71.5 81q0 45 -45 45q-29 0 -56.5 -11t-76.5 -45l-43 66l112 127h72l-104 -113q57 33 106 33z" />
    <glyph glyph-name="uni0328" unicode="&#x328;" horiz-adv-x="0" 
d="M-188 -281v-57l-441 -43q-45 -4 -66.5 34.5t3.5 78.5l162 268h65l-182 -326z" />
    <glyph glyph-name="uni0400" unicode="&#x400;" horiz-adv-x="1103" 
d="M846 1716l-19 -61l-528 145l18 62zM166 0v1444h813v-58h-741v-634h639v-58h-639v-637h741v-57h-813z" />
    <glyph glyph-name="uni0401" unicode="&#x401;" horiz-adv-x="1103" 
d="M395 1704q-42 0 -70 29t-28 69q0 41 28 70t70 29t70.5 -29.5t28.5 -69.5t-28.5 -69t-70.5 -29zM750 1704q-42 0 -70.5 29t-28.5 69t28.5 69.5t70.5 29.5t70 -29t28 -70q0 -40 -28 -69t-70 -29zM166 0v1444h813v-58h-741v-634h639v-58h-639v-637h741v-57h-813z" />
    <glyph glyph-name="uni0402" unicode="&#x402;" horiz-adv-x="1579" 
d="M973 885q93 10 165 6.5t125.5 -28.5t90 -60t59 -88t32 -112.5t9.5 -133.5q0 -110 -24.5 -192.5t-66.5 -134.5t-105.5 -84.5t-134 -45t-158.5 -12.5v57q103 0 178 20t121 54.5t72.5 89.5t36 115t9.5 141q0 218 -98.5 301t-316.5 49l-287 -41v-786h-72v1386h-524v58h1120
v-58h-524v-542z" />
    <glyph glyph-name="uni0403" unicode="&#x403;" horiz-adv-x="1052" 
d="M309 1716l529 146l18 -62l-528 -145zM166 0v1444h780v-58h-708v-1386h-72z" />
    <glyph glyph-name="uni0404" unicode="&#x404;" horiz-adv-x="1544" 
d="M780 37q233 0 377.5 138t169.5 384h72q-32 -270 -195 -424.5t-424 -154.5q-148 0 -268.5 56.5t-200.5 156.5t-123 236t-43 294t43 293t123 235t200.5 156.5t268.5 56.5q260 0 423 -154t196 -423h-72q-25 246 -169.5 383t-377.5 137q-131 0 -237 -51t-175.5 -140
t-108 -207.5t-42.5 -256.5h657v-58h-657q4 -139 42.5 -258t108 -208t175.5 -140t237 -51z" />
    <glyph glyph-name="uni0405" unicode="&#x405;" horiz-adv-x="1341" 
d="M1237 332q0 -352 -518 -352q-145 0 -253.5 27t-177 73.5t-110 117.5t-58 150.5t-16.5 181.5h72q0 -116 28 -203.5t75 -142t117.5 -88t147 -46.5t171.5 -13q83 0 149 8.5t123.5 29.5t96 54.5t60 85t21.5 119.5q0 39 -9 74.5t-23.5 63t-39.5 53t-48.5 44.5t-60.5 38t-65 31
t-72.5 27.5t-73.5 24t-76.5 23t-73.5 22.5q-89 28 -152.5 53.5t-123.5 60.5t-96.5 74.5t-58.5 93.5t-22 120q0 159 114 243t363 84q120 0 214.5 -31t152.5 -80t96.5 -115t53 -129.5t14.5 -129.5h-72q0 107 -36.5 190.5t-100.5 134.5t-145.5 77t-176.5 26q-72 0 -130.5 -7.5
t-110.5 -26.5t-87.5 -49.5t-56 -77.5t-20.5 -109q0 -45 11.5 -83t29.5 -66.5t50.5 -54.5t63 -44t80 -37.5t88 -32.5t99.5 -31q83 -25 126 -38.5t114.5 -40.5t110 -49t88 -57t74 -72.5t42.5 -88.5t18 -110z" />
    <glyph glyph-name="uni0406" unicode="&#x406;" horiz-adv-x="1001" 
d="M856 1386h-319v-1329h319v-57h-711v57h320v1329h-320v58h711v-58z" />
    <glyph glyph-name="uni0407" unicode="&#x407;" horiz-adv-x="1001" 
d="M324 1704q-42 0 -70.5 29t-28.5 69t28.5 69.5t70.5 29.5t70 -29t28 -70q0 -40 -28 -69t-70 -29zM678 1704q-42 0 -70 29t-28 69q0 41 28 70t70 29t70 -29t28 -70q0 -40 -28 -69t-70 -29zM856 1386h-319v-1329h319v-57h-711v57h320v1329h-320v58h711v-58z" />
    <glyph glyph-name="uni0408" unicode="&#x408;" horiz-adv-x="890" 
d="M397 -20l-313 20v57l313 -20q61 -4 104 7t74.5 43t50 76.5t29.5 121t15 163.5t4 216v743l-344 -21v58l323 20q42 3 67 -23t25 -69v-667v-14q0 -91 -0.5 -136t-3.5 -123t-9 -117t-17.5 -98t-29 -88.5t-43.5 -66t-60.5 -52t-81 -25t-103.5 -5.5z" />
    <glyph glyph-name="uni0409" unicode="&#x409;" horiz-adv-x="2150" 
d="M1511 864q265 0 389.5 -99.5t124.5 -332.5t-124.5 -332.5t-389.5 -99.5h-391v1386h-641q0 -129 -1 -214t-3.5 -203.5t-8.5 -198.5t-15.5 -180t-25 -166.5t-36.5 -140.5t-50.5 -120t-66 -86t-84 -58.5t-104.5 -18.5v57q185 0 260 303q58 234 63 753q1 87 1 331h784v-580
h319zM1511 57q85 0 148.5 9t121.5 33t94.5 65.5t57.5 108.5t21 159t-21 159t-57.5 108.5t-94.5 65.5t-121.5 33t-148.5 9h-319v-750h319z" />
    <glyph glyph-name="uni040A" unicode="&#x40a;" horiz-adv-x="2195" 
d="M1556 864q265 0 390 -100t125 -332t-125 -332t-390 -100h-391v690h-927v-690h-72v1444h72v-696h927v696h72v-580h319zM1556 57q85 0 148.5 9t121.5 33t94.5 65.5t57.5 108.5t21 159t-21 159t-57.5 108.5t-94.5 65.5t-121.5 33t-148.5 9h-319v-750h319z" />
    <glyph glyph-name="uni040B" unicode="&#x40b;" horiz-adv-x="1636" 
d="M1352 903q62 3 90 -27t28 -94v-782h-71v846l-891 -41v-805h-72v1386h-352v58h1147v-58h-723v-524z" />
    <glyph glyph-name="uni040C" unicode="&#x40c;" horiz-adv-x="1193" 
d="M885 1800l-529 -145l-18 61l528 146zM874 1386l-419 -577q-12 -16 -19 -23l672 -786h-86l-635 752q-21 -7 -41 -7h-108v-745h-72v1444h72v-641h133l420 575q25 33 49 49.5t59 16.5h223v-58h-248z" />
    <glyph glyph-name="uni040D" unicode="&#x40d;" horiz-adv-x="1468" 
d="M952 1716l-18 -61l-528 145l18 62zM1303 0h-72v1348l8 69h-29l-893 -1417h-151v1444h72v-1348l-9 -69h29l893 1417h152v-1444z" />
    <glyph glyph-name="uni040F" unicode="&#x40f;" horiz-adv-x="1320" 
d="M1083 1444h72v-1444h-459v-260h-71v260h-459v1444h72v-1387h845v1387z" />
    <glyph glyph-name="uni0410" unicode="&#x410;" horiz-adv-x="1304" 
d="M1153 0l-215 627h-571l-215 -627h-68l494 1444h147l496 -1444h-68zM385 684h533l-252 733h-29z" />
    <glyph glyph-name="uni0411" unicode="&#x411;" horiz-adv-x="1216" 
d="M557 864q265 0 389.5 -99.5t124.5 -332.5t-124.5 -332.5t-389.5 -99.5h-391v1444h766v-58h-694v-522h319zM557 57q108 0 182.5 15t136.5 54.5t92.5 115.5t30.5 190t-30.5 190t-92.5 115.5t-136.5 54.5t-182.5 15h-319v-750h319z" />
    <glyph glyph-name="uni0412" unicode="&#x412;" horiz-adv-x="1255" 
d="M166 0v1444h307q102 0 180 -9.5t146 -33.5t112 -63.5t68.5 -101.5t24.5 -146q0 -129 -72.5 -219.5t-181.5 -96.5v-29q167 -2 263.5 -97.5t96.5 -264.5q0 -198 -125 -290.5t-379 -92.5h-440zM238 780h221q94 0 163.5 7.5t130.5 27.5t98.5 54t59 87.5t21.5 126.5
q0 69 -13.5 119.5t-44 83.5t-66.5 53t-95.5 30.5t-114.5 13.5t-139 3h-221v-606zM238 57h354q110 0 187.5 15t138 51t90.5 102t30 164q0 175 -115 254.5t-331 79.5h-354v-666z" />
    <glyph glyph-name="uni0413" unicode="&#x413;" horiz-adv-x="1052" 
d="M166 0v1444h780v-58h-708v-1386h-72z" />
    <glyph glyph-name="uni0414" unicode="&#x414;" horiz-adv-x="1415" 
d="M1331 57v-317h-71v260h-1104v-260h-72v317h135q95 306 127.5 608t32.5 779h817v-1387h135zM291 57h833v1329h-673q-2 -448 -35 -740.5t-125 -588.5z" />
    <glyph glyph-name="uni0415" unicode="&#x415;" horiz-adv-x="1103" 
d="M166 0v1444h813v-58h-741v-634h639v-58h-639v-637h741v-57h-813z" />
    <glyph glyph-name="uni0416" unicode="&#x416;" horiz-adv-x="2009" 
d="M1681 1386l-424 -577q-15 -20 -18 -23l686 -786h-86l-655 750q-25 -5 -35 -5h-109v-745h-71v745h-107q-10 0 -35 5l-657 -750h-86l688 784q-5 5 -20 25l-424 577h-244v58h223q35 0 59.5 -16.5t49.5 -49.5l420 -575h133v641h71v-641h136l417 575q25 33 49.5 49.5
t59.5 16.5h223v-58h-244z" />
    <glyph glyph-name="uni0417" unicode="&#x417;" horiz-adv-x="1329" 
d="M145 551h72q0 -268 118 -391t355 -123q422 0 422 381q0 157 -86.5 240t-241.5 83h-200v58h200q150 0 229 74.5t79 199.5q0 155 -96.5 244.5t-305.5 89.5q-452 0 -452 -426h-72q0 228 128 355.5t396 127.5q125 0 219 -31t148 -85t80 -119.5t26 -141.5q0 -55 -12 -102.5
t-39 -90t-75.5 -71.5t-114.5 -39v-26q133 -33 197.5 -124.5t64.5 -227.5q0 -193 -123 -309.5t-371 -116.5q-277 0 -411 142.5t-134 428.5z" />
    <glyph glyph-name="uni0418" unicode="&#x418;" horiz-adv-x="1468" 
d="M1303 0h-72v1348l8 69h-29l-893 -1417h-151v1444h72v-1348l-9 -69h29l893 1417h152v-1444z" />
    <glyph glyph-name="uni0419" unicode="&#x419;" horiz-adv-x="1468" 
d="M967 1917q0 -320 -287 -320q-289 0 -289 320h72q0 -262 217 -262q215 0 215 262h72zM1303 0h-72v1348l8 69h-29l-893 -1417h-151v1444h72v-1348l-9 -69h29l893 1417h152v-1444z" />
    <glyph glyph-name="uni041A" unicode="&#x41a;" horiz-adv-x="1193" 
d="M874 1386l-419 -577q-12 -16 -19 -23l672 -786h-86l-635 752q-21 -7 -41 -7h-108v-745h-72v1444h72v-641h133l420 575q25 33 49 49.5t59 16.5h223v-58h-248z" />
    <glyph glyph-name="uni041B" unicode="&#x41b;" horiz-adv-x="1357" 
d="M1192 1444v-1444h-72v1386h-641q0 -129 -1 -214t-3.5 -203.5t-8.5 -198.5t-15.5 -180t-25 -166.5t-36.5 -140.5t-50.5 -120t-66 -86t-84 -58.5t-104.5 -18.5v57q185 0 260 303q58 234 63 753q1 87 1 331h784z" />
    <glyph glyph-name="uni041C" unicode="&#x41c;" horiz-adv-x="1722" 
d="M166 0v1444h151l531 -1417h29l528 1417h151v-1444h-71v1348l10 69h-31l-528 -1417h-148l-530 1417h-29l9 -69v-1348h-72z" />
    <glyph glyph-name="uni041D" unicode="&#x41d;" horiz-adv-x="1402" 
d="M1165 1444h72v-1444h-72v690h-927v-690h-72v1444h72v-696h927v696z" />
    <glyph glyph-name="uni041E" unicode="&#x41e;" horiz-adv-x="1562" 
d="M145 723q0 158 43.5 293t123.5 235t201 156.5t269 56.5q196 0 341.5 -98t219.5 -265t74 -378q0 -126 -27 -239t-81 -205t-130 -159t-177.5 -103.5t-219.5 -36.5q-148 0 -269 56.5t-201 156.5t-123.5 236t-43.5 294zM217 723q0 -111 22.5 -212t69 -188t112.5 -150.5
t158.5 -99.5t202.5 -36t202.5 36t158.5 99.5t112 150.5t68.5 188t22.5 212t-21.5 211.5t-67.5 187t-111.5 150t-159 99.5t-204.5 36t-204.5 -36t-159.5 -99.5t-111.5 -150t-67.5 -187t-22 -211.5z" />
    <glyph glyph-name="uni041F" unicode="&#x41f;" horiz-adv-x="1333" 
d="M1167 1444v-1444h-71v1386h-858v-1386h-72v1444h1001z" />
    <glyph glyph-name="uni0420" unicode="&#x420;" horiz-adv-x="1196" 
d="M502 1444q142 0 244 -22.5t177 -74t111.5 -139.5t36.5 -215t-37 -215.5t-111.5 -140.5t-176.5 -75t-244 -23h-264v-539h-72v1444h336zM496 596q94 0 165 9t137 34.5t108.5 69t67.5 115t25 169.5q0 70 -13 126.5t-35.5 97.5t-58 71t-76 48.5t-94 30t-107 15.5t-119.5 4
h-258v-790h258z" />
    <glyph glyph-name="uni0421" unicode="&#x421;" horiz-adv-x="1544" 
d="M145 723q0 158 43 293t123 235t200.5 156.5t268.5 56.5q260 0 423 -154t196 -423h-72q-25 246 -169.5 383t-377.5 137q-135 0 -243 -53.5t-177.5 -146.5t-106 -217t-36.5 -267q0 -144 36.5 -268t106 -217.5t177.5 -147t243 -53.5q233 0 377.5 138t169.5 384h72
q-32 -270 -195 -424.5t-424 -154.5q-148 0 -268.5 56.5t-200.5 156.5t-123 236t-43 294z" />
    <glyph glyph-name="uni0422" unicode="&#x422;" horiz-adv-x="1318" 
d="M1212 1444v-58h-516v-1386h-71v1386h-521v58h1108z" />
    <glyph glyph-name="uni0423" unicode="&#x423;" horiz-adv-x="1261" 
d="M1106 1444h72l-500 -1020v-352q0 -98 -119 -92l-407 22v57l454 -22v387l-502 1020h72l453 -920v-26h26v26z" />
    <glyph glyph-name="uni0424" unicode="&#x424;" horiz-adv-x="1609" 
d="M1505 719q0 -57 -5.5 -104.5t-23 -101t-47 -95.5t-80 -82.5t-118.5 -67t-167 -44t-222 -19.5v-205h-72v205q-146 3 -261.5 34t-190 79.5t-124 114.5t-70 136.5t-20.5 149.5q0 78 20.5 148t70 136.5t124 114.5t190 79t261.5 34v213h72v-213q146 -3 261.5 -34t189.5 -79
t122.5 -114.5t69 -136.5t20.5 -148zM842 262q136 3 242 31t170.5 71.5t106 104t57.5 121t16 129.5q0 68 -16 128.5t-57.5 120.5t-106 103.5t-170.5 71.5t-242 31v-912zM176 719q0 -69 16 -129.5t58 -120.5t107 -103.5t171 -72t242 -31.5v912q-136 -3 -242 -31.5t-171 -72
t-107 -103t-58 -120t-16 -128.5z" />
    <glyph glyph-name="uni0425" unicode="&#x425;" horiz-adv-x="1280" 
d="M84 0l510 709v28l-510 707h80l477 -662l475 662h80l-510 -707v-28l510 -709h-80l-475 664l-477 -664h-80z" />
    <glyph glyph-name="uni0426" unicode="&#x426;" horiz-adv-x="1486" 
d="M1290 57q43 0 67.5 -24.5t24.5 -67.5v-225h-71v260h-1145v1444h72v-1387h858v1387h71v-1387h123z" />
    <glyph glyph-name="uni0427" unicode="&#x427;" horiz-adv-x="1366" 
d="M1128 1444h72v-1444h-72v582l-843 -41q-62 -3 -90.5 27t-28.5 94v782h72v-846l890 41v805z" />
    <glyph glyph-name="uni0428" unicode="&#x428;" horiz-adv-x="1873" 
d="M1636 1444h72v-1444h-1542v1444h72v-1387h663v1387h72v-1387h663v1387z" />
    <glyph glyph-name="uni0429" unicode="&#x429;" horiz-adv-x="2027" 
d="M1831 57q43 0 67.5 -24.5t24.5 -67.5v-225h-72v260h-1685v1444h72v-1387h663v1387h72v-1387h663v1387h72v-1387h123z" />
    <glyph glyph-name="uni042A" unicode="&#x42a;" horiz-adv-x="1386" 
d="M748 864q265 0 389.5 -99.5t124.5 -332.5t-124.5 -332.5t-389.5 -99.5h-392v1386h-272v58h344v-580h320zM748 57q108 0 182.5 15t136.5 54.5t92.5 115.5t30.5 190t-30.5 190t-92.5 115.5t-136.5 54.5t-182.5 15h-320v-750h320z" />
    <glyph glyph-name="uni042B" unicode="&#x42b;" horiz-adv-x="1521" 
d="M238 1444v-580h319q265 0 389.5 -99.5t124.5 -332.5t-124.5 -332.5t-389.5 -99.5h-391v1444h72zM1284 1444h72v-1444h-72v1444zM238 57h319q108 0 182.5 15t136.5 54.5t92.5 115.5t30.5 190t-30.5 190t-92.5 115.5t-136.5 54.5t-182.5 15h-319v-750z" />
    <glyph glyph-name="uni042C" unicode="&#x42c;" horiz-adv-x="1196" 
d="M238 1444v-580h319q265 0 389.5 -99.5t124.5 -332.5t-124.5 -332.5t-389.5 -99.5h-391v1444h72zM238 57h319q108 0 182.5 15t136.5 54.5t92.5 115.5t30.5 190t-30.5 190t-92.5 115.5t-136.5 54.5t-182.5 15h-319v-750z" />
    <glyph glyph-name="uni042D" unicode="&#x42d;" horiz-adv-x="1544" 
d="M764 1464q148 0 268.5 -56.5t200.5 -156.5t123 -235t43 -293t-43 -294t-123 -236t-200.5 -156.5t-268.5 -56.5q-261 0 -424 154.5t-195 424.5h72q25 -246 169.5 -384t377.5 -138q131 0 237 51t175.5 140t108 208t42.5 258h-657v58h657q-4 138 -42.5 256.5t-108 207.5
t-175.5 140t-237 51q-233 0 -377.5 -137t-169.5 -383h-72q33 269 196 423t423 154z" />
    <glyph glyph-name="uni042E" unicode="&#x42e;" horiz-adv-x="1796" 
d="M1083 1464q137 0 246.5 -57.5t179 -158t106 -234.5t36.5 -291q0 -158 -36.5 -292t-106 -235t-179 -158.5t-246.5 -57.5q-135 0 -243 55t-177.5 152t-107.5 226t-41 281h-276v-694h-72v1444h72v-692h276q3 151 41 279.5t107.5 225.5t177.5 152t243 55zM1083 37
q101 0 184.5 37t140.5 101t96 152t57 187t18 209q0 138 -29.5 258.5t-87.5 217t-155.5 152.5t-223.5 56t-223.5 -56t-156 -152.5t-88 -217t-29.5 -258.5q0 -110 18 -209t57 -187t96.5 -152t141 -101t184.5 -37z" />
    <glyph glyph-name="uni042F" unicode="&#x42f;" horiz-adv-x="1236" 
d="M1071 1444v-1444h-72v702h-286q-25 0 -123 5l-189 -650q-7 -29 -38.5 -43t-73.5 -14h-205v57h244l190 658h2q-166 24 -251 108.5t-85 251.5q0 107 36 180.5t108 114t164.5 57.5t220.5 17h358zM999 760v626h-272q-86 0 -146.5 -5t-126 -23.5t-106 -51.5t-66.5 -91
t-26 -140q0 -59 13.5 -106.5t35.5 -80t58 -56t73.5 -37.5t88.5 -22t97 -10.5t105 -2.5h272z" />
    <glyph glyph-name="uni0430" unicode="&#x430;" horiz-adv-x="1148" 
d="M125 283q0 120 76.5 195.5t236.5 86.5l434 33q0 174 -95.5 273.5t-246.5 99.5q-50 0 -97 -10t-92 -35t-78 -62t-53 -95t-20 -130h-71q0 70 24.5 137t72 124.5t129 92.5t185.5 35q103 0 183 -37.5t127.5 -101.5t71.5 -143t24 -168v-521h149v-57h-127q-43 0 -60 24.5
t-17 73.5v125l12 96h-29q-97 -339 -436 -339q-70 0 -125.5 21.5t-88 54t-53.5 75t-28.5 80t-7.5 72.5zM197 279q0 -115 62 -178.5t179 -63.5q89 0 163.5 32.5t123.5 85t83 120t49 134.5t15 132l-428 -33q-125 -9 -186 -63.5t-61 -165.5z" />
    <glyph glyph-name="uni0431" unicode="&#x431;" horiz-adv-x="1247" 
d="M145 643q0 276 126 427t413 237q153 44 209.5 79t69.5 93h94q-16 -64 -64 -105.5t-98.5 -61t-187.5 -60.5q-44 -14 -68 -21q-196 -59 -298.5 -174.5t-111.5 -263.5l-28 -76h28q35 134 160.5 222.5t296.5 88.5q146 0 246 -66.5t146 -179.5t46 -266q0 -157 -54.5 -277
t-165.5 -189.5t-267 -69.5q-238 0 -365 168.5t-127 494.5zM217 487q0 -80 27 -158t77.5 -144t133 -107t182.5 -41q201 0 308.5 128.5t107.5 354.5q0 206 -90 328.5t-267 122.5q-215 0 -347 -132t-132 -352z" />
    <glyph glyph-name="uni0432" unicode="&#x432;" horiz-adv-x="1038" 
d="M166 0v1008h299q75 0 132 -6.5t107 -23.5t82.5 -45t51 -72t18.5 -103q0 -54 -16 -95.5t-43.5 -64.5t-57.5 -35t-63 -14v-29q256 -4 256 -256q0 -264 -391 -264h-375zM238 557h227q68 0 113.5 4t87.5 16t66 34t38 59t14 90q0 106 -75.5 148t-243.5 42h-227v-393zM238 57
h303q166 0 242.5 48.5t76.5 164.5q0 129 -78 179.5t-241 50.5h-303v-443z" />
    <glyph glyph-name="uni0433" unicode="&#x433;" horiz-adv-x="839" 
d="M166 0v1008h610v-58h-538v-950h-72z" />
    <glyph glyph-name="uni0434" unicode="&#x434;" horiz-adv-x="1292" 
d="M1147 57v-317h-72v260h-878v-260h-72v317h135q82 198 117 421.5t35 529.5h600v-951h135zM332 57h608v893h-457q-3 -281 -38.5 -492t-112.5 -401z" />
    <glyph glyph-name="uni0435" unicode="&#x435;" horiz-adv-x="1177" 
d="M125 520q0 242 121 375t325 133q203 0 325 -130t122 -361v-35h-821q6 -101 30.5 -182t71.5 -146.5t124 -101t181 -35.5q148 0 244.5 83.5t132.5 229.5h72q-17 -57 -36.5 -102t-56 -97.5t-82 -87.5t-116.5 -59t-158 -24q-100 0 -181 29t-135.5 79t-92 119t-54 147
t-16.5 166zM197 559h749q0 193 -104 302.5t-271 109.5q-162 0 -268 -110t-106 -302z" />
    <glyph glyph-name="uni0436" unicode="&#x436;" horiz-adv-x="1507" 
d="M1262 950l-312 -413q-14 -21 -26 -33l499 -504h-90l-465 471q-16 -4 -26 -4h-54v-467h-71v467h-51q-11 0 -27 4l-465 -471h-90l500 504q-15 15 -27 33l-311 413h-162v58h147q35 0 56.5 -17t50.5 -55l307 -412h72v484h71v-484h74l307 412q19 25 31 38t32 23.5t44 10.5h147
v-58h-161z" />
    <glyph glyph-name="uni0437" unicode="&#x437;" horiz-adv-x="1030" 
d="M145 397h72q0 -184 78.5 -272t239.5 -88q152 0 215 67.5t63 192.5q0 101 -54.5 159t-160.5 58h-139v57h139q195 0 195 193q0 41 -12 75t-40 65.5t-83 49t-132 17.5q-288 0 -288 -271h-72q0 156 90.5 242t269.5 86q162 0 250 -73t88 -183q0 -92 -42 -142t-128 -73v-27
q191 -46 191 -239q0 -146 -91.5 -228.5t-258.5 -82.5q-188 0 -289 102t-101 315z" />
    <glyph glyph-name="uni0438" unicode="&#x438;" horiz-adv-x="1128" 
d="M1004 0h-72v928l8 51h-29l-596 -979h-149v1008h72v-930l-9 -49h29l596 979h150v-1008z" />
    <glyph glyph-name="uni0439" unicode="&#x439;" horiz-adv-x="1128" 
d="M868 1481q0 -320 -286 -320q-289 0 -289 320h72q0 -262 217 -262q215 0 215 262h71zM1004 0h-72v928l8 51h-29l-596 -979h-149v1008h72v-930l-9 -49h29l596 979h150v-1008z" />
    <glyph glyph-name="uni043A" unicode="&#x43a;" horiz-adv-x="968" 
d="M885 0h-90l-465 473q-18 -6 -39 -6h-53v-467h-72v1008h72v-484h71l307 412q19 25 31 38t32.5 23.5t45.5 10.5h145v-58h-163l-308 -413l-18 -25z" />
    <glyph glyph-name="uni043B" unicode="&#x43b;" horiz-adv-x="1132" 
d="M967 1008v-1008h-72v950h-506q0 -432 -17 -589q-26 -242 -115 -317q-52 -44 -132 -44v57q107 0 150 140q39 127 42 465v346h650z" />
    <glyph glyph-name="uni043C" unicode="&#x43c;" horiz-adv-x="1318" 
d="M166 0v1008h149l330 -981h27l332 981h149v-1008h-72v932l9 47h-29l-330 -979h-145l-328 979h-27l7 -47v-932h-72z" />
    <glyph glyph-name="uni043D" unicode="&#x43d;" horiz-adv-x="1099" 
d="M862 1008h72v-1008h-72v475h-624v-475h-72v1008h72v-476h624v476z" />
    <glyph glyph-name="uni043E" unicode="&#x43e;" horiz-adv-x="1269" 
d="M125 504q0 98 33.5 191t95.5 167.5t161 120t220 45.5q120 0 219 -45.5t161.5 -120t96 -167.5t33.5 -191t-33.5 -191t-96 -167.5t-161.5 -120t-219 -45.5q-121 0 -220 45.5t-161 120t-95.5 167.5t-33.5 191zM197 504q0 -69 17.5 -135.5t53.5 -127t87 -105.5t123 -72
t157 -27t157 27t123 72t87 105.5t53.5 127t17.5 135.5q0 86 -28 168t-81 149.5t-138.5 108.5t-190.5 41t-190.5 -41t-138.5 -108.5t-81 -149.5t-28 -168z" />
    <glyph glyph-name="uni043F" unicode="&#x43f;" horiz-adv-x="1046" 
d="M881 1008v-1008h-72v950h-571v-950h-72v1008h715z" />
    <glyph glyph-name="uni0440" unicode="&#x440;" horiz-adv-x="1304" 
d="M166 1008h72v-201l-7 -74h27q45 132 163.5 213.5t278.5 81.5q99 0 187 -37t153 -104t102.5 -166t37.5 -217t-37.5 -217t-102.5 -166t-153 -104t-187 -37q-160 0 -278.5 81.5t-163.5 214.5h-27l7 -75v-555h-72v1362zM244 504q0 -111 39 -202t103 -147.5t142.5 -87
t161.5 -30.5t157 29t133 85t93.5 147t34.5 206q0 116 -34.5 207t-93.5 146.5t-133 84.5t-157 29t-161.5 -30t-142.5 -86.5t-103 -147.5t-39 -203z" />
    <glyph glyph-name="uni0441" unicode="&#x441;" horiz-adv-x="1165" 
d="M125 504q0 80 19 155t58.5 142.5t95.5 117.5t136 79.5t174 29.5q51 0 100.5 -8.5t107.5 -33.5t102 -65.5t78.5 -111t43.5 -162.5h-69q-12 92 -47 158t-86.5 100.5t-107.5 50t-122 15.5q-100 0 -180 -39t-129.5 -105t-75.5 -148.5t-26 -174.5q0 -93 26 -175.5t75.5 -148.5
t129.5 -104.5t180 -38.5q66 0 122 15t107.5 50t86.5 100.5t47 157.5h69q-9 -93 -43.5 -163.5t-78.5 -110.5t-102 -65t-107 -33t-101 -8q-117 0 -211.5 44.5t-152.5 119t-88.5 167t-30.5 193.5z" />
    <glyph glyph-name="uni0442" unicode="&#x442;" horiz-adv-x="1042" 
d="M938 1008v-58h-381v-950h-72v950h-381v58h834z" />
    <glyph glyph-name="uni0443" unicode="&#x443;" horiz-adv-x="1112" 
d="M956 1008h70l-422 -1028v-263q0 -45 -29.5 -70t-91.5 -22l-325 23v57l374 -24v299l-428 1028h70l379 -914v-26h29v26z" />
    <glyph glyph-name="uni0444" unicode="&#x444;" horiz-adv-x="1433" 
d="M1309 504q0 -98 -32.5 -186.5t-97 -163.5t-174 -121.5t-251.5 -52.5v-349h-72v349q-115 4 -209.5 36t-158 82t-107 117t-63 139t-19.5 150t19.5 150t63 139t107 117t158 82t209.5 36v354h72v-354q142 -6 251.5 -52.5t174 -121.5t97 -163.5t32.5 -186.5zM197 504
q0 -88 27 -166t82 -145t151.5 -109t224.5 -47v934q-128 -5 -224.5 -47t-151.5 -109t-82 -145t-27 -166zM754 37q127 6 223 48t151 108.5t82 145t27 165.5t-27 165t-82 145t-151 109t-223 48v-934z" />
    <glyph glyph-name="uni0445" unicode="&#x445;" horiz-adv-x="1079" 
d="M104 0l377 492v26l-377 490h80l357 -457l354 457h80l-377 -490v-26l377 -492h-80l-354 459l-357 -459h-80z" />
    <glyph glyph-name="uni0446" unicode="&#x446;" horiz-adv-x="1193" 
d="M1016 57q44 0 68 -24.5t24 -67.5v-225h-72v260h-870v1008h72v-951h571v951h72v-951h135z" />
    <glyph glyph-name="uni0447" unicode="&#x447;" horiz-adv-x="1181" 
d="M944 1008h72v-1008h-72v369l-659 -41q-63 -4 -91 26t-28 95v559h72v-623l706 41v582z" />
    <glyph glyph-name="uni0448" unicode="&#x448;" horiz-adv-x="1505" 
d="M1268 1008h71v-1008h-1173v1008h72v-951h479v951h71v-951h480v951z" />
    <glyph glyph-name="uni0449" unicode="&#x449;" horiz-adv-x="1652" 
d="M1475 57q44 0 68 -24.5t24 -67.5v-225h-72v260h-1329v1008h72v-951h479v951h71v-951h480v951h71v-951h136z" />
    <glyph glyph-name="uni044A" unicode="&#x44a;" horiz-adv-x="1171" 
d="M647 674q194 0 297 -77.5t103 -258.5q0 -182 -103.5 -260t-296.5 -78h-319v950h-244v58h315v-334h248zM627 57q65 0 111.5 5t94 22.5t76.5 47.5t47.5 82t18.5 124t-18.5 124t-47.5 81.5t-77 46t-94 21.5t-111 5h-228v-559h228z" />
    <glyph glyph-name="uni044B" unicode="&#x44b;" horiz-adv-x="1255" 
d="M485 674q194 0 297 -77.5t103 -258.5q0 -182 -103.5 -260t-296.5 -78h-319v1008h72v-334h247zM1018 0v1008h72v-1008h-72zM238 57h227q65 0 111.5 5t94 22.5t76.5 47.5t47.5 82t18.5 124t-18.5 124t-47.5 81.5t-77 46t-94 21.5t-111 5h-227v-559z" />
    <glyph glyph-name="uni044C" unicode="&#x44c;" horiz-adv-x="1009" 
d="M485 674q194 0 297 -77.5t103 -258.5q0 -182 -103.5 -260t-296.5 -78h-319v1008h72v-334h247zM238 57h227q65 0 111.5 5t94 22.5t76.5 47.5t47.5 82t18.5 124t-18.5 124t-47.5 81.5t-77 46t-94 21.5t-111 5h-227v-559z" />
    <glyph glyph-name="uni044D" unicode="&#x44d;" horiz-adv-x="1165" 
d="M557 1028q94 0 174 -29.5t136 -79.5t95.5 -117.5t58.5 -142.5t19 -155q0 -101 -30.5 -193.5t-88.5 -167t-152.5 -119t-211.5 -44.5q-52 0 -101 8t-107 33t-102 65t-78.5 110.5t-43.5 163.5h70q42 -323 362 -323q97 0 175 36t127.5 97.5t77.5 140t32 166.5h-525v58h525
q-5 87 -33 164t-78 138.5t-127.5 97.5t-173.5 36q-52 0 -97.5 -9t-91 -31.5t-79.5 -58.5t-59 -93.5t-35 -131.5h-70q9 92 43.5 162.5t78.5 111t102 65.5t107.5 33.5t100.5 8.5z" />
    <glyph glyph-name="uni044E" unicode="&#x44e;" horiz-adv-x="1603" 
d="M1004 1028q115 0 207.5 -43.5t149.5 -117t87.5 -166.5t30.5 -197q0 -105 -30.5 -198t-87.5 -166.5t-149.5 -116.5t-207.5 -43q-112 0 -202 40t-148 109.5t-90 157.5t-36 188h-290v-475h-72v1008h72v-476h290q5 100 37 188.5t89.5 157.5t148 109.5t201.5 40.5zM1004 37
q100 0 179 39t126.5 105.5t72.5 148.5t25 174t-25 174t-72.5 148.5t-126.5 105.5t-179 39q-81 0 -148.5 -26t-114.5 -70t-79 -104t-47 -127t-15 -140t15 -140t47 -127t79 -104t114.5 -70t148.5 -26z" />
    <glyph glyph-name="uni044F" unicode="&#x44f;" horiz-adv-x="919" 
d="M754 1008v-1008h-72v465h-152l-206 -404q-12 -28 -42.5 -44.5t-68.5 -16.5h-150v57h187l209 410q-157 10 -226 75t-69 195q0 143 84.5 207t279.5 64h226zM682 522v428h-199q-127 0 -187 -50t-60 -163q0 -114 60 -164.5t187 -50.5h199z" />
    <glyph glyph-name="uni0450" unicode="&#x450;" horiz-adv-x="1177" 
d="M862 1280l-18 -61l-529 145l19 61zM125 520q0 242 121 375t325 133q203 0 325 -130t122 -361v-35h-821q6 -101 30.5 -182t71.5 -146.5t124 -101t181 -35.5q148 0 244.5 83.5t132.5 229.5h72q-17 -57 -36.5 -102t-56 -97.5t-82 -87.5t-116.5 -59t-158 -24q-100 0 -181 29
t-135.5 79t-92 119t-54 147t-16.5 166zM197 559h749q0 193 -104 302.5t-271 109.5q-162 0 -268 -110t-106 -302z" />
    <glyph glyph-name="uni0451" unicode="&#x451;" horiz-adv-x="1177" 
d="M412 1268q-42 0 -70.5 29t-28.5 69t28.5 69t70.5 29t70 -29t28 -69t-28 -69t-70 -29zM766 1268q-42 0 -70 29t-28 69t28 69t70 29t70 -29t28 -69t-28 -69t-70 -29zM125 520q0 242 121 375t325 133q203 0 325 -130t122 -361v-35h-821q6 -101 30.5 -182t71.5 -146.5
t124 -101t181 -35.5q148 0 244.5 83.5t132.5 229.5h72q-17 -57 -36.5 -102t-56 -97.5t-82 -87.5t-116.5 -59t-158 -24q-100 0 -181 29t-135.5 79t-92 119t-54 147t-16.5 166zM197 559h749q0 193 -104 302.5t-271 109.5q-162 0 -268 -110t-106 -302z" />
    <glyph glyph-name="uni0452" unicode="&#x452;" horiz-adv-x="1196" 
d="M715 1028q160 0 248 -97.5t88 -277.5v-942q0 -45 -29.5 -71t-89.5 -23l-326 23v57l373 -23v981q0 164 -71.5 240t-213.5 76q-124 0 -218 -70.5t-141.5 -183t-47.5 -246.5v-471h-72v1311h-96v57h96v137h72v-137h311v-57h-311v-510l-8 -76h28q34 141 140.5 222t267.5 81z
" />
    <glyph glyph-name="uni0453" unicode="&#x453;" horiz-adv-x="835" 
d="M174 1280l528 145l19 -61l-528 -145zM162 0v1008h610v-58h-539v-950h-71z" />
    <glyph glyph-name="uni0454" unicode="&#x454;" horiz-adv-x="1165" 
d="M608 37q66 0 122 15t107.5 50t86.5 100.5t47 157.5h69q-9 -93 -43.5 -163.5t-78.5 -110.5t-102 -65t-107 -33t-101 -8q-117 0 -211.5 44.5t-152.5 119t-88.5 167t-30.5 193.5q0 80 19 155t58.5 142.5t95.5 117.5t136 79.5t174 29.5q51 0 100.5 -8.5t107.5 -33.5
t102 -65.5t78.5 -111t43.5 -162.5h-69q-12 92 -47 158t-86.5 100.5t-107.5 50t-122 15.5q-96 0 -173.5 -36t-127 -97.5t-77.5 -138.5t-33 -164h524v-58h-524q4 -88 31.5 -166.5t77.5 -140t127.5 -97.5t174.5 -36z" />
    <glyph glyph-name="uni0455" unicode="&#x455;" horiz-adv-x="958" 
d="M874 242q0 -262 -352 -262q-418 0 -418 395h72q0 -172 88.5 -255t253.5 -83q134 0 209.5 49.5t75.5 149.5q0 48 -20.5 86.5t-41 61t-75.5 46.5t-78.5 32t-94.5 28q-27 8 -40 12q-156 48 -228.5 111t-72.5 175q0 110 86 175t237 65q85 0 151 -19.5t105.5 -50.5t64.5 -74.5
t34.5 -86t9.5 -90.5h-72q0 264 -293 264q-108 0 -180 -46t-72 -134q0 -78 48 -128.5t167 -89.5q22 -7 67 -21t69.5 -22.5t65 -23t64 -27t54.5 -31t48.5 -38.5t35 -45.5t25 -56t7.5 -66.5z" />
    <glyph glyph-name="uni0456" unicode="&#x456;" horiz-adv-x="837" 
d="M414 1268q-42 0 -70.5 29t-28.5 69t28.5 69t70.5 29t70 -29t28 -69t-28 -69t-70 -29zM125 0v57h281v916l-185 -23v58l172 20q44 5 62 -9t18 -56v-906h281v-57h-629z" />
    <glyph glyph-name="uni0457" unicode="&#x457;" horiz-adv-x="825" 
d="M164 1268q-42 0 -70 29t-28 69t28 69t70 29t70 -29t28 -69t-28 -69t-70 -29zM518 1268q-42 0 -70 29t-28 69t28 69t70 29t70 -29t28 -69t-28 -69t-70 -29zM113 0v57h288v916l-192 -23v58l137 20q61 7 85 -23.5t24 -97.5v-850h286v-57h-628z" />
    <glyph glyph-name="uni0458" unicode="&#x458;" horiz-adv-x="503" 
d="M262 1268q-42 0 -70 29t-28 69t28 69t70 29t70 -29t28 -69t-28 -69t-70 -29zM63 -354l164 301q35 64 35 139v887l-192 -23v58l168 22q92 12 92 -78v-891q0 -78 -35 -139l-158 -276h-74z" />
    <glyph glyph-name="uni0459" unicode="&#x459;" horiz-adv-x="1738" 
d="M1214 674q194 0 297 -77.5t103 -258.5q0 -182 -103.5 -260t-296.5 -78h-319v950h-506q0 -432 -17 -589q-26 -242 -115 -317q-52 -44 -132 -44v57q107 0 150 140q39 127 42 465v346h650v-334h247zM1194 57q65 0 111.5 5t94 22.5t76.5 47.5t47.5 82t18.5 124t-18.5 124
t-47.5 81.5t-77 46t-94 21.5t-111 5h-227v-559h227z" />
    <glyph glyph-name="uni045A" unicode="&#x45a;" horiz-adv-x="1705" 
d="M1182 674q193 0 296 -77.5t103 -258.5q0 -182 -103 -260t-296 -78h-320v475h-624v-475h-72v1008h72v-476h624v476h72v-334h248zM1161 57q65 0 111.5 5t94 22.5t76.5 47.5t47.5 82t18.5 124t-18.5 124t-47.5 81.5t-77 46t-94 21.5t-111 5h-227v-559h227z" />
    <glyph glyph-name="uni045B" unicode="&#x45b;" horiz-adv-x="1204" 
d="M721 1028q160 0 248 -97.5t88 -277.5v-653h-72v655q0 164 -71.5 240t-213.5 76q-124 0 -218 -70.5t-141.5 -183t-47.5 -246.5v-471h-72v1311h-96v57h96v137h72v-137h311v-57h-311v-510l-8 -76h28q34 141 140.5 222t267.5 81z" />
    <glyph glyph-name="uni045C" unicode="&#x45c;" horiz-adv-x="968" 
d="M739 1364l-528 -145l-18 61l528 145zM885 0h-90l-465 473q-18 -6 -39 -6h-53v-467h-72v1008h72v-484h71l307 412q19 25 31 38t32.5 23.5t45.5 10.5h145v-58h-163l-308 -413l-18 -25z" />
    <glyph glyph-name="uni045F" unicode="&#x45f;" horiz-adv-x="1101" 
d="M864 1014h72v-1014h-348v-260h-72v260h-350v1014h72v-957h626v957z" />
    <glyph glyph-name="uni0490" unicode="&#x490;" horiz-adv-x="1011" 
d="M874 1614h72v-228h-708v-1386h-72v1444h708v170z" />
    <glyph glyph-name="uni0491" unicode="&#x491;" horiz-adv-x="839" 
d="M705 1298h71v-348h-538v-950h-72v1008h539v290z" />
    <glyph glyph-name="Wgrave" unicode="&#x1e80;" horiz-adv-x="1884" 
d="M1214 1716l-18 -61l-528 145l18 62zM84 1444h66l333 -1417h29l356 1417h148l356 -1417h29l334 1417h65l-340 -1444h-147l-357 1417h-28l-357 -1417h-147z" />
    <glyph glyph-name="wgrave" unicode="&#x1e81;" horiz-adv-x="1652" 
d="M1098 1280l-19 -61l-528 145l18 61zM63 1008h68l313 -981h29l285 981h137l285 -981h26l314 981h67l-321 -1008h-146l-280 979h-27l-281 -979h-147z" />
    <glyph glyph-name="Wacute" unicode="&#x1e82;" horiz-adv-x="1884" 
d="M676 1716l528 146l19 -62l-529 -145zM84 1444h66l333 -1417h29l356 1417h148l356 -1417h29l334 1417h65l-340 -1444h-147l-357 1417h-28l-357 -1417h-147z" />
    <glyph glyph-name="wacute" unicode="&#x1e83;" horiz-adv-x="1652" 
d="M559 1280l528 145l19 -61l-528 -145zM63 1008h68l313 -981h29l285 981h137l285 -981h26l314 981h67l-321 -1008h-146l-280 979h-27l-281 -979h-147z" />
    <glyph glyph-name="Wdieresis" unicode="&#x1e84;" horiz-adv-x="1884" 
d="M764 1704q-42 0 -70 29t-28 69q0 41 28 70t70 29t70 -29t28 -70q0 -40 -28 -69t-70 -29zM1118 1704q-42 0 -70 29t-28 69q0 41 28 70t70 29t70.5 -29.5t28.5 -69.5t-28.5 -69t-70.5 -29zM84 1444h66l333 -1417h29l356 1417h148l356 -1417h29l334 1417h65l-340 -1444h-147
l-357 1417h-28l-357 -1417h-147z" />
    <glyph glyph-name="wdieresis" unicode="&#x1e85;" horiz-adv-x="1652" 
d="M647 1268q-42 0 -70 29t-28 69t28 69t70 29t70 -29t28 -69t-28 -69t-70 -29zM1001 1268q-42 0 -70 29t-28 69t28 69t70 29t70.5 -29t28.5 -69t-28.5 -69t-70.5 -29zM63 1008h68l313 -981h29l285 981h137l285 -981h26l314 981h67l-321 -1008h-146l-280 979h-27l-281 -979
h-147z" />
    <glyph glyph-name="uni1E9E" unicode="&#x1e9e;" horiz-adv-x="1165" 
d="M352 0v57l363 -20q133 -8 203.5 85t70.5 292q0 74 -14.5 131t-38 92.5t-58.5 57.5t-70 31t-80 9t-81 -5t-78 -15l-51 127l277 317q0 248 -246 248q-162 0 -236.5 -76.5t-74.5 -261.5v-1069h-72v1079q0 90 19.5 158t53 110.5t83.5 69t104.5 37t122.5 10.5
q80 0 140.5 -22.5t93 -55.5t52.5 -79t25.5 -83.5t5.5 -78.5l-291 -334l7 -29q78 13 149 13.5t131 -24.5t104.5 -69t69.5 -121t25 -180q0 -101 -21 -178.5t-54 -123.5t-79.5 -74.5t-93 -38t-98.5 -6.5z" />
    <glyph glyph-name="Ygrave" unicode="&#x1ef2;" horiz-adv-x="1269" 
d="M907 1716l-18 -61l-529 145l19 62zM1112 1444h74l-514 -862v-582h-72v582l-516 862h74l465 -776v-76h26v76z" />
    <glyph glyph-name="ygrave" unicode="&#x1ef3;" horiz-adv-x="1112" 
d="M840 1280l-19 -61l-528 145l18 61zM956 1008h70l-422 -1028v-263q0 -45 -29.5 -70t-91.5 -22l-325 23v57l374 -24v299l-428 1028h70l379 -914v-26h29v26z" />
    <glyph glyph-name="endash" unicode="&#x2013;" horiz-adv-x="1675" 
d="M186 522h1303v-57h-1303v57z" />
    <glyph glyph-name="emdash" unicode="&#x2014;" horiz-adv-x="2084" 
d="M186 522h1712v-57h-1712v57z" />
    <glyph glyph-name="quoteleft" unicode="&#x2018;" horiz-adv-x="581" 
d="M281 1489l114 -424l-69 -18l-115 423z" />
    <glyph glyph-name="quoteright" unicode="&#x2019;" horiz-adv-x="581" 
d="M301 1489l70 -19l-115 -423l-70 18z" />
    <glyph glyph-name="quotesinglbase" unicode="&#x201a;" horiz-adv-x="604" 
d="M356 301l62 -16l-170 -502l-62 14z" />
    <glyph glyph-name="quotedblleft" unicode="&#x201c;" horiz-adv-x="798" 
d="M281 1489l114 -424l-69 -18l-115 423zM498 1489l114 -424l-69 -18l-115 423z" />
    <glyph glyph-name="quotedblright" unicode="&#x201d;" horiz-adv-x="798" 
d="M301 1489l70 -19l-115 -423l-70 18zM518 1489l70 -19l-115 -423l-70 18z" />
    <glyph glyph-name="quotedblbase" unicode="&#x201e;" horiz-adv-x="823" 
d="M356 301l62 -16l-170 -502l-62 14zM575 301l62 -16l-170 -502l-61 14z" />
    <glyph glyph-name="dagger" unicode="&#x2020;" horiz-adv-x="1112" 
d="M924 1311v-58h-332v-944h-72v944h-334v58h334v436h72v-436h332z" />
    <glyph glyph-name="daggerdbl" unicode="&#x2021;" horiz-adv-x="1112" 
d="M924 1253h-332v-450h332v-58h-332v-436h-72v436h-334v58h334v450h-334v58h334v436h72v-436h332v-58z" />
    <glyph glyph-name="bullet" unicode="&#x2022;" horiz-adv-x="1171" 
d="M586 227q-124 0 -205.5 84t-81.5 203t81.5 204t205.5 85t206 -85t82 -204t-82 -203t-206 -84z" />
    <glyph glyph-name="ellipsis" unicode="&#x2026;" horiz-adv-x="1554" 
d="M324 -20q-42 0 -70.5 29t-28.5 69t28.5 69t70.5 29t70 -29t28 -69t-28 -69t-70 -29zM778 -20q-42 0 -70 29t-28 69t28 69t70 29t70.5 -29t28.5 -69t-28.5 -69t-70.5 -29zM1231 -20q-42 0 -70 29t-28 69t28 69t70 29t70 -29t28 -69t-28 -69t-70 -29z" />
    <glyph glyph-name="perthousand" unicode="&#x2030;" horiz-adv-x="3284" 
d="M1409 1673l64 -18l-588 -1872l-64 18zM580 739q-174 0 -284 114t-110 280t110 279.5t284 113.5t283.5 -113.5t109.5 -279.5t-109.5 -280t-283.5 -114zM580 797q141 0 232 96.5t91 239.5t-91 239t-232 96q-140 0 -231 -96.5t-91 -238.5t91 -239t231 -97zM1737 20
q-174 0 -284 114t-110 280t110 279.5t284 113.5t283.5 -113.5t109.5 -279.5t-109.5 -280t-283.5 -114zM2705 20q-174 0 -283.5 114t-109.5 280t109.5 279.5t283.5 113.5t284 -113.5t110 -279.5t-110 -280t-284 -114zM1737 78q141 0 232 96.5t91 239.5t-91 239.5t-232 96.5
q-140 0 -231 -97t-91 -239t91 -239t231 -97zM2705 78q141 0 232.5 96.5t91.5 239.5t-91.5 239.5t-232.5 96.5q-140 0 -230.5 -96.5t-90.5 -239.5t90.5 -239.5t230.5 -96.5z" />
    <glyph glyph-name="guilsinglleft" unicode="&#x2039;" horiz-adv-x="956" 
d="M770 47l-47 -45l-537 506l537 504l47 -45l-489 -459z" />
    <glyph glyph-name="guilsinglright" unicode="&#x203a;" horiz-adv-x="956" 
d="M186 47l490 461l-490 459l47 45l537 -504l-537 -506z" />
    <glyph glyph-name="fraction" unicode="&#x2044;" horiz-adv-x="696" 
d="M610 1667l64 -18l-588 -1872l-63 18z" />
    <glyph glyph-name="Euro" unicode="&#x20ac;" horiz-adv-x="1595" 
d="M911 37q176 0 291 111.5t139 285.5h68q-35 -207 -162.5 -330.5t-335.5 -123.5q-123 0 -220.5 45t-162.5 127.5t-103.5 192.5t-51.5 245h-187v57h183q-2 25 -2 76q0 49 2 74h-183v57h187q13 135 51.5 245t103.5 192.5t162.5 127.5t220.5 45q208 0 335.5 -123t162.5 -329
h-70q-22 174 -136.5 284.5t-291.5 110.5q-113 0 -199.5 -43t-141 -120.5t-85 -174t-41.5 -215.5h510v-57h-514q-2 -25 -2 -74q0 -51 2 -76h514v-57h-510q11 -118 42 -215t85.5 -174.5t141 -120.5t198.5 -43z" />
    <glyph glyph-name="trademark" unicode="&#x2122;" horiz-adv-x="1714" 
d="M709 1444v-58h-224v-626h-71v626h-228v58h523zM1389 1444h139v-684h-72v641l-2 16h-8l-205 -657h-131l-209 657h-4l-6 -16v-641h-72v684h144l204 -658h13z" />
    <glyph glyph-name="oneeighth" unicode="&#x215b;" horiz-adv-x="1849" 
d="M1108 1667l63 -18l-587 -1872l-64 18zM109 1065q202 82 202 338h170v-809h-71v729l2 53h-29q-15 -152 -72 -238t-178 -137zM1057 223q0 89 54 151t149 75v18q-71 9 -113.5 56t-42.5 114q0 89 84 140.5t213 51.5q128 0 211.5 -52t83.5 -140q0 -67 -42 -114t-112 -56v-18
q95 -13 149 -75t54 -151q0 -107 -90.5 -175t-253.5 -68t-253.5 68t-90.5 175zM1176 625q0 -70 53.5 -104t171.5 -34q119 0 171 33.5t52 104.5q0 147 -223 147q-225 0 -225 -147zM1128 240q0 -40 12 -73t40.5 -64t84.5 -48.5t136 -17.5q79 0 135 17.5t84.5 48.5t40.5 64
t12 73q0 32 -12 62.5t-40 60.5t-85 48.5t-135 18.5q-79 0 -136 -18.5t-85 -48.5t-40 -60.5t-12 -62.5z" />
    <glyph glyph-name="threeeighths" unicode="&#x215c;" horiz-adv-x="2136" 
d="M1348 1667l63 -18l-588 -1872l-63 18zM104 909h72q0 -143 71.5 -206.5t205.5 -63.5q116 0 180.5 49t64.5 139q0 48 -22 85t-55.5 56.5t-66 28.5t-60.5 9h-103v57h103q23 0 46 3t50.5 12.5t48.5 24.5t35 42t14 63q0 78 -60.5 122t-174.5 44q-128 0 -197.5 -57.5
t-69.5 -165.5h-71q0 138 89.5 209.5t248.5 71.5q139 0 222 -60t83 -160q0 -145 -170 -174v-12q82 -16 131 -67.5t49 -137.5q0 -114 -86 -176.5t-229 -62.5q-77 0 -138.5 17.5t-110 55t-74.5 102t-26 152.5zM1343 223q0 89 54 151t149 75v18q-71 9 -113 56t-42 114
q0 89 84 140.5t213 51.5q128 0 211 -51.5t83 -140.5q0 -67 -41.5 -114t-111.5 -56v-18q95 -13 149 -75t54 -151q0 -107 -90.5 -175t-253.5 -68t-254 68t-91 175zM1462 625q0 -70 54 -104t172 -34q119 0 171 33.5t52 104.5q0 147 -223 147q-226 0 -226 -147zM1415 240
q0 -40 12 -73t40.5 -64t84.5 -48.5t136 -17.5q79 0 135 17.5t84.5 48.5t40.5 64t12 73q0 32 -12 62.5t-40 60.5t-85 48.5t-135 18.5q-79 0 -136 -18.5t-85 -48.5t-40 -60.5t-12 -62.5z" />
    <glyph glyph-name="fiveeighths" unicode="&#x215d;" horiz-adv-x="2144" 
d="M1354 1667l63 -18l-588 -1872l-63 18zM104 885h72q0 -125 75 -185.5t212 -60.5q272 0 272 252q0 106 -58 164.5t-159 58.5q-167 0 -239 -113l-101 68v332h535v-58h-463v-204l-6 -49l14 -9q103 90 260 90q123 0 206 -72t83 -208q0 -148 -91.5 -228.5t-256.5 -80.5
q-169 0 -262 81t-93 222zM1350 223q0 89 53.5 151t148.5 75v18q-71 9 -113 56t-42 114q0 89 84 140.5t213 51.5q128 0 211.5 -52t83.5 -140q0 -67 -42 -114t-112 -56v-18q95 -13 149 -75t54 -151q0 -107 -90.5 -175t-253.5 -68t-253.5 68t-90.5 175zM1468 625q0 -70 54 -104
t172 -34q119 0 171 33.5t52 104.5q0 147 -223 147q-226 0 -226 -147zM1421 240q0 -40 12 -73t40.5 -64t84.5 -48.5t136 -17.5q79 0 135 17.5t84.5 48.5t40.5 64t12 73q0 32 -12 62.5t-40 60.5t-85 48.5t-135 18.5q-79 0 -136 -18.5t-85 -48.5t-40 -60.5t-12 -62.5z" />
    <glyph glyph-name="seveneighths" unicode="&#x215e;" horiz-adv-x="2009" 
d="M1167 1667l64 -18l-588 -1872l-63 18zM240 594q0 256 98 431.5t305 303.5v17h-539v57h566v-129q-167 -94 -263 -271.5t-96 -408.5h-71zM1217 223q0 89 53.5 151t148.5 75v18q-71 9 -113 56t-42 114q0 89 84 140.5t213 51.5q128 0 211 -51.5t83 -140.5q0 -67 -41.5 -114
t-111.5 -56v-18q95 -13 149 -75t54 -151q0 -107 -90.5 -175t-253.5 -68t-253.5 68t-90.5 175zM1335 625q0 -70 54 -104t172 -34q119 0 171 33.5t52 104.5q0 147 -223 147q-226 0 -226 -147zM1288 240q0 -40 12 -73t40.5 -64t84.5 -48.5t136 -17.5q79 0 135 17.5t84.5 48.5
t40.5 64t12 73q0 32 -12 62.5t-40 60.5t-85 48.5t-135 18.5q-79 0 -136 -18.5t-85 -48.5t-40 -60.5t-12 -62.5z" />
    <glyph glyph-name="arrowleft" unicode="&#x2190;" horiz-adv-x="1372" 
d="M1186 539v-58h-877l461 -434l-47 -45l-537 506l537 504l47 -45l-457 -428h873z" />
    <glyph glyph-name="arrowup" unicode="&#x2191;" horiz-adv-x="1400" 
d="M1206 481l-45 -47l-434 461v-877h-57v873l-428 -457l-45 47l503 537z" />
    <glyph glyph-name="arrowright" unicode="&#x2192;" horiz-adv-x="1372" 
d="M649 1012l537 -504l-537 -506l-47 45l461 434h-877v58h873l-457 428z" />
    <glyph glyph-name="arrowdown" unicode="&#x2193;" horiz-adv-x="1400" 
d="M1161 604l45 -47l-506 -537l-503 537l45 47l428 -457v873h57v-877z" />
    <glyph glyph-name="arrowboth" unicode="&#x2194;" horiz-adv-x="2074" 
d="M1352 1169l536 -503l-536 -506l-47 45l460 434h-876v57h872l-456 428zM770 809l-457 -428h873v-57h-877l461 -435l-47 -45l-537 506l537 504z" />
    <glyph glyph-name="arrowupdn" unicode="&#x2195;" horiz-adv-x="1660" 
d="M649 348v873l-428 -457l-45 47l504 537l506 -537l-45 -47l-434 461v-877h-58zM1440 221l45 -47l-506 -536l-504 536l45 47l428 -457v873h58v-877z" />
    <glyph glyph-name="uni2196" unicode="&#x2196;" horiz-adv-x="1103" 
d="M926 762l-625 18l614 -614l-38 -41l-621 618l18 -632l-65 2l-21 737l736 -23z" />
    <glyph glyph-name="uni2197" unicode="&#x2197;" horiz-adv-x="1103" 
d="M180 827l735 23l-20 -737l-66 -2l19 632l-621 -618l-39 41l615 614l-625 -18z" />
    <glyph glyph-name="uni2198" unicode="&#x2198;" horiz-adv-x="1103" 
d="M895 874l20 -737l-735 23l-2 65l625 -18l-615 614l39 41l621 -618l-19 633z" />
    <glyph glyph-name="uni2199" unicode="&#x2199;" horiz-adv-x="1103" 
d="M301 207l625 18l-2 -65l-736 -23l21 737l65 3l-18 -633l621 618l38 -41z" />
    <glyph glyph-name="partialdiff" unicode="&#x2202;" horiz-adv-x="1392" 
d="M1217 653q0 -312 -145.5 -492.5t-385.5 -180.5q-164 0 -278 70t-168 189t-54 277q0 225 144 368.5t372 143.5q155 0 274.5 -88.5t158.5 -241.5h26l-16 56q-15 128 -85.5 242.5t-178.5 199t-245 142.5t-288 81v58q180 -23 338.5 -92.5t276.5 -174.5t186 -249.5t68 -307.5z
M1135 516q0 198 -120.5 326.5t-312.5 128.5q-201 0 -322.5 -128.5t-121.5 -326.5q0 -225 114 -352t314 -127q131 0 235.5 70.5t159 179t54.5 229.5z" />
    <glyph glyph-name="emptyset" unicode="&#x2205;" horiz-adv-x="2000" 
d="M1442 1270q175 -107 274 -291.5t99 -403.5q0 -167 -59.5 -316t-164.5 -259t-258 -174t-332 -64q-211 0 -385 88l-131 -227l-57 33l131 225q-175 107 -274 291t-99 403q0 224 101 409t288.5 295t425.5 110q209 0 383 -86l132 225l57 -33zM258 575q0 -194 89 -363.5
t245 -272.5l760 1306q-159 86 -351 86q-161 0 -301 -62t-236 -165.5t-151 -241.5t-55 -287zM1001 -180q107 0 206.5 28t180.5 78.5t148 121t112 153.5t70 179t25 195q0 195 -89 364.5t-245 272.5l-760 -1306q159 -86 352 -86z" />
    <glyph glyph-name="product" unicode="&#x220f;" horiz-adv-x="1484" 
d="M1298 1444v-58h-266v-1755h-71v1755h-435v-1755h-71v1755h-269v58h1112z" />
    <glyph glyph-name="summation" unicode="&#x2211;" horiz-adv-x="1150" 
d="M186 -369v62l631 831v29l-631 831v60h779v-58h-605l-75 9v-29l600 -795v-65l-600 -797v-26l75 6h605v-58h-779z" />
    <glyph glyph-name="minus" unicode="&#x2212;" horiz-adv-x="1271" 
d="M186 522h899v-57h-899v57z" />
    <glyph glyph-name="radical" unicode="&#x221a;" horiz-adv-x="1607" 
d="M954 1364q20 80 101 80h366v-58h-397l-426 -1755h-143l-269 789h66l260 -762h29z" />
    <glyph glyph-name="infinity" unicode="&#x221e;" horiz-adv-x="2004" 
d="M186 614q0 145 101 236.5t262 91.5q248 0 452 -260q204 260 453 260q161 0 262 -91.5t101 -236.5t-101 -236t-262 -91q-249 0 -453 260q-204 -260 -452 -260q-161 0 -262 91t-101 236zM258 614q0 -128 82 -199t209 -71q213 0 422 270q-209 271 -422 271
q-126 0 -208.5 -71.5t-82.5 -199.5zM1034 614q209 -270 420 -270q127 0 209 71t82 199t-82.5 199.5t-208.5 71.5q-211 0 -420 -271z" />
    <glyph glyph-name="integral" unicode="&#x222b;" horiz-adv-x="1329" 
d="M186 -369v58h275l311 1671q16 84 98 84h273v-58h-301l-312 -1671q-16 -84 -98 -84h-246z" />
    <glyph glyph-name="approxequal" unicode="&#x2248;" horiz-adv-x="1280" 
d="M186 602q0 50 15 88.5t37.5 60.5t53 35.5t56 18t51.5 4.5q65 0 136 -28t121.5 -61t113 -61t113.5 -28q59 0 99 33.5t40 117.5h72q0 -50 -15 -89t-37.5 -61t-52.5 -36t-55.5 -18.5t-50.5 -4.5q-66 0 -137 28t-121.5 61.5t-112.5 61.5t-113 28q-141 0 -141 -150h-72z
M186 219q0 50 15 88.5t37.5 60.5t53 35.5t56 18t51.5 4.5q65 0 136 -28t121.5 -61t113 -61t113.5 -28q59 0 99 33.5t40 117.5h72q0 -50 -15 -89t-37.5 -61t-52.5 -36t-55.5 -18.5t-50.5 -4.5q-66 0 -137 28t-121.5 61.5t-112.5 61.5t-113 28q-141 0 -141 -150h-72z" />
    <glyph glyph-name="notequal" unicode="&#x2260;" horiz-adv-x="1271" 
d="M1085 664h-309l-203 -340h512v-58h-546l-170 -284l-60 28l154 256h-277v58h310l204 340h-514v57h547l170 283l60 -29l-152 -254h274v-57z" />
    <glyph glyph-name="lessequal" unicode="&#x2264;" horiz-adv-x="1267" 
d="M186 575v78l869 291l26 -57l-813 -273l813 -274l-26 -57zM1081 147v-57h-899v57h899z" />
    <glyph glyph-name="greaterequal" unicode="&#x2265;" horiz-adv-x="1267" 
d="M1081 575l-868 -292l-27 57l813 274l-813 273l27 57l868 -291v-78zM186 147h899v-57h-899v57z" />
    <glyph glyph-name="uni2460" unicode="&#x2460;" 
d="M991 -242q-184 0 -342.5 66.5t-268.5 180t-172.5 268.5t-62.5 329t62.5 329.5t172.5 269.5t268.5 180.5t342.5 66.5t342.5 -66.5t268.5 -180.5t172.5 -269.5t62.5 -329.5t-62.5 -329t-172.5 -268.5t-268.5 -180t-342.5 -66.5zM991 -170q166 0 311.5 62t246 167
t158.5 246.5t58 296.5q0 209 -98 385.5t-276.5 282.5t-399.5 106t-399.5 -106t-276.5 -282.5t-98 -385.5q0 -155 58 -296.5t158.5 -246.5t246 -167t311.5 -62zM725 672q203 83 203 338h170v-809h-72v729l2 53h-29q-15 -152 -71.5 -238t-177.5 -137z" />
    <glyph glyph-name="uni2461" unicode="&#x2461;" 
d="M991 -242q-184 0 -342.5 66.5t-268.5 180t-172.5 268.5t-62.5 329t62.5 329.5t172.5 269.5t268.5 180.5t342.5 66.5t342.5 -66.5t268.5 -180.5t172.5 -269.5t62.5 -329.5t-62.5 -329t-172.5 -268.5t-268.5 -180t-342.5 -66.5zM991 -170q166 0 311.5 62t246 167
t158.5 246.5t58 296.5q0 209 -98 385.5t-276.5 282.5t-399.5 106t-399.5 -106t-276.5 -282.5t-98 -385.5q0 -155 58 -296.5t158.5 -246.5t246 -167t311.5 -62zM657 604q0 98 23 173.5t59.5 122t87 76t101 41t106.5 11.5q129 0 212 -68t83 -202q0 -78 -32 -147t-87.5 -122.5
t-133.5 -98t-166.5 -75.5t-190.5 -53v-12l35 6h559v-57h-621v116q45 6 100.5 21.5t120.5 41t125 63t109.5 82.5t79.5 106.5t30 128.5q0 104 -58.5 158.5t-164.5 54.5q-134 0 -219.5 -92t-85.5 -275h-72z" />
    <glyph glyph-name="uni2462" unicode="&#x2462;" 
d="M991 -242q-184 0 -342.5 66.5t-268.5 180t-172.5 268.5t-62.5 329t62.5 329.5t172.5 269.5t268.5 180.5t342.5 66.5t342.5 -66.5t268.5 -180.5t172.5 -269.5t62.5 -329.5t-62.5 -329t-172.5 -268.5t-268.5 -180t-342.5 -66.5zM991 -170q166 0 311.5 62t246 167
t158.5 246.5t58 296.5q0 209 -98 385.5t-276.5 282.5t-399.5 106t-399.5 -106t-276.5 -282.5t-98 -385.5q0 -155 58 -296.5t158.5 -246.5t246 -167t311.5 -62zM659 506h72q0 -143 71.5 -206.5t205.5 -63.5q116 0 180.5 49t64.5 139q0 39 -15 71t-37.5 51t-51 32.5
t-53.5 18.5t-47 5h-103v57h103q30 0 59 5.5t62 20t53 45.5t20 75q0 78 -60.5 122t-174.5 44q-128 0 -197.5 -57.5t-69.5 -165.5h-71q0 138 89.5 209t248.5 71q139 0 222 -59.5t83 -159.5q0 -145 -170 -174v-12q82 -16 131 -67.5t49 -137.5q0 -114 -86 -177t-229 -63
q-77 0 -139 17.5t-110 55t-74 102.5t-26 153z" />
    <glyph glyph-name="uni2463" unicode="&#x2463;" 
d="M991 -242q-184 0 -342.5 66.5t-268.5 180t-172.5 268.5t-62.5 329t62.5 329.5t172.5 269.5t268.5 180.5t342.5 66.5t342.5 -66.5t268.5 -180.5t172.5 -269.5t62.5 -329.5t-62.5 -329t-172.5 -268.5t-268.5 -180t-342.5 -66.5zM991 -170q166 0 311.5 62t246 167
t158.5 246.5t58 296.5q0 209 -98 385.5t-276.5 282.5t-399.5 106t-399.5 -106t-276.5 -282.5t-98 -385.5q0 -155 58 -296.5t158.5 -246.5t246 -167t311.5 -62zM664 428v111q317 171 364 483h72q-43 -333 -395 -526v-13l34 2h367v346h72v-346h125v-57h-125v-215h-72v215h-442
z" />
    <glyph glyph-name="uni2464" unicode="&#x2464;" 
d="M991 -242q-184 0 -342.5 66.5t-268.5 180t-172.5 268.5t-62.5 329t62.5 329.5t172.5 269.5t268.5 180.5t342.5 66.5t342.5 -66.5t268.5 -180.5t172.5 -269.5t62.5 -329.5t-62.5 -329t-172.5 -268.5t-268.5 -180t-342.5 -66.5zM991 -170q166 0 311.5 62t246 167
t158.5 246.5t58 296.5q0 209 -98 385.5t-276.5 282.5t-399.5 106t-399.5 -106t-276.5 -282.5t-98 -385.5q0 -155 58 -296.5t158.5 -246.5t246 -167t311.5 -62zM641 465h72q0 -125 74.5 -185.5t211.5 -60.5q273 0 273 252q0 106 -58 164.5t-159 58.5q-168 0 -240 -112
l-100 67v332h534v-57h-463v-205l-6 -49l15 -8q103 90 260 90q123 0 205.5 -72.5t82.5 -208.5q0 -148 -91.5 -228.5t-256.5 -80.5q-169 0 -261.5 81t-92.5 222z" />
    <glyph glyph-name="uni2465" unicode="&#x2465;" 
d="M991 -242q-184 0 -342.5 66.5t-268.5 180t-172.5 268.5t-62.5 329t62.5 329.5t172.5 269.5t268.5 180.5t342.5 66.5t342.5 -66.5t268.5 -180.5t172.5 -269.5t62.5 -329.5t-62.5 -329t-172.5 -268.5t-268.5 -180t-342.5 -66.5zM991 -170q166 0 311.5 62t246 167
t158.5 246.5t58 296.5q0 209 -98 385.5t-276.5 282.5t-399.5 106t-399.5 -106t-276.5 -282.5t-98 -385.5q0 -155 58 -296.5t158.5 -246.5t246 -167t311.5 -62zM655 561q0 225 107.5 352.5t286.5 112.5l215 -20v-58l-236 21q-91 8 -162.5 -44.5t-106 -132t-34.5 -163.5
l-12 -35h12q21 91 105 150t202 59q100 0 170.5 -46t101.5 -113.5t31 -147.5q0 -137 -91 -228.5t-245 -91.5q-158 0 -251 101t-93 284zM727 494q0 -99 74 -180t194 -81q125 0 197 74.5t72 188.5q0 113 -60.5 181t-171.5 68q-133 0 -219 -76.5t-86 -174.5z" />
    <glyph glyph-name="uni2466" unicode="&#x2466;" 
d="M991 -242q-184 0 -342.5 66.5t-268.5 180t-172.5 268.5t-62.5 329t62.5 329.5t172.5 269.5t268.5 180.5t342.5 66.5t342.5 -66.5t268.5 -180.5t172.5 -269.5t62.5 -329.5t-62.5 -329t-172.5 -268.5t-268.5 -180t-342.5 -66.5zM991 -170q166 0 311.5 62t246 167
t158.5 246.5t58 296.5q0 209 -98 385.5t-276.5 282.5t-399.5 106t-399.5 -106t-276.5 -282.5t-98 -385.5q0 -155 58 -296.5t158.5 -246.5t246 -167t311.5 -62zM864 160q0 256 98.5 431.5t305.5 303.5v16h-539v58h565v-129q-166 -94 -262 -271t-96 -409h-72z" />
    <glyph glyph-name="uni2467" unicode="&#x2467;" 
d="M991 -242q-184 0 -342.5 66.5t-268.5 180t-172.5 268.5t-62.5 329t62.5 329.5t172.5 269.5t268.5 180.5t342.5 66.5t342.5 -66.5t268.5 -180.5t172.5 -269.5t62.5 -329.5t-62.5 -329t-172.5 -268.5t-268.5 -180t-342.5 -66.5zM991 -170q166 0 311.5 62t246 167
t158.5 246.5t58 296.5q0 209 -98 385.5t-276.5 282.5t-399.5 106t-399.5 -106t-276.5 -282.5t-98 -385.5q0 -155 58 -296.5t158.5 -246.5t246 -167t311.5 -62zM647 422q0 89 54 150.5t149 74.5v19q-71 9 -113.5 56t-42.5 114q0 89 84 140.5t213 51.5q128 0 211.5 -52
t83.5 -140q0 -67 -41.5 -114t-111.5 -56v-19q95 -13 148.5 -74.5t53.5 -150.5q0 -107 -90.5 -175.5t-253.5 -68.5t-253.5 68.5t-90.5 175.5zM766 823q0 -70 53.5 -103.5t171.5 -33.5q119 0 171 33.5t52 103.5q0 148 -223 148q-225 0 -225 -148zM719 438q0 -40 12 -73
t40 -63.5t84 -48t136 -17.5q79 0 135 17.5t85 48t41 64t12 72.5q0 32 -12.5 62.5t-40.5 61t-85 49t-135 18.5q-79 0 -136 -18.5t-84.5 -49t-39.5 -61t-12 -62.5z" />
    <glyph glyph-name="uni2468" unicode="&#x2468;" 
d="M991 -242q-184 0 -342.5 66.5t-268.5 180t-172.5 268.5t-62.5 329t62.5 329.5t172.5 269.5t268.5 180.5t342.5 66.5t342.5 -66.5t268.5 -180.5t172.5 -269.5t62.5 -329.5t-62.5 -329t-172.5 -268.5t-268.5 -180t-342.5 -66.5zM991 -170q166 0 311.5 62t246 167
t158.5 246.5t58 296.5q0 209 -98 385.5t-276.5 282.5t-399.5 106t-399.5 -106t-276.5 -282.5t-98 -385.5q0 -155 58 -296.5t158.5 -246.5t246 -167t311.5 -62zM1364 639q0 -225 -107 -352.5t-286 -112.5l-215 21v57l235 -21q91 -8 162.5 44.5t106 132t34.5 163.5l13 35h-13
q-21 -91 -105 -150t-202 -59q-75 0 -135 26.5t-95.5 71t-54 98t-18.5 112.5q0 136 91 227.5t245 91.5q158 0 251 -101t93 -284zM1292 707q0 99 -74 179.5t-194 80.5q-125 0 -196.5 -74t-71.5 -188t60 -182t171 -68q133 0 219 77t86 175z" />
    <glyph glyph-name="uni24EA" unicode="&#x24ea;" 
d="M991 1448q184 0 342.5 -66.5t268.5 -180.5t172.5 -269.5t62.5 -329.5t-62.5 -329t-172.5 -268.5t-268.5 -180t-342.5 -66.5t-342.5 66.5t-268.5 180t-172.5 268.5t-62.5 329t62.5 329.5t172.5 269.5t268.5 180.5t342.5 66.5zM991 -170q166 0 311.5 62t246 167
t158.5 246.5t58 296.5q0 209 -98 385.5t-276.5 282.5t-399.5 106t-399.5 -106t-276.5 -282.5t-98 -385.5q0 -155 58 -296.5t158.5 -246.5t246 -167t311.5 -62zM993 1028q153 0 237.5 -118t84.5 -306q0 -191 -84 -308.5t-238 -117.5q-156 0 -240.5 117.5t-84.5 308.5
q0 189 84.5 306.5t240.5 117.5zM993 971q-110 0 -182 -96.5t-72 -270.5q0 -139 45 -227l377 510q-69 84 -168 84zM993 236q106 0 178 96.5t72 271.5q0 137 -45 225l-377 -510q68 -83 172 -83z" />
    <glyph glyph-name="uni24FF" unicode="&#x24ff;" 
d="M991 -242q-184 0 -342.5 66.5t-268.5 180t-172.5 268.5t-62.5 329t62.5 329.5t172.5 269.5t268.5 180.5t342.5 66.5t342.5 -66.5t268.5 -180.5t172.5 -269.5t62.5 -329.5t-62.5 -329t-172.5 -268.5t-268.5 -180t-342.5 -66.5zM668 604q0 -191 84.5 -308.5t240.5 -117.5
q154 0 238 117.5t84 308.5q0 188 -84.5 306t-237.5 118q-156 0 -240.5 -117.5t-84.5 -306.5zM739 604q0 174 72 270.5t182 96.5q99 0 168 -84l-377 -510q-45 88 -45 227zM821 319l377 510q45 -88 45 -225q0 -175 -72 -271.5t-178 -96.5q-104 0 -172 83z" />
    <glyph glyph-name="lozenge" unicode="&#x25ca;" horiz-adv-x="1081" 
d="M612 1444l283 -639l-283 -639h-141l-285 639l285 639h141zM555 193l268 612l-268 612h-27l-268 -612l268 -612h27z" />
    <glyph glyph-name="uni2776" unicode="&#x2776;" 
d="M991 -242q184 0 342.5 66.5t268.5 180t172.5 268.5t62.5 329t-62.5 329.5t-172.5 269.5t-268.5 180.5t-342.5 66.5t-342.5 -66.5t-268.5 -180.5t-172.5 -269.5t-62.5 -329.5t62.5 -329t172.5 -268.5t268.5 -180t342.5 -66.5zM725 672q203 83 203 338h170v-809h-72v729
l2 53h-29q-15 -152 -71.5 -238t-177.5 -137z" />
    <glyph glyph-name="uni2777" unicode="&#x2777;" 
d="M991 -242q184 0 342.5 66.5t268.5 180t172.5 268.5t62.5 329t-62.5 329.5t-172.5 269.5t-268.5 180.5t-342.5 66.5t-342.5 -66.5t-268.5 -180.5t-172.5 -269.5t-62.5 -329.5t62.5 -329t172.5 -268.5t268.5 -180t342.5 -66.5zM657 604q0 98 23 173.5t59.5 122t87 76
t101 41t106.5 11.5q129 0 212 -68t83 -202q0 -78 -32 -147t-87.5 -122.5t-133.5 -98t-166.5 -75.5t-190.5 -53v-12l35 6h559v-57h-621v116q45 6 100.5 21.5t120.5 41t125 63t109.5 82.5t79.5 106.5t30 128.5q0 104 -58.5 158.5t-164.5 54.5q-134 0 -219.5 -92t-85.5 -275
h-72z" />
    <glyph glyph-name="uni2778" unicode="&#x2778;" 
d="M991 -242q184 0 342.5 66.5t268.5 180t172.5 268.5t62.5 329t-62.5 329.5t-172.5 269.5t-268.5 180.5t-342.5 66.5t-342.5 -66.5t-268.5 -180.5t-172.5 -269.5t-62.5 -329.5t62.5 -329t172.5 -268.5t268.5 -180t342.5 -66.5zM659 506h72q0 -143 71.5 -206.5t205.5 -63.5
q116 0 180.5 49t64.5 139q0 39 -15 71t-37.5 51t-51 32.5t-53.5 18.5t-47 5h-103v57h103q30 0 59 5.5t62 20t53 45.5t20 75q0 78 -60.5 122t-174.5 44q-128 0 -197.5 -57.5t-69.5 -165.5h-71q0 138 89.5 209t248.5 71q139 0 222 -59.5t83 -159.5q0 -145 -170 -174v-12
q82 -16 131 -67.5t49 -137.5q0 -114 -86 -177t-229 -63q-77 0 -139 17.5t-110 55t-74 102.5t-26 153z" />
    <glyph glyph-name="uni2779" unicode="&#x2779;" 
d="M991 -242q184 0 342.5 66.5t268.5 180t172.5 268.5t62.5 329t-62.5 329.5t-172.5 269.5t-268.5 180.5t-342.5 66.5t-342.5 -66.5t-268.5 -180.5t-172.5 -269.5t-62.5 -329.5t62.5 -329t172.5 -268.5t268.5 -180t342.5 -66.5zM647 418v110q150 81 245.5 203t119.5 281h71
q-44 -334 -395 -527v-12l35 2h367v346h71v-346h125v-57h-125v-215h-71v215h-443z" />
    <glyph glyph-name="uni277A" unicode="&#x277a;" 
d="M991 -242q184 0 342.5 66.5t268.5 180t172.5 268.5t62.5 329t-62.5 329.5t-172.5 269.5t-268.5 180.5t-342.5 66.5t-342.5 -66.5t-268.5 -180.5t-172.5 -269.5t-62.5 -329.5t62.5 -329t172.5 -268.5t268.5 -180t342.5 -66.5zM641 465h72q0 -125 74.5 -185.5t211.5 -60.5
q273 0 273 252q0 106 -58 164.5t-159 58.5q-168 0 -240 -112l-100 67v332h534v-57h-463v-205l-6 -49l15 -8q103 90 260 90q123 0 205.5 -72.5t82.5 -208.5q0 -148 -91.5 -228.5t-256.5 -80.5q-169 0 -261.5 81t-92.5 222z" />
    <glyph glyph-name="uni277B" unicode="&#x277b;" 
d="M991 -242q184 0 342.5 66.5t268.5 180t172.5 268.5t62.5 329t-62.5 329.5t-172.5 269.5t-268.5 180.5t-342.5 66.5t-342.5 -66.5t-268.5 -180.5t-172.5 -269.5t-62.5 -329.5t62.5 -329t172.5 -268.5t268.5 -180t342.5 -66.5zM655 561q0 225 107.5 352.5t286.5 112.5
l215 -20v-58l-236 21q-91 8 -162.5 -44.5t-106 -132t-34.5 -163.5l-12 -35h12q21 91 105 150t202 59q100 0 170.5 -46t101.5 -113.5t31 -147.5q0 -137 -91 -228.5t-245 -91.5q-158 0 -251 101t-93 284zM727 494q0 -99 74 -180t194 -81q125 0 197 74.5t72 188.5
q0 113 -60.5 181t-171.5 68q-133 0 -219 -76.5t-86 -174.5z" />
    <glyph glyph-name="uni277C" unicode="&#x277c;" 
d="M991 -242q184 0 342.5 66.5t268.5 180t172.5 268.5t62.5 329t-62.5 329.5t-172.5 269.5t-268.5 180.5t-342.5 66.5t-342.5 -66.5t-268.5 -180.5t-172.5 -269.5t-62.5 -329.5t62.5 -329t172.5 -268.5t268.5 -180t342.5 -66.5zM864 160q0 256 98.5 431.5t305.5 303.5v16
h-539v58h565v-129q-166 -94 -262 -271t-96 -409h-72z" />
    <glyph glyph-name="uni277D" unicode="&#x277d;" 
d="M991 -242q184 0 342.5 66.5t268.5 180t172.5 268.5t62.5 329t-62.5 329.5t-172.5 269.5t-268.5 180.5t-342.5 66.5t-342.5 -66.5t-268.5 -180.5t-172.5 -269.5t-62.5 -329.5t62.5 -329t172.5 -268.5t268.5 -180t342.5 -66.5zM647 422q0 89 54 150.5t149 74.5v19
q-71 9 -113.5 56t-42.5 114q0 89 84 140.5t213 51.5q128 0 211.5 -52t83.5 -140q0 -67 -41.5 -114t-111.5 -56v-19q95 -13 148.5 -74.5t53.5 -150.5q0 -107 -90.5 -175.5t-253.5 -68.5t-253.5 68.5t-90.5 175.5zM766 823q0 -70 53.5 -103.5t171.5 -33.5q119 0 171 33.5
t52 103.5q0 148 -223 148q-225 0 -225 -148zM719 438q0 -40 12 -73t40 -63.5t84 -48t136 -17.5q79 0 135 17.5t85 48t41 64t12 72.5q0 32 -12.5 62.5t-40.5 61t-85 49t-135 18.5q-79 0 -136 -18.5t-84.5 -49t-39.5 -61t-12 -62.5z" />
    <glyph glyph-name="uni277E" unicode="&#x277e;" 
d="M991 -242q184 0 342.5 66.5t268.5 180t172.5 268.5t62.5 329t-62.5 329.5t-172.5 269.5t-268.5 180.5t-342.5 66.5t-342.5 -66.5t-268.5 -180.5t-172.5 -269.5t-62.5 -329.5t62.5 -329t172.5 -268.5t268.5 -180t342.5 -66.5zM1364 639q0 -225 -107 -352.5t-286 -112.5
l-215 21v57l235 -21q91 -8 162.5 44.5t106 132t34.5 163.5l13 35h-13q-21 -91 -105 -150t-202 -59q-75 0 -135 26.5t-95.5 71t-54 98t-18.5 112.5q0 136 91 227.5t245 91.5q158 0 251 -101t93 -284zM1292 707q0 99 -74 179.5t-194 80.5q-125 0 -196.5 -74t-71.5 -188
t60 -182t171 -68q133 0 219 77t86 175z" />
    <glyph glyph-name="G.ss01" horiz-adv-x="1566" 
d="M145 723q0 156 43 290.5t123 235t203.5 158t276.5 57.5q133 0 235 -39t169 -111.5t106.5 -168t56.5 -217.5h-72q-57 479 -495 479q-110 0 -203.5 -35.5t-161 -98t-115 -148.5t-71 -187.5t-23.5 -214.5q0 -116 18 -215.5t59 -187.5t103.5 -150t155 -97.5t209.5 -35.5
q296 0 432 162.5t127 492.5h-690v58h669q52 0 72.5 -17.5t20.5 -58.5v-674h-72v285l20 94h-20q-7 -50 -25 -99.5t-59.5 -105.5t-100 -97.5t-154.5 -69t-216 -27.5q-160 0 -281.5 57t-194.5 159.5t-109 234.5t-36 292z" />
    <glyph glyph-name="Gbreve.ss01" horiz-adv-x="1566" 
d="M1069 1917q0 -320 -287 -320q-288 0 -288 320h71q0 -262 217 -262q215 0 215 262h72zM145 723q0 156 43 290.5t123 235t203.5 158t276.5 57.5q133 0 235 -39t169 -111.5t106.5 -168t56.5 -217.5h-72q-57 479 -495 479q-110 0 -203.5 -35.5t-161 -98t-115 -148.5
t-71 -187.5t-23.5 -214.5q0 -116 18 -215.5t59 -187.5t103.5 -150t155 -97.5t209.5 -35.5q296 0 432 162.5t127 492.5h-690v58h669q52 0 72.5 -17.5t20.5 -58.5v-674h-72v285l20 94h-20q-7 -50 -25 -99.5t-59.5 -105.5t-100 -97.5t-154.5 -69t-216 -27.5q-160 0 -281.5 57
t-194.5 159.5t-109 234.5t-36 292z" />
    <glyph glyph-name="uni0122.ss01" horiz-adv-x="1566" 
d="M145 723q0 156 43 290.5t123 235t203.5 158t276.5 57.5q133 0 235 -39t169 -111.5t106.5 -168t56.5 -217.5h-72q-57 479 -495 479q-110 0 -203.5 -35.5t-161 -98t-115 -148.5t-71 -187.5t-23.5 -214.5q0 -116 18 -215.5t59 -187.5t103.5 -150t155 -97.5t209.5 -35.5
q296 0 432 162.5t127 492.5h-690v58h669q52 0 72.5 -17.5t20.5 -58.5v-674h-72v285l20 94h-20q-7 -50 -25 -99.5t-59.5 -105.5t-100 -97.5t-154.5 -69t-216 -27.5q-160 0 -281.5 57t-194.5 159.5t-109 234.5t-36 292zM729 -106l64 -15l-99 -325l-63 14z" />
    <glyph glyph-name="Gdotaccent.ss01" horiz-adv-x="1566" 
d="M782 1704q-42 0 -70 29t-28 69q0 41 28 70t70 29t70.5 -29.5t28.5 -69.5t-28.5 -69t-70.5 -29zM145 723q0 156 43 290.5t123 235t203.5 158t276.5 57.5q133 0 235 -39t169 -111.5t106.5 -168t56.5 -217.5h-72q-57 479 -495 479q-110 0 -203.5 -35.5t-161 -98t-115 -148.5
t-71 -187.5t-23.5 -214.5q0 -116 18 -215.5t59 -187.5t103.5 -150t155 -97.5t209.5 -35.5q296 0 432 162.5t127 492.5h-690v58h669q52 0 72.5 -17.5t20.5 -58.5v-674h-72v285l20 94h-20q-7 -50 -25 -99.5t-59.5 -105.5t-100 -97.5t-154.5 -69t-216 -27.5q-160 0 -281.5 57
t-194.5 159.5t-109 234.5t-36 292z" />
    <glyph glyph-name="i.loclTRK" horiz-adv-x="837" 
d="M389 1268q-42 0 -70 29t-28 69t28 69t70 29t70 -29t28 -69t-28 -69t-70 -29zM125 0v57h289v916l-193 -23v58l137 20q61 7 85 -23.5t24 -97.5v-850h287v-57h-629z" />
    <glyph glyph-name="a.ss01" horiz-adv-x="1306" 
d="M1139 0h-72v201l6 73h-26q-45 -132 -164 -213t-279 -81q-133 0 -241.5 63t-173 183.5t-64.5 277.5t64.5 277.5t173 183.5t241.5 63q160 0 279 -82t164 -215h26l-6 76v201h72v-1008zM1061 504q0 111 -39 202t-103.5 147.5t-143 87t-161.5 30.5t-157 -29t-132.5 -85
t-93 -147t-34.5 -206q0 -116 34.5 -207t93 -146.5t132.5 -84.5t157 -29t161.5 30t143 86.5t103.5 148t39 202.5z" />
    <glyph glyph-name="aacute.ss01" horiz-adv-x="1306" 
d="M379 1280l528 145l19 -61l-529 -145zM1139 0h-72v201l6 73h-26q-45 -132 -164 -213t-279 -81q-133 0 -241.5 63t-173 183.5t-64.5 277.5t64.5 277.5t173 183.5t241.5 63q160 0 279 -82t164 -215h26l-6 76v201h72v-1008zM1061 504q0 111 -39 202t-103.5 147.5t-143 87
t-161.5 30.5t-157 -29t-132.5 -85t-93 -147t-34.5 -206q0 -116 34.5 -207t93 -146.5t132.5 -84.5t157 -29t161.5 30t143 86.5t103.5 148t39 202.5z" />
    <glyph glyph-name="abreve.ss01" horiz-adv-x="1306" 
d="M932 1481q0 -320 -287 -320q-289 0 -289 320h72q0 -262 217 -262q215 0 215 262h72zM1139 0h-72v201l6 73h-26q-45 -132 -164 -213t-279 -81q-133 0 -241.5 63t-173 183.5t-64.5 277.5t64.5 277.5t173 183.5t241.5 63q160 0 279 -82t164 -215h26l-6 76v201h72v-1008z
M1061 504q0 111 -39 202t-103.5 147.5t-143 87t-161.5 30.5t-157 -29t-132.5 -85t-93 -147t-34.5 -206q0 -116 34.5 -207t93 -146.5t132.5 -84.5t157 -29t161.5 30t143 86.5t103.5 148t39 202.5z" />
    <glyph glyph-name="acircumflex.ss01" horiz-adv-x="1306" 
d="M918 1231l-44 -49l-229 200l-231 -200l-43 49l274 235zM1139 0h-72v201l6 73h-26q-45 -132 -164 -213t-279 -81q-133 0 -241.5 63t-173 183.5t-64.5 277.5t64.5 277.5t173 183.5t241.5 63q160 0 279 -82t164 -215h26l-6 76v201h72v-1008zM1061 504q0 111 -39 202
t-103.5 147.5t-143 87t-161.5 30.5t-157 -29t-132.5 -85t-93 -147t-34.5 -206q0 -116 34.5 -207t93 -146.5t132.5 -84.5t157 -29t161.5 30t143 86.5t103.5 148t39 202.5z" />
    <glyph glyph-name="adieresis.ss01" horiz-adv-x="1306" 
d="M467 1268q-42 0 -70 29t-28 69t28 69t70 29t70 -29t28 -69t-28 -69t-70 -29zM821 1268q-42 0 -70 29t-28 69t28 69t70 29t70.5 -29t28.5 -69t-28.5 -69t-70.5 -29zM1139 0h-72v201l6 73h-26q-45 -132 -164 -213t-279 -81q-133 0 -241.5 63t-173 183.5t-64.5 277.5
t64.5 277.5t173 183.5t241.5 63q160 0 279 -82t164 -215h26l-6 76v201h72v-1008zM1061 504q0 111 -39 202t-103.5 147.5t-143 87t-161.5 30.5t-157 -29t-132.5 -85t-93 -147t-34.5 -206q0 -116 34.5 -207t93 -146.5t132.5 -84.5t157 -29t161.5 30t143 86.5t103.5 148
t39 202.5z" />
    <glyph glyph-name="agrave.ss01" horiz-adv-x="1306" 
d="M918 1280l-19 -61l-528 145l18 61zM1139 0h-72v201l6 73h-26q-45 -132 -164 -213t-279 -81q-133 0 -241.5 63t-173 183.5t-64.5 277.5t64.5 277.5t173 183.5t241.5 63q160 0 279 -82t164 -215h26l-6 76v201h72v-1008zM1061 504q0 111 -39 202t-103.5 147.5t-143 87
t-161.5 30.5t-157 -29t-132.5 -85t-93 -147t-34.5 -206q0 -116 34.5 -207t93 -146.5t132.5 -84.5t157 -29t161.5 30t143 86.5t103.5 148t39 202.5z" />
    <glyph glyph-name="amacron.ss01" horiz-adv-x="1306" 
d="M381 1348h528v-58h-528v58zM1139 0h-72v201l6 73h-26q-45 -132 -164 -213t-279 -81q-133 0 -241.5 63t-173 183.5t-64.5 277.5t64.5 277.5t173 183.5t241.5 63q160 0 279 -82t164 -215h26l-6 76v201h72v-1008zM1061 504q0 111 -39 202t-103.5 147.5t-143 87t-161.5 30.5
t-157 -29t-132.5 -85t-93 -147t-34.5 -206q0 -116 34.5 -207t93 -146.5t132.5 -84.5t157 -29t161.5 30t143 86.5t103.5 148t39 202.5z" />
    <glyph glyph-name="aogonek.ss01" horiz-adv-x="1306" 
d="M956 -326l459 45v-57l-440 -43q-46 -4 -67.5 34.5t3.5 78.5l162 268h-6v201l6 73h-26q-45 -132 -164 -213t-279 -81q-133 0 -241.5 63t-173 183.5t-64.5 277.5t64.5 277.5t173 183.5t241.5 63q160 0 279 -82t164 -215h26l-6 76v201h72v-1008zM614 37q83 0 161.5 30
t143 86.5t103.5 148t39 202.5t-39 202t-103.5 147.5t-143 87t-161.5 30.5t-157 -29t-132.5 -85t-93 -147t-34.5 -206q0 -116 34.5 -207t93 -146.5t132.5 -84.5t157 -29z" />
    <glyph glyph-name="aring.ss01" horiz-adv-x="1306" 
d="M643 1159q-90 0 -144.5 60t-54.5 137q0 76 54.5 135t144.5 59q92 0 146.5 -59t54.5 -135t-55 -136.5t-146 -60.5zM643 1217q60 0 94.5 38t34.5 101q0 61 -35 99t-94 38q-58 0 -92.5 -38t-34.5 -99q0 -62 34.5 -100.5t92.5 -38.5zM1139 0h-72v201l6 73h-26
q-45 -132 -164 -213t-279 -81q-133 0 -241.5 63t-173 183.5t-64.5 277.5t64.5 277.5t173 183.5t241.5 63q160 0 279 -82t164 -215h26l-6 76v201h72v-1008zM1061 504q0 111 -39 202t-103.5 147.5t-143 87t-161.5 30.5t-157 -29t-132.5 -85t-93 -147t-34.5 -206
q0 -116 34.5 -207t93 -146.5t132.5 -84.5t157 -29t161.5 30t143 86.5t103.5 148t39 202.5z" />
    <glyph glyph-name="atilde.ss01" horiz-adv-x="1306" 
d="M340 1202q0 110 45.5 162.5t116.5 52.5q43 0 78 -18.5t59 -44.5t46 -52t48 -44.5t55 -18.5q39 0 65 36.5t26 121.5h71q0 -110 -45.5 -162.5t-116.5 -52.5q-43 0 -78 18.5t-59 44.5t-46 52t-48 44.5t-55 18.5q-39 0 -64.5 -36.5t-25.5 -121.5h-72zM1139 0h-72v201l6 73
h-26q-45 -132 -164 -213t-279 -81q-133 0 -241.5 63t-173 183.5t-64.5 277.5t64.5 277.5t173 183.5t241.5 63q160 0 279 -82t164 -215h26l-6 76v201h72v-1008zM1061 504q0 111 -39 202t-103.5 147.5t-143 87t-161.5 30.5t-157 -29t-132.5 -85t-93 -147t-34.5 -206
q0 -116 34.5 -207t93 -146.5t132.5 -84.5t157 -29t161.5 30t143 86.5t103.5 148t39 202.5z" />
    <glyph glyph-name="g.ss01" horiz-adv-x="1292" 
d="M1067 1008h72v-1297q0 -97 -117 -94l-709 23v57l754 -23v527l6 73h-26q-45 -132 -164 -213t-279 -81q-133 0 -241.5 63t-173 183.5t-64.5 277.5t64.5 277.5t173 183.5t241.5 63q160 0 279 -82t164 -215h26l-6 76v201zM614 37q83 0 161.5 30t143 86.5t103.5 148t39 202.5
t-39 202t-103.5 147.5t-143 87t-161.5 30.5t-157 -29t-132.5 -85t-93 -147t-34.5 -206q0 -116 34.5 -207t93 -146.5t132.5 -84.5t157 -29z" />
    <glyph glyph-name="gbreve.ss01" horiz-adv-x="1292" 
d="M655 1161q-288 0 -288 320h71q0 -262 217 -262q215 0 215 262h72q0 -320 -287 -320zM1067 1008h72v-1297q0 -97 -117 -94l-709 23v57l754 -23v527l6 73h-26q-45 -132 -164 -213t-279 -81q-133 0 -241.5 63t-173 183.5t-64.5 277.5t64.5 277.5t173 183.5t241.5 63
q160 0 279 -82t164 -215h26l-6 76v201zM614 37q83 0 161.5 30t143 86.5t103.5 148t39 202.5t-39 202t-103.5 147.5t-143 87t-161.5 30.5t-157 -29t-132.5 -85t-93 -147t-34.5 -206q0 -116 34.5 -207t93 -146.5t132.5 -84.5t157 -29z" />
    <glyph glyph-name="uni0123.ss01" horiz-adv-x="1292" 
d="M805 1532l-111 -315l-63 14l110 315zM1067 1008h72v-1297q0 -97 -117 -94l-709 23v57l754 -23v527l6 73h-26q-45 -132 -164 -213t-279 -81q-133 0 -241.5 63t-173 183.5t-64.5 277.5t64.5 277.5t173 183.5t241.5 63q160 0 279 -82t164 -215h26l-6 76v201zM614 37
q83 0 161.5 30t143 86.5t103.5 148t39 202.5t-39 202t-103.5 147.5t-143 87t-161.5 30.5t-157 -29t-132.5 -85t-93 -147t-34.5 -206q0 -116 34.5 -207t93 -146.5t132.5 -84.5t157 -29z" />
    <glyph glyph-name="gdotaccent.ss01" horiz-adv-x="1292" 
d="M655 1268q-42 0 -70 29t-28 69t28 69t70 29t70.5 -29t28.5 -69t-28.5 -69t-70.5 -29zM1067 1008h72v-1297q0 -97 -117 -94l-709 23v57l754 -23v527l6 73h-26q-45 -132 -164 -213t-279 -81q-133 0 -241.5 63t-173 183.5t-64.5 277.5t64.5 277.5t173 183.5t241.5 63
q160 0 279 -82t164 -215h26l-6 76v201zM614 37q83 0 161.5 30t143 86.5t103.5 148t39 202.5t-39 202t-103.5 147.5t-143 87t-161.5 30.5t-157 -29t-132.5 -85t-93 -147t-34.5 -206q0 -116 34.5 -207t93 -146.5t132.5 -84.5t157 -29z" />
    <glyph glyph-name="k.ss01" horiz-adv-x="1003" 
d="M897 1008l-430 -394l430 -614h-78l-401 569l-180 -166v-403h-72v1505h72v-1016l563 519h96z" />
    <glyph glyph-name="uni0137.ss01" horiz-adv-x="1003" 
d="M897 1008l-430 -394l430 -614h-78l-401 569l-180 -166v-403h-72v1505h72v-1016l563 519h96zM367 -432l98 326l63 -15l-98 -325z" />
    <glyph glyph-name="uni0438.loclBGR" horiz-adv-x="1128" 
d="M1004 0h-72v928l8 51h-29l-596 -979h-149v1008h72v-930l-9 -49h29l596 979h150v-1008z" />
    <glyph glyph-name="uni0439.loclBGR" horiz-adv-x="1128" 
d="M868 1481q0 -320 -286 -320q-289 0 -289 320h72q0 -262 217 -262q215 0 215 262h71zM1004 0h-72v928l8 51h-29l-596 -979h-149v1008h72v-930l-9 -49h29l596 979h150v-1008z" />
    <glyph glyph-name="uni045D.loclBGR" horiz-adv-x="1128" 
d="M854 1280l-18 -61l-529 145l19 61zM1004 0h-72v928l8 51h-29l-596 -979h-149v1008h72v-930l-9 -49h29l596 979h150v-1008z" />
    <glyph glyph-name="zero.dnom" horiz-adv-x="856" 
d="M430 829q154 0 238 -117.5t84 -305.5q0 -191 -84 -308.5t-238 -117.5q-157 0 -241.5 117.5t-84.5 308.5q0 188 85 305.5t241 117.5zM430 772q-110 0 -182 -96t-72 -270q0 -140 45 -228l377 510q-69 84 -168 84zM430 37q106 0 178 97t72 272q0 137 -45 225l-377 -510
q69 -84 172 -84z" />
    <glyph glyph-name="one.dnom" horiz-adv-x="585" 
d="M109 471q202 82 202 338h170v-809h-71v729l2 53h-29q-15 -152 -72 -237.5t-178 -136.5z" />
    <glyph glyph-name="two.dnom" horiz-adv-x="882" 
d="M104 406q0 98 23 173.5t59.5 121.5t87 76t101 41t106.5 11q129 0 212 -68t83 -202q0 -78 -32 -147t-87.5 -122.5t-133.5 -98t-166.5 -75.5t-190.5 -53v-12l35 6h559v-57h-621v117q56 8 124 27.5t147.5 57.5t144 86.5t107.5 119.5t43 151q0 104 -59 158.5t-165 54.5
q-134 0 -219.5 -91.5t-85.5 -274.5h-72z" />
    <glyph glyph-name="three.dnom" horiz-adv-x="872" 
d="M104 307h72q0 -143 71.5 -206.5t205.5 -63.5q116 0 180.5 49t64.5 139q0 39 -15 71t-37.5 51t-51 32.5t-53.5 18.5t-47 5h-103v58h103q23 0 46 3t50.5 12.5t48.5 24.5t35 42t14 63q0 78 -60.5 122t-174.5 44q-128 0 -197.5 -57.5t-69.5 -165.5h-71q0 138 89.5 209
t248.5 71q139 0 222 -59.5t83 -159.5q0 -145 -170 -174v-12q82 -16 131 -67.5t49 -137.5q0 -114 -86 -176.5t-229 -62.5q-77 0 -138.5 17.5t-110 55t-74.5 102t-26 152.5z" />
    <glyph glyph-name="four.dnom" horiz-adv-x="847" 
d="M104 215v111q151 81 246 202.5t119 280.5h72q-43 -333 -396 -526v-13l35 2h367v346h71v-346h125v-57h-125v-215h-71v215h-443z" />
    <glyph glyph-name="five.dnom" horiz-adv-x="913" 
d="M104 283h72q0 -125 75 -185.5t212 -60.5q272 0 272 252q0 106 -58 164.5t-159 58.5q-167 0 -239 -113l-101 68v332h535v-58h-463v-204l-6 -50l14 -8q103 90 260 90q123 0 206 -72t83 -208q0 -148 -91.5 -228.5t-256.5 -80.5q-169 0 -262 81t-93 222z" />
    <glyph glyph-name="six.dnom" horiz-adv-x="890" 
d="M104 365q0 225 107.5 352t286.5 112l215 -20v-57l-236 20q-91 8 -162.5 -44.5t-106 -132t-34.5 -163.5l-12 -35h12q21 91 105 150t202 59q100 0 170.5 -46t101.5 -113.5t31 -147.5q0 -137 -90.5 -228t-244.5 -91q-158 0 -251.5 101t-93.5 284zM176 297q0 -99 74 -179.5
t194 -80.5q125 0 197 74t72 188q0 113 -60.5 181.5t-171.5 68.5q-133 0 -219 -77t-86 -175z" />
    <glyph glyph-name="seven.dnom" horiz-adv-x="774" 
d="M240 0q0 256 98 431.5t305 303.5v17h-539v57h566v-129q-167 -94 -263 -271.5t-96 -408.5h-71z" />
    <glyph glyph-name="eight.dnom" horiz-adv-x="899" 
d="M104 223q0 89 54 151t149 75v18q-71 9 -113 56t-42 114q0 89 84 140.5t213 51.5q128 0 211 -51.5t83 -140.5q0 -67 -41.5 -114t-111.5 -56v-18q95 -13 149 -75t54 -151q0 -107 -90.5 -175t-253.5 -68t-254 68t-91 175zM223 625q0 -70 54 -104t172 -34q119 0 171 33.5
t52 104.5q0 147 -223 147q-226 0 -226 -147zM176 240q0 -40 12 -73t40.5 -64t84.5 -48.5t136 -17.5q79 0 135 17.5t84.5 48.5t40.5 64t12 73q0 32 -12 62.5t-40 60.5t-85 48.5t-135 18.5q-79 0 -136 -18.5t-85 -48.5t-40 -60.5t-12 -62.5z" />
    <glyph glyph-name="nine.dnom" horiz-adv-x="890" 
d="M786 446q0 -225 -107 -352t-286 -112l-215 20v57l236 -20q91 -8 162.5 44.5t106 132t34.5 163.5l12 35h-12q-21 -91 -105 -150t-202 -59q-75 0 -135 26.5t-96 70.5t-54.5 97.5t-18.5 112.5q0 136 91 227.5t245 91.5q158 0 251 -101t93 -284zM715 514q0 99 -74.5 179.5
t-194.5 80.5q-125 0 -196.5 -74t-71.5 -188q0 -113 60.5 -181.5t171.5 -68.5q133 0 219 77t86 175z" />
    <glyph glyph-name="zero.numr" horiz-adv-x="856" 
d="M430 1440q153 0 237.5 -118t84.5 -306q0 -191 -84 -308.5t-238 -117.5q-157 0 -241.5 117.5t-84.5 308.5q0 189 85 306.5t241 117.5zM430 1382q-110 0 -182 -96t-72 -270q0 -140 45 -228l377 510q-69 84 -168 84zM430 647q106 0 178 97t72 272q0 137 -45 225l-377 -510
q69 -84 172 -84z" />
    <glyph glyph-name="one.numr" horiz-adv-x="585" 
d="M109 1065q202 82 202 338h170v-809h-71v729l2 53h-29q-15 -152 -72 -238t-178 -137z" />
    <glyph glyph-name="two.numr" horiz-adv-x="882" 
d="M104 1008q0 98 23 173.5t59.5 122t87 76t101 41t106.5 11.5q129 0 212 -68.5t83 -202.5q0 -97 -48 -179t-134 -142.5t-193 -103.5t-235 -70v-13l35 6h559v-57h-621v117q56 8 124 27.5t147.5 57.5t144 86.5t107.5 119.5t43 151q0 104 -59 158.5t-165 54.5
q-134 0 -219.5 -91.5t-85.5 -274.5h-72z" />
    <glyph glyph-name="three.numr" horiz-adv-x="872" 
d="M104 909h72q0 -143 71.5 -206.5t205.5 -63.5q116 0 180.5 49t64.5 139q0 48 -22 85t-55.5 56.5t-66 28.5t-60.5 9h-103v57h103q23 0 46 3t50.5 12.5t48.5 24.5t35 42t14 63q0 78 -60.5 122t-174.5 44q-128 0 -197.5 -57.5t-69.5 -165.5h-71q0 138 89.5 209.5t248.5 71.5
q139 0 222 -60t83 -160q0 -145 -170 -174v-12q82 -16 131 -67.5t49 -137.5q0 -114 -86 -176.5t-229 -62.5q-77 0 -138.5 17.5t-110 55t-74.5 102t-26 152.5z" />
    <glyph glyph-name="four.numr" horiz-adv-x="847" 
d="M104 809v111q151 81 246 202.5t119 280.5h72q-43 -333 -396 -526v-13l35 2h367v346h71v-346h125v-57h-125v-215h-71v215h-443z" />
    <glyph glyph-name="five.numr" horiz-adv-x="913" 
d="M104 885h72q0 -125 75 -185.5t212 -60.5q272 0 272 252q0 106 -58 164.5t-159 58.5q-167 0 -239 -113l-101 68v332h535v-58h-463v-204l-6 -49l14 -9q103 90 260 90q123 0 206 -72t83 -208q0 -148 -91.5 -228.5t-256.5 -80.5q-169 0 -262 81t-93 222z" />
    <glyph glyph-name="six.numr" horiz-adv-x="890" 
d="M104 977q0 225 107.5 352.5t286.5 112.5l215 -21v-57l-236 20q-91 8 -162.5 -44.5t-106 -132t-34.5 -163.5l-12 -34h12q21 91 105 150t202 59q75 0 135 -26.5t95.5 -71t54 -98t18.5 -112.5q0 -137 -90.5 -228t-244.5 -91q-158 0 -251.5 101t-93.5 284zM176 909
q0 -99 74 -179.5t194 -80.5q125 0 197 74t72 188q0 113 -60.5 181.5t-171.5 68.5q-133 0 -219 -77t-86 -175z" />
    <glyph glyph-name="seven.numr" horiz-adv-x="774" 
d="M240 594q0 256 98 431.5t305 303.5v17h-539v57h566v-129q-167 -94 -263 -271.5t-96 -408.5h-71z" />
    <glyph glyph-name="eight.numr" horiz-adv-x="899" 
d="M104 834q0 89 54 150.5t149 74.5v18q-71 9 -113 56t-42 114q0 89 84 141t213 52q128 0 211 -52t83 -141q0 -67 -41.5 -114t-111.5 -56v-18q95 -13 149 -74.5t54 -150.5q0 -107 -90.5 -175.5t-253.5 -68.5t-254 68.5t-91 175.5zM223 1235q0 -70 54 -103.5t172 -33.5
q119 0 171 33.5t52 103.5q0 147 -223 147q-226 0 -226 -147zM176 850q0 -40 12 -73t40.5 -64t84.5 -48.5t136 -17.5q79 0 135 17.5t84.5 48.5t40.5 64t12 73q0 32 -12 62.5t-40 60.5t-85 48.5t-135 18.5q-79 0 -136 -18.5t-85 -48.5t-40 -60.5t-12 -62.5z" />
    <glyph glyph-name="nine.numr" horiz-adv-x="890" 
d="M786 1059q0 -225 -107 -352.5t-286 -112.5l-215 20v58l236 -21q91 -8 162.5 44.5t106 132t34.5 163.5l12 35h-12q-21 -91 -105 -150t-202 -59q-75 0 -135 26.5t-96 70.5t-54.5 97.5t-18.5 112.5q0 137 91 228.5t245 91.5q158 0 251 -101t93 -284zM715 1126
q0 99 -74.5 179.5t-194.5 80.5q-125 0 -196.5 -74t-71.5 -188q0 -113 60.5 -181.5t171.5 -68.5q133 0 219 77t86 175z" />
    <glyph glyph-name="colon.case" horiz-adv-x="647" 
d="M324 944q-42 0 -70.5 29t-28.5 69t28.5 69.5t70.5 29.5t70 -29t28 -70q0 -40 -28 -69t-70 -29zM324 227q-42 0 -70.5 29.5t-28.5 69.5t28.5 69t70.5 29t70 -29t28 -69q0 -41 -28 -70t-70 -29z" />
    <glyph glyph-name="bullet.case" horiz-adv-x="1171" 
d="M586 324q-124 0 -205.5 83.5t-81.5 202.5t81.5 204t205.5 85t206 -85t82 -204t-82 -202.5t-206 -83.5z" />
    <glyph glyph-name="parenleft.case" horiz-adv-x="854" 
d="M668 -90v-64q-147 50 -257.5 180.5t-167.5 310.5t-57 386q0 205 57 385t167.5 309.5t257.5 179.5v-63q-78 -26 -151 -95t-131 -171.5t-93 -244.5t-35 -300t35 -300.5t93 -245t131 -172t151 -95.5z" />
    <glyph glyph-name="parenright.case" horiz-adv-x="854" 
d="M186 -90q78 26 151 95.5t131 172t93 245t35 300.5t-35 300t-93 244.5t-131 171.5t-151 95v63q147 -50 257.5 -179.5t167.5 -309.5t57 -385q0 -206 -57 -386t-167.5 -310.5t-257.5 -180.5v64z" />
    <glyph glyph-name="braceleft.case" horiz-adv-x="1140" 
d="M500 1530l-76 6v-27q98 -35 173.5 -99t117.5 -139t63 -150t21 -146q0 -135 -54 -258q54 -123 54 -258q0 -71 -21 -146t-63 -150.5t-117.5 -139.5t-173.5 -99v-26l76 6h454v-58h-557v121q330 160 330 506q0 89 -22 166q-107 -166 -273 -166q-109 0 -177.5 65t-68.5 179
q0 113 70.5 178.5t175.5 65.5q166 0 273 -166q22 77 22 166q0 345 -330 505v121h557v-57h-454zM432 530q73 0 137.5 50t106.5 137q-41 87 -106 136.5t-138 49.5q-84 0 -129 -49t-45 -137q0 -89 45 -138t129 -49z" />
    <glyph glyph-name="braceright.case" horiz-adv-x="1034" 
d="M602 473q-165 0 -272 166q-23 -81 -23 -166q0 -346 330 -506v-121h-557v58h455l75 -6v26q-79 28 -143.5 76t-106.5 103.5t-71 119t-41 122t-12 114.5q0 137 53 258q-53 121 -53 258q0 71 20.5 146t62.5 150t117.5 139t173.5 99v27l-75 -6h-455v57h557v-121
q-330 -160 -330 -505q0 -85 23 -166q107 166 272 166q105 0 175.5 -65.5t70.5 -178.5q0 -114 -68.5 -179t-177.5 -65zM602 903q-73 0 -138 -49.5t-106 -136.5q42 -87 106.5 -137t137.5 -50q84 0 129 49t45 138q0 88 -45 137t-129 49z" />
    <glyph glyph-name="bracketleft.case" horiz-adv-x="845" 
d="M186 1597h473v-57h-401v-1636h401v-58h-473v1751z" />
    <glyph glyph-name="bracketright.case" horiz-adv-x="845" 
d="M659 1597v-1751h-473v58h402v1636h-402v57h473z" />
    <glyph glyph-name="braceleft.ss01" horiz-adv-x="985" 
d="M186 596q95 17 165.5 53t109.5 85t57.5 102t18.5 112q0 161 -75 257t-198 112v127h535v-58h-426l-82 9v-29q317 -77 317 -403q0 -139 -73 -241t-220 -140v-29q147 -38 220 -141t73 -242q0 -320 -317 -399v-29l82 8h426v-57h-535v127q126 19 199.5 112t73.5 252
q0 59 -18.5 112.5t-57.5 103t-109.5 86t-165.5 53.5v57z" />
    <glyph glyph-name="braceright.ss01" horiz-adv-x="985" 
d="M799 596v-57q-95 -17 -165.5 -53.5t-109.5 -86t-57 -103t-18 -112.5q0 -159 73 -252t199 -112v-127h-535v57h426l82 -8v29q-317 79 -317 399q0 139 73 242t220 141v29q-147 38 -220 140t-73 241q0 326 317 403v29l-82 -9h-426v58h535v-127q-123 -16 -197.5 -112
t-74.5 -257q0 -59 18 -112t57 -102t109.5 -85t165.5 -53z" />
    <glyph glyph-name="braceleft.case.ss01" horiz-adv-x="985" 
d="M186 750q95 17 165.5 53t109.5 85t57.5 102t18.5 112q0 161 -75 256.5t-198 111.5v127h535v-57h-426l-82 8v-28q317 -77 317 -404q0 -139 -73 -241t-220 -140v-28q147 -38 220 -141t73 -242q0 -321 -317 -400v-28l82 8h426v-58h-535v127q126 19 199.5 112.5t73.5 252.5
q0 59 -18.5 112.5t-57.5 102.5t-109.5 85.5t-165.5 53.5v58z" />
    <glyph glyph-name="braceright.case.ss01" horiz-adv-x="985" 
d="M799 750v-58q-95 -17 -165.5 -53.5t-109.5 -85.5t-57 -102.5t-18 -112.5q0 -160 73 -253t199 -112v-127h-535v58h426l82 -8v28q-317 79 -317 400q0 139 73 242t220 141v28q-147 38 -220 140t-73 241q0 327 317 404v28l-82 -8h-426v57h535v-127q-123 -16 -197.5 -111.5
t-74.5 -256.5q0 -59 18 -112t57 -102t109.5 -85t165.5 -53z" />
    <glyph glyph-name="hyphen.case" horiz-adv-x="1271" 
d="M186 752h899v-58h-899v58z" />
    <glyph glyph-name="endash.case" horiz-adv-x="1675" 
d="M186 752h1303v-58h-1303v58z" />
    <glyph glyph-name="emdash.case" horiz-adv-x="2084" 
d="M186 752h1712v-58h-1712v58z" />
    <glyph glyph-name="guillemotleft.case" horiz-adv-x="1259" 
d="M770 262l-47 -45l-537 506l537 504l47 -45l-489 -459zM1073 262l-47 -45l-537 506l537 504l47 -45l-489 -459z" />
    <glyph glyph-name="guillemotright.case" horiz-adv-x="1245" 
d="M172 262l490 461l-490 459l47 45l537 -504l-537 -506zM475 262l490 461l-490 459l47 45l537 -504l-537 -506z" />
    <glyph glyph-name="guilsinglleft.case" horiz-adv-x="956" 
d="M770 262l-47 -45l-537 506l537 504l47 -45l-489 -459z" />
    <glyph glyph-name="guilsinglright.case" horiz-adv-x="942" 
d="M172 262l490 461l-490 459l47 45l537 -504l-537 -506z" />
    <glyph glyph-name="ampersand.ss01" horiz-adv-x="1581" 
d="M1395 41l-25 -64q-137 88 -242 168q-186 -165 -493 -165q-119 0 -219.5 39.5t-165 122t-64.5 192.5q0 71 18.5 129.5t48 101t76.5 80t93.5 63t109.5 52.5q-110 181 -110 332q0 169 105 270.5t288 101.5q151 0 234.5 -75t83.5 -228q0 -247 -455 -416q-7 -3 -21.5 -8
t-21.5 -8q174 -249 489 -496q193 217 193 660h72q0 -462 -211 -700q116 -88 217 -152zM494 1092q0 -134 104 -306l66 25q71 27 126.5 53t108 60t87 70.5t55 82.5t20.5 97q0 233 -240 233q-163 0 -245 -85.5t-82 -229.5zM635 37q276 0 442 147q-344 273 -510 518
q-74 -31 -125.5 -62t-95.5 -74.5t-66 -101.5t-22 -132q0 -135 104 -215t273 -80z" />
    <glyph glyph-name="brevecombcy" horiz-adv-x="0" 
d="M-186 1481q0 -320 -287 -320q-289 0 -289 320h72q0 -262 217 -262q215 0 215 262h72z" />
    </font>
</defs>
</svg>
