<?xml version="1.0" standalone="no"?>
<!DOCTYPE svg PUBLIC "-//W3C//DTD SVG 1.1//EN" "http://www.w3.org/Graphics/SVG/1.1/DTD/svg11.dtd" >
<svg xmlns="http://www.w3.org/2000/svg" xmlns:xlink="http://www.w3.org/1999/xlink" version="1.1">
<metadata>
Created by FontForge 20170731 at Tue Jul 21 23:38:36 2020
 By Aleksey,,,
Copyright (c) 2019 by Nick Losacco. All rights reserved.
</metadata>
<defs>
<font id="Telegraf-Bold" horiz-adv-x="0" >
  <font-face 
    font-family="Telegraf"
    font-weight="700"
    font-stretch="normal"
    units-per-em="2048"
    panose-1="0 0 8 0 0 0 0 0 0 0"
    ascent="1638"
    descent="-410"
    x-height="1024"
    cap-height="1362"
    bbox="-997 -715 2873 2079"
    underline-thickness="61"
    underline-position="-224"
    unicode-range="U+0020-25CF"
  />
<missing-glyph horiz-adv-x="921" 
d="M756 1434v-1844h-584v1844h584zM614 1311h-305v-62h121v-67h-123v-62h307v62h-122v67h122v62zM492 1073h-185v-192h307v63h-122v129zM430 1010v-66h-61v66h61zM614 831h-307v-61h123v-68h-123v-61h185v129h122v61zM614 721h-61v-123h-246v-61h307v184zM614 496h-184v-103
h62v41h61v-86h-184v148h-62v-209h307v209zM614 176h-307v-209h307v209zM553 117v-88h-184v88h184zM614 -74h-307v-61h129l-129 -86v-62h307v62h-188l129 86h59v61z" />
    <glyph glyph-name="f_f" unicode="ff" horiz-adv-x="1527" 
d="M1528 1214h-350v-190h297v-229h-256v-795h-304v795h-389v-795h-303v795h-182v145l182 88v94q0 151 83 231.5t267 80.5h211v-220h-301v-190h432v88q0 158 83.5 240t269.5 82h260v-220z" />
    <glyph glyph-name="f_f_i" unicode="ffi" horiz-adv-x="1992" 
d="M1178 1214v-190h276v-229h-235v-795h-304v795h-389v-795h-303v795h-182v145l182 88v94q0 151 83 231.5t267 80.5h211v-220h-301v-190h432v88q0 158 83.5 240t269.5 82h618v-220h-708zM1585 1024h303v-1024h-303v1024z" />
    <glyph glyph-name="f_f_l" unicode="ffl" horiz-adv-x="2043" 
d="M1925 1434v-1434h-303v1214h-444v-190h276v-229h-233v-795h-303v795h-392v-795h-303v795h-182v145l182 88v94q0 151 83 231.5t267 80.5h211v-220h-301v-190h435v88q0 158 83 240t267 82h657z" />
    <glyph glyph-name="f_i" unicode="fi" horiz-adv-x="1318" 
d="M223 0v795h-182v145l182 86v86q0 158 83 240t267 82h619v-220h-709v-190h277v-229h-234v-795h-303zM891 0v1024h303v-1024h-303z" />
    <glyph glyph-name="f_l" unicode="fl" horiz-adv-x="1349" 
d="M1231 1434v-1434h-303v1214h-445v-190h277v-229h-234v-795h-303v795h-182v145l182 88v84q0 158 83 240t267 82h658z" />
    <glyph glyph-name=".notdef" horiz-adv-x="921" 
d="M756 1434v-1844h-584v1844h584zM614 1311h-305v-62h121v-67h-123v-62h307v62h-122v67h122v62zM492 1073h-185v-192h307v63h-122v129zM430 1010v-66h-61v66h61zM614 831h-307v-61h123v-68h-123v-61h185v129h122v61zM614 721h-61v-123h-246v-61h307v184zM614 496h-184v-103
h62v41h61v-86h-184v148h-62v-209h307v209zM614 176h-307v-209h307v209zM553 117v-88h-184v88h184zM614 -74h-307v-61h129l-129 -86v-62h307v62h-188l129 86h59v61z" />
    <glyph glyph-name=".null" 
 />
    <glyph glyph-name="nonmarkingreturn" horiz-adv-x="682" 
 />
    <glyph glyph-name="space" unicode=" " horiz-adv-x="518" 
 />
    <glyph glyph-name="exclam" unicode="!" horiz-adv-x="520" 
d="M160 440l-54 922h308l-54 -922h-200zM109 0v270h303v-270h-303z" />
    <glyph glyph-name="quotedbl" unicode="&#x22;" horiz-adv-x="688" 
d="M41 1362h260l-27 -528h-206zM389 1362h258l-24 -528h-209z" />
    <glyph glyph-name="numbersign" unicode="#" horiz-adv-x="1855" 
d="M1753 827h-362l-103 -274h311v-197h-382l-134 -356h-256l134 356h-340l-134 -356h-256l134 356h-263v197h334l103 274h-283v197h356l125 338h256l-125 -338h340l125 338h256l-125 -338h289v-197zM1032 553l103 274h-340l-103 -274h340z" />
    <glyph glyph-name="dollar" unicode="$" horiz-adv-x="1101" 
d="M1040 475q0 -280 -340 -328v-219h-292v222q-179 29 -264.5 124.5t-90.5 231.5h277q6 -79 63.5 -127.5t165.5 -48.5q191 0 191 116q0 50 -31.5 80.5t-112.5 40.5l-229 31q-145 17 -221 93.5t-76 203.5q0 135 88 216.5t240 107.5v215h292v-217q145 -25 230.5 -106.5
t95.5 -213.5h-281q-17 141 -196 141q-94 0 -141.5 -31t-47.5 -83q0 -90 129 -105l226 -26q171 -20 248 -98.5t77 -219.5z" />
    <glyph glyph-name="percent" unicode="%" horiz-adv-x="1740" 
d="M92 0v25l1176 1159h-496v-402h-608v580h1321q114 0 114 -94q0 -29 -14.5 -57.5t-54.5 -69.5l-1139 -1141h-299zM352 961h234v223h-234v-223zM1026 0v578h608v-578h-608zM1214 178h234v223h-234v-223z" />
    <glyph glyph-name="ampersand" unicode="&#x26;" horiz-adv-x="1517" 
d="M1448 567h-205q-15 -151 -67 -266l237 -203l-143 -157l-215 182q-164 -158 -445 -158q-148 0 -259.5 42t-176.5 129t-65 210q0 129 62.5 220.5t190.5 160.5q-131 150 -131 303q0 174 123 270.5t332 96.5q195 0 308.5 -86t113.5 -234q0 -112 -62.5 -193.5t-193.5 -144.5
l-123 -59l275 -234q18 62 24 132q20 190 207 190h213v-201zM682 1202q-89 0 -139.5 -43.5t-50.5 -124.5q0 -108 81 -207l119 56q83 40 122.5 77.5t39.5 94.5q0 70 -43.5 108.5t-128.5 38.5zM627 168q159 0 264 94l-371 313q-151 -89 -151 -215q0 -88 67 -140t191 -52z" />
    <glyph glyph-name="quotesingle" unicode="'" horiz-adv-x="342" 
d="M41 1362h260l-27 -528h-206z" />
    <glyph glyph-name="parenleft" unicode="(" horiz-adv-x="829" 
d="M82 580q0 159 37 304.5t94 253t135.5 202t152.5 156.5t154 112l113 -111q-381 -356 -381 -917q0 -562 381 -918l-113 -111q-80 50 -154 112t-152.5 157t-135.5 202.5t-94 253t-37 304.5z" />
    <glyph glyph-name="parenright" unicode=")" horiz-adv-x="829" 
d="M748 580q0 -159 -37 -304.5t-94 -253t-136 -202.5t-152 -157t-153 -112l-115 111q381 356 381 918q0 561 -381 917l115 111q80 -50 153 -112t152 -156.5t136 -202t94 -253t37 -304.5z" />
    <glyph glyph-name="asterisk" unicode="*" horiz-adv-x="829" 
d="M61 1118l74 121l242 -172l-31 295h139l-30 -295l241 172l70 -121l-268 -119l270 -125l-72 -122l-241 174l30 -295h-139l31 295l-242 -174l-69 122l268 119z" />
    <glyph glyph-name="plus" unicode="+" horiz-adv-x="1208" 
d="M1034 631v-207h-317v-328h-223v328h-320v207h320v327h223v-327h317z" />
    <glyph glyph-name="comma" unicode="," horiz-adv-x="374" 
d="M41 10v260h293v-407q0 -101 -49 -153t-170 -52h-74v160h121v192h-121z" />
    <glyph glyph-name="hyphen" unicode="-" horiz-adv-x="972" 
d="M57 631h861v-207h-861v207z" />
    <glyph glyph-name="period" unicode="." horiz-adv-x="385" 
d="M41 0v270h303v-270h-303z" />
    <glyph glyph-name="slash" unicode="/" horiz-adv-x="823" 
d="M20 0l506 1362h277l-506 -1362h-277z" />
    <glyph glyph-name="zero" unicode="0" horiz-adv-x="1476" 
d="M737 -35q-140 0 -252 38.5t-187 104.5t-125.5 158t-72.5 195t-22 219q0 115 22 217.5t72.5 195t125 159.5t187 106t252.5 39t253 -39.5t188 -106.5t126 -159.5t73 -195t22 -216.5q0 -116 -22 -218.5t-72.5 -194.5t-126 -158.5t-188.5 -105t-253 -38.5zM401 680
q0 -234 75 -346.5t261 -112.5q187 0 262.5 112.5t75.5 346.5q0 237 -75 350t-263 113q-186 0 -261 -113t-75 -350z" />
    <glyph glyph-name="one" unicode="1" horiz-adv-x="1064" 
d="M119 0v244h305v874h-285v244h285q162 0 236.5 -70.5t74.5 -195.5v-852h271v-244h-887z" />
    <glyph glyph-name="two" unicode="2" horiz-adv-x="1413" 
d="M129 0v244l692 495q80 57 113 112.5t33 123.5q0 81 -55.5 132.5t-168.5 51.5q-306 0 -313 -342h-315q2 89 22.5 169.5t68.5 156.5t119 131.5t181 89t248 33.5q145 0 250.5 -31.5t165 -88.5t87 -126t27.5 -154q0 -139 -96 -262t-326 -270l-313 -221h762v-244h-1182z" />
    <glyph glyph-name="three" unicode="3" horiz-adv-x="1357" 
d="M80 442h315q6 -117 80.5 -179t200.5 -62q128 0 197 61t69 180q0 107 -65 168.5t-172 61.5q-116 0 -224 -64l-116 191l471 319h-699v244h1049v-244l-459 -311q62 12 143 12q50 0 100 -10t105 -37.5t97 -69t69 -111t27 -157.5q0 -100 -33.5 -183t-102.5 -148.5
t-185.5 -101.5t-270.5 -36q-284 0 -438.5 125t-157.5 352z" />
    <glyph glyph-name="four" unicode="4" horiz-adv-x="1388" 
d="M1110 539h221v-244h-221v-295h-309v295h-742v244l590 823h461v-823zM326 539h475v649z" />
    <glyph glyph-name="five" unicode="5" horiz-adv-x="1361" 
d="M795 899q220 0 353.5 -113.5t133.5 -332.5q0 -230 -153.5 -359t-458.5 -129q-144 0 -255.5 33.5t-179.5 92t-103.5 133.5t-39.5 163h326q10 -81 75 -132.5t193 -51.5q144 0 212.5 62.5t68.5 187.5t-65 188.5t-189 63.5q-183 0 -275 -132h-301l51 789h1031v-244h-779
l-24 -344q128 125 379 125z" />
    <glyph glyph-name="six" unicode="6" horiz-adv-x="1349" 
d="M799 872q72 0 138 -15t124.5 -48t101 -81t67.5 -118.5t25 -156.5q0 -218 -155.5 -353t-413.5 -135q-108 0 -197 22.5t-166 74.5t-130 132t-83 201t-30 275q0 185 47 326t132 228t197.5 130t250.5 43q251 0 388 -106.5t158 -295.5h-307q-32 168 -239 168
q-168 0 -245 -107.5t-77 -326.5v-27q64 81 173 125.5t241 44.5zM676 201q262 0 262 235q0 115 -63 176.5t-191 61.5q-134 0 -203 -63.5t-69 -174.5q0 -106 64.5 -170.5t199.5 -64.5z" />
    <glyph glyph-name="seven" unicode="7" horiz-adv-x="1198" 
d="M55 1118v244h1088v-184q-89 -86 -150.5 -156t-131.5 -177.5t-114 -221t-77 -274t-41 -349.5h-312q23 620 510 1118h-772z" />
    <glyph glyph-name="eight" unicode="8" horiz-adv-x="1323" 
d="M662 -33q-126 0 -226.5 22.5t-165.5 60t-108.5 89.5t-61.5 108.5t-18 119.5q0 110 61 200.5t187 137.5q-209 101 -209 315q0 58 17 110.5t57 101.5t100.5 84.5t154.5 57t212 21.5q146 0 255 -32t169.5 -86.5t89 -118.5t28.5 -138q0 -103 -55 -183t-156 -130
q126 -49 187 -139.5t61 -200.5q0 -63 -18 -119t-61 -108.5t-108 -90t-165.5 -60t-226.5 -22.5zM662 795q253 0 253 194q0 189 -253 189q-252 0 -252 -189q0 -194 252 -194zM662 184q268 0 268 209q0 98 -66 154.5t-202 56.5t-202.5 -56.5t-66.5 -154.5q0 -209 269 -209z" />
    <glyph glyph-name="nine" unicode="9" horiz-adv-x="1349" 
d="M664 1399q108 0 197 -22.5t166 -74.5t130 -132t83 -201t30 -275q0 -184 -47 -325t-132 -228t-197.5 -130.5t-250.5 -43.5q-251 0 -388.5 107t-158.5 295h307q33 -168 240 -168q167 0 244.5 108.5t77.5 327.5v27q-64 -82 -173 -127t-241 -45q-72 0 -138 15t-124.5 48
t-101.5 81t-68 118.5t-25 156.5q0 218 156 353t414 135zM666 690q134 0 203 63.5t69 176.5q0 106 -64.5 170.5t-199.5 64.5q-262 0 -262 -235q0 -115 63 -177.5t191 -62.5z" />
    <glyph glyph-name="colon" unicode=":" horiz-adv-x="385" 
d="M41 754v270h303v-270h-303zM41 0v270h303v-270h-303z" />
    <glyph glyph-name="semicolon" unicode=";" horiz-adv-x="385" 
d="M41 754v270h303v-270h-303zM41 10v260h293v-407q0 -101 -49 -153t-170 -52h-74v160h121v192h-121z" />
    <glyph glyph-name="less" unicode="&#x3c;" horiz-adv-x="1081" 
d="M907 932v-201l-561 -211l561 -213v-198l-733 276v270z" />
    <glyph glyph-name="equal" unicode="=" horiz-adv-x="1103" 
d="M174 819h754v-207h-754v207zM174 430h754v-207h-754v207z" />
    <glyph glyph-name="greater" unicode="&#x3e;" horiz-adv-x="1081" 
d="M174 932l733 -277v-270l-733 -276v198l561 213l-561 211v201z" />
    <glyph glyph-name="question" unicode="?" horiz-adv-x="1386" 
d="M547 483v203h117q301 0 301 240q0 101 -61.5 163t-178.5 62q-279 0 -295 -277h-315q4 76 23 145.5t64.5 140.5t112.5 122.5t175.5 84t246.5 32.5q143 0 250 -35t171 -98t95 -144t31 -180q0 -217 -142.5 -338t-396.5 -121h-198zM555 0v270h303v-270h-303z" />
    <glyph glyph-name="at" unicode="@" horiz-adv-x="2217" 
d="M1151 -410q-323 0 -554.5 103t-357.5 308.5t-126 498.5q0 212 65 386.5t188 300t311 194.5t425 69q483 0 745 -219.5t262 -655.5q0 -149 -40 -259t-112.5 -173t-163.5 -93t-204 -30h-248l-10 175q-41 -92 -130 -141.5t-212 -49.5q-117 0 -202.5 40t-134 111.5t-71 160
t-22.5 196.5q0 87 13.5 161.5t45.5 140.5t80.5 112t122.5 73t168 27q122 0 202 -41t130 -127v137h289v-780h43q101 0 168 91.5t67 289.5q0 337 -196.5 509.5t-589.5 172.5q-191 0 -338.5 -56t-241 -158.5t-141 -242t-47.5 -309.5q0 -367 211.5 -552t603.5 -185h428v-185
h-426zM1085 231q128 0 185 64.5t57 220.5q0 155 -57 219t-185 64q-130 0 -180.5 -63.5t-50.5 -219.5q0 -157 51 -221t180 -64z" />
    <glyph glyph-name="A" unicode="A" horiz-adv-x="1554" 
d="M1182 0l-99 279h-610l-98 -279h-314l480 1362h475l479 -1362h-313zM557 518h442l-221 629z" />
    <glyph glyph-name="B" unicode="B" horiz-adv-x="1386" 
d="M1006 702q299 -47 299 -331q0 -175 -113 -273t-328 -98h-745v1362h760q106 0 186 -26.5t127.5 -73t70.5 -106t23 -130.5q0 -265 -280 -324zM786 1126h-356v-325h346q185 0 185 164q0 81 -40.5 121t-134.5 40zM795 238q186 0 186 176q0 178 -205 178h-346v-354h365z" />
    <glyph glyph-name="C" unicode="C" horiz-adv-x="1585" 
d="M805 -35q-150 0 -270.5 38t-202 103.5t-136.5 157t-79.5 195t-24.5 221.5q0 116 24.5 219.5t80 195.5t137 158.5t203 105t270.5 38.5q174 0 301 -36t208.5 -109.5t125 -177.5t55.5 -247h-319q-14 158 -99.5 237t-267.5 79q-203 0 -298 -115.5t-95 -347.5
q0 -231 91.5 -345t291.5 -114q191 0 280 82t101 248h321q-22 -302 -183.5 -444t-514.5 -142z" />
    <glyph glyph-name="D" unicode="D" horiz-adv-x="1495" 
d="M774 1362q129 0 236 -36t181.5 -99t126 -149.5t75.5 -185.5t24 -208q0 -110 -24 -209.5t-75.5 -186.5t-126 -151t-181.5 -100.5t-236 -36.5h-655v1362h655zM705 248q205 0 297 107.5t92 328.5t-92.5 326.5t-296.5 105.5h-275v-868h275z" />
    <glyph glyph-name="E" unicode="E" horiz-adv-x="1296" 
d="M430 248h764v-248h-1075v1362h1069v-246h-758v-305h696v-231h-696v-332z" />
    <glyph glyph-name="F" unicode="F" horiz-adv-x="1267" 
d="M1182 1116h-752v-330h682v-231h-682v-555h-311v1362h1063v-246z" />
    <glyph glyph-name="G" unicode="G" horiz-adv-x="1619" 
d="M741 -35q-164 0 -290 56t-203.5 155t-116.5 227t-39 279q0 153 43 280t129.5 225.5t230 154t330.5 55.5q166 0 292 -36.5t205 -104t121 -155.5t52 -200h-315q-14 121 -102.5 186.5t-254.5 65.5q-205 0 -305 -115.5t-100 -357.5q0 -234 94.5 -351.5t296.5 -117.5
q98 0 170.5 24t116 68.5t67 97.5t33.5 121h-485v203h782v-725h-266v262q-45 -134 -164 -215.5t-322 -81.5z" />
    <glyph glyph-name="H" unicode="H" horiz-adv-x="1480" 
d="M1053 1362h311v-1362h-311v573h-625v-573h-309v1362h309v-545h625v545z" />
    <glyph glyph-name="I" unicode="I" horiz-adv-x="1052" 
d="M934 1116h-252v-868h252v-248h-815v248h252v868h-252v246h815v-246z" />
    <glyph glyph-name="J" unicode="J" horiz-adv-x="931" 
d="M70 0v248h442v1114h311v-932q0 -231 -99.5 -330.5t-338.5 -99.5h-315z" />
    <glyph glyph-name="K" unicode="K" horiz-adv-x="1454" 
d="M856 786l537 -770v-16h-373l-373 559l-217 -237v-322h-311v1362h311v-641l547 641h405z" />
    <glyph glyph-name="L" unicode="L" horiz-adv-x="1107" 
d="M432 248h637v-248h-950v1362h313v-1114z" />
    <glyph glyph-name="M" unicode="M" horiz-adv-x="1935" 
d="M1819 1362v-1362h-312v1157l-358 -1157h-361l-360 1163v-1163h-309v1362h534l320 -1055l319 1055h527z" />
    <glyph glyph-name="N" unicode="N" horiz-adv-x="1556" 
d="M1139 1362h299v-1362h-516l-426 930q-52 116 -78 209v-1139h-299v1362h516l430 -944q37 -84 74 -197v1141z" />
    <glyph glyph-name="O" unicode="O" horiz-adv-x="1619" 
d="M811 -35q-152 0 -274.5 38.5t-204.5 104.5t-137 158t-79 195t-24 219q0 115 24 217.5t79 195t137 159.5t204.5 106t274.5 39t274.5 -39.5t204 -106.5t136 -159.5t78.5 -195t24 -216.5q0 -116 -24 -218.5t-78.5 -194.5t-136 -158.5t-204 -105t-274.5 -38.5zM418 680
q0 -115 19.5 -197.5t64.5 -142.5t121.5 -89.5t187.5 -29.5t187.5 29.5t121.5 89.5t64.5 142.5t19.5 197.5q0 236 -88.5 349.5t-304.5 113.5t-304.5 -113.5t-88.5 -349.5z" />
    <glyph glyph-name="P" unicode="P" horiz-adv-x="1335" 
d="M842 1362q112 0 197 -34t135.5 -95t75 -138t24.5 -169q0 -97 -24.5 -177t-75 -142.5t-135 -97t-197.5 -34.5h-410v-475h-313v1362h723zM743 717q108 0 157.5 55.5t49.5 151.5q0 196 -205 196h-313v-403h311z" />
    <glyph glyph-name="Q" unicode="Q" horiz-adv-x="1640" 
d="M92 688q0 115 23.5 216.5t77.5 193t135 157t204 104t277 38.5q152 0 275.5 -38t203.5 -100.5t134 -147t77 -174t23 -185.5q0 -189 -80.5 -320.5t-227.5 -195.5h349v-236h-754q-154 0 -276.5 36t-204 98t-135.5 150t-77.5 188t-23.5 216zM418 698q0 -110 18.5 -188.5
t62.5 -138t121 -88.5t189 -29t189 29t121 88.5t62.5 138t18.5 188.5q0 112 -18.5 190.5t-62.5 138t-120.5 88t-189.5 28.5t-189.5 -28.5t-120.5 -88t-62.5 -138t-18.5 -190.5z" />
    <glyph glyph-name="R" unicode="R" horiz-adv-x="1382" 
d="M1251 332v-92q0 -113 27 -240h-311q-27 83 -27 236v71q0 111 -60.5 165t-166.5 54h-281v-526h-313v1362h719q220 0 335 -101t115 -272q0 -140 -79 -234.5t-205 -121.5q56 -14 97.5 -34.5t77 -54.5t54 -87.5t18.5 -124.5zM768 750q103 0 149 48t46 146q0 176 -195 176
h-336v-370h336z" />
    <glyph glyph-name="S" unicode="S" horiz-adv-x="1368" 
d="M80 449h303q6 -116 82.5 -184t230.5 -68q148 0 211.5 46.5t63.5 133.5q0 148 -183 172l-301 39q-183 22 -279.5 120.5t-96.5 266.5q0 192 144.5 307t422.5 115q148 0 261.5 -34t182.5 -95t105.5 -138.5t42.5 -171.5h-305q-12 99 -84 154t-203 55q-122 0 -188 -46.5
t-66 -127.5q0 -63 39 -102.5t121 -48.5l284 -35q416 -47 416 -399q0 -443 -592 -443q-131 0 -235 27t-172 72t-114 108t-67 131t-24 146z" />
    <glyph glyph-name="T" unicode="T" horiz-adv-x="1343" 
d="M1276 1362v-246h-449v-1116h-311v1116h-448v246h1208z" />
    <glyph glyph-name="U" unicode="U" horiz-adv-x="1447" 
d="M113 510v852h311v-809q0 -130 34.5 -203.5t97.5 -101t169 -27.5t169 27.5t97.5 101t34.5 203.5v809h309v-852q0 -267 -153 -405t-457 -138q-305 0 -458.5 137.5t-153.5 405.5z" />
    <glyph glyph-name="V" unicode="V" horiz-adv-x="1503" 
d="M1124 1362h314l-457 -1362h-457l-456 1362h321l301 -893q45 -138 66 -225q36 137 65 225z" />
    <glyph glyph-name="W" unicode="W" horiz-adv-x="2207" 
d="M1815 1362h307l-256 -1362h-529l-233 1120l-234 -1120h-528l-254 1362h305l221 -1180l256 1180h469l256 -1180z" />
    <glyph glyph-name="X" unicode="X" horiz-adv-x="1570" 
d="M1509 0h-387l-348 453l-325 -453h-379l524 688l-520 674h381l340 -440l319 440h371l-510 -672z" />
    <glyph glyph-name="Y" unicode="Y" horiz-adv-x="1429" 
d="M1038 1362h346l-512 -950v-412h-311v412l-514 950h348l223 -473q75 -174 95 -225q60 137 100 225z" />
    <glyph glyph-name="Z" unicode="Z" horiz-adv-x="1409" 
d="M512 248h809v-248h-1206v248l803 868h-787v246h1184v-246z" />
    <glyph glyph-name="bracketleft" unicode="[" horiz-adv-x="1120" 
d="M1028 1325h-557v-1493h557v-242h-858v1977h858v-242z" />
    <glyph glyph-name="backslash" unicode="\" horiz-adv-x="823" 
d="M803 0h-277l-506 1362h277z" />
    <glyph glyph-name="bracketright" unicode="]" horiz-adv-x="1120" 
d="M952 1567v-1977h-858v242h557v1493h-557v242h858z" />
    <glyph glyph-name="asciicircum" unicode="^" horiz-adv-x="1146" 
d="M973 745h-201l-199 443l-198 -443h-201l277 617h245z" />
    <glyph glyph-name="underscore" unicode="_" horiz-adv-x="972" 
d="M57 0h861v-207h-861v207z" />
    <glyph glyph-name="grave" unicode="`" horiz-adv-x="1228" 
d="M63 1204l60 193l518 -178l-25 -80z" />
    <glyph glyph-name="a" unicode="a" horiz-adv-x="1185" 
d="M430 -27q-156 0 -248 80.5t-92 218.5q0 131 73.5 207.5t262.5 108.5l242 41q70 12 98.5 35t28.5 67q0 58 -40.5 88.5t-138.5 30.5q-202 0 -208 -160h-297q6 167 138 268t361 101t346 -92t117 -258v-443q0 -116 17 -266h-265q-16 109 -16 219q-37 -112 -133 -179t-246 -67
zM532 180q121 0 192 82.5t71 224.5v45q-58 -41 -168 -65l-86 -21q-82 -20 -117 -52.5t-35 -90.5q0 -59 39.5 -91t103.5 -32z" />
    <glyph glyph-name="b" unicode="b" horiz-adv-x="1329" 
d="M782 1057q122 0 215 -43.5t148 -119.5t82.5 -171.5t27.5 -208.5q0 -91 -16.5 -171t-53.5 -149.5t-91 -119.5t-134 -78.5t-178 -28.5q-249 0 -364 180v-147h-303v1434h303v-560q115 183 364 183zM690 205q142 0 201 72.5t59 234.5q0 163 -59 235t-201 72
q-143 0 -207.5 -74.5t-64.5 -232.5t64.5 -232.5t207.5 -74.5z" />
    <glyph glyph-name="c" unicode="c" horiz-adv-x="1247" 
d="M76 512q0 88 20 167t63.5 148.5t108 120t159 80t210.5 29.5q129 0 231.5 -34.5t167.5 -96t100 -142t38 -176.5h-295q-17 211 -236 211q-129 0 -195.5 -71t-66.5 -236q0 -167 64.5 -237t193.5 -70q115 0 175.5 59t70.5 158h295q-2 -92 -36.5 -172.5t-98.5 -144.5
t-167.5 -101t-234.5 -37q-145 0 -256.5 44.5t-177.5 121t-99.5 172.5t-33.5 207z" />
    <glyph glyph-name="d" unicode="d" horiz-adv-x="1329" 
d="M913 1434h304v-1434h-304v152q-114 -185 -366 -185q-121 0 -213.5 43t-147.5 119.5t-82.5 173t-27.5 211.5q0 112 27.5 208t82.5 172t147.5 119.5t213.5 43.5q251 0 366 -187v564zM641 205q142 0 207 74.5t65 232.5t-65 232.5t-207 74.5q-143 0 -202.5 -72.5
t-59.5 -234.5q0 -161 60 -234t202 -73z" />
    <glyph glyph-name="e" unicode="e" horiz-adv-x="1228" 
d="M633 176q180 0 231 133h291q-9 -52 -30 -98.5t-62.5 -92.5t-98.5 -78.5t-143.5 -52.5t-193.5 -20q-116 0 -210 29.5t-156.5 80t-105 120.5t-61 149t-18.5 168q0 90 20.5 170.5t64.5 149t108 118t155.5 77.5t202.5 28q113 0 203.5 -28.5t150.5 -78t100.5 -119t58 -148
t17.5 -167.5q0 -59 -4 -82h-780q13 -140 79 -199t181 -59zM631 852q-113 0 -175.5 -53.5t-80.5 -180.5h493q-8 118 -66 176t-171 58z" />
    <glyph glyph-name="f" unicode="f" horiz-adv-x="835" 
d="M223 0v795h-182v145l182 88v94q0 151 83 231.5t267 80.5h263v-220h-353v-190h297v-229h-254v-795h-303z" />
    <glyph glyph-name="g" unicode="g" horiz-adv-x="1333" 
d="M915 1024h304v-983q0 -241 -134.5 -357t-439.5 -116q-255 0 -391.5 104.5t-147.5 282.5h297q20 -174 254 -174q135 0 196.5 52.5t61.5 172.5v187q-109 -162 -356 -162q-122 0 -215 39.5t-149.5 110.5t-84.5 161.5t-28 198.5q0 110 28 201.5t84.5 162.5t149.5 110.5
t215 39.5q244 0 356 -166v135zM655 254q139 0 199.5 68t60.5 215q0 148 -60.5 215t-199.5 67q-145 0 -207.5 -64.5t-62.5 -217.5t62.5 -218t207.5 -65z" />
    <glyph glyph-name="h" unicode="h" horiz-adv-x="1275" 
d="M791 1057q380 0 380 -428v-629h-303v582q0 120 -49 174.5t-145 54.5q-125 0 -188.5 -83.5t-63.5 -262.5v-465h-303v1434h303v-611q111 234 369 234z" />
    <glyph glyph-name="i" unicode="i" horiz-adv-x="538" 
d="M104 1159v203h330v-203h-330zM119 0v1024h303v-1024h-303z" />
    <glyph glyph-name="j" unicode="j" horiz-adv-x="548" 
d="M119 1159v203h330v-203h-330zM-174 -410v240h305v1194h303v-1065q0 -190 -87.5 -279.5t-299.5 -89.5h-221z" />
    <glyph glyph-name="k" unicode="k" horiz-adv-x="1255" 
d="M881 0l-297 401l-162 -155v-246h-303v1434h303v-887q59 83 106 135l326 342h363v-8l-441 -428l465 -588h-360z" />
    <glyph glyph-name="l" unicode="l" horiz-adv-x="538" 
d="M119 0v1434h303v-1434h-303z" />
    <glyph glyph-name="m" unicode="m" horiz-adv-x="1957" 
d="M1477 1057q191 0 283.5 -111t92.5 -317v-629h-303v586q0 115 -45.5 170t-138.5 55q-117 0 -174 -82.5t-57 -263.5v-465h-297v586q0 225 -185 225q-117 0 -174 -82.5t-57 -263.5v-465h-303v1024h303v-186q102 219 350 219q268 0 338 -238q103 238 367 238z" />
    <glyph glyph-name="n" unicode="n" horiz-adv-x="1275" 
d="M791 1057q380 0 380 -428v-629h-303v582q0 120 -49 174.5t-145 54.5q-125 0 -188.5 -83.5t-63.5 -262.5v-465h-303v1024h303v-201q111 234 369 234z" />
    <glyph glyph-name="o" unicode="o" horiz-adv-x="1286" 
d="M643 -33q-119 0 -215.5 29.5t-161 80t-108 121t-63 149.5t-19.5 167q0 87 19.5 165t63 148t108 120.5t161 80t215.5 29.5t216 -29.5t161.5 -80.5t108 -121t62.5 -147.5t19 -164.5q0 -88 -19 -166.5t-62.5 -149t-108 -121.5t-161.5 -80.5t-216 -29.5zM381 512
q0 -168 61 -237.5t201 -69.5q141 0 202.5 69.5t61.5 237.5t-61.5 237.5t-202.5 69.5q-140 0 -201 -69.5t-61 -237.5z" />
    <glyph glyph-name="p" unicode="p" horiz-adv-x="1329" 
d="M782 1057q122 0 215 -43t148 -119.5t82.5 -172.5t27.5 -210q0 -113 -27.5 -208.5t-82.5 -172.5t-148 -120.5t-215 -43.5q-249 0 -364 183v-560h-303v1434h303v-147q115 180 364 180zM690 205q142 0 201 72.5t59 234.5q0 163 -59 235t-201 72q-143 0 -207.5 -74.5
t-64.5 -232.5t64.5 -232.5t207.5 -74.5z" />
    <glyph glyph-name="q" unicode="q" horiz-adv-x="1329" 
d="M913 1024h304v-1434h-304v564q-115 -187 -366 -187q-121 0 -213.5 43.5t-147.5 120.5t-82.5 172.5t-27.5 208.5q0 114 27.5 210t82.5 172.5t147.5 119.5t213.5 43q252 0 366 -185v152zM641 205q142 0 207 74.5t65 232.5t-65 232.5t-207 74.5q-143 0 -202.5 -72.5
t-59.5 -234.5q0 -161 60 -234t202 -73z" />
    <glyph glyph-name="r" unicode="r" horiz-adv-x="841" 
d="M727 1040h68v-295h-101q-149 0 -210.5 -82t-61.5 -260v-403h-303v1024h295v-219q79 235 313 235z" />
    <glyph glyph-name="s" unicode="s" horiz-adv-x="1101" 
d="M53 334h277q6 -78 65.5 -127t169.5 -49q185 0 185 118q0 50 -31.5 80.5t-112.5 40.5l-229 29q-145 19 -221 94.5t-76 204.5q0 165 126.5 249.5t338.5 84.5q213 0 340.5 -84.5t140.5 -249.5h-281q-8 66 -58 104.5t-142 38.5q-94 0 -139.5 -31t-45.5 -83q0 -90 129 -105
l216 -24q179 -23 257 -100.5t78 -217.5q0 -340 -479 -340q-132 0 -231.5 29.5t-158 81.5t-87.5 116t-31 140z" />
    <glyph glyph-name="t" unicode="t" horiz-adv-x="860" 
d="M586 0q-108 0 -181.5 23t-116.5 71t-61 114t-18 161v426h-186v145l210 86l125 242h154v-244h295v-229h-295v-553h266v-242h-192z" />
    <glyph glyph-name="u" unicode="u" horiz-adv-x="1275" 
d="M854 1024h303v-1024h-303v197q-106 -230 -362 -230q-196 0 -292 111.5t-96 318.5v627h304v-582q0 -119 50.5 -173t149.5 -54q116 0 181 87t65 257v465z" />
    <glyph glyph-name="v" unicode="v" horiz-adv-x="1177" 
d="M870 1024h289l-356 -1024h-426l-357 1024h310l270 -788z" />
    <glyph glyph-name="w" unicode="w" horiz-adv-x="1863" 
d="M1546 1024h285l-270 -1024h-422l-207 709l-205 -709h-424l-270 1024h307l197 -799l249 799h316l250 -797z" />
    <glyph glyph-name="x" unicode="x" horiz-adv-x="1159" 
d="M23 0l383 500l-388 524h357l217 -324l209 324h327l-372 -508l391 -516h-354l-220 319l-215 -319h-335z" />
    <glyph glyph-name="y" unicode="y" horiz-adv-x="1189" 
d="M881 1024h288l-358 -1055q-27 -81 -52.5 -136t-63 -104.5t-84 -78t-113 -44.5t-154.5 -16h-256v240h395l68 188h-174l-350 1006h309l225 -639l53 -168l48 168z" />
    <glyph glyph-name="z" unicode="z" horiz-adv-x="1118" 
d="M449 223h593v-223h-960v223l596 580h-588v221h946v-221z" />
    <glyph glyph-name="braceleft" unicode="{" horiz-adv-x="913" 
d="M82 461v237h59q86 0 123 44t37 141v301q0 196 134.5 308t418.5 112v-125q-133 -5 -196.5 -81.5t-63.5 -242.5v-295q0 -214 -203 -254v-53q203 -40 203 -254v-295q0 -166 63.5 -242t196.5 -81v-125q-284 0 -418.5 111.5t-134.5 307.5v301q0 97 -37 141t-123 44h-59z" />
    <glyph glyph-name="bar" unicode="|" horiz-adv-x="649" 
d="M174 -410v1977h301v-1977h-301z" />
    <glyph glyph-name="braceright" unicode="}" horiz-adv-x="913" 
d="M831 461h-59q-86 0 -123 -44t-37 -141v-301q0 -196 -134.5 -307.5t-418.5 -111.5v125q133 5 196.5 81t63.5 242v295q0 214 203 254v53q-203 40 -203 254v295q0 166 -63.5 242.5t-196.5 81.5v125q284 0 418.5 -112t134.5 -308v-301q0 -97 37 -141t123 -44h59v-237z" />
    <glyph glyph-name="asciitilde" unicode="~" horiz-adv-x="1097" 
d="M739 338q-61 0 -118.5 25.5t-93 55.5t-72.5 55.5t-62 25.5q-51 0 -51 -66v-82h-168v156q0 87 52 128.5t132 41.5q52 0 98.5 -16.5t80 -40t62.5 -47t56.5 -40t51.5 -16.5q49 0 49 64v82h168v-150q0 -86 -55 -131t-130 -45z" />
    <glyph glyph-name="exclamdown" unicode="&#xa1;" horiz-adv-x="520" 
d="M109 1024h303v-270h-303v270zM160 584h200l54 -922h-308z" />
    <glyph glyph-name="cent" unicode="&#xa2;" horiz-adv-x="1110" 
d="M946 846q-2 -116 -71.5 -201.5t-196.5 -112.5v-151h-232v151q-138 31 -210 132.5t-72 242.5q0 140 71.5 242t210.5 133v152h232v-152q125 -27 193.5 -110t70.5 -201h-215q-6 72 -47.5 109.5t-114.5 37.5q-91 0 -134.5 -50t-43.5 -161q0 -113 42 -162t134 -49
q76 0 119 39.5t49 110.5h215z" />
    <glyph glyph-name="sterling" unicode="&#xa3;" horiz-adv-x="1241" 
d="M621 219h477v-219h-955v219h174v406h-151v188h151v252q0 190 88 279.5t300 89.5h329v-240h-413v-381h309v-188h-309v-406z" />
    <glyph glyph-name="yen" unicode="&#xa5;" horiz-adv-x="1429" 
d="M1384 1362l-393 -731h199v-166h-289l-29 -53v-41h318v-166h-318v-205h-311v205h-317v166h317v41l-29 53h-288v166h198l-395 731h348l223 -473q33 -76 95 -250q70 186 100 250l225 473h346z" />
    <glyph glyph-name="brokenbar" unicode="&#xa6;" horiz-adv-x="649" 
d="M174 748v819h301v-819h-301zM174 -410v820h301v-820h-301z" />
    <glyph glyph-name="section" unicode="&#xa7;" horiz-adv-x="1255" 
d="M162 -66h241q5 -89 62 -139.5t172 -50.5q207 0 207 133q0 109 -133 127l-234 29q-141 17 -217 95.5t-76 209.5q0 153 113.5 238t339.5 92q108 4 153.5 35t45.5 98q0 106 -136 125l-233 28q-140 17 -216.5 97t-76.5 211q0 152 116 239.5t328 87.5q218 0 333 -92.5
t124 -251.5h-244q-19 158 -213 158q-90 0 -141 -33t-51 -94q0 -97 117 -111l219 -26q323 -37 323 -314q0 -165 -108.5 -249t-351.5 -97q-100 -8 -145.5 -36t-45.5 -85q0 -100 119 -114l217 -27q324 -36 324 -315q0 -168 -111 -256t-350 -88q-232 0 -349 102.5t-122 273.5z
" />
    <glyph glyph-name="dieresis" unicode="&#xa8;" horiz-adv-x="1228" 
d="M129 1159v203h279v-203h-279zM565 1159v203h279v-203h-279z" />
    <glyph glyph-name="copyright" unicode="&#xa9;" horiz-adv-x="1804" 
d="M903 -37q-206 0 -376.5 96t-267.5 261t-97 362q0 116 36.5 225t104 197.5t158 155t204.5 103t238 36.5q206 0 377 -97t268 -261.5t97 -358.5q0 -147 -57.5 -280t-155.5 -229.5t-236 -153t-293 -56.5zM903 170q148 0 268 68.5t186 185.5t66 258q0 140 -66 256.5t-186 185
t-268 68.5q-149 0 -269 -68.5t-185.5 -184.5t-65.5 -257q0 -216 147 -364t373 -148zM537 684q0 157 95 258.5t275 101.5q168 0 260.5 -84t94.5 -221h-205q-9 135 -146 135q-83 0 -123 -44.5t-40 -145.5q0 -104 38 -148t123 -44q142 0 154 141h205q-2 -134 -96.5 -221.5
t-260.5 -87.5q-182 0 -278 101t-96 259z" />
    <glyph glyph-name="guillemotleft" unicode="&#xab;" horiz-adv-x="1542" 
d="M109 494v36l405 494h320l-435 -512l435 -512h-320zM715 494v36l405 494h320l-434 -512l434 -512h-320z" />
    <glyph glyph-name="logicalnot" unicode="&#xac;" horiz-adv-x="1208" 
d="M1034 631v-426h-211v219h-649v207h860z" />
    <glyph glyph-name="registered" unicode="&#xae;" horiz-adv-x="1265" 
d="M633 1399q139 0 256.5 -68t185.5 -184.5t68 -253.5q0 -140 -68.5 -258.5t-186 -187t-255.5 -68.5t-255.5 68.5t-186 187t-68.5 258.5q0 137 68 253.5t185.5 184.5t256.5 68zM635 537q147 0 245.5 103.5t98.5 252.5q0 148 -99 251t-245 103q-150 0 -248 -103t-98 -251
t98 -252t248 -104zM862 999q0 -53 -34.5 -84.5t-98.5 -37.5q63 -4 91 -30t28 -77v-27q0 -55 10 -94h-133q-12 24 -12 94v23q0 61 -62 61h-80v-178h-137v488h260q77 0 122.5 -37t45.5 -101zM659 930q58 0 58 51q0 45 -53 45h-93v-96h88z" />
    <glyph glyph-name="macron" unicode="&#xaf;" horiz-adv-x="1228" 
d="M188 1362h754v-178h-754v178z" />
    <glyph glyph-name="degree" unicode="&#xb0;" horiz-adv-x="925" 
d="M463 741q-169 0 -270 107t-101 262q0 147 101.5 251.5t269.5 104.5t269.5 -104.5t101.5 -251.5q0 -155 -101 -262t-270 -107zM291 1106q0 -80 49.5 -129t122.5 -49t123.5 49t50.5 129q0 81 -50 127.5t-124 46.5t-123 -46t-49 -128z" />
    <glyph glyph-name="plusminus" unicode="&#xb1;" horiz-adv-x="1214" 
d="M713 799h327v-187h-327v-223h-211v223h-328v187h328v225h211v-225zM174 100v187h866v-187h-866z" />
    <glyph glyph-name="acute" unicode="&#xb4;" horiz-adv-x="1228" 
d="M639 1204l-553 -65l-25 80l519 178z" />
    <glyph glyph-name="uni00B5" unicode="&#xb5;" horiz-adv-x="1275" 
d="M854 1024h303v-1024h-303v188q-101 -221 -352 -221q-53 0 -109 17v-394h-289v1434h304v-582q0 -119 50.5 -173t149.5 -54q116 0 181 87t65 257v465z" />
    <glyph glyph-name="paragraph" unicode="&#xb6;" horiz-adv-x="1665" 
d="M1049 1362v-1772h-316v885h-176q-113 0 -198 34.5t-135.5 97t-75.5 142.5t-25 177q0 92 25 169t75.5 138t136 95t197.5 34h492zM1186 1362h315v-1772h-315v1772z" />
    <glyph glyph-name="periodcentered" unicode="&#xb7;" horiz-adv-x="385" 
d="M41 375v270h303v-270h-303z" />
    <glyph glyph-name="cedilla" unicode="&#xb8;" horiz-adv-x="1228" 
d="M119 -375v189h160l-64 266h213l59 -262q20 -86 -20.5 -139.5t-128.5 -53.5h-219z" />
    <glyph glyph-name="guillemotright" unicode="&#xbb;" horiz-adv-x="1542" 
d="M829 494l-405 -494h-322l435 512l-435 512h322l405 -494v-36zM1436 494l-406 -494h-321l434 512l-434 512h321l406 -494v-36z" />
    <glyph glyph-name="questiondown" unicode="&#xbf;" horiz-adv-x="1386" 
d="M831 1024v-270h-303v270h303zM840 543v-203h-115q-303 0 -303 -242q0 -101 61.5 -163t180.5 -62q279 0 292 279h318q-4 -77 -23.5 -147t-65 -141t-113.5 -122.5t-176.5 -84t-246.5 -32.5q-142 0 -249 35t-171 98t-95.5 145t-31.5 181q0 217 143 338t398 121h197z" />
    <glyph glyph-name="Agrave" unicode="&#xc0;" horiz-adv-x="1554" 
d="M1069 1556l-25 -79l-552 67l59 191zM1182 0l-99 279h-610l-98 -279h-314l480 1362h475l479 -1362h-313zM557 518h442l-221 629z" />
    <glyph glyph-name="Aacute" unicode="&#xc1;" horiz-adv-x="1554" 
d="M1069 1544l-551 -67l-26 79l518 179zM1182 0l-99 279h-610l-98 -279h-314l480 1362h475l479 -1362h-313zM557 518h442l-221 629z" />
    <glyph glyph-name="Acircumflex" unicode="&#xc2;" horiz-adv-x="1554" 
d="M780 1632l-229 -143l-100 110l247 152h164l248 -152l-100 -110zM1182 0l-99 279h-610l-98 -279h-314l480 1362h475l479 -1362h-313zM557 518h442l-221 629z" />
    <glyph glyph-name="Atilde" unicode="&#xc3;" horiz-adv-x="1554" 
d="M604 1528v-31h-188v59q0 87 51 127.5t137 40.5q61 0 120.5 -24t106 -48t76.5 -24q49 0 49 62v30h189v-53q0 -88 -52 -131t-137 -43q-55 0 -116 24t-110 48t-77 24q-49 0 -49 -61zM1182 0l-99 279h-610l-98 -279h-314l480 1362h475l479 -1362h-313zM557 518h442l-221 629z
" />
    <glyph glyph-name="Adieresis" unicode="&#xc4;" horiz-adv-x="1554" 
d="M715 1700v-203h-279v203h279zM1122 1700v-203h-278v203h278zM1182 0l-99 279h-610l-98 -279h-314l480 1362h475l479 -1362h-313zM557 518h442l-221 629z" />
    <glyph glyph-name="Aring" unicode="&#xc5;" horiz-adv-x="1554" 
d="M780 1438q-99 0 -158 61.5t-59 149.5t59 149.5t158 61.5t157 -61t58 -150t-58 -150t-157 -61zM780 1726q-33 0 -54 -19.5t-21 -57.5q0 -37 21.5 -58.5t53.5 -21.5q31 0 53.5 21.5t22.5 58.5t-22 57t-54 20zM1182 0l-99 279h-610l-98 -279h-314l480 1362h475l479 -1362
h-313zM557 518h442l-221 629z" />
    <glyph glyph-name="AE" unicode="&#xc6;" horiz-adv-x="2242" 
d="M1376 248h764v-248h-1075v279h-533l-174 -279h-307v12l842 1350h1241v-246h-758v-305h697v-231h-697v-332zM682 518h383v617z" />
    <glyph glyph-name="Ccedilla" unicode="&#xc7;" horiz-adv-x="1585" 
d="M1503 551q-21 -273 -151.5 -413.5t-411.5 -166.5l35 -153q20 -86 -21 -139.5t-129 -53.5h-219v189h160l-37 153q-134 10 -241.5 52.5t-180.5 108.5t-122 154.5t-71 187.5t-22 210q0 116 24.5 219.5t80 195.5t137 158.5t203 105t270.5 38.5q174 0 301 -36t208.5 -109.5
t125 -177.5t55.5 -247h-319q-14 158 -99.5 237t-267.5 79q-203 0 -298 -115.5t-95 -347.5q0 -231 91.5 -345t291.5 -114q191 0 280 82t101 248h321z" />
    <glyph glyph-name="Egrave" unicode="&#xc8;" horiz-adv-x="1296" 
d="M934 1556l-25 -79l-553 67l60 191zM430 248h764v-248h-1075v1362h1069v-246h-758v-305h696v-231h-696v-332z" />
    <glyph glyph-name="Eacute" unicode="&#xc9;" horiz-adv-x="1296" 
d="M934 1544l-551 -67l-27 79l518 179zM430 248h764v-248h-1075v1362h1069v-246h-758v-305h696v-231h-696v-332z" />
    <glyph glyph-name="Ecircumflex" unicode="&#xca;" horiz-adv-x="1296" 
d="M645 1632l-229 -143l-101 110l248 152h164l248 -152l-101 -110zM430 248h764v-248h-1075v1362h1069v-246h-758v-305h696v-231h-696v-332z" />
    <glyph glyph-name="Edieresis" unicode="&#xcb;" horiz-adv-x="1296" 
d="M580 1700v-203h-279v203h279zM987 1700v-203h-278v203h278zM430 248h764v-248h-1075v1362h1069v-246h-758v-305h696v-231h-696v-332z" />
    <glyph glyph-name="Igrave" unicode="&#xcc;" horiz-adv-x="1052" 
d="M815 1556l-24 -79l-553 67l59 191zM934 1116h-252v-868h252v-248h-815v248h252v868h-252v246h815v-246z" />
    <glyph glyph-name="Iacute" unicode="&#xcd;" horiz-adv-x="1052" 
d="M815 1544l-551 -67l-26 79l518 179zM934 1116h-252v-868h252v-248h-815v248h252v868h-252v246h815v-246z" />
    <glyph glyph-name="Icircumflex" unicode="&#xce;" horiz-adv-x="1052" 
d="M526 1632l-229 -143l-100 110l247 152h164l248 -152l-100 -110zM934 1116h-252v-868h252v-248h-815v248h252v868h-252v246h815v-246z" />
    <glyph glyph-name="Idieresis" unicode="&#xcf;" horiz-adv-x="1052" 
d="M461 1700v-203h-279v203h279zM868 1700v-203h-278v203h278zM934 1116h-252v-868h252v-248h-815v248h252v868h-252v246h815v-246z" />
    <glyph glyph-name="Eth" unicode="&#xd0;" horiz-adv-x="1656" 
d="M936 1362q129 0 236 -36t181.5 -99t126 -149.5t75.5 -185.5t24 -208q0 -110 -24 -209.5t-75.5 -186.5t-126 -151t-181.5 -100.5t-236 -36.5h-655v569h-224v215h224v578h655zM866 248q205 0 297 107.5t92 328.5t-92.5 326.5t-296.5 105.5h-274v-332h326v-215h-326v-321
h274z" />
    <glyph glyph-name="Ntilde" unicode="&#xd1;" horiz-adv-x="1556" 
d="M602 1528v-31h-188v59q0 87 51 127.5t137 40.5q61 0 120.5 -24t106 -48t76.5 -24q49 0 49 62v30h189v-53q0 -88 -52 -131t-137 -43q-55 0 -116 24t-110 48t-77 24q-49 0 -49 -61zM1139 1362h299v-1362h-516l-426 930q-52 116 -78 209v-1139h-299v1362h516l430 -944
q37 -84 74 -197v1141z" />
    <glyph glyph-name="Ograve" unicode="&#xd2;" horiz-adv-x="1619" 
d="M522 1544l60 191l518 -179l-25 -79zM811 -35q-152 0 -274.5 38.5t-204.5 104.5t-137 158t-79 195t-24 219q0 115 24 217.5t79 195t137 159.5t204.5 106t274.5 39t274.5 -39.5t204 -106.5t136 -159.5t78.5 -195t24 -216.5q0 -116 -24 -218.5t-78.5 -194.5t-136 -158.5
t-204 -105t-274.5 -38.5zM418 680q0 -115 19.5 -197.5t64.5 -142.5t121.5 -89.5t187.5 -29.5t187.5 29.5t121.5 89.5t64.5 142.5t19.5 197.5q0 236 -88.5 349.5t-304.5 113.5t-304.5 -113.5t-88.5 -349.5z" />
    <glyph glyph-name="Oacute" unicode="&#xd3;" horiz-adv-x="1619" 
d="M1100 1544l-551 -67l-27 79l518 179zM811 -35q-152 0 -274.5 38.5t-204.5 104.5t-137 158t-79 195t-24 219q0 115 24 217.5t79 195t137 159.5t204.5 106t274.5 39t274.5 -39.5t204 -106.5t136 -159.5t78.5 -195t24 -216.5q0 -116 -24 -218.5t-78.5 -194.5t-136 -158.5
t-204 -105t-274.5 -38.5zM418 680q0 -115 19.5 -197.5t64.5 -142.5t121.5 -89.5t187.5 -29.5t187.5 29.5t121.5 89.5t64.5 142.5t19.5 197.5q0 236 -88.5 349.5t-304.5 113.5t-304.5 -113.5t-88.5 -349.5z" />
    <glyph glyph-name="Ocircumflex" unicode="&#xd4;" horiz-adv-x="1619" 
d="M481 1599l248 152h164l248 -152l-101 -110l-229 143l-229 -143zM811 -35q-152 0 -274.5 38.5t-204.5 104.5t-137 158t-79 195t-24 219q0 115 24 217.5t79 195t137 159.5t204.5 106t274.5 39t274.5 -39.5t204 -106.5t136 -159.5t78.5 -195t24 -216.5q0 -116 -24 -218.5
t-78.5 -194.5t-136 -158.5t-204 -105t-274.5 -38.5zM418 680q0 -115 19.5 -197.5t64.5 -142.5t121.5 -89.5t187.5 -29.5t187.5 29.5t121.5 89.5t64.5 142.5t19.5 197.5q0 236 -88.5 349.5t-304.5 113.5t-304.5 -113.5t-88.5 -349.5z" />
    <glyph glyph-name="Otilde" unicode="&#xd5;" horiz-adv-x="1619" 
d="M987 1493q-55 0 -116 24t-110 48t-77 24q-49 0 -49 -61v-31h-189v59q0 87 51.5 127.5t137.5 40.5q61 0 120.5 -24t106 -48t76.5 -24q49 0 49 62v30h189v-53q0 -88 -52 -131t-137 -43zM811 -35q-152 0 -274.5 38.5t-204.5 104.5t-137 158t-79 195t-24 219q0 115 24 217.5
t79 195t137 159.5t204.5 106t274.5 39t274.5 -39.5t204 -106.5t136 -159.5t78.5 -195t24 -216.5q0 -116 -24 -218.5t-78.5 -194.5t-136 -158.5t-204 -105t-274.5 -38.5zM418 680q0 -115 19.5 -197.5t64.5 -142.5t121.5 -89.5t187.5 -29.5t187.5 29.5t121.5 89.5t64.5 142.5
t19.5 197.5q0 236 -88.5 349.5t-304.5 113.5t-304.5 -113.5t-88.5 -349.5z" />
    <glyph glyph-name="Odieresis" unicode="&#xd6;" horiz-adv-x="1619" 
d="M467 1497v203h278v-203h-278zM874 1497v203h279v-203h-279zM811 -35q-152 0 -274.5 38.5t-204.5 104.5t-137 158t-79 195t-24 219q0 115 24 217.5t79 195t137 159.5t204.5 106t274.5 39t274.5 -39.5t204 -106.5t136 -159.5t78.5 -195t24 -216.5q0 -116 -24 -218.5
t-78.5 -194.5t-136 -158.5t-204 -105t-274.5 -38.5zM418 680q0 -115 19.5 -197.5t64.5 -142.5t121.5 -89.5t187.5 -29.5t187.5 29.5t121.5 89.5t64.5 142.5t19.5 197.5q0 236 -88.5 349.5t-304.5 113.5t-304.5 -113.5t-88.5 -349.5z" />
    <glyph glyph-name="multiply" unicode="&#xd7;" horiz-adv-x="1282" 
d="M1108 858l-324 -323l318 -318l-139 -141l-320 319l-321 -321l-148 147l320 322l-316 315l141 141l316 -315l323 324z" />
    <glyph glyph-name="Oslash" unicode="&#xd8;" horiz-adv-x="1619" 
d="M1174 1323q122 -58 203 -161.5t116 -223.5t35 -258q0 -116 -24 -218.5t-78.5 -194.5t-136 -158.5t-204 -105t-274.5 -38.5q-91 0 -168 12l-139 -350l-197 76l133 338q-91 44 -159 112t-108.5 152t-60.5 177.5t-20 197.5q0 115 24 217.5t79 195t137 159.5t204.5 106
t274.5 39q80 0 160 -13l100 252l197 -73zM418 680q0 -280 125 -381l331 842q-20 2 -63 2q-216 0 -304.5 -113.5t-88.5 -349.5zM811 221q111 0 187.5 29.5t121.5 89.5t64.5 142.5t19.5 197.5q0 143 -30.5 239.5t-100.5 151.5l-334 -846q46 -4 72 -4z" />
    <glyph glyph-name="Ugrave" unicode="&#xd9;" horiz-adv-x="1447" 
d="M436 1544l60 191l518 -179l-25 -79zM113 510v852h311v-809q0 -130 34.5 -203.5t97.5 -101t169 -27.5t169 27.5t97.5 101t34.5 203.5v809h309v-852q0 -267 -153 -405t-457 -138q-305 0 -458.5 137.5t-153.5 405.5z" />
    <glyph glyph-name="Uacute" unicode="&#xda;" horiz-adv-x="1447" 
d="M1014 1544l-551 -67l-27 79l518 179zM113 510v852h311v-809q0 -130 34.5 -203.5t97.5 -101t169 -27.5t169 27.5t97.5 101t34.5 203.5v809h309v-852q0 -267 -153 -405t-457 -138q-305 0 -458.5 137.5t-153.5 405.5z" />
    <glyph glyph-name="Ucircumflex" unicode="&#xdb;" horiz-adv-x="1447" 
d="M395 1599l248 152h164l248 -152l-101 -110l-229 143l-229 -143zM113 510v852h311v-809q0 -130 34.5 -203.5t97.5 -101t169 -27.5t169 27.5t97.5 101t34.5 203.5v809h309v-852q0 -267 -153 -405t-457 -138q-305 0 -458.5 137.5t-153.5 405.5z" />
    <glyph glyph-name="Udieresis" unicode="&#xdc;" horiz-adv-x="1447" 
d="M381 1497v203h278v-203h-278zM788 1497v203h279v-203h-279zM113 510v852h311v-809q0 -130 34.5 -203.5t97.5 -101t169 -27.5t169 27.5t97.5 101t34.5 203.5v809h309v-852q0 -267 -153 -405t-457 -138q-305 0 -458.5 137.5t-153.5 405.5z" />
    <glyph glyph-name="Yacute" unicode="&#xdd;" horiz-adv-x="1429" 
d="M1006 1544l-551 -67l-27 79l518 179zM1038 1362h346l-512 -950v-412h-311v412l-514 950h348l223 -473q75 -174 95 -225q60 137 100 225z" />
    <glyph glyph-name="Thorn" unicode="&#xde;" horiz-adv-x="1335" 
d="M842 1124q112 0 197 -34t135.5 -95t75 -138t24.5 -169q0 -97 -24.5 -177t-75 -142t-135 -96.5t-197.5 -34.5h-410v-238h-313v1362h313v-238h410zM743 479q108 0 157.5 55.5t49.5 151.5q0 197 -205 197h-313v-404h311z" />
    <glyph glyph-name="germandbls" unicode="&#xdf;" horiz-adv-x="1376" 
d="M119 0v891q0 251 151 376.5t463 125.5q143 0 250.5 -29t170 -80.5t92.5 -115.5t30 -140q0 -135 -77.5 -216.5t-203.5 -106.5q299 -47 299 -334q0 -175 -112.5 -273t-327.5 -98h-260v238h190q187 0 187 176q0 180 -205 180h-172v231h166q97 0 143.5 43.5t46.5 120.5
q0 168 -227 168q-293 0 -293 -266v-891h-311z" />
    <glyph glyph-name="agrave" unicode="&#xe0;" horiz-adv-x="1185" 
d="M311 1204l60 193l518 -178l-25 -80zM430 -27q-156 0 -248 80.5t-92 218.5q0 131 73.5 207.5t262.5 108.5l242 41q70 12 98.5 35t28.5 67q0 58 -40.5 88.5t-138.5 30.5q-202 0 -208 -160h-297q6 167 138 268t361 101t346 -92t117 -258v-443q0 -116 17 -266h-265
q-16 109 -16 219q-37 -112 -133 -179t-246 -67zM532 180q121 0 192 82.5t71 224.5v45q-58 -41 -168 -65l-86 -21q-82 -20 -117 -52.5t-35 -90.5q0 -59 39.5 -91t103.5 -32z" />
    <glyph glyph-name="aacute" unicode="&#xe1;" horiz-adv-x="1185" 
d="M889 1204l-553 -65l-25 80l518 178zM430 -27q-156 0 -248 80.5t-92 218.5q0 131 73.5 207.5t262.5 108.5l242 41q70 12 98.5 35t28.5 67q0 58 -40.5 88.5t-138.5 30.5q-202 0 -208 -160h-297q6 167 138 268t361 101t346 -92t117 -258v-443q0 -116 17 -266h-265
q-16 109 -16 219q-37 -112 -133 -179t-246 -67zM532 180q121 0 192 82.5t71 224.5v45q-58 -41 -168 -65l-86 -21q-82 -20 -117 -52.5t-35 -90.5q0 -59 39.5 -91t103.5 -32z" />
    <glyph glyph-name="acircumflex" unicode="&#xe2;" horiz-adv-x="1185" 
d="M270 1227l248 151h164l248 -151l-101 -111l-229 141l-229 -141zM430 -27q-156 0 -248 80.5t-92 218.5q0 131 73.5 207.5t262.5 108.5l242 41q70 12 98.5 35t28.5 67q0 58 -40.5 88.5t-138.5 30.5q-202 0 -208 -160h-297q6 167 138 268t361 101t346 -92t117 -258v-443
q0 -116 17 -266h-265q-16 109 -16 219q-37 -112 -133 -179t-246 -67zM532 180q121 0 192 82.5t71 224.5v45q-58 -41 -168 -65l-86 -21q-82 -20 -117 -52.5t-35 -90.5q0 -59 39.5 -91t103.5 -32z" />
    <glyph glyph-name="atilde" unicode="&#xe3;" horiz-adv-x="1185" 
d="M776 1145q-55 0 -116 24t-110 48t-77 24q-49 0 -49 -61v-31h-188v59q0 87 51 127.5t137 40.5q61 0 120.5 -24t106 -48t76.5 -24q49 0 49 61v31h189v-53q0 -88 -52 -131t-137 -43zM430 -27q-156 0 -248 80.5t-92 218.5q0 131 73.5 207.5t262.5 108.5l242 41q70 12 98.5 35
t28.5 67q0 58 -40.5 88.5t-138.5 30.5q-202 0 -208 -160h-297q6 167 138 268t361 101t346 -92t117 -258v-443q0 -116 17 -266h-265q-16 109 -16 219q-37 -112 -133 -179t-246 -67zM532 180q121 0 192 82.5t71 224.5v45q-58 -41 -168 -65l-86 -21q-82 -20 -117 -52.5
t-35 -90.5q0 -59 39.5 -91t103.5 -32z" />
    <glyph glyph-name="adieresis" unicode="&#xe4;" horiz-adv-x="1185" 
d="M242 1159v203h278v-203h-278zM678 1159v203h278v-203h-278zM430 -27q-156 0 -248 80.5t-92 218.5q0 131 73.5 207.5t262.5 108.5l242 41q70 12 98.5 35t28.5 67q0 58 -40.5 88.5t-138.5 30.5q-202 0 -208 -160h-297q6 167 138 268t361 101t346 -92t117 -258v-443
q0 -116 17 -266h-265q-16 109 -16 219q-37 -112 -133 -179t-246 -67zM532 180q121 0 192 82.5t71 224.5v45q-58 -41 -168 -65l-86 -21q-82 -20 -117 -52.5t-35 -90.5q0 -59 39.5 -91t103.5 -32z" />
    <glyph glyph-name="aring" unicode="&#xe5;" horiz-adv-x="1185" 
d="M600 1135q-77 0 -123.5 47.5t-46.5 117.5q0 67 46.5 115.5t123.5 48.5q76 0 122 -48t46 -116q0 -70 -45.5 -117.5t-122.5 -47.5zM539 1300q0 -31 17.5 -48t43.5 -17q25 0 42 17t17 48q0 29 -17 45.5t-42 16.5q-26 0 -43.5 -16.5t-17.5 -45.5zM430 -27q-156 0 -248 80.5
t-92 218.5q0 131 73.5 207.5t262.5 108.5l242 41q70 12 98.5 35t28.5 67q0 58 -40.5 88.5t-138.5 30.5q-202 0 -208 -160h-297q6 167 138 268t361 101t346 -92t117 -258v-443q0 -116 17 -266h-265q-16 109 -16 219q-37 -112 -133 -179t-246 -67zM532 180q121 0 192 82.5
t71 224.5v45q-58 -41 -168 -65l-86 -21q-82 -20 -117 -52.5t-35 -90.5q0 -59 39.5 -91t103.5 -32z" />
    <glyph glyph-name="ae" unicode="&#xe6;" horiz-adv-x="1947" 
d="M1352 176q178 0 229 133h291q-9 -52 -30 -98.5t-62.5 -92.5t-99 -78.5t-144 -52.5t-193.5 -20q-326 0 -462 221q-65 -100 -176 -157.5t-244 -57.5q-159 0 -265 82t-106 217q0 131 73.5 207.5t262.5 108.5l242 41q70 12 98.5 35t28.5 67q0 58 -40.5 88.5t-138.5 30.5
q-202 0 -208 -160h-297q6 167 138 268t361 101q252 0 351 -129q143 127 382 127q113 0 203.5 -28.5t151.5 -78.5t101.5 -119t58.5 -147.5t18 -167.5q0 -48 -6 -82h-780q13 -139 79.5 -198.5t182.5 -59.5zM1348 852q-112 0 -175 -54t-81 -180h495q-9 118 -67.5 176t-171.5 58
zM795 487v45q-58 -41 -168 -65l-86 -21q-82 -20 -117 -52.5t-35 -90.5q0 -59 39.5 -91t103.5 -32q121 0 192 82.5t71 224.5z" />
    <glyph glyph-name="ccedilla" unicode="&#xe7;" horiz-adv-x="1247" 
d="M1180 422q-3 -108 -47 -198.5t-137.5 -157.5t-225.5 -89l37 -159q20 -86 -21 -139.5t-129 -53.5h-219v189h160l-37 157q-99 10 -180.5 43.5t-137.5 84.5t-94 117.5t-55.5 140.5t-17.5 155q0 88 20 167t63.5 148.5t108 120t159 80t210.5 29.5q129 0 231.5 -34.5t167.5 -96
t100 -142t38 -176.5h-295q-17 211 -236 211q-129 0 -195.5 -71t-66.5 -236q0 -167 64.5 -237t193.5 -70q115 0 175.5 59t70.5 158h295z" />
    <glyph glyph-name="egrave" unicode="&#xe8;" horiz-adv-x="1228" 
d="M907 1219l-24 -80l-553 65l59 193zM633 176q180 0 231 133h291q-9 -52 -30 -98.5t-62.5 -92.5t-98.5 -78.5t-143.5 -52.5t-193.5 -20q-116 0 -210 29.5t-156.5 80t-105 120.5t-61 149t-18.5 168q0 90 20.5 170.5t64.5 149t108 118t155.5 77.5t202.5 28q113 0 203.5 -28.5
t150.5 -78t100.5 -119t58 -148t17.5 -167.5q0 -59 -4 -82h-780q13 -140 79 -199t181 -59zM631 852q-113 0 -175.5 -53.5t-80.5 -180.5h493q-8 118 -66 176t-171 58z" />
    <glyph glyph-name="eacute" unicode="&#xe9;" horiz-adv-x="1228" 
d="M907 1204l-553 -65l-24 80l518 178zM633 176q180 0 231 133h291q-9 -52 -30 -98.5t-62.5 -92.5t-98.5 -78.5t-143.5 -52.5t-193.5 -20q-116 0 -210 29.5t-156.5 80t-105 120.5t-61 149t-18.5 168q0 90 20.5 170.5t64.5 149t108 118t155.5 77.5t202.5 28
q113 0 203.5 -28.5t150.5 -78t100.5 -119t58 -148t17.5 -167.5q0 -59 -4 -82h-780q13 -140 79 -199t181 -59zM631 852q-113 0 -175.5 -53.5t-80.5 -180.5h493q-8 118 -66 176t-171 58z" />
    <glyph glyph-name="ecircumflex" unicode="&#xea;" horiz-adv-x="1228" 
d="M616 1257l-229 -141l-100 111l248 151h163l248 -151l-100 -111zM633 176q180 0 231 133h291q-9 -52 -30 -98.5t-62.5 -92.5t-98.5 -78.5t-143.5 -52.5t-193.5 -20q-116 0 -210 29.5t-156.5 80t-105 120.5t-61 149t-18.5 168q0 90 20.5 170.5t64.5 149t108 118t155.5 77.5
t202.5 28q113 0 203.5 -28.5t150.5 -78t100.5 -119t58 -148t17.5 -167.5q0 -59 -4 -82h-780q13 -140 79 -199t181 -59zM631 852q-113 0 -175.5 -53.5t-80.5 -180.5h493q-8 118 -66 176t-171 58z" />
    <glyph glyph-name="edieresis" unicode="&#xeb;" horiz-adv-x="1228" 
d="M537 1362v-203h-279v203h279zM973 1362v-203h-279v203h279zM633 176q180 0 231 133h291q-9 -52 -30 -98.5t-62.5 -92.5t-98.5 -78.5t-143.5 -52.5t-193.5 -20q-116 0 -210 29.5t-156.5 80t-105 120.5t-61 149t-18.5 168q0 90 20.5 170.5t64.5 149t108 118t155.5 77.5
t202.5 28q113 0 203.5 -28.5t150.5 -78t100.5 -119t58 -148t17.5 -167.5q0 -59 -4 -82h-780q13 -140 79 -199t181 -59zM631 852q-113 0 -175.5 -53.5t-80.5 -180.5h493q-8 118 -66 176t-171 58z" />
    <glyph glyph-name="igrave" unicode="&#xec;" horiz-adv-x="538" 
d="M-18 1204l59 193l518 -178l-24 -80zM119 0v1024h303v-1024h-303z" />
    <glyph glyph-name="iacute" unicode="&#xed;" horiz-adv-x="538" 
d="M559 1204l-553 -65l-26 80l520 178zM119 0v1024h303v-1024h-303z" />
    <glyph glyph-name="icircumflex" unicode="&#xee;" horiz-adv-x="538" 
d="M-61 1227l247 151h164l248 -151l-100 -111l-230 141l-229 -141zM119 0v1024h303v-1024h-303z" />
    <glyph glyph-name="idieresis" unicode="&#xef;" horiz-adv-x="538" 
d="M-92 1159v203h280v-203h-280zM346 1159v203h279v-203h-279zM119 0v1024h303v-1024h-303z" />
    <glyph glyph-name="eth" unicode="&#xf0;" horiz-adv-x="1284" 
d="M930 1376q145 -117 212.5 -293t67.5 -442q0 -344 -137.5 -509t-427.5 -165q-120 0 -216.5 28.5t-162 78.5t-109.5 119.5t-63.5 149.5t-19.5 171q0 112 27.5 205.5t82.5 167t148 114.5t215 41q253 0 364 -188q0 209 -168 348l-122 -112l-101 100l103 94q-68 38 -148 68
l129 198q133 -51 205 -92l119 111l100 -101zM639 205q143 0 207.5 74.5t64.5 232.5t-64.5 232.5t-207.5 74.5q-142 0 -201 -72t-59 -235q0 -162 59 -234.5t201 -72.5z" />
    <glyph glyph-name="ntilde" unicode="&#xf1;" horiz-adv-x="1275" 
d="M463 1180v-31h-189v59q0 87 51.5 127.5t137.5 40.5q61 0 120.5 -24t106 -48t76.5 -24q49 0 49 61v31h189v-53q0 -88 -52 -131t-137 -43q-55 0 -116 24t-110 48t-77 24q-49 0 -49 -61zM791 1057q380 0 380 -428v-629h-303v582q0 120 -49 174.5t-145 54.5
q-125 0 -188.5 -83.5t-63.5 -262.5v-465h-303v1024h303v-201q111 234 369 234z" />
    <glyph glyph-name="ograve" unicode="&#xf2;" horiz-adv-x="1286" 
d="M356 1204l60 193l518 -178l-25 -80zM643 -33q-119 0 -215.5 29.5t-161 80t-108 121t-63 149.5t-19.5 167q0 87 19.5 165t63 148t108 120.5t161 80t215.5 29.5t216 -29.5t161.5 -80.5t108 -121t62.5 -147.5t19 -164.5q0 -88 -19 -166.5t-62.5 -149t-108 -121.5
t-161.5 -80.5t-216 -29.5zM381 512q0 -168 61 -237.5t201 -69.5q141 0 202.5 69.5t61.5 237.5t-61.5 237.5t-202.5 69.5q-140 0 -201 -69.5t-61 -237.5z" />
    <glyph glyph-name="oacute" unicode="&#xf3;" horiz-adv-x="1286" 
d="M934 1204l-553 -65l-25 80l518 178zM643 -33q-119 0 -215.5 29.5t-161 80t-108 121t-63 149.5t-19.5 167q0 87 19.5 165t63 148t108 120.5t161 80t215.5 29.5t216 -29.5t161.5 -80.5t108 -121t62.5 -147.5t19 -164.5q0 -88 -19 -166.5t-62.5 -149t-108 -121.5
t-161.5 -80.5t-216 -29.5zM381 512q0 -168 61 -237.5t201 -69.5q141 0 202.5 69.5t61.5 237.5t-61.5 237.5t-202.5 69.5q-140 0 -201 -69.5t-61 -237.5z" />
    <glyph glyph-name="ocircumflex" unicode="&#xf4;" horiz-adv-x="1286" 
d="M313 1227l248 151h164l248 -151l-101 -111l-229 141l-229 -141zM643 -33q-119 0 -215.5 29.5t-161 80t-108 121t-63 149.5t-19.5 167q0 87 19.5 165t63 148t108 120.5t161 80t215.5 29.5t216 -29.5t161.5 -80.5t108 -121t62.5 -147.5t19 -164.5q0 -88 -19 -166.5
t-62.5 -149t-108 -121.5t-161.5 -80.5t-216 -29.5zM381 512q0 -168 61 -237.5t201 -69.5q141 0 202.5 69.5t61.5 237.5t-61.5 237.5t-202.5 69.5q-140 0 -201 -69.5t-61 -237.5z" />
    <glyph glyph-name="otilde" unicode="&#xf5;" horiz-adv-x="1286" 
d="M819 1145q-55 0 -116 24t-110 48t-77 24q-49 0 -49 -61v-31h-188v59q0 87 51 127.5t137 40.5q61 0 120.5 -24t106 -48t76.5 -24q49 0 49 61v31h189v-53q0 -88 -52 -131t-137 -43zM643 -33q-119 0 -215.5 29.5t-161 80t-108 121t-63 149.5t-19.5 167q0 87 19.5 165t63 148
t108 120.5t161 80t215.5 29.5t216 -29.5t161.5 -80.5t108 -121t62.5 -147.5t19 -164.5q0 -88 -19 -166.5t-62.5 -149t-108 -121.5t-161.5 -80.5t-216 -29.5zM381 512q0 -168 61 -237.5t201 -69.5q141 0 202.5 69.5t61.5 237.5t-61.5 237.5t-202.5 69.5q-140 0 -201 -69.5
t-61 -237.5z" />
    <glyph glyph-name="odieresis" unicode="&#xf6;" horiz-adv-x="1286" 
d="M285 1159v203h278v-203h-278zM721 1159v203h278v-203h-278zM643 -33q-119 0 -215.5 29.5t-161 80t-108 121t-63 149.5t-19.5 167q0 87 19.5 165t63 148t108 120.5t161 80t215.5 29.5t216 -29.5t161.5 -80.5t108 -121t62.5 -147.5t19 -164.5q0 -88 -19 -166.5t-62.5 -149
t-108 -121.5t-161.5 -80.5t-216 -29.5zM381 512q0 -168 61 -237.5t201 -69.5q141 0 202.5 69.5t61.5 237.5t-61.5 237.5t-202.5 69.5q-140 0 -201 -69.5t-61 -237.5z" />
    <glyph glyph-name="divide" unicode="&#xf7;" horiz-adv-x="1308" 
d="M655 758q-68 0 -108.5 42.5t-40.5 104.5q0 61 40.5 103.5t108.5 42.5t109 -42.5t41 -103.5q0 -62 -41 -104.5t-109 -42.5zM174 631h959v-207h-959v207zM655 4q-68 0 -108.5 43t-40.5 105q0 61 40.5 103t108.5 42t109 -42t41 -103q0 -62 -41 -105t-109 -43z" />
    <glyph glyph-name="oslash" unicode="&#xf8;" horiz-adv-x="1286" 
d="M932 999q141 -66 209.5 -195t68.5 -290q0 -88 -19 -166.5t-62.5 -149t-108 -121.5t-161.5 -80.5t-216 -29.5q-68 0 -115 8l-116 -294l-162 57l112 282q-145 66 -215.5 197t-70.5 297q0 87 19.5 165t63 148t108 120.5t161 80t215.5 29.5q74 0 123 -8l96 241l162 -59z
M381 512q0 -185 76 -252l219 559h-33q-140 0 -201 -69.5t-61 -237.5zM643 205q141 0 202.5 69.5t61.5 237.5q0 176 -69 248l-220 -555h25z" />
    <glyph glyph-name="ugrave" unicode="&#xf9;" horiz-adv-x="1275" 
d="M922 1219l-25 -80l-553 65l59 193zM854 1024h303v-1024h-303v197q-106 -230 -362 -230q-196 0 -292 111.5t-96 318.5v627h304v-582q0 -119 50.5 -173t149.5 -54q116 0 181 87t65 257v465z" />
    <glyph glyph-name="uacute" unicode="&#xfa;" horiz-adv-x="1275" 
d="M922 1204l-553 -65l-25 80l518 178zM854 1024h303v-1024h-303v197q-106 -230 -362 -230q-196 0 -292 111.5t-96 318.5v627h304v-582q0 -119 50.5 -173t149.5 -54q116 0 181 87t65 257v465z" />
    <glyph glyph-name="ucircumflex" unicode="&#xfb;" horiz-adv-x="1275" 
d="M631 1257l-230 -141l-100 111l248 151h164l248 -151l-101 -111zM854 1024h303v-1024h-303v197q-106 -230 -362 -230q-196 0 -292 111.5t-96 318.5v627h304v-582q0 -119 50.5 -173t149.5 -54q116 0 181 87t65 257v465z" />
    <glyph glyph-name="udieresis" unicode="&#xfc;" horiz-adv-x="1275" 
d="M551 1362v-203h-279v203h279zM987 1362v-203h-278v203h278zM854 1024h303v-1024h-303v197q-106 -230 -362 -230q-196 0 -292 111.5t-96 318.5v627h304v-582q0 -119 50.5 -173t149.5 -54q116 0 181 87t65 257v465z" />
    <glyph glyph-name="yacute" unicode="&#xfd;" horiz-adv-x="1189" 
d="M885 1204l-553 -65l-25 80l518 178zM881 1024h288l-358 -1055q-27 -81 -52.5 -136t-63 -104.5t-84 -78t-113 -44.5t-154.5 -16h-256v240h395l68 188h-174l-350 1006h309l225 -639l53 -168l48 168z" />
    <glyph glyph-name="thorn" unicode="&#xfe;" horiz-adv-x="1329" 
d="M782 1057q122 0 215 -43t148 -119.5t82.5 -172.5t27.5 -210q0 -113 -27.5 -208.5t-82.5 -172.5t-148 -120.5t-215 -43.5q-249 0 -364 183v-560h-303v1844h303v-557q115 180 364 180zM690 205q142 0 201 72.5t59 234.5q0 163 -59 235t-201 72q-143 0 -207.5 -74.5
t-64.5 -232.5t64.5 -232.5t207.5 -74.5z" />
    <glyph glyph-name="ydieresis" unicode="&#xff;" horiz-adv-x="1189" 
d="M516 1362v-203h-278v203h278zM952 1362v-203h-278v203h278zM881 1024h288l-358 -1055q-27 -81 -52.5 -136t-63 -104.5t-84 -78t-113 -44.5t-154.5 -16h-256v240h395l68 188h-174l-350 1006h309l225 -639l53 -168l48 168z" />
    <glyph glyph-name="Amacron" unicode="&#x100;" horiz-adv-x="1554" 
d="M1178 1706v-188h-797v188h797zM1182 0l-99 279h-610l-98 -279h-314l480 1362h475l479 -1362h-313zM557 518h442l-221 629z" />
    <glyph glyph-name="amacron" unicode="&#x101;" horiz-adv-x="1185" 
d="M223 1362h754v-178h-754v178zM430 -27q-156 0 -248 80.5t-92 218.5q0 131 73.5 207.5t262.5 108.5l242 41q70 12 98.5 35t28.5 67q0 58 -40.5 88.5t-138.5 30.5q-202 0 -208 -160h-297q6 167 138 268t361 101t346 -92t117 -258v-443q0 -116 17 -266h-265q-16 109 -16 219
q-37 -112 -133 -179t-246 -67zM532 180q121 0 192 82.5t71 224.5v45q-58 -41 -168 -65l-86 -21q-82 -20 -117 -52.5t-35 -90.5q0 -59 39.5 -91t103.5 -32z" />
    <glyph glyph-name="Abreve" unicode="&#x102;" horiz-adv-x="1554" 
d="M780 1485q-82 0 -142 20t-92.5 53.5t-48.5 70t-18 77.5h170q3 -45 37.5 -71.5t93.5 -26.5t92.5 26.5t38.5 71.5h170q-2 -41 -18 -77.5t-48.5 -70t-92.5 -53.5t-142 -20zM1182 0l-99 279h-610l-98 -279h-314l480 1362h475l479 -1362h-313zM557 518h442l-221 629z" />
    <glyph glyph-name="abreve" unicode="&#x103;" horiz-adv-x="1185" 
d="M289 1362h170q3 -45 37.5 -71.5t93.5 -26.5t92.5 26.5t38.5 71.5h170q-2 -41 -18 -77.5t-48.5 -70t-92.5 -53.5t-142 -20t-142 20t-92.5 53.5t-48.5 70t-18 77.5zM430 -27q-156 0 -248 80.5t-92 218.5q0 131 73.5 207.5t262.5 108.5l242 41q70 12 98.5 35t28.5 67
q0 58 -40.5 88.5t-138.5 30.5q-202 0 -208 -160h-297q6 167 138 268t361 101t346 -92t117 -258v-443q0 -116 17 -266h-265q-16 109 -16 219q-37 -112 -133 -179t-246 -67zM532 180q121 0 192 82.5t71 224.5v45q-58 -41 -168 -65l-86 -21q-82 -20 -117 -52.5t-35 -90.5
q0 -59 39.5 -91t103.5 -32z" />
    <glyph glyph-name="Aogonek" unicode="&#x104;" horiz-adv-x="1554" 
d="M1325 -195q57 0 107 15l2 -187q-50 -24 -134 -24q-130 0 -210 68t-80 182q0 148 133 250l-60 170h-610l-98 -279h-314l480 1362h475l479 -1362h-278q-17 -42 -17 -76q0 -58 36.5 -88.5t88.5 -30.5zM557 518h442l-221 629z" />
    <glyph glyph-name="aogonek" unicode="&#x105;" horiz-adv-x="1185" 
d="M1171 -180l3 -187q-50 -24 -134 -24q-130 0 -210 68t-80 182q0 107 69 188q-10 88 -10 172q-37 -112 -133 -179t-246 -67q-156 0 -248 80.5t-92 218.5q0 131 73.5 207.5t262.5 108.5l242 41q70 12 98.5 35t28.5 67q0 58 -40.5 88.5t-138.5 30.5q-202 0 -208 -160h-297
q6 167 138 268t361 101t346 -92t117 -258v-443q0 -116 17 -266h-134q-16 -40 -16 -76q0 -58 36.5 -88.5t88.5 -30.5q57 0 106 15zM795 487v45q-58 -41 -168 -65l-86 -21q-82 -20 -117 -52.5t-35 -90.5q0 -59 39.5 -91t103.5 -32q121 0 192 82.5t71 224.5z" />
    <glyph glyph-name="Cacute" unicode="&#x106;" horiz-adv-x="1585" 
d="M1081 1544l-551 -67l-26 79l518 179zM805 -35q-150 0 -270.5 38t-202 103.5t-136.5 157t-79.5 195t-24.5 221.5q0 116 24.5 219.5t80 195.5t137 158.5t203 105t270.5 38.5q174 0 301 -36t208.5 -109.5t125 -177.5t55.5 -247h-319q-14 158 -99.5 237t-267.5 79
q-203 0 -298 -115.5t-95 -347.5q0 -231 91.5 -345t291.5 -114q191 0 280 82t101 248h321q-22 -302 -183.5 -444t-514.5 -142z" />
    <glyph glyph-name="cacute" unicode="&#x107;" horiz-adv-x="1247" 
d="M913 1204l-553 -65l-24 80l518 178zM76 512q0 88 20 167t63.5 148.5t108 120t159 80t210.5 29.5q129 0 231.5 -34.5t167.5 -96t100 -142t38 -176.5h-295q-17 211 -236 211q-129 0 -195.5 -71t-66.5 -236q0 -167 64.5 -237t193.5 -70q115 0 175.5 59t70.5 158h295
q-2 -92 -36.5 -172.5t-98.5 -144.5t-167.5 -101t-234.5 -37q-145 0 -256.5 44.5t-177.5 121t-99.5 172.5t-33.5 207z" />
    <glyph glyph-name="Cdotaccent" unicode="&#x10a;" horiz-adv-x="1585" 
d="M629 1497v203h329v-203h-329zM805 -35q-150 0 -270.5 38t-202 103.5t-136.5 157t-79.5 195t-24.5 221.5q0 116 24.5 219.5t80 195.5t137 158.5t203 105t270.5 38.5q174 0 301 -36t208.5 -109.5t125 -177.5t55.5 -247h-319q-14 158 -99.5 237t-267.5 79
q-203 0 -298 -115.5t-95 -347.5q0 -231 91.5 -345t291.5 -114q191 0 280 82t101 248h321q-22 -302 -183.5 -444t-514.5 -142z" />
    <glyph glyph-name="cdotaccent" unicode="&#x10b;" horiz-adv-x="1247" 
d="M461 1159v203h330v-203h-330zM76 512q0 88 20 167t63.5 148.5t108 120t159 80t210.5 29.5q129 0 231.5 -34.5t167.5 -96t100 -142t38 -176.5h-295q-17 211 -236 211q-129 0 -195.5 -71t-66.5 -236q0 -167 64.5 -237t193.5 -70q115 0 175.5 59t70.5 158h295
q-2 -92 -36.5 -172.5t-98.5 -144.5t-167.5 -101t-234.5 -37q-145 0 -256.5 44.5t-177.5 121t-99.5 172.5t-33.5 207z" />
    <glyph glyph-name="Ccaron" unicode="&#x10c;" horiz-adv-x="1585" 
d="M463 1630l100 111l230 -144l229 144l100 -111l-248 -151h-163zM805 -35q-150 0 -270.5 38t-202 103.5t-136.5 157t-79.5 195t-24.5 221.5q0 116 24.5 219.5t80 195.5t137 158.5t203 105t270.5 38.5q174 0 301 -36t208.5 -109.5t125 -177.5t55.5 -247h-319
q-14 158 -99.5 237t-267.5 79q-203 0 -298 -115.5t-95 -347.5q0 -231 91.5 -345t291.5 -114q191 0 280 82t101 248h321q-22 -302 -183.5 -444t-514.5 -142z" />
    <glyph glyph-name="ccaron" unicode="&#x10d;" horiz-adv-x="1247" 
d="M295 1294l100 111l230 -143l229 143l100 -111l-247 -151h-164zM76 512q0 88 20 167t63.5 148.5t108 120t159 80t210.5 29.5q129 0 231.5 -34.5t167.5 -96t100 -142t38 -176.5h-295q-17 211 -236 211q-129 0 -195.5 -71t-66.5 -236q0 -167 64.5 -237t193.5 -70
q115 0 175.5 59t70.5 158h295q-2 -92 -36.5 -172.5t-98.5 -144.5t-167.5 -101t-234.5 -37q-145 0 -256.5 44.5t-177.5 121t-99.5 172.5t-33.5 207z" />
    <glyph glyph-name="Dcaron" unicode="&#x10e;" horiz-adv-x="1495" 
d="M829 1479h-163l-248 151l100 111l230 -144l229 144l100 -111zM774 1362q129 0 236 -36t181.5 -99t126 -149.5t75.5 -185.5t24 -208q0 -110 -24 -209.5t-75.5 -186.5t-126 -151t-181.5 -100.5t-236 -36.5h-655v1362h655zM705 248q205 0 297 107.5t92 328.5t-92.5 326.5
t-296.5 105.5h-275v-868h275z" />
    <glyph glyph-name="dcaron" unicode="&#x10f;" horiz-adv-x="1669" 
d="M1370 1669h258l-24 -528h-209zM913 870v564h304v-1434h-304v152q-114 -185 -366 -185q-121 0 -213.5 43t-147.5 119.5t-82.5 173t-27.5 211.5q0 112 27.5 208t82.5 172t147.5 119.5t213.5 43.5q251 0 366 -187zM641 205q142 0 207 74.5t65 232.5t-65 232.5t-207 74.5
q-143 0 -202.5 -72.5t-59.5 -234.5q0 -161 60 -234t202 -73z" />
    <glyph glyph-name="Dcroat" unicode="&#x110;" horiz-adv-x="1656" 
d="M936 1362q129 0 236 -36t181.5 -99t126 -149.5t75.5 -185.5t24 -208q0 -110 -24 -209.5t-75.5 -186.5t-126 -151t-181.5 -100.5t-236 -36.5h-655v569h-224v215h224v578h655zM866 248q205 0 297 107.5t92 328.5t-92.5 326.5t-296.5 105.5h-274v-332h326v-215h-326v-321
h274z" />
    <glyph glyph-name="dcroat" unicode="&#x111;" horiz-adv-x="1388" 
d="M1389 1321v-174h-172v-1147h-304v152q-114 -185 -366 -185q-121 0 -213.5 43t-147.5 119.5t-82.5 173t-27.5 211.5q0 112 27.5 208t82.5 172t147.5 119.5t213.5 43.5q251 0 366 -187v277h-354v174h354v113h304v-113h172zM641 205q142 0 207 74.5t65 232.5t-65 232.5
t-207 74.5q-143 0 -202.5 -72.5t-59.5 -234.5q0 -161 60 -234t202 -73z" />
    <glyph glyph-name="Emacron" unicode="&#x112;" horiz-adv-x="1296" 
d="M1042 1706v-188h-796v188h796zM430 248h764v-248h-1075v1362h1069v-246h-758v-305h696v-231h-696v-332z" />
    <glyph glyph-name="emacron" unicode="&#x113;" horiz-adv-x="1228" 
d="M995 1362v-178h-753v178h753zM633 176q180 0 231 133h291q-9 -52 -30 -98.5t-62.5 -92.5t-98.5 -78.5t-143.5 -52.5t-193.5 -20q-116 0 -210 29.5t-156.5 80t-105 120.5t-61 149t-18.5 168q0 90 20.5 170.5t64.5 149t108 118t155.5 77.5t202.5 28q113 0 203.5 -28.5
t150.5 -78t100.5 -119t58 -148t17.5 -167.5q0 -59 -4 -82h-780q13 -140 79 -199t181 -59zM631 852q-113 0 -175.5 -53.5t-80.5 -180.5h493q-8 118 -66 176t-171 58z" />
    <glyph glyph-name="Edotaccent" unicode="&#x116;" horiz-adv-x="1296" 
d="M811 1700v-203h-330v203h330zM430 248h764v-248h-1075v1362h1069v-246h-758v-305h696v-231h-696v-332z" />
    <glyph glyph-name="edotaccent" unicode="&#x117;" horiz-adv-x="1228" 
d="M782 1362v-203h-329v203h329zM633 176q180 0 231 133h291q-9 -52 -30 -98.5t-62.5 -92.5t-98.5 -78.5t-143.5 -52.5t-193.5 -20q-116 0 -210 29.5t-156.5 80t-105 120.5t-61 149t-18.5 168q0 90 20.5 170.5t64.5 149t108 118t155.5 77.5t202.5 28q113 0 203.5 -28.5
t150.5 -78t100.5 -119t58 -148t17.5 -167.5q0 -59 -4 -82h-780q13 -140 79 -199t181 -59zM631 852q-113 0 -175.5 -53.5t-80.5 -180.5h493q-8 118 -66 176t-171 58z" />
    <glyph glyph-name="Eogonek" unicode="&#x118;" horiz-adv-x="1296" 
d="M1194 0h-229q-17 -42 -17 -76q0 -58 36.5 -88.5t88.5 -30.5q57 0 107 15l2 -187q-50 -24 -133 -24q-130 0 -210.5 68t-80.5 182q0 77 37 141h-676v1362h1069v-246h-758v-305h696v-231h-696v-332h764v-248z" />
    <glyph glyph-name="eogonek" unicode="&#x119;" horiz-adv-x="1228" 
d="M1155 309q-33 -188 -209 -278q-33 -47 -33 -107q0 -58 36.5 -88.5t88.5 -30.5q58 0 107 15l2 -187q-49 -24 -133 -24q-130 0 -210.5 68t-80.5 182q0 59 25 114q-56 -6 -121 -6q-116 0 -210 29.5t-156.5 80t-105 120.5t-61 149t-18.5 168q0 90 20.5 170.5t64.5 149
t108 118t155.5 77.5t202.5 28q113 0 203.5 -28.5t150.5 -78t100.5 -119t58 -148t17.5 -167.5q0 -59 -4 -82h-780q13 -140 79 -199t181 -59q180 0 231 133h291zM631 852q-113 0 -175.5 -53.5t-80.5 -180.5h493q-8 118 -66 176t-171 58z" />
    <glyph glyph-name="Ecaron" unicode="&#x11a;" horiz-adv-x="1296" 
d="M727 1479h-164l-248 151l101 111l229 -144l229 144l101 -111zM430 248h764v-248h-1075v1362h1069v-246h-758v-305h696v-231h-696v-332z" />
    <glyph glyph-name="ecaron" unicode="&#x11b;" horiz-adv-x="1228" 
d="M698 1143h-163l-248 151l100 111l229 -143l230 143l100 -111zM633 176q180 0 231 133h291q-9 -52 -30 -98.5t-62.5 -92.5t-98.5 -78.5t-143.5 -52.5t-193.5 -20q-116 0 -210 29.5t-156.5 80t-105 120.5t-61 149t-18.5 168q0 90 20.5 170.5t64.5 149t108 118t155.5 77.5
t202.5 28q113 0 203.5 -28.5t150.5 -78t100.5 -119t58 -148t17.5 -167.5q0 -59 -4 -82h-780q13 -140 79 -199t181 -59zM631 852q-113 0 -175.5 -53.5t-80.5 -180.5h493q-8 118 -66 176t-171 58z" />
    <glyph glyph-name="Gbreve" unicode="&#x11e;" horiz-adv-x="1619" 
d="M506 1706h170q3 -45 37.5 -71.5t93.5 -26.5t92.5 26.5t38.5 71.5h170q-2 -41 -18 -77.5t-48.5 -70t-92.5 -53.5t-142 -20t-142 20t-92.5 53.5t-48.5 70t-18 77.5zM741 -35q-164 0 -290 56t-203.5 155t-116.5 227t-39 279q0 153 43 280t129.5 225.5t230 154t330.5 55.5
q166 0 292 -36.5t205 -104t121 -155.5t52 -200h-315q-14 121 -102.5 186.5t-254.5 65.5q-205 0 -305 -115.5t-100 -357.5q0 -234 94.5 -351.5t296.5 -117.5q98 0 170.5 24t116 68.5t67 97.5t33.5 121h-485v203h782v-725h-266v262q-45 -134 -164 -215.5t-322 -81.5z" />
    <glyph glyph-name="gbreve" unicode="&#x11f;" horiz-adv-x="1333" 
d="M657 1141q-82 0 -142 20t-92.5 53.5t-48.5 70t-18 77.5h170q3 -45 37.5 -71.5t93.5 -26.5t92.5 26.5t38.5 71.5h170q-2 -41 -18 -77.5t-48.5 -70t-92.5 -53.5t-142 -20zM915 1024h304v-983q0 -241 -134.5 -357t-439.5 -116q-255 0 -391.5 104.5t-147.5 282.5h297
q20 -174 254 -174q135 0 196.5 52.5t61.5 172.5v187q-109 -162 -356 -162q-122 0 -215 39.5t-149.5 110.5t-84.5 161.5t-28 198.5q0 110 28 201.5t84.5 162.5t149.5 110.5t215 39.5q244 0 356 -166v135zM655 254q139 0 199.5 68t60.5 215q0 148 -60.5 215t-199.5 67
q-145 0 -207.5 -64.5t-62.5 -217.5t62.5 -218t207.5 -65z" />
    <glyph glyph-name="Gdotaccent" unicode="&#x120;" horiz-adv-x="1619" 
d="M641 1497v203h330v-203h-330zM741 -35q-164 0 -290 56t-203.5 155t-116.5 227t-39 279q0 153 43 280t129.5 225.5t230 154t330.5 55.5q166 0 292 -36.5t205 -104t121 -155.5t52 -200h-315q-14 121 -102.5 186.5t-254.5 65.5q-205 0 -305 -115.5t-100 -357.5
q0 -234 94.5 -351.5t296.5 -117.5q98 0 170.5 24t116 68.5t67 97.5t33.5 121h-485v203h782v-725h-266v262q-45 -134 -164 -215.5t-322 -81.5z" />
    <glyph glyph-name="gdotaccent" unicode="&#x121;" horiz-adv-x="1333" 
d="M831 1362v-203h-329v203h329zM915 1024h304v-983q0 -241 -134.5 -357t-439.5 -116q-255 0 -391.5 104.5t-147.5 282.5h297q20 -174 254 -174q135 0 196.5 52.5t61.5 172.5v187q-109 -162 -356 -162q-122 0 -215 39.5t-149.5 110.5t-84.5 161.5t-28 198.5q0 110 28 201.5
t84.5 162.5t149.5 110.5t215 39.5q244 0 356 -166v135zM655 254q139 0 199.5 68t60.5 215q0 148 -60.5 215t-199.5 67q-145 0 -207.5 -64.5t-62.5 -217.5t62.5 -218t207.5 -65z" />
    <glyph glyph-name="uni0122" unicode="&#x122;" horiz-adv-x="1619" 
d="M741 -35q-164 0 -290 56t-203.5 155t-116.5 227t-39 279q0 153 43 280t129.5 225.5t230 154t330.5 55.5q166 0 292 -36.5t205 -104t121 -155.5t52 -200h-315q-14 121 -102.5 186.5t-254.5 65.5q-205 0 -305 -115.5t-100 -357.5q0 -234 94.5 -351.5t296.5 -117.5
q98 0 170.5 24t116 68.5t67 97.5t33.5 121h-485v203h782v-725h-266v262q-45 -134 -164 -215.5t-322 -81.5zM659 -362v260h293v-406q0 -102 -49 -154.5t-170 -52.5h-74v162h121v191h-121z" />
    <glyph glyph-name="uni0123" unicode="&#x123;" horiz-adv-x="1333" 
d="M813 1403v-260h-293v405q0 102 49 154.5t170 52.5h74v-162h-121v-190h121zM915 1024h304v-983q0 -241 -134.5 -357t-439.5 -116q-255 0 -391.5 104.5t-147.5 282.5h297q20 -174 254 -174q135 0 196.5 52.5t61.5 172.5v187q-109 -162 -356 -162q-122 0 -215 39.5
t-149.5 110.5t-84.5 161.5t-28 198.5q0 110 28 201.5t84.5 162.5t149.5 110.5t215 39.5q244 0 356 -166v135zM655 254q139 0 199.5 68t60.5 215q0 148 -60.5 215t-199.5 67q-145 0 -207.5 -64.5t-62.5 -217.5t62.5 -218t207.5 -65z" />
    <glyph glyph-name="Hbar" unicode="&#x126;" horiz-adv-x="1753" 
d="M1698 1210v-215h-215v-995h-312v573h-624v-573h-309v995h-181v215h181v152h309v-152h624v152h312v-152h215zM1171 817v178h-624v-178h624z" />
    <glyph glyph-name="hbar" unicode="&#x127;" horiz-adv-x="1331" 
d="M846 1057q381 0 381 -428v-629h-303v582q0 120 -49 174.5t-146 54.5q-125 0 -188.5 -83.5t-63.5 -262.5v-465h-303v1147h-174v174h174v113h303v-113h352v-174h-352v-324q111 234 369 234z" />
    <glyph glyph-name="Imacron" unicode="&#x12a;" horiz-adv-x="1052" 
d="M924 1706v-188h-797v188h797zM934 1116h-252v-868h252v-248h-815v248h252v868h-252v246h815v-246z" />
    <glyph glyph-name="imacron" unicode="&#x12b;" horiz-adv-x="538" 
d="M-109 1362h756v-178h-756v178zM119 0v1024h303v-1024h-303z" />
    <glyph glyph-name="Iogonek" unicode="&#x12e;" horiz-adv-x="1052" 
d="M946 -180l2 -187q-50 -24 -133 -24q-130 0 -210.5 68t-80.5 182q0 77 37 141h-442v248h252v868h-252v246h815v-246h-252v-868h252v-248h-203q-16 -40 -16 -76q0 -58 36.5 -88.5t88.5 -30.5q56 0 106 15z" />
    <glyph glyph-name="iogonek" unicode="&#x12f;" horiz-adv-x="538" 
d="M434 1362v-203h-330v203h330zM479 -180l2 -187q-49 -24 -133 -24q-130 0 -210.5 68t-80.5 182q0 97 62 178v987h303v-1024h-158q-16 -40 -16 -76q0 -58 36.5 -88.5t88.5 -30.5q57 0 106 15z" />
    <glyph glyph-name="Idotaccent" unicode="&#x130;" horiz-adv-x="1052" 
d="M692 1700v-203h-330v203h330zM934 1116h-252v-868h252v-248h-815v248h252v868h-252v246h815v-246z" />
    <glyph glyph-name="dotlessi" unicode="&#x131;" horiz-adv-x="538" 
d="M119 0v1024h303v-1024h-303z" />
    <glyph glyph-name="uni0136" unicode="&#x136;" horiz-adv-x="1454" 
d="M856 786l537 -770v-16h-373l-373 559l-217 -237v-322h-311v1362h311v-641l547 641h405zM582 -362v260h292v-406q0 -102 -49 -154.5t-170 -52.5h-73v162h120v191h-120z" />
    <glyph glyph-name="uni0137" unicode="&#x137;" horiz-adv-x="1255" 
d="M776 588l465 -588h-360l-297 401l-162 -155v-246h-303v1434h303v-887q59 83 106 135l326 342h363v-8zM481 -362v260h293v-406q0 -102 -49 -154.5t-170 -52.5h-74v162h121v191h-121z" />
    <glyph glyph-name="Lacute" unicode="&#x139;" horiz-adv-x="1107" 
d="M504 1735l59 -191l-551 -67l-26 79zM432 248h637v-248h-950v1362h313v-1114z" />
    <glyph glyph-name="lacute" unicode="&#x13a;" horiz-adv-x="538" 
d="M557 1616l-551 -68l-26 80l518 178zM119 0v1434h303v-1434h-303z" />
    <glyph glyph-name="uni013B" unicode="&#x13b;" horiz-adv-x="1107" 
d="M432 248h637v-248h-950v1362h313v-1114zM424 -362v260h293v-406q0 -102 -49 -154.5t-170 -52.5h-74v162h121v191h-121z" />
    <glyph glyph-name="uni013C" unicode="&#x13c;" horiz-adv-x="538" 
d="M119 0v1434h303v-1434h-303zM123 -362v260h293v-406q0 -102 -49 -154.5t-170 -52.5h-74v162h121v191h-121z" />
    <glyph glyph-name="Lcaron" unicode="&#x13d;" horiz-adv-x="1107" 
d="M846 1141h-209l-25 528h258zM432 248h637v-248h-950v1362h313v-1114z" />
    <glyph glyph-name="lcaron" unicode="&#x13e;" horiz-adv-x="876" 
d="M575 1669h261l-27 -528h-207zM119 0v1434h303v-1434h-303z" />
    <glyph glyph-name="Lslash" unicode="&#x141;" horiz-adv-x="1271" 
d="M594 248h639v-248h-952v512l-224 -86v236l224 88v612h313v-490l358 140v-238l-358 -139v-387z" />
    <glyph glyph-name="lslash" unicode="&#x142;" horiz-adv-x="907" 
d="M850 991v-237l-244 -95v-659h-303v543l-246 -97v236l246 96v656h303v-537z" />
    <glyph glyph-name="Nacute" unicode="&#x143;" horiz-adv-x="1556" 
d="M1067 1544l-551 -67l-27 79l519 179zM1139 1362h299v-1362h-516l-426 930q-52 116 -78 209v-1139h-299v1362h516l430 -944q37 -84 74 -197v1141z" />
    <glyph glyph-name="nacute" unicode="&#x144;" horiz-adv-x="1275" 
d="M928 1204l-553 -65l-25 80l518 178zM791 1057q380 0 380 -428v-629h-303v582q0 120 -49 174.5t-145 54.5q-125 0 -188.5 -83.5t-63.5 -262.5v-465h-303v1024h303v-201q111 234 369 234z" />
    <glyph glyph-name="uni0145" unicode="&#x145;" horiz-adv-x="1556" 
d="M1139 1362h299v-1362h-516l-426 930q-52 116 -78 209v-1139h-299v1362h516l430 -944q37 -84 74 -197v1141zM633 -362v260h293v-406q0 -102 -49 -154.5t-170 -52.5h-74v162h121v191h-121z" />
    <glyph glyph-name="uni0146" unicode="&#x146;" horiz-adv-x="1275" 
d="M791 1057q380 0 380 -428v-629h-303v582q0 120 -49 174.5t-145 54.5q-125 0 -188.5 -83.5t-63.5 -262.5v-465h-303v1024h303v-201q111 234 369 234zM492 -362v260h292v-406q0 -102 -49 -154.5t-170 -52.5h-73v162h120v191h-120z" />
    <glyph glyph-name="Ncaron" unicode="&#x147;" horiz-adv-x="1556" 
d="M860 1479h-164l-247 151l100 111l229 -144l230 144l100 -111zM1139 1362h299v-1362h-516l-426 930q-52 116 -78 209v-1139h-299v1362h516l430 -944q37 -84 74 -197v1141z" />
    <glyph glyph-name="ncaron" unicode="&#x148;" horiz-adv-x="1275" 
d="M721 1143h-164l-248 151l101 111l229 -143l229 143l101 -111zM791 1057q380 0 380 -428v-629h-303v582q0 120 -49 174.5t-145 54.5q-125 0 -188.5 -83.5t-63.5 -262.5v-465h-303v1024h303v-201q111 234 369 234z" />
    <glyph glyph-name="Eng" unicode="&#x14a;" horiz-adv-x="1556" 
d="M1139 1362h299v-1434q0 -95 -18 -161t-61 -114t-116.5 -70.5t-181.5 -22.5h-193v239h271v201h-217l-426 930q-52 116 -78 209v-1139h-299v1362h516l430 -944q37 -84 74 -197v1141z" />
    <glyph glyph-name="eng" unicode="&#x14b;" horiz-adv-x="1275" 
d="M784 1057q196 0 291.5 -111t95.5 -317v-670q0 -95 -18 -161t-60.5 -114t-116 -71t-181.5 -23h-193v240h266v752q0 120 -50 174.5t-150 54.5q-121 0 -183.5 -83.5t-62.5 -262.5v-465h-303v1024h303v-195q106 228 362 228z" />
    <glyph glyph-name="Omacron" unicode="&#x14c;" horiz-adv-x="1619" 
d="M412 1706h796v-188h-796v188zM811 -35q-152 0 -274.5 38.5t-204.5 104.5t-137 158t-79 195t-24 219q0 115 24 217.5t79 195t137 159.5t204.5 106t274.5 39t274.5 -39.5t204 -106.5t136 -159.5t78.5 -195t24 -216.5q0 -116 -24 -218.5t-78.5 -194.5t-136 -158.5t-204 -105
t-274.5 -38.5zM418 680q0 -115 19.5 -197.5t64.5 -142.5t121.5 -89.5t187.5 -29.5t187.5 29.5t121.5 89.5t64.5 142.5t19.5 197.5q0 236 -88.5 349.5t-304.5 113.5t-304.5 -113.5t-88.5 -349.5z" />
    <glyph glyph-name="omacron" unicode="&#x14d;" horiz-adv-x="1286" 
d="M268 1362h754v-178h-754v178zM643 -33q-119 0 -215.5 29.5t-161 80t-108 121t-63 149.5t-19.5 167q0 87 19.5 165t63 148t108 120.5t161 80t215.5 29.5t216 -29.5t161.5 -80.5t108 -121t62.5 -147.5t19 -164.5q0 -88 -19 -166.5t-62.5 -149t-108 -121.5t-161.5 -80.5
t-216 -29.5zM381 512q0 -168 61 -237.5t201 -69.5q141 0 202.5 69.5t61.5 237.5t-61.5 237.5t-202.5 69.5q-140 0 -201 -69.5t-61 -237.5z" />
    <glyph glyph-name="Ohungarumlaut" unicode="&#x150;" horiz-adv-x="1619" 
d="M1247 1640l-334 -174l-55 62l252 258zM813 1630l-332 -172l-57 60l252 260zM811 -35q-152 0 -274.5 38.5t-204.5 104.5t-137 158t-79 195t-24 219q0 115 24 217.5t79 195t137 159.5t204.5 106t274.5 39t274.5 -39.5t204 -106.5t136 -159.5t78.5 -195t24 -216.5
q0 -116 -24 -218.5t-78.5 -194.5t-136 -158.5t-204 -105t-274.5 -38.5zM418 680q0 -115 19.5 -197.5t64.5 -142.5t121.5 -89.5t187.5 -29.5t187.5 29.5t121.5 89.5t64.5 142.5t19.5 197.5q0 236 -88.5 349.5t-304.5 113.5t-304.5 -113.5t-88.5 -349.5z" />
    <glyph glyph-name="ohungarumlaut" unicode="&#x151;" horiz-adv-x="1286" 
d="M1100 1315l-332 -172l-57 59l252 260zM668 1307l-334 -174l-55 61l251 258zM643 -33q-119 0 -215.5 29.5t-161 80t-108 121t-63 149.5t-19.5 167q0 87 19.5 165t63 148t108 120.5t161 80t215.5 29.5t216 -29.5t161.5 -80.5t108 -121t62.5 -147.5t19 -164.5
q0 -88 -19 -166.5t-62.5 -149t-108 -121.5t-161.5 -80.5t-216 -29.5zM381 512q0 -168 61 -237.5t201 -69.5q141 0 202.5 69.5t61.5 237.5t-61.5 237.5t-202.5 69.5q-140 0 -201 -69.5t-61 -237.5z" />
    <glyph glyph-name="OE" unicode="&#x152;" horiz-adv-x="2408" 
d="M1542 248h764v-248h-1075v182q-139 -217 -473 -217q-137 0 -249 38.5t-188.5 104.5t-128.5 157.5t-76 195t-24 219.5q0 114 24 217.5t76 195t128.5 159t188.5 106.5t249 39q333 0 473 -221v186h1069v-246h-758v-305h696v-231h-696v-332zM811 221q111 0 187.5 29.5
t121.5 89.5t64.5 142.5t19.5 197.5q0 236 -88.5 349.5t-304.5 113.5t-304.5 -113.5t-88.5 -349.5q0 -115 19.5 -197.5t64.5 -142.5t121.5 -89.5t187.5 -29.5z" />
    <glyph glyph-name="oe" unicode="&#x153;" horiz-adv-x="2011" 
d="M1415 176q179 0 230 133h290q-12 -66 -44 -123.5t-90.5 -108.5t-157 -80.5t-226.5 -29.5q-264 0 -391 146q-123 -146 -393 -146q-116 0 -210 29.5t-158 80t-107 121t-62.5 149.5t-19.5 167q0 87 19.5 165.5t62.5 148t107 120t158 80t210 29.5q264 0 397 -166
q137 166 397 166q133 0 234 -43.5t160.5 -119.5t88.5 -171t29 -207q0 -48 -6 -82h-780q13 -139 79.5 -198.5t182.5 -59.5zM1411 852q-112 0 -175 -54t-81 -180h496q-9 118 -68 176t-172 58zM643 205q141 0 202.5 69.5t61.5 237.5t-61.5 237.5t-202.5 69.5q-140 0 -201 -69.5
t-61 -237.5t61 -237.5t201 -69.5z" />
    <glyph glyph-name="Racute" unicode="&#x154;" horiz-adv-x="1382" 
d="M979 1544l-551 -67l-27 79l519 179zM1251 332v-92q0 -113 27 -240h-311q-27 83 -27 236v71q0 111 -60.5 165t-166.5 54h-281v-526h-313v1362h719q220 0 335 -101t115 -272q0 -140 -79 -234.5t-205 -121.5q56 -14 97.5 -34.5t77 -54.5t54 -87.5t18.5 -124.5zM768 750
q103 0 149 48t46 146q0 176 -195 176h-336v-370h336z" />
    <glyph glyph-name="racute" unicode="&#x155;" horiz-adv-x="841" 
d="M711 1204l-553 -65l-25 80l518 178zM727 1040h68v-295h-101q-149 0 -210.5 -82t-61.5 -260v-403h-303v1024h295v-219q79 235 313 235z" />
    <glyph glyph-name="uni0156" unicode="&#x156;" horiz-adv-x="1382" 
d="M1251 332v-92q0 -113 27 -240h-311q-27 83 -27 236v71q0 111 -60.5 165t-166.5 54h-281v-526h-313v1362h719q220 0 335 -101t115 -272q0 -140 -79 -234.5t-205 -121.5q56 -14 97.5 -34.5t77 -54.5t54 -87.5t18.5 -124.5zM768 750q103 0 149 48t46 146q0 176 -195 176
h-336v-370h336zM543 -362v260h293v-406q0 -102 -49.5 -154.5t-170.5 -52.5h-73v162h121v191h-121z" />
    <glyph glyph-name="uni0157" unicode="&#x157;" horiz-adv-x="841" 
d="M727 1040h68v-295h-101q-149 0 -210.5 -82t-61.5 -260v-403h-303v1024h295v-219q79 235 313 235zM123 -362v260h293v-406q0 -102 -49 -154.5t-170 -52.5h-74v162h121v191h-121z" />
    <glyph glyph-name="Rcaron" unicode="&#x158;" horiz-adv-x="1382" 
d="M772 1479h-164l-248 151l101 111l229 -144l230 144l100 -111zM1251 332v-92q0 -113 27 -240h-311q-27 83 -27 236v71q0 111 -60.5 165t-166.5 54h-281v-526h-313v1362h719q220 0 335 -101t115 -272q0 -140 -79 -234.5t-205 -121.5q56 -14 97.5 -34.5t77 -54.5t54 -87.5
t18.5 -124.5zM768 750q103 0 149 48t46 146q0 176 -195 176h-336v-370h336z" />
    <glyph glyph-name="rcaron" unicode="&#x159;" horiz-adv-x="841" 
d="M502 1143h-164l-248 151l100 111l230 -143l229 143l101 -111zM727 1040h68v-295h-101q-149 0 -210.5 -82t-61.5 -260v-403h-303v1024h295v-219q79 235 313 235z" />
    <glyph glyph-name="Sacute" unicode="&#x15a;" horiz-adv-x="1368" 
d="M973 1544l-551 -67l-27 79l518 179zM80 449h303q6 -116 82.5 -184t230.5 -68q148 0 211.5 46.5t63.5 133.5q0 148 -183 172l-301 39q-183 22 -279.5 120.5t-96.5 266.5q0 192 144.5 307t422.5 115q148 0 261.5 -34t182.5 -95t105.5 -138.5t42.5 -171.5h-305
q-12 99 -84 154t-203 55q-122 0 -188 -46.5t-66 -127.5q0 -63 39 -102.5t121 -48.5l284 -35q416 -47 416 -399q0 -443 -592 -443q-131 0 -235 27t-172 72t-114 108t-67 131t-24 146z" />
    <glyph glyph-name="sacute" unicode="&#x15b;" horiz-adv-x="1101" 
d="M836 1204l-553 -65l-25 80l518 178zM53 334h277q6 -78 65.5 -127t169.5 -49q185 0 185 118q0 50 -31.5 80.5t-112.5 40.5l-229 29q-145 19 -221 94.5t-76 204.5q0 165 126.5 249.5t338.5 84.5q213 0 340.5 -84.5t140.5 -249.5h-281q-8 66 -58 104.5t-142 38.5
q-94 0 -139.5 -31t-45.5 -83q0 -90 129 -105l216 -24q179 -23 257 -100.5t78 -217.5q0 -340 -479 -340q-132 0 -231.5 29.5t-158 81.5t-87.5 116t-31 140z" />
    <glyph glyph-name="Scedilla" unicode="&#x15e;" horiz-adv-x="1368" 
d="M1284 408q0 -385 -453 -437l35 -153q20 -86 -20.5 -139.5t-128.5 -53.5h-219v189h159l-36 153q-114 7 -205.5 37.5t-152 75.5t-101.5 106t-60 125.5t-22 137.5h303q6 -116 82.5 -184t230.5 -68q148 0 211.5 46.5t63.5 133.5q0 148 -183 172l-301 39q-183 22 -279.5 120.5
t-96.5 266.5q0 192 144.5 307t422.5 115q148 0 261.5 -34t182.5 -95t105.5 -138.5t42.5 -171.5h-305q-12 99 -84 154t-203 55q-122 0 -188 -46.5t-66 -127.5q0 -63 39 -102.5t121 -48.5l284 -35q416 -47 416 -399z" />
    <glyph glyph-name="scedilla" unicode="&#x15f;" horiz-adv-x="1101" 
d="M1040 307q0 -289 -346 -332l35 -157q20 -86 -20.5 -139.5t-128.5 -53.5h-220v189h160l-37 155q-217 18 -321 118t-109 247h277q6 -78 65.5 -127t169.5 -49q185 0 185 118q0 50 -31.5 80.5t-112.5 40.5l-229 29q-145 19 -221 94.5t-76 204.5q0 165 126.5 249.5t338.5 84.5
q213 0 340.5 -84.5t140.5 -249.5h-281q-8 66 -58 104.5t-142 38.5q-94 0 -139.5 -31t-45.5 -83q0 -90 129 -105l216 -24q179 -23 257 -100.5t78 -217.5z" />
    <glyph glyph-name="Scaron" unicode="&#x160;" horiz-adv-x="1368" 
d="M354 1630l101 111l229 -144l229 144l101 -111l-248 -151h-164zM80 449h303q6 -116 82.5 -184t230.5 -68q148 0 211.5 46.5t63.5 133.5q0 148 -183 172l-301 39q-183 22 -279.5 120.5t-96.5 266.5q0 192 144.5 307t422.5 115q148 0 261.5 -34t182.5 -95t105.5 -138.5
t42.5 -171.5h-305q-12 99 -84 154t-203 55q-122 0 -188 -46.5t-66 -127.5q0 -63 39 -102.5t121 -48.5l284 -35q416 -47 416 -399q0 -443 -592 -443q-131 0 -235 27t-172 72t-114 108t-67 131t-24 146z" />
    <glyph glyph-name="scaron" unicode="&#x161;" horiz-adv-x="1101" 
d="M217 1294l100 111l230 -143l229 143l101 -111l-248 -151h-164zM53 334h277q6 -78 65.5 -127t169.5 -49q185 0 185 118q0 50 -31.5 80.5t-112.5 40.5l-229 29q-145 19 -221 94.5t-76 204.5q0 165 126.5 249.5t338.5 84.5q213 0 340.5 -84.5t140.5 -249.5h-281
q-8 66 -58 104.5t-142 38.5q-94 0 -139.5 -31t-45.5 -83q0 -90 129 -105l216 -24q179 -23 257 -100.5t78 -217.5q0 -340 -479 -340q-132 0 -231.5 29.5t-158 81.5t-87.5 116t-31 140z" />
    <glyph glyph-name="uni0162" unicode="&#x162;" horiz-adv-x="1343" 
d="M827 1116v-1116h-26l41 -178q20 -86 -21 -139.5t-129 -53.5h-219v189h160l-43 182h-74v1116h-448v246h1208v-246h-449z" />
    <glyph glyph-name="uni0163" unicode="&#x163;" horiz-adv-x="860" 
d="M807 795h-295v-553h266v-242h-157l41 -182q20 -86 -21 -139.5t-129 -53.5h-219v189h160l-50 211q-106 34 -150 117.5t-44 226.5v426h-186v145l210 86l125 242h154v-244h295v-229z" />
    <glyph glyph-name="Tcaron" unicode="&#x164;" horiz-adv-x="1343" 
d="M754 1479h-164l-248 151l100 111l230 -144l229 144l100 -111zM1276 1362v-246h-449v-1116h-311v1116h-448v246h1208z" />
    <glyph glyph-name="tcaron" unicode="&#x165;" horiz-adv-x="937" 
d="M625 1669h260l-27 -528h-207zM586 0q-108 0 -181.5 23t-116.5 71t-61 114t-18 161v426h-186v145l210 86l125 242h154v-244h295v-229h-295v-553h266v-242h-192z" />
    <glyph glyph-name="Tbar" unicode="&#x166;" horiz-adv-x="1343" 
d="M1276 1116h-449v-344h449v-248h-449v-524h-311v524h-448v248h448v344h-448v246h1208v-246z" />
    <glyph glyph-name="tbar" unicode="&#x167;" horiz-adv-x="860" 
d="M807 795h-295v-129h295v-189h-295v-235h266v-242h-192q-108 0 -181.5 23t-116.5 71t-61 114t-18 161v108h-186v189h186v129h-186v145l210 86l125 242h154v-244h295v-229z" />
    <glyph glyph-name="Umacron" unicode="&#x16a;" horiz-adv-x="1447" 
d="M326 1706h796v-188h-796v188zM113 510v852h311v-809q0 -130 34.5 -203.5t97.5 -101t169 -27.5t169 27.5t97.5 101t34.5 203.5v809h309v-852q0 -267 -153 -405t-457 -138q-305 0 -458.5 137.5t-153.5 405.5z" />
    <glyph glyph-name="umacron" unicode="&#x16b;" horiz-adv-x="1275" 
d="M1010 1362v-178h-754v178h754zM854 1024h303v-1024h-303v197q-106 -230 -362 -230q-196 0 -292 111.5t-96 318.5v627h304v-582q0 -119 50.5 -173t149.5 -54q116 0 181 87t65 257v465z" />
    <glyph glyph-name="Uring" unicode="&#x16e;" horiz-adv-x="1447" 
d="M725 1438q-99 0 -158 61.5t-59 149.5t59 149.5t158 61.5t157 -61t58 -150t-58 -150t-157 -61zM649 1649q0 -37 22 -58.5t54 -21.5q31 0 53.5 21.5t22.5 58.5t-22 57t-54 20q-33 0 -54.5 -19.5t-21.5 -57.5zM113 510v852h311v-809q0 -130 34.5 -203.5t97.5 -101t169 -27.5
t169 27.5t97.5 101t34.5 203.5v809h309v-852q0 -267 -153 -405t-457 -138q-305 0 -458.5 137.5t-153.5 405.5z" />
    <glyph glyph-name="uring" unicode="&#x16f;" horiz-adv-x="1275" 
d="M633 1135q-77 0 -123.5 47.5t-46.5 117.5q0 67 46.5 115.5t123.5 48.5q76 0 122 -48t46 -116q0 -70 -45.5 -117.5t-122.5 -47.5zM633 1362q-26 0 -44 -16.5t-18 -45.5q0 -31 18 -48t44 -17q25 0 42 17t17 48q0 29 -17 45.5t-42 16.5zM854 1024h303v-1024h-303v197
q-106 -230 -362 -230q-196 0 -292 111.5t-96 318.5v627h304v-582q0 -119 50.5 -173t149.5 -54q116 0 181 87t65 257v465z" />
    <glyph glyph-name="Uhungarumlaut" unicode="&#x170;" horiz-adv-x="1447" 
d="M1161 1640l-334 -174l-55 62l252 258zM727 1630l-332 -172l-57 60l252 260zM113 510v852h311v-809q0 -130 34.5 -203.5t97.5 -101t169 -27.5t169 27.5t97.5 101t34.5 203.5v809h309v-852q0 -267 -153 -405t-457 -138q-305 0 -458.5 137.5t-153.5 405.5z" />
    <glyph glyph-name="uhungarumlaut" unicode="&#x171;" horiz-adv-x="1275" 
d="M1087 1315l-331 -172l-58 59l252 260zM655 1307l-333 -174l-56 61l252 258zM854 1024h303v-1024h-303v197q-106 -230 -362 -230q-196 0 -292 111.5t-96 318.5v627h304v-582q0 -119 50.5 -173t149.5 -54q116 0 181 87t65 257v465z" />
    <glyph glyph-name="Uogonek" unicode="&#x172;" horiz-adv-x="1447" 
d="M1335 510q0 -310 -202 -442q-60 -69 -60 -144q0 -58 36.5 -88.5t88.5 -30.5q58 0 107 15l2 -187q-49 -24 -133 -24q-130 0 -210.5 68t-80.5 182q0 64 28 125q-97 -17 -186 -17q-305 0 -458.5 137.5t-153.5 405.5v852h311v-809q0 -130 34.5 -203.5t97.5 -101t169 -27.5
t169 27.5t97.5 101t34.5 203.5v809h309v-852z" />
    <glyph glyph-name="uogonek" unicode="&#x173;" horiz-adv-x="1275" 
d="M1210 -180l2 -187q-50 -24 -133 -24q-130 0 -210.5 68t-80.5 182q0 100 66 182v156q-106 -230 -362 -230q-196 0 -292 111.5t-96 318.5v627h304v-582q0 -119 50.5 -173t149.5 -54q116 0 181 87t65 257v465h303v-1024h-162q-16 -40 -16 -76q0 -58 36.5 -88.5t88.5 -30.5
q56 0 106 15z" />
    <glyph glyph-name="Wcircumflex" unicode="&#x174;" horiz-adv-x="2207" 
d="M1104 1632l-230 -143l-100 110l248 152h164l248 -152l-101 -110zM1815 1362h307l-256 -1362h-529l-233 1120l-234 -1120h-528l-254 1362h305l221 -1180l256 1180h469l256 -1180z" />
    <glyph glyph-name="wcircumflex" unicode="&#x175;" horiz-adv-x="1863" 
d="M932 1257l-230 -141l-100 111l248 151h164l248 -151l-101 -111zM1546 1024h285l-270 -1024h-422l-207 709l-205 -709h-424l-270 1024h307l197 -799l249 799h316l250 -797z" />
    <glyph glyph-name="Ycircumflex" unicode="&#x176;" horiz-adv-x="1429" 
d="M717 1632l-230 -143l-100 110l248 152h164l248 -152l-101 -110zM1038 1362h346l-512 -950v-412h-311v412l-514 950h348l223 -473q75 -174 95 -225q60 137 100 225z" />
    <glyph glyph-name="ycircumflex" unicode="&#x177;" horiz-adv-x="1189" 
d="M596 1257l-229 -141l-101 111l248 151h164l248 -151l-101 -111zM881 1024h288l-358 -1055q-27 -81 -52.5 -136t-63 -104.5t-84 -78t-113 -44.5t-154.5 -16h-256v240h395l68 188h-174l-350 1006h309l225 -639l53 -168l48 168z" />
    <glyph glyph-name="Ydieresis" unicode="&#x178;" horiz-adv-x="1429" 
d="M651 1700v-203h-278v203h278zM1059 1700v-203h-279v203h279zM1038 1362h346l-512 -950v-412h-311v412l-514 950h348l223 -473q75 -174 95 -225q60 137 100 225z" />
    <glyph glyph-name="Zacute" unicode="&#x179;" horiz-adv-x="1409" 
d="M993 1544l-551 -67l-26 79l518 179zM512 248h809v-248h-1206v248l803 868h-787v246h1184v-246z" />
    <glyph glyph-name="zacute" unicode="&#x17a;" horiz-adv-x="1118" 
d="M864 1204l-553 -65l-24 80l518 178zM449 223h593v-223h-960v223l596 580h-588v221h946v-221z" />
    <glyph glyph-name="Zdotaccent" unicode="&#x17b;" horiz-adv-x="1409" 
d="M870 1700v-203h-329v203h329zM512 248h809v-248h-1206v248l803 868h-787v246h1184v-246z" />
    <glyph glyph-name="zdotaccent" unicode="&#x17c;" horiz-adv-x="1118" 
d="M739 1362v-203h-329v203h329zM449 223h593v-223h-960v223l596 580h-588v221h946v-221z" />
    <glyph glyph-name="Zcaron" unicode="&#x17d;" horiz-adv-x="1409" 
d="M786 1479h-163l-248 151l100 111l230 -144l229 144l100 -111zM512 248h809v-248h-1206v248l803 868h-787v246h1184v-246z" />
    <glyph glyph-name="zcaron" unicode="&#x17e;" horiz-adv-x="1118" 
d="M655 1143h-163l-248 151l100 111l229 -143l230 143l100 -111zM449 223h593v-223h-960v223l596 580h-588v221h946v-221z" />
    <glyph glyph-name="florin" unicode="&#x192;" horiz-adv-x="1241" 
d="M1077 1194h-305v-440h264v-230h-264v-565q0 -190 -87.5 -279.5t-299.5 -89.5h-221v240h305v694h-264v230h264v311q0 190 87.5 279.5t299.5 89.5h221v-240z" />
    <glyph glyph-name="uni01CD" unicode="&#x1cd;" horiz-adv-x="1554" 
d="M862 1479h-164l-247 151l100 111l229 -144l230 144l100 -111zM1182 0l-99 279h-610l-98 -279h-314l480 1362h475l479 -1362h-313zM557 518h442l-221 629z" />
    <glyph glyph-name="uni01CE" unicode="&#x1ce;" horiz-adv-x="1185" 
d="M270 1294l101 111l229 -143l229 143l101 -111l-248 -151h-164zM430 -27q-156 0 -248 80.5t-92 218.5q0 131 73.5 207.5t262.5 108.5l242 41q70 12 98.5 35t28.5 67q0 58 -40.5 88.5t-138.5 30.5q-202 0 -208 -160h-297q6 167 138 268t361 101t346 -92t117 -258v-443
q0 -116 17 -266h-265q-16 109 -16 219q-37 -112 -133 -179t-246 -67zM532 180q121 0 192 82.5t71 224.5v45q-58 -41 -168 -65l-86 -21q-82 -20 -117 -52.5t-35 -90.5q0 -59 39.5 -91t103.5 -32z" />
    <glyph glyph-name="uni01CF" unicode="&#x1cf;" horiz-adv-x="1052" 
d="M608 1479h-164l-247 151l100 111l229 -144l230 144l100 -111zM934 1116h-252v-868h252v-248h-815v248h252v868h-252v246h815v-246z" />
    <glyph glyph-name="uni01D0" unicode="&#x1d0;" horiz-adv-x="538" 
d="M-61 1294l100 111l229 -143l230 143l100 -111l-248 -151h-164zM119 0v1024h303v-1024h-303z" />
    <glyph glyph-name="uni01D1" unicode="&#x1d1;" horiz-adv-x="1619" 
d="M481 1630l101 111l229 -144l229 144l101 -111l-248 -151h-164zM811 -35q-152 0 -274.5 38.5t-204.5 104.5t-137 158t-79 195t-24 219q0 115 24 217.5t79 195t137 159.5t204.5 106t274.5 39t274.5 -39.5t204 -106.5t136 -159.5t78.5 -195t24 -216.5q0 -116 -24 -218.5
t-78.5 -194.5t-136 -158.5t-204 -105t-274.5 -38.5zM418 680q0 -115 19.5 -197.5t64.5 -142.5t121.5 -89.5t187.5 -29.5t187.5 29.5t121.5 89.5t64.5 142.5t19.5 197.5q0 236 -88.5 349.5t-304.5 113.5t-304.5 -113.5t-88.5 -349.5z" />
    <glyph glyph-name="uni01D2" unicode="&#x1d2;" horiz-adv-x="1286" 
d="M313 1294l101 111l229 -143l229 143l101 -111l-248 -151h-164zM643 -33q-119 0 -215.5 29.5t-161 80t-108 121t-63 149.5t-19.5 167q0 87 19.5 165t63 148t108 120.5t161 80t215.5 29.5t216 -29.5t161.5 -80.5t108 -121t62.5 -147.5t19 -164.5q0 -88 -19 -166.5
t-62.5 -149t-108 -121.5t-161.5 -80.5t-216 -29.5zM381 512q0 -168 61 -237.5t201 -69.5q141 0 202.5 69.5t61.5 237.5t-61.5 237.5t-202.5 69.5q-140 0 -201 -69.5t-61 -237.5z" />
    <glyph glyph-name="uni01D3" unicode="&#x1d3;" horiz-adv-x="1447" 
d="M395 1630l101 111l229 -144l229 144l101 -111l-248 -151h-164zM113 510v852h311v-809q0 -130 34.5 -203.5t97.5 -101t169 -27.5t169 27.5t97.5 101t34.5 203.5v809h309v-852q0 -267 -153 -405t-457 -138q-305 0 -458.5 137.5t-153.5 405.5z" />
    <glyph glyph-name="uni01D4" unicode="&#x1d4;" horiz-adv-x="1275" 
d="M713 1143h-164l-248 151l100 111l230 -143l229 143l101 -111zM854 1024h303v-1024h-303v197q-106 -230 -362 -230q-196 0 -292 111.5t-96 318.5v627h304v-582q0 -119 50.5 -173t149.5 -54q116 0 181 87t65 257v465z" />
    <glyph glyph-name="uni01D5" unicode="&#x1d5;" horiz-adv-x="1447" 
d="M326 2044h796v-189h-796v189zM381 1497v203h278v-203h-278zM788 1497v203h279v-203h-279zM113 510v852h311v-809q0 -130 34.5 -203.5t97.5 -101t169 -27.5t169 27.5t97.5 101t34.5 203.5v809h309v-852q0 -267 -153 -405t-457 -138q-305 0 -458.5 137.5t-153.5 405.5z" />
    <glyph glyph-name="uni01D6" unicode="&#x1d6;" horiz-adv-x="1275" 
d="M1010 1700v-178h-754v178h754zM551 1159h-279v203h279v-203zM987 1159h-278v203h278v-203zM854 1024h303v-1024h-303v197q-106 -230 -362 -230q-196 0 -292 111.5t-96 318.5v627h304v-582q0 -119 50.5 -173t149.5 -54q116 0 181 87t65 257v465z" />
    <glyph glyph-name="uni01D7" unicode="&#x1d7;" horiz-adv-x="1447" 
d="M1014 1882l-551 -67l-27 79l518 179zM381 1497v203h278v-203h-278zM788 1497v203h279v-203h-279zM113 510v852h311v-809q0 -130 34.5 -203.5t97.5 -101t169 -27.5t169 27.5t97.5 101t34.5 203.5v809h309v-852q0 -267 -153 -405t-457 -138q-305 0 -458.5 137.5
t-153.5 405.5z" />
    <glyph glyph-name="uni01D8" unicode="&#x1d8;" horiz-adv-x="1275" 
d="M922 1542l-553 -65l-25 79l518 179zM551 1362v-203h-279v203h279zM709 1159v203h278v-203h-278zM854 1024h303v-1024h-303v197q-106 -230 -362 -230q-196 0 -292 111.5t-96 318.5v627h304v-582q0 -119 50.5 -173t149.5 -54q116 0 181 87t65 257v465z" />
    <glyph glyph-name="uni01D9" unicode="&#x1d9;" horiz-adv-x="1447" 
d="M395 1968l101 111l229 -144l229 144l101 -111l-248 -151h-164zM381 1497v203h278v-203h-278zM788 1497v203h279v-203h-279zM113 510v852h311v-809q0 -130 34.5 -203.5t97.5 -101t169 -27.5t169 27.5t97.5 101t34.5 203.5v809h309v-852q0 -267 -153 -405t-457 -138
q-305 0 -458.5 137.5t-153.5 405.5z" />
    <glyph glyph-name="uni01DA" unicode="&#x1da;" horiz-adv-x="1275" 
d="M713 1481h-164l-248 151l100 111l230 -144l229 144l101 -111zM551 1362v-203h-279v203h279zM709 1159v203h278v-203h-278zM854 1024h303v-1024h-303v197q-106 -230 -362 -230q-196 0 -292 111.5t-96 318.5v627h304v-582q0 -119 50.5 -173t149.5 -54q116 0 181 87t65 257
v465z" />
    <glyph glyph-name="uni01DB" unicode="&#x1db;" horiz-adv-x="1447" 
d="M436 1882l60 191l518 -179l-25 -79zM381 1497v203h278v-203h-278zM788 1497v203h279v-203h-279zM113 510v852h311v-809q0 -130 34.5 -203.5t97.5 -101t169 -27.5t169 27.5t97.5 101t34.5 203.5v809h309v-852q0 -267 -153 -405t-457 -138q-305 0 -458.5 137.5
t-153.5 405.5z" />
    <glyph glyph-name="uni01DC" unicode="&#x1dc;" horiz-adv-x="1275" 
d="M922 1556l-25 -79l-553 65l59 193zM551 1362v-203h-279v203h279zM709 1159v203h278v-203h-278zM854 1024h303v-1024h-303v197q-106 -230 -362 -230q-196 0 -292 111.5t-96 318.5v627h304v-582q0 -119 50.5 -173t149.5 -54q116 0 181 87t65 257v465z" />
    <glyph glyph-name="uni0218" unicode="&#x218;" horiz-adv-x="1368" 
d="M80 449h303q6 -116 82.5 -184t230.5 -68q148 0 211.5 46.5t63.5 133.5q0 148 -183 172l-301 39q-183 22 -279.5 120.5t-96.5 266.5q0 192 144.5 307t422.5 115q148 0 261.5 -34t182.5 -95t105.5 -138.5t42.5 -171.5h-305q-12 99 -84 154t-203 55q-122 0 -188 -46.5
t-66 -127.5q0 -63 39 -102.5t121 -48.5l284 -35q416 -47 416 -399q0 -443 -592 -443q-131 0 -235 27t-172 72t-114 108t-67 131t-24 146zM539 -362v260h292v-406q0 -102 -49 -154.5t-170 -52.5h-73v162h120v191h-120z" />
    <glyph glyph-name="uni0219" unicode="&#x219;" horiz-adv-x="1101" 
d="M53 334h277q6 -78 65.5 -127t169.5 -49q185 0 185 118q0 50 -31.5 80.5t-112.5 40.5l-229 29q-145 19 -221 94.5t-76 204.5q0 165 126.5 249.5t338.5 84.5q213 0 340.5 -84.5t140.5 -249.5h-281q-8 66 -58 104.5t-142 38.5q-94 0 -139.5 -31t-45.5 -83q0 -90 129 -105
l216 -24q179 -23 257 -100.5t78 -217.5q0 -340 -479 -340q-132 0 -231.5 29.5t-158 81.5t-87.5 116t-31 140zM399 -362v260h293v-406q0 -102 -49 -154.5t-170 -52.5h-74v162h121v191h-121z" />
    <glyph glyph-name="uni021A" unicode="&#x21a;" horiz-adv-x="1343" 
d="M1276 1362v-246h-449v-1116h-311v1116h-448v246h1208zM514 -358v260h293v-406q0 -102 -49 -154.5t-170 -52.5h-74v162h121v191h-121z" />
    <glyph glyph-name="uni021B" unicode="&#x21b;" horiz-adv-x="860" 
d="M586 0q-108 0 -181.5 23t-116.5 71t-61 114t-18 161v426h-186v145l210 86l125 242h154v-244h295v-229h-295v-553h266v-242h-192zM332 -362v260h293v-406q0 -102 -49 -154.5t-170 -52.5h-74v162h121v191h-121z" />
    <glyph glyph-name="uni0237" unicode="&#x237;" horiz-adv-x="548" 
d="M-174 -410v240h305v1194h303v-1065q0 -190 -87.5 -279.5t-299.5 -89.5h-221z" />
    <glyph glyph-name="circumflex" unicode="&#x2c6;" horiz-adv-x="1228" 
d="M82 1227l248 151h164l247 -151l-100 -111l-229 141l-230 -141z" />
    <glyph glyph-name="caron" unicode="&#x2c7;" horiz-adv-x="1228" 
d="M174 1294l100 111l230 -143l229 143l101 -111l-248 -151h-164z" />
    <glyph glyph-name="breve" unicode="&#x2d8;" horiz-adv-x="1228" 
d="M182 1362h170q3 -45 37.5 -71.5t93.5 -26.5t92.5 26.5t38.5 71.5h170q-2 -41 -18 -77.5t-48.5 -70t-92.5 -53.5t-142 -20t-142 20t-92.5 53.5t-48.5 70t-18 77.5z" />
    <glyph glyph-name="dotaccent" unicode="&#x2d9;" horiz-adv-x="1228" 
d="M109 1159v203h329v-203h-329z" />
    <glyph glyph-name="ring" unicode="&#x2da;" horiz-adv-x="686" 
d="M344 1135q-77 0 -123.5 47.5t-46.5 117.5q0 67 46.5 115.5t123.5 48.5q76 0 122 -48t46 -116q0 -70 -45.5 -117.5t-122.5 -47.5zM283 1300q0 -31 17.5 -48t43.5 -17q25 0 42 17t17 48q0 29 -17 45.5t-42 16.5q-26 0 -43.5 -16.5t-17.5 -45.5z" />
    <glyph glyph-name="ogonek" unicode="&#x2db;" horiz-adv-x="1228" 
d="M434 -391q-130 0 -210.5 68t-80.5 182q0 194 232 309l67 -55q-108 -86 -108 -189q0 -58 36.5 -88.5t88.5 -30.5q57 0 106 15l2 -187q-49 -24 -133 -24z" />
    <glyph glyph-name="tilde" unicode="&#x2dc;" horiz-adv-x="1228" 
d="M715 1145q-55 0 -116 24t-110 48t-77 24q-50 0 -50 -61v-31h-188v59q0 87 51 127.5t137 40.5q61 0 121 -24t106.5 -48t76.5 -24q49 0 49 61v31h188v-53q0 -88 -51.5 -131t-136.5 -43z" />
    <glyph glyph-name="hungarumlaut" unicode="&#x2dd;" horiz-adv-x="1228" 
d="M979 1315l-332 -172l-57 59l252 260zM547 1307l-334 -174l-55 61l252 258z" />
    <glyph glyph-name="gravecomb" unicode="&#x300;" 
d="M-639 1204l59 193l519 -178l-25 -80z" />
    <glyph glyph-name="acutecomb" unicode="&#x301;" 
d="M-63 1204l-553 -65l-25 80l518 178z" />
    <glyph glyph-name="uni0302" unicode="&#x302;" 
d="M-741 1227l247 151h164l248 -151l-100 -111l-230 141l-229 -141z" />
    <glyph glyph-name="tildecomb" unicode="&#x303;" 
d="M-354 1145q-55 0 -116 24t-110 48t-77 24q-50 0 -50 -61v-31h-188v59q0 87 51 127.5t137 40.5q61 0 121 -24t106.5 -48t76.5 -24q49 0 49 61v31h188v-53q0 -88 -51.5 -131t-136.5 -43z" />
    <glyph glyph-name="uni0304" unicode="&#x304;" 
d="M-940 1362h754v-178h-754v178z" />
    <glyph glyph-name="uni0306" unicode="&#x306;" 
d="M-803 1362h170q3 -45 37.5 -71.5t93.5 -26.5t92.5 26.5t38.5 71.5h170q-2 -41 -18 -77.5t-48.5 -70t-92.5 -53.5t-142 -20t-142 20t-92.5 53.5t-48.5 70t-18 77.5z" />
    <glyph glyph-name="uni0307" unicode="&#x307;" 
d="M-436 1159v203h330v-203h-330z" />
    <glyph glyph-name="uni0308" unicode="&#x308;" 
d="M-844 1159v203h279v-203h-279zM-408 1159v203h279v-203h-279z" />
    <glyph glyph-name="uni030A" unicode="&#x30a;" 
d="M-342 1135q-77 0 -123.5 47.5t-46.5 117.5q0 67 46.5 115.5t123.5 48.5q76 0 122 -48t46 -116q0 -70 -45.5 -117.5t-122.5 -47.5zM-403 1300q0 -31 17.5 -48t43.5 -17q25 0 42 17t17 48q0 29 -17 45.5t-42 16.5q-26 0 -43.5 -16.5t-17.5 -45.5z" />
    <glyph glyph-name="uni030B" unicode="&#x30b;" 
d="M-156 1315l-331 -172l-58 59l252 260zM-588 1307l-334 -174l-55 61l252 258z" />
    <glyph glyph-name="uni030C" unicode="&#x30c;" 
d="M-834 1294l101 111l229 -143l230 143l100 -111l-248 -151h-164z" />
    <glyph glyph-name="uni0312" unicode="&#x312;" 
d="M-174 1403v-260h-293v405q0 102 49 154.5t170 52.5h74v-162h-121v-190h121z" />
    <glyph glyph-name="uni0326" unicode="&#x326;" 
d="M-395 -362v260h293v-406q0 -102 -49.5 -154.5t-170.5 -52.5h-73v162h121v191h-121z" />
    <glyph glyph-name="uni0327" unicode="&#x327;" 
d="M-494 -375v189h160l-63 266h213l59 -262q20 -86 -20.5 -139.5t-128.5 -53.5h-220z" />
    <glyph glyph-name="uni0328" unicode="&#x328;" 
d="M-295 -391q-130 0 -210.5 68t-80.5 182q0 194 232 309l67 -55q-108 -86 -108 -189q0 -58 36.5 -88.5t88.5 -30.5q57 0 106 15l2 -187q-50 -24 -133 -24z" />
    <glyph glyph-name="uni0394" unicode="&#x394;" horiz-adv-x="1511" 
d="M973 1362l436 -1120v-242h-1307v242l437 1120h434zM424 240h663l-331 870z" />
    <glyph glyph-name="uni03A9" unicode="&#x3a9;" horiz-adv-x="1662" 
d="M78 0v236h348q-147 64 -227 195.5t-80 320.5q0 96 23 185.5t77 174t133.5 147t203 100.5t275.5 38q153 0 276.5 -38t204 -100.5t134.5 -147t77 -174t23 -185.5q0 -189 -81 -320.5t-228 -195.5h350v-236h-1509zM831 281q113 0 190.5 29t122 88.5t63 138t18.5 188.5
q0 111 -18.5 189.5t-63 137.5t-122 88t-190.5 29t-189.5 -29t-120.5 -88t-62.5 -137.5t-18.5 -189.5q0 -110 18.5 -188.5t62.5 -138t121 -88.5t189 -29z" />
    <glyph glyph-name="pi" unicode="&#x3c0;" horiz-adv-x="1572" 
d="M1477 795h-265v-553h236v-242h-162q-108 0 -181.5 23t-116.5 71t-61 114t-18 161v426h-233v-795h-303v795h-275v229h1379v-229z" />
    <glyph glyph-name="Wgrave" unicode="&#x1e80;" horiz-adv-x="2207" 
d="M1393 1556l-25 -79l-553 67l59 191zM1815 1362h307l-256 -1362h-529l-233 1120l-234 -1120h-528l-254 1362h305l221 -1180l256 1180h469l256 -1180z" />
    <glyph glyph-name="wgrave" unicode="&#x1e81;" horiz-adv-x="1863" 
d="M1223 1219l-25 -80l-553 65l60 193zM1546 1024h285l-270 -1024h-422l-207 709l-205 -709h-424l-270 1024h307l197 -799l249 799h316l250 -797z" />
    <glyph glyph-name="Wacute" unicode="&#x1e82;" horiz-adv-x="2207" 
d="M1393 1544l-551 -67l-27 79l518 179zM1815 1362h307l-256 -1362h-529l-233 1120l-234 -1120h-528l-254 1362h305l221 -1180l256 1180h469l256 -1180z" />
    <glyph glyph-name="wacute" unicode="&#x1e83;" horiz-adv-x="1863" 
d="M1223 1204l-553 -65l-25 80l518 178zM1546 1024h285l-270 -1024h-422l-207 709l-205 -709h-424l-270 1024h307l197 -799l249 799h316l250 -797z" />
    <glyph glyph-name="Wdieresis" unicode="&#x1e84;" horiz-adv-x="2207" 
d="M1040 1700v-203h-278v203h278zM1448 1700v-203h-279v203h279zM1815 1362h307l-256 -1362h-529l-233 1120l-234 -1120h-528l-254 1362h305l221 -1180l256 1180h469l256 -1180z" />
    <glyph glyph-name="wdieresis" unicode="&#x1e85;" horiz-adv-x="1863" 
d="M852 1362v-203h-279v203h279zM1288 1362v-203h-278v203h278zM1546 1024h285l-270 -1024h-422l-207 709l-205 -709h-424l-270 1024h307l197 -799l249 799h316l250 -797z" />
    <glyph glyph-name="Ygrave" unicode="&#x1ef2;" horiz-adv-x="1429" 
d="M1006 1556l-25 -79l-553 67l59 191zM1038 1362h346l-512 -950v-412h-311v412l-514 950h348l223 -473q75 -174 95 -225q60 137 100 225z" />
    <glyph glyph-name="ygrave" unicode="&#x1ef3;" horiz-adv-x="1189" 
d="M885 1219l-25 -80l-553 65l60 193zM881 1024h288l-358 -1055q-27 -81 -52.5 -136t-63 -104.5t-84 -78t-113 -44.5t-154.5 -16h-256v240h395l68 188h-174l-350 1006h309l225 -639l53 -168l48 168z" />
    <glyph glyph-name="endash" unicode="&#x2013;" horiz-adv-x="1187" 
d="M55 631h1075v-207h-1075v207z" />
    <glyph glyph-name="emdash" unicode="&#x2014;" horiz-adv-x="1617" 
d="M55 631h1506v-207h-1506v207z" />
    <glyph glyph-name="quoteleft" unicode="&#x2018;" horiz-adv-x="374" 
d="M334 1010v-260h-293v407q0 101 49 153t170 52h74v-160h-121v-192h121z" />
    <glyph glyph-name="quoteright" unicode="&#x2019;" horiz-adv-x="374" 
d="M41 1102v260h293v-406q0 -102 -49 -154t-170 -52h-74v161h121v191h-121z" />
    <glyph glyph-name="quotesinglbase" unicode="&#x201a;" horiz-adv-x="374" 
d="M41 10v260h293v-407q0 -101 -49 -153t-170 -52h-74v160h121v192h-121z" />
    <glyph glyph-name="quotedblleft" unicode="&#x201c;" horiz-adv-x="774" 
d="M334 1010v-260h-293v407q0 101 49 153t170 52h74v-160h-121v-192h121zM733 1010v-260h-293v407q0 101 49 153t170 52h74v-160h-121v-192h121z" />
    <glyph glyph-name="quotedblright" unicode="&#x201d;" horiz-adv-x="774" 
d="M41 1102v260h293v-406q0 -102 -49 -154t-170 -52h-74v161h121v191h-121zM440 1102v260h293v-406q0 -102 -49 -154t-170 -52h-74v161h121v191h-121z" />
    <glyph glyph-name="quotedblbase" unicode="&#x201e;" horiz-adv-x="374" 
d="M41 10v260h293v-407q0 -101 -49 -153t-170 -52h-74v160h121v192h-121z" />
    <glyph glyph-name="dagger" unicode="&#x2020;" horiz-adv-x="1261" 
d="M1087 1239v-244h-317v-643h-276v643h-320v244h320v328h276v-328h317z" />
    <glyph glyph-name="daggerdbl" unicode="&#x2021;" horiz-adv-x="1261" 
d="M1087 1047h-317v-234h317v-244h-317v-278h-276v278h-320v244h320v234h-320v241h320v279h276v-279h317v-241z" />
    <glyph glyph-name="bullet" unicode="&#x2022;" horiz-adv-x="800" 
d="M401 289q-100 0 -160.5 61.5t-60.5 161.5t60.5 160.5t160.5 60.5q99 0 160.5 -61t61.5 -160q0 -100 -61.5 -161.5t-160.5 -61.5z" />
    <glyph glyph-name="ellipsis" unicode="&#x2026;" horiz-adv-x="1286" 
d="M41 0v270h303v-270h-303zM492 0v270h303v-270h-303zM942 0v270h303v-270h-303z" />
    <glyph glyph-name="perthousand" unicode="&#x2030;" horiz-adv-x="2502" 
d="M92 0v25l1176 1159h-496v-402h-608v580h1321q114 0 114 -94q0 -29 -14.5 -57.5t-54.5 -69.5l-1139 -1141h-299zM352 961h234v223h-234v-223zM1026 0v578h608v-578h-608zM1792 0v578h608v-578h-608zM1214 178h234v223h-234v-223zM1980 178h234v223h-234v-223z" />
    <glyph glyph-name="guilsinglleft" unicode="&#x2039;" horiz-adv-x="935" 
d="M109 494v36l405 494h320l-435 -512l435 -512h-320z" />
    <glyph glyph-name="guilsinglright" unicode="&#x203a;" horiz-adv-x="935" 
d="M829 494l-405 -494h-322l435 512l-435 512h322l405 -494v-36z" />
    <glyph glyph-name="Euro" unicode="&#x20ac;" horiz-adv-x="1886" 
d="M1124 893v-166h-960v166h172q26 109 79 198.5t135.5 159t204 108t271.5 38.5q343 0 504.5 -141t183.5 -429h-317q-16 158 -101.5 237t-267.5 79q-149 0 -239 -62t-127 -188h462zM1401 551h321q-11 -151 -54 -258t-125.5 -181.5t-211.5 -110.5t-309 -36q-293 0 -462.5 130
t-223.5 354h-172v165h960v-165h-460q35 -117 121.5 -172.5t234.5 -55.5q189 0 279 82.5t102 247.5z" />
    <glyph glyph-name="trademark" unicode="&#x2122;" horiz-adv-x="2990" 
d="M2873 1362v-1362h-311v1157l-358 -1157h-361l-360 1163v-1163h-309v1116h-347v-1116h-311v1116h-448v246h1640l320 -1055l319 1055h526z" />
    <glyph glyph-name="arrowleft" unicode="&#x2190;" horiz-adv-x="1548" 
d="M1446 692v-209h-948l387 -387l-146 -147l-637 641l637 637l146 -146l-391 -389h952z" />
    <glyph glyph-name="arrowup" unicode="&#x2191;" horiz-adv-x="1480" 
d="M1378 707l-145 -146l-383 385v-946h-217v946l-385 -385l-146 146l639 636z" />
    <glyph glyph-name="arrowright" unicode="&#x2192;" horiz-adv-x="1548" 
d="M809 1227l637 -637l-637 -641l-145 147l387 387h-949v209h953l-391 389z" />
    <glyph glyph-name="arrowdown" unicode="&#x2193;" horiz-adv-x="1480" 
d="M1233 725l145 -145l-637 -637l-639 637l146 145l385 -385v946h217v-946z" />
    <glyph glyph-name="uni2196" unicode="&#x2196;" horiz-adv-x="1230" 
d="M1128 152l-153 -154l-668 670v-545h-205v901h902v-205h-541z" />
    <glyph glyph-name="uni2197" unicode="&#x2197;" horiz-adv-x="1230" 
d="M227 1024h901v-901h-204v543l-668 -668l-154 154l668 667h-543v205z" />
    <glyph glyph-name="uni2198" unicode="&#x2198;" horiz-adv-x="1230" 
d="M924 901h204v-901h-901v205h545l-670 667l154 154l668 -666v541z" />
    <glyph glyph-name="uni2199" unicode="&#x2199;" horiz-adv-x="1230" 
d="M1128 872l-667 -667h543v-205h-902v901h205v-543l668 668z" />
    <glyph glyph-name="partialdiff" unicode="&#x2202;" horiz-adv-x="1284" 
d="M74 514q0 112 27.5 205.5t82.5 167t148 114.5t215 41q253 0 364 -188q0 151 -120 288t-316 210l129 198q312 -114 459 -339t147 -570q0 -344 -137.5 -509t-427.5 -165q-120 0 -216.5 28.5t-162 78.5t-109.5 119.5t-63.5 149.5t-19.5 171zM379 512q0 -162 59 -234.5
t201 -72.5q143 0 207.5 74.5t64.5 232.5t-64.5 232.5t-207.5 74.5q-142 0 -201 -72t-59 -235z" />
    <glyph glyph-name="product" unicode="&#x220f;" horiz-adv-x="1748" 
d="M1589 1567v-242h-268v-1735h-277v1735h-319v-1735h-276v1735h-269v242h1409z" />
    <glyph glyph-name="summation" unicode="&#x2211;" horiz-adv-x="1402" 
d="M1239 1567v-242h-760l557 -745l-557 -748h760v-242h-1075v242l559 748l-559 745v242h1075z" />
    <glyph glyph-name="minus" unicode="&#x2212;" horiz-adv-x="1208" 
d="M174 631h860v-207h-860v207z" />
    <glyph glyph-name="radical" unicode="&#x221a;" horiz-adv-x="2039" 
d="M1917 1526v-242h-381l-578 -1694h-405l-389 899h260l326 -751l608 1788h559z" />
    <glyph glyph-name="infinity" unicode="&#x221e;" horiz-adv-x="1851" 
d="M535 178q-169 0 -270 106.5t-101 260.5q0 72 25.5 136.5t72 114t117.5 78.5t156 29q113 0 198.5 -50t128.5 -131t43 -177q0 -154 -100.5 -260.5t-269.5 -106.5zM1317 178q-169 0 -270 106.5t-101 260.5q0 72 25.5 136.5t72 114t117.5 78.5t156 29t156 -29t117.5 -78.5
t72 -114t25.5 -136.5q0 -154 -101 -260.5t-270 -106.5zM362 543q0 -80 50 -129t123 -49t123.5 49t50.5 129q0 81 -50 126.5t-124 45.5t-123.5 -45.5t-49.5 -126.5zM1145 543q0 -80 49.5 -129t122.5 -49t123.5 49t50.5 129q0 81 -50 126.5t-124 45.5t-123 -45.5t-49 -126.5z
" />
    <glyph glyph-name="integral" unicode="&#x222b;" horiz-adv-x="1476" 
d="M164 -410v250h317l207 1358q13 80 27.5 132.5t41.5 101.5t67.5 76t102.5 43t148 16h238v-250h-318l-209 -1358q-10 -66 -21.5 -112.5t-30.5 -91t-46.5 -73t-67 -50.5t-94.5 -32t-127 -10h-235z" />
    <glyph glyph-name="approxequal" unicode="&#x2248;" horiz-adv-x="1097" 
d="M739 612q-61 0 -118.5 25.5t-93 55.5t-72.5 55.5t-62 25.5q-51 0 -51 -65v-82h-168v155q0 87 52 128.5t132 41.5q52 0 98.5 -16.5t80 -39.5t62.5 -46.5t56.5 -40t51.5 -16.5q49 0 49 63v82h168v-150q0 -86 -55 -131t-130 -45zM739 129q-61 0 -118.5 25.5t-93 55.5
t-72.5 55.5t-62 25.5q-51 0 -51 -66v-82h-168v156q0 87 52 128.5t132 41.5q52 0 98.5 -16.5t80 -40t62.5 -47t56.5 -40t51.5 -16.5q49 0 49 64v82h168v-150q0 -86 -55 -131t-130 -45z" />
    <glyph glyph-name="notequal" unicode="&#x2260;" horiz-adv-x="1103" 
d="M928 612h-244l-68 -182h312v-207h-387l-72 -190h-195l72 190h-172v207h248l67 182h-315v207h393l70 187h194l-69 -187h166v-207z" />
    <glyph glyph-name="lessequal" unicode="&#x2264;" horiz-adv-x="1224" 
d="M1051 993v-184l-744 -121l744 -123v-184l-875 154v305zM176 100v187h875v-187h-875z" />
    <glyph glyph-name="greaterequal" unicode="&#x2265;" horiz-adv-x="1224" 
d="M174 993l877 -153v-305l-877 -154v184l746 123l-746 121v184zM174 100v187h877v-187h-877z" />
    <glyph glyph-name="filledbox" unicode="&#x25a0;" horiz-adv-x="1568" 
d="M102 1362h1364v-1362h-1364v1362z" />
    <glyph glyph-name="triagup" unicode="&#x25b2;" horiz-adv-x="1728" 
d="M864 1362l762 -1362h-1524z" />
    <glyph glyph-name="lozenge" unicode="&#x25ca;" horiz-adv-x="1413" 
d="M938 1362l311 -680l-311 -682h-463l-311 682l311 680h463zM707 121l256 561l-256 559l-256 -559z" />
    <glyph glyph-name="uni25CF" unicode="&#x25cf;" horiz-adv-x="1640" 
d="M823 -37q-197 0 -363 96t-262 262t-96 363q0 146 56.5 278t153 228t230 152.5t281.5 56.5q146 0 278 -56.5t228 -152.5t152.5 -228t56.5 -278q0 -148 -56.5 -281.5t-152.5 -230t-228 -153t-278 -56.5z" />
    <glyph glyph-name="G.ss03" horiz-adv-x="1619" 
d="M741 -35q-164 0 -290 56t-203.5 155t-116.5 227t-39 279q0 153 43 280t129.5 225.5t230 154t330.5 55.5q166 0 292 -36.5t205 -104t121 -155.5t52 -200h-315q-14 121 -102.5 186.5t-254.5 65.5q-205 0 -305 -115.5t-100 -357.5q0 -234 94.5 -351.5t296.5 -117.5
q98 0 170.5 24t116 68.5t67 97.5t33.5 121h-485v203h540q117 0 179.5 -61.5t62.5 -178.5v-485h-266v262q-45 -134 -164 -215.5t-322 -81.5z" />
    <glyph glyph-name="Gbreve.ss03" horiz-adv-x="1619" 
d="M506 1706h170q3 -45 37.5 -71.5t93.5 -26.5t92.5 26.5t38.5 71.5h170q-2 -41 -18 -77.5t-48.5 -70t-92.5 -53.5t-142 -20t-142 20t-92.5 53.5t-48.5 70t-18 77.5zM741 -35q-164 0 -290 56t-203.5 155t-116.5 227t-39 279q0 153 43 280t129.5 225.5t230 154t330.5 55.5
q166 0 292 -36.5t205 -104t121 -155.5t52 -200h-315q-14 121 -102.5 186.5t-254.5 65.5q-205 0 -305 -115.5t-100 -357.5q0 -234 94.5 -351.5t296.5 -117.5q98 0 170.5 24t116 68.5t67 97.5t33.5 121h-485v203h540q117 0 179.5 -61.5t62.5 -178.5v-485h-266v262
q-45 -134 -164 -215.5t-322 -81.5z" />
    <glyph glyph-name="uni0122.ss03" horiz-adv-x="1619" 
d="M741 -35q-164 0 -290 56t-203.5 155t-116.5 227t-39 279q0 153 43 280t129.5 225.5t230 154t330.5 55.5q166 0 292 -36.5t205 -104t121 -155.5t52 -200h-315q-14 121 -102.5 186.5t-254.5 65.5q-205 0 -305 -115.5t-100 -357.5q0 -234 94.5 -351.5t296.5 -117.5
q98 0 170.5 24t116 68.5t67 97.5t33.5 121h-485v203h540q117 0 179.5 -61.5t62.5 -178.5v-485h-266v262q-45 -134 -164 -215.5t-322 -81.5zM659 -362v260h293v-406q0 -102 -49 -154.5t-170 -52.5h-74v162h121v191h-121z" />
    <glyph glyph-name="Gdotaccent.ss03" horiz-adv-x="1619" 
d="M641 1497v203h330v-203h-330zM741 -35q-164 0 -290 56t-203.5 155t-116.5 227t-39 279q0 153 43 280t129.5 225.5t230 154t330.5 55.5q166 0 292 -36.5t205 -104t121 -155.5t52 -200h-315q-14 121 -102.5 186.5t-254.5 65.5q-205 0 -305 -115.5t-100 -357.5
q0 -234 94.5 -351.5t296.5 -117.5q98 0 170.5 24t116 68.5t67 97.5t33.5 121h-485v203h540q117 0 179.5 -61.5t62.5 -178.5v-485h-266v262q-45 -134 -164 -215.5t-322 -81.5z" />
    <glyph glyph-name="Q.ss03" horiz-adv-x="1619" 
d="M1528 680q0 -179 -60 -329t-184 -247l129 -172l-217 -141l-141 203q-116 -29 -244 -29q-152 0 -274.5 38.5t-204.5 104.5t-137 158t-79 195t-24 219q0 115 24 217.5t79 195t137 159.5t204.5 106t274.5 39t274.5 -39.5t204 -106.5t136 -159.5t78.5 -195t24 -216.5z
M811 221q32 0 86 4l-141 205l192 125l166 -223q90 106 90 348q0 236 -88.5 349.5t-304.5 113.5t-304.5 -113.5t-88.5 -349.5q0 -115 19.5 -197.5t64.5 -142.5t121.5 -89.5t187.5 -29.5z" />
    <glyph glyph-name="R.ss03" horiz-adv-x="1376" 
d="M897 530l121 -282h264v-248h-340q-75 0 -119.5 31.5t-72.5 103.5l-150 391h-168v-526h-313v1362h719q222 0 336 -106t114 -298q0 -191 -94 -299.5t-297 -128.5zM432 1120v-370h332q104 0 151.5 47.5t47.5 144.5q0 178 -195 178h-336z" />
    <glyph glyph-name="Racute.ss03" horiz-adv-x="1376" 
d="M979 1544l-551 -67l-27 79l519 179zM897 530l121 -282h264v-248h-340q-75 0 -119.5 31.5t-72.5 103.5l-150 391h-168v-526h-313v1362h719q222 0 336 -106t114 -298q0 -191 -94 -299.5t-297 -128.5zM432 1120v-370h332q104 0 151.5 47.5t47.5 144.5q0 178 -195 178h-336z
" />
    <glyph glyph-name="Rcaron.ss03" horiz-adv-x="1376" 
d="M772 1479h-164l-248 151l101 111l229 -144l230 144l100 -111zM897 530l121 -282h264v-248h-340q-75 0 -119.5 31.5t-72.5 103.5l-150 391h-168v-526h-313v1362h719q222 0 336 -106t114 -298q0 -191 -94 -299.5t-297 -128.5zM432 1120v-370h332q104 0 151.5 47.5
t47.5 144.5q0 178 -195 178h-336z" />
    <glyph glyph-name="uni0156.ss03" horiz-adv-x="1376" 
d="M897 530l121 -282h264v-248h-340q-75 0 -119.5 31.5t-72.5 103.5l-150 391h-168v-526h-313v1362h719q222 0 336 -106t114 -298q0 -191 -94 -299.5t-297 -128.5zM432 1120v-370h332q104 0 151.5 47.5t47.5 144.5q0 178 -195 178h-336zM543 -362v260h293v-406
q0 -102 -49.5 -154.5t-170.5 -52.5h-73v162h121v191h-121z" />
    <glyph glyph-name="i.loclTRK" horiz-adv-x="538" 
d="M104 1159v203h330v-203h-330zM119 0v1024h303v-1024h-303z" />
    <glyph glyph-name="a.ss01" horiz-adv-x="1312" 
d="M893 1024h303v-1024h-303v154q-109 -187 -358 -187q-123 0 -214 43.5t-144 120.5t-78 172t-25 209q0 92 15 171t50 149t87.5 119t131 77.5t177.5 28.5q250 0 358 -185v152zM629 205q136 0 200 72t64 235q0 164 -64 235.5t-200 71.5q-137 0 -195.5 -71t-58.5 -236
q0 -164 58.5 -235.5t195.5 -71.5z" />
    <glyph glyph-name="aacute.ss01" horiz-adv-x="1312" 
d="M946 1204l-553 -65l-24 80l518 178zM893 1024h303v-1024h-303v154q-109 -187 -358 -187q-123 0 -214 43.5t-144 120.5t-78 172t-25 209q0 92 15 171t50 149t87.5 119t131 77.5t177.5 28.5q250 0 358 -185v152zM629 205q136 0 200 72t64 235q0 164 -64 235.5t-200 71.5
q-137 0 -195.5 -71t-58.5 -236q0 -164 58.5 -235.5t195.5 -71.5z" />
    <glyph glyph-name="abreve.ss01" horiz-adv-x="1312" 
d="M647 1141q-82 0 -142 20t-92.5 53.5t-48.5 70t-18 77.5h170q3 -45 37.5 -71.5t93.5 -26.5t92.5 26.5t38.5 71.5h170q-2 -41 -18 -77.5t-48.5 -70t-92.5 -53.5t-142 -20zM893 1024h303v-1024h-303v154q-109 -187 -358 -187q-123 0 -214 43.5t-144 120.5t-78 172t-25 209
q0 92 15 171t50 149t87.5 119t131 77.5t177.5 28.5q250 0 358 -185v152zM629 205q136 0 200 72t64 235q0 164 -64 235.5t-200 71.5q-137 0 -195.5 -71t-58.5 -236q0 -164 58.5 -235.5t195.5 -71.5z" />
    <glyph glyph-name="acircumflex.ss01" horiz-adv-x="1312" 
d="M657 1257l-229 -141l-100 111l247 151h164l248 -151l-100 -111zM893 1024h303v-1024h-303v154q-109 -187 -358 -187q-123 0 -214 43.5t-144 120.5t-78 172t-25 209q0 92 15 171t50 149t87.5 119t131 77.5t177.5 28.5q250 0 358 -185v152zM629 205q136 0 200 72t64 235
q0 164 -64 235.5t-200 71.5q-137 0 -195.5 -71t-58.5 -236q0 -164 58.5 -235.5t195.5 -71.5z" />
    <glyph glyph-name="adieresis.ss01" horiz-adv-x="1312" 
d="M578 1362v-203h-279v203h279zM1014 1362v-203h-279v203h279zM893 1024h303v-1024h-303v154q-109 -187 -358 -187q-123 0 -214 43.5t-144 120.5t-78 172t-25 209q0 92 15 171t50 149t87.5 119t131 77.5t177.5 28.5q250 0 358 -185v152zM629 205q136 0 200 72t64 235
q0 164 -64 235.5t-200 71.5q-137 0 -195.5 -71t-58.5 -236q0 -164 58.5 -235.5t195.5 -71.5z" />
    <glyph glyph-name="agrave.ss01" horiz-adv-x="1312" 
d="M946 1219l-24 -80l-553 65l59 193zM893 1024h303v-1024h-303v154q-109 -187 -358 -187q-123 0 -214 43.5t-144 120.5t-78 172t-25 209q0 92 15 171t50 149t87.5 119t131 77.5t177.5 28.5q250 0 358 -185v152zM629 205q136 0 200 72t64 235q0 164 -64 235.5t-200 71.5
q-137 0 -195.5 -71t-58.5 -236q0 -164 58.5 -235.5t195.5 -71.5z" />
    <glyph glyph-name="amacron.ss01" horiz-adv-x="1312" 
d="M1034 1362v-178h-753v178h753zM893 1024h303v-1024h-303v154q-109 -187 -358 -187q-123 0 -214 43.5t-144 120.5t-78 172t-25 209q0 92 15 171t50 149t87.5 119t131 77.5t177.5 28.5q250 0 358 -185v152zM629 205q136 0 200 72t64 235q0 164 -64 235.5t-200 71.5
q-137 0 -195.5 -71t-58.5 -236q0 -164 58.5 -235.5t195.5 -71.5z" />
    <glyph glyph-name="aogonek.ss01" horiz-adv-x="1312" 
d="M1257 -180l3 -187q-50 -24 -134 -24q-130 0 -210 68t-80 182q0 97 57 172v123q-109 -187 -358 -187q-123 0 -214 43.5t-144 120.5t-78 172t-25 209q0 92 15 171t50 149t87.5 119t131 77.5t177.5 28.5q250 0 358 -185v152h303v-1024h-154q-16 -40 -16 -76
q0 -58 36.5 -88.5t88.5 -30.5q57 0 106 15zM629 205q136 0 200 72t64 235q0 164 -64 235.5t-200 71.5q-137 0 -195.5 -71t-58.5 -236q0 -164 58.5 -235.5t195.5 -71.5z" />
    <glyph glyph-name="aring.ss01" horiz-adv-x="1312" 
d="M657 1135q-77 0 -123.5 47.5t-46.5 117.5q0 67 46.5 115.5t123.5 48.5q76 0 122 -48t46 -116q0 -70 -45.5 -117.5t-122.5 -47.5zM657 1362q-26 0 -43.5 -16.5t-17.5 -45.5q0 -31 17.5 -48t43.5 -17q25 0 42.5 17t17.5 48q0 29 -17.5 45.5t-42.5 16.5zM893 1024h303v-1024
h-303v154q-109 -187 -358 -187q-123 0 -214 43.5t-144 120.5t-78 172t-25 209q0 92 15 171t50 149t87.5 119t131 77.5t177.5 28.5q250 0 358 -185v152zM629 205q136 0 200 72t64 235q0 164 -64 235.5t-200 71.5q-137 0 -195.5 -71t-58.5 -236q0 -164 58.5 -235.5
t195.5 -71.5z" />
    <glyph glyph-name="atilde.ss01" horiz-adv-x="1312" 
d="M481 1180v-31h-188v59q0 87 51 127.5t137 40.5q61 0 120.5 -24t106 -48t76.5 -24q50 0 50 61v31h188v-53q0 -88 -51.5 -131t-136.5 -43q-55 0 -116 24t-110.5 48t-77.5 24q-49 0 -49 -61zM893 1024h303v-1024h-303v154q-109 -187 -358 -187q-123 0 -214 43.5t-144 120.5
t-78 172t-25 209q0 92 15 171t50 149t87.5 119t131 77.5t177.5 28.5q250 0 358 -185v152zM629 205q136 0 200 72t64 235q0 164 -64 235.5t-200 71.5q-137 0 -195.5 -71t-58.5 -236q0 -164 58.5 -235.5t195.5 -71.5z" />
    <glyph glyph-name="g.ss02" horiz-adv-x="1251" 
d="M860 147q163 0 250.5 -71t87.5 -203q0 -311 -594 -311q-250 0 -376 63t-126 182q0 66 36.5 113.5t99.5 69.5q-60 24 -91.5 69t-31.5 99q0 84 58.5 137.5t150.5 69.5q-220 92 -220 311q0 95 34.5 166t96 112.5t138.5 61.5t170 20q128 0 216.5 -48.5t133.5 -121.5v158h260
v-362q0 -63 -16 -117.5t-54 -103.5t-95.5 -84t-145.5 -56t-199 -22h-145q-105 0 -105 -68q0 -64 86 -64h381zM627 829q-226 0 -226 -174q0 -168 226 -168q119 0 173 41t54 129q0 83 -56.5 127.5t-170.5 44.5zM623 -276q147 0 209.5 30t62.5 90q0 44 -31 69.5t-90 25.5h-313
q-48 0 -73.5 -24.5t-25.5 -64.5q0 -65 64 -95.5t197 -30.5z" />
    <glyph glyph-name="gbreve.ss02" horiz-adv-x="1251" 
d="M616 1141q-82 0 -142 20t-92.5 53.5t-48.5 70t-18 77.5h170q3 -45 37.5 -71.5t93.5 -26.5t93 26.5t39 71.5h170q-2 -41 -18 -77.5t-48.5 -70t-93 -53.5t-142.5 -20zM860 147q163 0 250.5 -71t87.5 -203q0 -311 -594 -311q-250 0 -376 63t-126 182q0 66 36.5 113.5
t99.5 69.5q-60 24 -91.5 69t-31.5 99q0 84 58.5 137.5t150.5 69.5q-220 92 -220 311q0 95 34.5 166t96 112.5t138.5 61.5t170 20q128 0 216.5 -48.5t133.5 -121.5v158h260v-362q0 -63 -16 -117.5t-54 -103.5t-95.5 -84t-145.5 -56t-199 -22h-145q-105 0 -105 -68
q0 -64 86 -64h381zM627 829q-226 0 -226 -174q0 -168 226 -168q119 0 173 41t54 129q0 83 -56.5 127.5t-170.5 44.5zM623 -276q147 0 209.5 30t62.5 90q0 44 -31 69.5t-90 25.5h-313q-48 0 -73.5 -24.5t-25.5 -64.5q0 -65 64 -95.5t197 -30.5z" />
    <glyph glyph-name="uni0123.ss02" horiz-adv-x="1251" 
d="M772 1403v-260h-293v405q0 102 49 154.5t170 52.5h74v-162h-121v-190h121zM860 147q163 0 250.5 -71t87.5 -203q0 -311 -594 -311q-250 0 -376 63t-126 182q0 66 36.5 113.5t99.5 69.5q-60 24 -91.5 69t-31.5 99q0 84 58.5 137.5t150.5 69.5q-220 92 -220 311
q0 95 34.5 166t96 112.5t138.5 61.5t170 20q128 0 216.5 -48.5t133.5 -121.5v158h260v-362q0 -63 -16 -117.5t-54 -103.5t-95.5 -84t-145.5 -56t-199 -22h-145q-105 0 -105 -68q0 -64 86 -64h381zM627 829q-226 0 -226 -174q0 -168 226 -168q119 0 173 41t54 129
q0 83 -56.5 127.5t-170.5 44.5zM623 -276q147 0 209.5 30t62.5 90q0 44 -31 69.5t-90 25.5h-313q-48 0 -73.5 -24.5t-25.5 -64.5q0 -65 64 -95.5t197 -30.5z" />
    <glyph glyph-name="gdotaccent.ss02" horiz-adv-x="1251" 
d="M793 1362v-203h-330v203h330zM860 147q163 0 250.5 -71t87.5 -203q0 -311 -594 -311q-250 0 -376 63t-126 182q0 66 36.5 113.5t99.5 69.5q-60 24 -91.5 69t-31.5 99q0 84 58.5 137.5t150.5 69.5q-220 92 -220 311q0 95 34.5 166t96 112.5t138.5 61.5t170 20
q128 0 216.5 -48.5t133.5 -121.5v158h260v-362q0 -63 -16 -117.5t-54 -103.5t-95.5 -84t-145.5 -56t-199 -22h-145q-105 0 -105 -68q0 -64 86 -64h381zM627 829q-226 0 -226 -174q0 -168 226 -168q119 0 173 41t54 129q0 83 -56.5 127.5t-170.5 44.5zM623 -276
q147 0 209.5 30t62.5 90q0 44 -31 69.5t-90 25.5h-313q-48 0 -73.5 -24.5t-25.5 -64.5q0 -65 64 -95.5t197 -30.5z" />
    <glyph glyph-name="f_f_j" horiz-adv-x="1996" 
d="M1454 1024v-229h-235v-795h-304v795h-389v-795h-303v795h-182v145l182 88v94q0 151 83 231.5t267 80.5h211v-220h-301v-190h432v88q0 158 83.5 240t269.5 82h618v-220h-708v-190h276zM1593 1024h303v-1065q0 -190 -87.5 -279.5t-299.5 -89.5h-221v240h305v1194z" />
    <glyph glyph-name="f_f_t" horiz-adv-x="2228" 
d="M2173 795h-295v-553h266v-242h-192q-108 0 -181.5 23t-116.5 71t-61 114t-18 161v436h-356v-805h-304v805h-389v-805h-303v795h-182v145l182 88v94q0 151 83 231.5t267 80.5h211v-220h-301v-190h424l8 4v94q0 151 84 231.5t269 80.5h194v-220h-284v-190h424l122 244h154
v-244h295v-229z" />
    <glyph glyph-name="f_j" horiz-adv-x="1359" 
d="M223 0v795h-182v145l182 88v94q0 151 83 231.5t267 80.5h676v-220h-766v-190h340v-229h-297v-795h-303zM651 -410v240h305v1194h304v-1065q0 -190 -88 -279.5t-300 -89.5h-221z" />
    <glyph glyph-name="f_t" horiz-adv-x="1533" 
d="M1481 795h-295v-553h266v-242h-192q-108 0 -181.5 23t-116.5 71t-61 114t-18 161v436h-357v-805h-303v795h-182v145l182 88v94q0 151 83 231.5t267 80.5h195v-220h-285v-190h426l123 244h154v-244h295v-229z" />
    <glyph glyph-name="r_t" horiz-adv-x="1570" 
d="M1518 795h-295v-553h266v-242h-193q-108 0 -181.5 23t-116 71t-60.5 114t-18 161v610l149 289h154v-244h295v-229zM414 805q79 235 313 235h68v-295h-101q-149 0 -210.5 -82t-61.5 -260v-403h-303v1024h295v-219z" />
    <glyph glyph-name="r_t_t" horiz-adv-x="2289" 
d="M2236 795h-294v-553h266v-242h-193q-108 0 -181.5 23t-116.5 71t-61 114t-18 161v426h-415v-553h266v-242h-193q-108 0 -181.5 23t-116 71t-60.5 114t-18 161v610l149 289h154v-244h440l125 244h154v-244h294v-229zM414 805q79 235 313 235h68v-295h-101
q-149 0 -210.5 -82t-61.5 -260v-403h-303v1024h295v-219z" />
    <glyph glyph-name="t_t" horiz-adv-x="1579" 
d="M1526 795h-295v-553h266v-242h-192q-108 0 -181.5 23t-116.5 71t-61 114t-18 161v436h-416v-563h266v-242h-192q-108 0 -181.5 23t-116.5 71t-61 114t-18 161v426h-186v145l210 86l125 242h154v-244h440l125 244h154v-244h295v-229z" />
    <glyph glyph-name="asterisk.case" horiz-adv-x="1568" 
d="M1464 578h-174l-454 81l378 -264l123 -123l-145 -145l-123 123l-266 383l84 -459v-174h-207v174l82 457l-264 -381l-123 -123l-146 145l123 123l381 264l-457 -81h-174v206h174l457 -82l-381 265l-123 123l146 145l123 -123l264 -379l-82 455v174h207v-174l-84 -459
l266 383l123 123l145 -145l-123 -123l-383 -267l459 84h174v-206z" />
    <glyph glyph-name="sterling.ss01" horiz-adv-x="1241" 
d="M621 219h477v-219h-955v219h174v242h-151v188h151v121h-151v188h151v107q0 190 88 279.5t300 89.5h329v-240h-413v-236h309v-188h-309v-121h309v-188h-309v-242z" />
    <glyph glyph-name="percent.alt" horiz-adv-x="1613" 
d="M391 801q-143 0 -221 86t-78 213q0 125 78.5 211t220.5 86t220.5 -86t78.5 -211q0 -127 -78 -213t-221 -86zM121 0v25l1044 1337h277v-25l-1043 -1337h-278zM391 969q64 0 92.5 31.5t28.5 99.5q0 69 -28.5 101t-92.5 32t-92.5 -32t-28.5 -101q0 -68 28.5 -99.5
t92.5 -31.5zM1212 -12q-143 0 -221 86t-78 213q0 125 78.5 211t220.5 86t220.5 -86t78.5 -211q0 -127 -78 -213t-221 -86zM1212 156q63 0 92 31.5t29 99.5q0 69 -29 101t-92 32q-65 0 -92.5 -31.5t-27.5 -101.5q0 -69 27.5 -100t92.5 -31z" />
    <glyph glyph-name="uni2197.case" horiz-adv-x="1230" 
d="M227 1362h901v-901h-204v543l-668 -668l-154 153l668 668h-543v205z" />
    <glyph glyph-name="uni2196.case" horiz-adv-x="1230" 
d="M1128 489l-153 -153l-668 670v-545h-205v901h902v-205h-541z" />
    <glyph glyph-name="uni0308.case" 
d="M-799 1497v203h279v-203h-279zM-391 1497v203h278v-203h-278z" />
    <glyph glyph-name="uni0307.case" 
d="M-436 1497v203h330v-203h-330z" />
    <glyph glyph-name="gravecomb.case" 
d="M-639 1544l59 191l519 -179l-25 -79z" />
    <glyph glyph-name="acutecomb.case" 
d="M-61 1544l-551 -67l-27 79l518 179z" />
    <glyph glyph-name="uni030B.case" 
d="M-174 1640l-334 -174l-55 62l252 258zM-608 1630l-332 -172l-57 60l252 260z" />
    <glyph glyph-name="uni0302.case" 
d="M-741 1599l247 152h164l248 -152l-100 -110l-230 143l-229 -143z" />
    <glyph glyph-name="uni030C.case" 
d="M-834 1630l101 111l229 -144l230 144l100 -111l-248 -151h-164z" />
    <glyph glyph-name="uni0306.case" 
d="M-803 1706h170q3 -45 37.5 -71.5t93.5 -26.5t92.5 26.5t38.5 71.5h170q-2 -41 -18 -77.5t-48.5 -70t-92.5 -53.5t-142 -20t-142 20t-92.5 53.5t-48.5 70t-18 77.5z" />
    <glyph glyph-name="uni030A.case" 
d="M-342 1438q-99 0 -158 61.5t-59 149.5t59 149.5t158 61.5t157 -61t58 -150t-58 -150t-157 -61zM-418 1649q0 -37 22 -58.5t54 -21.5q31 0 53.5 21.5t22.5 58.5t-22 57t-54 20q-33 0 -54.5 -19.5t-21.5 -57.5z" />
    <glyph glyph-name="tildecomb.case" 
d="M-354 1493q-55 0 -116 24t-110 48t-77 24q-50 0 -50 -61v-31h-188v59q0 87 51 127.5t137 40.5q61 0 121 -24t106.5 -48t76.5 -24q49 0 49 62v30h188v-53q0 -88 -51.5 -131t-136.5 -43z" />
    <glyph glyph-name="uni0304.case" 
d="M-971 1706h797v-188h-797v188z" />
    <glyph glyph-name="uni0312.case" 
d="M-174 1698v-260h-293v407q0 101 49 153t170 52h74v-160h-121v-192h121z" />
    </font>
</defs>
</svg>
