<?xml version="1.0" standalone="no"?>
<!DOCTYPE svg PUBLIC "-//W3C//DTD SVG 1.1//EN" "http://www.w3.org/Graphics/SVG/1.1/DTD/svg11.dtd" >
<svg xmlns="http://www.w3.org/2000/svg" xmlns:xlink="http://www.w3.org/1999/xlink" version="1.1">
<metadata>
Created by FontForge 20170731 at Tue Jul 21 23:38:35 2020
 By Aleksey,,,
Copyright (c) 2019 by Nick Losacco. All rights reserved.
</metadata>
<defs>
<font id="Telegraf-UltraBold" horiz-adv-x="0" >
  <font-face 
    font-family="Telegraf UltraBold"
    font-weight="800"
    font-stretch="normal"
    units-per-em="2048"
    panose-1="0 0 9 0 0 0 0 0 0 0"
    ascent="1638"
    descent="-410"
    x-height="1024"
    cap-height="1362"
    bbox="-1040 -768 2976 2093"
    underline-thickness="61"
    underline-position="-224"
    unicode-range="U+0020-25CF"
  />
<missing-glyph horiz-adv-x="921" 
d="M756 1434v-1844h-584v1844h584zM614 1311h-305v-62h121v-67h-123v-62h307v62h-122v67h122v62zM492 1073h-185v-192h307v63h-122v129zM430 1010v-66h-61v66h61zM614 831h-307v-61h123v-68h-123v-61h185v129h122v61zM614 721h-61v-123h-246v-61h307v184zM614 496h-184v-103
h62v41h61v-86h-184v148h-62v-209h307v209zM614 176h-307v-209h307v209zM553 117v-88h-184v88h184zM614 -74h-307v-61h129l-129 -86v-62h307v62h-188l129 86h59v61z" />
    <glyph glyph-name="f_f" unicode="ff" horiz-adv-x="1574" 
d="M1575 1180h-344v-156h293v-264h-238v-760h-352v760h-369v-760h-352v760h-186v164l186 102v68q0 161 88 250.5t274 89.5h224v-254h-287v-156h422v53q0 357 360 357h281v-254z" />
    <glyph glyph-name="f_f_i" unicode="ffi" horiz-adv-x="2070" 
d="M1231 1180v-156h268v-264h-213v-760h-352v760h-369v-760h-352v760h-186v164l186 102v68q0 161 88 250.5t274 89.5h224v-254h-287v-156h422v53q0 357 360 357h674v-254h-737zM1620 1024h352v-1024h-352v1024z" />
    <glyph glyph-name="f_f_l" unicode="ffl" horiz-adv-x="2111" 
d="M2007 1434v-1434h-352v1180h-422v-156h268v-264h-215v-760h-352v760h-369v-760h-352v760h-186v164l186 102v68q0 161 88 250.5t274 89.5h224v-254h-287v-156h422v53q0 357 362 357h711z" />
    <glyph glyph-name="f_i" unicode="fi" horiz-adv-x="1372" 
d="M213 0v760h-186v164l186 102v51q0 357 362 357h674v-254h-737v-156h268v-264h-215v-760h-352zM901 0v1024h352v-1024h-352z" />
    <glyph glyph-name="f_l" unicode="fl" horiz-adv-x="1390" 
d="M1286 1434v-1434h-352v1180h-422v-156h268v-264h-215v-760h-352v760h-186v164l186 102v51q0 357 362 357h711z" />
    <glyph glyph-name=".notdef" horiz-adv-x="921" 
d="M756 1434v-1844h-584v1844h584zM614 1311h-305v-62h121v-67h-123v-62h307v62h-122v67h122v62zM492 1073h-185v-192h307v63h-122v129zM430 1010v-66h-61v66h61zM614 831h-307v-61h123v-68h-123v-61h185v129h122v61zM614 721h-61v-123h-246v-61h307v184zM614 496h-184v-103
h62v41h61v-86h-184v148h-62v-209h307v209zM614 176h-307v-209h307v209zM553 117v-88h-184v88h184zM614 -74h-307v-61h129l-129 -86v-62h307v62h-188l129 86h59v61z" />
    <glyph glyph-name=".null" 
 />
    <glyph glyph-name="nonmarkingreturn" horiz-adv-x="682" 
 />
    <glyph glyph-name="space" unicode=" " horiz-adv-x="526" 
 />
    <glyph glyph-name="exclam" unicode="!" horiz-adv-x="536" 
d="M152 461l-62 901h356l-61 -901h-233zM102 0v307h332v-307h-332z" />
    <glyph glyph-name="quotedbl" unicode="&#x22;" horiz-adv-x="753" 
d="M47 1362h287l-29 -569h-231zM420 1362h289l-29 -569h-231z" />
    <glyph glyph-name="numbersign" unicode="#" horiz-adv-x="1896" 
d="M1794 807h-367l-90 -240h312v-219h-396l-131 -348h-293l132 348h-312l-131 -348h-293l131 348h-254v219h338l90 240h-280v217h362l129 338h293l-129 -338h312l129 338h292l-129 -338h285v-217zM1044 567l91 240h-312l-90 -240h311z" />
    <glyph glyph-name="dollar" unicode="$" horiz-adv-x="1122" 
d="M1069 483q0 -282 -336 -331v-224h-336v226q-91 16 -159 50t-109 81.5t-61.5 101t-22.5 115.5h320q6 -68 57.5 -111t144.5 -43q166 0 166 98q0 45 -27.5 72t-109.5 37l-217 25q-150 17 -227.5 94.5t-77.5 212.5q0 138 86 218.5t237 108.5v220h336v-220q302 -57 324 -321
h-320q-16 127 -176 127q-84 0 -125 -27.5t-41 -72.5q0 -80 121 -93l217 -20q176 -17 256 -95t80 -229z" />
    <glyph glyph-name="percent" unicode="%" horiz-adv-x="1765" 
d="M88 0v25l1141 1144h-457v-397h-618v590h1337q117 0 117 -94q0 -29 -15.5 -57.5t-56.5 -69.5l-1108 -1141h-340zM358 967h213v202h-213v-202zM1042 0v588h619v-588h-619zM1247 195h213v202h-213v-202z" />
    <glyph glyph-name="ampersand" unicode="&#x26;" horiz-adv-x="1509" 
d="M1444 551h-193q-18 -134 -67 -240l229 -192l-164 -180l-207 174q-167 -148 -432 -148q-231 0 -368.5 101.5t-137.5 283.5q0 123 58.5 213.5t175.5 159.5q-121 141 -121 299q0 179 127.5 277t343.5 98q201 0 315.5 -86.5t114.5 -237.5q0 -108 -59 -190t-187 -146l-120 -61
l239 -203q15 48 21 94q24 205 227 205h205v-221zM684 1174q-80 0 -127 -39.5t-47 -110.5q0 -91 70 -184l98 47q81 39 119.5 73.5t38.5 86.5q0 58 -38 92.5t-114 34.5zM633 195q131 0 223 73l-338 285q-121 -76 -121 -186q0 -80 61.5 -126t174.5 -46z" />
    <glyph glyph-name="quotesingle" unicode="'" horiz-adv-x="378" 
d="M47 1362h287l-29 -569h-231z" />
    <glyph glyph-name="parenleft" unicode="(" horiz-adv-x="884" 
d="M82 580q0 135 27 261t75 227.5t107 189.5t129.5 158t135.5 121.5t132 90.5l135 -125q-391 -370 -391 -923q0 -554 391 -924l-135 -125q-67 39 -132 90.5t-135.5 122t-129.5 159t-107 190t-75 227.5t-27 260z" />
    <glyph glyph-name="parenright" unicode=")" horiz-adv-x="884" 
d="M803 580q0 -160 -39.5 -308.5t-100.5 -259.5t-144 -208.5t-161.5 -161t-160.5 -111.5l-136 125q392 371 392 924q0 552 -392 923l136 125q82 -48 160.5 -111.5t161.5 -160.5t144 -207.5t100.5 -259t39.5 -309.5z" />
    <glyph glyph-name="asterisk" unicode="*" horiz-adv-x="854" 
d="M61 1110l76 125l244 -166l-27 293h146l-27 -293l244 166l71 -125l-262 -123l267 -131l-76 -127l-244 170l27 -295h-146l27 295l-244 -170l-71 127l262 125z" />
    <glyph glyph-name="plus" unicode="+" horiz-adv-x="1228" 
d="M1055 649v-233h-316v-324h-250v324h-315v233h315v326h250v-326h316z" />
    <glyph glyph-name="comma" unicode="," horiz-adv-x="409" 
d="M47 16v291h315v-444q0 -54 -9.5 -92.5t-34.5 -71.5t-73 -49.5t-120 -16.5h-78v183h121v200h-121z" />
    <glyph glyph-name="hyphen" unicode="-" horiz-adv-x="989" 
d="M53 649h881v-233h-881v233z" />
    <glyph glyph-name="period" unicode="." horiz-adv-x="425" 
d="M47 0v307h332v-307h-332z" />
    <glyph glyph-name="slash" unicode="/" horiz-adv-x="880" 
d="M20 0l517 1362h323l-516 -1362h-324z" />
    <glyph glyph-name="zero" unicode="0" horiz-adv-x="1484" 
d="M741 -33q-145 0 -261.5 39.5t-193 106t-128 159t-73.5 194t-22 214.5q0 111 22 212t73.5 194.5t128 161.5t193 108.5t261.5 40.5t261.5 -40.5t193 -109t128 -162t73.5 -194t22 -211.5q0 -93 -16 -178.5t-49 -166.5t-87.5 -147.5t-128 -116t-175 -77t-222.5 -27.5z
M440 680q0 -105 13.5 -178.5t46 -130t92.5 -84t149 -27.5t149 27.5t92.5 84t46 130t13.5 178.5q0 107 -13.5 181t-46 130.5t-92.5 83.5t-149 27t-149 -27t-92.5 -83.5t-46 -130.5t-13.5 -181z" />
    <glyph glyph-name="one" unicode="1" horiz-adv-x="1093" 
d="M111 0v281h303v800h-275v281h281q182 0 267 -80t85 -219v-782h262v-281h-923z" />
    <glyph glyph-name="two" unicode="2" horiz-adv-x="1449" 
d="M125 0v281l688 460q143 96 143 220q0 73 -49.5 118t-152.5 45q-276 0 -287 -309h-363q2 90 25 172.5t74.5 158t126.5 130.5t188 88t252 33q122 0 217 -21t157.5 -57t103.5 -88t58 -110t17 -126q0 -142 -103.5 -270t-353.5 -276l-262 -168h748v-281h-1227z" />
    <glyph glyph-name="three" unicode="3" horiz-adv-x="1378" 
d="M72 444h362q6 -106 71 -160.5t177 -54.5q113 0 175.5 55.5t62.5 157.5t-63 158.5t-159 56.5q-108 0 -209 -53l-127 219l451 258h-680v281h1079v-281l-469 -270q70 12 150 12q48 0 96.5 -9t105 -35.5t99.5 -67.5t71.5 -113.5t28.5 -165.5q0 -218 -149.5 -341.5
t-458.5 -123.5q-294 0 -452.5 122t-161.5 355z" />
    <glyph glyph-name="four" unicode="4" horiz-adv-x="1427" 
d="M1159 559h215v-280h-215v-279h-360v279h-744v280l574 803h530v-803zM348 559h451v608z" />
    <glyph glyph-name="five" unicode="5" horiz-adv-x="1382" 
d="M821 893q107 0 195.5 -27t154.5 -79.5t103 -136.5t37 -193q0 -237 -160 -363.5t-475 -126.5q-149 0 -263 34t-182.5 93t-104 133t-38.5 160h377q12 -67 68.5 -110.5t166.5 -43.5q129 0 189.5 55.5t60.5 170.5q0 215 -227 215q-162 0 -242 -113h-352l51 801h1063v-281
h-774l-23 -305q127 117 375 117z" />
    <glyph glyph-name="six" unicode="6" horiz-adv-x="1372" 
d="M840 879q89 0 167.5 -23.5t143.5 -71.5t103 -130.5t38 -190.5q0 -223 -162.5 -359.5t-429.5 -136.5q-630 0 -630 703q0 153 33.5 276t92 206t140.5 139t176.5 81t202.5 25q258 0 403.5 -110t167.5 -300h-358q-13 66 -64 106t-145 40q-289 0 -289 -373v-35
q67 74 174.5 114t235.5 40zM686 229q128 0 184 55t56 158q0 215 -234 215q-124 0 -183.5 -57.5t-59.5 -157.5q0 -213 237 -213z" />
    <glyph glyph-name="seven" unicode="7" horiz-adv-x="1204" 
d="M51 1081v281h1108v-207q-59 -58 -99.5 -101.5t-93 -110t-88.5 -129t-75 -150.5t-64.5 -182.5t-45 -218t-27.5 -263.5h-361q29 591 496 1081h-750z" />
    <glyph glyph-name="eight" unicode="8" horiz-adv-x="1339" 
d="M670 -33q-132 0 -236 22.5t-171 59.5t-110.5 89.5t-62 108.5t-18.5 120q0 109 60.5 197.5t186.5 135.5q-208 102 -208 316q0 74 28.5 138.5t90 120t174.5 88t266 32.5t266 -32.5t174.5 -88t90 -120t28.5 -138.5q0 -209 -209 -314q126 -49 187 -137.5t61 -197.5
q0 -63 -18 -119t-62.5 -108.5t-111 -90t-170.5 -60t-236 -22.5zM670 799q117 0 170 45t53 133t-52.5 132t-170.5 44q-117 0 -170.5 -44.5t-53.5 -131.5q0 -178 224 -178zM670 209q123 0 180 47.5t57 142.5q0 191 -237 191q-236 0 -236 -191q0 -94 57 -142t179 -48z" />
    <glyph glyph-name="nine" unicode="9" horiz-adv-x="1372" 
d="M672 1397q631 0 631 -703q0 -153 -33.5 -276t-92 -206t-141 -139t-177 -81t-202.5 -25q-258 0 -403.5 110t-167.5 300h358q13 -66 64 -106t145 -40q289 0 289 373v37q-67 -74 -175 -115t-235 -41q-71 0 -135 14.5t-122.5 46.5t-101.5 79.5t-68 118.5t-25 159
q0 223 162.5 358.5t429.5 135.5zM680 709q124 0 184 57t60 156q0 213 -238 213q-128 0 -184 -55t-56 -158q0 -213 234 -213z" />
    <glyph glyph-name="colon" unicode=":" horiz-adv-x="425" 
d="M47 717v307h332v-307h-332zM47 0v307h332v-307h-332z" />
    <glyph glyph-name="semicolon" unicode=";" horiz-adv-x="425" 
d="M47 717v307h332v-307h-332zM47 16v291h315v-444q0 -54 -9.5 -92.5t-34.5 -71.5t-73 -49.5t-120 -16.5h-78v183h121v200h-121z" />
    <glyph glyph-name="less" unicode="&#x3c;" horiz-adv-x="1091" 
d="M918 954v-219l-556 -211l556 -209v-221l-744 283v295z" />
    <glyph glyph-name="equal" unicode="=" horiz-adv-x="1155" 
d="M174 852h803v-234h-803v234zM174 432h803v-233h-803v233z" />
    <glyph glyph-name="greater" unicode="&#x3e;" horiz-adv-x="1091" 
d="M174 954l744 -282v-295l-744 -283v221l555 209l-555 211v219z" />
    <glyph glyph-name="question" unicode="?" horiz-adv-x="1415" 
d="M553 473v219h115q151 0 216.5 61t65.5 162q0 88 -56 142.5t-161 54.5q-251 0 -264 -248h-365q3 64 18.5 123.5t45.5 121.5t81 113t119.5 91.5t167.5 63t218 22.5q147 0 257.5 -35.5t176.5 -100.5t98.5 -148.5t32.5 -186.5q0 -211 -139 -333t-400 -122h-227zM557 0v307
h332v-307h-332z" />
    <glyph glyph-name="at" unicode="@" horiz-adv-x="2226" 
d="M1141 -410q-491 0 -761.5 234t-270.5 676q0 213 64 388t187 302t312.5 196.5t429.5 69.5q490 0 754 -221t264 -664q0 -148 -38.5 -256.5t-111 -173t-168.5 -95t-219 -30.5h-260l-12 172q-44 -88 -131.5 -134t-208.5 -46q-93 0 -166 27t-120 73t-77.5 111t-43.5 137
t-13 156q0 86 13 159.5t43.5 140t77.5 113t120 74t166 27.5q226 0 323 -160v129h332v-770h35q98 0 162.5 90t64.5 277q0 343 -195 512.5t-591 169.5q-151 0 -275 -35.5t-214 -101.5t-151.5 -159t-91.5 -209t-30 -251q0 -368 205.5 -550.5t593.5 -182.5h458v-195h-456z
M1087 266q115 0 163 55t48 195t-48.5 196t-162.5 56q-115 0 -159.5 -55.5t-44.5 -196.5t44.5 -195.5t159.5 -54.5z" />
    <glyph glyph-name="A" unicode="A" horiz-adv-x="1597" 
d="M1180 0l-88 256h-586l-88 -256h-361l465 1362h555l465 -1362h-362zM598 528h401l-200 584z" />
    <glyph glyph-name="B" unicode="B" horiz-adv-x="1409" 
d="M1032 702q69 -12 121 -34t95.5 -59t66 -97t22.5 -141q0 -176 -115 -273.5t-331 -97.5h-780v1362h794q207 0 309.5 -94t102.5 -242q0 -263 -285 -324zM791 1092h-320v-281h317q152 0 152 141q0 140 -149 140zM799 270q162 0 162 152q0 153 -173 153h-317v-305h328z" />
    <glyph glyph-name="C" unicode="C" horiz-adv-x="1595" 
d="M805 -33q-153 0 -276.5 38.5t-205.5 104.5t-137.5 157.5t-79.5 194t-24 218.5q0 113 24.5 215t80 195t137.5 160t206 107t277 40q357 0 522 -142.5t187 -443.5h-371q-13 147 -87.5 219t-244.5 72q-184 0 -269 -104t-85 -318q0 -212 81.5 -316t262.5 -104q178 0 256.5 73
t89.5 228h375q-17 -214 -91 -341.5t-226 -190t-402 -62.5z" />
    <glyph glyph-name="D" unicode="D" horiz-adv-x="1515" 
d="M799 1362q129 0 236.5 -36.5t182 -100t126.5 -150t76 -185t24 -206.5t-24 -207t-76 -186.5t-126.5 -152t-182 -101.5t-236.5 -37h-688v1362h688zM717 285q183 0 266.5 99t83.5 300t-83.5 297t-266.5 96h-246v-792h246z" />
    <glyph glyph-name="E" unicode="E" horiz-adv-x="1298" 
d="M471 285h735v-285h-1095v1362h1089v-285h-729v-252h668v-264h-668v-276z" />
    <glyph glyph-name="F" unicode="F" horiz-adv-x="1265" 
d="M1190 1077h-719v-282h645v-265h-645v-530h-360v1362h1079v-285z" />
    <glyph glyph-name="G" unicode="G" horiz-adv-x="1626" 
d="M725 -33q-162 0 -287 56.5t-201.5 155.5t-115.5 226t-39 275q0 121 26.5 226.5t85 196.5t144.5 155.5t212 101.5t281 37q171 0 300.5 -38t207.5 -106t118.5 -153t47.5 -189h-360q-13 94 -91.5 150.5t-219.5 56.5q-187 0 -281 -106t-94 -332q0 -219 85.5 -326.5
t266.5 -107.5q89 0 154.5 20.5t104.5 59.5t60.5 85.5t30.5 108.5h-440v228h782v-748h-301v250q-103 -283 -477 -283z" />
    <glyph glyph-name="H" unicode="H" horiz-adv-x="1511" 
d="M1040 1362h361v-1362h-361v551h-569v-551h-360v1362h360v-531h569v531z" />
    <glyph glyph-name="I" unicode="I" horiz-adv-x="1060" 
d="M950 1077h-239v-792h239v-285h-839v285h239v792h-239v285h839v-285z" />
    <glyph glyph-name="J" unicode="J" horiz-adv-x="952" 
d="M66 0v285h423v1077h361v-866q0 -268 -112 -382t-380 -114h-292z" />
    <glyph glyph-name="K" unicode="K" horiz-adv-x="1480" 
d="M913 784l523 -766v-18h-432l-330 518l-203 -223v-295h-360v1362h360v-602l496 602h467z" />
    <glyph glyph-name="L" unicode="L" horiz-adv-x="1136" 
d="M475 285h612v-285h-976v1362h364v-1077z" />
    <glyph glyph-name="M" unicode="M" horiz-adv-x="2002" 
d="M1892 1362v-1362h-360v1128l-328 -1128h-403l-330 1137v-1137h-360v1362h620l277 -989l278 989h606z" />
    <glyph glyph-name="N" unicode="N" horiz-adv-x="1601" 
d="M1147 1362h344v-1362h-592l-379 889q-33 74 -65 192v-1081h-344v1362h591l383 -907q31 -72 62 -176v1083z" />
    <glyph glyph-name="O" unicode="O" horiz-adv-x="1628" 
d="M813 -33q-156 0 -281.5 39.5t-208 106t-138 159t-79.5 194t-24 214.5q0 111 24 212t79.5 194.5t138 161.5t208 108.5t281.5 40.5q157 0 283.5 -40.5t209 -109t138 -162t79 -194t23.5 -211.5q0 -93 -17 -178.5t-52.5 -167t-94.5 -147t-138 -115.5t-189 -77.5t-242 -27.5z
M459 680q0 -105 16 -178.5t55 -130t109 -84t174 -27.5q105 0 175.5 27.5t109.5 84t55 130t16 178.5q0 107 -16 181t-55 130.5t-109.5 83.5t-175.5 27q-104 0 -173.5 -27t-109 -83.5t-55.5 -131t-16 -180.5z" />
    <glyph glyph-name="P" unicode="P" horiz-adv-x="1361" 
d="M872 1362q114 0 200 -35t137.5 -98t76.5 -142.5t25 -175.5q0 -102 -25 -185t-76.5 -147t-137.5 -99.5t-200 -35.5h-397v-444h-364v1362h761zM752 723q93 0 137.5 50.5t44.5 135.5q0 176 -178 176h-281v-362h277z" />
    <glyph glyph-name="Q" unicode="Q" horiz-adv-x="1642" 
d="M82 684q0 111 22.5 211t77 193.5t136 160.5t207.5 107.5t284 40.5q157 0 283.5 -39.5t207 -103t134.5 -147.5t76 -169t22 -172q0 -185 -78 -311t-215 -187h340v-268h-770q-159 0 -284.5 37t-207.5 99.5t-135.5 151t-76.5 186t-23 210.5zM459 698q0 -99 15 -168t52 -124.5
t107.5 -83t175.5 -27.5q86 0 148.5 19t101.5 51.5t62 85t31.5 110.5t8.5 137q0 101 -14.5 170t-52 124.5t-108 82.5t-177.5 27q-105 0 -175.5 -27t-108 -82.5t-52 -125t-14.5 -169.5z" />
    <glyph glyph-name="R" unicode="R" horiz-adv-x="1400" 
d="M1286 322v-76q0 -23 0.5 -43.5t2.5 -41t3 -33.5t4.5 -34.5t5 -29.5t6 -32.5t5.5 -31.5h-365q-24 82 -24 246v55q0 95 -55 144t-146 49h-248v-494h-364v1362h753q223 0 340 -103t117 -274q0 -142 -81.5 -237.5t-213.5 -122.5q57 -13 100.5 -33t81.5 -54t58 -88.5
t20 -127.5zM768 752q92 0 134 42.5t42 131.5q0 80 -42 119.5t-132 39.5h-295v-333h293z" />
    <glyph glyph-name="S" unicode="S" horiz-adv-x="1374" 
d="M72 442h350q8 -94 74.5 -154.5t199.5 -60.5q240 0 240 156q0 128 -156 149l-297 33q-186 22 -286.5 125t-100.5 275q0 198 149.5 315t436.5 117q153 0 268.5 -34.5t186 -96.5t107.5 -140t44 -172h-356q-11 84 -74.5 132.5t-175.5 48.5q-104 0 -162.5 -39t-58.5 -107
q0 -116 145 -133l260 -27q222 -22 328 -125t106 -290q0 -212 -146 -330.5t-464 -118.5q-131 0 -235 26.5t-172.5 71t-115.5 106.5t-69 129t-26 144z" />
    <glyph glyph-name="T" unicode="T" horiz-adv-x="1363" 
d="M1300 1362v-285h-436v-1077h-362v1077h-439v285h1237z" />
    <glyph glyph-name="U" unicode="U" horiz-adv-x="1472" 
d="M102 518v844h363v-797q0 -173 63 -238t207 -65q146 0 210.5 65.5t64.5 237.5v797h360v-844q0 -272 -159.5 -411.5t-475.5 -139.5q-314 0 -473.5 138.5t-159.5 412.5z" />
    <glyph glyph-name="V" unicode="V" horiz-adv-x="1544" 
d="M1118 1362h363l-443 -1362h-532l-443 1362h373l279 -858q33 -104 61 -215q24 96 62 215z" />
    <glyph glyph-name="W" unicode="W" horiz-adv-x="2271" 
d="M1833 1362h354l-233 -1362h-613l-206 1073l-205 -1073h-611l-235 1362h354l197 -1143l231 1143h537l233 -1149z" />
    <glyph glyph-name="X" unicode="X" horiz-adv-x="1628" 
d="M1577 0h-449l-327 418l-299 -418h-439l529 684l-531 678h443l321 -408l293 408h434l-518 -674z" />
    <glyph glyph-name="Y" unicode="Y" horiz-adv-x="1470" 
d="M1026 1362h399l-507 -969v-393h-363v393l-512 969h406l194 -447q55 -131 90 -231q42 112 92 231z" />
    <glyph glyph-name="Z" unicode="Z" horiz-adv-x="1409" 
d="M573 285h766v-285h-1235v285l758 792h-737v285h1208v-285z" />
    <glyph glyph-name="bracketleft" unicode="[" horiz-adv-x="1142" 
d="M1051 1311h-533v-1444h533v-277h-879v1997h879v-276z" />
    <glyph glyph-name="backslash" unicode="\" horiz-adv-x="880" 
d="M860 0h-323l-517 1362h324z" />
    <glyph glyph-name="bracketright" unicode="]" horiz-adv-x="1142" 
d="M971 1587v-1997h-879v277h533v1444h-533v276h879z" />
    <glyph glyph-name="asciicircum" unicode="^" horiz-adv-x="1183" 
d="M1010 729h-219l-199 447l-199 -447h-219l283 633h272z" />
    <glyph glyph-name="underscore" unicode="_" horiz-adv-x="989" 
d="M53 0h881v-233h-881v233z" />
    <glyph glyph-name="grave" unicode="`" horiz-adv-x="1228" 
d="M63 1180l60 213l563 -172l-22 -84z" />
    <glyph glyph-name="a" unicode="a" horiz-adv-x="1208" 
d="M418 -27q-154 0 -247 81t-93 216q0 65 15 113t53.5 90t108 71t173.5 46l231 41q69 12 94 32.5t25 61.5q0 49 -34.5 73.5t-118.5 24.5q-182 0 -185 -139h-342q8 167 146.5 270t376.5 103q240 0 361.5 -95t121.5 -272v-407q0 -157 18 -283h-303q-16 94 -16 213
q-39 -115 -136 -177.5t-249 -62.5zM551 203q103 0 165 72t62 206v39q-23 -17 -51.5 -30t-48 -19t-60.5 -16l-59 -15q-74 -19 -104.5 -48t-30.5 -81t35.5 -80t91.5 -28z" />
    <glyph glyph-name="b" unicode="b" horiz-adv-x="1345" 
d="M813 1057q98 0 177.5 -29.5t133 -79.5t90 -120t52.5 -148t16 -166q0 -90 -16 -169.5t-52.5 -149.5t-90 -120t-133 -79t-177.5 -29q-250 0 -360 174v-141h-353v1434h353v-551q112 174 360 174zM694 242q129 0 182.5 63t53.5 207t-53.5 207t-182.5 63q-132 0 -186.5 -65
t-54.5 -205t54.5 -205t186.5 -65z" />
    <glyph glyph-name="c" unicode="c" horiz-adv-x="1267" 
d="M68 512q0 86 19 163t63 148t109.5 122t165 81.5t222.5 30.5q135 0 242 -36.5t174.5 -100.5t103.5 -147t39 -181h-346q-16 190 -209 190q-116 0 -173.5 -61t-57.5 -209t55.5 -209t169.5 -61q199 0 219 192h346q-3 -94 -38 -176.5t-101 -148.5t-174 -104t-246 -38
q-123 0 -223 30.5t-166 82t-110.5 122t-64 148t-19.5 162.5z" />
    <glyph glyph-name="d" unicode="d" horiz-adv-x="1345" 
d="M893 1434h352v-1434h-352v139q-114 -172 -358 -172q-99 0 -178.5 29t-133.5 79t-90.5 120t-53 149.5t-16.5 169.5q0 88 16.5 166t53 148t90 120t133.5 79.5t179 29.5q244 0 358 -172v549zM651 242q132 0 187 65t55 205t-55 205t-187 65q-129 0 -181 -62.5t-52 -207.5
t52 -207.5t181 -62.5z" />
    <glyph glyph-name="e" unicode="e" horiz-adv-x="1247" 
d="M641 203q75 0 124.5 29t72.5 77h342q-11 -56 -34 -103.5t-66.5 -92.5t-103 -76.5t-147.5 -50.5t-196 -19q-122 0 -219 30t-161 81t-106.5 122t-60.5 149t-18 165q0 91 20.5 171t65.5 148.5t110 118t159.5 77.5t209.5 28q122 0 217.5 -30t157.5 -80.5t102 -122t57 -149.5
t17 -167q0 -52 -6 -86h-768q14 -119 71 -169t160 -50zM637 825q-98 0 -152 -45.5t-71 -152.5h436q-18 198 -213 198z" />
    <glyph glyph-name="f" unicode="f" horiz-adv-x="856" 
d="M213 0v760h-186v164l186 102v68q0 161 88 250.5t274 89.5h281v-254h-344v-156h293v-264h-240v-760h-352z" />
    <glyph glyph-name="g" unicode="g" horiz-adv-x="1353" 
d="M901 1024h352v-965q0 -253 -139.5 -372t-458.5 -119q-265 0 -403.5 108.5t-149.5 284.5h342q20 -151 230 -151q118 0 172.5 46t54.5 148v182q-111 -155 -350 -155q-122 0 -216 41.5t-149 114t-82.5 162t-27.5 194.5q0 85 16.5 159.5t53.5 140t91.5 112t134.5 73.5t179 27
q238 0 350 -154v123zM672 289q125 0 177 59.5t52 188.5q0 127 -52 186t-177 59q-132 0 -188 -56.5t-56 -188.5q0 -134 56 -191t188 -57z" />
    <glyph glyph-name="h" unicode="h" horiz-adv-x="1304" 
d="M825 1057q196 0 290.5 -113t94.5 -321v-623h-352v563q0 209 -178 209q-223 0 -223 -291v-481h-353v1434h353v-600q112 223 368 223z" />
    <glyph glyph-name="i" unicode="i" horiz-adv-x="563" 
d="M98 1149v213h365v-213h-365zM104 0v1024h353v-1024h-353z" />
    <glyph glyph-name="j" unicode="j" horiz-adv-x="577" 
d="M117 1149v213h364v-213h-364zM-184 -410v279h307v1155h352v-1032q0 -204 -95 -303t-321 -99h-243z" />
    <glyph glyph-name="k" unicode="k" horiz-adv-x="1280" 
d="M868 0l-266 367l-145 -142v-225h-353v1434h353v-871q49 72 108 144l283 317h416v-8l-439 -430l459 -586h-416z" />
    <glyph glyph-name="l" unicode="l" horiz-adv-x="563" 
d="M104 0v1434h353v-1434h-353z" />
    <glyph glyph-name="m" unicode="m" horiz-adv-x="1990" 
d="M1505 1057q196 0 293.5 -113.5t97.5 -320.5v-623h-352v569q0 203 -168 203q-104 0 -153 -70t-49 -221v-481h-347v569q0 203 -168 203q-103 0 -152.5 -70.5t-49.5 -220.5v-481h-353v1024h353v-174q103 207 348 207q257 0 338 -228q105 228 362 228z" />
    <glyph glyph-name="n" unicode="n" horiz-adv-x="1304" 
d="M825 1057q196 0 290.5 -113t94.5 -321v-623h-352v563q0 209 -178 209q-223 0 -223 -291v-481h-353v1024h353v-190q112 223 368 223z" />
    <glyph glyph-name="o" unicode="o" horiz-adv-x="1306" 
d="M653 -33q-126 0 -227 30.5t-167 81.5t-110 122t-62.5 148t-18.5 163q0 85 18.5 162t62.5 148t110 122.5t167 82t227 30.5t227.5 -30.5t167.5 -82t110.5 -122.5t63.5 -148t19 -162t-19 -162t-63.5 -148t-110.5 -122.5t-167.5 -82t-227.5 -30.5zM420 512q0 -152 52.5 -211
t180.5 -59t181 59t53 211t-53 211t-181 59t-180.5 -59t-52.5 -211z" />
    <glyph glyph-name="p" unicode="p" horiz-adv-x="1345" 
d="M813 1057q98 0 177.5 -28.5t133 -78.5t90 -120t52.5 -149.5t16 -170.5q0 -88 -16 -166t-52.5 -148t-90 -120t-133 -79.5t-177.5 -29.5q-249 0 -360 176v-553h-353v1434h353v-139q110 172 360 172zM694 242q129 0 182.5 63t53.5 207t-53.5 207t-182.5 63
q-132 0 -186.5 -65t-54.5 -205t54.5 -205t186.5 -65z" />
    <glyph glyph-name="q" unicode="q" horiz-adv-x="1345" 
d="M893 1024h352v-1434h-352v551q-115 -174 -358 -174q-99 0 -179 29.5t-133.5 79.5t-90 120t-53 148t-16.5 166q0 114 27 210.5t81.5 173t147.5 120t216 43.5q243 0 358 -170v137zM651 242q132 0 187 65t55 205t-55 205t-187 65q-129 0 -181 -62.5t-52 -207.5t52 -207.5
t181 -62.5z" />
    <glyph glyph-name="r" unicode="r" horiz-adv-x="860" 
d="M737 1040h86v-342h-125q-128 0 -184.5 -66.5t-56.5 -221.5v-410h-353v1024h342v-209q32 113 101 169t190 56z" />
    <glyph glyph-name="s" unicode="s" horiz-adv-x="1122" 
d="M45 330h320q6 -67 60 -109.5t148 -42.5q160 0 160 96q0 45 -27.5 72t-109.5 37l-217 25q-149 17 -227 95.5t-78 211.5q0 118 65 196.5t170.5 112t247.5 33.5q146 0 251.5 -33t172 -109.5t76.5 -193.5h-320q-16 127 -178 127q-85 0 -124.5 -27t-39.5 -73q0 -80 121 -93
l211 -20q180 -19 261 -95t81 -225q0 -348 -502 -348q-135 0 -237.5 29.5t-162 82t-89.5 115t-33 136.5z" />
    <glyph glyph-name="t" unicode="t" horiz-adv-x="880" 
d="M608 0q-227 0 -319 98t-92 305v357h-181v164l209 92l146 256h178v-248h278v-264h-278v-481h246v-279h-187z" />
    <glyph glyph-name="u" unicode="u" horiz-adv-x="1304" 
d="M848 1024h352v-1024h-352v186q-109 -219 -363 -219q-196 0 -292.5 113.5t-96.5 320.5v623h353v-561q0 -211 180 -211q105 0 162 73t57 218v481z" />
    <glyph glyph-name="v" unicode="v" horiz-adv-x="1196" 
d="M856 1024h334l-340 -1024h-504l-340 1024h359l245 -758z" />
    <glyph glyph-name="w" unicode="w" horiz-adv-x="1888" 
d="M1538 1024h328l-252 -1024h-488l-180 674l-182 -674h-490l-249 1024h354l170 -756l227 756h371l227 -758z" />
    <glyph glyph-name="x" unicode="x" horiz-adv-x="1167" 
d="M8 0l373 494l-383 530h412l188 -293l178 293h375l-363 -510l383 -514h-411l-185 285l-180 -285h-387z" />
    <glyph glyph-name="y" unicode="y" horiz-adv-x="1208" 
d="M870 1024h334l-325 -1026q-26 -85 -53.5 -145t-68.5 -112.5t-93.5 -84t-125.5 -49t-169 -17.5h-295v279h440l53 160h-223l-332 995h359l198 -594l60 -190l53 190z" />
    <glyph glyph-name="z" unicode="z" horiz-adv-x="1124" 
d="M502 256h553v-256h-983v256l557 512h-551v256h973v-256z" />
    <glyph glyph-name="braceleft" unicode="{" horiz-adv-x="952" 
d="M82 440v279h59q86 0 123 43.5t37 140.5v277q0 204 148 319t450 115v-146q-133 -5 -196.5 -81t-63.5 -242v-268q0 -111 -52 -177.5t-167 -87.5v-63q115 -21 167 -87t52 -177v-271q0 -166 63.5 -242t196.5 -81v-146q-302 0 -450 115.5t-148 319.5v276q0 97 -37 140.5
t-123 43.5h-59z" />
    <glyph glyph-name="bar" unicode="|" horiz-adv-x="694" 
d="M174 -410v1997h346v-1997h-346z" />
    <glyph glyph-name="braceright" unicode="}" horiz-adv-x="954" 
d="M870 440h-59q-86 0 -123 -43.5t-37 -140.5v-276q0 -204 -147 -319.5t-449 -115.5v146q133 5 196.5 81t63.5 242v271q0 111 51 177t166 87v63q-115 21 -166 87.5t-51 177.5v268q0 166 -63.5 242t-196.5 81v146q302 0 449 -115t147 -319v-277q0 -97 37 -140.5t123 -43.5h59
v-279z" />
    <glyph glyph-name="asciitilde" unicode="~" horiz-adv-x="1128" 
d="M758 328q-51 0 -97.5 16.5t-80.5 40t-64 47.5t-57.5 40.5t-50.5 16.5q-56 0 -56 -73v-70h-178v158q0 94 56.5 140t140.5 46q62 0 119 -25.5t91.5 -56.5t72.5 -56.5t67 -25.5q55 0 55 74v70h178v-150q0 -94 -57.5 -143t-138.5 -49z" />
    <glyph glyph-name="exclamdown" unicode="&#xa1;" horiz-adv-x="536" 
d="M102 1024h332v-307h-332v307zM152 563h233l61 -901h-356z" />
    <glyph glyph-name="cent" unicode="&#xa2;" horiz-adv-x="1132" 
d="M969 860q-3 -115 -70.5 -200t-196.5 -115v-150h-266v152q-138 35 -205 134t-67 232q0 135 67 235.5t205 133.5v152h266v-150q125 -30 193.5 -114.5t71.5 -198.5h-248q-9 131 -144 131q-81 0 -120 -44t-39 -145q0 -100 37.5 -143t117.5 -43q139 0 152 133h246z" />
    <glyph glyph-name="sterling" unicode="&#xa3;" horiz-adv-x="1288" 
d="M672 250h483v-250h-1022v250h186v362h-151v205h151v215q0 204 95 303t321 99h352v-279h-415v-338h307v-205h-307v-362z" />
    <glyph glyph-name="yen" unicode="&#xa5;" horiz-adv-x="1470" 
d="M1425 1362l-372 -713h188v-182h-285l-38 -74v-10h323v-182h-323v-201h-363v201h-324v182h324v10l-39 74h-285v182h189l-377 713h406l194 -447q41 -98 90 -251q50 156 92 251l201 447h399z" />
    <glyph glyph-name="brokenbar" unicode="&#xa6;" horiz-adv-x="694" 
d="M174 756v831h346v-831h-346zM174 -410v832h346v-832h-346z" />
    <glyph glyph-name="section" unicode="&#xa7;" horiz-adv-x="1296" 
d="M162 -63h282q7 -74 58.5 -120t152.5 -46q189 0 189 118q0 98 -121 113l-234 27q-147 17 -227 99.5t-80 219.5q0 158 118.5 245.5t356.5 96.5q97 3 137 30.5t40 86.5q0 101 -121 113l-234 26q-146 17 -226.5 100t-80.5 220q0 157 120.5 249.5t344.5 92.5q231 0 349.5 -96
t129.5 -255h-287q-8 66 -56.5 103t-133.5 37q-80 0 -127 -29.5t-47 -81.5q0 -91 113 -102l204 -21q177 -18 260.5 -101t83.5 -228q0 -167 -114.5 -256.5t-370.5 -102.5q-89 -6 -127.5 -30.5t-38.5 -75.5q0 -90 113 -101l205 -22q176 -18 259 -101.5t83 -230.5
q0 -356 -484 -356q-100 0 -181 20t-136 54.5t-93 83.5t-56.5 103.5t-22.5 117.5z" />
    <glyph glyph-name="dieresis" unicode="&#xa8;" horiz-adv-x="1228" 
d="M152 1149v213h299v-213h-299zM596 1149v213h299v-213h-299z" />
    <glyph glyph-name="copyright" unicode="&#xa9;" horiz-adv-x="1824" 
d="M913 -37q-158 0 -298 56.5t-239 153t-156.5 229t-57.5 280.5q0 146 57.5 278t156.5 228.5t239 153.5t298 57q157 0 297 -57t239 -153.5t156.5 -229t57.5 -277.5q0 -197 -97.5 -362t-270 -261t-382.5 -96zM913 184q112 0 208 38.5t162.5 105.5t104 158.5t37.5 195.5
q0 102 -37.5 193t-103.5 158t-162.5 106t-208.5 39q-225 0 -369.5 -143.5t-144.5 -352.5q0 -212 144 -355t370 -143zM541 684q0 71 22 132.5t65.5 111.5t118 79t171.5 29q171 0 263.5 -85t94.5 -220h-225q-5 62 -36.5 91.5t-94.5 29.5q-75 0 -110.5 -38.5t-35.5 -129.5
q0 -93 34 -130.5t110 -37.5q123 0 135 121h227q-3 -132 -95 -218.5t-263 -86.5q-98 0 -173 28.5t-119.5 78.5t-66.5 112t-22 133z" />
    <glyph glyph-name="guillemotleft" unicode="&#xab;" horiz-adv-x="1611" 
d="M106 489v48l400 487h362l-436 -512l436 -512h-362zM748 489v48l401 487h360l-434 -512l434 -512h-360z" />
    <glyph glyph-name="logicalnot" unicode="&#xac;" horiz-adv-x="1228" 
d="M1055 649v-454h-236v221h-645v233h881z" />
    <glyph glyph-name="registered" unicode="&#xae;" horiz-adv-x="1308" 
d="M653 1399q144 0 267 -71t194.5 -192.5t71.5 -263.5q0 -146 -72 -269t-195 -194t-266 -71q-144 0 -266 71t-193 194t-71 269q0 142 70.5 263.5t192.5 192.5t267 71zM655 514q147 0 244.5 104t97.5 254q0 148 -97.5 251.5t-244.5 103.5q-151 0 -247.5 -103t-96.5 -252
q0 -150 96.5 -254t247.5 -104zM887 979q0 -53 -34 -85t-95 -40q61 -6 88.5 -32t27.5 -77v-22q0 -45 13 -96h-150q-12 27 -12 98v18q0 52 -53 52h-74v-168h-152v489h273q77 0 122.5 -37t45.5 -100zM678 907q53 0 53 47q0 41 -51 41h-82v-88h80z" />
    <glyph glyph-name="macron" unicode="&#xaf;" horiz-adv-x="1228" 
d="M180 1362h785v-191h-785v191z" />
    <glyph glyph-name="degree" unicode="&#xb0;" horiz-adv-x="958" 
d="M477 711q-175 0 -280 111.5t-105 271.5q0 156 105 264t280 108q178 0 283.5 -108t105.5 -264q0 -161 -105.5 -272t-283.5 -111zM311 1092q0 -78 48.5 -126t117.5 -48q72 0 121 48t49 126q0 79 -48 122t-122 43q-71 0 -118.5 -43.5t-47.5 -121.5z" />
    <glyph glyph-name="plusminus" unicode="&#xb1;" horiz-adv-x="1230" 
d="M733 807h324v-203h-324v-213h-235v213h-324v203h324v217h235v-217zM174 90v203h883v-203h-883z" />
    <glyph glyph-name="acute" unicode="&#xb4;" horiz-adv-x="1228" 
d="M682 1180l-600 -43l-23 84l564 172z" />
    <glyph glyph-name="uni00B5" unicode="&#xb5;" horiz-adv-x="1304" 
d="M848 1024h352v-1024h-352v182q-108 -215 -356 -215q-32 0 -62 6v-383h-334v1434h353v-561q0 -211 180 -211q105 0 162 73t57 218v481z" />
    <glyph glyph-name="paragraph" unicode="&#xb6;" horiz-adv-x="1789" 
d="M1116 1362v-1772h-364v854h-191q-114 0 -200 35.5t-137 99.5t-76 147t-25 185q0 96 25 175.5t76 142.5t137 98t200 35h555zM1262 1362h364v-1772h-364v1772z" />
    <glyph glyph-name="periodcentered" unicode="&#xb7;" horiz-adv-x="425" 
d="M47 358v308h332v-308h-332z" />
    <glyph glyph-name="cedilla" unicode="&#xb8;" horiz-adv-x="1228" 
d="M90 -393v215h164l-61 264h243l58 -270q18 -89 -27.5 -149t-142.5 -60h-234z" />
    <glyph glyph-name="guillemotright" unicode="&#xbb;" horiz-adv-x="1611" 
d="M864 489l-401 -489h-361l437 512l-437 512h361l401 -487v-48zM1505 489l-399 -489h-361l435 512l-435 512h361l399 -487v-48z" />
    <glyph glyph-name="questiondown" unicode="&#xbf;" horiz-adv-x="1415" 
d="M860 1024v-307h-334v307h334zM864 551v-219h-116q-150 0 -215.5 -60.5t-65.5 -160.5q0 -90 55.5 -144.5t159.5 -54.5q250 0 266 248h363q-4 -77 -24 -148t-67.5 -143.5t-118 -125t-183.5 -85.5t-256 -33q-147 0 -257.5 35.5t-176.5 100.5t-98 148.5t-32 186.5
q0 211 138.5 333t398.5 122h229z" />
    <glyph glyph-name="Agrave" unicode="&#xc0;" horiz-adv-x="1597" 
d="M1112 1563l-22 -86l-601 43l60 215zM1180 0l-88 256h-586l-88 -256h-361l465 1362h555l465 -1362h-362zM598 528h401l-200 584z" />
    <glyph glyph-name="Aacute" unicode="&#xc1;" horiz-adv-x="1597" 
d="M1112 1520l-602 -43l-21 86l562 172zM1180 0l-88 256h-586l-88 -256h-361l465 1362h555l465 -1362h-362zM598 528h401l-200 584z" />
    <glyph glyph-name="Acircumflex" unicode="&#xc2;" horiz-adv-x="1597" 
d="M801 1616l-236 -131l-104 114l262 152h158l260 -152l-103 -114zM1180 0l-88 256h-586l-88 -256h-361l465 1362h555l465 -1362h-362zM598 528h401l-200 584z" />
    <glyph glyph-name="Atilde" unicode="&#xc3;" horiz-adv-x="1597" 
d="M625 1501v-24h-209v59q0 184 198 184q52 0 101 -15.5t79.5 -34.5t66 -34.5t63.5 -15.5q53 0 53 72v24h209v-53q0 -96 -53.5 -143t-145.5 -47q-62 0 -122.5 25t-107.5 50t-77 25q-55 0 -55 -72zM1180 0l-88 256h-586l-88 -256h-361l465 1362h555l465 -1362h-362zM598 528
h401l-200 584z" />
    <glyph glyph-name="Adieresis" unicode="&#xc4;" horiz-adv-x="1597" 
d="M741 1706v-215h-299v215h299zM1159 1706v-215h-299v215h299zM1180 0l-88 256h-586l-88 -256h-361l465 1362h555l465 -1362h-362zM598 528h401l-200 584z" />
    <glyph glyph-name="Aring" unicode="&#xc5;" horiz-adv-x="1597" 
d="M801 1430q-112 0 -177 68t-65 169q0 98 65.5 166t176.5 68t176 -68t65 -166q0 -101 -64.5 -169t-176.5 -68zM801 1749q-34 0 -57 -21t-23 -61t23.5 -62t56.5 -22t56.5 22t23.5 62t-23 61t-57 21zM1180 0l-88 256h-586l-88 -256h-361l465 1362h555l465 -1362h-362z
M598 528h401l-200 584z" />
    <glyph glyph-name="AE" unicode="&#xc6;" horiz-adv-x="2283" 
d="M1456 285h735v-285h-1095v256h-531l-159 -256h-355v12l846 1350h1288v-285h-729v-252h668v-264h-668v-276zM737 528h359v572z" />
    <glyph glyph-name="Ccedilla" unicode="&#xc7;" horiz-adv-x="1595" 
d="M1524 561q-22 -283 -150 -422t-409 -166l32 -157q18 -89 -27.5 -149t-142.5 -60h-233v215h164l-35 147q-136 10 -245 53.5t-182 109.5t-122 155t-70.5 186.5t-21.5 206.5q0 113 24.5 215t80 195t137.5 160t206 107t277 40q357 0 522 -142.5t187 -443.5h-371
q-13 147 -87.5 219t-244.5 72q-184 0 -269 -104t-85 -318q0 -212 81.5 -316t262.5 -104q178 0 256.5 73t89.5 228h375z" />
    <glyph glyph-name="Egrave" unicode="&#xc8;" horiz-adv-x="1298" 
d="M963 1563l-23 -86l-600 43l59 215zM471 285h735v-285h-1095v1362h1089v-285h-729v-252h668v-264h-668v-276z" />
    <glyph glyph-name="Eacute" unicode="&#xc9;" horiz-adv-x="1298" 
d="M963 1520l-603 -43l-20 86l561 172zM471 285h735v-285h-1095v1362h1089v-285h-729v-252h668v-264h-668v-276z" />
    <glyph glyph-name="Ecircumflex" unicode="&#xca;" horiz-adv-x="1298" 
d="M651 1616l-235 -131l-105 114l262 152h158l260 -152l-102 -114zM471 285h735v-285h-1095v1362h1089v-285h-729v-252h668v-264h-668v-276z" />
    <glyph glyph-name="Edieresis" unicode="&#xcb;" horiz-adv-x="1298" 
d="M592 1706v-215h-299v215h299zM1010 1706v-215h-299v215h299zM471 285h735v-285h-1095v1362h1089v-285h-729v-252h668v-264h-668v-276z" />
    <glyph glyph-name="Igrave" unicode="&#xcc;" horiz-adv-x="1060" 
d="M842 1563l-23 -86l-600 43l60 215zM950 1077h-239v-792h239v-285h-839v285h239v792h-239v285h839v-285z" />
    <glyph glyph-name="Iacute" unicode="&#xcd;" horiz-adv-x="1060" 
d="M842 1520l-602 -43l-21 86l561 172zM950 1077h-239v-792h239v-285h-839v285h239v792h-239v285h839v-285z" />
    <glyph glyph-name="Icircumflex" unicode="&#xce;" horiz-adv-x="1060" 
d="M530 1616l-235 -131l-105 114l263 152h157l260 -152l-102 -114zM950 1077h-239v-792h239v-285h-839v285h239v792h-239v285h839v-285z" />
    <glyph glyph-name="Idieresis" unicode="&#xcf;" horiz-adv-x="1060" 
d="M471 1706v-215h-299v215h299zM889 1706v-215h-299v215h299zM950 1077h-239v-792h239v-285h-839v285h239v792h-239v285h839v-285z" />
    <glyph glyph-name="Eth" unicode="&#xd0;" horiz-adv-x="1675" 
d="M958 1362q129 0 236.5 -36.5t183 -100t127.5 -150t76.5 -185t24.5 -206.5t-24.5 -207t-76.5 -186.5t-127.5 -152t-183 -101.5t-236.5 -37h-688v561h-217v238h217v563h688zM877 285q184 0 268 99t84 300t-84.5 297t-267.5 96h-244v-278h301v-238h-301v-276h244z" />
    <glyph glyph-name="Ntilde" unicode="&#xd1;" horiz-adv-x="1601" 
d="M625 1501v-24h-209v59q0 184 198 184q52 0 101 -15.5t79.5 -34.5t66 -34.5t63.5 -15.5q53 0 53 72v24h209v-53q0 -96 -53.5 -143t-145.5 -47q-62 0 -122.5 25t-107.5 50t-77 25q-55 0 -55 -72zM1147 1362h344v-1362h-592l-379 889q-33 74 -65 192v-1081h-344v1362h591
l383 -907q31 -72 62 -176v1083z" />
    <glyph glyph-name="Ograve" unicode="&#xd2;" horiz-adv-x="1628" 
d="M504 1520l59 215l563 -172l-22 -86zM813 -33q-156 0 -281.5 39.5t-208 106t-138 159t-79.5 194t-24 214.5q0 111 24 212t79.5 194.5t138 161.5t208 108.5t281.5 40.5q157 0 283.5 -40.5t209 -109t138 -162t79 -194t23.5 -211.5q0 -93 -17 -178.5t-52.5 -167t-94.5 -147
t-138 -115.5t-189 -77.5t-242 -27.5zM459 680q0 -105 16 -178.5t55 -130t109 -84t174 -27.5q105 0 175.5 27.5t109.5 84t55 130t16 178.5q0 107 -16 181t-55 130.5t-109.5 83.5t-175.5 27q-104 0 -173.5 -27t-109 -83.5t-55.5 -131t-16 -180.5z" />
    <glyph glyph-name="Oacute" unicode="&#xd3;" horiz-adv-x="1628" 
d="M1126 1520l-602 -43l-20 86l561 172zM813 -33q-156 0 -281.5 39.5t-208 106t-138 159t-79.5 194t-24 214.5q0 111 24 212t79.5 194.5t138 161.5t208 108.5t281.5 40.5q157 0 283.5 -40.5t209 -109t138 -162t79 -194t23.5 -211.5q0 -93 -17 -178.5t-52.5 -167t-94.5 -147
t-138 -115.5t-189 -77.5t-242 -27.5zM459 680q0 -105 16 -178.5t55 -130t109 -84t174 -27.5q105 0 175.5 27.5t109.5 84t55 130t16 178.5q0 107 -16 181t-55 130.5t-109.5 83.5t-175.5 27q-104 0 -173.5 -27t-109 -83.5t-55.5 -131t-16 -180.5z" />
    <glyph glyph-name="Ocircumflex" unicode="&#xd4;" horiz-adv-x="1628" 
d="M473 1599l262 152h158l260 -152l-102 -114l-238 131l-235 -131zM813 -33q-156 0 -281.5 39.5t-208 106t-138 159t-79.5 194t-24 214.5q0 111 24 212t79.5 194.5t138 161.5t208 108.5t281.5 40.5q157 0 283.5 -40.5t209 -109t138 -162t79 -194t23.5 -211.5
q0 -93 -17 -178.5t-52.5 -167t-94.5 -147t-138 -115.5t-189 -77.5t-242 -27.5zM459 680q0 -105 16 -178.5t55 -130t109 -84t174 -27.5q105 0 175.5 27.5t109.5 84t55 130t16 178.5q0 107 -16 181t-55 130.5t-109.5 83.5t-175.5 27q-104 0 -173.5 -27t-109 -83.5t-55.5 -131
t-16 -180.5z" />
    <glyph glyph-name="Otilde" unicode="&#xd5;" horiz-adv-x="1628" 
d="M999 1473q-62 0 -122.5 25t-107.5 50t-77 25q-55 0 -55 -72v-24h-209v59q0 184 199 184q52 0 101 -15.5t79.5 -34.5t65.5 -34.5t63 -15.5q53 0 53 72v24h209v-53q0 -96 -53.5 -143t-145.5 -47zM813 -33q-156 0 -281.5 39.5t-208 106t-138 159t-79.5 194t-24 214.5
q0 111 24 212t79.5 194.5t138 161.5t208 108.5t281.5 40.5q157 0 283.5 -40.5t209 -109t138 -162t79 -194t23.5 -211.5q0 -93 -17 -178.5t-52.5 -167t-94.5 -147t-138 -115.5t-189 -77.5t-242 -27.5zM459 680q0 -105 16 -178.5t55 -130t109 -84t174 -27.5q105 0 175.5 27.5
t109.5 84t55 130t16 178.5q0 107 -16 181t-55 130.5t-109.5 83.5t-175.5 27q-104 0 -173.5 -27t-109 -83.5t-55.5 -131t-16 -180.5z" />
    <glyph glyph-name="Odieresis" unicode="&#xd6;" horiz-adv-x="1628" 
d="M455 1491v215h299v-215h-299zM872 1491v215h299v-215h-299zM813 -33q-156 0 -281.5 39.5t-208 106t-138 159t-79.5 194t-24 214.5q0 111 24 212t79.5 194.5t138 161.5t208 108.5t281.5 40.5q157 0 283.5 -40.5t209 -109t138 -162t79 -194t23.5 -211.5q0 -93 -17 -178.5
t-52.5 -167t-94.5 -147t-138 -115.5t-189 -77.5t-242 -27.5zM459 680q0 -105 16 -178.5t55 -130t109 -84t174 -27.5q105 0 175.5 27.5t109.5 84t55 130t16 178.5q0 107 -16 181t-55 130.5t-109.5 83.5t-175.5 27q-104 0 -173.5 -27t-109 -83.5t-55.5 -131t-16 -180.5z" />
    <glyph glyph-name="multiply" unicode="&#xd7;" horiz-adv-x="1296" 
d="M1122 850l-315 -315l311 -310l-157 -157l-310 311l-313 -313l-164 165l311 312l-307 307l156 158l309 -308l315 316z" />
    <glyph glyph-name="Oslash" unicode="&#xd8;" horiz-adv-x="1628" 
d="M1188 1321q124 -60 206.5 -164.5t117 -223t34.5 -253.5q0 -93 -17 -178.5t-52.5 -167t-94.5 -147t-138 -115.5t-189 -77.5t-242 -27.5q-78 0 -156 10l-139 -350l-215 80l133 336q-122 59 -203.5 161.5t-116 220.5t-34.5 255q0 111 24 212t79.5 194.5t138 161.5t208 108.5
t281.5 40.5q64 0 154 -11l100 256l215 -81zM459 680q0 -243 96 -336l299 756q-14 2 -41 2q-104 0 -173.5 -27t-109 -83.5t-55.5 -131t-16 -180.5zM813 260q105 0 175.5 27.5t109.5 84t55 130t16 178.5q0 124 -22.5 208t-77.5 136l-301 -762q14 -2 45 -2z" />
    <glyph glyph-name="Ugrave" unicode="&#xd9;" horiz-adv-x="1472" 
d="M426 1520l59 215l564 -172l-23 -86zM102 518v844h363v-797q0 -173 63 -238t207 -65q146 0 210.5 65.5t64.5 237.5v797h360v-844q0 -272 -159.5 -411.5t-475.5 -139.5q-314 0 -473.5 138.5t-159.5 412.5z" />
    <glyph glyph-name="Uacute" unicode="&#xda;" horiz-adv-x="1472" 
d="M1049 1520l-603 -43l-20 86l561 172zM102 518v844h363v-797q0 -173 63 -238t207 -65q146 0 210.5 65.5t64.5 237.5v797h360v-844q0 -272 -159.5 -411.5t-475.5 -139.5q-314 0 -473.5 138.5t-159.5 412.5z" />
    <glyph glyph-name="Ucircumflex" unicode="&#xdb;" horiz-adv-x="1472" 
d="M395 1599l262 152h158l260 -152l-102 -114l-238 131l-235 -131zM102 518v844h363v-797q0 -173 63 -238t207 -65q146 0 210.5 65.5t64.5 237.5v797h360v-844q0 -272 -159.5 -411.5t-475.5 -139.5q-314 0 -473.5 138.5t-159.5 412.5z" />
    <glyph glyph-name="Udieresis" unicode="&#xdc;" horiz-adv-x="1472" 
d="M377 1491v215h299v-215h-299zM795 1491v215h299v-215h-299zM102 518v844h363v-797q0 -173 63 -238t207 -65q146 0 210.5 65.5t64.5 237.5v797h360v-844q0 -272 -159.5 -411.5t-475.5 -139.5q-314 0 -473.5 138.5t-159.5 412.5z" />
    <glyph glyph-name="Yacute" unicode="&#xdd;" horiz-adv-x="1470" 
d="M1049 1520l-603 -43l-20 86l561 172zM1026 1362h399l-507 -969v-393h-363v393l-512 969h406l194 -447q55 -131 90 -231q42 112 92 231z" />
    <glyph glyph-name="Thorn" unicode="&#xde;" horiz-adv-x="1361" 
d="M872 1141q114 0 200 -35t137.5 -98t76.5 -142.5t25 -175.5q0 -102 -25 -185.5t-76.5 -147.5t-137.5 -99t-200 -35h-397v-223h-364v1362h364v-221h397zM752 500q93 0 137.5 50.5t44.5 135.5q0 176 -178 176h-281v-362h277z" />
    <glyph glyph-name="germandbls" unicode="&#xdf;" horiz-adv-x="1402" 
d="M111 0v883q0 257 157 384.5t477 127.5q151 0 263 -29.5t176.5 -82t95.5 -118t31 -143.5q0 -133 -76.5 -212.5t-208.5 -107.5q70 -12 122 -34t95 -59t65.5 -97t22.5 -141q0 -177 -114.5 -274t-331.5 -97h-260v270h168q161 0 161 152q0 153 -170 153h-159v263h147
q83 0 123.5 39t40.5 102q0 75 -50 110t-151 35q-264 0 -264 -252v-872h-360z" />
    <glyph glyph-name="agrave" unicode="&#xe0;" horiz-adv-x="1208" 
d="M303 1180l59 213l564 -172l-23 -84zM418 -27q-154 0 -247 81t-93 216q0 65 15 113t53.5 90t108 71t173.5 46l231 41q69 12 94 32.5t25 61.5q0 49 -34.5 73.5t-118.5 24.5q-182 0 -185 -139h-342q8 167 146.5 270t376.5 103q240 0 361.5 -95t121.5 -272v-407
q0 -157 18 -283h-303q-16 94 -16 213q-39 -115 -136 -177.5t-249 -62.5zM551 203q103 0 165 72t62 206v39q-23 -17 -51.5 -30t-48 -19t-60.5 -16l-59 -15q-74 -19 -104.5 -48t-30.5 -81t35.5 -80t91.5 -28z" />
    <glyph glyph-name="aacute" unicode="&#xe1;" horiz-adv-x="1208" 
d="M924 1180l-600 -43l-23 84l563 172zM418 -27q-154 0 -247 81t-93 216q0 65 15 113t53.5 90t108 71t173.5 46l231 41q69 12 94 32.5t25 61.5q0 49 -34.5 73.5t-118.5 24.5q-182 0 -185 -139h-342q8 167 146.5 270t376.5 103q240 0 361.5 -95t121.5 -272v-407
q0 -157 18 -283h-303q-16 94 -16 213q-39 -115 -136 -177.5t-249 -62.5zM551 203q103 0 165 72t62 206v39q-23 -17 -51.5 -30t-48 -19t-60.5 -16l-59 -15q-74 -19 -104.5 -48t-30.5 -81t35.5 -80t91.5 -28z" />
    <glyph glyph-name="acircumflex" unicode="&#xe2;" horiz-adv-x="1208" 
d="M272 1233l263 151h157l260 -151l-102 -115l-238 131l-235 -131zM418 -27q-154 0 -247 81t-93 216q0 65 15 113t53.5 90t108 71t173.5 46l231 41q69 12 94 32.5t25 61.5q0 49 -34.5 73.5t-118.5 24.5q-182 0 -185 -139h-342q8 167 146.5 270t376.5 103q240 0 361.5 -95
t121.5 -272v-407q0 -157 18 -283h-303q-16 94 -16 213q-39 -115 -136 -177.5t-249 -62.5zM551 203q103 0 165 72t62 206v39q-23 -17 -51.5 -30t-48 -19t-60.5 -16l-59 -15q-74 -19 -104.5 -48t-30.5 -81t35.5 -80t91.5 -28z" />
    <glyph glyph-name="atilde" unicode="&#xe3;" horiz-adv-x="1208" 
d="M799 1135q-62 0 -122.5 25t-107.5 50t-77 25q-56 0 -56 -72v-24h-209v59q0 184 199 184q52 0 101 -15.5t79.5 -34.5t65.5 -34.5t63 -15.5q53 0 53 72v24h209v-53q0 -96 -53 -143t-145 -47zM418 -27q-154 0 -247 81t-93 216q0 65 15 113t53.5 90t108 71t173.5 46l231 41
q69 12 94 32.5t25 61.5q0 49 -34.5 73.5t-118.5 24.5q-182 0 -185 -139h-342q8 167 146.5 270t376.5 103q240 0 361.5 -95t121.5 -272v-407q0 -157 18 -283h-303q-16 94 -16 213q-39 -115 -136 -177.5t-249 -62.5zM551 203q103 0 165 72t62 206v39q-23 -17 -51.5 -30
t-48 -19t-60.5 -16l-59 -15q-74 -19 -104.5 -48t-30.5 -81t35.5 -80t91.5 -28z" />
    <glyph glyph-name="adieresis" unicode="&#xe4;" horiz-adv-x="1208" 
d="M240 1149v213h299v-213h-299zM684 1149v213h299v-213h-299zM418 -27q-154 0 -247 81t-93 216q0 65 15 113t53.5 90t108 71t173.5 46l231 41q69 12 94 32.5t25 61.5q0 49 -34.5 73.5t-118.5 24.5q-182 0 -185 -139h-342q8 167 146.5 270t376.5 103q240 0 361.5 -95
t121.5 -272v-407q0 -157 18 -283h-303q-16 94 -16 213q-39 -115 -136 -177.5t-249 -62.5zM551 203q103 0 165 72t62 206v39q-23 -17 -51.5 -30t-48 -19t-60.5 -16l-59 -15q-74 -19 -104.5 -48t-30.5 -81t35.5 -80t91.5 -28z" />
    <glyph glyph-name="aring" unicode="&#xe5;" horiz-adv-x="1208" 
d="M612 1128q-84 0 -134 53t-50 128t49.5 126.5t134.5 51.5q84 0 134.5 -51.5t50.5 -126.5t-51 -128t-134 -53zM551 1309q0 -31 17.5 -48.5t43.5 -17.5t44 17.5t18 48.5q0 32 -17.5 48.5t-44.5 16.5t-44 -16.5t-17 -48.5zM418 -27q-154 0 -247 81t-93 216q0 65 15 113
t53.5 90t108 71t173.5 46l231 41q69 12 94 32.5t25 61.5q0 49 -34.5 73.5t-118.5 24.5q-182 0 -185 -139h-342q8 167 146.5 270t376.5 103q240 0 361.5 -95t121.5 -272v-407q0 -157 18 -283h-303q-16 94 -16 213q-39 -115 -136 -177.5t-249 -62.5zM551 203q103 0 165 72
t62 206v39q-23 -17 -51.5 -30t-48 -19t-60.5 -16l-59 -15q-74 -19 -104.5 -48t-30.5 -81t35.5 -80t91.5 -28z" />
    <glyph glyph-name="ae" unicode="&#xe6;" horiz-adv-x="1959" 
d="M1352 203q148 0 198 106h342q-11 -56 -34 -103.5t-66 -92.5t-102.5 -76.5t-147.5 -50.5t-196 -19q-330 0 -472 211q-70 -96 -180 -150.5t-241 -54.5q-157 0 -266 82.5t-109 214.5q0 65 15 113t53.5 90t108 71t173.5 46l231 41q69 12 94 32.5t25 61.5q0 49 -34.5 73.5
t-118.5 24.5q-182 0 -185 -139h-342q8 167 146.5 270t376.5 103t340 -117q145 117 385 117q122 0 217.5 -30t156.5 -80.5t101 -122.5t56.5 -149.5t16.5 -166.5q0 -63 -4 -86h-768q14 -118 71.5 -168.5t158.5 -50.5zM1350 825q-100 0 -153.5 -45.5t-70.5 -152.5h435
q-15 198 -211 198zM778 481v39q-23 -17 -51.5 -30t-48 -19t-60.5 -16l-59 -15q-74 -19 -104.5 -48t-30.5 -81t35.5 -80t91.5 -28q103 0 165 72t62 206z" />
    <glyph glyph-name="ccedilla" unicode="&#xe7;" horiz-adv-x="1267" 
d="M1210 434q-2 -80 -28 -152.5t-75 -133.5t-127 -105t-179 -63l35 -164q18 -89 -27.5 -149t-142.5 -60h-234v215h164l-35 149q-129 13 -226.5 63t-154 125.5t-84.5 164t-28 188.5q0 86 19 163t63 148t109.5 122t165 81.5t222.5 30.5q135 0 242 -36.5t174.5 -100.5
t103.5 -147t39 -181h-346q-16 190 -209 190q-116 0 -173.5 -61t-57.5 -209t55.5 -209t169.5 -61q199 0 219 192h346z" />
    <glyph glyph-name="egrave" unicode="&#xe8;" horiz-adv-x="1247" 
d="M938 1221l-23 -84l-600 43l60 213zM641 203q75 0 124.5 29t72.5 77h342q-11 -56 -34 -103.5t-66.5 -92.5t-103 -76.5t-147.5 -50.5t-196 -19q-122 0 -219 30t-161 81t-106.5 122t-60.5 149t-18 165q0 91 20.5 171t65.5 148.5t110 118t159.5 77.5t209.5 28
q122 0 217.5 -30t157.5 -80.5t102 -122t57 -149.5t17 -167q0 -52 -6 -86h-768q14 -119 71 -169t160 -50zM637 825q-98 0 -152 -45.5t-71 -152.5h436q-18 198 -213 198z" />
    <glyph glyph-name="eacute" unicode="&#xe9;" horiz-adv-x="1247" 
d="M936 1180l-600 -43l-23 84l564 172zM641 203q75 0 124.5 29t72.5 77h342q-11 -56 -34 -103.5t-66.5 -92.5t-103 -76.5t-147.5 -50.5t-196 -19q-122 0 -219 30t-161 81t-106.5 122t-60.5 149t-18 165q0 91 20.5 171t65.5 148.5t110 118t159.5 77.5t209.5 28
q122 0 217.5 -30t157.5 -80.5t102 -122t57 -149.5t17 -167q0 -52 -6 -86h-768q14 -119 71 -169t160 -50zM637 825q-98 0 -152 -45.5t-71 -152.5h436q-18 198 -213 198z" />
    <glyph glyph-name="ecircumflex" unicode="&#xea;" horiz-adv-x="1247" 
d="M625 1249l-236 -131l-104 115l262 151h158l260 -151l-103 -115zM641 203q75 0 124.5 29t72.5 77h342q-11 -56 -34 -103.5t-66.5 -92.5t-103 -76.5t-147.5 -50.5t-196 -19q-122 0 -219 30t-161 81t-106.5 122t-60.5 149t-18 165q0 91 20.5 171t65.5 148.5t110 118
t159.5 77.5t209.5 28q122 0 217.5 -30t157.5 -80.5t102 -122t57 -149.5t17 -167q0 -52 -6 -86h-768q14 -119 71 -169t160 -50zM637 825q-98 0 -152 -45.5t-71 -152.5h436q-18 198 -213 198z" />
    <glyph glyph-name="edieresis" unicode="&#xeb;" horiz-adv-x="1247" 
d="M551 1362v-213h-299v213h299zM995 1362v-213h-299v213h299zM641 203q75 0 124.5 29t72.5 77h342q-11 -56 -34 -103.5t-66.5 -92.5t-103 -76.5t-147.5 -50.5t-196 -19q-122 0 -219 30t-161 81t-106.5 122t-60.5 149t-18 165q0 91 20.5 171t65.5 148.5t110 118t159.5 77.5
t209.5 28q122 0 217.5 -30t157.5 -80.5t102 -122t57 -149.5t17 -167q0 -52 -6 -86h-768q14 -119 71 -169t160 -50zM637 825q-98 0 -152 -45.5t-71 -152.5h436q-18 198 -213 198z" />
    <glyph glyph-name="igrave" unicode="&#xec;" horiz-adv-x="563" 
d="M-31 1180l62 213l563 -172l-23 -84zM104 0v1024h353v-1024h-353z" />
    <glyph glyph-name="iacute" unicode="&#xed;" horiz-adv-x="563" 
d="M592 1180l-600 -43l-23 84l563 172zM104 0v1024h353v-1024h-353z" />
    <glyph glyph-name="icircumflex" unicode="&#xee;" horiz-adv-x="563" 
d="M-59 1233l262 151h157l261 -151l-103 -115l-237 131l-236 -131zM104 0v1024h353v-1024h-353z" />
    <glyph glyph-name="idieresis" unicode="&#xef;" horiz-adv-x="563" 
d="M-92 1149v213h299v-213h-299zM352 1149v213h299v-213h-299zM104 0v1024h353v-1024h-353z" />
    <glyph glyph-name="eth" unicode="&#xf0;" horiz-adv-x="1306" 
d="M963 1372q142 -121 211 -296.5t69 -426.5q0 -348 -142 -515t-446 -167q-125 0 -225.5 29t-168 79t-113 120t-65.5 149.5t-20 169.5q0 88 16 164t52.5 142t90 113t133 74t177.5 27q247 0 361 -176q0 181 -154 322l-121 -103l-98 109l96 82q-61 38 -141 71l154 224
q110 -44 211 -103l121 103l98 -109zM651 242q132 0 187 65t55 205t-55 205t-187 65q-129 0 -182 -63t-53 -207t53 -207t182 -63z" />
    <glyph glyph-name="ntilde" unicode="&#xf1;" horiz-adv-x="1304" 
d="M477 1163v-24h-209v59q0 184 199 184q52 0 101 -15.5t79.5 -34.5t65.5 -34.5t63 -15.5q53 0 53 72v24h209v-53q0 -96 -53 -143t-145 -47q-62 0 -123 25t-108 50t-77 25q-55 0 -55 -72zM825 1057q196 0 290.5 -113t94.5 -321v-623h-352v563q0 209 -178 209
q-223 0 -223 -291v-481h-353v1024h353v-190q112 223 368 223z" />
    <glyph glyph-name="ograve" unicode="&#xf2;" horiz-adv-x="1306" 
d="M344 1180l59 213l564 -172l-23 -84zM653 -33q-126 0 -227 30.5t-167 81.5t-110 122t-62.5 148t-18.5 163q0 85 18.5 162t62.5 148t110 122.5t167 82t227 30.5t227.5 -30.5t167.5 -82t110.5 -122.5t63.5 -148t19 -162t-19 -162t-63.5 -148t-110.5 -122.5t-167.5 -82
t-227.5 -30.5zM420 512q0 -152 52.5 -211t180.5 -59t181 59t53 211t-53 211t-181 59t-180.5 -59t-52.5 -211z" />
    <glyph glyph-name="oacute" unicode="&#xf3;" horiz-adv-x="1306" 
d="M965 1180l-600 -43l-23 84l563 172zM653 -33q-126 0 -227 30.5t-167 81.5t-110 122t-62.5 148t-18.5 163q0 85 18.5 162t62.5 148t110 122.5t167 82t227 30.5t227.5 -30.5t167.5 -82t110.5 -122.5t63.5 -148t19 -162t-19 -162t-63.5 -148t-110.5 -122.5t-167.5 -82
t-227.5 -30.5zM420 512q0 -152 52.5 -211t180.5 -59t181 59t53 211t-53 211t-181 59t-180.5 -59t-52.5 -211z" />
    <glyph glyph-name="ocircumflex" unicode="&#xf4;" horiz-adv-x="1306" 
d="M313 1233l262 151h158l260 -151l-102 -115l-238 131l-235 -131zM653 -33q-126 0 -227 30.5t-167 81.5t-110 122t-62.5 148t-18.5 163q0 85 18.5 162t62.5 148t110 122.5t167 82t227 30.5t227.5 -30.5t167.5 -82t110.5 -122.5t63.5 -148t19 -162t-19 -162t-63.5 -148
t-110.5 -122.5t-167.5 -82t-227.5 -30.5zM420 512q0 -152 52.5 -211t180.5 -59t181 59t53 211t-53 211t-181 59t-180.5 -59t-52.5 -211z" />
    <glyph glyph-name="otilde" unicode="&#xf5;" horiz-adv-x="1306" 
d="M840 1135q-62 0 -123 25t-108 50t-77 25q-55 0 -55 -72v-24h-209v59q0 184 199 184q52 0 101 -15.5t79.5 -34.5t65.5 -34.5t63 -15.5q53 0 53 72v24h209v-53q0 -96 -53 -143t-145 -47zM653 -33q-126 0 -227 30.5t-167 81.5t-110 122t-62.5 148t-18.5 163q0 85 18.5 162
t62.5 148t110 122.5t167 82t227 30.5t227.5 -30.5t167.5 -82t110.5 -122.5t63.5 -148t19 -162t-19 -162t-63.5 -148t-110.5 -122.5t-167.5 -82t-227.5 -30.5zM420 512q0 -152 52.5 -211t180.5 -59t181 59t53 211t-53 211t-181 59t-180.5 -59t-52.5 -211z" />
    <glyph glyph-name="odieresis" unicode="&#xf6;" horiz-adv-x="1306" 
d="M281 1149v213h299v-213h-299zM725 1149v213h299v-213h-299zM653 -33q-126 0 -227 30.5t-167 81.5t-110 122t-62.5 148t-18.5 163q0 85 18.5 162t62.5 148t110 122.5t167 82t227 30.5t227.5 -30.5t167.5 -82t110.5 -122.5t63.5 -148t19 -162t-19 -162t-63.5 -148
t-110.5 -122.5t-167.5 -82t-227.5 -30.5zM420 512q0 -152 52.5 -211t180.5 -59t181 59t53 211t-53 211t-181 59t-180.5 -59t-52.5 -211z" />
    <glyph glyph-name="divide" unicode="&#xf7;" horiz-adv-x="1347" 
d="M674 760q-71 0 -113.5 45t-42.5 110q0 63 42.5 107.5t113.5 44.5t113 -44.5t42 -107.5q0 -66 -42 -110.5t-113 -44.5zM174 651h997v-233h-997v233zM674 0q-71 0 -113.5 45t-42.5 109t42.5 108.5t113.5 44.5t113 -44.5t42 -108.5t-42 -109t-113 -45z" />
    <glyph glyph-name="oslash" unicode="&#xf8;" horiz-adv-x="1306" 
d="M942 1004q104 -43 173 -123t97.5 -171.5t28.5 -197.5q0 -85 -19 -162t-63.5 -148t-110.5 -122.5t-167.5 -82t-227.5 -30.5q-61 0 -116 6l-119 -301l-166 62l113 284q-103 44 -171.5 124t-97 172t-28.5 198q0 85 18.5 162t62.5 148t110 122.5t167 82t227 30.5q70 0 119 -8
l98 247l164 -59zM420 512q0 -155 55 -213l193 483h-15q-128 0 -180.5 -59t-52.5 -211zM653 242q128 0 181 59t53 211q0 151 -56 213l-188 -483h10z" />
    <glyph glyph-name="ugrave" unicode="&#xf9;" horiz-adv-x="1304" 
d="M963 1221l-23 -84l-600 43l59 213zM848 1024h352v-1024h-352v186q-109 -219 -363 -219q-196 0 -292.5 113.5t-96.5 320.5v623h353v-561q0 -211 180 -211q105 0 162 73t57 218v481z" />
    <glyph glyph-name="uacute" unicode="&#xfa;" horiz-adv-x="1304" 
d="M961 1180l-601 -43l-22 84l563 172zM848 1024h352v-1024h-352v186q-109 -219 -363 -219q-196 0 -292.5 113.5t-96.5 320.5v623h353v-561q0 -211 180 -211q105 0 162 73t57 218v481z" />
    <glyph glyph-name="ucircumflex" unicode="&#xfb;" horiz-adv-x="1304" 
d="M649 1249l-235 -131l-105 115l262 151h158l260 -151l-102 -115zM848 1024h352v-1024h-352v186q-109 -219 -363 -219q-196 0 -292.5 113.5t-96.5 320.5v623h353v-561q0 -211 180 -211q105 0 162 73t57 218v481z" />
    <glyph glyph-name="udieresis" unicode="&#xfc;" horiz-adv-x="1304" 
d="M575 1362v-213h-299v213h299zM1020 1362v-213h-299v213h299zM848 1024h352v-1024h-352v186q-109 -219 -363 -219q-196 0 -292.5 113.5t-96.5 320.5v623h353v-561q0 -211 180 -211q105 0 162 73t57 218v481z" />
    <glyph glyph-name="yacute" unicode="&#xfd;" horiz-adv-x="1208" 
d="M915 1180l-600 -43l-22 84l563 172zM870 1024h334l-325 -1026q-26 -85 -53.5 -145t-68.5 -112.5t-93.5 -84t-125.5 -49t-169 -17.5h-295v279h440l53 160h-223l-332 995h359l198 -594l60 -190l53 190z" />
    <glyph glyph-name="thorn" unicode="&#xfe;" horiz-adv-x="1345" 
d="M813 1057q98 0 177.5 -28.5t133 -78.5t90 -120t52.5 -149.5t16 -170.5q0 -88 -16 -166t-52.5 -148t-90 -120t-133 -79.5t-177.5 -29.5q-249 0 -360 176v-553h-353v1844h353v-549q110 172 360 172zM694 242q129 0 182.5 63t53.5 207t-53.5 207t-182.5 63
q-132 0 -186.5 -65t-54.5 -205t54.5 -205t186.5 -65z" />
    <glyph glyph-name="ydieresis" unicode="&#xff;" horiz-adv-x="1208" 
d="M530 1362v-213h-299v213h299zM975 1362v-213h-299v213h299zM870 1024h334l-325 -1026q-26 -85 -53.5 -145t-68.5 -112.5t-93.5 -84t-125.5 -49t-169 -17.5h-295v279h440l53 160h-223l-332 995h359l198 -594l60 -190l53 190z" />
    <glyph glyph-name="Amacron" unicode="&#x100;" horiz-adv-x="1597" 
d="M1227 1706v-205h-850v205h850zM1180 0l-88 256h-586l-88 -256h-361l465 1362h555l465 -1362h-362zM598 528h401l-200 584z" />
    <glyph glyph-name="amacron" unicode="&#x101;" horiz-adv-x="1208" 
d="M219 1362h785v-191h-785v191zM418 -27q-154 0 -247 81t-93 216q0 65 15 113t53.5 90t108 71t173.5 46l231 41q69 12 94 32.5t25 61.5q0 49 -34.5 73.5t-118.5 24.5q-182 0 -185 -139h-342q8 167 146.5 270t376.5 103q240 0 361.5 -95t121.5 -272v-407q0 -157 18 -283
h-303q-16 94 -16 213q-39 -115 -136 -177.5t-249 -62.5zM551 203q103 0 165 72t62 206v39q-23 -17 -51.5 -30t-48 -19t-60.5 -16l-59 -15q-74 -19 -104.5 -48t-30.5 -81t35.5 -80t91.5 -28z" />
    <glyph glyph-name="Abreve" unicode="&#x102;" horiz-adv-x="1597" 
d="M801 1475q-72 0 -128.5 13.5t-91 35t-57.5 51.5t-32.5 59.5t-10.5 61.5h195q3 -42 36 -68t89 -26t90 26t37 68h192q-1 -32 -10.5 -61.5t-32 -59.5t-57 -51.5t-91 -35t-128.5 -13.5zM1180 0l-88 256h-586l-88 -256h-361l465 1362h555l465 -1362h-362zM598 528h401
l-200 584z" />
    <glyph glyph-name="abreve" unicode="&#x103;" horiz-adv-x="1208" 
d="M276 1362h195q3 -42 36 -68t89 -26t90 26t37 68h192q-1 -32 -10.5 -61.5t-32 -59.5t-57 -51.5t-91 -35t-128.5 -13.5t-128.5 13.5t-91 35t-57.5 51.5t-32.5 59.5t-10.5 61.5zM418 -27q-154 0 -247 81t-93 216q0 65 15 113t53.5 90t108 71t173.5 46l231 41q69 12 94 32.5
t25 61.5q0 49 -34.5 73.5t-118.5 24.5q-182 0 -185 -139h-342q8 167 146.5 270t376.5 103q240 0 361.5 -95t121.5 -272v-407q0 -157 18 -283h-303q-16 94 -16 213q-39 -115 -136 -177.5t-249 -62.5zM551 203q103 0 165 72t62 206v39q-23 -17 -51.5 -30t-48 -19t-60.5 -16
l-59 -15q-74 -19 -104.5 -48t-30.5 -81t35.5 -80t91.5 -28z" />
    <glyph glyph-name="Aogonek" unicode="&#x104;" horiz-adv-x="1597" 
d="M1335 -195q55 0 101 15l4 -213q-52 -25 -140 -25q-133 0 -217 71.5t-84 188.5q0 160 142 269l-49 145h-586l-88 -256h-361l465 1362h555l465 -1362h-317q-15 -34 -15 -72q0 -58 37 -90.5t88 -32.5zM598 528h401l-200 584z" />
    <glyph glyph-name="aogonek" unicode="&#x105;" horiz-adv-x="1208" 
d="M1182 -180l4 -213q-52 -25 -139 -25q-133 0 -217.5 71.5t-84.5 188.5q0 108 68 197q-10 82 -10 174q-39 -115 -136 -177.5t-249 -62.5q-154 0 -247 81t-93 216q0 65 15 113t53.5 90t108 71t173.5 46l231 41q69 12 94 32.5t25 61.5q0 49 -34.5 73.5t-118.5 24.5
q-182 0 -185 -139h-342q8 167 146.5 270t376.5 103q240 0 361.5 -95t121.5 -272v-407q0 -157 18 -283h-151q-15 -34 -15 -72q0 -58 37 -90.5t88 -32.5q55 0 101 15zM778 481v39q-23 -17 -51.5 -30t-48 -19t-60.5 -16l-59 -15q-74 -19 -104.5 -48t-30.5 -81t35.5 -80
t91.5 -28q103 0 165 72t62 206z" />
    <glyph glyph-name="Cacute" unicode="&#x106;" horiz-adv-x="1595" 
d="M1108 1520l-602 -43l-21 86l562 172zM805 -33q-153 0 -276.5 38.5t-205.5 104.5t-137.5 157.5t-79.5 194t-24 218.5q0 113 24.5 215t80 195t137.5 160t206 107t277 40q357 0 522 -142.5t187 -443.5h-371q-13 147 -87.5 219t-244.5 72q-184 0 -269 -104t-85 -318
q0 -212 81.5 -316t262.5 -104q178 0 256.5 73t89.5 228h375q-17 -214 -91 -341.5t-226 -190t-402 -62.5z" />
    <glyph glyph-name="cacute" unicode="&#x107;" horiz-adv-x="1267" 
d="M946 1180l-600 -43l-22 84l563 172zM68 512q0 86 19 163t63 148t109.5 122t165 81.5t222.5 30.5q135 0 242 -36.5t174.5 -100.5t103.5 -147t39 -181h-346q-16 190 -209 190q-116 0 -173.5 -61t-57.5 -209t55.5 -209t169.5 -61q199 0 219 192h346q-3 -94 -38 -176.5
t-101 -148.5t-174 -104t-246 -38q-123 0 -223 30.5t-166 82t-110.5 122t-64 148t-19.5 162.5z" />
    <glyph glyph-name="Cdotaccent" unicode="&#x10a;" horiz-adv-x="1595" 
d="M614 1491v215h365v-215h-365zM805 -33q-153 0 -276.5 38.5t-205.5 104.5t-137.5 157.5t-79.5 194t-24 218.5q0 113 24.5 215t80 195t137.5 160t206 107t277 40q357 0 522 -142.5t187 -443.5h-371q-13 147 -87.5 219t-244.5 72q-184 0 -269 -104t-85 -318
q0 -212 81.5 -316t262.5 -104q178 0 256.5 73t89.5 228h375q-17 -214 -91 -341.5t-226 -190t-402 -62.5z" />
    <glyph glyph-name="cdotaccent" unicode="&#x10b;" horiz-adv-x="1267" 
d="M453 1149v213h364v-213h-364zM68 512q0 86 19 163t63 148t109.5 122t165 81.5t222.5 30.5q135 0 242 -36.5t174.5 -100.5t103.5 -147t39 -181h-346q-16 190 -209 190q-116 0 -173.5 -61t-57.5 -209t55.5 -209t169.5 -61q199 0 219 192h346q-3 -94 -38 -176.5t-101 -148.5
t-174 -104t-246 -38q-123 0 -223 30.5t-166 82t-110.5 122t-64 148t-19.5 162.5z" />
    <glyph glyph-name="Ccaron" unicode="&#x10c;" horiz-adv-x="1595" 
d="M457 1616l104 115l236 -132l237 132l103 -115l-260 -152h-158zM805 -33q-153 0 -276.5 38.5t-205.5 104.5t-137.5 157.5t-79.5 194t-24 218.5q0 113 24.5 215t80 195t137.5 160t206 107t277 40q357 0 522 -142.5t187 -443.5h-371q-13 147 -87.5 219t-244.5 72
q-184 0 -269 -104t-85 -318q0 -212 81.5 -316t262.5 -104q178 0 256.5 73t89.5 228h375q-17 -214 -91 -341.5t-226 -190t-402 -62.5z" />
    <glyph glyph-name="ccaron" unicode="&#x10d;" horiz-adv-x="1267" 
d="M295 1292l104 115l236 -131l237 131l103 -115l-260 -151h-158zM68 512q0 86 19 163t63 148t109.5 122t165 81.5t222.5 30.5q135 0 242 -36.5t174.5 -100.5t103.5 -147t39 -181h-346q-16 190 -209 190q-116 0 -173.5 -61t-57.5 -209t55.5 -209t169.5 -61q199 0 219 192
h346q-3 -94 -38 -176.5t-101 -148.5t-174 -104t-246 -38q-123 0 -223 30.5t-166 82t-110.5 122t-64 148t-19.5 162.5z" />
    <glyph glyph-name="Dcaron" unicode="&#x10e;" horiz-adv-x="1515" 
d="M838 1464h-158l-262 152l104 115l236 -132l237 132l103 -115zM799 1362q129 0 236.5 -36.5t182 -100t126.5 -150t76 -185t24 -206.5t-24 -207t-76 -186.5t-126.5 -152t-182 -101.5t-236.5 -37h-688v1362h688zM717 285q183 0 266.5 99t83.5 300t-83.5 297t-266.5 96h-246
v-792h246z" />
    <glyph glyph-name="dcaron" unicode="&#x10f;" horiz-adv-x="1732" 
d="M1399 1706h287l-29 -569h-230zM893 885v549h352v-1434h-352v139q-114 -172 -358 -172q-99 0 -178.5 29t-133.5 79t-90.5 120t-53 149.5t-16.5 169.5q0 88 16.5 166t53 148t90 120t133.5 79.5t179 29.5q244 0 358 -172zM651 242q132 0 187 65t55 205t-55 205t-187 65
q-129 0 -181 -62.5t-52 -207.5t52 -207.5t181 -62.5z" />
    <glyph glyph-name="Dcroat" unicode="&#x110;" horiz-adv-x="1675" 
d="M958 1362q129 0 236.5 -36.5t183 -100t127.5 -150t76.5 -185t24.5 -206.5t-24.5 -207t-76.5 -186.5t-127.5 -152t-183 -101.5t-236.5 -37h-688v561h-217v238h217v563h688zM877 285q184 0 268 99t84 300t-84.5 297t-267.5 96h-244v-278h301v-238h-301v-276h244z" />
    <glyph glyph-name="dcroat" unicode="&#x111;" horiz-adv-x="1406" 
d="M1407 1325v-184h-162v-1141h-352v139q-114 -172 -358 -172q-99 0 -178.5 29t-133.5 79t-90.5 120t-53 149.5t-16.5 169.5q0 88 16.5 166t53 148t90 120t133.5 79.5t179 29.5q244 0 358 -172v256h-352v184h352v109h352v-109h162zM651 242q132 0 187 65t55 205t-55 205
t-187 65q-129 0 -181 -62.5t-52 -207.5t52 -207.5t181 -62.5z" />
    <glyph glyph-name="Emacron" unicode="&#x112;" horiz-adv-x="1298" 
d="M1077 1706v-205h-850v205h850zM471 285h735v-285h-1095v1362h1089v-285h-729v-252h668v-264h-668v-276z" />
    <glyph glyph-name="emacron" unicode="&#x113;" horiz-adv-x="1247" 
d="M1016 1362v-191h-785v191h785zM641 203q75 0 124.5 29t72.5 77h342q-11 -56 -34 -103.5t-66.5 -92.5t-103 -76.5t-147.5 -50.5t-196 -19q-122 0 -219 30t-161 81t-106.5 122t-60.5 149t-18 165q0 91 20.5 171t65.5 148.5t110 118t159.5 77.5t209.5 28q122 0 217.5 -30
t157.5 -80.5t102 -122t57 -149.5t17 -167q0 -52 -6 -86h-768q14 -119 71 -169t160 -50zM637 825q-98 0 -152 -45.5t-71 -152.5h436q-18 198 -213 198z" />
    <glyph glyph-name="Edotaccent" unicode="&#x116;" horiz-adv-x="1298" 
d="M834 1706v-215h-365v215h365zM471 285h735v-285h-1095v1362h1089v-285h-729v-252h668v-264h-668v-276z" />
    <glyph glyph-name="edotaccent" unicode="&#x117;" horiz-adv-x="1247" 
d="M807 1362v-213h-365v213h365zM641 203q75 0 124.5 29t72.5 77h342q-11 -56 -34 -103.5t-66.5 -92.5t-103 -76.5t-147.5 -50.5t-196 -19q-122 0 -219 30t-161 81t-106.5 122t-60.5 149t-18 165q0 91 20.5 171t65.5 148.5t110 118t159.5 77.5t209.5 28q122 0 217.5 -30
t157.5 -80.5t102 -122t57 -149.5t17 -167q0 -52 -6 -86h-768q14 -119 71 -169t160 -50zM637 825q-98 0 -152 -45.5t-71 -152.5h436q-18 198 -213 198z" />
    <glyph glyph-name="Eogonek" unicode="&#x118;" horiz-adv-x="1298" 
d="M1206 0h-233q-15 -34 -15 -72q0 -58 37 -90.5t88 -32.5q55 0 101 15l4 -213q-52 -25 -139 -25q-133 0 -217 71.5t-84 188.5q0 85 43 158h-680v1362h1089v-285h-729v-252h668v-264h-668v-276h735v-285z" />
    <glyph glyph-name="eogonek" unicode="&#x119;" horiz-adv-x="1247" 
d="M1180 309q-35 -186 -209 -276q-33 -47 -33 -105t37 -90.5t88 -32.5q53 0 100 15l4 -213q-52 -25 -139 -25q-133 0 -217 71.5t-84 188.5q0 65 29 131q-56 -6 -123 -6q-122 0 -219 30t-161 81t-106.5 122t-60.5 149t-18 165q0 91 20.5 171t65.5 148.5t110 118t159.5 77.5
t209.5 28q122 0 217.5 -30t157.5 -80.5t102 -122t57 -149.5t17 -167q0 -52 -6 -86h-768q14 -119 71 -169t160 -50q75 0 124.5 29t72.5 77h342zM637 825q-98 0 -152 -45.5t-71 -152.5h436q-18 198 -213 198z" />
    <glyph glyph-name="Ecaron" unicode="&#x11a;" horiz-adv-x="1298" 
d="M731 1464h-158l-262 152l105 115l235 -132l238 132l102 -115zM471 285h735v-285h-1095v1362h1089v-285h-729v-252h668v-264h-668v-276z" />
    <glyph glyph-name="ecaron" unicode="&#x11b;" horiz-adv-x="1247" 
d="M705 1141h-158l-262 151l104 115l236 -131l237 131l103 -115zM641 203q75 0 124.5 29t72.5 77h342q-11 -56 -34 -103.5t-66.5 -92.5t-103 -76.5t-147.5 -50.5t-196 -19q-122 0 -219 30t-161 81t-106.5 122t-60.5 149t-18 165q0 91 20.5 171t65.5 148.5t110 118
t159.5 77.5t209.5 28q122 0 217.5 -30t157.5 -80.5t102 -122t57 -149.5t17 -167q0 -52 -6 -86h-768q14 -119 71 -169t160 -50zM637 825q-98 0 -152 -45.5t-71 -152.5h436q-18 198 -213 198z" />
    <glyph glyph-name="Gbreve" unicode="&#x11e;" horiz-adv-x="1626" 
d="M489 1696h195q3 -42 36 -68t89 -26t90 26t37 68h192q-1 -32 -10.5 -61.5t-32 -59.5t-57 -51.5t-91 -35t-128.5 -13.5t-128.5 13.5t-91 35t-57.5 51.5t-32.5 59.5t-10.5 61.5zM725 -33q-162 0 -287 56.5t-201.5 155.5t-115.5 226t-39 275q0 121 26.5 226.5t85 196.5
t144.5 155.5t212 101.5t281 37q171 0 300.5 -38t207.5 -106t118.5 -153t47.5 -189h-360q-13 94 -91.5 150.5t-219.5 56.5q-187 0 -281 -106t-94 -332q0 -219 85.5 -326.5t266.5 -107.5q89 0 154.5 20.5t104.5 59.5t60.5 85.5t30.5 108.5h-440v228h782v-748h-301v250
q-103 -283 -477 -283z" />
    <glyph glyph-name="gbreve" unicode="&#x11f;" horiz-adv-x="1353" 
d="M662 1141q-72 0 -128.5 13.5t-91 35t-57.5 51.5t-32.5 59.5t-10.5 61.5h195q3 -42 36 -68t89 -26t89.5 26t36.5 68h193q-1 -32 -10.5 -61.5t-32 -59.5t-57 -51.5t-91 -35t-128.5 -13.5zM901 1024h352v-965q0 -253 -139.5 -372t-458.5 -119q-265 0 -403.5 108.5
t-149.5 284.5h342q20 -151 230 -151q118 0 172.5 46t54.5 148v182q-111 -155 -350 -155q-122 0 -216 41.5t-149 114t-82.5 162t-27.5 194.5q0 85 16.5 159.5t53.5 140t91.5 112t134.5 73.5t179 27q238 0 350 -154v123zM672 289q125 0 177 59.5t52 188.5q0 127 -52 186
t-177 59q-132 0 -188 -56.5t-56 -188.5q0 -134 56 -191t188 -57z" />
    <glyph glyph-name="Gdotaccent" unicode="&#x120;" horiz-adv-x="1626" 
d="M629 1491v215h364v-215h-364zM725 -33q-162 0 -287 56.5t-201.5 155.5t-115.5 226t-39 275q0 121 26.5 226.5t85 196.5t144.5 155.5t212 101.5t281 37q171 0 300.5 -38t207.5 -106t118.5 -153t47.5 -189h-360q-13 94 -91.5 150.5t-219.5 56.5q-187 0 -281 -106t-94 -332
q0 -219 85.5 -326.5t266.5 -107.5q89 0 154.5 20.5t104.5 59.5t60.5 85.5t30.5 108.5h-440v228h782v-748h-301v250q-103 -283 -477 -283z" />
    <glyph glyph-name="gdotaccent" unicode="&#x121;" horiz-adv-x="1353" 
d="M860 1362v-213h-364v213h364zM901 1024h352v-965q0 -253 -139.5 -372t-458.5 -119q-265 0 -403.5 108.5t-149.5 284.5h342q20 -151 230 -151q118 0 172.5 46t54.5 148v182q-111 -155 -350 -155q-122 0 -216 41.5t-149 114t-82.5 162t-27.5 194.5q0 85 16.5 159.5
t53.5 140t91.5 112t134.5 73.5t179 27q238 0 350 -154v123zM672 289q125 0 177 59.5t52 188.5q0 127 -52 186t-177 59q-132 0 -188 -56.5t-56 -188.5q0 -134 56 -191t188 -57z" />
    <glyph glyph-name="uni0122" unicode="&#x122;" horiz-adv-x="1626" 
d="M725 -33q-162 0 -287 56.5t-201.5 155.5t-115.5 226t-39 275q0 121 26.5 226.5t85 196.5t144.5 155.5t212 101.5t281 37q171 0 300.5 -38t207.5 -106t118.5 -153t47.5 -189h-360q-13 94 -91.5 150.5t-219.5 56.5q-187 0 -281 -106t-94 -332q0 -219 85.5 -326.5
t266.5 -107.5q89 0 154.5 20.5t104.5 59.5t60.5 85.5t30.5 108.5h-440v228h782v-748h-301v250q-103 -283 -477 -283zM651 -387v291h316v-445q0 -53 -10 -91.5t-35 -70.5t-73 -48.5t-120 -16.5h-78v180h121v201h-121z" />
    <glyph glyph-name="uni0123" unicode="&#x123;" horiz-adv-x="1353" 
d="M836 1430v-291h-318v444q0 53 10 91.5t35.5 70.5t74 48.5t120.5 16.5h78v-180h-121v-200h121zM901 1024h352v-965q0 -253 -139.5 -372t-458.5 -119q-265 0 -403.5 108.5t-149.5 284.5h342q20 -151 230 -151q118 0 172.5 46t54.5 148v182q-111 -155 -350 -155
q-122 0 -216 41.5t-149 114t-82.5 162t-27.5 194.5q0 85 16.5 159.5t53.5 140t91.5 112t134.5 73.5t179 27q238 0 350 -154v123zM672 289q125 0 177 59.5t52 188.5q0 127 -52 186t-177 59q-132 0 -188 -56.5t-56 -188.5q0 -134 56 -191t188 -57z" />
    <glyph glyph-name="Hbar" unicode="&#x126;" horiz-adv-x="1785" 
d="M1731 1227v-238h-213v-989h-361v551h-569v-551h-361v989h-174v238h174v135h361v-135h569v135h361v-135h213zM1157 831v158h-569v-158h569z" />
    <glyph glyph-name="hbar" unicode="&#x127;" horiz-adv-x="1361" 
d="M883 1057q196 0 290.5 -113t94.5 -321v-623h-353v563q0 209 -178 209q-223 0 -223 -291v-481h-352v1141h-162v184h162v109h352v-109h352v-184h-352v-307q112 223 369 223z" />
    <glyph glyph-name="Imacron" unicode="&#x12a;" horiz-adv-x="1060" 
d="M104 1706h850v-205h-850v205zM111 1077v285h839v-285h-239v-792h239v-285h-839v285h239v792h-239z" />
    <glyph glyph-name="imacron" unicode="&#x12b;" horiz-adv-x="563" 
d="M-113 1362h785v-191h-785v191zM104 0v1024h353v-1024h-353z" />
    <glyph glyph-name="Iogonek" unicode="&#x12e;" horiz-adv-x="1060" 
d="M954 -180l4 -213q-52 -25 -139 -25q-133 0 -217 71.5t-84 188.5q0 85 43 158h-450v285h239v792h-239v285h839v-285h-239v-792h239v-285h-207q-14 -32 -14 -72q0 -58 37 -90.5t88 -32.5q54 0 100 15z" />
    <glyph glyph-name="iogonek" unicode="&#x12f;" horiz-adv-x="563" 
d="M463 1362v-213h-365v213h365zM485 -180l4 -213q-52 -25 -139 -25q-133 0 -217 71.5t-84 188.5q0 99 55 178v1004h353v-1024h-183q-14 -32 -14 -72q0 -58 37 -90.5t88 -32.5q53 0 100 15z" />
    <glyph glyph-name="Idotaccent" unicode="&#x130;" horiz-adv-x="1060" 
d="M713 1706v-215h-365v215h365zM950 1077h-239v-792h239v-285h-839v285h239v792h-239v285h839v-285z" />
    <glyph glyph-name="dotlessi" unicode="&#x131;" horiz-adv-x="563" 
d="M104 0v1024h353v-1024h-353z" />
    <glyph glyph-name="uni0136" unicode="&#x136;" horiz-adv-x="1480" 
d="M913 784l523 -766v-18h-432l-330 518l-203 -223v-295h-360v1362h360v-602l496 602h467zM582 -387v291h315v-445q0 -53 -10 -91.5t-35 -70.5t-73 -48.5t-120 -16.5h-77v180h120v201h-120z" />
    <glyph glyph-name="uni0137" unicode="&#x137;" horiz-adv-x="1280" 
d="M825 586l459 -586h-416l-266 367l-145 -142v-225h-353v1434h353v-871q49 72 108 144l283 317h416v-8zM483 -387v291h316v-445q0 -53 -10 -91.5t-35 -70.5t-73 -48.5t-120 -16.5h-78v180h121v201h-121z" />
    <glyph glyph-name="Lacute" unicode="&#x139;" horiz-adv-x="1136" 
d="M545 1735l61 -215l-602 -43l-22 86zM475 285h612v-285h-976v1362h364v-1077z" />
    <glyph glyph-name="lacute" unicode="&#x13a;" horiz-adv-x="563" 
d="M594 1591l-602 -43l-23 86l563 172zM104 0v1434h353v-1434h-353z" />
    <glyph glyph-name="uni013B" unicode="&#x13b;" horiz-adv-x="1136" 
d="M475 285h612v-285h-976v1362h364v-1077zM420 -387v291h315v-445q0 -111 -50 -169t-187 -58h-78v180h121v201h-121z" />
    <glyph glyph-name="uni013C" unicode="&#x13c;" horiz-adv-x="563" 
d="M104 0v1434h353v-1434h-353zM123 -387v291h315v-445q0 -111 -50 -169t-187 -58h-78v180h121v201h-121z" />
    <glyph glyph-name="Lcaron" unicode="&#x13d;" horiz-adv-x="1136" 
d="M895 1137h-229l-29 569h287zM475 285h612v-285h-976v1362h364v-1077z" />
    <glyph glyph-name="lcaron" unicode="&#x13e;" horiz-adv-x="944" 
d="M612 1706h287l-29 -569h-231zM104 0v1434h353v-1434h-353z" />
    <glyph glyph-name="Lslash" unicode="&#x141;" horiz-adv-x="1306" 
d="M645 285h610v-285h-974v498l-228 -88v268l228 88v596h364v-453l344 135v-268l-344 -135v-356z" />
    <glyph glyph-name="lslash" unicode="&#x142;" horiz-adv-x="950" 
d="M897 1024v-268l-246 -94v-662h-352v524l-246 -94v268l246 95v641h352v-504z" />
    <glyph glyph-name="Nacute" unicode="&#x143;" horiz-adv-x="1601" 
d="M1114 1520l-602 -43l-20 86l561 172zM1147 1362h344v-1362h-592l-379 889q-33 74 -65 192v-1081h-344v1362h591l383 -907q31 -72 62 -176v1083z" />
    <glyph glyph-name="nacute" unicode="&#x144;" horiz-adv-x="1304" 
d="M965 1180l-600 -43l-23 84l563 172zM825 1057q196 0 290.5 -113t94.5 -321v-623h-352v563q0 209 -178 209q-223 0 -223 -291v-481h-353v1024h353v-190q112 223 368 223z" />
    <glyph glyph-name="uni0145" unicode="&#x145;" horiz-adv-x="1601" 
d="M1147 1362h344v-1362h-592l-379 889q-33 74 -65 192v-1081h-344v1362h591l383 -907q31 -72 62 -176v1083zM643 -387v291h315v-445q0 -111 -50 -169t-187 -58h-78v180h121v201h-121z" />
    <glyph glyph-name="uni0146" unicode="&#x146;" horiz-adv-x="1304" 
d="M825 1057q196 0 290.5 -113t94.5 -321v-623h-352v563q0 209 -178 209q-223 0 -223 -291v-481h-353v1024h353v-190q112 223 368 223zM496 -387v291h315v-445q0 -53 -10 -91.5t-35 -70.5t-73 -48.5t-120 -16.5h-77v180h120v201h-120z" />
    <glyph glyph-name="Ncaron" unicode="&#x147;" horiz-adv-x="1601" 
d="M881 1464h-158l-262 152l104 115l236 -132l237 132l103 -115zM1147 1362h344v-1362h-592l-379 889q-33 74 -65 192v-1081h-344v1362h591l383 -907q31 -72 62 -176v1083z" />
    <glyph glyph-name="ncaron" unicode="&#x148;" horiz-adv-x="1304" 
d="M733 1141h-158l-262 151l105 115l235 -131l238 131l102 -115zM825 1057q196 0 290.5 -113t94.5 -321v-623h-352v563q0 209 -178 209q-223 0 -223 -291v-481h-353v1024h353v-190q112 223 368 223z" />
    <glyph glyph-name="Eng" unicode="&#x14a;" horiz-adv-x="1601" 
d="M1147 1362h344v-1415q0 -207 -92.5 -305.5t-317.5 -98.5h-188v281h254v176h-248l-379 889q-33 74 -65 192v-1081h-344v1362h591l383 -907q31 -72 62 -176v1083z" />
    <glyph glyph-name="eng" unicode="&#x14b;" horiz-adv-x="1304" 
d="M819 1057q196 0 293.5 -113.5t97.5 -320.5v-631q0 -102 -20.5 -174t-67.5 -124.5t-127 -78t-196 -25.5h-187v279h246v694q0 209 -182 209q-105 0 -162 -72t-57 -219v-481h-353v1024h353v-186q109 219 362 219z" />
    <glyph glyph-name="Omacron" unicode="&#x14c;" horiz-adv-x="1628" 
d="M389 1706h850v-205h-850v205zM813 -33q-156 0 -281.5 39.5t-208 106t-138 159t-79.5 194t-24 214.5q0 111 24 212t79.5 194.5t138 161.5t208 108.5t281.5 40.5q157 0 283.5 -40.5t209 -109t138 -162t79 -194t23.5 -211.5q0 -93 -17 -178.5t-52.5 -167t-94.5 -147
t-138 -115.5t-189 -77.5t-242 -27.5zM459 680q0 -105 16 -178.5t55 -130t109 -84t174 -27.5q105 0 175.5 27.5t109.5 84t55 130t16 178.5q0 107 -16 181t-55 130.5t-109.5 83.5t-175.5 27q-104 0 -173.5 -27t-109 -83.5t-55.5 -131t-16 -180.5z" />
    <glyph glyph-name="omacron" unicode="&#x14d;" horiz-adv-x="1306" 
d="M260 1362h784v-191h-784v191zM653 -33q-126 0 -227 30.5t-167 81.5t-110 122t-62.5 148t-18.5 163q0 85 18.5 162t62.5 148t110 122.5t167 82t227 30.5t227.5 -30.5t167.5 -82t110.5 -122.5t63.5 -148t19 -162t-19 -162t-63.5 -148t-110.5 -122.5t-167.5 -82
t-227.5 -30.5zM420 512q0 -152 52.5 -211t180.5 -59t181 59t53 211t-53 211t-181 59t-180.5 -59t-52.5 -211z" />
    <glyph glyph-name="Ohungarumlaut" unicode="&#x150;" horiz-adv-x="1628" 
d="M1260 1624l-351 -178l-61 63l258 277zM805 1612l-352 -180l-60 65l258 275zM813 -33q-156 0 -281.5 39.5t-208 106t-138 159t-79.5 194t-24 214.5q0 111 24 212t79.5 194.5t138 161.5t208 108.5t281.5 40.5q157 0 283.5 -40.5t209 -109t138 -162t79 -194t23.5 -211.5
q0 -93 -17 -178.5t-52.5 -167t-94.5 -147t-138 -115.5t-189 -77.5t-242 -27.5zM459 680q0 -105 16 -178.5t55 -130t109 -84t174 -27.5q105 0 175.5 27.5t109.5 84t55 130t16 178.5q0 107 -16 181t-55 130.5t-109.5 83.5t-175.5 27q-104 0 -173.5 -27t-109 -83.5t-55.5 -131
t-16 -180.5z" />
    <glyph glyph-name="ohungarumlaut" unicode="&#x151;" horiz-adv-x="1306" 
d="M1141 1315l-353 -180l-59 65l258 275zM686 1300l-352 -178l-60 64l258 274zM653 -33q-126 0 -227 30.5t-167 81.5t-110 122t-62.5 148t-18.5 163q0 85 18.5 162t62.5 148t110 122.5t167 82t227 30.5t227.5 -30.5t167.5 -82t110.5 -122.5t63.5 -148t19 -162t-19 -162
t-63.5 -148t-110.5 -122.5t-167.5 -82t-227.5 -30.5zM420 512q0 -152 52.5 -211t180.5 -59t181 59t53 211t-53 211t-181 59t-180.5 -59t-52.5 -211z" />
    <glyph glyph-name="OE" unicode="&#x152;" horiz-adv-x="2392" 
d="M1565 285h735v-285h-1096v178q-136 -211 -459 -211q-137 0 -249 39.5t-187.5 106.5t-127.5 158.5t-75.5 194t-23.5 214.5q0 110 23.5 212t75.5 195t127.5 161t188 108.5t248.5 40.5q322 0 459 -215v180h1090v-285h-729v-252h667v-264h-667v-276zM813 260
q105 0 175.5 27.5t109.5 84t55 130t16 178.5q0 107 -16 181t-55 130.5t-109.5 83.5t-175.5 27q-104 0 -173.5 -27t-109 -83.5t-55.5 -131t-16 -180.5q0 -105 16 -178.5t55 -130t109 -84t174 -27.5z" />
    <glyph glyph-name="oe" unicode="&#x153;" horiz-adv-x="2002" 
d="M1397 203q146 0 196 106h342q-13 -70 -47.5 -128.5t-95.5 -108t-160 -77.5t-227 -28q-253 0 -379 123q-126 -123 -387 -123q-122 0 -220 30.5t-162.5 81.5t-108 122t-62 148t-18.5 163q0 108 31 201.5t96 172.5t179 125t265 46q254 0 389 -152q139 152 391 152
q140 0 243.5 -45t162.5 -123.5t86.5 -173.5t27.5 -207q0 -52 -6 -86h-768q14 -118 72 -168.5t160 -50.5zM1395 825q-100 0 -154.5 -45.5t-71.5 -152.5h437q-18 198 -211 198zM653 242q128 0 181 59t53 211t-53 211t-181 59t-180.5 -59t-52.5 -211t52.5 -211t180.5 -59z" />
    <glyph glyph-name="Racute" unicode="&#x154;" horiz-adv-x="1400" 
d="M1012 1520l-602 -43l-21 86l561 172zM1286 322v-76q0 -23 0.5 -43.5t2.5 -41t3 -33.5t4.5 -34.5t5 -29.5t6 -32.5t5.5 -31.5h-365q-24 82 -24 246v55q0 95 -55 144t-146 49h-248v-494h-364v1362h753q223 0 340 -103t117 -274q0 -142 -81.5 -237.5t-213.5 -122.5
q57 -13 100.5 -33t81.5 -54t58 -88.5t20 -127.5zM768 752q92 0 134 42.5t42 131.5q0 80 -42 119.5t-132 39.5h-295v-333h293z" />
    <glyph glyph-name="racute" unicode="&#x155;" horiz-adv-x="860" 
d="M741 1180l-600 -43l-22 84l563 172zM737 1040h86v-342h-125q-128 0 -184.5 -66.5t-56.5 -221.5v-410h-353v1024h342v-209q32 113 101 169t190 56z" />
    <glyph glyph-name="uni0156" unicode="&#x156;" horiz-adv-x="1400" 
d="M1286 322v-76q0 -23 0.5 -43.5t2.5 -41t3 -33.5t4.5 -34.5t5 -29.5t6 -32.5t5.5 -31.5h-365q-24 82 -24 246v55q0 95 -55 144t-146 49h-248v-494h-364v1362h753q223 0 340 -103t117 -274q0 -142 -81.5 -237.5t-213.5 -122.5q57 -13 100.5 -33t81.5 -54t58 -88.5
t20 -127.5zM768 752q92 0 134 42.5t42 131.5q0 80 -42 119.5t-132 39.5h-295v-333h293zM543 -387v291h315v-445q0 -111 -50 -169t-187 -58h-78v180h121v201h-121z" />
    <glyph glyph-name="uni0157" unicode="&#x157;" horiz-adv-x="860" 
d="M737 1040h86v-342h-125q-128 0 -184.5 -66.5t-56.5 -221.5v-410h-353v1024h342v-209q32 113 101 169t190 56zM123 -387v291h315v-445q0 -111 -50 -169t-187 -58h-78v180h121v201h-121z" />
    <glyph glyph-name="Rcaron" unicode="&#x158;" horiz-adv-x="1400" 
d="M780 1464h-157l-263 152l105 115l235 -132l238 132l102 -115zM1286 322v-76q0 -23 0.5 -43.5t2.5 -41t3 -33.5t4.5 -34.5t5 -29.5t6 -32.5t5.5 -31.5h-365q-24 82 -24 246v55q0 95 -55 144t-146 49h-248v-494h-364v1362h753q223 0 340 -103t117 -274q0 -142 -81.5 -237.5
t-213.5 -122.5q57 -13 100.5 -33t81.5 -54t58 -88.5t20 -127.5zM768 752q92 0 134 42.5t42 131.5q0 80 -42 119.5t-132 39.5h-295v-333h293z" />
    <glyph glyph-name="rcaron" unicode="&#x159;" horiz-adv-x="860" 
d="M510 1141h-158l-262 151l105 115l235 -131l238 131l102 -115zM737 1040h86v-342h-125q-128 0 -184.5 -66.5t-56.5 -221.5v-410h-353v1024h342v-209q32 113 101 169t190 56z" />
    <glyph glyph-name="Sacute" unicode="&#x15a;" horiz-adv-x="1374" 
d="M1001 1520l-602 -43l-20 86l561 172zM72 442h350q8 -94 74.5 -154.5t199.5 -60.5q240 0 240 156q0 128 -156 149l-297 33q-186 22 -286.5 125t-100.5 275q0 198 149.5 315t436.5 117q153 0 268.5 -34.5t186 -96.5t107.5 -140t44 -172h-356q-11 84 -74.5 132.5
t-175.5 48.5q-104 0 -162.5 -39t-58.5 -107q0 -116 145 -133l260 -27q222 -22 328 -125t106 -290q0 -212 -146 -330.5t-464 -118.5q-131 0 -235 26.5t-172.5 71t-115.5 106.5t-69 129t-26 144z" />
    <glyph glyph-name="sacute" unicode="&#x15b;" horiz-adv-x="1122" 
d="M870 1180l-600 -43l-22 84l563 172zM45 330h320q6 -67 60 -109.5t148 -42.5q160 0 160 96q0 45 -27.5 72t-109.5 37l-217 25q-149 17 -227 95.5t-78 211.5q0 118 65 196.5t170.5 112t247.5 33.5q146 0 251.5 -33t172 -109.5t76.5 -193.5h-320q-16 127 -178 127
q-85 0 -124.5 -27t-39.5 -73q0 -80 121 -93l211 -20q180 -19 261 -95t81 -225q0 -348 -502 -348q-135 0 -237.5 29.5t-162 82t-89.5 115t-33 136.5z" />
    <glyph glyph-name="Scedilla" unicode="&#x15e;" horiz-adv-x="1374" 
d="M1300 414q0 -382 -444 -439l33 -159q18 -89 -27.5 -149t-142.5 -60h-234v215h164l-35 145q-114 7 -205 37t-151 74.5t-101.5 104.5t-61 123.5t-23.5 135.5h350q8 -94 74.5 -154.5t199.5 -60.5q240 0 240 156q0 128 -156 149l-297 33q-186 22 -286.5 125t-100.5 275
q0 198 149.5 315t436.5 117q153 0 268.5 -34.5t186 -96.5t107.5 -140t44 -172h-356q-11 84 -74.5 132.5t-175.5 48.5q-104 0 -162.5 -39t-58.5 -107q0 -116 145 -133l260 -27q222 -22 328 -125t106 -290z" />
    <glyph glyph-name="scedilla" unicode="&#x15f;" horiz-adv-x="1122" 
d="M1069 315q0 -286 -344 -338l35 -161q18 -89 -27.5 -149t-142.5 -60h-234v215h164l-35 147q-220 18 -326.5 117.5t-113.5 243.5h320q6 -67 60 -109.5t148 -42.5q160 0 160 96q0 45 -27.5 72t-109.5 37l-217 25q-149 17 -227 95.5t-78 211.5q0 118 65 196.5t170.5 112
t247.5 33.5q146 0 251.5 -33t172 -109.5t76.5 -193.5h-320q-16 127 -178 127q-85 0 -124.5 -27t-39.5 -73q0 -80 121 -93l211 -20q180 -19 261 -95t81 -225z" />
    <glyph glyph-name="Scaron" unicode="&#x160;" horiz-adv-x="1374" 
d="M348 1616l105 115l235 -132l238 132l102 -115l-260 -152h-158zM72 442h350q8 -94 74.5 -154.5t199.5 -60.5q240 0 240 156q0 128 -156 149l-297 33q-186 22 -286.5 125t-100.5 275q0 198 149.5 315t436.5 117q153 0 268.5 -34.5t186 -96.5t107.5 -140t44 -172h-356
q-11 84 -74.5 132.5t-175.5 48.5q-104 0 -162.5 -39t-58.5 -107q0 -116 145 -133l260 -27q222 -22 328 -125t106 -290q0 -212 -146 -330.5t-464 -118.5q-131 0 -235 26.5t-172.5 71t-115.5 106.5t-69 129t-26 144z" />
    <glyph glyph-name="scaron" unicode="&#x161;" horiz-adv-x="1122" 
d="M219 1292l105 115l235 -131l238 131l102 -115l-260 -151h-158zM45 330h320q6 -67 60 -109.5t148 -42.5q160 0 160 96q0 45 -27.5 72t-109.5 37l-217 25q-149 17 -227 95.5t-78 211.5q0 118 65 196.5t170.5 112t247.5 33.5q146 0 251.5 -33t172 -109.5t76.5 -193.5h-320
q-16 127 -178 127q-85 0 -124.5 -27t-39.5 -73q0 -80 121 -93l211 -20q180 -19 261 -95t81 -225q0 -348 -502 -348q-135 0 -237.5 29.5t-162 82t-89.5 115t-33 136.5z" />
    <glyph glyph-name="uni0162" unicode="&#x162;" horiz-adv-x="1363" 
d="M864 1077v-1077h-24l39 -182q18 -89 -27.5 -149t-142.5 -60h-234v215h164l-41 176h-96v1077h-439v285h1237v-285h-436z" />
    <glyph glyph-name="uni0163" unicode="&#x163;" horiz-adv-x="880" 
d="M827 760h-278v-481h246v-279h-154l39 -184q18 -89 -27.5 -149t-142.5 -60h-234v215h164l-49 211q-104 40 -149 131.5t-45 238.5v357h-181v164l209 92l146 256h178v-248h278v-264z" />
    <glyph glyph-name="Tcaron" unicode="&#x164;" horiz-adv-x="1363" 
d="M764 1464h-158l-262 152l105 115l235 -132l238 132l102 -115zM1300 1362v-285h-436v-1077h-362v1077h-439v285h1237z" />
    <glyph glyph-name="tcaron" unicode="&#x165;" horiz-adv-x="993" 
d="M653 1706h287l-27 -569h-231zM608 0q-227 0 -319 98t-92 305v357h-181v164l209 92l146 256h178v-248h278v-264h-278v-481h246v-279h-187z" />
    <glyph glyph-name="Tbar" unicode="&#x166;" horiz-adv-x="1363" 
d="M1300 1077h-436v-303h436v-285h-436v-489h-362v489h-439v285h439v303h-439v285h1237v-285z" />
    <glyph glyph-name="tbar" unicode="&#x167;" horiz-adv-x="880" 
d="M827 760h-278v-113h278v-203h-278v-165h246v-279h-187q-227 0 -319 98t-92 305v41h-181v203h181v113h-181v164l209 92l146 256h178v-248h278v-264z" />
    <glyph glyph-name="Umacron" unicode="&#x16a;" horiz-adv-x="1472" 
d="M311 1706h850v-205h-850v205zM102 518v844h363v-797q0 -173 63 -238t207 -65q146 0 210.5 65.5t64.5 237.5v797h360v-844q0 -272 -159.5 -411.5t-475.5 -139.5q-314 0 -473.5 138.5t-159.5 412.5z" />
    <glyph glyph-name="umacron" unicode="&#x16b;" horiz-adv-x="1304" 
d="M1040 1362v-191h-784v191h784zM848 1024h352v-1024h-352v186q-109 -219 -363 -219q-196 0 -292.5 113.5t-96.5 320.5v623h353v-561q0 -211 180 -211q105 0 162 73t57 218v481z" />
    <glyph glyph-name="Uring" unicode="&#x16e;" horiz-adv-x="1472" 
d="M737 1430q-112 0 -176.5 68t-64.5 169q0 98 65 166t176 68t176.5 -68t65.5 -166q0 -101 -65 -169t-177 -68zM657 1667q0 -40 23.5 -62t56.5 -22t56.5 22t23.5 62t-23 61t-57 21t-57 -21t-23 -61zM102 518v844h363v-797q0 -173 63 -238t207 -65q146 0 210.5 65.5
t64.5 237.5v797h360v-844q0 -272 -159.5 -411.5t-475.5 -139.5q-314 0 -473.5 138.5t-159.5 412.5z" />
    <glyph glyph-name="uring" unicode="&#x16f;" horiz-adv-x="1304" 
d="M649 1128q-84 0 -134 53t-50 128t49.5 126.5t134.5 51.5q84 0 134.5 -51.5t50.5 -126.5t-51 -128t-134 -53zM649 1374q-27 0 -44 -16.5t-17 -48.5q0 -31 17.5 -48.5t43.5 -17.5t44 17.5t18 48.5q0 32 -17.5 48.5t-44.5 16.5zM848 1024h352v-1024h-352v186
q-109 -219 -363 -219q-196 0 -292.5 113.5t-96.5 320.5v623h353v-561q0 -211 180 -211q105 0 162 73t57 218v481z" />
    <glyph glyph-name="Uhungarumlaut" unicode="&#x170;" horiz-adv-x="1472" 
d="M1182 1624l-351 -178l-61 63l258 277zM727 1612l-352 -180l-60 65l258 275zM102 518v844h363v-797q0 -173 63 -238t207 -65q146 0 210.5 65.5t64.5 237.5v797h360v-844q0 -272 -159.5 -411.5t-475.5 -139.5q-314 0 -473.5 138.5t-159.5 412.5z" />
    <glyph glyph-name="uhungarumlaut" unicode="&#x171;" horiz-adv-x="1304" 
d="M1137 1315l-353 -180l-59 65l258 275zM682 1300l-352 -178l-60 64l258 274zM848 1024h352v-1024h-352v186q-109 -219 -363 -219q-196 0 -292.5 113.5t-96.5 320.5v623h353v-561q0 -211 180 -211q105 0 162 73t57 218v481z" />
    <glyph glyph-name="Uogonek" unicode="&#x172;" horiz-adv-x="1472" 
d="M1370 518q0 -317 -215 -452q-55 -64 -55 -138q0 -58 37 -90.5t88 -32.5q53 0 100 15l4 -213q-52 -25 -139 -25q-133 0 -217 71.5t-84 188.5q0 78 33 140q-86 -15 -187 -15q-314 0 -473.5 138.5t-159.5 412.5v844h363v-797q0 -173 63 -238t207 -65q146 0 210.5 65.5
t64.5 237.5v797h360v-844z" />
    <glyph glyph-name="uogonek" unicode="&#x173;" horiz-adv-x="1304" 
d="M1223 -180l4 -213q-52 -25 -140 -25q-133 0 -217 71.5t-84 188.5q0 103 62 189v155q-109 -219 -363 -219q-196 0 -292.5 113.5t-96.5 320.5v623h353v-561q0 -211 180 -211q105 0 162 73t57 218v481h352v-1024h-188q-15 -34 -15 -72q0 -58 37 -90.5t88 -32.5q54 0 101 15z
" />
    <glyph glyph-name="Wcircumflex" unicode="&#x174;" horiz-adv-x="2271" 
d="M1137 1616l-236 -131l-104 114l262 152h158l260 -152l-103 -114zM1833 1362h354l-233 -1362h-613l-206 1073l-205 -1073h-611l-235 1362h354l197 -1143l231 1143h537l233 -1149z" />
    <glyph glyph-name="wcircumflex" unicode="&#x175;" horiz-adv-x="1888" 
d="M946 1249l-235 -131l-105 115l262 151h158l260 -151l-102 -115zM1538 1024h328l-252 -1024h-488l-180 674l-182 -674h-490l-249 1024h354l170 -756l227 756h371l227 -758z" />
    <glyph glyph-name="Ycircumflex" unicode="&#x176;" horiz-adv-x="1470" 
d="M735 1616l-235 -131l-105 114l262 152h158l260 -152l-102 -114zM1026 1362h399l-507 -969v-393h-363v393l-512 969h406l194 -447q55 -131 90 -231q42 112 92 231z" />
    <glyph glyph-name="ycircumflex" unicode="&#x177;" horiz-adv-x="1208" 
d="M604 1249l-235 -131l-105 115l262 151h158l260 -151l-102 -115zM870 1024h334l-325 -1026q-26 -85 -53.5 -145t-68.5 -112.5t-93.5 -84t-125.5 -49t-169 -17.5h-295v279h440l53 160h-223l-332 995h359l198 -594l60 -190l53 190z" />
    <glyph glyph-name="Ydieresis" unicode="&#x178;" horiz-adv-x="1470" 
d="M676 1706v-215h-299v215h299zM1094 1706v-215h-299v215h299zM1026 1362h399l-507 -969v-393h-363v393l-512 969h406l194 -447q55 -131 90 -231q42 112 92 231z" />
    <glyph glyph-name="Zacute" unicode="&#x179;" horiz-adv-x="1409" 
d="M1018 1520l-602 -43l-21 86l561 172zM573 285h766v-285h-1235v285l758 792h-737v285h1208v-285z" />
    <glyph glyph-name="zacute" unicode="&#x17a;" horiz-adv-x="1124" 
d="M891 1180l-600 -43l-23 84l563 172zM502 256h553v-256h-983v256l557 512h-551v256h973v-256z" />
    <glyph glyph-name="Zdotaccent" unicode="&#x17b;" horiz-adv-x="1409" 
d="M889 1706v-215h-365v215h365zM573 285h766v-285h-1235v285l758 792h-737v285h1208v-285z" />
    <glyph glyph-name="zdotaccent" unicode="&#x17c;" horiz-adv-x="1124" 
d="M762 1362v-213h-365v213h365zM502 256h553v-256h-983v256l557 512h-551v256h973v-256z" />
    <glyph glyph-name="Zcaron" unicode="&#x17d;" horiz-adv-x="1409" 
d="M786 1464h-157l-262 152l104 115l236 -132l237 132l103 -115zM573 285h766v-285h-1235v285l758 792h-737v285h1208v-285z" />
    <glyph glyph-name="zcaron" unicode="&#x17e;" horiz-adv-x="1124" 
d="M659 1141h-157l-262 151l104 115l236 -131l237 131l103 -115zM502 256h553v-256h-983v256l557 512h-551v256h973v-256z" />
    <glyph glyph-name="florin" unicode="&#x192;" horiz-adv-x="1292" 
d="M1128 1155h-305v-401h260v-265h-260v-497q0 -204 -94.5 -303t-320.5 -99h-244v279h307v620h-260v265h260v278q0 205 94.5 303.5t321.5 98.5h241v-279z" />
    <glyph glyph-name="uni01CD" unicode="&#x1cd;" horiz-adv-x="1597" 
d="M881 1464h-158l-262 152l104 115l236 -132l237 132l103 -115zM1180 0l-88 256h-586l-88 -256h-361l465 1362h555l465 -1362h-362zM598 528h401l-200 584z" />
    <glyph glyph-name="uni01CE" unicode="&#x1ce;" horiz-adv-x="1208" 
d="M272 1292l105 115l235 -131l238 131l102 -115l-260 -151h-157zM418 -27q-154 0 -247 81t-93 216q0 65 15 113t53.5 90t108 71t173.5 46l231 41q69 12 94 32.5t25 61.5q0 49 -34.5 73.5t-118.5 24.5q-182 0 -185 -139h-342q8 167 146.5 270t376.5 103q240 0 361.5 -95
t121.5 -272v-407q0 -157 18 -283h-303q-16 94 -16 213q-39 -115 -136 -177.5t-249 -62.5zM551 203q103 0 165 72t62 206v39q-23 -17 -51.5 -30t-48 -19t-60.5 -16l-59 -15q-74 -19 -104.5 -48t-30.5 -81t35.5 -80t91.5 -28z" />
    <glyph glyph-name="uni01CF" unicode="&#x1cf;" horiz-adv-x="1060" 
d="M610 1464h-157l-263 152l105 115l235 -132l238 132l102 -115zM950 1077h-239v-792h239v-285h-839v285h239v792h-239v285h839v-285z" />
    <glyph glyph-name="uni01D0" unicode="&#x1d0;" horiz-adv-x="563" 
d="M-59 1292l104 115l236 -131l237 131l103 -115l-261 -151h-157zM104 0v1024h353v-1024h-353z" />
    <glyph glyph-name="uni01D1" unicode="&#x1d1;" horiz-adv-x="1628" 
d="M473 1616l105 115l235 -132l238 132l102 -115l-260 -152h-158zM813 -33q-156 0 -281.5 39.5t-208 106t-138 159t-79.5 194t-24 214.5q0 111 24 212t79.5 194.5t138 161.5t208 108.5t281.5 40.5q157 0 283.5 -40.5t209 -109t138 -162t79 -194t23.5 -211.5
q0 -93 -17 -178.5t-52.5 -167t-94.5 -147t-138 -115.5t-189 -77.5t-242 -27.5zM459 680q0 -105 16 -178.5t55 -130t109 -84t174 -27.5q105 0 175.5 27.5t109.5 84t55 130t16 178.5q0 107 -16 181t-55 130.5t-109.5 83.5t-175.5 27q-104 0 -173.5 -27t-109 -83.5t-55.5 -131
t-16 -180.5z" />
    <glyph glyph-name="uni01D2" unicode="&#x1d2;" horiz-adv-x="1306" 
d="M313 1292l105 115l235 -131l238 131l102 -115l-260 -151h-158zM653 -33q-126 0 -227 30.5t-167 81.5t-110 122t-62.5 148t-18.5 163q0 85 18.5 162t62.5 148t110 122.5t167 82t227 30.5t227.5 -30.5t167.5 -82t110.5 -122.5t63.5 -148t19 -162t-19 -162t-63.5 -148
t-110.5 -122.5t-167.5 -82t-227.5 -30.5zM420 512q0 -152 52.5 -211t180.5 -59t181 59t53 211t-53 211t-181 59t-180.5 -59t-52.5 -211z" />
    <glyph glyph-name="uni01D3" unicode="&#x1d3;" horiz-adv-x="1472" 
d="M395 1616l105 115l235 -132l238 132l102 -115l-260 -152h-158zM102 518v844h363v-797q0 -173 63 -238t207 -65q146 0 210.5 65.5t64.5 237.5v797h360v-844q0 -272 -159.5 -411.5t-475.5 -139.5q-314 0 -473.5 138.5t-159.5 412.5z" />
    <glyph glyph-name="uni01D4" unicode="&#x1d4;" horiz-adv-x="1304" 
d="M729 1141h-158l-262 151l105 115l235 -131l238 131l102 -115zM848 1024h352v-1024h-352v186q-109 -219 -363 -219q-196 0 -292.5 113.5t-96.5 320.5v623h353v-561q0 -211 180 -211q105 0 162 73t57 218v481z" />
    <glyph glyph-name="uni01D5" unicode="&#x1d5;" horiz-adv-x="1472" 
d="M311 2050h850v-205h-850v205zM377 1491v215h299v-215h-299zM795 1491v215h299v-215h-299zM102 518v844h363v-797q0 -173 63 -238t207 -65q146 0 210.5 65.5t64.5 237.5v797h360v-844q0 -272 -159.5 -411.5t-475.5 -139.5q-314 0 -473.5 138.5t-159.5 412.5z" />
    <glyph glyph-name="uni01D6" unicode="&#x1d6;" horiz-adv-x="1304" 
d="M1040 1700v-191h-784v191h784zM575 1149h-299v213h299v-213zM1020 1149h-299v213h299v-213zM848 1024h352v-1024h-352v186q-109 -219 -363 -219q-196 0 -292.5 113.5t-96.5 320.5v623h353v-561q0 -211 180 -211q105 0 162 73t57 218v481z" />
    <glyph glyph-name="uni01D7" unicode="&#x1d7;" horiz-adv-x="1472" 
d="M1049 1864l-603 -43l-20 86l561 172zM377 1491v215h299v-215h-299zM795 1491v215h299v-215h-299zM102 518v844h363v-797q0 -173 63 -238t207 -65q146 0 210.5 65.5t64.5 237.5v797h360v-844q0 -272 -159.5 -411.5t-475.5 -139.5q-314 0 -473.5 138.5t-159.5 412.5z" />
    <glyph glyph-name="uni01D8" unicode="&#x1d8;" horiz-adv-x="1304" 
d="M961 1518l-601 -43l-22 84l563 172zM575 1362v-213h-299v213h299zM721 1149v213h299v-213h-299zM848 1024h352v-1024h-352v186q-109 -219 -363 -219q-196 0 -292.5 113.5t-96.5 320.5v623h353v-561q0 -211 180 -211q105 0 162 73t57 218v481z" />
    <glyph glyph-name="uni01D9" unicode="&#x1d9;" horiz-adv-x="1472" 
d="M395 1960l105 115l235 -131l238 131l102 -115l-260 -152h-158zM377 1491v215h299v-215h-299zM795 1491v215h299v-215h-299zM102 518v844h363v-797q0 -173 63 -238t207 -65q146 0 210.5 65.5t64.5 237.5v797h360v-844q0 -272 -159.5 -411.5t-475.5 -139.5
q-314 0 -473.5 138.5t-159.5 412.5z" />
    <glyph glyph-name="uni01DA" unicode="&#x1da;" horiz-adv-x="1304" 
d="M729 1479h-158l-262 151l105 115l235 -131l238 131l102 -115zM575 1362v-213h-299v213h299zM721 1149v213h299v-213h-299zM848 1024h352v-1024h-352v186q-109 -219 -363 -219q-196 0 -292.5 113.5t-96.5 320.5v623h353v-561q0 -211 180 -211q105 0 162 73t57 218v481z
" />
    <glyph glyph-name="uni01DB" unicode="&#x1db;" horiz-adv-x="1472" 
d="M426 1864l59 215l564 -172l-23 -86zM377 1491v215h299v-215h-299zM795 1491v215h299v-215h-299zM102 518v844h363v-797q0 -173 63 -238t207 -65q146 0 210.5 65.5t64.5 237.5v797h360v-844q0 -272 -159.5 -411.5t-475.5 -139.5q-314 0 -473.5 138.5t-159.5 412.5z" />
    <glyph glyph-name="uni01DC" unicode="&#x1dc;" horiz-adv-x="1304" 
d="M963 1559l-23 -84l-600 43l59 213zM575 1362v-213h-299v213h299zM721 1149v213h299v-213h-299zM848 1024h352v-1024h-352v186q-109 -219 -363 -219q-196 0 -292.5 113.5t-96.5 320.5v623h353v-561q0 -211 180 -211q105 0 162 73t57 218v481z" />
    <glyph glyph-name="uni0218" unicode="&#x218;" horiz-adv-x="1374" 
d="M72 442h350q8 -94 74.5 -154.5t199.5 -60.5q240 0 240 156q0 128 -156 149l-297 33q-186 22 -286.5 125t-100.5 275q0 198 149.5 315t436.5 117q153 0 268.5 -34.5t186 -96.5t107.5 -140t44 -172h-356q-11 84 -74.5 132.5t-175.5 48.5q-104 0 -162.5 -39t-58.5 -107
q0 -116 145 -133l260 -27q222 -22 328 -125t106 -290q0 -212 -146 -330.5t-464 -118.5q-131 0 -235 26.5t-172.5 71t-115.5 106.5t-69 129t-26 144zM530 -387v291h316v-445q0 -53 -10 -91.5t-35 -70.5t-73 -48.5t-120 -16.5h-78v180h121v201h-121z" />
    <glyph glyph-name="uni0219" unicode="&#x219;" horiz-adv-x="1122" 
d="M45 330h320q6 -67 60 -109.5t148 -42.5q160 0 160 96q0 45 -27.5 72t-109.5 37l-217 25q-149 17 -227 95.5t-78 211.5q0 118 65 196.5t170.5 112t247.5 33.5q146 0 251.5 -33t172 -109.5t76.5 -193.5h-320q-16 127 -178 127q-85 0 -124.5 -27t-39.5 -73q0 -80 121 -93
l211 -20q180 -19 261 -95t81 -225q0 -348 -502 -348q-135 0 -237.5 29.5t-162 82t-89.5 115t-33 136.5zM401 -387v291h316v-445q0 -53 -10 -91.5t-35 -70.5t-73 -48.5t-120 -16.5h-78v180h121v201h-121z" />
    <glyph glyph-name="uni021A" unicode="&#x21a;" horiz-adv-x="1363" 
d="M1300 1362v-285h-436v-1077h-362v1077h-439v285h1237zM518 -385v291h316v-445q0 -53 -10 -91.5t-35 -70.5t-73 -48.5t-120 -16.5h-78v180h121v201h-121z" />
    <glyph glyph-name="uni021B" unicode="&#x21b;" horiz-adv-x="880" 
d="M608 0q-227 0 -319 98t-92 305v357h-181v164l209 92l146 256h178v-248h278v-264h-278v-481h246v-279h-187zM322 -387v291h315v-445q0 -53 -10 -91.5t-35 -70.5t-73 -48.5t-120 -16.5h-77v180h120v201h-120z" />
    <glyph glyph-name="uni0237" unicode="&#x237;" horiz-adv-x="577" 
d="M-184 -410v279h307v1155h352v-1032q0 -204 -95 -303t-321 -99h-243z" />
    <glyph glyph-name="circumflex" unicode="&#x2c6;" horiz-adv-x="1228" 
d="M92 1233l262 151h158l260 -151l-102 -115l-238 131l-235 -131z" />
    <glyph glyph-name="caron" unicode="&#x2c7;" horiz-adv-x="1228" 
d="M174 1292l105 115l235 -131l238 131l102 -115l-260 -151h-158z" />
    <glyph glyph-name="breve" unicode="&#x2d8;" horiz-adv-x="1228" 
d="M184 1362h195q3 -42 36 -68t89 -26t90 26t37 68h192q-1 -32 -10.5 -61.5t-32 -59.5t-57 -51.5t-91 -35t-128.5 -13.5t-128.5 13.5t-91 35t-57.5 51.5t-32.5 59.5t-10.5 61.5z" />
    <glyph glyph-name="dotaccent" unicode="&#x2d9;" horiz-adv-x="1228" 
d="M100 1149v213h365v-213h-365z" />
    <glyph glyph-name="ring" unicode="&#x2da;" horiz-adv-x="716" 
d="M358 1128q-84 0 -134 53t-50 128t49.5 126.5t134.5 51.5q84 0 134.5 -51.5t50.5 -126.5t-51 -128t-134 -53zM297 1309q0 -31 17.5 -48.5t43.5 -17.5t44 17.5t18 48.5q0 32 -17.5 48.5t-44.5 16.5t-44 -16.5t-17 -48.5z" />
    <glyph glyph-name="ogonek" unicode="&#x2db;" horiz-adv-x="1228" 
d="M461 -418q-133 0 -217 71.5t-84 188.5q0 103 62.5 188.5t183.5 143.5l83 -51q-118 -87 -118 -195q0 -58 37 -90.5t88 -32.5q54 0 100 15l4 -213q-52 -25 -139 -25z" />
    <glyph glyph-name="tilde" unicode="&#x2dc;" horiz-adv-x="1228" 
d="M745 1135q-62 0 -122.5 25t-107.5 50t-77 25q-55 0 -55 -72v-24h-209v59q0 184 199 184q52 0 101 -15.5t79.5 -34.5t65.5 -34.5t63 -15.5q53 0 53 72v24h209v-53q0 -96 -53.5 -143t-145.5 -47z" />
    <glyph glyph-name="hungarumlaut" unicode="&#x2dd;" horiz-adv-x="1228" 
d="M1032 1315l-352 -180l-59 65l258 275zM578 1300l-353 -178l-59 64l258 274z" />
    <glyph glyph-name="gravecomb" unicode="&#x300;" 
d="M-682 1180l59 213l564 -172l-23 -84z" />
    <glyph glyph-name="acutecomb" unicode="&#x301;" 
d="M-63 1180l-601 -43l-22 84l563 172z" />
    <glyph glyph-name="uni0302" unicode="&#x302;" 
d="M-772 1233l262 151h158l260 -151l-103 -115l-237 131l-236 -131z" />
    <glyph glyph-name="tildecomb" unicode="&#x303;" 
d="M-369 1135q-62 0 -122.5 25t-107.5 50t-77 25q-55 0 -55 -72v-24h-209v59q0 184 199 184q52 0 101 -15.5t79.5 -34.5t65.5 -34.5t63 -15.5q53 0 53 72v24h209v-53q0 -96 -53.5 -143t-145.5 -47z" />
    <glyph glyph-name="uni0304" unicode="&#x304;" 
d="M-967 1362h785v-191h-785v191z" />
    <glyph glyph-name="uni0306" unicode="&#x306;" 
d="M-856 1362h194q3 -42 36 -68t89 -26t90 26t37 68h193q-1 -32 -10.5 -61.5t-32.5 -59.5t-57.5 -51.5t-91 -35t-128.5 -13.5t-128.5 13.5t-91 35t-57 51.5t-32 59.5t-10.5 61.5z" />
    <glyph glyph-name="uni0307" unicode="&#x307;" 
d="M-465 1149v213h365v-213h-365z" />
    <glyph glyph-name="uni0308" unicode="&#x308;" 
d="M-893 1149v213h299v-213h-299zM-449 1149v213h299v-213h-299z" />
    <glyph glyph-name="uni030A" unicode="&#x30a;" 
d="M-358 1128q-85 0 -135 53t-50 128t50 126.5t135 51.5q84 0 134 -51.5t50 -126.5t-50.5 -128t-133.5 -53zM-420 1309q0 -31 18 -48.5t44 -17.5t43.5 17.5t17.5 48.5q0 32 -17 48.5t-44 16.5t-44.5 -16.5t-17.5 -48.5z" />
    <glyph glyph-name="uni030B" unicode="&#x30b;" 
d="M-166 1315l-352 -180l-60 65l259 275zM-621 1300l-352 -178l-59 64l258 274z" />
    <glyph glyph-name="uni030C" unicode="&#x30c;" 
d="M-854 1292l104 115l236 -131l238 131l102 -115l-260 -151h-158z" />
    <glyph glyph-name="uni0312" unicode="&#x312;" 
d="M-174 1430v-291h-318v444q0 53 10 91.5t35.5 70.5t74 48.5t120.5 16.5h78v-180h-121v-200h121z" />
    <glyph glyph-name="uni0326" unicode="&#x326;" 
d="M-455 -387v291h316v-445q0 -53 -10 -91.5t-35 -70.5t-73 -48.5t-120 -16.5h-78v180h121v201h-121z" />
    <glyph glyph-name="uni0327" unicode="&#x327;" 
d="M-498 -393v215h164l-61 264h243l58 -270q18 -89 -27.5 -149t-142.5 -60h-234z" />
    <glyph glyph-name="uni0328" unicode="&#x328;" 
d="M-305 -418q-133 0 -217 71.5t-84 188.5q0 103 62.5 188.5t183.5 143.5l84 -51q-119 -88 -119 -195q0 -58 37 -90.5t88 -32.5q53 0 100 15l4 -213q-52 -25 -139 -25z" />
    <glyph glyph-name="uni0394" unicode="&#x394;" horiz-adv-x="1546" 
d="M1030 1362l414 -1088v-274h-1342v274l414 1088h514zM473 272h598l-299 805z" />
    <glyph glyph-name="uni03A9" unicode="&#x3a9;" horiz-adv-x="1667" 
d="M63 0v268h340q-137 61 -214.5 187t-77.5 311q0 87 22 172t76 169t134.5 147.5t207 103t283.5 39.5t283.5 -39.5t206.5 -103t134 -147.5t76 -169t22 -172q0 -185 -77 -311.5t-213 -186.5h338v-268h-1541zM834 328q86 0 148.5 19t101.5 51.5t62 85t31.5 110.5t8.5 137
q0 80 -8.5 139t-31.5 111.5t-62 84.5t-101.5 50.5t-148.5 18.5q-107 0 -177.5 -26.5t-108.5 -82t-52.5 -125t-14.5 -170.5q0 -99 14.5 -168t52.5 -124.5t109 -83t177 -27.5z" />
    <glyph glyph-name="pi" unicode="&#x3c0;" horiz-adv-x="1634" 
d="M1534 760h-264v-481h231v-279h-172q-227 0 -319 98t-92 305v357h-197v-760h-352v760h-269v264h1434v-264z" />
    <glyph glyph-name="Wgrave" unicode="&#x1e80;" horiz-adv-x="2271" 
d="M1448 1563l-23 -86l-600 43l60 215zM1833 1362h354l-233 -1362h-613l-206 1073l-205 -1073h-611l-235 1362h354l197 -1143l231 1143h537l233 -1149z" />
    <glyph glyph-name="wgrave" unicode="&#x1e81;" horiz-adv-x="1888" 
d="M1257 1221l-22 -84l-600 43l59 213zM1538 1024h328l-252 -1024h-488l-180 674l-182 -674h-490l-249 1024h354l170 -756l227 756h371l227 -758z" />
    <glyph glyph-name="Wacute" unicode="&#x1e82;" horiz-adv-x="2271" 
d="M1448 1520l-602 -43l-21 86l561 172zM1833 1362h354l-233 -1362h-613l-206 1073l-205 -1073h-611l-235 1362h354l197 -1143l231 1143h537l233 -1149z" />
    <glyph glyph-name="wacute" unicode="&#x1e83;" horiz-adv-x="1888" 
d="M1255 1180l-600 -43l-22 84l563 172zM1538 1024h328l-252 -1024h-488l-180 674l-182 -674h-490l-249 1024h354l170 -756l227 756h371l227 -758z" />
    <glyph glyph-name="Wdieresis" unicode="&#x1e84;" horiz-adv-x="2271" 
d="M1075 1706v-215h-299v215h299zM1493 1706v-215h-299v215h299zM1833 1362h354l-233 -1362h-613l-206 1073l-205 -1073h-611l-235 1362h354l197 -1143l231 1143h537l233 -1149z" />
    <glyph glyph-name="wdieresis" unicode="&#x1e85;" horiz-adv-x="1888" 
d="M872 1362v-213h-299v213h299zM1317 1362v-213h-299v213h299zM1538 1024h328l-252 -1024h-488l-180 674l-182 -674h-490l-249 1024h354l170 -756l227 756h371l227 -758z" />
    <glyph glyph-name="Ygrave" unicode="&#x1ef2;" horiz-adv-x="1470" 
d="M1049 1563l-23 -86l-600 43l59 215zM1026 1362h399l-507 -969v-393h-363v393l-512 969h406l194 -447q55 -131 90 -231q42 112 92 231z" />
    <glyph glyph-name="ygrave" unicode="&#x1ef3;" horiz-adv-x="1208" 
d="M918 1221l-23 -84l-600 43l59 213zM870 1024h334l-325 -1026q-26 -85 -53.5 -145t-68.5 -112.5t-93.5 -84t-125.5 -49t-169 -17.5h-295v279h440l53 160h-223l-332 995h359l198 -594l60 -190l53 190z" />
    <glyph glyph-name="endash" unicode="&#x2013;" horiz-adv-x="1208" 
d="M53 649h1102v-233h-1102v233z" />
    <glyph glyph-name="emdash" unicode="&#x2014;" horiz-adv-x="1648" 
d="M53 649h1540v-233h-1540v233z" />
    <glyph glyph-name="quoteleft" unicode="&#x2018;" horiz-adv-x="409" 
d="M362 981v-291h-315v443q0 54 10 92.5t35 71t73 49t120 16.5h77v-182h-120v-199h120z" />
    <glyph glyph-name="quoteright" unicode="&#x2019;" horiz-adv-x="409" 
d="M47 1071v291h315v-444q0 -53 -9.5 -91.5t-34.5 -71t-73 -49t-120 -16.5h-78v180h121v201h-121z" />
    <glyph glyph-name="quotesinglbase" unicode="&#x201a;" horiz-adv-x="409" 
d="M47 16v291h315v-444q0 -54 -9.5 -92.5t-34.5 -71.5t-73 -49.5t-120 -16.5h-78v183h121v200h-121z" />
    <glyph glyph-name="quotedblleft" unicode="&#x201c;" horiz-adv-x="845" 
d="M362 981v-291h-315v443q0 54 10 92.5t35 71t73 49t120 16.5h77v-182h-120v-199h120zM801 981v-291h-318v443q0 54 10 92.5t35.5 71t74 49t120.5 16.5h78v-182h-121v-199h121z" />
    <glyph glyph-name="quotedblright" unicode="&#x201d;" horiz-adv-x="845" 
d="M47 1071v291h315v-444q0 -53 -9.5 -91.5t-34.5 -71t-73 -49t-120 -16.5h-78v180h121v201h-121zM483 1071v291h318v-444q0 -53 -10 -91.5t-35.5 -71t-74 -49t-120.5 -16.5h-78v180h121v201h-121z" />
    <glyph glyph-name="quotedblbase" unicode="&#x201e;" horiz-adv-x="409" 
d="M47 16v291h315v-444q0 -54 -9.5 -92.5t-34.5 -71.5t-73 -49.5t-120 -16.5h-78v183h121v200h-121z" />
    <glyph glyph-name="dagger" unicode="&#x2020;" horiz-adv-x="1308" 
d="M1135 1253v-272h-322v-639h-313v639h-326v272h326v334h313v-334h322z" />
    <glyph glyph-name="daggerdbl" unicode="&#x2021;" horiz-adv-x="1308" 
d="M1135 1032h-322v-229h322v-271h-322v-282h-313v282h-326v271h326v229h-326v273h326v282h313v-282h322v-273z" />
    <glyph glyph-name="bullet" unicode="&#x2022;" horiz-adv-x="815" 
d="M408 270q-107 0 -174.5 67.5t-67.5 174.5t67.5 174.5t174.5 67.5t173 -67t66 -175t-66 -175t-173 -67z" />
    <glyph glyph-name="ellipsis" unicode="&#x2026;" horiz-adv-x="1368" 
d="M47 0v307h332v-307h-332zM518 0v307h332v-307h-332zM989 0v307h332v-307h-332z" />
    <glyph glyph-name="perthousand" unicode="&#x2030;" horiz-adv-x="2533" 
d="M88 0v25l1141 1144h-457v-397h-618v590h1337q117 0 117 -94q0 -29 -15.5 -57.5t-56.5 -69.5l-1108 -1141h-340zM358 967h213v202h-213v-202zM1042 0v588h619v-588h-619zM1812 0v588h619v-588h-619zM1247 195h213v202h-213v-202zM2017 195h213v202h-213v-202z" />
    <glyph glyph-name="guilsinglleft" unicode="&#x2039;" horiz-adv-x="968" 
d="M104 489v48l402 487h360l-434 -512l434 -512h-360z" />
    <glyph glyph-name="guilsinglright" unicode="&#x203a;" horiz-adv-x="968" 
d="M864 489l-401 -489h-361l437 512l-437 512h361l401 -487v-48z" />
    <glyph glyph-name="Euro" unicode="&#x20ac;" horiz-adv-x="1910" 
d="M1114 901v-172h-950v172h170q27 106 80.5 193t137 156.5t206 108t274.5 38.5q240 0 392.5 -66t226.5 -193t90 -327h-371q-13 147 -87.5 219t-244.5 72q-250 0 -321 -201h397zM1374 561h373q-16 -213 -90 -341t-226 -190.5t-401 -62.5q-302 0 -475 131t-223 353h-168v172
h950v-172h-401q32 -99 108.5 -145t206.5 -46q177 0 255.5 73t90.5 228z" />
    <glyph glyph-name="trademark" unicode="&#x2122;" horiz-adv-x="3086" 
d="M2976 1362v-1362h-361v1128l-327 -1128h-404l-330 1137v-1137h-360v1077h-330v-1077h-362v1077h-439v285h1752l276 -989l279 989h606z" />
    <glyph glyph-name="arrowleft" unicode="&#x2190;" horiz-adv-x="1533" 
d="M1432 694v-233h-895l362 -363l-160 -159l-637 639l637 636l160 -159l-362 -361h895z" />
    <glyph glyph-name="arrowup" unicode="&#x2191;" horiz-adv-x="1480" 
d="M1378 692l-159 -160l-359 361v-893h-239v891l-359 -359l-160 160l639 637z" />
    <glyph glyph-name="arrowright" unicode="&#x2192;" horiz-adv-x="1533" 
d="M795 1214l637 -636l-637 -639l-160 159l362 363h-895v233h895l-362 361z" />
    <glyph glyph-name="arrowdown" unicode="&#x2193;" horiz-adv-x="1480" 
d="M1219 737l159 -159l-637 -639l-639 639l160 159l359 -358v889h239v-891z" />
    <glyph glyph-name="uni2196" unicode="&#x2196;" horiz-adv-x="1228" 
d="M1126 170l-168 -170l-630 629v-506h-226v901h902v-225h-506z" />
    <glyph glyph-name="uni2197" unicode="&#x2197;" horiz-adv-x="1228" 
d="M225 1024h901v-901h-225v506l-629 -629l-170 170l629 629h-506v225z" />
    <glyph glyph-name="uni2198" unicode="&#x2198;" horiz-adv-x="1228" 
d="M901 901h225v-901h-901v225h506l-629 631l170 168l629 -629v506z" />
    <glyph glyph-name="uni2199" unicode="&#x2199;" horiz-adv-x="1228" 
d="M1126 856l-628 -631h506v-225h-902v901h226v-506l630 629z" />
    <glyph glyph-name="partialdiff" unicode="&#x2202;" horiz-adv-x="1306" 
d="M63 514q0 88 16 164t52.5 142t90 113t133 74t177.5 27q247 0 361 -176q0 149 -116 276.5t-302 204.5l154 224q614 -244 614 -914q0 -348 -142 -515t-446 -167q-125 0 -225.5 29t-168 79t-113 120t-65.5 149.5t-20 169.5zM416 512q0 -144 53 -207t182 -63q132 0 187 65
t55 205t-55 205t-187 65q-129 0 -182 -63t-53 -207z" />
    <glyph glyph-name="product" unicode="&#x220f;" horiz-adv-x="1792" 
d="M1630 1587v-272h-270v-1725h-313v1725h-291v-1725h-314v1725h-270v272h1458z" />
    <glyph glyph-name="summation" unicode="&#x2211;" horiz-adv-x="1449" 
d="M1286 1587v-272h-770l559 -725l-559 -727h770v-273h-1122v273l559 727l-559 725v272h1122z" />
    <glyph glyph-name="minus" unicode="&#x2212;" horiz-adv-x="1228" 
d="M174 649h881v-233h-881v233z" />
    <glyph glyph-name="radical" unicode="&#x221a;" horiz-adv-x="2097" 
d="M1974 1526v-273h-389l-575 -1663h-451l-395 889h289l323 -729l615 1776h583z" />
    <glyph glyph-name="infinity" unicode="&#x221e;" horiz-adv-x="1914" 
d="M549 158q-176 0 -280.5 111t-104.5 272q0 154 105 263t280 109q119 0 209 -52.5t135 -136t45 -183.5q0 -162 -105.5 -272.5t-283.5 -110.5zM1364 158q-176 0 -280.5 111t-104.5 272q0 154 105 263t280 109q176 0 281.5 -108.5t105.5 -263.5q0 -162 -105 -272.5
t-282 -110.5zM383 537q0 -76 48.5 -124t117.5 -48q72 0 121 48t49 124q0 80 -48 124t-122 44q-71 0 -118.5 -44t-47.5 -124zM1196 537q0 -76 49 -124t119 -48q71 0 119.5 48t48.5 124q0 80 -47.5 124t-120.5 44q-71 0 -119.5 -44t-48.5 -124z" />
    <glyph glyph-name="integral" unicode="&#x222b;" horiz-adv-x="1531" 
d="M164 -410v285h321l207 1311q13 86 29 143t45.5 110t72.5 83t110 47.5t159 17.5h260v-284h-321l-207 -1311q-11 -72 -23.5 -121.5t-33 -98.5t-49.5 -80t-72 -55.5t-101.5 -35.5t-136.5 -11h-260z" />
    <glyph glyph-name="approxequal" unicode="&#x2248;" horiz-adv-x="1128" 
d="M758 612q-62 0 -119.5 25.5t-92.5 55.5t-73 55.5t-65 25.5q-56 0 -56 -74v-69h-178v157q0 94 56.5 140.5t140.5 46.5q62 0 119 -25.5t91.5 -56.5t72.5 -56.5t67 -25.5q55 0 55 74v69h178v-149q0 -94 -57.5 -143.5t-138.5 -49.5zM758 119q-62 0 -119.5 25.5t-92.5 55.5
t-73 55.5t-65 25.5q-56 0 -56 -74v-70h-178v158q0 94 56.5 140t140.5 46q62 0 119 -25.5t91.5 -56.5t72.5 -56.5t67 -25.5q55 0 55 74v70h178v-150q0 -94 -57.5 -143t-138.5 -49z" />
    <glyph glyph-name="notequal" unicode="&#x2260;" horiz-adv-x="1155" 
d="M977 618h-254l-72 -186h326v-233h-414l-69 -183h-220l70 183h-170v233h258l72 186h-330v234h418l67 178h220l-68 -178h166v-234z" />
    <glyph glyph-name="lessequal" unicode="&#x2264;" horiz-adv-x="1236" 
d="M1063 1016v-203l-750 -121l750 -121v-202l-889 159v328zM174 90v203h889v-203h-889z" />
    <glyph glyph-name="greaterequal" unicode="&#x2265;" horiz-adv-x="1236" 
d="M174 1016l889 -160v-328l-889 -159v202l750 121l-750 121v203zM174 90v203h889v-203h-889z" />
    <glyph glyph-name="filledbox" unicode="&#x25a0;" horiz-adv-x="1568" 
d="M102 1362h1364v-1362h-1364v1362z" />
    <glyph glyph-name="triagup" unicode="&#x25b2;" horiz-adv-x="1728" 
d="M864 1362l762 -1362h-1524z" />
    <glyph glyph-name="lozenge" unicode="&#x25ca;" horiz-adv-x="1470" 
d="M1006 1362l301 -680l-301 -682h-541l-301 682l301 680h541zM735 129l244 553l-244 551l-243 -551z" />
    <glyph glyph-name="uni25CF" unicode="&#x25cf;" horiz-adv-x="1640" 
d="M823 -37q-197 0 -363 96t-262 262t-96 363q0 146 56.5 278t153 228t230 152.5t281.5 56.5q146 0 278 -56.5t228 -152.5t152.5 -228t56.5 -278q0 -148 -56.5 -281.5t-152.5 -230t-228 -153t-278 -56.5z" />
    <glyph glyph-name="G.ss03" horiz-adv-x="1626" 
d="M725 -33q-162 0 -287 56.5t-201.5 155.5t-115.5 226t-39 275q0 121 26.5 226.5t85 196.5t144.5 155.5t212 101.5t281 37q171 0 300.5 -38t207.5 -106t118.5 -153t47.5 -189h-360q-13 94 -91.5 150.5t-219.5 56.5q-187 0 -281 -106t-94 -332q0 -219 85.5 -326.5
t266.5 -107.5q89 0 154.5 20.5t104.5 59.5t60.5 85.5t30.5 108.5h-440v228h524q126 0 192 -67.5t66 -193.5v-487h-301v250q-103 -283 -477 -283z" />
    <glyph glyph-name="Gbreve.ss03" horiz-adv-x="1626" 
d="M489 1696h195q3 -42 36 -68t89 -26t90 26t37 68h192q-1 -32 -10.5 -61.5t-32 -59.5t-57 -51.5t-91 -35t-128.5 -13.5t-128.5 13.5t-91 35t-57.5 51.5t-32.5 59.5t-10.5 61.5zM725 -33q-162 0 -287 56.5t-201.5 155.5t-115.5 226t-39 275q0 121 26.5 226.5t85 196.5
t144.5 155.5t212 101.5t281 37q171 0 300.5 -38t207.5 -106t118.5 -153t47.5 -189h-360q-13 94 -91.5 150.5t-219.5 56.5q-187 0 -281 -106t-94 -332q0 -219 85.5 -326.5t266.5 -107.5q89 0 154.5 20.5t104.5 59.5t60.5 85.5t30.5 108.5h-440v228h524q126 0 192 -67.5
t66 -193.5v-487h-301v250q-103 -283 -477 -283z" />
    <glyph glyph-name="uni0122.ss03" horiz-adv-x="1626" 
d="M725 -33q-162 0 -287 56.5t-201.5 155.5t-115.5 226t-39 275q0 121 26.5 226.5t85 196.5t144.5 155.5t212 101.5t281 37q171 0 300.5 -38t207.5 -106t118.5 -153t47.5 -189h-360q-13 94 -91.5 150.5t-219.5 56.5q-187 0 -281 -106t-94 -332q0 -219 85.5 -326.5
t266.5 -107.5q89 0 154.5 20.5t104.5 59.5t60.5 85.5t30.5 108.5h-440v228h524q126 0 192 -67.5t66 -193.5v-487h-301v250q-103 -283 -477 -283zM651 -387v291h316v-445q0 -53 -10 -91.5t-35 -70.5t-73 -48.5t-120 -16.5h-78v180h121v201h-121z" />
    <glyph glyph-name="Gdotaccent.ss03" horiz-adv-x="1626" 
d="M629 1491v215h364v-215h-364zM725 -33q-162 0 -287 56.5t-201.5 155.5t-115.5 226t-39 275q0 121 26.5 226.5t85 196.5t144.5 155.5t212 101.5t281 37q171 0 300.5 -38t207.5 -106t118.5 -153t47.5 -189h-360q-13 94 -91.5 150.5t-219.5 56.5q-187 0 -281 -106t-94 -332
q0 -219 85.5 -326.5t266.5 -107.5q89 0 154.5 20.5t104.5 59.5t60.5 85.5t30.5 108.5h-440v228h524q126 0 192 -67.5t66 -193.5v-487h-301v250q-103 -283 -477 -283z" />
    <glyph glyph-name="Q.ss03" horiz-adv-x="1628" 
d="M1546 680q0 -174 -59 -322t-184 -245l133 -172l-244 -154l-141 207q-118 -27 -238 -27q-156 0 -281.5 39.5t-208 106t-138 159t-79.5 194t-24 214.5q0 111 24 212t79.5 194.5t138 161.5t208 108.5t281.5 40.5q157 0 283.5 -40.5t209 -109t138 -162t79 -194t23.5 -211.5z
M813 260q37 0 53 2l-116 172l204 129l146 -188q69 94 69 305q0 107 -16 181t-55 130.5t-109.5 83.5t-175.5 27q-104 0 -173.5 -27t-109 -83.5t-55.5 -131t-16 -180.5q0 -105 16 -178.5t55 -130t109 -84t174 -27.5z" />
    <glyph glyph-name="R.ss03" horiz-adv-x="1398" 
d="M952 502l97 -215h264v-287h-373q-143 0 -195 143l-129 351h-141v-494h-364v1362h753q225 0 341 -109t116 -303q0 -200 -90 -311t-279 -137zM475 1085v-333h291q93 0 135.5 42.5t42.5 129.5q0 82 -42 121.5t-132 39.5h-295z" />
    <glyph glyph-name="Racute.ss03" horiz-adv-x="1398" 
d="M1012 1520l-602 -43l-21 86l561 172zM952 502l97 -215h264v-287h-373q-143 0 -195 143l-129 351h-141v-494h-364v1362h753q225 0 341 -109t116 -303q0 -200 -90 -311t-279 -137zM475 1085v-333h291q93 0 135.5 42.5t42.5 129.5q0 82 -42 121.5t-132 39.5h-295z" />
    <glyph glyph-name="Rcaron.ss03" horiz-adv-x="1398" 
d="M780 1464h-157l-263 152l105 115l235 -132l238 132l102 -115zM952 502l97 -215h264v-287h-373q-143 0 -195 143l-129 351h-141v-494h-364v1362h753q225 0 341 -109t116 -303q0 -200 -90 -311t-279 -137zM475 1085v-333h291q93 0 135.5 42.5t42.5 129.5q0 82 -42 121.5
t-132 39.5h-295z" />
    <glyph glyph-name="uni0156.ss03" horiz-adv-x="1398" 
d="M952 502l97 -215h264v-287h-373q-143 0 -195 143l-129 351h-141v-494h-364v1362h753q225 0 341 -109t116 -303q0 -200 -90 -311t-279 -137zM475 1085v-333h291q93 0 135.5 42.5t42.5 129.5q0 82 -42 121.5t-132 39.5h-295zM543 -387v291h315v-445q0 -111 -50 -169
t-187 -58h-78v180h121v201h-121z" />
    <glyph glyph-name="i.loclTRK" horiz-adv-x="563" 
d="M98 1149v213h365v-213h-365zM104 0v1024h353v-1024h-353z" />
    <glyph glyph-name="a.ss01" horiz-adv-x="1320" 
d="M862 1024h352v-1024h-352v141q-105 -174 -348 -174q-99 0 -177 29.5t-129 80t-84 121t-47 148t-14 166.5q0 91 14 169.5t47 148.5t84 119.5t129 78.5t177 29q244 0 348 -172v139zM635 242q122 0 174.5 60t52.5 210t-52.5 210t-174.5 60q-123 0 -173 -60t-50 -210t50 -210
t173 -60z" />
    <glyph glyph-name="aacute.ss01" horiz-adv-x="1320" 
d="M971 1180l-600 -43l-23 84l563 172zM862 1024h352v-1024h-352v141q-105 -174 -348 -174q-99 0 -177 29.5t-129 80t-84 121t-47 148t-14 166.5q0 91 14 169.5t47 148.5t84 119.5t129 78.5t177 29q244 0 348 -172v139zM635 242q122 0 174.5 60t52.5 210t-52.5 210
t-174.5 60q-123 0 -173 -60t-50 -210t50 -210t173 -60z" />
    <glyph glyph-name="abreve.ss01" horiz-adv-x="1320" 
d="M645 1141q-72 0 -128.5 13.5t-91 35t-57 51.5t-32 59.5t-10.5 61.5h194q3 -42 36 -68t89 -26t90 26t37 68h193q-1 -32 -10.5 -61.5t-32.5 -59.5t-57.5 -51.5t-91 -35t-128.5 -13.5zM862 1024h352v-1024h-352v141q-105 -174 -348 -174q-99 0 -177 29.5t-129 80t-84 121
t-47 148t-14 166.5q0 91 14 169.5t47 148.5t84 119.5t129 78.5t177 29q244 0 348 -172v139zM635 242q122 0 174.5 60t52.5 210t-52.5 210t-174.5 60q-123 0 -173 -60t-50 -210t50 -210t173 -60z" />
    <glyph glyph-name="acircumflex.ss01" horiz-adv-x="1320" 
d="M659 1249l-235 -131l-105 115l263 151h157l260 -151l-102 -115zM862 1024h352v-1024h-352v141q-105 -174 -348 -174q-99 0 -177 29.5t-129 80t-84 121t-47 148t-14 166.5q0 91 14 169.5t47 148.5t84 119.5t129 78.5t177 29q244 0 348 -172v139zM635 242q122 0 174.5 60
t52.5 210t-52.5 210t-174.5 60q-123 0 -173 -60t-50 -210t50 -210t173 -60z" />
    <glyph glyph-name="adieresis.ss01" horiz-adv-x="1320" 
d="M586 1362v-213h-299v213h299zM1030 1362v-213h-299v213h299zM862 1024h352v-1024h-352v141q-105 -174 -348 -174q-99 0 -177 29.5t-129 80t-84 121t-47 148t-14 166.5q0 91 14 169.5t47 148.5t84 119.5t129 78.5t177 29q244 0 348 -172v139zM635 242q122 0 174.5 60
t52.5 210t-52.5 210t-174.5 60q-123 0 -173 -60t-50 -210t50 -210t173 -60z" />
    <glyph glyph-name="agrave.ss01" horiz-adv-x="1320" 
d="M973 1221l-23 -84l-600 43l60 213zM862 1024h352v-1024h-352v141q-105 -174 -348 -174q-99 0 -177 29.5t-129 80t-84 121t-47 148t-14 166.5q0 91 14 169.5t47 148.5t84 119.5t129 78.5t177 29q244 0 348 -172v139zM635 242q122 0 174.5 60t52.5 210t-52.5 210t-174.5 60
q-123 0 -173 -60t-50 -210t50 -210t173 -60z" />
    <glyph glyph-name="amacron.ss01" horiz-adv-x="1320" 
d="M1053 1362v-191h-785v191h785zM862 1024h352v-1024h-352v141q-105 -174 -348 -174q-99 0 -177 29.5t-129 80t-84 121t-47 148t-14 166.5q0 91 14 169.5t47 148.5t84 119.5t129 78.5t177 29q244 0 348 -172v139zM635 242q122 0 174.5 60t52.5 210t-52.5 210t-174.5 60
q-123 0 -173 -60t-50 -210t50 -210t173 -60z" />
    <glyph glyph-name="aogonek.ss01" horiz-adv-x="1320" 
d="M1245 -180l4 -213q-52 -25 -139 -25q-133 0 -217 71.5t-84 188.5q0 96 53 176v123q-105 -174 -348 -174q-99 0 -177 29.5t-129 80t-84 121t-47 148t-14 166.5q0 91 14 169.5t47 148.5t84 119.5t129 78.5t177 29q244 0 348 -172v139h352v-1024h-180q-14 -32 -14 -72
q0 -58 37 -90.5t88 -32.5q53 0 100 15zM635 242q122 0 174.5 60t52.5 210t-52.5 210t-174.5 60q-123 0 -173 -60t-50 -210t50 -210t173 -60z" />
    <glyph glyph-name="aring.ss01" horiz-adv-x="1320" 
d="M662 1128q-85 0 -135 53t-50 128t50 126.5t135 51.5q84 0 134 -51.5t50 -126.5t-50.5 -128t-133.5 -53zM662 1374q-27 0 -44.5 -16.5t-17.5 -48.5q0 -31 18 -48.5t44 -17.5t43.5 17.5t17.5 48.5q0 32 -17 48.5t-44 16.5zM862 1024h352v-1024h-352v141
q-105 -174 -348 -174q-99 0 -177 29.5t-129 80t-84 121t-47 148t-14 166.5q0 91 14 169.5t47 148.5t84 119.5t129 78.5t177 29q244 0 348 -172v139zM635 242q122 0 174.5 60t52.5 210t-52.5 210t-174.5 60q-123 0 -173 -60t-50 -210t50 -210t173 -60z" />
    <glyph glyph-name="atilde.ss01" horiz-adv-x="1320" 
d="M483 1163v-24h-209v59q0 184 199 184q52 0 101 -15.5t79.5 -34.5t65.5 -34.5t63 -15.5q54 0 54 72v24h208v-53q0 -96 -53 -143t-145 -47q-62 0 -122.5 25t-107.5 50t-77 25q-56 0 -56 -72zM862 1024h352v-1024h-352v141q-105 -174 -348 -174q-99 0 -177 29.5t-129 80
t-84 121t-47 148t-14 166.5q0 91 14 169.5t47 148.5t84 119.5t129 78.5t177 29q244 0 348 -172v139zM635 242q122 0 174.5 60t52.5 210t-52.5 210t-174.5 60q-123 0 -173 -60t-50 -210t50 -210t173 -60z" />
    <glyph glyph-name="g.ss02" horiz-adv-x="1292" 
d="M895 158q168 0 258 -71t90 -204q0 -323 -633 -323q-520 0 -520 235q0 132 135 174q-65 25 -98 73t-33 105q0 83 61 138t158 75q-110 44 -167.5 124t-57.5 190q0 95 35 166t98 113t142.5 62.5t175.5 20.5q133 0 226.5 -50.5t137.5 -125.5v164h301v-354q0 -62 -14 -116
t-51.5 -107t-96.5 -90.5t-155 -61t-221 -25.5h-146q-88 0 -88 -59q0 -53 78 -53h385zM643 799q-203 0 -203 -148q0 -143 203 -143q112 0 159.5 35.5t47.5 107.5q0 73 -49 110.5t-158 37.5zM635 -264q138 0 196 26.5t58 79.5q0 82 -109 82h-303q-44 0 -66 -21t-22 -55
q0 -59 60 -85.5t186 -26.5z" />
    <glyph glyph-name="gbreve.ss02" horiz-adv-x="1292" 
d="M631 1141q-72 0 -128.5 13.5t-91 35t-57.5 51.5t-32.5 59.5t-10.5 61.5h195q3 -42 36 -68t89 -26t90 26t37 68h192q-1 -32 -10.5 -61.5t-32 -59.5t-57 -51.5t-91 -35t-128.5 -13.5zM895 158q168 0 258 -71t90 -204q0 -323 -633 -323q-520 0 -520 235q0 132 135 174
q-65 25 -98 73t-33 105q0 83 61 138t158 75q-110 44 -167.5 124t-57.5 190q0 95 35 166t98 113t142.5 62.5t175.5 20.5q133 0 226.5 -50.5t137.5 -125.5v164h301v-354q0 -62 -14 -116t-51.5 -107t-96.5 -90.5t-155 -61t-221 -25.5h-146q-88 0 -88 -59q0 -53 78 -53h385z
M643 799q-203 0 -203 -148q0 -143 203 -143q112 0 159.5 35.5t47.5 107.5q0 73 -49 110.5t-158 37.5zM635 -264q138 0 196 26.5t58 79.5q0 82 -109 82h-303q-44 0 -66 -21t-22 -55q0 -59 60 -85.5t186 -26.5z" />
    <glyph glyph-name="uni0123.ss02" horiz-adv-x="1292" 
d="M805 1430v-291h-318v444q0 53 10 91.5t35.5 70.5t74 48.5t120.5 16.5h78v-180h-121v-200h121zM895 158q168 0 258 -71t90 -204q0 -323 -633 -323q-520 0 -520 235q0 132 135 174q-65 25 -98 73t-33 105q0 83 61 138t158 75q-110 44 -167.5 124t-57.5 190q0 95 35 166
t98 113t142.5 62.5t175.5 20.5q133 0 226.5 -50.5t137.5 -125.5v164h301v-354q0 -62 -14 -116t-51.5 -107t-96.5 -90.5t-155 -61t-221 -25.5h-146q-88 0 -88 -59q0 -53 78 -53h385zM643 799q-203 0 -203 -148q0 -143 203 -143q112 0 159.5 35.5t47.5 107.5q0 73 -49 110.5
t-158 37.5zM635 -264q138 0 196 26.5t58 79.5q0 82 -109 82h-303q-44 0 -66 -21t-22 -55q0 -59 60 -85.5t186 -26.5z" />
    <glyph glyph-name="gdotaccent.ss02" horiz-adv-x="1292" 
d="M829 1362v-213h-364v213h364zM895 158q168 0 258 -71t90 -204q0 -323 -633 -323q-520 0 -520 235q0 132 135 174q-65 25 -98 73t-33 105q0 83 61 138t158 75q-110 44 -167.5 124t-57.5 190q0 95 35 166t98 113t142.5 62.5t175.5 20.5q133 0 226.5 -50.5t137.5 -125.5v164
h301v-354q0 -62 -14 -116t-51.5 -107t-96.5 -90.5t-155 -61t-221 -25.5h-146q-88 0 -88 -59q0 -53 78 -53h385zM643 799q-203 0 -203 -148q0 -143 203 -143q112 0 159.5 35.5t47.5 107.5q0 73 -49 110.5t-158 37.5zM635 -264q138 0 196 26.5t58 79.5q0 82 -109 82h-303
q-44 0 -66 -21t-22 -55q0 -59 60 -85.5t186 -26.5z" />
    <glyph glyph-name="f_f_j" horiz-adv-x="2076" 
d="M1499 1024v-264h-213v-760h-352v760h-369v-760h-352v760h-186v164l186 102v68q0 161 88 250.5t274 89.5h224v-254h-287v-156h422v53q0 357 360 357h674v-254h-737v-156h268zM1628 1024h352v-1032q0 -204 -94.5 -303t-320.5 -99h-244v279h307v1155z" />
    <glyph glyph-name="f_f_t" horiz-adv-x="2277" 
d="M2226 760h-278v-481h245v-279h-188q-115 0 -195 25.5t-127 77.5t-67.5 125t-20.5 175v371h-309v-774h-352v774h-369v-774h-352v760h-186v164l186 102v68q0 161 88 250.5t274 89.5h224v-254h-287v-156h418l4 2v68q0 161 87 250.5t273 89.5h211v-254h-274v-156h397l139 248
h181v-248h278v-264z" />
    <glyph glyph-name="f_j" horiz-adv-x="1421" 
d="M213 0v760h-186v164l186 102v68q0 161 88 250.5t274 89.5h738v-254h-801v-156h336v-264h-283v-760h-352zM666 -410v279h307v1155h352v-1032q0 -204 -95 -303t-321 -99h-243z" />
    <glyph glyph-name="f_t" horiz-adv-x="1558" 
d="M1505 760h-278v-481h246v-279h-187q-116 0 -196 25.5t-127.5 78t-68 125t-20.5 174.5v371h-309v-774h-352v760h-186v164l186 102v68q0 161 88 250.5t274 89.5h211v-254h-274v-156h397l140 248h178v-248h278v-264z" />
    <glyph glyph-name="r_t" horiz-adv-x="1619" 
d="M1567 760h-279v-481h246v-279h-188q-115 0 -195 25.5t-127 77.5t-67.5 125t-20.5 175v564l172 305h180v-248h279v-264zM446 815q32 113 101 169t190 56h86v-342h-125q-128 0 -184.5 -66.5t-56.5 -221.5v-410h-353v1024h342v-209z" />
    <glyph glyph-name="r_t_t" horiz-adv-x="2357" 
d="M2304 760h-279v-481h246v-279h-188q-115 0 -195 25.5t-127 77.5t-67.5 125t-20.5 175v357h-385v-481h246v-279h-188q-115 0 -195 25.5t-127 77.5t-67.5 125t-20.5 175v564l172 305h180v-248h418l139 248h180v-248h279v-264zM446 815q32 113 101 169t190 56h86v-342h-125
q-128 0 -184.5 -66.5t-56.5 -221.5v-410h-353v1024h342v-209z" />
    <glyph glyph-name="t_t" horiz-adv-x="1617" 
d="M1565 760h-279v-481h246v-279h-186q-116 0 -196 25.5t-127.5 78t-68 125t-20.5 174.5v371h-385v-495h246v-279h-187q-227 0 -319 98t-92 305v357h-181v164l209 92l146 256h178v-248h420l139 248h178v-248h279v-264z" />
    <glyph glyph-name="asterisk.case" horiz-adv-x="1566" 
d="M1464 567h-174l-446 90l379 -254l123 -122l-160 -160l-123 123l-254 377l88 -447v-174h-227v174l90 447l-254 -377l-123 -123l-160 160l123 122l377 254l-447 -90h-174v228h174l447 -88l-377 254l-123 122l160 160l123 -123l254 -379l-90 447v174h227v-174l-88 -445
l254 377l123 123l160 -160l-123 -122l-377 -254l444 88h174v-228z" />
    <glyph glyph-name="sterling.ss01" horiz-adv-x="1288" 
d="M672 250h483v-250h-1022v250h186v194h-151v203h151v115h-151v205h151v65q0 204 95 303t321 99h352v-279h-415v-188h307v-205h-307v-115h307v-203h-307v-194z" />
    <glyph glyph-name="percent.alt" horiz-adv-x="1626" 
d="M391 791q-143 0 -223 88t-80 215q0 125 80.5 214t222.5 89t223.5 -89t81.5 -214q0 -127 -81 -215t-224 -88zM113 0v25l1034 1337h307v-25l-1032 -1337h-309zM391 965q119 0 119 129q0 67 -28.5 98t-90.5 31q-63 0 -90 -31t-27 -98q0 -65 27 -97t90 -32zM1221 -12
q-143 0 -224.5 89t-81.5 216q0 124 82 212.5t224 88.5t222.5 -88t80.5 -213q0 -128 -80.5 -216.5t-222.5 -88.5zM1221 164q62 0 89 31.5t27 97.5t-27 96.5t-89 30.5q-63 0 -91 -30.5t-28 -96.5t28 -97.5t91 -31.5z" />
    <glyph glyph-name="uni2197.case" horiz-adv-x="1228" 
d="M225 1362h901v-901h-225v506l-629 -629l-170 170l629 629h-506v225z" />
    <glyph glyph-name="uni2196.case" horiz-adv-x="1228" 
d="M1126 508l-168 -170l-630 629v-506h-226v901h902v-225h-506z" />
    <glyph glyph-name="uni0308.case" 
d="M-825 1491v215h299v-215h-299zM-408 1491v215h299v-215h-299z" />
    <glyph glyph-name="uni0307.case" 
d="M-465 1491v215h365v-215h-365z" />
    <glyph glyph-name="gravecomb.case" 
d="M-682 1520l59 215l564 -172l-23 -86z" />
    <glyph glyph-name="acutecomb.case" 
d="M-59 1520l-603 -43l-20 86l561 172z" />
    <glyph glyph-name="uni030B.case" 
d="M-174 1624l-350 -178l-62 63l258 277zM-629 1612l-352 -180l-59 65l258 275z" />
    <glyph glyph-name="uni0302.case" 
d="M-772 1599l262 152h158l260 -152l-103 -114l-237 131l-236 -131z" />
    <glyph glyph-name="uni030C.case" 
d="M-854 1616l104 115l236 -132l238 132l102 -115l-260 -152h-158z" />
    <glyph glyph-name="uni0306.case" 
d="M-856 1696h194q3 -42 36 -68t89 -26t90 26t37 68h193q-1 -32 -10.5 -61.5t-32.5 -59.5t-57.5 -51.5t-91 -35t-128.5 -13.5t-128.5 13.5t-91 35t-57 51.5t-32 59.5t-10.5 61.5z" />
    <glyph glyph-name="uni030A.case" 
d="M-358 1430q-112 0 -177 68t-65 169q0 98 65.5 166t176.5 68t176 -68t65 -166q0 -101 -64.5 -169t-176.5 -68zM-438 1667q0 -40 23.5 -62t56.5 -22t56 22t23 62t-23 61t-56 21q-34 0 -57 -21t-23 -61z" />
    <glyph glyph-name="tildecomb.case" 
d="M-369 1473q-62 0 -122.5 25t-107.5 50t-77 25q-55 0 -55 -72v-24h-209v59q0 184 199 184q52 0 101 -15.5t79.5 -34.5t65.5 -34.5t63 -15.5q53 0 53 72v24h209v-53q0 -96 -53.5 -143t-145.5 -47z" />
    <glyph glyph-name="uni0304.case" 
d="M-1024 1706h850v-205h-850v205z" />
    <glyph glyph-name="uni0312.case" 
d="M-174 1712v-293h-318v445q0 54 10 92.5t35.5 71t74 49t120.5 16.5h78v-182h-121v-199h121z" />
    </font>
</defs>
</svg>
